%TF.GenerationSoftware,KiCad,Pcbnew,9.0.2-9.0.2-0~ubuntu24.04.1*%
%TF.CreationDate,2025-05-12T05:48:31-04:00*%
%TF.ProjectId,lt3014-test,6c743330-3134-42d7-9465-73742e6b6963,rev?*%
%TF.SameCoordinates,Original*%
%TF.FileFunction,Soldermask,Top*%
%TF.FilePolarity,Negative*%
%FSLAX46Y46*%
G04 Gerber Fmt 4.6, Leading zero omitted, Abs format (unit mm)*
G04 Created by KiCad (PCBNEW 9.0.2-9.0.2-0~ubuntu24.04.1) date 2025-05-12 05:48:31*
%MOMM*%
%LPD*%
G01*
G04 APERTURE LIST*
G04 Aperture macros list*
%AMRoundRect*
0 Rectangle with rounded corners*
0 $1 Rounding radius*
0 $2 $3 $4 $5 $6 $7 $8 $9 X,Y pos of 4 corners*
0 Add a 4 corners polygon primitive as box body*
4,1,4,$2,$3,$4,$5,$6,$7,$8,$9,$2,$3,0*
0 Add four circle primitives for the rounded corners*
1,1,$1+$1,$2,$3*
1,1,$1+$1,$4,$5*
1,1,$1+$1,$6,$7*
1,1,$1+$1,$8,$9*
0 Add four rect primitives between the rounded corners*
20,1,$1+$1,$2,$3,$4,$5,0*
20,1,$1+$1,$4,$5,$6,$7,0*
20,1,$1+$1,$6,$7,$8,$9,0*
20,1,$1+$1,$8,$9,$2,$3,0*%
%AMFreePoly0*
4,1,37,0.800000,0.796148,0.878414,0.796148,1.032228,0.765552,1.177117,0.705537,1.307515,0.618408,1.418408,0.507515,1.505537,0.377117,1.565552,0.232228,1.596148,0.078414,1.596148,-0.078414,1.565552,-0.232228,1.505537,-0.377117,1.418408,-0.507515,1.307515,-0.618408,1.177117,-0.705537,1.032228,-0.765552,0.878414,-0.796148,0.800000,-0.796148,0.800000,-0.800000,-1.400000,-0.800000,
-1.403843,-0.796157,-1.439018,-0.796157,-1.511114,-0.766294,-1.566294,-0.711114,-1.596157,-0.639018,-1.596157,-0.603843,-1.600000,-0.600000,-1.600000,0.600000,-1.596157,0.603843,-1.596157,0.639018,-1.566294,0.711114,-1.511114,0.766294,-1.439018,0.796157,-1.403843,0.796157,-1.400000,0.800000,0.800000,0.800000,0.800000,0.796148,0.800000,0.796148,$1*%
%AMFreePoly1*
4,1,37,1.403843,0.796157,1.439018,0.796157,1.511114,0.766294,1.566294,0.711114,1.596157,0.639018,1.596157,0.603843,1.600000,0.600000,1.600000,-0.600000,1.596157,-0.603843,1.596157,-0.639018,1.566294,-0.711114,1.511114,-0.766294,1.439018,-0.796157,1.403843,-0.796157,1.400000,-0.800000,-0.800000,-0.800000,-0.800000,-0.796148,-0.878414,-0.796148,-1.032228,-0.765552,-1.177117,-0.705537,
-1.307515,-0.618408,-1.418408,-0.507515,-1.505537,-0.377117,-1.565552,-0.232228,-1.596148,-0.078414,-1.596148,0.078414,-1.565552,0.232228,-1.505537,0.377117,-1.418408,0.507515,-1.307515,0.618408,-1.177117,0.705537,-1.032228,0.765552,-0.878414,0.796148,-0.800000,0.796148,-0.800000,0.800000,1.400000,0.800000,1.403843,0.796157,1.403843,0.796157,$1*%
%AMFreePoly2*
4,1,37,0.603843,0.796157,0.639018,0.796157,0.711114,0.766294,0.766294,0.711114,0.796157,0.639018,0.796157,0.603843,0.800000,0.600000,0.800000,-0.600000,0.796157,-0.603843,0.796157,-0.639018,0.766294,-0.711114,0.711114,-0.766294,0.639018,-0.796157,0.603843,-0.796157,0.600000,-0.800000,0.000000,-0.800000,0.000000,-0.796148,-0.078414,-0.796148,-0.232228,-0.765552,-0.377117,-0.705537,
-0.507515,-0.618408,-0.618408,-0.507515,-0.705537,-0.377117,-0.765552,-0.232228,-0.796148,-0.078414,-0.796148,0.078414,-0.765552,0.232228,-0.705537,0.377117,-0.618408,0.507515,-0.507515,0.618408,-0.377117,0.705537,-0.232228,0.765552,-0.078414,0.796148,0.000000,0.796148,0.000000,0.800000,0.600000,0.800000,0.603843,0.796157,0.603843,0.796157,$1*%
%AMFreePoly3*
4,1,37,0.000000,0.796148,0.078414,0.796148,0.232228,0.765552,0.377117,0.705537,0.507515,0.618408,0.618408,0.507515,0.705537,0.377117,0.765552,0.232228,0.796148,0.078414,0.796148,-0.078414,0.765552,-0.232228,0.705537,-0.377117,0.618408,-0.507515,0.507515,-0.618408,0.377117,-0.705537,0.232228,-0.765552,0.078414,-0.796148,0.000000,-0.796148,0.000000,-0.800000,-0.600000,-0.800000,
-0.603843,-0.796157,-0.639018,-0.796157,-0.711114,-0.766294,-0.766294,-0.711114,-0.796157,-0.639018,-0.796157,-0.603843,-0.800000,-0.600000,-0.800000,0.600000,-0.796157,0.603843,-0.796157,0.639018,-0.766294,0.711114,-0.711114,0.766294,-0.639018,0.796157,-0.603843,0.796157,-0.600000,0.800000,0.000000,0.800000,0.000000,0.796148,0.000000,0.796148,$1*%
G04 Aperture macros list end*
%ADD10RoundRect,0.150000X-0.587500X-0.150000X0.587500X-0.150000X0.587500X0.150000X-0.587500X0.150000X0*%
%ADD11C,2.000000*%
%ADD12RoundRect,0.237500X-0.300000X-0.237500X0.300000X-0.237500X0.300000X0.237500X-0.300000X0.237500X0*%
%ADD13RoundRect,0.237500X0.250000X0.237500X-0.250000X0.237500X-0.250000X-0.237500X0.250000X-0.237500X0*%
%ADD14RoundRect,0.237500X-0.250000X-0.237500X0.250000X-0.237500X0.250000X0.237500X-0.250000X0.237500X0*%
%ADD15RoundRect,0.237500X0.300000X0.237500X-0.300000X0.237500X-0.300000X-0.237500X0.300000X-0.237500X0*%
%ADD16RoundRect,0.237500X-0.287500X-0.237500X0.287500X-0.237500X0.287500X0.237500X-0.287500X0.237500X0*%
%ADD17R,1.700000X1.700000*%
%ADD18C,1.700000*%
%ADD19RoundRect,0.150000X-0.825000X-0.150000X0.825000X-0.150000X0.825000X0.150000X-0.825000X0.150000X0*%
%ADD20C,4.300000*%
%ADD21RoundRect,0.150000X-0.512500X-0.150000X0.512500X-0.150000X0.512500X0.150000X-0.512500X0.150000X0*%
%ADD22C,2.200000*%
%ADD23C,1.850000*%
%ADD24FreePoly0,90.000000*%
%ADD25RoundRect,0.200000X0.600000X-0.600000X0.600000X0.600000X-0.600000X0.600000X-0.600000X-0.600000X0*%
%ADD26RoundRect,0.800000X0.000010X-0.800000X0.000010X0.800000X-0.000010X0.800000X-0.000010X-0.800000X0*%
%ADD27C,1.600000*%
%ADD28FreePoly1,90.000000*%
%ADD29FreePoly2,90.000000*%
%ADD30FreePoly3,90.000000*%
%ADD31RoundRect,0.087500X0.725000X0.087500X-0.725000X0.087500X-0.725000X-0.087500X0.725000X-0.087500X0*%
G04 APERTURE END LIST*
D10*
%TO.C,Q5*%
X113390200Y-67543600D03*
X113390200Y-69443600D03*
X115265200Y-68493600D03*
%TD*%
D11*
%TO.C,TP7*%
X101092000Y-75133200D03*
%TD*%
D12*
%TO.C,C8*%
X128932700Y-61442600D03*
X130657700Y-61442600D03*
%TD*%
D13*
%TO.C,R14*%
X105971100Y-54051200D03*
X104146100Y-54051200D03*
%TD*%
D14*
%TO.C,R9*%
X133838700Y-55854600D03*
X135663700Y-55854600D03*
%TD*%
D15*
%TO.C,C4*%
X121921200Y-49377600D03*
X120196200Y-49377600D03*
%TD*%
D16*
%TO.C,D1*%
X113374200Y-47091600D03*
X115124200Y-47091600D03*
%TD*%
D17*
%TO.C,J3*%
X86360000Y-72385000D03*
D18*
X86360000Y-74925000D03*
%TD*%
D14*
%TO.C,R3*%
X128881500Y-57658000D03*
X130706500Y-57658000D03*
%TD*%
D17*
%TO.C,J2*%
X86360000Y-58420000D03*
D18*
X86360000Y-60960000D03*
%TD*%
D15*
%TO.C,C5*%
X127482700Y-49250600D03*
X125757700Y-49250600D03*
%TD*%
D13*
%TO.C,R10*%
X135687200Y-58013600D03*
X133862200Y-58013600D03*
%TD*%
D14*
%TO.C,R4*%
X108815500Y-56591200D03*
X110640500Y-56591200D03*
%TD*%
D12*
%TO.C,C10*%
X104094500Y-56489600D03*
X105819500Y-56489600D03*
%TD*%
D13*
%TO.C,R13*%
X101627700Y-54051200D03*
X99802700Y-54051200D03*
%TD*%
D14*
%TO.C,R16*%
X108563400Y-69545200D03*
X110388400Y-69545200D03*
%TD*%
D16*
%TO.C,D3*%
X94121000Y-105359200D03*
X95871000Y-105359200D03*
%TD*%
D11*
%TO.C,TP4*%
X133504700Y-47091600D03*
%TD*%
D16*
%TO.C,D2*%
X85383400Y-66802000D03*
X87133400Y-66802000D03*
%TD*%
D13*
%TO.C,R15*%
X110386500Y-67513200D03*
X108561500Y-67513200D03*
%TD*%
D19*
%TO.C,U3*%
X100041700Y-60045600D03*
X100041700Y-61315600D03*
X100041700Y-62585600D03*
X100041700Y-63855600D03*
X104991700Y-63855600D03*
X104991700Y-62585600D03*
X104991700Y-61315600D03*
X104991700Y-60045600D03*
%TD*%
D13*
%TO.C,R7*%
X110644700Y-62204600D03*
X108819700Y-62204600D03*
%TD*%
D17*
%TO.C,J5*%
X98552000Y-110744000D03*
D18*
X101092000Y-110744000D03*
X103632000Y-110744000D03*
X106172000Y-110744000D03*
%TD*%
D13*
%TO.C,R17*%
X99667700Y-105359200D03*
X97842700Y-105359200D03*
%TD*%
%TO.C,R18*%
X108227500Y-105410000D03*
X106402500Y-105410000D03*
%TD*%
D20*
%TO.C,H3*%
X87630000Y-107950000D03*
%TD*%
D21*
%TO.C,U1*%
X122582700Y-52303600D03*
X122582700Y-53253600D03*
X122582700Y-54203600D03*
X124857700Y-54203600D03*
X124857700Y-52303600D03*
%TD*%
D11*
%TO.C,TP10*%
X139700000Y-73660000D03*
%TD*%
D14*
%TO.C,R8*%
X94794700Y-66852800D03*
X96619700Y-66852800D03*
%TD*%
D13*
%TO.C,R2*%
X130710700Y-55727600D03*
X128885700Y-55727600D03*
%TD*%
D17*
%TO.C,JP1*%
X107061000Y-75946000D03*
D18*
X107061000Y-73406000D03*
%TD*%
D20*
%TO.C,H2*%
X142240000Y-48260000D03*
%TD*%
D14*
%TO.C,R12*%
X94847400Y-64414400D03*
X96672400Y-64414400D03*
%TD*%
%TO.C,R1*%
X99802700Y-51384200D03*
X101627700Y-51384200D03*
%TD*%
D20*
%TO.C,H1*%
X87630000Y-48260000D03*
%TD*%
D11*
%TO.C,TP9*%
X95554800Y-74930000D03*
%TD*%
D14*
%TO.C,R6*%
X113338600Y-49149000D03*
X115163600Y-49149000D03*
%TD*%
D13*
%TO.C,R11*%
X96672400Y-61925200D03*
X94847400Y-61925200D03*
%TD*%
D15*
%TO.C,C6*%
X125704700Y-68173600D03*
X123979700Y-68173600D03*
%TD*%
D16*
%TO.C,D4*%
X102630000Y-105410000D03*
X104380000Y-105410000D03*
%TD*%
D12*
%TO.C,C7*%
X124006200Y-61569600D03*
X125731200Y-61569600D03*
%TD*%
D11*
%TO.C,TP1*%
X135280400Y-61518800D03*
%TD*%
%TO.C,TP3*%
X104902000Y-47244000D03*
%TD*%
D15*
%TO.C,C9*%
X96622800Y-59766200D03*
X94897800Y-59766200D03*
%TD*%
D22*
%TO.C,A1*%
X90935000Y-93530000D03*
D23*
X93965000Y-93230000D03*
X93965000Y-88380000D03*
D22*
X90935000Y-88080000D03*
D24*
X90805000Y-100495000D03*
D25*
X90805000Y-99695000D03*
D26*
X93345000Y-100495000D03*
D27*
X93345000Y-99695000D03*
D28*
X95885000Y-100495000D03*
D29*
X95885000Y-99695000D03*
D26*
X98425000Y-100495000D03*
D27*
X98425000Y-99695000D03*
D26*
X100965000Y-100495000D03*
D27*
X100965000Y-99695000D03*
D26*
X103505000Y-100495000D03*
D27*
X103505000Y-99695000D03*
D26*
X106045000Y-100495000D03*
D27*
X106045000Y-99695000D03*
D28*
X108585000Y-100495000D03*
D29*
X108585000Y-99695000D03*
D26*
X111125000Y-100495000D03*
D27*
X111125000Y-99695000D03*
D26*
X113665000Y-100495000D03*
D27*
X113665000Y-99695000D03*
D26*
X116205000Y-100495000D03*
D27*
X116205000Y-99695000D03*
D26*
X118745000Y-100495000D03*
D27*
X118745000Y-99695000D03*
D28*
X121285000Y-100495000D03*
D29*
X121285000Y-99695000D03*
D26*
X123825000Y-100495000D03*
D27*
X123825000Y-99695000D03*
D26*
X126365000Y-100495000D03*
D27*
X126365000Y-99695000D03*
D26*
X128905000Y-100495000D03*
D27*
X128905000Y-99695000D03*
D26*
X131445000Y-100495000D03*
D27*
X131445000Y-99695000D03*
D28*
X133985000Y-100495000D03*
D29*
X133985000Y-99695000D03*
D26*
X136525000Y-100495000D03*
D27*
X136525000Y-99695000D03*
D26*
X139065000Y-100495000D03*
D27*
X139065000Y-99695000D03*
X139065000Y-81915000D03*
D26*
X139065000Y-81115000D03*
D27*
X136525000Y-81915000D03*
D26*
X136525000Y-81115000D03*
D30*
X133985000Y-81915000D03*
D24*
X133985000Y-81115000D03*
D27*
X131445000Y-81915000D03*
D26*
X131445000Y-81115000D03*
D27*
X128905000Y-81915000D03*
D26*
X128905000Y-81115000D03*
D27*
X126365000Y-81915000D03*
D26*
X126365000Y-81115000D03*
D27*
X123825000Y-81915000D03*
D26*
X123825000Y-81115000D03*
D30*
X121285000Y-81915000D03*
D24*
X121285000Y-81115000D03*
D27*
X118745000Y-81915000D03*
D26*
X118745000Y-81115000D03*
D27*
X116205000Y-81915000D03*
D26*
X116205000Y-81115000D03*
D27*
X113665000Y-81915000D03*
D26*
X113665000Y-81115000D03*
D27*
X111125000Y-81915000D03*
D26*
X111125000Y-81115000D03*
D30*
X108585000Y-81915000D03*
D24*
X108585000Y-81115000D03*
D27*
X106045000Y-81915000D03*
D26*
X106045000Y-81115000D03*
D27*
X103505000Y-81915000D03*
D26*
X103505000Y-81115000D03*
D27*
X100965000Y-81915000D03*
D26*
X100965000Y-81115000D03*
D27*
X98425000Y-81915000D03*
D26*
X98425000Y-81115000D03*
D30*
X95885000Y-81915000D03*
D24*
X95885000Y-81115000D03*
D27*
X93345000Y-81915000D03*
D26*
X93345000Y-81115000D03*
D27*
X90805000Y-81915000D03*
D26*
X90805000Y-81115000D03*
%TD*%
D20*
%TO.C,H4*%
X142240000Y-107950000D03*
%TD*%
D11*
%TO.C,TP8*%
X101092000Y-68986400D03*
%TD*%
D31*
%TO.C,U4*%
X125330200Y-65998600D03*
X125330200Y-65498600D03*
X125330200Y-64998600D03*
X125330200Y-64498600D03*
X125330200Y-63998600D03*
X121105200Y-63998600D03*
X121105200Y-64498600D03*
X121105200Y-64998600D03*
X121105200Y-65498600D03*
X121105200Y-65998600D03*
%TD*%
D11*
%TO.C,TP5*%
X96547700Y-47218600D03*
%TD*%
D17*
%TO.C,J4*%
X111963200Y-75641200D03*
D18*
X114503200Y-75641200D03*
X117043200Y-75641200D03*
X119583200Y-75641200D03*
X122123200Y-75641200D03*
X124663200Y-75641200D03*
X127203200Y-75641200D03*
X129743200Y-75641200D03*
%TD*%
D11*
%TO.C,TP2*%
X124968000Y-57404000D03*
%TD*%
D10*
%TO.C,Q3*%
X113390200Y-57063600D03*
X113390200Y-58963600D03*
X115265200Y-58013600D03*
%TD*%
D17*
%TO.C,J1*%
X144780000Y-59690000D03*
D18*
X144780000Y-62230000D03*
%TD*%
D10*
%TO.C,Q4*%
X113390200Y-62143600D03*
X113390200Y-64043600D03*
X115265200Y-63093600D03*
%TD*%
D14*
%TO.C,R5*%
X113387500Y-54483000D03*
X115212500Y-54483000D03*
%TD*%
D11*
%TO.C,TP6*%
X133502400Y-51917600D03*
%TD*%
M02*
