%TF.GenerationSoftware,KiCad,Pcbnew,9.0.2-9.0.2-0~ubuntu24.04.1*%
%TF.CreationDate,2025-05-12T05:48:31-04:00*%
%TF.ProjectId,lt3014-test,6c743330-3134-42d7-9465-73742e6b6963,rev?*%
%TF.SameCoordinates,Original*%
%TF.FileFunction,Soldermask,Bot*%
%TF.FilePolarity,Negative*%
%FSLAX46Y46*%
G04 Gerber Fmt 4.6, Leading zero omitted, Abs format (unit mm)*
G04 Created by KiCad (PCBNEW 9.0.2-9.0.2-0~ubuntu24.04.1) date 2025-05-12 05:48:31*
%MOMM*%
%LPD*%
G01*
G04 APERTURE LIST*
G04 Aperture macros list*
%AMRoundRect*
0 Rectangle with rounded corners*
0 $1 Rounding radius*
0 $2 $3 $4 $5 $6 $7 $8 $9 X,Y pos of 4 corners*
0 Add a 4 corners polygon primitive as box body*
4,1,4,$2,$3,$4,$5,$6,$7,$8,$9,$2,$3,0*
0 Add four circle primitives for the rounded corners*
1,1,$1+$1,$2,$3*
1,1,$1+$1,$4,$5*
1,1,$1+$1,$6,$7*
1,1,$1+$1,$8,$9*
0 Add four rect primitives between the rounded corners*
20,1,$1+$1,$2,$3,$4,$5,0*
20,1,$1+$1,$4,$5,$6,$7,0*
20,1,$1+$1,$6,$7,$8,$9,0*
20,1,$1+$1,$8,$9,$2,$3,0*%
%AMFreePoly0*
4,1,37,0.603843,0.796157,0.639018,0.796157,0.711114,0.766294,0.766294,0.711114,0.796157,0.639018,0.796157,0.603843,0.800000,0.600000,0.800000,-0.600000,0.796157,-0.603843,0.796157,-0.639018,0.766294,-0.711114,0.711114,-0.766294,0.639018,-0.796157,0.603843,-0.796157,0.600000,-0.800000,0.000000,-0.800000,0.000000,-0.796148,-0.078414,-0.796148,-0.232228,-0.765552,-0.377117,-0.705537,
-0.507515,-0.618408,-0.618408,-0.507515,-0.705537,-0.377117,-0.765552,-0.232228,-0.796148,-0.078414,-0.796148,0.078414,-0.765552,0.232228,-0.705537,0.377117,-0.618408,0.507515,-0.507515,0.618408,-0.377117,0.705537,-0.232228,0.765552,-0.078414,0.796148,0.000000,0.796148,0.000000,0.800000,0.600000,0.800000,0.603843,0.796157,0.603843,0.796157,$1*%
%AMFreePoly1*
4,1,37,0.000000,0.796148,0.078414,0.796148,0.232228,0.765552,0.377117,0.705537,0.507515,0.618408,0.618408,0.507515,0.705537,0.377117,0.765552,0.232228,0.796148,0.078414,0.796148,-0.078414,0.765552,-0.232228,0.705537,-0.377117,0.618408,-0.507515,0.507515,-0.618408,0.377117,-0.705537,0.232228,-0.765552,0.078414,-0.796148,0.000000,-0.796148,0.000000,-0.800000,-0.600000,-0.800000,
-0.603843,-0.796157,-0.639018,-0.796157,-0.711114,-0.766294,-0.766294,-0.711114,-0.796157,-0.639018,-0.796157,-0.603843,-0.800000,-0.600000,-0.800000,0.600000,-0.796157,0.603843,-0.796157,0.639018,-0.766294,0.711114,-0.711114,0.766294,-0.639018,0.796157,-0.603843,0.796157,-0.600000,0.800000,0.000000,0.800000,0.000000,0.796148,0.000000,0.796148,$1*%
G04 Aperture macros list end*
%ADD10C,2.000000*%
%ADD11R,1.700000X1.700000*%
%ADD12C,1.700000*%
%ADD13C,4.300000*%
%ADD14C,2.200000*%
%ADD15C,1.850000*%
%ADD16RoundRect,0.200000X0.600000X-0.600000X0.600000X0.600000X-0.600000X0.600000X-0.600000X-0.600000X0*%
%ADD17C,1.600000*%
%ADD18FreePoly0,90.000000*%
%ADD19FreePoly1,90.000000*%
G04 APERTURE END LIST*
D10*
%TO.C,TP7*%
X101092000Y-75133200D03*
%TD*%
D11*
%TO.C,J3*%
X86360000Y-72385000D03*
D12*
X86360000Y-74925000D03*
%TD*%
D11*
%TO.C,J2*%
X86360000Y-58420000D03*
D12*
X86360000Y-60960000D03*
%TD*%
D10*
%TO.C,TP4*%
X133504700Y-47091600D03*
%TD*%
D11*
%TO.C,J5*%
X98552000Y-110744000D03*
D12*
X101092000Y-110744000D03*
X103632000Y-110744000D03*
X106172000Y-110744000D03*
%TD*%
D13*
%TO.C,H3*%
X87630000Y-107950000D03*
%TD*%
D10*
%TO.C,TP10*%
X139700000Y-73660000D03*
%TD*%
D11*
%TO.C,JP1*%
X107061000Y-75946000D03*
D12*
X107061000Y-73406000D03*
%TD*%
D13*
%TO.C,H2*%
X142240000Y-48260000D03*
%TD*%
%TO.C,H1*%
X87630000Y-48260000D03*
%TD*%
D10*
%TO.C,TP9*%
X95554800Y-74930000D03*
%TD*%
%TO.C,TP1*%
X135280400Y-61518800D03*
%TD*%
%TO.C,TP3*%
X104902000Y-47244000D03*
%TD*%
D14*
%TO.C,A1*%
X90935000Y-93530000D03*
D15*
X93965000Y-93230000D03*
X93965000Y-88380000D03*
D14*
X90935000Y-88080000D03*
D16*
X90805000Y-99695000D03*
D17*
X93345000Y-99695000D03*
D18*
X95885000Y-99695000D03*
D17*
X98425000Y-99695000D03*
X100965000Y-99695000D03*
X103505000Y-99695000D03*
X106045000Y-99695000D03*
D18*
X108585000Y-99695000D03*
D17*
X111125000Y-99695000D03*
X113665000Y-99695000D03*
X116205000Y-99695000D03*
X118745000Y-99695000D03*
D18*
X121285000Y-99695000D03*
D17*
X123825000Y-99695000D03*
X126365000Y-99695000D03*
X128905000Y-99695000D03*
X131445000Y-99695000D03*
D18*
X133985000Y-99695000D03*
D17*
X136525000Y-99695000D03*
X139065000Y-99695000D03*
X139065000Y-81915000D03*
X136525000Y-81915000D03*
D19*
X133985000Y-81915000D03*
D17*
X131445000Y-81915000D03*
X128905000Y-81915000D03*
X126365000Y-81915000D03*
X123825000Y-81915000D03*
D19*
X121285000Y-81915000D03*
D17*
X118745000Y-81915000D03*
X116205000Y-81915000D03*
X113665000Y-81915000D03*
X111125000Y-81915000D03*
D19*
X108585000Y-81915000D03*
D17*
X106045000Y-81915000D03*
X103505000Y-81915000D03*
X100965000Y-81915000D03*
X98425000Y-81915000D03*
D19*
X95885000Y-81915000D03*
D17*
X93345000Y-81915000D03*
X90805000Y-81915000D03*
%TD*%
D13*
%TO.C,H4*%
X142240000Y-107950000D03*
%TD*%
D10*
%TO.C,TP8*%
X101092000Y-68986400D03*
%TD*%
%TO.C,TP5*%
X96547700Y-47218600D03*
%TD*%
D11*
%TO.C,J4*%
X111963200Y-75641200D03*
D12*
X114503200Y-75641200D03*
X117043200Y-75641200D03*
X119583200Y-75641200D03*
X122123200Y-75641200D03*
X124663200Y-75641200D03*
X127203200Y-75641200D03*
X129743200Y-75641200D03*
%TD*%
D10*
%TO.C,TP2*%
X124968000Y-57404000D03*
%TD*%
D11*
%TO.C,J1*%
X144780000Y-59690000D03*
D12*
X144780000Y-62230000D03*
%TD*%
D10*
%TO.C,TP6*%
X133502400Y-51917600D03*
%TD*%
M02*
