M48
; DRILL file {KiCad 9.0.2-9.0.2-0~ubuntu24.04.1} date 2025-05-12T05:48:34-0400
; FORMAT={-:-/ absolute / metric / decimal}
; #@! TF.CreationDate,2025-05-12T05:48:34-04:00
; #@! TF.GenerationSoftware,Kicad,Pcbnew,9.0.2-9.0.2-0~ubuntu24.04.1
; #@! TF.FileFunction,Plated,1,4,PTH
FMAT,2
METRIC
; #@! TA.AperFunction,Plated,PTH,ViaDrill
T1C0.300
; #@! TA.AperFunction,Plated,PTH,ComponentDrill
T2C1.000
%
G90
G05
T1
X85.344Y-67.945
X94.121Y-106.412
X94.869Y-58.928
X94.869Y-67.818
X96.623Y-58.825
X98.171Y-64.135
X98.425Y-60.071
X102.63Y-106.412
X108.077Y-56.642
X108.077Y-62.992
X108.458Y-104.394
X110.363Y-66.675
X111.76Y-69.469
X112.014Y-59.055
X112.268Y-64.008
X112.522Y-49.149
X112.649Y-54.483
X113.284Y-46.101
X116.205Y-54.356
X116.84Y-72.517
X118.872Y-64.389
X119.253Y-49.403
X120.015Y-63.754
X121.326Y-53.254
X123.063Y-68.326
X124.739Y-49.251
X125.73Y-60.706
X125.73Y-69.088
X126.746Y-71.247
X127.0Y-66.421
X127.127Y-64.77
X127.889Y-72.517
X130.683Y-60.579
X132.842Y-58.039
X135.128Y-78.105
X135.664Y-56.769
T2
X86.36Y-58.42
X86.36Y-60.96
X86.36Y-72.385
X86.36Y-74.925
X90.805Y-81.915
X90.805Y-99.695
X93.345Y-81.915
X93.345Y-99.695
X95.555Y-74.93
X95.885Y-81.915
X95.885Y-99.695
X96.548Y-47.219
X98.425Y-81.915
X98.425Y-99.695
X98.552Y-110.744
X100.965Y-81.915
X100.965Y-99.695
X101.092Y-68.986
X101.092Y-75.133
X101.092Y-110.744
X103.505Y-81.915
X103.505Y-99.695
X103.632Y-110.744
X104.902Y-47.244
X106.045Y-81.915
X106.045Y-99.695
X106.172Y-110.744
X107.061Y-73.406
X107.061Y-75.946
X108.585Y-81.915
X108.585Y-99.695
X111.125Y-81.915
X111.125Y-99.695
X111.963Y-75.641
X113.665Y-81.915
X113.665Y-99.695
X114.503Y-75.641
X116.205Y-81.915
X116.205Y-99.695
X117.043Y-75.641
X118.745Y-81.915
X118.745Y-99.695
X119.583Y-75.641
X121.285Y-81.915
X121.285Y-99.695
X122.123Y-75.641
X123.825Y-81.915
X123.825Y-99.695
X124.663Y-75.641
X124.968Y-57.404
X126.365Y-81.915
X126.365Y-99.695
X127.203Y-75.641
X128.905Y-81.915
X128.905Y-99.695
X129.743Y-75.641
X131.445Y-81.915
X131.445Y-99.695
X133.502Y-51.918
X133.505Y-47.092
X133.985Y-81.915
X133.985Y-99.695
X135.28Y-61.519
X136.525Y-81.915
X136.525Y-99.695
X139.065Y-81.915
X139.065Y-99.695
X139.7Y-73.66
X144.78Y-59.69
X144.78Y-62.23
M30
