%TF.GenerationSoftware,KiCad,Pcbnew,9.0.2-9.0.2-0~ubuntu24.04.1*%
%TF.CreationDate,2025-05-09T12:29:09-04:00*%
%TF.ProjectId,vreg-dac-lt3014,76726567-2d64-4616-932d-6c7433303134,rev?*%
%TF.SameCoordinates,Original*%
%TF.FileFunction,Paste,Top*%
%TF.FilePolarity,Positive*%
%FSLAX46Y46*%
G04 Gerber Fmt 4.6, Leading zero omitted, Abs format (unit mm)*
G04 Created by KiCad (PCBNEW 9.0.2-9.0.2-0~ubuntu24.04.1) date 2025-05-09 12:29:09*
%MOMM*%
%LPD*%
G01*
G04 APERTURE LIST*
G04 Aperture macros list*
%AMRoundRect*
0 Rectangle with rounded corners*
0 $1 Rounding radius*
0 $2 $3 $4 $5 $6 $7 $8 $9 X,Y pos of 4 corners*
0 Add a 4 corners polygon primitive as box body*
4,1,4,$2,$3,$4,$5,$6,$7,$8,$9,$2,$3,0*
0 Add four circle primitives for the rounded corners*
1,1,$1+$1,$2,$3*
1,1,$1+$1,$4,$5*
1,1,$1+$1,$6,$7*
1,1,$1+$1,$8,$9*
0 Add four rect primitives between the rounded corners*
20,1,$1+$1,$2,$3,$4,$5,0*
20,1,$1+$1,$4,$5,$6,$7,0*
20,1,$1+$1,$6,$7,$8,$9,0*
20,1,$1+$1,$8,$9,$2,$3,0*%
G04 Aperture macros list end*
%ADD10RoundRect,0.150000X-0.587500X-0.150000X0.587500X-0.150000X0.587500X0.150000X-0.587500X0.150000X0*%
%ADD11RoundRect,0.237500X-0.300000X-0.237500X0.300000X-0.237500X0.300000X0.237500X-0.300000X0.237500X0*%
%ADD12RoundRect,0.237500X0.250000X0.237500X-0.250000X0.237500X-0.250000X-0.237500X0.250000X-0.237500X0*%
%ADD13RoundRect,0.237500X-0.250000X-0.237500X0.250000X-0.237500X0.250000X0.237500X-0.250000X0.237500X0*%
%ADD14RoundRect,0.237500X0.300000X0.237500X-0.300000X0.237500X-0.300000X-0.237500X0.300000X-0.237500X0*%
%ADD15RoundRect,0.237500X-0.287500X-0.237500X0.287500X-0.237500X0.287500X0.237500X-0.287500X0.237500X0*%
%ADD16RoundRect,0.150000X-0.825000X-0.150000X0.825000X-0.150000X0.825000X0.150000X-0.825000X0.150000X0*%
%ADD17RoundRect,0.150000X-0.512500X-0.150000X0.512500X-0.150000X0.512500X0.150000X-0.512500X0.150000X0*%
%ADD18RoundRect,0.087500X0.725000X0.087500X-0.725000X0.087500X-0.725000X-0.087500X0.725000X-0.087500X0*%
G04 APERTURE END LIST*
D10*
%TO.C,Q5*%
X113390200Y-67543600D03*
X113390200Y-69443600D03*
X115265200Y-68493600D03*
%TD*%
%TO.C,Q3*%
X113390200Y-57063600D03*
X113390200Y-58963600D03*
X115265200Y-58013600D03*
%TD*%
%TO.C,Q4*%
X113390200Y-62143600D03*
X113390200Y-64043600D03*
X115265200Y-63093600D03*
%TD*%
D11*
%TO.C,C8*%
X128932700Y-61442600D03*
X130657700Y-61442600D03*
%TD*%
D12*
%TO.C,R14*%
X105971100Y-54051200D03*
X104146100Y-54051200D03*
%TD*%
D13*
%TO.C,R9*%
X133838700Y-55854600D03*
X135663700Y-55854600D03*
%TD*%
D14*
%TO.C,C4*%
X121921200Y-49377600D03*
X120196200Y-49377600D03*
%TD*%
D15*
%TO.C,D1*%
X113374200Y-47091600D03*
X115124200Y-47091600D03*
%TD*%
D13*
%TO.C,R3*%
X128881500Y-57658000D03*
X130706500Y-57658000D03*
%TD*%
D14*
%TO.C,C5*%
X127482700Y-49250600D03*
X125757700Y-49250600D03*
%TD*%
D12*
%TO.C,R10*%
X135687200Y-58013600D03*
X133862200Y-58013600D03*
%TD*%
D13*
%TO.C,R4*%
X108815500Y-56591200D03*
X110640500Y-56591200D03*
%TD*%
D11*
%TO.C,C10*%
X104094500Y-56489600D03*
X105819500Y-56489600D03*
%TD*%
D12*
%TO.C,R13*%
X101627700Y-54051200D03*
X99802700Y-54051200D03*
%TD*%
D13*
%TO.C,R16*%
X108563400Y-69545200D03*
X110388400Y-69545200D03*
%TD*%
D15*
%TO.C,D3*%
X94121000Y-105359200D03*
X95871000Y-105359200D03*
%TD*%
%TO.C,D2*%
X85383400Y-66802000D03*
X87133400Y-66802000D03*
%TD*%
D12*
%TO.C,R15*%
X110386500Y-67513200D03*
X108561500Y-67513200D03*
%TD*%
D16*
%TO.C,U3*%
X100041700Y-60045600D03*
X100041700Y-61315600D03*
X100041700Y-62585600D03*
X100041700Y-63855600D03*
X104991700Y-63855600D03*
X104991700Y-62585600D03*
X104991700Y-61315600D03*
X104991700Y-60045600D03*
%TD*%
D12*
%TO.C,R7*%
X110644700Y-62204600D03*
X108819700Y-62204600D03*
%TD*%
%TO.C,R17*%
X99667700Y-105359200D03*
X97842700Y-105359200D03*
%TD*%
%TO.C,R18*%
X108227500Y-105410000D03*
X106402500Y-105410000D03*
%TD*%
D17*
%TO.C,U1*%
X122582700Y-52303600D03*
X122582700Y-53253600D03*
X122582700Y-54203600D03*
X124857700Y-54203600D03*
X124857700Y-52303600D03*
%TD*%
D13*
%TO.C,R8*%
X94794700Y-66852800D03*
X96619700Y-66852800D03*
%TD*%
D12*
%TO.C,R2*%
X130710700Y-55727600D03*
X128885700Y-55727600D03*
%TD*%
D13*
%TO.C,R12*%
X94847400Y-64414400D03*
X96672400Y-64414400D03*
%TD*%
%TO.C,R1*%
X99802700Y-51384200D03*
X101627700Y-51384200D03*
%TD*%
%TO.C,R6*%
X113338600Y-49149000D03*
X115163600Y-49149000D03*
%TD*%
D12*
%TO.C,R11*%
X96672400Y-61925200D03*
X94847400Y-61925200D03*
%TD*%
D14*
%TO.C,C6*%
X125704700Y-68173600D03*
X123979700Y-68173600D03*
%TD*%
D15*
%TO.C,D4*%
X102630000Y-105410000D03*
X104380000Y-105410000D03*
%TD*%
D11*
%TO.C,C7*%
X124006200Y-61569600D03*
X125731200Y-61569600D03*
%TD*%
D14*
%TO.C,C9*%
X96622800Y-59766200D03*
X94897800Y-59766200D03*
%TD*%
D18*
%TO.C,U4*%
X125330200Y-65998600D03*
X125330200Y-65498600D03*
X125330200Y-64998600D03*
X125330200Y-64498600D03*
X125330200Y-63998600D03*
X121105200Y-63998600D03*
X121105200Y-64498600D03*
X121105200Y-64998600D03*
X121105200Y-65498600D03*
X121105200Y-65998600D03*
%TD*%
D13*
%TO.C,R5*%
X113387500Y-54483000D03*
X115212500Y-54483000D03*
%TD*%
M02*
