%TF.GenerationSoftware,KiCad,Pcbnew,9.0.2-9.0.2-0~ubuntu24.04.1*%
%TF.CreationDate,2025-05-12T05:48:30-04:00*%
%TF.ProjectId,lt3014-test,6c743330-3134-42d7-9465-73742e6b6963,rev?*%
%TF.SameCoordinates,Original*%
%TF.FileFunction,Copper,L4,Bot*%
%TF.FilePolarity,Positive*%
%FSLAX46Y46*%
G04 Gerber Fmt 4.6, Leading zero omitted, Abs format (unit mm)*
G04 Created by KiCad (PCBNEW 9.0.2-9.0.2-0~ubuntu24.04.1) date 2025-05-12 05:48:30*
%MOMM*%
%LPD*%
G01*
G04 APERTURE LIST*
G04 Aperture macros list*
%AMRoundRect*
0 Rectangle with rounded corners*
0 $1 Rounding radius*
0 $2 $3 $4 $5 $6 $7 $8 $9 X,Y pos of 4 corners*
0 Add a 4 corners polygon primitive as box body*
4,1,4,$2,$3,$4,$5,$6,$7,$8,$9,$2,$3,0*
0 Add four circle primitives for the rounded corners*
1,1,$1+$1,$2,$3*
1,1,$1+$1,$4,$5*
1,1,$1+$1,$6,$7*
1,1,$1+$1,$8,$9*
0 Add four rect primitives between the rounded corners*
20,1,$1+$1,$2,$3,$4,$5,0*
20,1,$1+$1,$4,$5,$6,$7,0*
20,1,$1+$1,$6,$7,$8,$9,0*
20,1,$1+$1,$8,$9,$2,$3,0*%
%AMFreePoly0*
4,1,37,0.603843,0.796157,0.639018,0.796157,0.711114,0.766294,0.766294,0.711114,0.796157,0.639018,0.796157,0.603843,0.800000,0.600000,0.800000,-0.600000,0.796157,-0.603843,0.796157,-0.639018,0.766294,-0.711114,0.711114,-0.766294,0.639018,-0.796157,0.603843,-0.796157,0.600000,-0.800000,0.000000,-0.800000,0.000000,-0.796148,-0.078414,-0.796148,-0.232228,-0.765552,-0.377117,-0.705537,
-0.507515,-0.618408,-0.618408,-0.507515,-0.705537,-0.377117,-0.765552,-0.232228,-0.796148,-0.078414,-0.796148,0.078414,-0.765552,0.232228,-0.705537,0.377117,-0.618408,0.507515,-0.507515,0.618408,-0.377117,0.705537,-0.232228,0.765552,-0.078414,0.796148,0.000000,0.796148,0.000000,0.800000,0.600000,0.800000,0.603843,0.796157,0.603843,0.796157,$1*%
%AMFreePoly1*
4,1,37,0.000000,0.796148,0.078414,0.796148,0.232228,0.765552,0.377117,0.705537,0.507515,0.618408,0.618408,0.507515,0.705537,0.377117,0.765552,0.232228,0.796148,0.078414,0.796148,-0.078414,0.765552,-0.232228,0.705537,-0.377117,0.618408,-0.507515,0.507515,-0.618408,0.377117,-0.705537,0.232228,-0.765552,0.078414,-0.796148,0.000000,-0.796148,0.000000,-0.800000,-0.600000,-0.800000,
-0.603843,-0.796157,-0.639018,-0.796157,-0.711114,-0.766294,-0.766294,-0.711114,-0.796157,-0.639018,-0.796157,-0.603843,-0.800000,-0.600000,-0.800000,0.600000,-0.796157,0.603843,-0.796157,0.639018,-0.766294,0.711114,-0.711114,0.766294,-0.639018,0.796157,-0.603843,0.796157,-0.600000,0.800000,0.000000,0.800000,0.000000,0.796148,0.000000,0.796148,$1*%
G04 Aperture macros list end*
%TA.AperFunction,ComponentPad*%
%ADD10C,2.000000*%
%TD*%
%TA.AperFunction,ComponentPad*%
%ADD11R,1.700000X1.700000*%
%TD*%
%TA.AperFunction,ComponentPad*%
%ADD12C,1.700000*%
%TD*%
%TA.AperFunction,ComponentPad*%
%ADD13RoundRect,0.200000X0.600000X-0.600000X0.600000X0.600000X-0.600000X0.600000X-0.600000X-0.600000X0*%
%TD*%
%TA.AperFunction,ComponentPad*%
%ADD14C,1.600000*%
%TD*%
%TA.AperFunction,ComponentPad*%
%ADD15FreePoly0,90.000000*%
%TD*%
%TA.AperFunction,ComponentPad*%
%ADD16FreePoly1,90.000000*%
%TD*%
%TA.AperFunction,ViaPad*%
%ADD17C,0.600000*%
%TD*%
%TA.AperFunction,Conductor*%
%ADD18C,0.200000*%
%TD*%
G04 APERTURE END LIST*
D10*
%TO.P,TP7,1,1*%
%TO.N,/IMON*%
X101092000Y-75133200D03*
%TD*%
D11*
%TO.P,J3,1,Pin_1*%
%TO.N,+3.3V*%
X86360000Y-72385000D03*
D12*
%TO.P,J3,2,Pin_2*%
%TO.N,GND*%
X86360000Y-74925000D03*
%TD*%
D11*
%TO.P,J2,1,Pin_1*%
%TO.N,Net-(J2-Pin_1)*%
X86360000Y-58420000D03*
D12*
%TO.P,J2,2,Pin_2*%
%TO.N,GND*%
X86360000Y-60960000D03*
%TD*%
D10*
%TO.P,TP4,1,1*%
%TO.N,Net-(J1-Pin_1)*%
X133504700Y-47091600D03*
%TD*%
D11*
%TO.P,J5,1,Pin_1*%
%TO.N,/GP0{slash}TX*%
X98552000Y-110744000D03*
D12*
%TO.P,J5,2,Pin_2*%
%TO.N,/GP1{slash}RX*%
X101092000Y-110744000D03*
%TO.P,J5,3,Pin_3*%
%TO.N,/GP2*%
X103632000Y-110744000D03*
%TO.P,J5,4,Pin_4*%
%TO.N,GND*%
X106172000Y-110744000D03*
%TD*%
D10*
%TO.P,TP10,1,1*%
%TO.N,GND*%
X139700000Y-73660000D03*
%TD*%
D11*
%TO.P,JP1,1,A*%
%TO.N,Net-(A1-3V3)*%
X107061000Y-75946000D03*
D12*
%TO.P,JP1,2,B*%
%TO.N,+3.3V*%
X107061000Y-73406000D03*
%TD*%
D10*
%TO.P,TP9,1,1*%
%TO.N,GND*%
X95554800Y-74930000D03*
%TD*%
%TO.P,TP1,1,1*%
%TO.N,Net-(U4-A)*%
X135280400Y-61518800D03*
%TD*%
%TO.P,TP3,1,1*%
%TO.N,Net-(U1-VIN)*%
X104902000Y-47244000D03*
%TD*%
D13*
%TO.P,A1,1,GPIO0*%
%TO.N,/LED1*%
X90805000Y-99695000D03*
D14*
%TO.P,A1,2,GPIO1*%
%TO.N,/LED2*%
X93345000Y-99695000D03*
D15*
%TO.P,A1,3,GND*%
%TO.N,GND*%
X95885000Y-99695000D03*
D14*
%TO.P,A1,4,GPIO2*%
%TO.N,unconnected-(A1-GPIO2-Pad4)*%
X98425000Y-99695000D03*
%TO.P,A1,5,GPIO3*%
%TO.N,unconnected-(A1-GPIO3-Pad5)*%
X100965000Y-99695000D03*
%TO.P,A1,6,GPIO4*%
%TO.N,/GP0{slash}TX*%
X103505000Y-99695000D03*
%TO.P,A1,7,GPIO5*%
%TO.N,/GP1{slash}RX*%
X106045000Y-99695000D03*
D15*
%TO.P,A1,8,GND*%
%TO.N,GND*%
X108585000Y-99695000D03*
D14*
%TO.P,A1,9,GPIO6*%
%TO.N,/GP2*%
X111125000Y-99695000D03*
%TO.P,A1,10,GPIO7*%
%TO.N,unconnected-(A1-GPIO7-Pad10)*%
X113665000Y-99695000D03*
%TO.P,A1,11,GPIO8*%
%TO.N,unconnected-(A1-GPIO8-Pad11)*%
X116205000Y-99695000D03*
%TO.P,A1,12,GPIO9*%
%TO.N,unconnected-(A1-GPIO9-Pad12)*%
X118745000Y-99695000D03*
D15*
%TO.P,A1,13,GND*%
%TO.N,GND*%
X121285000Y-99695000D03*
D14*
%TO.P,A1,14,GPIO10*%
%TO.N,unconnected-(A1-GPIO10-Pad14)*%
X123825000Y-99695000D03*
%TO.P,A1,15,GPIO11*%
%TO.N,unconnected-(A1-GPIO11-Pad15)*%
X126365000Y-99695000D03*
%TO.P,A1,16,GPIO12*%
%TO.N,unconnected-(A1-GPIO12-Pad16)*%
X128905000Y-99695000D03*
%TO.P,A1,17,GPIO13*%
%TO.N,unconnected-(A1-GPIO13-Pad17)*%
X131445000Y-99695000D03*
D15*
%TO.P,A1,18,GND*%
%TO.N,GND*%
X133985000Y-99695000D03*
D14*
%TO.P,A1,19,GPIO14*%
%TO.N,unconnected-(A1-GPIO14-Pad19)*%
X136525000Y-99695000D03*
%TO.P,A1,20,GPIO15*%
%TO.N,unconnected-(A1-GPIO15-Pad20)*%
X139065000Y-99695000D03*
%TO.P,A1,21,GPIO16*%
%TO.N,/SDO*%
X139065000Y-81915000D03*
%TO.P,A1,22,GPIO17*%
%TO.N,/~{SYNC}*%
X136525000Y-81915000D03*
D16*
%TO.P,A1,23,GND*%
%TO.N,GND*%
X133985000Y-81915000D03*
D14*
%TO.P,A1,24,GPIO18*%
%TO.N,/SCLK*%
X131445000Y-81915000D03*
%TO.P,A1,25,GPIO19*%
%TO.N,/SDA*%
X128905000Y-81915000D03*
%TO.P,A1,26,GPIO20*%
%TO.N,/RESET*%
X126365000Y-81915000D03*
%TO.P,A1,27,GPIO21*%
%TO.N,/SHDN*%
X123825000Y-81915000D03*
D16*
%TO.P,A1,28,GND*%
%TO.N,GND*%
X121285000Y-81915000D03*
D14*
%TO.P,A1,29,GPIO22*%
%TO.N,/SHUTDOWN*%
X118745000Y-81915000D03*
%TO.P,A1,30,RUN*%
%TO.N,unconnected-(A1-RUN-Pad30)*%
X116205000Y-81915000D03*
%TO.P,A1,31,GPIO26_ADC0*%
%TO.N,/IMON*%
X113665000Y-81915000D03*
%TO.P,A1,32,GPIO27_ADC1*%
%TO.N,/VSENSE*%
X111125000Y-81915000D03*
D16*
%TO.P,A1,33,AGND*%
%TO.N,GND*%
X108585000Y-81915000D03*
D14*
%TO.P,A1,34,GPIO28_ADC2*%
%TO.N,unconnected-(A1-GPIO28_ADC2-Pad34)*%
X106045000Y-81915000D03*
%TO.P,A1,35,ADC_VREF*%
%TO.N,unconnected-(A1-ADC_VREF-Pad35)*%
X103505000Y-81915000D03*
%TO.P,A1,36,3V3*%
%TO.N,Net-(A1-3V3)*%
X100965000Y-81915000D03*
%TO.P,A1,37,3V3_EN*%
%TO.N,unconnected-(A1-3V3_EN-Pad37)*%
X98425000Y-81915000D03*
D16*
%TO.P,A1,38,GND*%
%TO.N,GND*%
X95885000Y-81915000D03*
D14*
%TO.P,A1,39,VSYS*%
%TO.N,unconnected-(A1-VSYS-Pad39)*%
X93345000Y-81915000D03*
%TO.P,A1,40,VBUS*%
%TO.N,unconnected-(A1-VBUS-Pad40)*%
X90805000Y-81915000D03*
%TD*%
D10*
%TO.P,TP8,1,1*%
%TO.N,Net-(Q3-G)*%
X101092000Y-68986400D03*
%TD*%
%TO.P,TP5,1,1*%
%TO.N,Net-(J2-Pin_1)*%
X96547700Y-47218600D03*
%TD*%
D11*
%TO.P,J4,1,Pin_1*%
%TO.N,/SCLK*%
X111963200Y-75641200D03*
D12*
%TO.P,J4,2,Pin_2*%
%TO.N,/SDA*%
X114503200Y-75641200D03*
%TO.P,J4,3,Pin_3*%
%TO.N,/~{SYNC}*%
X117043200Y-75641200D03*
%TO.P,J4,4,Pin_4*%
%TO.N,/SHUTDOWN*%
X119583200Y-75641200D03*
%TO.P,J4,5,Pin_5*%
%TO.N,/RESET*%
X122123200Y-75641200D03*
%TO.P,J4,6,Pin_6*%
%TO.N,/SHDN*%
X124663200Y-75641200D03*
%TO.P,J4,7,Pin_7*%
%TO.N,/SDO*%
X127203200Y-75641200D03*
%TO.P,J4,8,Pin_8*%
%TO.N,GND*%
X129743200Y-75641200D03*
%TD*%
D10*
%TO.P,TP2,1,1*%
%TO.N,Net-(U1-ADJ)*%
X124968000Y-57404000D03*
%TD*%
D11*
%TO.P,J1,1,Pin_1*%
%TO.N,Net-(J1-Pin_1)*%
X144780000Y-59690000D03*
D12*
%TO.P,J1,2,Pin_2*%
%TO.N,GND*%
X144780000Y-62230000D03*
%TD*%
D10*
%TO.P,TP6,1,1*%
%TO.N,/VSENSE*%
X133502400Y-51917600D03*
%TD*%
D17*
%TO.N,/SDO*%
X135128000Y-78105000D03*
X126746000Y-71247000D03*
X118872000Y-64389000D03*
%TO.N,/SHDN*%
X113284000Y-46101000D03*
X116205000Y-54356000D03*
%TO.N,/SDA*%
X116840000Y-72517000D03*
X127889000Y-72517000D03*
%TO.N,/LED2*%
X108458000Y-104394000D03*
%TO.N,/VSENSE*%
X135663700Y-56769000D03*
%TO.N,GND*%
X132842000Y-58039000D03*
X112014000Y-59055000D03*
X121325600Y-53253600D03*
X112268000Y-64008000D03*
X94121000Y-106412000D03*
X119253000Y-49403000D03*
X120015000Y-63754000D03*
X124739400Y-49250600D03*
X130683000Y-60579000D03*
X111760000Y-69469000D03*
X125730000Y-60706000D03*
X123063000Y-68326000D03*
X85344000Y-67945000D03*
X98171000Y-64135000D03*
X102630000Y-106412000D03*
X127127000Y-64770000D03*
X94869000Y-58928000D03*
%TO.N,+3.3V*%
X108077000Y-62992000D03*
X94869000Y-67818000D03*
X96622800Y-58825200D03*
X98425000Y-60071000D03*
X125730000Y-69088000D03*
X127000000Y-66421000D03*
X108077000Y-56642000D03*
X110363000Y-66675000D03*
X112649000Y-54483000D03*
X112522000Y-49149000D03*
%TD*%
D18*
%TO.N,/SDO*%
X129667000Y-78105000D02*
X135128000Y-78105000D01*
X127203200Y-75641200D02*
X129667000Y-78105000D01*
X120396000Y-71247000D02*
X126746000Y-71247000D01*
X118872000Y-64389000D02*
X118872000Y-69723000D01*
X118872000Y-69723000D02*
X120396000Y-71247000D01*
%TO.N,/SHDN*%
X116205000Y-49022000D02*
X113284000Y-46101000D01*
X124663200Y-75641200D02*
X124663200Y-81076800D01*
X124663200Y-81076800D02*
X123825000Y-81915000D01*
X116205000Y-54356000D02*
X116205000Y-49022000D01*
%TO.N,/RESET*%
X126365000Y-83566000D02*
X126365000Y-81915000D01*
X125603000Y-84328000D02*
X126365000Y-83566000D01*
X122724000Y-76242000D02*
X122724000Y-83735000D01*
X122724000Y-83735000D02*
X123317000Y-84328000D01*
X122123200Y-75641200D02*
X122724000Y-76242000D01*
X123317000Y-84328000D02*
X125603000Y-84328000D01*
%TO.N,/SDA*%
X127889000Y-72517000D02*
X116840000Y-72517000D01*
%TO.N,/LED2*%
X93345000Y-99695000D02*
X98044000Y-104394000D01*
X98044000Y-104394000D02*
X108458000Y-104394000D01*
%TO.N,/VSENSE*%
X135663700Y-56769000D02*
X135663700Y-54078900D01*
X135663700Y-54078900D02*
X133502400Y-51917600D01*
%TO.N,/SCLK*%
X128905000Y-85598000D02*
X131445000Y-83058000D01*
X112226000Y-75904000D02*
X112226000Y-83524000D01*
X112226000Y-83524000D02*
X114300000Y-85598000D01*
X114300000Y-85598000D02*
X128905000Y-85598000D01*
X111963200Y-75641200D02*
X112226000Y-75904000D01*
X131445000Y-83058000D02*
X131445000Y-81915000D01*
%TO.N,/SHUTDOWN*%
X118745000Y-77851000D02*
X118745000Y-81915000D01*
X118618000Y-76606400D02*
X118618000Y-77724000D01*
X118618000Y-77724000D02*
X118745000Y-77851000D01*
X119583200Y-75641200D02*
X118618000Y-76606400D01*
%TO.N,/~{SYNC}*%
X118770400Y-73914000D02*
X133223000Y-73914000D01*
X117043200Y-75641200D02*
X118770400Y-73914000D01*
X133223000Y-73914000D02*
X136525000Y-77216000D01*
X136525000Y-77216000D02*
X136525000Y-81915000D01*
%TO.N,Net-(A1-3V3)*%
X100965000Y-78105000D02*
X100965000Y-81915000D01*
X103124000Y-75946000D02*
X100965000Y-78105000D01*
X107061000Y-75946000D02*
X103124000Y-75946000D01*
%TD*%
M02*
