%TF.GenerationSoftware,KiCad,Pcbnew,9.0.2-9.0.2-0~ubuntu24.04.1*%
%TF.CreationDate,2025-05-10T13:12:50-04:00*%
%TF.ProjectId,lt3014-test,6c743330-3134-42d7-9465-73742e6b6963,rev?*%
%TF.SameCoordinates,Original*%
%TF.FileFunction,Copper,L3,Inr*%
%TF.FilePolarity,Positive*%
%FSLAX46Y46*%
G04 Gerber Fmt 4.6, Leading zero omitted, Abs format (unit mm)*
G04 Created by KiCad (PCBNEW 9.0.2-9.0.2-0~ubuntu24.04.1) date 2025-05-10 13:12:50*
%MOMM*%
%LPD*%
G01*
G04 APERTURE LIST*
G04 Aperture macros list*
%AMRoundRect*
0 Rectangle with rounded corners*
0 $1 Rounding radius*
0 $2 $3 $4 $5 $6 $7 $8 $9 X,Y pos of 4 corners*
0 Add a 4 corners polygon primitive as box body*
4,1,4,$2,$3,$4,$5,$6,$7,$8,$9,$2,$3,0*
0 Add four circle primitives for the rounded corners*
1,1,$1+$1,$2,$3*
1,1,$1+$1,$4,$5*
1,1,$1+$1,$6,$7*
1,1,$1+$1,$8,$9*
0 Add four rect primitives between the rounded corners*
20,1,$1+$1,$2,$3,$4,$5,0*
20,1,$1+$1,$4,$5,$6,$7,0*
20,1,$1+$1,$6,$7,$8,$9,0*
20,1,$1+$1,$8,$9,$2,$3,0*%
%AMFreePoly0*
4,1,37,0.603843,0.796157,0.639018,0.796157,0.711114,0.766294,0.766294,0.711114,0.796157,0.639018,0.796157,0.603843,0.800000,0.600000,0.800000,-0.600000,0.796157,-0.603843,0.796157,-0.639018,0.766294,-0.711114,0.711114,-0.766294,0.639018,-0.796157,0.603843,-0.796157,0.600000,-0.800000,0.000000,-0.800000,0.000000,-0.796148,-0.078414,-0.796148,-0.232228,-0.765552,-0.377117,-0.705537,
-0.507515,-0.618408,-0.618408,-0.507515,-0.705537,-0.377117,-0.765552,-0.232228,-0.796148,-0.078414,-0.796148,0.078414,-0.765552,0.232228,-0.705537,0.377117,-0.618408,0.507515,-0.507515,0.618408,-0.377117,0.705537,-0.232228,0.765552,-0.078414,0.796148,0.000000,0.796148,0.000000,0.800000,0.600000,0.800000,0.603843,0.796157,0.603843,0.796157,$1*%
%AMFreePoly1*
4,1,37,0.000000,0.796148,0.078414,0.796148,0.232228,0.765552,0.377117,0.705537,0.507515,0.618408,0.618408,0.507515,0.705537,0.377117,0.765552,0.232228,0.796148,0.078414,0.796148,-0.078414,0.765552,-0.232228,0.705537,-0.377117,0.618408,-0.507515,0.507515,-0.618408,0.377117,-0.705537,0.232228,-0.765552,0.078414,-0.796148,0.000000,-0.796148,0.000000,-0.800000,-0.600000,-0.800000,
-0.603843,-0.796157,-0.639018,-0.796157,-0.711114,-0.766294,-0.766294,-0.711114,-0.796157,-0.639018,-0.796157,-0.603843,-0.800000,-0.600000,-0.800000,0.600000,-0.796157,0.603843,-0.796157,0.639018,-0.766294,0.711114,-0.711114,0.766294,-0.639018,0.796157,-0.603843,0.796157,-0.600000,0.800000,0.000000,0.800000,0.000000,0.796148,0.000000,0.796148,$1*%
G04 Aperture macros list end*
%TA.AperFunction,ComponentPad*%
%ADD10C,2.000000*%
%TD*%
%TA.AperFunction,ComponentPad*%
%ADD11R,1.700000X1.700000*%
%TD*%
%TA.AperFunction,ComponentPad*%
%ADD12C,1.700000*%
%TD*%
%TA.AperFunction,ComponentPad*%
%ADD13RoundRect,0.200000X0.600000X-0.600000X0.600000X0.600000X-0.600000X0.600000X-0.600000X-0.600000X0*%
%TD*%
%TA.AperFunction,ComponentPad*%
%ADD14C,1.600000*%
%TD*%
%TA.AperFunction,ComponentPad*%
%ADD15FreePoly0,90.000000*%
%TD*%
%TA.AperFunction,ComponentPad*%
%ADD16FreePoly1,90.000000*%
%TD*%
%TA.AperFunction,ViaPad*%
%ADD17C,0.600000*%
%TD*%
G04 APERTURE END LIST*
D10*
%TO.N,/IMON*%
%TO.C,TP7*%
X101092000Y-75133200D03*
%TD*%
D11*
%TO.N,+3.3V*%
%TO.C,J3*%
X86360000Y-72385000D03*
D12*
%TO.N,GND*%
X86360000Y-74925000D03*
%TD*%
D11*
%TO.N,Net-(J2-Pin_1)*%
%TO.C,J2*%
X86360000Y-58420000D03*
D12*
%TO.N,GND*%
X86360000Y-60960000D03*
%TD*%
D10*
%TO.N,Net-(J1-Pin_1)*%
%TO.C,TP4*%
X133504700Y-47091600D03*
%TD*%
D11*
%TO.N,/GP0{slash}TX*%
%TO.C,J5*%
X98552000Y-110744000D03*
D12*
%TO.N,/GP1{slash}RX*%
X101092000Y-110744000D03*
%TO.N,/GP2*%
X103632000Y-110744000D03*
%TO.N,GND*%
X106172000Y-110744000D03*
%TD*%
D10*
%TO.N,GND*%
%TO.C,TP10*%
X139700000Y-73660000D03*
%TD*%
D11*
%TO.N,Net-(A1-3V3)*%
%TO.C,JP1*%
X107061000Y-75946000D03*
D12*
%TO.N,+3.3V*%
X107061000Y-73406000D03*
%TD*%
D10*
%TO.N,GND*%
%TO.C,TP9*%
X95554800Y-74930000D03*
%TD*%
%TO.N,Net-(U4-A)*%
%TO.C,TP1*%
X135280400Y-61518800D03*
%TD*%
%TO.N,Net-(U1-VIN)*%
%TO.C,TP3*%
X104902000Y-47244000D03*
%TD*%
D13*
%TO.N,/LED1*%
%TO.C,A1*%
X90805000Y-99695000D03*
D14*
%TO.N,/LED2*%
X93345000Y-99695000D03*
D15*
%TO.N,GND*%
X95885000Y-99695000D03*
D14*
%TO.N,unconnected-(A1-GPIO2-Pad4)*%
X98425000Y-99695000D03*
%TO.N,unconnected-(A1-GPIO3-Pad5)*%
X100965000Y-99695000D03*
%TO.N,/GP0{slash}TX*%
X103505000Y-99695000D03*
%TO.N,/GP1{slash}RX*%
X106045000Y-99695000D03*
D15*
%TO.N,GND*%
X108585000Y-99695000D03*
D14*
%TO.N,/GP2*%
X111125000Y-99695000D03*
%TO.N,unconnected-(A1-GPIO7-Pad10)*%
X113665000Y-99695000D03*
%TO.N,unconnected-(A1-GPIO8-Pad11)*%
X116205000Y-99695000D03*
%TO.N,unconnected-(A1-GPIO9-Pad12)*%
X118745000Y-99695000D03*
D15*
%TO.N,GND*%
X121285000Y-99695000D03*
D14*
%TO.N,unconnected-(A1-GPIO10-Pad14)*%
X123825000Y-99695000D03*
%TO.N,unconnected-(A1-GPIO11-Pad15)*%
X126365000Y-99695000D03*
%TO.N,unconnected-(A1-GPIO12-Pad16)*%
X128905000Y-99695000D03*
%TO.N,unconnected-(A1-GPIO13-Pad17)*%
X131445000Y-99695000D03*
D15*
%TO.N,GND*%
X133985000Y-99695000D03*
D14*
%TO.N,unconnected-(A1-GPIO14-Pad19)*%
X136525000Y-99695000D03*
%TO.N,unconnected-(A1-GPIO15-Pad20)*%
X139065000Y-99695000D03*
%TO.N,unconnected-(A1-GPIO16-Pad21)*%
X139065000Y-81915000D03*
%TO.N,/~{SYNC}*%
X136525000Y-81915000D03*
D16*
%TO.N,GND*%
X133985000Y-81915000D03*
D14*
%TO.N,/SCLK*%
X131445000Y-81915000D03*
%TO.N,/SDA*%
X128905000Y-81915000D03*
%TO.N,/RESET*%
X126365000Y-81915000D03*
%TO.N,/SHDN*%
X123825000Y-81915000D03*
D16*
%TO.N,GND*%
X121285000Y-81915000D03*
D14*
%TO.N,/SHUTDOWN*%
X118745000Y-81915000D03*
%TO.N,unconnected-(A1-RUN-Pad30)*%
X116205000Y-81915000D03*
%TO.N,/IMON*%
X113665000Y-81915000D03*
%TO.N,/VSENSE*%
X111125000Y-81915000D03*
D16*
%TO.N,GND*%
X108585000Y-81915000D03*
D14*
%TO.N,unconnected-(A1-GPIO28_ADC2-Pad34)*%
X106045000Y-81915000D03*
%TO.N,unconnected-(A1-ADC_VREF-Pad35)*%
X103505000Y-81915000D03*
%TO.N,Net-(A1-3V3)*%
X100965000Y-81915000D03*
%TO.N,unconnected-(A1-3V3_EN-Pad37)*%
X98425000Y-81915000D03*
D16*
%TO.N,GND*%
X95885000Y-81915000D03*
D14*
%TO.N,unconnected-(A1-VSYS-Pad39)*%
X93345000Y-81915000D03*
%TO.N,unconnected-(A1-VBUS-Pad40)*%
X90805000Y-81915000D03*
%TD*%
D10*
%TO.N,Net-(Q3-G)*%
%TO.C,TP8*%
X101092000Y-68986400D03*
%TD*%
%TO.N,Net-(J2-Pin_1)*%
%TO.C,TP5*%
X96547700Y-47218600D03*
%TD*%
D11*
%TO.N,/SCLK*%
%TO.C,J4*%
X111963200Y-75641200D03*
D12*
%TO.N,/SDA*%
X114503200Y-75641200D03*
%TO.N,/~{SYNC}*%
X117043200Y-75641200D03*
%TO.N,/SHUTDOWN*%
X119583200Y-75641200D03*
%TO.N,/RESET*%
X122123200Y-75641200D03*
%TO.N,/SHDN*%
X124663200Y-75641200D03*
%TO.N,unconnected-(J4-Pin_7-Pad7)*%
X127203200Y-75641200D03*
%TO.N,GND*%
X129743200Y-75641200D03*
%TD*%
D10*
%TO.N,Net-(U1-ADJ)*%
%TO.C,TP2*%
X124968000Y-57404000D03*
%TD*%
D11*
%TO.N,Net-(J1-Pin_1)*%
%TO.C,J1*%
X144780000Y-59690000D03*
D12*
%TO.N,GND*%
X144780000Y-62230000D03*
%TD*%
D10*
%TO.N,/VSENSE*%
%TO.C,TP6*%
X133502400Y-51917600D03*
%TD*%
D17*
%TO.N,/SHDN*%
X113284000Y-46101000D03*
X116205000Y-54356000D03*
%TO.N,/SDA*%
X116840000Y-72517000D03*
X127889000Y-72517000D03*
%TO.N,/LED2*%
X108458000Y-104394000D03*
%TO.N,/VSENSE*%
X135663700Y-56769000D03*
%TO.N,GND*%
X132842000Y-58039000D03*
X112014000Y-59055000D03*
X121325600Y-53253600D03*
X112268000Y-64008000D03*
X94121000Y-106412000D03*
X119253000Y-49403000D03*
X120015000Y-63754000D03*
X124739400Y-49250600D03*
X130683000Y-60579000D03*
X111760000Y-69469000D03*
X125730000Y-60706000D03*
X123063000Y-68326000D03*
X85344000Y-67945000D03*
X98171000Y-64135000D03*
X102630000Y-106412000D03*
X127127000Y-64770000D03*
X94869000Y-58928000D03*
X108077000Y-62992000D03*
%TO.N,+3.3V*%
X94869000Y-67818000D03*
X96622800Y-58825200D03*
X98425000Y-60071000D03*
X125730000Y-69088000D03*
X127000000Y-66421000D03*
X108077000Y-56642000D03*
X110363000Y-66675000D03*
X112649000Y-54483000D03*
X112522000Y-49149000D03*
%TD*%
%TA.AperFunction,Conductor*%
%TO.N,+3.3V*%
G36*
X146762539Y-43700185D02*
G01*
X146808294Y-43752989D01*
X146819500Y-43804500D01*
X146819500Y-112405500D01*
X146799815Y-112472539D01*
X146747011Y-112518294D01*
X146695500Y-112529500D01*
X83174500Y-112529500D01*
X83107461Y-112509815D01*
X83061706Y-112457011D01*
X83050500Y-112405500D01*
X83050500Y-107815186D01*
X85229500Y-107815186D01*
X85229500Y-108084813D01*
X85259686Y-108352719D01*
X85259688Y-108352731D01*
X85319684Y-108615594D01*
X85319687Y-108615602D01*
X85408734Y-108870082D01*
X85525714Y-109112994D01*
X85525716Y-109112997D01*
X85669162Y-109341289D01*
X85710799Y-109393500D01*
X85824801Y-109536455D01*
X85837266Y-109552085D01*
X86027915Y-109742734D01*
X86238711Y-109910838D01*
X86467003Y-110054284D01*
X86709921Y-110171267D01*
X86865162Y-110225588D01*
X86964397Y-110260312D01*
X86964405Y-110260315D01*
X86964408Y-110260315D01*
X86964409Y-110260316D01*
X87227268Y-110320312D01*
X87495187Y-110350499D01*
X87495188Y-110350500D01*
X87495191Y-110350500D01*
X87764812Y-110350500D01*
X87764812Y-110350499D01*
X88032732Y-110320312D01*
X88295591Y-110260316D01*
X88550079Y-110171267D01*
X88792997Y-110054284D01*
X89021289Y-109910838D01*
X89102424Y-109846135D01*
X97201500Y-109846135D01*
X97201500Y-111641870D01*
X97201501Y-111641876D01*
X97207908Y-111701483D01*
X97258202Y-111836328D01*
X97258206Y-111836335D01*
X97344452Y-111951544D01*
X97344455Y-111951547D01*
X97459664Y-112037793D01*
X97459671Y-112037797D01*
X97594517Y-112088091D01*
X97594516Y-112088091D01*
X97601444Y-112088835D01*
X97654127Y-112094500D01*
X99449872Y-112094499D01*
X99509483Y-112088091D01*
X99644331Y-112037796D01*
X99759546Y-111951546D01*
X99845796Y-111836331D01*
X99894810Y-111704916D01*
X99936681Y-111648984D01*
X100002145Y-111624566D01*
X100070418Y-111639417D01*
X100098673Y-111660569D01*
X100212213Y-111774109D01*
X100384179Y-111899048D01*
X100384181Y-111899049D01*
X100384184Y-111899051D01*
X100573588Y-111995557D01*
X100775757Y-112061246D01*
X100985713Y-112094500D01*
X100985714Y-112094500D01*
X101198286Y-112094500D01*
X101198287Y-112094500D01*
X101408243Y-112061246D01*
X101610412Y-111995557D01*
X101799816Y-111899051D01*
X101886138Y-111836335D01*
X101971786Y-111774109D01*
X101971788Y-111774106D01*
X101971792Y-111774104D01*
X102122104Y-111623792D01*
X102122106Y-111623788D01*
X102122109Y-111623786D01*
X102247048Y-111451820D01*
X102247047Y-111451820D01*
X102247051Y-111451816D01*
X102251514Y-111443054D01*
X102299488Y-111392259D01*
X102367308Y-111375463D01*
X102433444Y-111397999D01*
X102472486Y-111443056D01*
X102476951Y-111451820D01*
X102601890Y-111623786D01*
X102752213Y-111774109D01*
X102924179Y-111899048D01*
X102924181Y-111899049D01*
X102924184Y-111899051D01*
X103113588Y-111995557D01*
X103315757Y-112061246D01*
X103525713Y-112094500D01*
X103525714Y-112094500D01*
X103738286Y-112094500D01*
X103738287Y-112094500D01*
X103948243Y-112061246D01*
X104150412Y-111995557D01*
X104339816Y-111899051D01*
X104426138Y-111836335D01*
X104511786Y-111774109D01*
X104511788Y-111774106D01*
X104511792Y-111774104D01*
X104662104Y-111623792D01*
X104662106Y-111623788D01*
X104662109Y-111623786D01*
X104787048Y-111451820D01*
X104787047Y-111451820D01*
X104787051Y-111451816D01*
X104791514Y-111443054D01*
X104839488Y-111392259D01*
X104907308Y-111375463D01*
X104973444Y-111397999D01*
X105012486Y-111443056D01*
X105016951Y-111451820D01*
X105141890Y-111623786D01*
X105292213Y-111774109D01*
X105464179Y-111899048D01*
X105464181Y-111899049D01*
X105464184Y-111899051D01*
X105653588Y-111995557D01*
X105855757Y-112061246D01*
X106065713Y-112094500D01*
X106065714Y-112094500D01*
X106278286Y-112094500D01*
X106278287Y-112094500D01*
X106488243Y-112061246D01*
X106690412Y-111995557D01*
X106879816Y-111899051D01*
X106966138Y-111836335D01*
X107051786Y-111774109D01*
X107051788Y-111774106D01*
X107051792Y-111774104D01*
X107202104Y-111623792D01*
X107202106Y-111623788D01*
X107202109Y-111623786D01*
X107327048Y-111451820D01*
X107327047Y-111451820D01*
X107327051Y-111451816D01*
X107423557Y-111262412D01*
X107489246Y-111060243D01*
X107522500Y-110850287D01*
X107522500Y-110637713D01*
X107489246Y-110427757D01*
X107423557Y-110225588D01*
X107327051Y-110036184D01*
X107327049Y-110036181D01*
X107327048Y-110036179D01*
X107202109Y-109864213D01*
X107051786Y-109713890D01*
X106879820Y-109588951D01*
X106690414Y-109492444D01*
X106690413Y-109492443D01*
X106690412Y-109492443D01*
X106488243Y-109426754D01*
X106488241Y-109426753D01*
X106488240Y-109426753D01*
X106326957Y-109401208D01*
X106278287Y-109393500D01*
X106065713Y-109393500D01*
X106017042Y-109401208D01*
X105855760Y-109426753D01*
X105653585Y-109492444D01*
X105464179Y-109588951D01*
X105292213Y-109713890D01*
X105141890Y-109864213D01*
X105016949Y-110036182D01*
X105012484Y-110044946D01*
X104964509Y-110095742D01*
X104896688Y-110112536D01*
X104830553Y-110089998D01*
X104791516Y-110044946D01*
X104787050Y-110036182D01*
X104662109Y-109864213D01*
X104511786Y-109713890D01*
X104339820Y-109588951D01*
X104150414Y-109492444D01*
X104150413Y-109492443D01*
X104150412Y-109492443D01*
X103948243Y-109426754D01*
X103948241Y-109426753D01*
X103948240Y-109426753D01*
X103786957Y-109401208D01*
X103738287Y-109393500D01*
X103525713Y-109393500D01*
X103477042Y-109401208D01*
X103315760Y-109426753D01*
X103113585Y-109492444D01*
X102924179Y-109588951D01*
X102752213Y-109713890D01*
X102601890Y-109864213D01*
X102476949Y-110036182D01*
X102472484Y-110044946D01*
X102424509Y-110095742D01*
X102356688Y-110112536D01*
X102290553Y-110089998D01*
X102251516Y-110044946D01*
X102247050Y-110036182D01*
X102122109Y-109864213D01*
X101971786Y-109713890D01*
X101799820Y-109588951D01*
X101610414Y-109492444D01*
X101610413Y-109492443D01*
X101610412Y-109492443D01*
X101408243Y-109426754D01*
X101408241Y-109426753D01*
X101408240Y-109426753D01*
X101246957Y-109401208D01*
X101198287Y-109393500D01*
X100985713Y-109393500D01*
X100937042Y-109401208D01*
X100775760Y-109426753D01*
X100573585Y-109492444D01*
X100384179Y-109588951D01*
X100212215Y-109713889D01*
X100098673Y-109827431D01*
X100037350Y-109860915D01*
X99967658Y-109855931D01*
X99911725Y-109814059D01*
X99894810Y-109783082D01*
X99845797Y-109651671D01*
X99845793Y-109651664D01*
X99759547Y-109536455D01*
X99759544Y-109536452D01*
X99644335Y-109450206D01*
X99644328Y-109450202D01*
X99509482Y-109399908D01*
X99509483Y-109399908D01*
X99449883Y-109393501D01*
X99449881Y-109393500D01*
X99449873Y-109393500D01*
X99449864Y-109393500D01*
X97654129Y-109393500D01*
X97654123Y-109393501D01*
X97594516Y-109399908D01*
X97459671Y-109450202D01*
X97459664Y-109450206D01*
X97344455Y-109536452D01*
X97344452Y-109536455D01*
X97258206Y-109651664D01*
X97258202Y-109651671D01*
X97207908Y-109786517D01*
X97201501Y-109846116D01*
X97201500Y-109846135D01*
X89102424Y-109846135D01*
X89181490Y-109783082D01*
X89228167Y-109745859D01*
X89228168Y-109745858D01*
X89232078Y-109742740D01*
X89232080Y-109742737D01*
X89232085Y-109742734D01*
X89422734Y-109552085D01*
X89590838Y-109341289D01*
X89734284Y-109112997D01*
X89851267Y-108870079D01*
X89940316Y-108615591D01*
X90000312Y-108352732D01*
X90030500Y-108084809D01*
X90030500Y-107815191D01*
X90030499Y-107815186D01*
X139839500Y-107815186D01*
X139839500Y-108084813D01*
X139869686Y-108352719D01*
X139869688Y-108352731D01*
X139929684Y-108615594D01*
X139929687Y-108615602D01*
X140018734Y-108870082D01*
X140135714Y-109112994D01*
X140135716Y-109112997D01*
X140279162Y-109341289D01*
X140320799Y-109393500D01*
X140434801Y-109536455D01*
X140447266Y-109552085D01*
X140637915Y-109742734D01*
X140848711Y-109910838D01*
X141077003Y-110054284D01*
X141319921Y-110171267D01*
X141475162Y-110225588D01*
X141574397Y-110260312D01*
X141574405Y-110260315D01*
X141574408Y-110260315D01*
X141574409Y-110260316D01*
X141837268Y-110320312D01*
X142105187Y-110350499D01*
X142105188Y-110350500D01*
X142105191Y-110350500D01*
X142374812Y-110350500D01*
X142374812Y-110350499D01*
X142642732Y-110320312D01*
X142905591Y-110260316D01*
X143160079Y-110171267D01*
X143402997Y-110054284D01*
X143631289Y-109910838D01*
X143842085Y-109742734D01*
X144032734Y-109552085D01*
X144200838Y-109341289D01*
X144344284Y-109112997D01*
X144461267Y-108870079D01*
X144550316Y-108615591D01*
X144610312Y-108352732D01*
X144640500Y-108084809D01*
X144640500Y-107815191D01*
X144610312Y-107547268D01*
X144550316Y-107284409D01*
X144461267Y-107029921D01*
X144344284Y-106787003D01*
X144200838Y-106558711D01*
X144032734Y-106347915D01*
X143842085Y-106157266D01*
X143631289Y-105989162D01*
X143402997Y-105845716D01*
X143402994Y-105845714D01*
X143160082Y-105728734D01*
X142905602Y-105639687D01*
X142905594Y-105639684D01*
X142708446Y-105594687D01*
X142642732Y-105579688D01*
X142642728Y-105579687D01*
X142642719Y-105579686D01*
X142374813Y-105549500D01*
X142374809Y-105549500D01*
X142105191Y-105549500D01*
X142105186Y-105549500D01*
X141837280Y-105579686D01*
X141837268Y-105579688D01*
X141574405Y-105639684D01*
X141574397Y-105639687D01*
X141319917Y-105728734D01*
X141077005Y-105845714D01*
X140848712Y-105989161D01*
X140637915Y-106157265D01*
X140447265Y-106347915D01*
X140279161Y-106558712D01*
X140135714Y-106787005D01*
X140018734Y-107029917D01*
X139929687Y-107284397D01*
X139929684Y-107284405D01*
X139869688Y-107547268D01*
X139869686Y-107547280D01*
X139839500Y-107815186D01*
X90030499Y-107815186D01*
X90000312Y-107547268D01*
X89940316Y-107284409D01*
X89851267Y-107029921D01*
X89734284Y-106787003D01*
X89590838Y-106558711D01*
X89590836Y-106558708D01*
X89590835Y-106558706D01*
X89467765Y-106404381D01*
X89467763Y-106404379D01*
X89422734Y-106347915D01*
X89407972Y-106333153D01*
X93320500Y-106333153D01*
X93320500Y-106490846D01*
X93351261Y-106645489D01*
X93351264Y-106645501D01*
X93411602Y-106791172D01*
X93411609Y-106791185D01*
X93499210Y-106922288D01*
X93499213Y-106922292D01*
X93610707Y-107033786D01*
X93610711Y-107033789D01*
X93741814Y-107121390D01*
X93741827Y-107121397D01*
X93887498Y-107181735D01*
X93887503Y-107181737D01*
X94042153Y-107212499D01*
X94042156Y-107212500D01*
X94042158Y-107212500D01*
X94199844Y-107212500D01*
X94199845Y-107212499D01*
X94354497Y-107181737D01*
X94500179Y-107121394D01*
X94631289Y-107033789D01*
X94742789Y-106922289D01*
X94830394Y-106791179D01*
X94890737Y-106645497D01*
X94921500Y-106490842D01*
X94921500Y-106333158D01*
X94921500Y-106333155D01*
X94921499Y-106333153D01*
X101829500Y-106333153D01*
X101829500Y-106490846D01*
X101860261Y-106645489D01*
X101860264Y-106645501D01*
X101920602Y-106791172D01*
X101920609Y-106791185D01*
X102008210Y-106922288D01*
X102008213Y-106922292D01*
X102119707Y-107033786D01*
X102119711Y-107033789D01*
X102250814Y-107121390D01*
X102250827Y-107121397D01*
X102396498Y-107181735D01*
X102396503Y-107181737D01*
X102551153Y-107212499D01*
X102551156Y-107212500D01*
X102551158Y-107212500D01*
X102708844Y-107212500D01*
X102708845Y-107212499D01*
X102863497Y-107181737D01*
X103009179Y-107121394D01*
X103140289Y-107033789D01*
X103251789Y-106922289D01*
X103339394Y-106791179D01*
X103399737Y-106645497D01*
X103430500Y-106490842D01*
X103430500Y-106333158D01*
X103430500Y-106333155D01*
X103430499Y-106333153D01*
X103399738Y-106178510D01*
X103399737Y-106178503D01*
X103399735Y-106178498D01*
X103339397Y-106032827D01*
X103339390Y-106032814D01*
X103251789Y-105901711D01*
X103251786Y-105901707D01*
X103140292Y-105790213D01*
X103140288Y-105790210D01*
X103009185Y-105702609D01*
X103009172Y-105702602D01*
X102863501Y-105642264D01*
X102863489Y-105642261D01*
X102708845Y-105611500D01*
X102708842Y-105611500D01*
X102551158Y-105611500D01*
X102551155Y-105611500D01*
X102396510Y-105642261D01*
X102396498Y-105642264D01*
X102250827Y-105702602D01*
X102250814Y-105702609D01*
X102119711Y-105790210D01*
X102119707Y-105790213D01*
X102008213Y-105901707D01*
X102008210Y-105901711D01*
X101920609Y-106032814D01*
X101920602Y-106032827D01*
X101860264Y-106178498D01*
X101860261Y-106178510D01*
X101829500Y-106333153D01*
X94921499Y-106333153D01*
X94890738Y-106178510D01*
X94890737Y-106178503D01*
X94890735Y-106178498D01*
X94830397Y-106032827D01*
X94830390Y-106032814D01*
X94742789Y-105901711D01*
X94742786Y-105901707D01*
X94631292Y-105790213D01*
X94631288Y-105790210D01*
X94500185Y-105702609D01*
X94500172Y-105702602D01*
X94354501Y-105642264D01*
X94354489Y-105642261D01*
X94199845Y-105611500D01*
X94199842Y-105611500D01*
X94042158Y-105611500D01*
X94042155Y-105611500D01*
X93887510Y-105642261D01*
X93887498Y-105642264D01*
X93741827Y-105702602D01*
X93741814Y-105702609D01*
X93610711Y-105790210D01*
X93610707Y-105790213D01*
X93499213Y-105901707D01*
X93499210Y-105901711D01*
X93411609Y-106032814D01*
X93411602Y-106032827D01*
X93351264Y-106178498D01*
X93351261Y-106178510D01*
X93320500Y-106333153D01*
X89407972Y-106333153D01*
X89232084Y-106157265D01*
X89076043Y-106032827D01*
X89021289Y-105989162D01*
X88792997Y-105845716D01*
X88792994Y-105845714D01*
X88550082Y-105728734D01*
X88295602Y-105639687D01*
X88295594Y-105639684D01*
X88098446Y-105594687D01*
X88032732Y-105579688D01*
X88032728Y-105579687D01*
X88032719Y-105579686D01*
X87764813Y-105549500D01*
X87764809Y-105549500D01*
X87495191Y-105549500D01*
X87495186Y-105549500D01*
X87227280Y-105579686D01*
X87227268Y-105579688D01*
X86964405Y-105639684D01*
X86964397Y-105639687D01*
X86709917Y-105728734D01*
X86467005Y-105845714D01*
X86238712Y-105989161D01*
X86027915Y-106157265D01*
X85837265Y-106347915D01*
X85669161Y-106558712D01*
X85525714Y-106787005D01*
X85408734Y-107029917D01*
X85319687Y-107284397D01*
X85319684Y-107284405D01*
X85259688Y-107547268D01*
X85259686Y-107547280D01*
X85229500Y-107815186D01*
X83050500Y-107815186D01*
X83050500Y-104315153D01*
X107657500Y-104315153D01*
X107657500Y-104472846D01*
X107688261Y-104627489D01*
X107688264Y-104627501D01*
X107748602Y-104773172D01*
X107748609Y-104773185D01*
X107836210Y-104904288D01*
X107836213Y-104904292D01*
X107947707Y-105015786D01*
X107947711Y-105015789D01*
X108078814Y-105103390D01*
X108078827Y-105103397D01*
X108224498Y-105163735D01*
X108224503Y-105163737D01*
X108379153Y-105194499D01*
X108379156Y-105194500D01*
X108379158Y-105194500D01*
X108536844Y-105194500D01*
X108536845Y-105194499D01*
X108691497Y-105163737D01*
X108837179Y-105103394D01*
X108968289Y-105015789D01*
X109079789Y-104904289D01*
X109167394Y-104773179D01*
X109227737Y-104627497D01*
X109258500Y-104472842D01*
X109258500Y-104315158D01*
X109258500Y-104315155D01*
X109258499Y-104315153D01*
X109227738Y-104160510D01*
X109227737Y-104160503D01*
X109227735Y-104160498D01*
X109167397Y-104014827D01*
X109167390Y-104014814D01*
X109079789Y-103883711D01*
X109079786Y-103883707D01*
X108968292Y-103772213D01*
X108968288Y-103772210D01*
X108837185Y-103684609D01*
X108837172Y-103684602D01*
X108691501Y-103624264D01*
X108691489Y-103624261D01*
X108536845Y-103593500D01*
X108536842Y-103593500D01*
X108379158Y-103593500D01*
X108379155Y-103593500D01*
X108224510Y-103624261D01*
X108224498Y-103624264D01*
X108078827Y-103684602D01*
X108078814Y-103684609D01*
X107947711Y-103772210D01*
X107947707Y-103772213D01*
X107836213Y-103883707D01*
X107836210Y-103883711D01*
X107748609Y-104014814D01*
X107748602Y-104014827D01*
X107688264Y-104160498D01*
X107688261Y-104160510D01*
X107657500Y-104315153D01*
X83050500Y-104315153D01*
X83050500Y-99038384D01*
X89504500Y-99038384D01*
X89504500Y-100351616D01*
X89504788Y-100354783D01*
X89510913Y-100422192D01*
X89510913Y-100422194D01*
X89510914Y-100422196D01*
X89561522Y-100584606D01*
X89615465Y-100673839D01*
X89649530Y-100730188D01*
X89769811Y-100850469D01*
X89769813Y-100850470D01*
X89769815Y-100850472D01*
X89915394Y-100938478D01*
X90077804Y-100989086D01*
X90148384Y-100995500D01*
X90148387Y-100995500D01*
X91461613Y-100995500D01*
X91461616Y-100995500D01*
X91532196Y-100989086D01*
X91694606Y-100938478D01*
X91840185Y-100850472D01*
X91960472Y-100730185D01*
X92048478Y-100584606D01*
X92075641Y-100497433D01*
X92114377Y-100439288D01*
X92178402Y-100411313D01*
X92247388Y-100422394D01*
X92294344Y-100461440D01*
X92353028Y-100542212D01*
X92353032Y-100542217D01*
X92497786Y-100686971D01*
X92652749Y-100799556D01*
X92663390Y-100807287D01*
X92779607Y-100866503D01*
X92845776Y-100900218D01*
X92845778Y-100900218D01*
X92845781Y-100900220D01*
X92941365Y-100931277D01*
X93040465Y-100963477D01*
X93141557Y-100979488D01*
X93242648Y-100995500D01*
X93242649Y-100995500D01*
X93447351Y-100995500D01*
X93447352Y-100995500D01*
X93649534Y-100963477D01*
X93844219Y-100900220D01*
X94026610Y-100807287D01*
X94132733Y-100730185D01*
X94192213Y-100686971D01*
X94192215Y-100686968D01*
X94192219Y-100686966D01*
X94336966Y-100542219D01*
X94336968Y-100542215D01*
X94336971Y-100542213D01*
X94457286Y-100376611D01*
X94468407Y-100354786D01*
X94500782Y-100291245D01*
X94548756Y-100240449D01*
X94616577Y-100223654D01*
X94682712Y-100246191D01*
X94720625Y-100289086D01*
X94755739Y-100354779D01*
X94755751Y-100354799D01*
X94843278Y-100485793D01*
X94843286Y-100485804D01*
X94843291Y-100485811D01*
X94906157Y-100562412D01*
X95017588Y-100673843D01*
X95094189Y-100736709D01*
X95094198Y-100736715D01*
X95094206Y-100736721D01*
X95225200Y-100824248D01*
X95225205Y-100824251D01*
X95225217Y-100824259D01*
X95225226Y-100824263D01*
X95225228Y-100824265D01*
X95312603Y-100870968D01*
X95312605Y-100870968D01*
X95312611Y-100870972D01*
X95458202Y-100931278D01*
X95553032Y-100960044D01*
X95707590Y-100990787D01*
X95806207Y-101000500D01*
X95806209Y-101000500D01*
X95963791Y-101000500D01*
X95963793Y-101000500D01*
X96062410Y-100990787D01*
X96216968Y-100960044D01*
X96311798Y-100931278D01*
X96457389Y-100870972D01*
X96544783Y-100824259D01*
X96675811Y-100736709D01*
X96752412Y-100673843D01*
X96863843Y-100562412D01*
X96926709Y-100485811D01*
X97014259Y-100354783D01*
X97049375Y-100289084D01*
X97098336Y-100239243D01*
X97166473Y-100223782D01*
X97232153Y-100247613D01*
X97269217Y-100291245D01*
X97299976Y-100351613D01*
X97312715Y-100376613D01*
X97433028Y-100542213D01*
X97577786Y-100686971D01*
X97732749Y-100799556D01*
X97743390Y-100807287D01*
X97859607Y-100866503D01*
X97925776Y-100900218D01*
X97925778Y-100900218D01*
X97925781Y-100900220D01*
X98021365Y-100931277D01*
X98120465Y-100963477D01*
X98221557Y-100979488D01*
X98322648Y-100995500D01*
X98322649Y-100995500D01*
X98527351Y-100995500D01*
X98527352Y-100995500D01*
X98729534Y-100963477D01*
X98924219Y-100900220D01*
X99106610Y-100807287D01*
X99212733Y-100730185D01*
X99272213Y-100686971D01*
X99272215Y-100686968D01*
X99272219Y-100686966D01*
X99416966Y-100542219D01*
X99416968Y-100542215D01*
X99416971Y-100542213D01*
X99537284Y-100376614D01*
X99537286Y-100376611D01*
X99537287Y-100376610D01*
X99584516Y-100283917D01*
X99632489Y-100233123D01*
X99700310Y-100216328D01*
X99766445Y-100238865D01*
X99805483Y-100283917D01*
X99809218Y-100291246D01*
X99852715Y-100376614D01*
X99973028Y-100542213D01*
X100117786Y-100686971D01*
X100272749Y-100799556D01*
X100283390Y-100807287D01*
X100399607Y-100866503D01*
X100465776Y-100900218D01*
X100465778Y-100900218D01*
X100465781Y-100900220D01*
X100561365Y-100931277D01*
X100660465Y-100963477D01*
X100761557Y-100979488D01*
X100862648Y-100995500D01*
X100862649Y-100995500D01*
X101067351Y-100995500D01*
X101067352Y-100995500D01*
X101269534Y-100963477D01*
X101464219Y-100900220D01*
X101646610Y-100807287D01*
X101752733Y-100730185D01*
X101812213Y-100686971D01*
X101812215Y-100686968D01*
X101812219Y-100686966D01*
X101956966Y-100542219D01*
X101956968Y-100542215D01*
X101956971Y-100542213D01*
X102077284Y-100376614D01*
X102077286Y-100376611D01*
X102077287Y-100376610D01*
X102124516Y-100283917D01*
X102172489Y-100233123D01*
X102240310Y-100216328D01*
X102306445Y-100238865D01*
X102345483Y-100283917D01*
X102349218Y-100291246D01*
X102392715Y-100376614D01*
X102513028Y-100542213D01*
X102657786Y-100686971D01*
X102812749Y-100799556D01*
X102823390Y-100807287D01*
X102939607Y-100866503D01*
X103005776Y-100900218D01*
X103005778Y-100900218D01*
X103005781Y-100900220D01*
X103101365Y-100931277D01*
X103200465Y-100963477D01*
X103301557Y-100979488D01*
X103402648Y-100995500D01*
X103402649Y-100995500D01*
X103607351Y-100995500D01*
X103607352Y-100995500D01*
X103809534Y-100963477D01*
X104004219Y-100900220D01*
X104186610Y-100807287D01*
X104292733Y-100730185D01*
X104352213Y-100686971D01*
X104352215Y-100686968D01*
X104352219Y-100686966D01*
X104496966Y-100542219D01*
X104496968Y-100542215D01*
X104496971Y-100542213D01*
X104617284Y-100376614D01*
X104617286Y-100376611D01*
X104617287Y-100376610D01*
X104664516Y-100283917D01*
X104712489Y-100233123D01*
X104780310Y-100216328D01*
X104846445Y-100238865D01*
X104885483Y-100283917D01*
X104889218Y-100291246D01*
X104932715Y-100376614D01*
X105053028Y-100542213D01*
X105197786Y-100686971D01*
X105352749Y-100799556D01*
X105363390Y-100807287D01*
X105479607Y-100866503D01*
X105545776Y-100900218D01*
X105545778Y-100900218D01*
X105545781Y-100900220D01*
X105641365Y-100931277D01*
X105740465Y-100963477D01*
X105841557Y-100979488D01*
X105942648Y-100995500D01*
X105942649Y-100995500D01*
X106147351Y-100995500D01*
X106147352Y-100995500D01*
X106349534Y-100963477D01*
X106544219Y-100900220D01*
X106726610Y-100807287D01*
X106832733Y-100730185D01*
X106892213Y-100686971D01*
X106892215Y-100686968D01*
X106892219Y-100686966D01*
X107036966Y-100542219D01*
X107036968Y-100542215D01*
X107036971Y-100542213D01*
X107157286Y-100376611D01*
X107168407Y-100354786D01*
X107200782Y-100291245D01*
X107248756Y-100240449D01*
X107316577Y-100223654D01*
X107382712Y-100246191D01*
X107420625Y-100289086D01*
X107455739Y-100354779D01*
X107455751Y-100354799D01*
X107543278Y-100485793D01*
X107543286Y-100485804D01*
X107543291Y-100485811D01*
X107606157Y-100562412D01*
X107717588Y-100673843D01*
X107794189Y-100736709D01*
X107794198Y-100736715D01*
X107794206Y-100736721D01*
X107925200Y-100824248D01*
X107925205Y-100824251D01*
X107925217Y-100824259D01*
X107925226Y-100824263D01*
X107925228Y-100824265D01*
X108012603Y-100870968D01*
X108012605Y-100870968D01*
X108012611Y-100870972D01*
X108158202Y-100931278D01*
X108253032Y-100960044D01*
X108407590Y-100990787D01*
X108506207Y-101000500D01*
X108506209Y-101000500D01*
X108663791Y-101000500D01*
X108663793Y-101000500D01*
X108762410Y-100990787D01*
X108916968Y-100960044D01*
X109011798Y-100931278D01*
X109157389Y-100870972D01*
X109244783Y-100824259D01*
X109375811Y-100736709D01*
X109452412Y-100673843D01*
X109563843Y-100562412D01*
X109626709Y-100485811D01*
X109714259Y-100354783D01*
X109749375Y-100289084D01*
X109798336Y-100239243D01*
X109866473Y-100223782D01*
X109932153Y-100247613D01*
X109969217Y-100291245D01*
X109999976Y-100351613D01*
X110012715Y-100376613D01*
X110133028Y-100542213D01*
X110277786Y-100686971D01*
X110432749Y-100799556D01*
X110443390Y-100807287D01*
X110559607Y-100866503D01*
X110625776Y-100900218D01*
X110625778Y-100900218D01*
X110625781Y-100900220D01*
X110721365Y-100931277D01*
X110820465Y-100963477D01*
X110921557Y-100979488D01*
X111022648Y-100995500D01*
X111022649Y-100995500D01*
X111227351Y-100995500D01*
X111227352Y-100995500D01*
X111429534Y-100963477D01*
X111624219Y-100900220D01*
X111806610Y-100807287D01*
X111912733Y-100730185D01*
X111972213Y-100686971D01*
X111972215Y-100686968D01*
X111972219Y-100686966D01*
X112116966Y-100542219D01*
X112116968Y-100542215D01*
X112116971Y-100542213D01*
X112237284Y-100376614D01*
X112237286Y-100376611D01*
X112237287Y-100376610D01*
X112284516Y-100283917D01*
X112332489Y-100233123D01*
X112400310Y-100216328D01*
X112466445Y-100238865D01*
X112505483Y-100283917D01*
X112509218Y-100291246D01*
X112552715Y-100376614D01*
X112673028Y-100542213D01*
X112817786Y-100686971D01*
X112972749Y-100799556D01*
X112983390Y-100807287D01*
X113099607Y-100866503D01*
X113165776Y-100900218D01*
X113165778Y-100900218D01*
X113165781Y-100900220D01*
X113261365Y-100931277D01*
X113360465Y-100963477D01*
X113461557Y-100979488D01*
X113562648Y-100995500D01*
X113562649Y-100995500D01*
X113767351Y-100995500D01*
X113767352Y-100995500D01*
X113969534Y-100963477D01*
X114164219Y-100900220D01*
X114346610Y-100807287D01*
X114452733Y-100730185D01*
X114512213Y-100686971D01*
X114512215Y-100686968D01*
X114512219Y-100686966D01*
X114656966Y-100542219D01*
X114656968Y-100542215D01*
X114656971Y-100542213D01*
X114777284Y-100376614D01*
X114777286Y-100376611D01*
X114777287Y-100376610D01*
X114824516Y-100283917D01*
X114872489Y-100233123D01*
X114940310Y-100216328D01*
X115006445Y-100238865D01*
X115045483Y-100283917D01*
X115049218Y-100291246D01*
X115092715Y-100376614D01*
X115213028Y-100542213D01*
X115357786Y-100686971D01*
X115512749Y-100799556D01*
X115523390Y-100807287D01*
X115639607Y-100866503D01*
X115705776Y-100900218D01*
X115705778Y-100900218D01*
X115705781Y-100900220D01*
X115801365Y-100931277D01*
X115900465Y-100963477D01*
X116001557Y-100979488D01*
X116102648Y-100995500D01*
X116102649Y-100995500D01*
X116307351Y-100995500D01*
X116307352Y-100995500D01*
X116509534Y-100963477D01*
X116704219Y-100900220D01*
X116886610Y-100807287D01*
X116992733Y-100730185D01*
X117052213Y-100686971D01*
X117052215Y-100686968D01*
X117052219Y-100686966D01*
X117196966Y-100542219D01*
X117196968Y-100542215D01*
X117196971Y-100542213D01*
X117317284Y-100376614D01*
X117317286Y-100376611D01*
X117317287Y-100376610D01*
X117364516Y-100283917D01*
X117412489Y-100233123D01*
X117480310Y-100216328D01*
X117546445Y-100238865D01*
X117585483Y-100283917D01*
X117589218Y-100291246D01*
X117632715Y-100376614D01*
X117753028Y-100542213D01*
X117897786Y-100686971D01*
X118052749Y-100799556D01*
X118063390Y-100807287D01*
X118179607Y-100866503D01*
X118245776Y-100900218D01*
X118245778Y-100900218D01*
X118245781Y-100900220D01*
X118341365Y-100931277D01*
X118440465Y-100963477D01*
X118541557Y-100979488D01*
X118642648Y-100995500D01*
X118642649Y-100995500D01*
X118847351Y-100995500D01*
X118847352Y-100995500D01*
X119049534Y-100963477D01*
X119244219Y-100900220D01*
X119426610Y-100807287D01*
X119532733Y-100730185D01*
X119592213Y-100686971D01*
X119592215Y-100686968D01*
X119592219Y-100686966D01*
X119736966Y-100542219D01*
X119736968Y-100542215D01*
X119736971Y-100542213D01*
X119857286Y-100376611D01*
X119868407Y-100354786D01*
X119900782Y-100291245D01*
X119948756Y-100240449D01*
X120016577Y-100223654D01*
X120082712Y-100246191D01*
X120120625Y-100289086D01*
X120155739Y-100354779D01*
X120155751Y-100354799D01*
X120243278Y-100485793D01*
X120243286Y-100485804D01*
X120243291Y-100485811D01*
X120306157Y-100562412D01*
X120417588Y-100673843D01*
X120494189Y-100736709D01*
X120494198Y-100736715D01*
X120494206Y-100736721D01*
X120625200Y-100824248D01*
X120625205Y-100824251D01*
X120625217Y-100824259D01*
X120625226Y-100824263D01*
X120625228Y-100824265D01*
X120712603Y-100870968D01*
X120712605Y-100870968D01*
X120712611Y-100870972D01*
X120858202Y-100931278D01*
X120953032Y-100960044D01*
X121107590Y-100990787D01*
X121206207Y-101000500D01*
X121206209Y-101000500D01*
X121363791Y-101000500D01*
X121363793Y-101000500D01*
X121462410Y-100990787D01*
X121616968Y-100960044D01*
X121711798Y-100931278D01*
X121857389Y-100870972D01*
X121944783Y-100824259D01*
X122075811Y-100736709D01*
X122152412Y-100673843D01*
X122263843Y-100562412D01*
X122326709Y-100485811D01*
X122414259Y-100354783D01*
X122449375Y-100289084D01*
X122498336Y-100239243D01*
X122566473Y-100223782D01*
X122632153Y-100247613D01*
X122669217Y-100291245D01*
X122699976Y-100351613D01*
X122712715Y-100376613D01*
X122833028Y-100542213D01*
X122977786Y-100686971D01*
X123132749Y-100799556D01*
X123143390Y-100807287D01*
X123259607Y-100866503D01*
X123325776Y-100900218D01*
X123325778Y-100900218D01*
X123325781Y-100900220D01*
X123421365Y-100931277D01*
X123520465Y-100963477D01*
X123621557Y-100979488D01*
X123722648Y-100995500D01*
X123722649Y-100995500D01*
X123927351Y-100995500D01*
X123927352Y-100995500D01*
X124129534Y-100963477D01*
X124324219Y-100900220D01*
X124506610Y-100807287D01*
X124612733Y-100730185D01*
X124672213Y-100686971D01*
X124672215Y-100686968D01*
X124672219Y-100686966D01*
X124816966Y-100542219D01*
X124816968Y-100542215D01*
X124816971Y-100542213D01*
X124937284Y-100376614D01*
X124937286Y-100376611D01*
X124937287Y-100376610D01*
X124984516Y-100283917D01*
X125032489Y-100233123D01*
X125100310Y-100216328D01*
X125166445Y-100238865D01*
X125205483Y-100283917D01*
X125209218Y-100291246D01*
X125252715Y-100376614D01*
X125373028Y-100542213D01*
X125517786Y-100686971D01*
X125672749Y-100799556D01*
X125683390Y-100807287D01*
X125799607Y-100866503D01*
X125865776Y-100900218D01*
X125865778Y-100900218D01*
X125865781Y-100900220D01*
X125961365Y-100931277D01*
X126060465Y-100963477D01*
X126161557Y-100979488D01*
X126262648Y-100995500D01*
X126262649Y-100995500D01*
X126467351Y-100995500D01*
X126467352Y-100995500D01*
X126669534Y-100963477D01*
X126864219Y-100900220D01*
X127046610Y-100807287D01*
X127152733Y-100730185D01*
X127212213Y-100686971D01*
X127212215Y-100686968D01*
X127212219Y-100686966D01*
X127356966Y-100542219D01*
X127356968Y-100542215D01*
X127356971Y-100542213D01*
X127477284Y-100376614D01*
X127477286Y-100376611D01*
X127477287Y-100376610D01*
X127524516Y-100283917D01*
X127572489Y-100233123D01*
X127640310Y-100216328D01*
X127706445Y-100238865D01*
X127745483Y-100283917D01*
X127749218Y-100291246D01*
X127792715Y-100376614D01*
X127913028Y-100542213D01*
X128057786Y-100686971D01*
X128212749Y-100799556D01*
X128223390Y-100807287D01*
X128339607Y-100866503D01*
X128405776Y-100900218D01*
X128405778Y-100900218D01*
X128405781Y-100900220D01*
X128501365Y-100931277D01*
X128600465Y-100963477D01*
X128701557Y-100979488D01*
X128802648Y-100995500D01*
X128802649Y-100995500D01*
X129007351Y-100995500D01*
X129007352Y-100995500D01*
X129209534Y-100963477D01*
X129404219Y-100900220D01*
X129586610Y-100807287D01*
X129692733Y-100730185D01*
X129752213Y-100686971D01*
X129752215Y-100686968D01*
X129752219Y-100686966D01*
X129896966Y-100542219D01*
X129896968Y-100542215D01*
X129896971Y-100542213D01*
X130017284Y-100376614D01*
X130017286Y-100376611D01*
X130017287Y-100376610D01*
X130064516Y-100283917D01*
X130112489Y-100233123D01*
X130180310Y-100216328D01*
X130246445Y-100238865D01*
X130285483Y-100283917D01*
X130289218Y-100291246D01*
X130332715Y-100376614D01*
X130453028Y-100542213D01*
X130597786Y-100686971D01*
X130752749Y-100799556D01*
X130763390Y-100807287D01*
X130879607Y-100866503D01*
X130945776Y-100900218D01*
X130945778Y-100900218D01*
X130945781Y-100900220D01*
X131041365Y-100931277D01*
X131140465Y-100963477D01*
X131241557Y-100979488D01*
X131342648Y-100995500D01*
X131342649Y-100995500D01*
X131547351Y-100995500D01*
X131547352Y-100995500D01*
X131749534Y-100963477D01*
X131944219Y-100900220D01*
X132126610Y-100807287D01*
X132232733Y-100730185D01*
X132292213Y-100686971D01*
X132292215Y-100686968D01*
X132292219Y-100686966D01*
X132436966Y-100542219D01*
X132436968Y-100542215D01*
X132436971Y-100542213D01*
X132557286Y-100376611D01*
X132568407Y-100354786D01*
X132600782Y-100291245D01*
X132648756Y-100240449D01*
X132716577Y-100223654D01*
X132782712Y-100246191D01*
X132820625Y-100289086D01*
X132855739Y-100354779D01*
X132855751Y-100354799D01*
X132943278Y-100485793D01*
X132943286Y-100485804D01*
X132943291Y-100485811D01*
X133006157Y-100562412D01*
X133117588Y-100673843D01*
X133194189Y-100736709D01*
X133194198Y-100736715D01*
X133194206Y-100736721D01*
X133325200Y-100824248D01*
X133325205Y-100824251D01*
X133325217Y-100824259D01*
X133325226Y-100824263D01*
X133325228Y-100824265D01*
X133412603Y-100870968D01*
X133412605Y-100870968D01*
X133412611Y-100870972D01*
X133558202Y-100931278D01*
X133653032Y-100960044D01*
X133807590Y-100990787D01*
X133906207Y-101000500D01*
X133906209Y-101000500D01*
X134063791Y-101000500D01*
X134063793Y-101000500D01*
X134162410Y-100990787D01*
X134316968Y-100960044D01*
X134411798Y-100931278D01*
X134557389Y-100870972D01*
X134644783Y-100824259D01*
X134775811Y-100736709D01*
X134852412Y-100673843D01*
X134963843Y-100562412D01*
X135026709Y-100485811D01*
X135114259Y-100354783D01*
X135149375Y-100289084D01*
X135198336Y-100239243D01*
X135266473Y-100223782D01*
X135332153Y-100247613D01*
X135369217Y-100291245D01*
X135399976Y-100351613D01*
X135412715Y-100376613D01*
X135533028Y-100542213D01*
X135677786Y-100686971D01*
X135832749Y-100799556D01*
X135843390Y-100807287D01*
X135959607Y-100866503D01*
X136025776Y-100900218D01*
X136025778Y-100900218D01*
X136025781Y-100900220D01*
X136121365Y-100931277D01*
X136220465Y-100963477D01*
X136321557Y-100979488D01*
X136422648Y-100995500D01*
X136422649Y-100995500D01*
X136627351Y-100995500D01*
X136627352Y-100995500D01*
X136829534Y-100963477D01*
X137024219Y-100900220D01*
X137206610Y-100807287D01*
X137312733Y-100730185D01*
X137372213Y-100686971D01*
X137372215Y-100686968D01*
X137372219Y-100686966D01*
X137516966Y-100542219D01*
X137516968Y-100542215D01*
X137516971Y-100542213D01*
X137637284Y-100376614D01*
X137637286Y-100376611D01*
X137637287Y-100376610D01*
X137684516Y-100283917D01*
X137732489Y-100233123D01*
X137800310Y-100216328D01*
X137866445Y-100238865D01*
X137905483Y-100283917D01*
X137909218Y-100291246D01*
X137952715Y-100376614D01*
X138073028Y-100542213D01*
X138217786Y-100686971D01*
X138372749Y-100799556D01*
X138383390Y-100807287D01*
X138499607Y-100866503D01*
X138565776Y-100900218D01*
X138565778Y-100900218D01*
X138565781Y-100900220D01*
X138661365Y-100931277D01*
X138760465Y-100963477D01*
X138861557Y-100979488D01*
X138962648Y-100995500D01*
X138962649Y-100995500D01*
X139167351Y-100995500D01*
X139167352Y-100995500D01*
X139369534Y-100963477D01*
X139564219Y-100900220D01*
X139746610Y-100807287D01*
X139852733Y-100730185D01*
X139912213Y-100686971D01*
X139912215Y-100686968D01*
X139912219Y-100686966D01*
X140056966Y-100542219D01*
X140056968Y-100542215D01*
X140056971Y-100542213D01*
X140144170Y-100422192D01*
X140177287Y-100376610D01*
X140270220Y-100194219D01*
X140333477Y-99999534D01*
X140365500Y-99797352D01*
X140365500Y-99592648D01*
X140333477Y-99390466D01*
X140270220Y-99195781D01*
X140270218Y-99195778D01*
X140270218Y-99195776D01*
X140198599Y-99055218D01*
X140177287Y-99013390D01*
X140146653Y-98971225D01*
X140056971Y-98847786D01*
X139912213Y-98703028D01*
X139746613Y-98582715D01*
X139746612Y-98582714D01*
X139746610Y-98582713D01*
X139661855Y-98539528D01*
X139564223Y-98489781D01*
X139369534Y-98426522D01*
X139194995Y-98398878D01*
X139167352Y-98394500D01*
X138962648Y-98394500D01*
X138938329Y-98398351D01*
X138760465Y-98426522D01*
X138565776Y-98489781D01*
X138383386Y-98582715D01*
X138217786Y-98703028D01*
X138073028Y-98847786D01*
X137952715Y-99013386D01*
X137905485Y-99106080D01*
X137857510Y-99156876D01*
X137789689Y-99173671D01*
X137723554Y-99151134D01*
X137684515Y-99106080D01*
X137658599Y-99055218D01*
X137637287Y-99013390D01*
X137606653Y-98971225D01*
X137516971Y-98847786D01*
X137372213Y-98703028D01*
X137206613Y-98582715D01*
X137206612Y-98582714D01*
X137206610Y-98582713D01*
X137121855Y-98539528D01*
X137024223Y-98489781D01*
X136829534Y-98426522D01*
X136654995Y-98398878D01*
X136627352Y-98394500D01*
X136422648Y-98394500D01*
X136398329Y-98398351D01*
X136220465Y-98426522D01*
X136025776Y-98489781D01*
X135843386Y-98582715D01*
X135677786Y-98703028D01*
X135533032Y-98847782D01*
X135477610Y-98924064D01*
X135422279Y-98966729D01*
X135352666Y-98972708D01*
X135290871Y-98940102D01*
X135257143Y-98881840D01*
X135252024Y-98861783D01*
X135252022Y-98861774D01*
X135246226Y-98847782D01*
X135228669Y-98805394D01*
X135221574Y-98788265D01*
X135198219Y-98739449D01*
X135111994Y-98624267D01*
X135111989Y-98624262D01*
X135111984Y-98624256D01*
X135055747Y-98568019D01*
X135055731Y-98568005D01*
X135015475Y-98531843D01*
X135015467Y-98531837D01*
X134891736Y-98458426D01*
X134891737Y-98458426D01*
X134842729Y-98438127D01*
X134818226Y-98427978D01*
X134818212Y-98427973D01*
X134818204Y-98427970D01*
X134767199Y-98409976D01*
X134704162Y-98400913D01*
X134624782Y-98389500D01*
X133345218Y-98389500D01*
X133345216Y-98389500D01*
X133291185Y-98392395D01*
X133291181Y-98392396D01*
X133151778Y-98427976D01*
X133151766Y-98427980D01*
X133078280Y-98458419D01*
X133078252Y-98458431D01*
X133029451Y-98481779D01*
X133029446Y-98481782D01*
X132914268Y-98568005D01*
X132914256Y-98568015D01*
X132858019Y-98624252D01*
X132821843Y-98664524D01*
X132821837Y-98664532D01*
X132748426Y-98788263D01*
X132717978Y-98861774D01*
X132717974Y-98861783D01*
X132707971Y-98890137D01*
X132667102Y-98946807D01*
X132602083Y-98972386D01*
X132533557Y-98958752D01*
X132490717Y-98921764D01*
X132447134Y-98861777D01*
X132436966Y-98847781D01*
X132292219Y-98703034D01*
X132292213Y-98703028D01*
X132126613Y-98582715D01*
X132126612Y-98582714D01*
X132126610Y-98582713D01*
X132041855Y-98539528D01*
X131944223Y-98489781D01*
X131749534Y-98426522D01*
X131574995Y-98398878D01*
X131547352Y-98394500D01*
X131342648Y-98394500D01*
X131318329Y-98398351D01*
X131140465Y-98426522D01*
X130945776Y-98489781D01*
X130763386Y-98582715D01*
X130597786Y-98703028D01*
X130453028Y-98847786D01*
X130332715Y-99013386D01*
X130285485Y-99106080D01*
X130237510Y-99156876D01*
X130169689Y-99173671D01*
X130103554Y-99151134D01*
X130064515Y-99106080D01*
X130038599Y-99055218D01*
X130017287Y-99013390D01*
X129986653Y-98971225D01*
X129896971Y-98847786D01*
X129752213Y-98703028D01*
X129586613Y-98582715D01*
X129586612Y-98582714D01*
X129586610Y-98582713D01*
X129501855Y-98539528D01*
X129404223Y-98489781D01*
X129209534Y-98426522D01*
X129034995Y-98398878D01*
X129007352Y-98394500D01*
X128802648Y-98394500D01*
X128778329Y-98398351D01*
X128600465Y-98426522D01*
X128405776Y-98489781D01*
X128223386Y-98582715D01*
X128057786Y-98703028D01*
X127913028Y-98847786D01*
X127792715Y-99013386D01*
X127745485Y-99106080D01*
X127697510Y-99156876D01*
X127629689Y-99173671D01*
X127563554Y-99151134D01*
X127524515Y-99106080D01*
X127498599Y-99055218D01*
X127477287Y-99013390D01*
X127446653Y-98971225D01*
X127356971Y-98847786D01*
X127212213Y-98703028D01*
X127046613Y-98582715D01*
X127046612Y-98582714D01*
X127046610Y-98582713D01*
X126961855Y-98539528D01*
X126864223Y-98489781D01*
X126669534Y-98426522D01*
X126494995Y-98398878D01*
X126467352Y-98394500D01*
X126262648Y-98394500D01*
X126238329Y-98398351D01*
X126060465Y-98426522D01*
X125865776Y-98489781D01*
X125683386Y-98582715D01*
X125517786Y-98703028D01*
X125373028Y-98847786D01*
X125252715Y-99013386D01*
X125205485Y-99106080D01*
X125157510Y-99156876D01*
X125089689Y-99173671D01*
X125023554Y-99151134D01*
X124984515Y-99106080D01*
X124958599Y-99055218D01*
X124937287Y-99013390D01*
X124906653Y-98971225D01*
X124816971Y-98847786D01*
X124672213Y-98703028D01*
X124506613Y-98582715D01*
X124506612Y-98582714D01*
X124506610Y-98582713D01*
X124421855Y-98539528D01*
X124324223Y-98489781D01*
X124129534Y-98426522D01*
X123954995Y-98398878D01*
X123927352Y-98394500D01*
X123722648Y-98394500D01*
X123698329Y-98398351D01*
X123520465Y-98426522D01*
X123325776Y-98489781D01*
X123143386Y-98582715D01*
X122977786Y-98703028D01*
X122833032Y-98847782D01*
X122777610Y-98924064D01*
X122722279Y-98966729D01*
X122652666Y-98972708D01*
X122590871Y-98940102D01*
X122557143Y-98881840D01*
X122552024Y-98861783D01*
X122552022Y-98861774D01*
X122546226Y-98847782D01*
X122528669Y-98805394D01*
X122521574Y-98788265D01*
X122498219Y-98739449D01*
X122411994Y-98624267D01*
X122411989Y-98624262D01*
X122411984Y-98624256D01*
X122355747Y-98568019D01*
X122355731Y-98568005D01*
X122315475Y-98531843D01*
X122315467Y-98531837D01*
X122191736Y-98458426D01*
X122191737Y-98458426D01*
X122142729Y-98438127D01*
X122118226Y-98427978D01*
X122118212Y-98427973D01*
X122118204Y-98427970D01*
X122067199Y-98409976D01*
X122004162Y-98400913D01*
X121924782Y-98389500D01*
X120645218Y-98389500D01*
X120645216Y-98389500D01*
X120591185Y-98392395D01*
X120591181Y-98392396D01*
X120451778Y-98427976D01*
X120451766Y-98427980D01*
X120378280Y-98458419D01*
X120378252Y-98458431D01*
X120329451Y-98481779D01*
X120329446Y-98481782D01*
X120214268Y-98568005D01*
X120214256Y-98568015D01*
X120158019Y-98624252D01*
X120121843Y-98664524D01*
X120121837Y-98664532D01*
X120048426Y-98788263D01*
X120017978Y-98861774D01*
X120017974Y-98861783D01*
X120007971Y-98890137D01*
X119967102Y-98946807D01*
X119902083Y-98972386D01*
X119833557Y-98958752D01*
X119790717Y-98921764D01*
X119747134Y-98861777D01*
X119736966Y-98847781D01*
X119592219Y-98703034D01*
X119592213Y-98703028D01*
X119426613Y-98582715D01*
X119426612Y-98582714D01*
X119426610Y-98582713D01*
X119341855Y-98539528D01*
X119244223Y-98489781D01*
X119049534Y-98426522D01*
X118874995Y-98398878D01*
X118847352Y-98394500D01*
X118642648Y-98394500D01*
X118618329Y-98398351D01*
X118440465Y-98426522D01*
X118245776Y-98489781D01*
X118063386Y-98582715D01*
X117897786Y-98703028D01*
X117753028Y-98847786D01*
X117632715Y-99013386D01*
X117585485Y-99106080D01*
X117537510Y-99156876D01*
X117469689Y-99173671D01*
X117403554Y-99151134D01*
X117364515Y-99106080D01*
X117338599Y-99055218D01*
X117317287Y-99013390D01*
X117286653Y-98971225D01*
X117196971Y-98847786D01*
X117052213Y-98703028D01*
X116886613Y-98582715D01*
X116886612Y-98582714D01*
X116886610Y-98582713D01*
X116801855Y-98539528D01*
X116704223Y-98489781D01*
X116509534Y-98426522D01*
X116334995Y-98398878D01*
X116307352Y-98394500D01*
X116102648Y-98394500D01*
X116078329Y-98398351D01*
X115900465Y-98426522D01*
X115705776Y-98489781D01*
X115523386Y-98582715D01*
X115357786Y-98703028D01*
X115213028Y-98847786D01*
X115092715Y-99013386D01*
X115045485Y-99106080D01*
X114997510Y-99156876D01*
X114929689Y-99173671D01*
X114863554Y-99151134D01*
X114824515Y-99106080D01*
X114798599Y-99055218D01*
X114777287Y-99013390D01*
X114746653Y-98971225D01*
X114656971Y-98847786D01*
X114512213Y-98703028D01*
X114346613Y-98582715D01*
X114346612Y-98582714D01*
X114346610Y-98582713D01*
X114261855Y-98539528D01*
X114164223Y-98489781D01*
X113969534Y-98426522D01*
X113794995Y-98398878D01*
X113767352Y-98394500D01*
X113562648Y-98394500D01*
X113538329Y-98398351D01*
X113360465Y-98426522D01*
X113165776Y-98489781D01*
X112983386Y-98582715D01*
X112817786Y-98703028D01*
X112673028Y-98847786D01*
X112552715Y-99013386D01*
X112505485Y-99106080D01*
X112457510Y-99156876D01*
X112389689Y-99173671D01*
X112323554Y-99151134D01*
X112284515Y-99106080D01*
X112258599Y-99055218D01*
X112237287Y-99013390D01*
X112206653Y-98971225D01*
X112116971Y-98847786D01*
X111972213Y-98703028D01*
X111806613Y-98582715D01*
X111806612Y-98582714D01*
X111806610Y-98582713D01*
X111721855Y-98539528D01*
X111624223Y-98489781D01*
X111429534Y-98426522D01*
X111254995Y-98398878D01*
X111227352Y-98394500D01*
X111022648Y-98394500D01*
X110998329Y-98398351D01*
X110820465Y-98426522D01*
X110625776Y-98489781D01*
X110443386Y-98582715D01*
X110277786Y-98703028D01*
X110133032Y-98847782D01*
X110077610Y-98924064D01*
X110022279Y-98966729D01*
X109952666Y-98972708D01*
X109890871Y-98940102D01*
X109857143Y-98881840D01*
X109852024Y-98861783D01*
X109852022Y-98861774D01*
X109846226Y-98847782D01*
X109828669Y-98805394D01*
X109821574Y-98788265D01*
X109798219Y-98739449D01*
X109711994Y-98624267D01*
X109711989Y-98624262D01*
X109711984Y-98624256D01*
X109655747Y-98568019D01*
X109655731Y-98568005D01*
X109615475Y-98531843D01*
X109615467Y-98531837D01*
X109491736Y-98458426D01*
X109491737Y-98458426D01*
X109442729Y-98438127D01*
X109418226Y-98427978D01*
X109418212Y-98427973D01*
X109418204Y-98427970D01*
X109367199Y-98409976D01*
X109304162Y-98400913D01*
X109224782Y-98389500D01*
X107945218Y-98389500D01*
X107945216Y-98389500D01*
X107891185Y-98392395D01*
X107891181Y-98392396D01*
X107751778Y-98427976D01*
X107751766Y-98427980D01*
X107678280Y-98458419D01*
X107678252Y-98458431D01*
X107629451Y-98481779D01*
X107629446Y-98481782D01*
X107514268Y-98568005D01*
X107514256Y-98568015D01*
X107458019Y-98624252D01*
X107421843Y-98664524D01*
X107421837Y-98664532D01*
X107348426Y-98788263D01*
X107317978Y-98861774D01*
X107317974Y-98861783D01*
X107307971Y-98890137D01*
X107267102Y-98946807D01*
X107202083Y-98972386D01*
X107133557Y-98958752D01*
X107090717Y-98921764D01*
X107047134Y-98861777D01*
X107036966Y-98847781D01*
X106892219Y-98703034D01*
X106892213Y-98703028D01*
X106726613Y-98582715D01*
X106726612Y-98582714D01*
X106726610Y-98582713D01*
X106641855Y-98539528D01*
X106544223Y-98489781D01*
X106349534Y-98426522D01*
X106174995Y-98398878D01*
X106147352Y-98394500D01*
X105942648Y-98394500D01*
X105918329Y-98398351D01*
X105740465Y-98426522D01*
X105545776Y-98489781D01*
X105363386Y-98582715D01*
X105197786Y-98703028D01*
X105053028Y-98847786D01*
X104932715Y-99013386D01*
X104885485Y-99106080D01*
X104837510Y-99156876D01*
X104769689Y-99173671D01*
X104703554Y-99151134D01*
X104664515Y-99106080D01*
X104638599Y-99055218D01*
X104617287Y-99013390D01*
X104586653Y-98971225D01*
X104496971Y-98847786D01*
X104352213Y-98703028D01*
X104186613Y-98582715D01*
X104186612Y-98582714D01*
X104186610Y-98582713D01*
X104101855Y-98539528D01*
X104004223Y-98489781D01*
X103809534Y-98426522D01*
X103634995Y-98398878D01*
X103607352Y-98394500D01*
X103402648Y-98394500D01*
X103378329Y-98398351D01*
X103200465Y-98426522D01*
X103005776Y-98489781D01*
X102823386Y-98582715D01*
X102657786Y-98703028D01*
X102513028Y-98847786D01*
X102392715Y-99013386D01*
X102345485Y-99106080D01*
X102297510Y-99156876D01*
X102229689Y-99173671D01*
X102163554Y-99151134D01*
X102124515Y-99106080D01*
X102098599Y-99055218D01*
X102077287Y-99013390D01*
X102046653Y-98971225D01*
X101956971Y-98847786D01*
X101812213Y-98703028D01*
X101646613Y-98582715D01*
X101646612Y-98582714D01*
X101646610Y-98582713D01*
X101561855Y-98539528D01*
X101464223Y-98489781D01*
X101269534Y-98426522D01*
X101094995Y-98398878D01*
X101067352Y-98394500D01*
X100862648Y-98394500D01*
X100838329Y-98398351D01*
X100660465Y-98426522D01*
X100465776Y-98489781D01*
X100283386Y-98582715D01*
X100117786Y-98703028D01*
X99973028Y-98847786D01*
X99852715Y-99013386D01*
X99805485Y-99106080D01*
X99757510Y-99156876D01*
X99689689Y-99173671D01*
X99623554Y-99151134D01*
X99584515Y-99106080D01*
X99558599Y-99055218D01*
X99537287Y-99013390D01*
X99506653Y-98971225D01*
X99416971Y-98847786D01*
X99272213Y-98703028D01*
X99106613Y-98582715D01*
X99106612Y-98582714D01*
X99106610Y-98582713D01*
X99021855Y-98539528D01*
X98924223Y-98489781D01*
X98729534Y-98426522D01*
X98554995Y-98398878D01*
X98527352Y-98394500D01*
X98322648Y-98394500D01*
X98298329Y-98398351D01*
X98120465Y-98426522D01*
X97925776Y-98489781D01*
X97743386Y-98582715D01*
X97577786Y-98703028D01*
X97433032Y-98847782D01*
X97377610Y-98924064D01*
X97322279Y-98966729D01*
X97252666Y-98972708D01*
X97190871Y-98940102D01*
X97157143Y-98881840D01*
X97152024Y-98861783D01*
X97152022Y-98861774D01*
X97146226Y-98847782D01*
X97128669Y-98805394D01*
X97121574Y-98788265D01*
X97098219Y-98739449D01*
X97011994Y-98624267D01*
X97011989Y-98624262D01*
X97011984Y-98624256D01*
X96955747Y-98568019D01*
X96955731Y-98568005D01*
X96915475Y-98531843D01*
X96915467Y-98531837D01*
X96791736Y-98458426D01*
X96791737Y-98458426D01*
X96742729Y-98438127D01*
X96718226Y-98427978D01*
X96718212Y-98427973D01*
X96718204Y-98427970D01*
X96667199Y-98409976D01*
X96604162Y-98400913D01*
X96524782Y-98389500D01*
X95245218Y-98389500D01*
X95245216Y-98389500D01*
X95191185Y-98392395D01*
X95191181Y-98392396D01*
X95051778Y-98427976D01*
X95051766Y-98427980D01*
X94978280Y-98458419D01*
X94978252Y-98458431D01*
X94929451Y-98481779D01*
X94929446Y-98481782D01*
X94814268Y-98568005D01*
X94814256Y-98568015D01*
X94758019Y-98624252D01*
X94721843Y-98664524D01*
X94721837Y-98664532D01*
X94648426Y-98788263D01*
X94617978Y-98861774D01*
X94617974Y-98861783D01*
X94607971Y-98890137D01*
X94567102Y-98946807D01*
X94502083Y-98972386D01*
X94433557Y-98958752D01*
X94390717Y-98921764D01*
X94347134Y-98861777D01*
X94336966Y-98847781D01*
X94192219Y-98703034D01*
X94192213Y-98703028D01*
X94026613Y-98582715D01*
X94026612Y-98582714D01*
X94026610Y-98582713D01*
X93941855Y-98539528D01*
X93844223Y-98489781D01*
X93649534Y-98426522D01*
X93474995Y-98398878D01*
X93447352Y-98394500D01*
X93242648Y-98394500D01*
X93218329Y-98398351D01*
X93040465Y-98426522D01*
X92845776Y-98489781D01*
X92663386Y-98582715D01*
X92497786Y-98703028D01*
X92353032Y-98847782D01*
X92294344Y-98928560D01*
X92239014Y-98971225D01*
X92169400Y-98977204D01*
X92107606Y-98944598D01*
X92075641Y-98892566D01*
X92048478Y-98805394D01*
X91960472Y-98659815D01*
X91960470Y-98659813D01*
X91960469Y-98659811D01*
X91840188Y-98539530D01*
X91827472Y-98531843D01*
X91694606Y-98451522D01*
X91532196Y-98400914D01*
X91532194Y-98400913D01*
X91532192Y-98400913D01*
X91482778Y-98396423D01*
X91461616Y-98394500D01*
X90148384Y-98394500D01*
X90129145Y-98396248D01*
X90077807Y-98400913D01*
X89915393Y-98451522D01*
X89769811Y-98539530D01*
X89649530Y-98659811D01*
X89561522Y-98805393D01*
X89510913Y-98967807D01*
X89507880Y-99001185D01*
X89504500Y-99038384D01*
X83050500Y-99038384D01*
X83050500Y-93423713D01*
X89584500Y-93423713D01*
X89584500Y-93636286D01*
X89617730Y-93846096D01*
X89617754Y-93846243D01*
X89666344Y-93995788D01*
X89683444Y-94048414D01*
X89779951Y-94237820D01*
X89904890Y-94409786D01*
X90055213Y-94560109D01*
X90227179Y-94685048D01*
X90227181Y-94685049D01*
X90227184Y-94685051D01*
X90416588Y-94781557D01*
X90618757Y-94847246D01*
X90828713Y-94880500D01*
X90828714Y-94880500D01*
X91041286Y-94880500D01*
X91041287Y-94880500D01*
X91251243Y-94847246D01*
X91453412Y-94781557D01*
X91642816Y-94685051D01*
X91664789Y-94669086D01*
X91814786Y-94560109D01*
X91814788Y-94560106D01*
X91814792Y-94560104D01*
X91965104Y-94409792D01*
X91965106Y-94409788D01*
X91965109Y-94409786D01*
X92090048Y-94237820D01*
X92090047Y-94237820D01*
X92090051Y-94237816D01*
X92186557Y-94048412D01*
X92252246Y-93846243D01*
X92285500Y-93636287D01*
X92285500Y-93423713D01*
X92252246Y-93213757D01*
X92227464Y-93137486D01*
X92789500Y-93137486D01*
X92789500Y-93322513D01*
X92818445Y-93505265D01*
X92875619Y-93681232D01*
X92875620Y-93681235D01*
X92959622Y-93846096D01*
X93068379Y-93995787D01*
X93199213Y-94126621D01*
X93348904Y-94235378D01*
X93429763Y-94276577D01*
X93513764Y-94319379D01*
X93513767Y-94319380D01*
X93601750Y-94347967D01*
X93689736Y-94376555D01*
X93872486Y-94405500D01*
X93872487Y-94405500D01*
X94057513Y-94405500D01*
X94057514Y-94405500D01*
X94240264Y-94376555D01*
X94416235Y-94319379D01*
X94581096Y-94235378D01*
X94730787Y-94126621D01*
X94861621Y-93995787D01*
X94970378Y-93846096D01*
X95054379Y-93681235D01*
X95111555Y-93505264D01*
X95140500Y-93322514D01*
X95140500Y-93137486D01*
X95111555Y-92954736D01*
X95054379Y-92778765D01*
X95054379Y-92778764D01*
X94970377Y-92613903D01*
X94861621Y-92464213D01*
X94730787Y-92333379D01*
X94581096Y-92224622D01*
X94557802Y-92212753D01*
X94416235Y-92140620D01*
X94416232Y-92140619D01*
X94240265Y-92083445D01*
X94148889Y-92068972D01*
X94057514Y-92054500D01*
X93872486Y-92054500D01*
X93811569Y-92064148D01*
X93689734Y-92083445D01*
X93513767Y-92140619D01*
X93513764Y-92140620D01*
X93348903Y-92224622D01*
X93274826Y-92278443D01*
X93199213Y-92333379D01*
X93199211Y-92333381D01*
X93199210Y-92333381D01*
X93068381Y-92464210D01*
X93068381Y-92464211D01*
X93068379Y-92464213D01*
X93042458Y-92499890D01*
X92959622Y-92613903D01*
X92875620Y-92778764D01*
X92875619Y-92778767D01*
X92818445Y-92954734D01*
X92789500Y-93137486D01*
X92227464Y-93137486D01*
X92186557Y-93011588D01*
X92090051Y-92822184D01*
X92090049Y-92822181D01*
X92090048Y-92822179D01*
X91965109Y-92650213D01*
X91814786Y-92499890D01*
X91642820Y-92374951D01*
X91453414Y-92278444D01*
X91453413Y-92278443D01*
X91453412Y-92278443D01*
X91251243Y-92212754D01*
X91251241Y-92212753D01*
X91251240Y-92212753D01*
X91089957Y-92187208D01*
X91041287Y-92179500D01*
X90828713Y-92179500D01*
X90780042Y-92187208D01*
X90618760Y-92212753D01*
X90416585Y-92278444D01*
X90227179Y-92374951D01*
X90055213Y-92499890D01*
X89904890Y-92650213D01*
X89779951Y-92822179D01*
X89683444Y-93011585D01*
X89617753Y-93213760D01*
X89584500Y-93423713D01*
X83050500Y-93423713D01*
X83050500Y-87973713D01*
X89584500Y-87973713D01*
X89584500Y-88186286D01*
X89617753Y-88396239D01*
X89683444Y-88598414D01*
X89779951Y-88787820D01*
X89904890Y-88959786D01*
X90055213Y-89110109D01*
X90227179Y-89235048D01*
X90227181Y-89235049D01*
X90227184Y-89235051D01*
X90416588Y-89331557D01*
X90618757Y-89397246D01*
X90828713Y-89430500D01*
X90828714Y-89430500D01*
X91041286Y-89430500D01*
X91041287Y-89430500D01*
X91251243Y-89397246D01*
X91453412Y-89331557D01*
X91642816Y-89235051D01*
X91664789Y-89219086D01*
X91814786Y-89110109D01*
X91814788Y-89110106D01*
X91814792Y-89110104D01*
X91965104Y-88959792D01*
X91965106Y-88959788D01*
X91965109Y-88959786D01*
X92090048Y-88787820D01*
X92090047Y-88787820D01*
X92090051Y-88787816D01*
X92186557Y-88598412D01*
X92252246Y-88396243D01*
X92269472Y-88287486D01*
X92789500Y-88287486D01*
X92789500Y-88472513D01*
X92818445Y-88655265D01*
X92875619Y-88831232D01*
X92875620Y-88831235D01*
X92941121Y-88959786D01*
X92959622Y-88996096D01*
X93068379Y-89145787D01*
X93199213Y-89276621D01*
X93348904Y-89385378D01*
X93429763Y-89426577D01*
X93513764Y-89469379D01*
X93513767Y-89469380D01*
X93601750Y-89497967D01*
X93689736Y-89526555D01*
X93872486Y-89555500D01*
X93872487Y-89555500D01*
X94057513Y-89555500D01*
X94057514Y-89555500D01*
X94240264Y-89526555D01*
X94416235Y-89469379D01*
X94581096Y-89385378D01*
X94730787Y-89276621D01*
X94861621Y-89145787D01*
X94970378Y-88996096D01*
X95054379Y-88831235D01*
X95111555Y-88655264D01*
X95140500Y-88472514D01*
X95140500Y-88287486D01*
X95111555Y-88104736D01*
X95082967Y-88016750D01*
X95054380Y-87928767D01*
X95054379Y-87928764D01*
X94970377Y-87763903D01*
X94970271Y-87763757D01*
X94861621Y-87614213D01*
X94730787Y-87483379D01*
X94581096Y-87374622D01*
X94576301Y-87372179D01*
X94416235Y-87290620D01*
X94416232Y-87290619D01*
X94240265Y-87233445D01*
X94148889Y-87218972D01*
X94057514Y-87204500D01*
X93872486Y-87204500D01*
X93811569Y-87214148D01*
X93689734Y-87233445D01*
X93513767Y-87290619D01*
X93513764Y-87290620D01*
X93348903Y-87374622D01*
X93263499Y-87436672D01*
X93199213Y-87483379D01*
X93199211Y-87483381D01*
X93199210Y-87483381D01*
X93068381Y-87614210D01*
X93068381Y-87614211D01*
X93068379Y-87614213D01*
X93021672Y-87678499D01*
X92959622Y-87763903D01*
X92875620Y-87928764D01*
X92875619Y-87928767D01*
X92818445Y-88104734D01*
X92789500Y-88287486D01*
X92269472Y-88287486D01*
X92285500Y-88186287D01*
X92285500Y-87973713D01*
X92252246Y-87763757D01*
X92186557Y-87561588D01*
X92090051Y-87372184D01*
X92090049Y-87372181D01*
X92090048Y-87372179D01*
X91965109Y-87200213D01*
X91814786Y-87049890D01*
X91642820Y-86924951D01*
X91453414Y-86828444D01*
X91453413Y-86828443D01*
X91453412Y-86828443D01*
X91251243Y-86762754D01*
X91251241Y-86762753D01*
X91251240Y-86762753D01*
X91089957Y-86737208D01*
X91041287Y-86729500D01*
X90828713Y-86729500D01*
X90780042Y-86737208D01*
X90618760Y-86762753D01*
X90416585Y-86828444D01*
X90227179Y-86924951D01*
X90055213Y-87049890D01*
X89904890Y-87200213D01*
X89779951Y-87372179D01*
X89683444Y-87561585D01*
X89617753Y-87763760D01*
X89584500Y-87973713D01*
X83050500Y-87973713D01*
X83050500Y-81812648D01*
X89504500Y-81812648D01*
X89504500Y-82017351D01*
X89536522Y-82219534D01*
X89599781Y-82414223D01*
X89692715Y-82596613D01*
X89813028Y-82762213D01*
X89957786Y-82906971D01*
X90112749Y-83019556D01*
X90123390Y-83027287D01*
X90223226Y-83078156D01*
X90305776Y-83120218D01*
X90305778Y-83120218D01*
X90305781Y-83120220D01*
X90402260Y-83151568D01*
X90500465Y-83183477D01*
X90601557Y-83199488D01*
X90702648Y-83215500D01*
X90702649Y-83215500D01*
X90907351Y-83215500D01*
X90907352Y-83215500D01*
X91109534Y-83183477D01*
X91304219Y-83120220D01*
X91486610Y-83027287D01*
X91579590Y-82959732D01*
X91652213Y-82906971D01*
X91652215Y-82906968D01*
X91652219Y-82906966D01*
X91796966Y-82762219D01*
X91796968Y-82762215D01*
X91796971Y-82762213D01*
X91917284Y-82596614D01*
X91917285Y-82596613D01*
X91917287Y-82596610D01*
X91964516Y-82503917D01*
X92012489Y-82453123D01*
X92080310Y-82436328D01*
X92146445Y-82458865D01*
X92185485Y-82503919D01*
X92232715Y-82596614D01*
X92353028Y-82762213D01*
X92497786Y-82906971D01*
X92652749Y-83019556D01*
X92663390Y-83027287D01*
X92763226Y-83078156D01*
X92845776Y-83120218D01*
X92845778Y-83120218D01*
X92845781Y-83120220D01*
X92942260Y-83151568D01*
X93040465Y-83183477D01*
X93141557Y-83199488D01*
X93242648Y-83215500D01*
X93242649Y-83215500D01*
X93447351Y-83215500D01*
X93447352Y-83215500D01*
X93649534Y-83183477D01*
X93844219Y-83120220D01*
X94026610Y-83027287D01*
X94119590Y-82959732D01*
X94192213Y-82906971D01*
X94192215Y-82906968D01*
X94192219Y-82906966D01*
X94336966Y-82762219D01*
X94392388Y-82685935D01*
X94447718Y-82643270D01*
X94517331Y-82637291D01*
X94579127Y-82669896D01*
X94612855Y-82728155D01*
X94617976Y-82748221D01*
X94617980Y-82748233D01*
X94648419Y-82821719D01*
X94648431Y-82821747D01*
X94671779Y-82870548D01*
X94671781Y-82870551D01*
X94758006Y-82985733D01*
X94758010Y-82985737D01*
X94758015Y-82985743D01*
X94814252Y-83041980D01*
X94814261Y-83041988D01*
X94814267Y-83041994D01*
X94854524Y-83078156D01*
X94854532Y-83078162D01*
X94978263Y-83151573D01*
X94978262Y-83151573D01*
X94978279Y-83151580D01*
X95051774Y-83182022D01*
X95102802Y-83200024D01*
X95245218Y-83220500D01*
X95245221Y-83220500D01*
X96524784Y-83220500D01*
X96560804Y-83218569D01*
X96578815Y-83217604D01*
X96718226Y-83182022D01*
X96791735Y-83151574D01*
X96840551Y-83128219D01*
X96955733Y-83041994D01*
X97011994Y-82985733D01*
X97048157Y-82945475D01*
X97121574Y-82821735D01*
X97152022Y-82748226D01*
X97162027Y-82719865D01*
X97202893Y-82663195D01*
X97267911Y-82637614D01*
X97336438Y-82651245D01*
X97379281Y-82688235D01*
X97433028Y-82762213D01*
X97577786Y-82906971D01*
X97732749Y-83019556D01*
X97743390Y-83027287D01*
X97843226Y-83078156D01*
X97925776Y-83120218D01*
X97925778Y-83120218D01*
X97925781Y-83120220D01*
X98022260Y-83151568D01*
X98120465Y-83183477D01*
X98221557Y-83199488D01*
X98322648Y-83215500D01*
X98322649Y-83215500D01*
X98527351Y-83215500D01*
X98527352Y-83215500D01*
X98729534Y-83183477D01*
X98924219Y-83120220D01*
X99106610Y-83027287D01*
X99199590Y-82959732D01*
X99272213Y-82906971D01*
X99272215Y-82906968D01*
X99272219Y-82906966D01*
X99416966Y-82762219D01*
X99416968Y-82762215D01*
X99416971Y-82762213D01*
X99537284Y-82596614D01*
X99537285Y-82596613D01*
X99537287Y-82596610D01*
X99584516Y-82503917D01*
X99632489Y-82453123D01*
X99700310Y-82436328D01*
X99766445Y-82458865D01*
X99805485Y-82503919D01*
X99852715Y-82596614D01*
X99973028Y-82762213D01*
X100117786Y-82906971D01*
X100272749Y-83019556D01*
X100283390Y-83027287D01*
X100383226Y-83078156D01*
X100465776Y-83120218D01*
X100465778Y-83120218D01*
X100465781Y-83120220D01*
X100562260Y-83151568D01*
X100660465Y-83183477D01*
X100761557Y-83199488D01*
X100862648Y-83215500D01*
X100862649Y-83215500D01*
X101067351Y-83215500D01*
X101067352Y-83215500D01*
X101269534Y-83183477D01*
X101464219Y-83120220D01*
X101646610Y-83027287D01*
X101739590Y-82959732D01*
X101812213Y-82906971D01*
X101812215Y-82906968D01*
X101812219Y-82906966D01*
X101956966Y-82762219D01*
X101956968Y-82762215D01*
X101956971Y-82762213D01*
X102077284Y-82596614D01*
X102077285Y-82596613D01*
X102077287Y-82596610D01*
X102124516Y-82503917D01*
X102172489Y-82453123D01*
X102240310Y-82436328D01*
X102306445Y-82458865D01*
X102345485Y-82503919D01*
X102392715Y-82596614D01*
X102513028Y-82762213D01*
X102657786Y-82906971D01*
X102812749Y-83019556D01*
X102823390Y-83027287D01*
X102923226Y-83078156D01*
X103005776Y-83120218D01*
X103005778Y-83120218D01*
X103005781Y-83120220D01*
X103102260Y-83151568D01*
X103200465Y-83183477D01*
X103301557Y-83199488D01*
X103402648Y-83215500D01*
X103402649Y-83215500D01*
X103607351Y-83215500D01*
X103607352Y-83215500D01*
X103809534Y-83183477D01*
X104004219Y-83120220D01*
X104186610Y-83027287D01*
X104279590Y-82959732D01*
X104352213Y-82906971D01*
X104352215Y-82906968D01*
X104352219Y-82906966D01*
X104496966Y-82762219D01*
X104496968Y-82762215D01*
X104496971Y-82762213D01*
X104617284Y-82596614D01*
X104617285Y-82596613D01*
X104617287Y-82596610D01*
X104664516Y-82503917D01*
X104712489Y-82453123D01*
X104780310Y-82436328D01*
X104846445Y-82458865D01*
X104885485Y-82503919D01*
X104932715Y-82596614D01*
X105053028Y-82762213D01*
X105197786Y-82906971D01*
X105352749Y-83019556D01*
X105363390Y-83027287D01*
X105463226Y-83078156D01*
X105545776Y-83120218D01*
X105545778Y-83120218D01*
X105545781Y-83120220D01*
X105642260Y-83151568D01*
X105740465Y-83183477D01*
X105841557Y-83199488D01*
X105942648Y-83215500D01*
X105942649Y-83215500D01*
X106147351Y-83215500D01*
X106147352Y-83215500D01*
X106349534Y-83183477D01*
X106544219Y-83120220D01*
X106726610Y-83027287D01*
X106819590Y-82959732D01*
X106892213Y-82906971D01*
X106892215Y-82906968D01*
X106892219Y-82906966D01*
X107036966Y-82762219D01*
X107092388Y-82685935D01*
X107147718Y-82643270D01*
X107217331Y-82637291D01*
X107279127Y-82669896D01*
X107312855Y-82728155D01*
X107317976Y-82748221D01*
X107317980Y-82748233D01*
X107348419Y-82821719D01*
X107348431Y-82821747D01*
X107371779Y-82870548D01*
X107371781Y-82870551D01*
X107458006Y-82985733D01*
X107458010Y-82985737D01*
X107458015Y-82985743D01*
X107514252Y-83041980D01*
X107514261Y-83041988D01*
X107514267Y-83041994D01*
X107554524Y-83078156D01*
X107554532Y-83078162D01*
X107678263Y-83151573D01*
X107678262Y-83151573D01*
X107678279Y-83151580D01*
X107751774Y-83182022D01*
X107802802Y-83200024D01*
X107945218Y-83220500D01*
X107945221Y-83220500D01*
X109224784Y-83220500D01*
X109260804Y-83218569D01*
X109278815Y-83217604D01*
X109418226Y-83182022D01*
X109491735Y-83151574D01*
X109540551Y-83128219D01*
X109655733Y-83041994D01*
X109711994Y-82985733D01*
X109748157Y-82945475D01*
X109821574Y-82821735D01*
X109852022Y-82748226D01*
X109862027Y-82719865D01*
X109902893Y-82663195D01*
X109967911Y-82637614D01*
X110036438Y-82651245D01*
X110079281Y-82688235D01*
X110133028Y-82762213D01*
X110277786Y-82906971D01*
X110432749Y-83019556D01*
X110443390Y-83027287D01*
X110543226Y-83078156D01*
X110625776Y-83120218D01*
X110625778Y-83120218D01*
X110625781Y-83120220D01*
X110722260Y-83151568D01*
X110820465Y-83183477D01*
X110921557Y-83199488D01*
X111022648Y-83215500D01*
X111022649Y-83215500D01*
X111227351Y-83215500D01*
X111227352Y-83215500D01*
X111429534Y-83183477D01*
X111624219Y-83120220D01*
X111806610Y-83027287D01*
X111899590Y-82959732D01*
X111972213Y-82906971D01*
X111972215Y-82906968D01*
X111972219Y-82906966D01*
X112116966Y-82762219D01*
X112116968Y-82762215D01*
X112116971Y-82762213D01*
X112237284Y-82596614D01*
X112237285Y-82596613D01*
X112237287Y-82596610D01*
X112284516Y-82503917D01*
X112332489Y-82453123D01*
X112400310Y-82436328D01*
X112466445Y-82458865D01*
X112505485Y-82503919D01*
X112552715Y-82596614D01*
X112673028Y-82762213D01*
X112817786Y-82906971D01*
X112972749Y-83019556D01*
X112983390Y-83027287D01*
X113083226Y-83078156D01*
X113165776Y-83120218D01*
X113165778Y-83120218D01*
X113165781Y-83120220D01*
X113262260Y-83151568D01*
X113360465Y-83183477D01*
X113461557Y-83199488D01*
X113562648Y-83215500D01*
X113562649Y-83215500D01*
X113767351Y-83215500D01*
X113767352Y-83215500D01*
X113969534Y-83183477D01*
X114164219Y-83120220D01*
X114346610Y-83027287D01*
X114439590Y-82959732D01*
X114512213Y-82906971D01*
X114512215Y-82906968D01*
X114512219Y-82906966D01*
X114656966Y-82762219D01*
X114656968Y-82762215D01*
X114656971Y-82762213D01*
X114777284Y-82596614D01*
X114777285Y-82596613D01*
X114777287Y-82596610D01*
X114824516Y-82503917D01*
X114872489Y-82453123D01*
X114940310Y-82436328D01*
X115006445Y-82458865D01*
X115045485Y-82503919D01*
X115092715Y-82596614D01*
X115213028Y-82762213D01*
X115357786Y-82906971D01*
X115512749Y-83019556D01*
X115523390Y-83027287D01*
X115623226Y-83078156D01*
X115705776Y-83120218D01*
X115705778Y-83120218D01*
X115705781Y-83120220D01*
X115802260Y-83151568D01*
X115900465Y-83183477D01*
X116001557Y-83199488D01*
X116102648Y-83215500D01*
X116102649Y-83215500D01*
X116307351Y-83215500D01*
X116307352Y-83215500D01*
X116509534Y-83183477D01*
X116704219Y-83120220D01*
X116886610Y-83027287D01*
X116979590Y-82959732D01*
X117052213Y-82906971D01*
X117052215Y-82906968D01*
X117052219Y-82906966D01*
X117196966Y-82762219D01*
X117196968Y-82762215D01*
X117196971Y-82762213D01*
X117317284Y-82596614D01*
X117317285Y-82596613D01*
X117317287Y-82596610D01*
X117364516Y-82503917D01*
X117412489Y-82453123D01*
X117480310Y-82436328D01*
X117546445Y-82458865D01*
X117585485Y-82503919D01*
X117632715Y-82596614D01*
X117753028Y-82762213D01*
X117897786Y-82906971D01*
X118052749Y-83019556D01*
X118063390Y-83027287D01*
X118163226Y-83078156D01*
X118245776Y-83120218D01*
X118245778Y-83120218D01*
X118245781Y-83120220D01*
X118342260Y-83151568D01*
X118440465Y-83183477D01*
X118541557Y-83199488D01*
X118642648Y-83215500D01*
X118642649Y-83215500D01*
X118847351Y-83215500D01*
X118847352Y-83215500D01*
X119049534Y-83183477D01*
X119244219Y-83120220D01*
X119426610Y-83027287D01*
X119519590Y-82959732D01*
X119592213Y-82906971D01*
X119592215Y-82906968D01*
X119592219Y-82906966D01*
X119736966Y-82762219D01*
X119792388Y-82685935D01*
X119847718Y-82643270D01*
X119917331Y-82637291D01*
X119979127Y-82669896D01*
X120012855Y-82728155D01*
X120017976Y-82748221D01*
X120017980Y-82748233D01*
X120048419Y-82821719D01*
X120048431Y-82821747D01*
X120071779Y-82870548D01*
X120071781Y-82870551D01*
X120158006Y-82985733D01*
X120158010Y-82985737D01*
X120158015Y-82985743D01*
X120214252Y-83041980D01*
X120214261Y-83041988D01*
X120214267Y-83041994D01*
X120254524Y-83078156D01*
X120254532Y-83078162D01*
X120378263Y-83151573D01*
X120378262Y-83151573D01*
X120378279Y-83151580D01*
X120451774Y-83182022D01*
X120502802Y-83200024D01*
X120645218Y-83220500D01*
X120645221Y-83220500D01*
X121924784Y-83220500D01*
X121960804Y-83218569D01*
X121978815Y-83217604D01*
X122118226Y-83182022D01*
X122191735Y-83151574D01*
X122240551Y-83128219D01*
X122355733Y-83041994D01*
X122411994Y-82985733D01*
X122448157Y-82945475D01*
X122521574Y-82821735D01*
X122552022Y-82748226D01*
X122562027Y-82719865D01*
X122602893Y-82663195D01*
X122667911Y-82637614D01*
X122736438Y-82651245D01*
X122779281Y-82688235D01*
X122833028Y-82762213D01*
X122977786Y-82906971D01*
X123132749Y-83019556D01*
X123143390Y-83027287D01*
X123243226Y-83078156D01*
X123325776Y-83120218D01*
X123325778Y-83120218D01*
X123325781Y-83120220D01*
X123422260Y-83151568D01*
X123520465Y-83183477D01*
X123621557Y-83199488D01*
X123722648Y-83215500D01*
X123722649Y-83215500D01*
X123927351Y-83215500D01*
X123927352Y-83215500D01*
X124129534Y-83183477D01*
X124324219Y-83120220D01*
X124506610Y-83027287D01*
X124599590Y-82959732D01*
X124672213Y-82906971D01*
X124672215Y-82906968D01*
X124672219Y-82906966D01*
X124816966Y-82762219D01*
X124816968Y-82762215D01*
X124816971Y-82762213D01*
X124937284Y-82596614D01*
X124937285Y-82596613D01*
X124937287Y-82596610D01*
X124984516Y-82503917D01*
X125032489Y-82453123D01*
X125100310Y-82436328D01*
X125166445Y-82458865D01*
X125205485Y-82503919D01*
X125252715Y-82596614D01*
X125373028Y-82762213D01*
X125517786Y-82906971D01*
X125672749Y-83019556D01*
X125683390Y-83027287D01*
X125783226Y-83078156D01*
X125865776Y-83120218D01*
X125865778Y-83120218D01*
X125865781Y-83120220D01*
X125962260Y-83151568D01*
X126060465Y-83183477D01*
X126161557Y-83199488D01*
X126262648Y-83215500D01*
X126262649Y-83215500D01*
X126467351Y-83215500D01*
X126467352Y-83215500D01*
X126669534Y-83183477D01*
X126864219Y-83120220D01*
X127046610Y-83027287D01*
X127139590Y-82959732D01*
X127212213Y-82906971D01*
X127212215Y-82906968D01*
X127212219Y-82906966D01*
X127356966Y-82762219D01*
X127356968Y-82762215D01*
X127356971Y-82762213D01*
X127477284Y-82596614D01*
X127477285Y-82596613D01*
X127477287Y-82596610D01*
X127524516Y-82503917D01*
X127572489Y-82453123D01*
X127640310Y-82436328D01*
X127706445Y-82458865D01*
X127745485Y-82503919D01*
X127792715Y-82596614D01*
X127913028Y-82762213D01*
X128057786Y-82906971D01*
X128212749Y-83019556D01*
X128223390Y-83027287D01*
X128323226Y-83078156D01*
X128405776Y-83120218D01*
X128405778Y-83120218D01*
X128405781Y-83120220D01*
X128502260Y-83151568D01*
X128600465Y-83183477D01*
X128701557Y-83199488D01*
X128802648Y-83215500D01*
X128802649Y-83215500D01*
X129007351Y-83215500D01*
X129007352Y-83215500D01*
X129209534Y-83183477D01*
X129404219Y-83120220D01*
X129586610Y-83027287D01*
X129679590Y-82959732D01*
X129752213Y-82906971D01*
X129752215Y-82906968D01*
X129752219Y-82906966D01*
X129896966Y-82762219D01*
X129896968Y-82762215D01*
X129896971Y-82762213D01*
X130017284Y-82596614D01*
X130017285Y-82596613D01*
X130017287Y-82596610D01*
X130064516Y-82503917D01*
X130112489Y-82453123D01*
X130180310Y-82436328D01*
X130246445Y-82458865D01*
X130285485Y-82503919D01*
X130332715Y-82596614D01*
X130453028Y-82762213D01*
X130597786Y-82906971D01*
X130752749Y-83019556D01*
X130763390Y-83027287D01*
X130863226Y-83078156D01*
X130945776Y-83120218D01*
X130945778Y-83120218D01*
X130945781Y-83120220D01*
X131042260Y-83151568D01*
X131140465Y-83183477D01*
X131241557Y-83199488D01*
X131342648Y-83215500D01*
X131342649Y-83215500D01*
X131547351Y-83215500D01*
X131547352Y-83215500D01*
X131749534Y-83183477D01*
X131944219Y-83120220D01*
X132126610Y-83027287D01*
X132219590Y-82959732D01*
X132292213Y-82906971D01*
X132292215Y-82906968D01*
X132292219Y-82906966D01*
X132436966Y-82762219D01*
X132492388Y-82685935D01*
X132547718Y-82643270D01*
X132617331Y-82637291D01*
X132679127Y-82669896D01*
X132712855Y-82728155D01*
X132717976Y-82748221D01*
X132717980Y-82748233D01*
X132748419Y-82821719D01*
X132748431Y-82821747D01*
X132771779Y-82870548D01*
X132771781Y-82870551D01*
X132858006Y-82985733D01*
X132858010Y-82985737D01*
X132858015Y-82985743D01*
X132914252Y-83041980D01*
X132914261Y-83041988D01*
X132914267Y-83041994D01*
X132954524Y-83078156D01*
X132954532Y-83078162D01*
X133078263Y-83151573D01*
X133078262Y-83151573D01*
X133078279Y-83151580D01*
X133151774Y-83182022D01*
X133202802Y-83200024D01*
X133345218Y-83220500D01*
X133345221Y-83220500D01*
X134624784Y-83220500D01*
X134660804Y-83218569D01*
X134678815Y-83217604D01*
X134818226Y-83182022D01*
X134891735Y-83151574D01*
X134940551Y-83128219D01*
X135055733Y-83041994D01*
X135111994Y-82985733D01*
X135148157Y-82945475D01*
X135221574Y-82821735D01*
X135252022Y-82748226D01*
X135262027Y-82719865D01*
X135302893Y-82663195D01*
X135367911Y-82637614D01*
X135436438Y-82651245D01*
X135479281Y-82688235D01*
X135533028Y-82762213D01*
X135677786Y-82906971D01*
X135832749Y-83019556D01*
X135843390Y-83027287D01*
X135943226Y-83078156D01*
X136025776Y-83120218D01*
X136025778Y-83120218D01*
X136025781Y-83120220D01*
X136122260Y-83151568D01*
X136220465Y-83183477D01*
X136321557Y-83199488D01*
X136422648Y-83215500D01*
X136422649Y-83215500D01*
X136627351Y-83215500D01*
X136627352Y-83215500D01*
X136829534Y-83183477D01*
X137024219Y-83120220D01*
X137206610Y-83027287D01*
X137299590Y-82959732D01*
X137372213Y-82906971D01*
X137372215Y-82906968D01*
X137372219Y-82906966D01*
X137516966Y-82762219D01*
X137516968Y-82762215D01*
X137516971Y-82762213D01*
X137637284Y-82596614D01*
X137637285Y-82596613D01*
X137637287Y-82596610D01*
X137684516Y-82503917D01*
X137732489Y-82453123D01*
X137800310Y-82436328D01*
X137866445Y-82458865D01*
X137905485Y-82503919D01*
X137952715Y-82596614D01*
X138073028Y-82762213D01*
X138217786Y-82906971D01*
X138372749Y-83019556D01*
X138383390Y-83027287D01*
X138483226Y-83078156D01*
X138565776Y-83120218D01*
X138565778Y-83120218D01*
X138565781Y-83120220D01*
X138662260Y-83151568D01*
X138760465Y-83183477D01*
X138861557Y-83199488D01*
X138962648Y-83215500D01*
X138962649Y-83215500D01*
X139167351Y-83215500D01*
X139167352Y-83215500D01*
X139369534Y-83183477D01*
X139564219Y-83120220D01*
X139746610Y-83027287D01*
X139839590Y-82959732D01*
X139912213Y-82906971D01*
X139912215Y-82906968D01*
X139912219Y-82906966D01*
X140056966Y-82762219D01*
X140056968Y-82762215D01*
X140056971Y-82762213D01*
X140124042Y-82669896D01*
X140177287Y-82596610D01*
X140270220Y-82414219D01*
X140333477Y-82219534D01*
X140365500Y-82017352D01*
X140365500Y-81812648D01*
X140333477Y-81610466D01*
X140270220Y-81415781D01*
X140270218Y-81415778D01*
X140270218Y-81415776D01*
X140221882Y-81320912D01*
X140177287Y-81233390D01*
X140169556Y-81222749D01*
X140056971Y-81067786D01*
X139912213Y-80923028D01*
X139746613Y-80802715D01*
X139746612Y-80802714D01*
X139746610Y-80802713D01*
X139689653Y-80773691D01*
X139564223Y-80709781D01*
X139369534Y-80646522D01*
X139194995Y-80618878D01*
X139167352Y-80614500D01*
X138962648Y-80614500D01*
X138938329Y-80618351D01*
X138760465Y-80646522D01*
X138565776Y-80709781D01*
X138383386Y-80802715D01*
X138217786Y-80923028D01*
X138073028Y-81067786D01*
X137952715Y-81233386D01*
X137905485Y-81326080D01*
X137857510Y-81376876D01*
X137789689Y-81393671D01*
X137723554Y-81371134D01*
X137684515Y-81326080D01*
X137680782Y-81318754D01*
X137637287Y-81233390D01*
X137629556Y-81222749D01*
X137516971Y-81067786D01*
X137372213Y-80923028D01*
X137206613Y-80802715D01*
X137206612Y-80802714D01*
X137206610Y-80802713D01*
X137149653Y-80773691D01*
X137024223Y-80709781D01*
X136829534Y-80646522D01*
X136654995Y-80618878D01*
X136627352Y-80614500D01*
X136422648Y-80614500D01*
X136398329Y-80618351D01*
X136220465Y-80646522D01*
X136025776Y-80709781D01*
X135843386Y-80802715D01*
X135677786Y-80923028D01*
X135533028Y-81067786D01*
X135412713Y-81233388D01*
X135369216Y-81318755D01*
X135321241Y-81369550D01*
X135253420Y-81386345D01*
X135187286Y-81363807D01*
X135149374Y-81320912D01*
X135114265Y-81255228D01*
X135114263Y-81255226D01*
X135114259Y-81255217D01*
X135099675Y-81233390D01*
X135026721Y-81124206D01*
X135026712Y-81124194D01*
X135026709Y-81124189D01*
X134963843Y-81047588D01*
X134852412Y-80936157D01*
X134775811Y-80873291D01*
X134775804Y-80873286D01*
X134775793Y-80873278D01*
X134644799Y-80785751D01*
X134644771Y-80785734D01*
X134557396Y-80739031D01*
X134557391Y-80739029D01*
X134411799Y-80678722D01*
X134386190Y-80670954D01*
X134316968Y-80649956D01*
X134162410Y-80619213D01*
X134162406Y-80619212D01*
X134162398Y-80619211D01*
X134082926Y-80611384D01*
X134063793Y-80609500D01*
X133906207Y-80609500D01*
X133887073Y-80611384D01*
X133807602Y-80619211D01*
X133807599Y-80619211D01*
X133670296Y-80646522D01*
X133653032Y-80649956D01*
X133609416Y-80663186D01*
X133558200Y-80678722D01*
X133412608Y-80739029D01*
X133412603Y-80739031D01*
X133325228Y-80785734D01*
X133325200Y-80785751D01*
X133194206Y-80873278D01*
X133194194Y-80873287D01*
X133194189Y-80873290D01*
X133194189Y-80873291D01*
X133117588Y-80936157D01*
X133117585Y-80936160D01*
X133117582Y-80936162D01*
X133006162Y-81047582D01*
X133006160Y-81047585D01*
X133006157Y-81047588D01*
X132989585Y-81067781D01*
X132943287Y-81124194D01*
X132943278Y-81124206D01*
X132855751Y-81255200D01*
X132855734Y-81255228D01*
X132820624Y-81320914D01*
X132771661Y-81370757D01*
X132703524Y-81386217D01*
X132637844Y-81362384D01*
X132600782Y-81318754D01*
X132568408Y-81255217D01*
X132557287Y-81233390D01*
X132557285Y-81233387D01*
X132557284Y-81233385D01*
X132436971Y-81067786D01*
X132292213Y-80923028D01*
X132126613Y-80802715D01*
X132126612Y-80802714D01*
X132126610Y-80802713D01*
X132069653Y-80773691D01*
X131944223Y-80709781D01*
X131749534Y-80646522D01*
X131574995Y-80618878D01*
X131547352Y-80614500D01*
X131342648Y-80614500D01*
X131318329Y-80618351D01*
X131140465Y-80646522D01*
X130945776Y-80709781D01*
X130763386Y-80802715D01*
X130597786Y-80923028D01*
X130453028Y-81067786D01*
X130332715Y-81233386D01*
X130285485Y-81326080D01*
X130237510Y-81376876D01*
X130169689Y-81393671D01*
X130103554Y-81371134D01*
X130064515Y-81326080D01*
X130060782Y-81318754D01*
X130017287Y-81233390D01*
X130009556Y-81222749D01*
X129896971Y-81067786D01*
X129752213Y-80923028D01*
X129586613Y-80802715D01*
X129586612Y-80802714D01*
X129586610Y-80802713D01*
X129529653Y-80773691D01*
X129404223Y-80709781D01*
X129209534Y-80646522D01*
X129034995Y-80618878D01*
X129007352Y-80614500D01*
X128802648Y-80614500D01*
X128778329Y-80618351D01*
X128600465Y-80646522D01*
X128405776Y-80709781D01*
X128223386Y-80802715D01*
X128057786Y-80923028D01*
X127913028Y-81067786D01*
X127792715Y-81233386D01*
X127745485Y-81326080D01*
X127697510Y-81376876D01*
X127629689Y-81393671D01*
X127563554Y-81371134D01*
X127524515Y-81326080D01*
X127520782Y-81318754D01*
X127477287Y-81233390D01*
X127469556Y-81222749D01*
X127356971Y-81067786D01*
X127212213Y-80923028D01*
X127046613Y-80802715D01*
X127046612Y-80802714D01*
X127046610Y-80802713D01*
X126989653Y-80773691D01*
X126864223Y-80709781D01*
X126669534Y-80646522D01*
X126494995Y-80618878D01*
X126467352Y-80614500D01*
X126262648Y-80614500D01*
X126238329Y-80618351D01*
X126060465Y-80646522D01*
X125865776Y-80709781D01*
X125683386Y-80802715D01*
X125517786Y-80923028D01*
X125373028Y-81067786D01*
X125252715Y-81233386D01*
X125205485Y-81326080D01*
X125157510Y-81376876D01*
X125089689Y-81393671D01*
X125023554Y-81371134D01*
X124984515Y-81326080D01*
X124980782Y-81318754D01*
X124937287Y-81233390D01*
X124929556Y-81222749D01*
X124816971Y-81067786D01*
X124672213Y-80923028D01*
X124506613Y-80802715D01*
X124506612Y-80802714D01*
X124506610Y-80802713D01*
X124449653Y-80773691D01*
X124324223Y-80709781D01*
X124129534Y-80646522D01*
X123954995Y-80618878D01*
X123927352Y-80614500D01*
X123722648Y-80614500D01*
X123698329Y-80618351D01*
X123520465Y-80646522D01*
X123325776Y-80709781D01*
X123143386Y-80802715D01*
X122977786Y-80923028D01*
X122833028Y-81067786D01*
X122712713Y-81233388D01*
X122669216Y-81318755D01*
X122621241Y-81369550D01*
X122553420Y-81386345D01*
X122487286Y-81363807D01*
X122449374Y-81320912D01*
X122414265Y-81255228D01*
X122414263Y-81255226D01*
X122414259Y-81255217D01*
X122399675Y-81233390D01*
X122326721Y-81124206D01*
X122326712Y-81124194D01*
X122326709Y-81124189D01*
X122263843Y-81047588D01*
X122152412Y-80936157D01*
X122075811Y-80873291D01*
X122075804Y-80873286D01*
X122075793Y-80873278D01*
X121944799Y-80785751D01*
X121944771Y-80785734D01*
X121857396Y-80739031D01*
X121857391Y-80739029D01*
X121711799Y-80678722D01*
X121686190Y-80670954D01*
X121616968Y-80649956D01*
X121462410Y-80619213D01*
X121462406Y-80619212D01*
X121462398Y-80619211D01*
X121382926Y-80611384D01*
X121363793Y-80609500D01*
X121206207Y-80609500D01*
X121187073Y-80611384D01*
X121107602Y-80619211D01*
X121107599Y-80619211D01*
X120970296Y-80646522D01*
X120953032Y-80649956D01*
X120909416Y-80663186D01*
X120858200Y-80678722D01*
X120712608Y-80739029D01*
X120712603Y-80739031D01*
X120625228Y-80785734D01*
X120625200Y-80785751D01*
X120494206Y-80873278D01*
X120494194Y-80873287D01*
X120494189Y-80873290D01*
X120494189Y-80873291D01*
X120417588Y-80936157D01*
X120417585Y-80936160D01*
X120417582Y-80936162D01*
X120306162Y-81047582D01*
X120306160Y-81047585D01*
X120306157Y-81047588D01*
X120289585Y-81067781D01*
X120243287Y-81124194D01*
X120243278Y-81124206D01*
X120155751Y-81255200D01*
X120155734Y-81255228D01*
X120120624Y-81320914D01*
X120071661Y-81370757D01*
X120003524Y-81386217D01*
X119937844Y-81362384D01*
X119900782Y-81318754D01*
X119868408Y-81255217D01*
X119857287Y-81233390D01*
X119857285Y-81233387D01*
X119857284Y-81233385D01*
X119736971Y-81067786D01*
X119592213Y-80923028D01*
X119426613Y-80802715D01*
X119426612Y-80802714D01*
X119426610Y-80802713D01*
X119369653Y-80773691D01*
X119244223Y-80709781D01*
X119049534Y-80646522D01*
X118874995Y-80618878D01*
X118847352Y-80614500D01*
X118642648Y-80614500D01*
X118618329Y-80618351D01*
X118440465Y-80646522D01*
X118245776Y-80709781D01*
X118063386Y-80802715D01*
X117897786Y-80923028D01*
X117753028Y-81067786D01*
X117632715Y-81233386D01*
X117585485Y-81326080D01*
X117537510Y-81376876D01*
X117469689Y-81393671D01*
X117403554Y-81371134D01*
X117364515Y-81326080D01*
X117360782Y-81318754D01*
X117317287Y-81233390D01*
X117309556Y-81222749D01*
X117196971Y-81067786D01*
X117052213Y-80923028D01*
X116886613Y-80802715D01*
X116886612Y-80802714D01*
X116886610Y-80802713D01*
X116829653Y-80773691D01*
X116704223Y-80709781D01*
X116509534Y-80646522D01*
X116334995Y-80618878D01*
X116307352Y-80614500D01*
X116102648Y-80614500D01*
X116078329Y-80618351D01*
X115900465Y-80646522D01*
X115705776Y-80709781D01*
X115523386Y-80802715D01*
X115357786Y-80923028D01*
X115213028Y-81067786D01*
X115092715Y-81233386D01*
X115045485Y-81326080D01*
X114997510Y-81376876D01*
X114929689Y-81393671D01*
X114863554Y-81371134D01*
X114824515Y-81326080D01*
X114820782Y-81318754D01*
X114777287Y-81233390D01*
X114769556Y-81222749D01*
X114656971Y-81067786D01*
X114512213Y-80923028D01*
X114346613Y-80802715D01*
X114346612Y-80802714D01*
X114346610Y-80802713D01*
X114289653Y-80773691D01*
X114164223Y-80709781D01*
X113969534Y-80646522D01*
X113794995Y-80618878D01*
X113767352Y-80614500D01*
X113562648Y-80614500D01*
X113538329Y-80618351D01*
X113360465Y-80646522D01*
X113165776Y-80709781D01*
X112983386Y-80802715D01*
X112817786Y-80923028D01*
X112673028Y-81067786D01*
X112552715Y-81233386D01*
X112505485Y-81326080D01*
X112457510Y-81376876D01*
X112389689Y-81393671D01*
X112323554Y-81371134D01*
X112284515Y-81326080D01*
X112280782Y-81318754D01*
X112237287Y-81233390D01*
X112229556Y-81222749D01*
X112116971Y-81067786D01*
X111972213Y-80923028D01*
X111806613Y-80802715D01*
X111806612Y-80802714D01*
X111806610Y-80802713D01*
X111749653Y-80773691D01*
X111624223Y-80709781D01*
X111429534Y-80646522D01*
X111254995Y-80618878D01*
X111227352Y-80614500D01*
X111022648Y-80614500D01*
X110998329Y-80618351D01*
X110820465Y-80646522D01*
X110625776Y-80709781D01*
X110443386Y-80802715D01*
X110277786Y-80923028D01*
X110133028Y-81067786D01*
X110012713Y-81233388D01*
X109969216Y-81318755D01*
X109921241Y-81369550D01*
X109853420Y-81386345D01*
X109787286Y-81363807D01*
X109749374Y-81320912D01*
X109714265Y-81255228D01*
X109714263Y-81255226D01*
X109714259Y-81255217D01*
X109699675Y-81233390D01*
X109626721Y-81124206D01*
X109626712Y-81124194D01*
X109626709Y-81124189D01*
X109563843Y-81047588D01*
X109452412Y-80936157D01*
X109375811Y-80873291D01*
X109375804Y-80873286D01*
X109375793Y-80873278D01*
X109244799Y-80785751D01*
X109244771Y-80785734D01*
X109157396Y-80739031D01*
X109157391Y-80739029D01*
X109011799Y-80678722D01*
X108986190Y-80670954D01*
X108916968Y-80649956D01*
X108762410Y-80619213D01*
X108762406Y-80619212D01*
X108762398Y-80619211D01*
X108682926Y-80611384D01*
X108663793Y-80609500D01*
X108506207Y-80609500D01*
X108487073Y-80611384D01*
X108407602Y-80619211D01*
X108407599Y-80619211D01*
X108270296Y-80646522D01*
X108253032Y-80649956D01*
X108209416Y-80663186D01*
X108158200Y-80678722D01*
X108012608Y-80739029D01*
X108012603Y-80739031D01*
X107925228Y-80785734D01*
X107925200Y-80785751D01*
X107794206Y-80873278D01*
X107794194Y-80873287D01*
X107794189Y-80873290D01*
X107794189Y-80873291D01*
X107717588Y-80936157D01*
X107717585Y-80936160D01*
X107717582Y-80936162D01*
X107606162Y-81047582D01*
X107606160Y-81047585D01*
X107606157Y-81047588D01*
X107589585Y-81067781D01*
X107543287Y-81124194D01*
X107543278Y-81124206D01*
X107455751Y-81255200D01*
X107455734Y-81255228D01*
X107420624Y-81320914D01*
X107371661Y-81370757D01*
X107303524Y-81386217D01*
X107237844Y-81362384D01*
X107200782Y-81318754D01*
X107168408Y-81255217D01*
X107157287Y-81233390D01*
X107157285Y-81233387D01*
X107157284Y-81233385D01*
X107036971Y-81067786D01*
X106892213Y-80923028D01*
X106726613Y-80802715D01*
X106726612Y-80802714D01*
X106726610Y-80802713D01*
X106669653Y-80773691D01*
X106544223Y-80709781D01*
X106349534Y-80646522D01*
X106174995Y-80618878D01*
X106147352Y-80614500D01*
X105942648Y-80614500D01*
X105918329Y-80618351D01*
X105740465Y-80646522D01*
X105545776Y-80709781D01*
X105363386Y-80802715D01*
X105197786Y-80923028D01*
X105053028Y-81067786D01*
X104932715Y-81233386D01*
X104885485Y-81326080D01*
X104837510Y-81376876D01*
X104769689Y-81393671D01*
X104703554Y-81371134D01*
X104664515Y-81326080D01*
X104660782Y-81318754D01*
X104617287Y-81233390D01*
X104609556Y-81222749D01*
X104496971Y-81067786D01*
X104352213Y-80923028D01*
X104186613Y-80802715D01*
X104186612Y-80802714D01*
X104186610Y-80802713D01*
X104129653Y-80773691D01*
X104004223Y-80709781D01*
X103809534Y-80646522D01*
X103634995Y-80618878D01*
X103607352Y-80614500D01*
X103402648Y-80614500D01*
X103378329Y-80618351D01*
X103200465Y-80646522D01*
X103005776Y-80709781D01*
X102823386Y-80802715D01*
X102657786Y-80923028D01*
X102513028Y-81067786D01*
X102392715Y-81233386D01*
X102345485Y-81326080D01*
X102297510Y-81376876D01*
X102229689Y-81393671D01*
X102163554Y-81371134D01*
X102124515Y-81326080D01*
X102120782Y-81318754D01*
X102077287Y-81233390D01*
X102069556Y-81222749D01*
X101956971Y-81067786D01*
X101812213Y-80923028D01*
X101646613Y-80802715D01*
X101646612Y-80802714D01*
X101646610Y-80802713D01*
X101589653Y-80773691D01*
X101464223Y-80709781D01*
X101269534Y-80646522D01*
X101094995Y-80618878D01*
X101067352Y-80614500D01*
X100862648Y-80614500D01*
X100838329Y-80618351D01*
X100660465Y-80646522D01*
X100465776Y-80709781D01*
X100283386Y-80802715D01*
X100117786Y-80923028D01*
X99973028Y-81067786D01*
X99852715Y-81233386D01*
X99805485Y-81326080D01*
X99757510Y-81376876D01*
X99689689Y-81393671D01*
X99623554Y-81371134D01*
X99584515Y-81326080D01*
X99580782Y-81318754D01*
X99537287Y-81233390D01*
X99529556Y-81222749D01*
X99416971Y-81067786D01*
X99272213Y-80923028D01*
X99106613Y-80802715D01*
X99106612Y-80802714D01*
X99106610Y-80802713D01*
X99049653Y-80773691D01*
X98924223Y-80709781D01*
X98729534Y-80646522D01*
X98554995Y-80618878D01*
X98527352Y-80614500D01*
X98322648Y-80614500D01*
X98298329Y-80618351D01*
X98120465Y-80646522D01*
X97925776Y-80709781D01*
X97743386Y-80802715D01*
X97577786Y-80923028D01*
X97433028Y-81067786D01*
X97312713Y-81233388D01*
X97269216Y-81318755D01*
X97221241Y-81369550D01*
X97153420Y-81386345D01*
X97087286Y-81363807D01*
X97049374Y-81320912D01*
X97014265Y-81255228D01*
X97014263Y-81255226D01*
X97014259Y-81255217D01*
X96999675Y-81233390D01*
X96926721Y-81124206D01*
X96926712Y-81124194D01*
X96926709Y-81124189D01*
X96863843Y-81047588D01*
X96752412Y-80936157D01*
X96675811Y-80873291D01*
X96675804Y-80873286D01*
X96675793Y-80873278D01*
X96544799Y-80785751D01*
X96544771Y-80785734D01*
X96457396Y-80739031D01*
X96457391Y-80739029D01*
X96311799Y-80678722D01*
X96286190Y-80670954D01*
X96216968Y-80649956D01*
X96062410Y-80619213D01*
X96062406Y-80619212D01*
X96062398Y-80619211D01*
X95982926Y-80611384D01*
X95963793Y-80609500D01*
X95806207Y-80609500D01*
X95787073Y-80611384D01*
X95707602Y-80619211D01*
X95707599Y-80619211D01*
X95570296Y-80646522D01*
X95553032Y-80649956D01*
X95509416Y-80663186D01*
X95458200Y-80678722D01*
X95312608Y-80739029D01*
X95312603Y-80739031D01*
X95225228Y-80785734D01*
X95225200Y-80785751D01*
X95094206Y-80873278D01*
X95094194Y-80873287D01*
X95094189Y-80873290D01*
X95094189Y-80873291D01*
X95017588Y-80936157D01*
X95017585Y-80936160D01*
X95017582Y-80936162D01*
X94906162Y-81047582D01*
X94906160Y-81047585D01*
X94906157Y-81047588D01*
X94889585Y-81067781D01*
X94843287Y-81124194D01*
X94843278Y-81124206D01*
X94755751Y-81255200D01*
X94755734Y-81255228D01*
X94720624Y-81320914D01*
X94671661Y-81370757D01*
X94603524Y-81386217D01*
X94537844Y-81362384D01*
X94500782Y-81318754D01*
X94468408Y-81255217D01*
X94457287Y-81233390D01*
X94457285Y-81233387D01*
X94457284Y-81233385D01*
X94336971Y-81067786D01*
X94192213Y-80923028D01*
X94026613Y-80802715D01*
X94026612Y-80802714D01*
X94026610Y-80802713D01*
X93969653Y-80773691D01*
X93844223Y-80709781D01*
X93649534Y-80646522D01*
X93474995Y-80618878D01*
X93447352Y-80614500D01*
X93242648Y-80614500D01*
X93218329Y-80618351D01*
X93040465Y-80646522D01*
X92845776Y-80709781D01*
X92663386Y-80802715D01*
X92497786Y-80923028D01*
X92353028Y-81067786D01*
X92232715Y-81233386D01*
X92185485Y-81326080D01*
X92137510Y-81376876D01*
X92069689Y-81393671D01*
X92003554Y-81371134D01*
X91964515Y-81326080D01*
X91960782Y-81318754D01*
X91917287Y-81233390D01*
X91909556Y-81222749D01*
X91796971Y-81067786D01*
X91652213Y-80923028D01*
X91486613Y-80802715D01*
X91486612Y-80802714D01*
X91486610Y-80802713D01*
X91429653Y-80773691D01*
X91304223Y-80709781D01*
X91109534Y-80646522D01*
X90934995Y-80618878D01*
X90907352Y-80614500D01*
X90702648Y-80614500D01*
X90678329Y-80618351D01*
X90500465Y-80646522D01*
X90305776Y-80709781D01*
X90123386Y-80802715D01*
X89957786Y-80923028D01*
X89813028Y-81067786D01*
X89692715Y-81233386D01*
X89599781Y-81415776D01*
X89536522Y-81610465D01*
X89504500Y-81812648D01*
X83050500Y-81812648D01*
X83050500Y-74818713D01*
X85009500Y-74818713D01*
X85009500Y-75031287D01*
X85012554Y-75050566D01*
X85032982Y-75179549D01*
X85042754Y-75241243D01*
X85069955Y-75324960D01*
X85108444Y-75443414D01*
X85204951Y-75632820D01*
X85329890Y-75804786D01*
X85480213Y-75955109D01*
X85652179Y-76080048D01*
X85652181Y-76080049D01*
X85652184Y-76080051D01*
X85841588Y-76176557D01*
X86043757Y-76242246D01*
X86253713Y-76275500D01*
X86253714Y-76275500D01*
X86466286Y-76275500D01*
X86466287Y-76275500D01*
X86676243Y-76242246D01*
X86878412Y-76176557D01*
X87067816Y-76080051D01*
X87236573Y-75957443D01*
X87239786Y-75955109D01*
X87239788Y-75955106D01*
X87239792Y-75955104D01*
X87390104Y-75804792D01*
X87390106Y-75804788D01*
X87390109Y-75804786D01*
X87515048Y-75632820D01*
X87515047Y-75632820D01*
X87515051Y-75632816D01*
X87611557Y-75443412D01*
X87677246Y-75241243D01*
X87710500Y-75031287D01*
X87710500Y-74818713D01*
X87709421Y-74811902D01*
X94054300Y-74811902D01*
X94054300Y-75048097D01*
X94091246Y-75281368D01*
X94164233Y-75505996D01*
X94267770Y-75709196D01*
X94271457Y-75716433D01*
X94410283Y-75907510D01*
X94577290Y-76074517D01*
X94768367Y-76213343D01*
X94867791Y-76264002D01*
X94978803Y-76320566D01*
X94978805Y-76320566D01*
X94978808Y-76320568D01*
X95066362Y-76349016D01*
X95203431Y-76393553D01*
X95436703Y-76430500D01*
X95436708Y-76430500D01*
X95672897Y-76430500D01*
X95906168Y-76393553D01*
X96130792Y-76320568D01*
X96341233Y-76213343D01*
X96532310Y-76074517D01*
X96699317Y-75907510D01*
X96838143Y-75716433D01*
X96945368Y-75505992D01*
X97018353Y-75281368D01*
X97024709Y-75241239D01*
X97055300Y-75048097D01*
X97055300Y-75015102D01*
X99591500Y-75015102D01*
X99591500Y-75251297D01*
X99628446Y-75484568D01*
X99701433Y-75709196D01*
X99802481Y-75907512D01*
X99808657Y-75919633D01*
X99947483Y-76110710D01*
X100114490Y-76277717D01*
X100305567Y-76416543D01*
X100404991Y-76467202D01*
X100516003Y-76523766D01*
X100516005Y-76523766D01*
X100516008Y-76523768D01*
X100620652Y-76557769D01*
X100740631Y-76596753D01*
X100973903Y-76633700D01*
X100973908Y-76633700D01*
X101210097Y-76633700D01*
X101443368Y-76596753D01*
X101667992Y-76523768D01*
X101878433Y-76416543D01*
X102069510Y-76277717D01*
X102236517Y-76110710D01*
X102375343Y-75919633D01*
X102482568Y-75709192D01*
X102555553Y-75484568D01*
X102562071Y-75443414D01*
X102592500Y-75251297D01*
X102592500Y-75048135D01*
X105710500Y-75048135D01*
X105710500Y-76843870D01*
X105710501Y-76843876D01*
X105716908Y-76903483D01*
X105767202Y-77038328D01*
X105767206Y-77038335D01*
X105853452Y-77153544D01*
X105853455Y-77153547D01*
X105968664Y-77239793D01*
X105968671Y-77239797D01*
X106103517Y-77290091D01*
X106103516Y-77290091D01*
X106110444Y-77290835D01*
X106163127Y-77296500D01*
X107958872Y-77296499D01*
X108018483Y-77290091D01*
X108153331Y-77239796D01*
X108268546Y-77153546D01*
X108354796Y-77038331D01*
X108405091Y-76903483D01*
X108411500Y-76843873D01*
X108411499Y-75048128D01*
X108405091Y-74988517D01*
X108388242Y-74943343D01*
X108354797Y-74853671D01*
X108354796Y-74853669D01*
X108325337Y-74814317D01*
X108325336Y-74814316D01*
X108272200Y-74743335D01*
X110612700Y-74743335D01*
X110612700Y-76539070D01*
X110612701Y-76539076D01*
X110619108Y-76598683D01*
X110669402Y-76733528D01*
X110669406Y-76733535D01*
X110755652Y-76848744D01*
X110755655Y-76848747D01*
X110870864Y-76934993D01*
X110870871Y-76934997D01*
X111005717Y-76985291D01*
X111005716Y-76985291D01*
X111012644Y-76986035D01*
X111065327Y-76991700D01*
X112861072Y-76991699D01*
X112920683Y-76985291D01*
X113055531Y-76934996D01*
X113170746Y-76848746D01*
X113256996Y-76733531D01*
X113306010Y-76602116D01*
X113347881Y-76546184D01*
X113413345Y-76521766D01*
X113481618Y-76536617D01*
X113509873Y-76557769D01*
X113623413Y-76671309D01*
X113795379Y-76796248D01*
X113795381Y-76796249D01*
X113795384Y-76796251D01*
X113984788Y-76892757D01*
X114186957Y-76958446D01*
X114396913Y-76991700D01*
X114396914Y-76991700D01*
X114609486Y-76991700D01*
X114609487Y-76991700D01*
X114819443Y-76958446D01*
X115021612Y-76892757D01*
X115211016Y-76796251D01*
X115297338Y-76733535D01*
X115382986Y-76671309D01*
X115382988Y-76671306D01*
X115382992Y-76671304D01*
X115533304Y-76520992D01*
X115533306Y-76520988D01*
X115533309Y-76520986D01*
X115658248Y-76349020D01*
X115658247Y-76349020D01*
X115658251Y-76349016D01*
X115662714Y-76340254D01*
X115710688Y-76289459D01*
X115778508Y-76272663D01*
X115844644Y-76295199D01*
X115883686Y-76340256D01*
X115888151Y-76349020D01*
X116013090Y-76520986D01*
X116163413Y-76671309D01*
X116335379Y-76796248D01*
X116335381Y-76796249D01*
X116335384Y-76796251D01*
X116524788Y-76892757D01*
X116726957Y-76958446D01*
X116936913Y-76991700D01*
X116936914Y-76991700D01*
X117149486Y-76991700D01*
X117149487Y-76991700D01*
X117359443Y-76958446D01*
X117561612Y-76892757D01*
X117751016Y-76796251D01*
X117837338Y-76733535D01*
X117922986Y-76671309D01*
X117922988Y-76671306D01*
X117922992Y-76671304D01*
X118073304Y-76520992D01*
X118073306Y-76520988D01*
X118073309Y-76520986D01*
X118198248Y-76349020D01*
X118198247Y-76349020D01*
X118198251Y-76349016D01*
X118202714Y-76340254D01*
X118250688Y-76289459D01*
X118318508Y-76272663D01*
X118384644Y-76295199D01*
X118423686Y-76340256D01*
X118428151Y-76349020D01*
X118553090Y-76520986D01*
X118703413Y-76671309D01*
X118875379Y-76796248D01*
X118875381Y-76796249D01*
X118875384Y-76796251D01*
X119064788Y-76892757D01*
X119266957Y-76958446D01*
X119476913Y-76991700D01*
X119476914Y-76991700D01*
X119689486Y-76991700D01*
X119689487Y-76991700D01*
X119899443Y-76958446D01*
X120101612Y-76892757D01*
X120291016Y-76796251D01*
X120377338Y-76733535D01*
X120462986Y-76671309D01*
X120462988Y-76671306D01*
X120462992Y-76671304D01*
X120613304Y-76520992D01*
X120613306Y-76520988D01*
X120613309Y-76520986D01*
X120738248Y-76349020D01*
X120738247Y-76349020D01*
X120738251Y-76349016D01*
X120742714Y-76340254D01*
X120790688Y-76289459D01*
X120858508Y-76272663D01*
X120924644Y-76295199D01*
X120963686Y-76340256D01*
X120968151Y-76349020D01*
X121093090Y-76520986D01*
X121243413Y-76671309D01*
X121415379Y-76796248D01*
X121415381Y-76796249D01*
X121415384Y-76796251D01*
X121604788Y-76892757D01*
X121806957Y-76958446D01*
X122016913Y-76991700D01*
X122016914Y-76991700D01*
X122229486Y-76991700D01*
X122229487Y-76991700D01*
X122439443Y-76958446D01*
X122641612Y-76892757D01*
X122831016Y-76796251D01*
X122917338Y-76733535D01*
X123002986Y-76671309D01*
X123002988Y-76671306D01*
X123002992Y-76671304D01*
X123153304Y-76520992D01*
X123153306Y-76520988D01*
X123153309Y-76520986D01*
X123278248Y-76349020D01*
X123278247Y-76349020D01*
X123278251Y-76349016D01*
X123282714Y-76340254D01*
X123330688Y-76289459D01*
X123398508Y-76272663D01*
X123464644Y-76295199D01*
X123503686Y-76340256D01*
X123508151Y-76349020D01*
X123633090Y-76520986D01*
X123783413Y-76671309D01*
X123955379Y-76796248D01*
X123955381Y-76796249D01*
X123955384Y-76796251D01*
X124144788Y-76892757D01*
X124346957Y-76958446D01*
X124556913Y-76991700D01*
X124556914Y-76991700D01*
X124769486Y-76991700D01*
X124769487Y-76991700D01*
X124979443Y-76958446D01*
X125181612Y-76892757D01*
X125371016Y-76796251D01*
X125457338Y-76733535D01*
X125542986Y-76671309D01*
X125542988Y-76671306D01*
X125542992Y-76671304D01*
X125693304Y-76520992D01*
X125693306Y-76520988D01*
X125693309Y-76520986D01*
X125818248Y-76349020D01*
X125818247Y-76349020D01*
X125818251Y-76349016D01*
X125822714Y-76340254D01*
X125870688Y-76289459D01*
X125938508Y-76272663D01*
X126004644Y-76295199D01*
X126043686Y-76340256D01*
X126048151Y-76349020D01*
X126173090Y-76520986D01*
X126323413Y-76671309D01*
X126495379Y-76796248D01*
X126495381Y-76796249D01*
X126495384Y-76796251D01*
X126684788Y-76892757D01*
X126886957Y-76958446D01*
X127096913Y-76991700D01*
X127096914Y-76991700D01*
X127309486Y-76991700D01*
X127309487Y-76991700D01*
X127519443Y-76958446D01*
X127721612Y-76892757D01*
X127911016Y-76796251D01*
X127997338Y-76733535D01*
X128082986Y-76671309D01*
X128082988Y-76671306D01*
X128082992Y-76671304D01*
X128233304Y-76520992D01*
X128233306Y-76520988D01*
X128233309Y-76520986D01*
X128358248Y-76349020D01*
X128358247Y-76349020D01*
X128358251Y-76349016D01*
X128362714Y-76340254D01*
X128410688Y-76289459D01*
X128478508Y-76272663D01*
X128544644Y-76295199D01*
X128583686Y-76340256D01*
X128588151Y-76349020D01*
X128713090Y-76520986D01*
X128863413Y-76671309D01*
X129035379Y-76796248D01*
X129035381Y-76796249D01*
X129035384Y-76796251D01*
X129224788Y-76892757D01*
X129426957Y-76958446D01*
X129636913Y-76991700D01*
X129636914Y-76991700D01*
X129849486Y-76991700D01*
X129849487Y-76991700D01*
X130059443Y-76958446D01*
X130261612Y-76892757D01*
X130451016Y-76796251D01*
X130537338Y-76733535D01*
X130622986Y-76671309D01*
X130622988Y-76671306D01*
X130622992Y-76671304D01*
X130773304Y-76520992D01*
X130773306Y-76520988D01*
X130773309Y-76520986D01*
X130898248Y-76349020D01*
X130898247Y-76349020D01*
X130898251Y-76349016D01*
X130994757Y-76159612D01*
X131060446Y-75957443D01*
X131093700Y-75747487D01*
X131093700Y-75534913D01*
X131060446Y-75324957D01*
X130994757Y-75122788D01*
X130898251Y-74933384D01*
X130898249Y-74933381D01*
X130898248Y-74933379D01*
X130773309Y-74761413D01*
X130622986Y-74611090D01*
X130451020Y-74486151D01*
X130261614Y-74389644D01*
X130261613Y-74389643D01*
X130261612Y-74389643D01*
X130059443Y-74323954D01*
X130059441Y-74323953D01*
X130059440Y-74323953D01*
X129898157Y-74298408D01*
X129849487Y-74290700D01*
X129636913Y-74290700D01*
X129588242Y-74298408D01*
X129426960Y-74323953D01*
X129224785Y-74389644D01*
X129035379Y-74486151D01*
X128863413Y-74611090D01*
X128713090Y-74761413D01*
X128588149Y-74933382D01*
X128583684Y-74942146D01*
X128535709Y-74992942D01*
X128467888Y-75009736D01*
X128401753Y-74987198D01*
X128362716Y-74942146D01*
X128358250Y-74933382D01*
X128233309Y-74761413D01*
X128082986Y-74611090D01*
X127911020Y-74486151D01*
X127721614Y-74389644D01*
X127721613Y-74389643D01*
X127721612Y-74389643D01*
X127519443Y-74323954D01*
X127519441Y-74323953D01*
X127519440Y-74323953D01*
X127358157Y-74298408D01*
X127309487Y-74290700D01*
X127096913Y-74290700D01*
X127048242Y-74298408D01*
X126886960Y-74323953D01*
X126684785Y-74389644D01*
X126495379Y-74486151D01*
X126323413Y-74611090D01*
X126173090Y-74761413D01*
X126048149Y-74933382D01*
X126043684Y-74942146D01*
X125995709Y-74992942D01*
X125927888Y-75009736D01*
X125861753Y-74987198D01*
X125822716Y-74942146D01*
X125818250Y-74933382D01*
X125693309Y-74761413D01*
X125542986Y-74611090D01*
X125371020Y-74486151D01*
X125181614Y-74389644D01*
X125181613Y-74389643D01*
X125181612Y-74389643D01*
X124979443Y-74323954D01*
X124979441Y-74323953D01*
X124979440Y-74323953D01*
X124818157Y-74298408D01*
X124769487Y-74290700D01*
X124556913Y-74290700D01*
X124508242Y-74298408D01*
X124346960Y-74323953D01*
X124144785Y-74389644D01*
X123955379Y-74486151D01*
X123783413Y-74611090D01*
X123633090Y-74761413D01*
X123508149Y-74933382D01*
X123503684Y-74942146D01*
X123455709Y-74992942D01*
X123387888Y-75009736D01*
X123321753Y-74987198D01*
X123282716Y-74942146D01*
X123278250Y-74933382D01*
X123153309Y-74761413D01*
X123002986Y-74611090D01*
X122831020Y-74486151D01*
X122641614Y-74389644D01*
X122641613Y-74389643D01*
X122641612Y-74389643D01*
X122439443Y-74323954D01*
X122439441Y-74323953D01*
X122439440Y-74323953D01*
X122278157Y-74298408D01*
X122229487Y-74290700D01*
X122016913Y-74290700D01*
X121968242Y-74298408D01*
X121806960Y-74323953D01*
X121604785Y-74389644D01*
X121415379Y-74486151D01*
X121243413Y-74611090D01*
X121093090Y-74761413D01*
X120968149Y-74933382D01*
X120963684Y-74942146D01*
X120915709Y-74992942D01*
X120847888Y-75009736D01*
X120781753Y-74987198D01*
X120742716Y-74942146D01*
X120738250Y-74933382D01*
X120613309Y-74761413D01*
X120462986Y-74611090D01*
X120291020Y-74486151D01*
X120101614Y-74389644D01*
X120101613Y-74389643D01*
X120101612Y-74389643D01*
X119899443Y-74323954D01*
X119899441Y-74323953D01*
X119899440Y-74323953D01*
X119738157Y-74298408D01*
X119689487Y-74290700D01*
X119476913Y-74290700D01*
X119428242Y-74298408D01*
X119266960Y-74323953D01*
X119064785Y-74389644D01*
X118875379Y-74486151D01*
X118703413Y-74611090D01*
X118553090Y-74761413D01*
X118428149Y-74933382D01*
X118423684Y-74942146D01*
X118375709Y-74992942D01*
X118307888Y-75009736D01*
X118241753Y-74987198D01*
X118202716Y-74942146D01*
X118198250Y-74933382D01*
X118073309Y-74761413D01*
X117922986Y-74611090D01*
X117751020Y-74486151D01*
X117561614Y-74389644D01*
X117561613Y-74389643D01*
X117561612Y-74389643D01*
X117359443Y-74323954D01*
X117359441Y-74323953D01*
X117359440Y-74323953D01*
X117198157Y-74298408D01*
X117149487Y-74290700D01*
X116936913Y-74290700D01*
X116888242Y-74298408D01*
X116726960Y-74323953D01*
X116524785Y-74389644D01*
X116335379Y-74486151D01*
X116163413Y-74611090D01*
X116013090Y-74761413D01*
X115888149Y-74933382D01*
X115883684Y-74942146D01*
X115835709Y-74992942D01*
X115767888Y-75009736D01*
X115701753Y-74987198D01*
X115662716Y-74942146D01*
X115658250Y-74933382D01*
X115533309Y-74761413D01*
X115382986Y-74611090D01*
X115211020Y-74486151D01*
X115021614Y-74389644D01*
X115021613Y-74389643D01*
X115021612Y-74389643D01*
X114819443Y-74323954D01*
X114819441Y-74323953D01*
X114819440Y-74323953D01*
X114658157Y-74298408D01*
X114609487Y-74290700D01*
X114396913Y-74290700D01*
X114348242Y-74298408D01*
X114186960Y-74323953D01*
X113984785Y-74389644D01*
X113795379Y-74486151D01*
X113623415Y-74611089D01*
X113509873Y-74724631D01*
X113448550Y-74758115D01*
X113378858Y-74753131D01*
X113322925Y-74711259D01*
X113306010Y-74680282D01*
X113256997Y-74548871D01*
X113256993Y-74548864D01*
X113170747Y-74433655D01*
X113170744Y-74433652D01*
X113055535Y-74347406D01*
X113055528Y-74347402D01*
X112920682Y-74297108D01*
X112920683Y-74297108D01*
X112861083Y-74290701D01*
X112861081Y-74290700D01*
X112861073Y-74290700D01*
X112861064Y-74290700D01*
X111065329Y-74290700D01*
X111065323Y-74290701D01*
X111005716Y-74297108D01*
X110870871Y-74347402D01*
X110870864Y-74347406D01*
X110755655Y-74433652D01*
X110755652Y-74433655D01*
X110669406Y-74548864D01*
X110669402Y-74548871D01*
X110619108Y-74683717D01*
X110612701Y-74743316D01*
X110612700Y-74743335D01*
X108272200Y-74743335D01*
X108268546Y-74738454D01*
X108268544Y-74738453D01*
X108268544Y-74738452D01*
X108153335Y-74652206D01*
X108153328Y-74652202D01*
X108018482Y-74601908D01*
X108018483Y-74601908D01*
X107958883Y-74595501D01*
X107958881Y-74595500D01*
X107958873Y-74595500D01*
X107958865Y-74595500D01*
X107948309Y-74595500D01*
X107881270Y-74575815D01*
X107860628Y-74559181D01*
X107190408Y-73888962D01*
X107253993Y-73871925D01*
X107368007Y-73806099D01*
X107461099Y-73713007D01*
X107526925Y-73598993D01*
X107543962Y-73535408D01*
X108176270Y-74167717D01*
X108176270Y-74167716D01*
X108215622Y-74113554D01*
X108312095Y-73924217D01*
X108377757Y-73722130D01*
X108377757Y-73722127D01*
X108406303Y-73541902D01*
X138199500Y-73541902D01*
X138199500Y-73778097D01*
X138236446Y-74011368D01*
X138309433Y-74235996D01*
X138396353Y-74406585D01*
X138416657Y-74446433D01*
X138555483Y-74637510D01*
X138722490Y-74804517D01*
X138913567Y-74943343D01*
X138999637Y-74987198D01*
X139124003Y-75050566D01*
X139124005Y-75050566D01*
X139124008Y-75050568D01*
X139244412Y-75089689D01*
X139348631Y-75123553D01*
X139581903Y-75160500D01*
X139581908Y-75160500D01*
X139818097Y-75160500D01*
X140051368Y-75123553D01*
X140053732Y-75122785D01*
X140275992Y-75050568D01*
X140486433Y-74943343D01*
X140677510Y-74804517D01*
X140844517Y-74637510D01*
X140983343Y-74446433D01*
X141090568Y-74235992D01*
X141163553Y-74011368D01*
X141176237Y-73931285D01*
X141200500Y-73778097D01*
X141200500Y-73541902D01*
X141163553Y-73308631D01*
X141108367Y-73138789D01*
X141090568Y-73084008D01*
X141090566Y-73084005D01*
X141090566Y-73084003D01*
X141034002Y-72972991D01*
X140983343Y-72873567D01*
X140844517Y-72682490D01*
X140677510Y-72515483D01*
X140486433Y-72376657D01*
X140423096Y-72344385D01*
X140275996Y-72269433D01*
X140051368Y-72196446D01*
X139818097Y-72159500D01*
X139818092Y-72159500D01*
X139581908Y-72159500D01*
X139581903Y-72159500D01*
X139348631Y-72196446D01*
X139124003Y-72269433D01*
X138913566Y-72376657D01*
X138828918Y-72438158D01*
X138722490Y-72515483D01*
X138722488Y-72515485D01*
X138722487Y-72515485D01*
X138555485Y-72682487D01*
X138555485Y-72682488D01*
X138555483Y-72682490D01*
X138506079Y-72750489D01*
X138416657Y-72873566D01*
X138309433Y-73084003D01*
X138236446Y-73308631D01*
X138199500Y-73541902D01*
X108406303Y-73541902D01*
X108410146Y-73517638D01*
X108411000Y-73512246D01*
X108411000Y-73299753D01*
X108377757Y-73089872D01*
X108377757Y-73089869D01*
X108312095Y-72887782D01*
X108215624Y-72698449D01*
X108176270Y-72644282D01*
X108176269Y-72644282D01*
X107543962Y-73276590D01*
X107526925Y-73213007D01*
X107461099Y-73098993D01*
X107368007Y-73005901D01*
X107253993Y-72940075D01*
X107190409Y-72923037D01*
X107675292Y-72438153D01*
X116039500Y-72438153D01*
X116039500Y-72595846D01*
X116070261Y-72750489D01*
X116070264Y-72750501D01*
X116130602Y-72896172D01*
X116130609Y-72896185D01*
X116218210Y-73027288D01*
X116218213Y-73027292D01*
X116329707Y-73138786D01*
X116329711Y-73138789D01*
X116460814Y-73226390D01*
X116460827Y-73226397D01*
X116597104Y-73282844D01*
X116606503Y-73286737D01*
X116716571Y-73308631D01*
X116761153Y-73317499D01*
X116761156Y-73317500D01*
X116761158Y-73317500D01*
X116918844Y-73317500D01*
X116918845Y-73317499D01*
X117073497Y-73286737D01*
X117219179Y-73226394D01*
X117350289Y-73138789D01*
X117461789Y-73027289D01*
X117549394Y-72896179D01*
X117554025Y-72885000D01*
X117609735Y-72750501D01*
X117609737Y-72750497D01*
X117640500Y-72595842D01*
X117640500Y-72438158D01*
X117640500Y-72438155D01*
X117640499Y-72438153D01*
X127088500Y-72438153D01*
X127088500Y-72595846D01*
X127119261Y-72750489D01*
X127119264Y-72750501D01*
X127179602Y-72896172D01*
X127179609Y-72896185D01*
X127267210Y-73027288D01*
X127267213Y-73027292D01*
X127378707Y-73138786D01*
X127378711Y-73138789D01*
X127509814Y-73226390D01*
X127509827Y-73226397D01*
X127646104Y-73282844D01*
X127655503Y-73286737D01*
X127765571Y-73308631D01*
X127810153Y-73317499D01*
X127810156Y-73317500D01*
X127810158Y-73317500D01*
X127967844Y-73317500D01*
X127967845Y-73317499D01*
X128122497Y-73286737D01*
X128268179Y-73226394D01*
X128399289Y-73138789D01*
X128510789Y-73027289D01*
X128598394Y-72896179D01*
X128603025Y-72885000D01*
X128658735Y-72750501D01*
X128658737Y-72750497D01*
X128689500Y-72595842D01*
X128689500Y-72438158D01*
X128689500Y-72438155D01*
X128689499Y-72438153D01*
X128658737Y-72283503D01*
X128645429Y-72251375D01*
X128598397Y-72137827D01*
X128598390Y-72137814D01*
X128510789Y-72006711D01*
X128510786Y-72006707D01*
X128399292Y-71895213D01*
X128399288Y-71895210D01*
X128268185Y-71807609D01*
X128268172Y-71807602D01*
X128122501Y-71747264D01*
X128122489Y-71747261D01*
X127967845Y-71716500D01*
X127967842Y-71716500D01*
X127810158Y-71716500D01*
X127810155Y-71716500D01*
X127655510Y-71747261D01*
X127655498Y-71747264D01*
X127509827Y-71807602D01*
X127509814Y-71807609D01*
X127378711Y-71895210D01*
X127378707Y-71895213D01*
X127267213Y-72006707D01*
X127267210Y-72006711D01*
X127179609Y-72137814D01*
X127179602Y-72137827D01*
X127119264Y-72283498D01*
X127119261Y-72283510D01*
X127088500Y-72438153D01*
X117640499Y-72438153D01*
X117609737Y-72283503D01*
X117596429Y-72251375D01*
X117549397Y-72137827D01*
X117549390Y-72137814D01*
X117461789Y-72006711D01*
X117461786Y-72006707D01*
X117350292Y-71895213D01*
X117350288Y-71895210D01*
X117219185Y-71807609D01*
X117219172Y-71807602D01*
X117073501Y-71747264D01*
X117073489Y-71747261D01*
X116918845Y-71716500D01*
X116918842Y-71716500D01*
X116761158Y-71716500D01*
X116761155Y-71716500D01*
X116606510Y-71747261D01*
X116606498Y-71747264D01*
X116460827Y-71807602D01*
X116460814Y-71807609D01*
X116329711Y-71895210D01*
X116329707Y-71895213D01*
X116218213Y-72006707D01*
X116218210Y-72006711D01*
X116130609Y-72137814D01*
X116130602Y-72137827D01*
X116070264Y-72283498D01*
X116070261Y-72283510D01*
X116039500Y-72438153D01*
X107675292Y-72438153D01*
X107769060Y-72344385D01*
X107822716Y-72290728D01*
X107768550Y-72251375D01*
X107579217Y-72154904D01*
X107377129Y-72089242D01*
X107167246Y-72056000D01*
X106954754Y-72056000D01*
X106744872Y-72089242D01*
X106744869Y-72089242D01*
X106542782Y-72154904D01*
X106353439Y-72251380D01*
X106299282Y-72290727D01*
X106299282Y-72290728D01*
X106931591Y-72923037D01*
X106868007Y-72940075D01*
X106753993Y-73005901D01*
X106660901Y-73098993D01*
X106595075Y-73213007D01*
X106578037Y-73276591D01*
X105945728Y-72644282D01*
X105945727Y-72644282D01*
X105906380Y-72698439D01*
X105809904Y-72887782D01*
X105744242Y-73089869D01*
X105744242Y-73089872D01*
X105711000Y-73299753D01*
X105711000Y-73512246D01*
X105744242Y-73722127D01*
X105744242Y-73722130D01*
X105809904Y-73924217D01*
X105906375Y-74113550D01*
X105945728Y-74167716D01*
X106578037Y-73535408D01*
X106595075Y-73598993D01*
X106660901Y-73713007D01*
X106753993Y-73806099D01*
X106868007Y-73871925D01*
X106931590Y-73888962D01*
X106261370Y-74559181D01*
X106200047Y-74592666D01*
X106173698Y-74595500D01*
X106163134Y-74595500D01*
X106163123Y-74595501D01*
X106103516Y-74601908D01*
X105968671Y-74652202D01*
X105968664Y-74652206D01*
X105853455Y-74738452D01*
X105853452Y-74738455D01*
X105767206Y-74853664D01*
X105767202Y-74853671D01*
X105716908Y-74988517D01*
X105710504Y-75048092D01*
X105710501Y-75048123D01*
X105710500Y-75048135D01*
X102592500Y-75048135D01*
X102592500Y-75015102D01*
X102555553Y-74781831D01*
X102513434Y-74652204D01*
X102482568Y-74557208D01*
X102482566Y-74557205D01*
X102482566Y-74557203D01*
X102379032Y-74354008D01*
X102375343Y-74346767D01*
X102236517Y-74155690D01*
X102069510Y-73988683D01*
X101878433Y-73849857D01*
X101848800Y-73834758D01*
X101667996Y-73742633D01*
X101443368Y-73669646D01*
X101210097Y-73632700D01*
X101210092Y-73632700D01*
X100973908Y-73632700D01*
X100973903Y-73632700D01*
X100740631Y-73669646D01*
X100516003Y-73742633D01*
X100305566Y-73849857D01*
X100196550Y-73929062D01*
X100114490Y-73988683D01*
X100114488Y-73988685D01*
X100114487Y-73988685D01*
X99947485Y-74155687D01*
X99947485Y-74155688D01*
X99947483Y-74155690D01*
X99902805Y-74217184D01*
X99808657Y-74346766D01*
X99701433Y-74557203D01*
X99628446Y-74781831D01*
X99591500Y-75015102D01*
X97055300Y-75015102D01*
X97055300Y-74811902D01*
X97018353Y-74578631D01*
X96956947Y-74389644D01*
X96945368Y-74354008D01*
X96945366Y-74354005D01*
X96945366Y-74354003D01*
X96850448Y-74167717D01*
X96838143Y-74143567D01*
X96699317Y-73952490D01*
X96532310Y-73785483D01*
X96341233Y-73646657D01*
X96264882Y-73607754D01*
X96130796Y-73539433D01*
X95906168Y-73466446D01*
X95672897Y-73429500D01*
X95672892Y-73429500D01*
X95436708Y-73429500D01*
X95436703Y-73429500D01*
X95203431Y-73466446D01*
X94978803Y-73539433D01*
X94768366Y-73646657D01*
X94677044Y-73713007D01*
X94577290Y-73785483D01*
X94577288Y-73785485D01*
X94577287Y-73785485D01*
X94410285Y-73952487D01*
X94410285Y-73952488D01*
X94410283Y-73952490D01*
X94350662Y-74034550D01*
X94271457Y-74143566D01*
X94164233Y-74354003D01*
X94091246Y-74578631D01*
X94054300Y-74811902D01*
X87709421Y-74811902D01*
X87677246Y-74608757D01*
X87611557Y-74406588D01*
X87515051Y-74217184D01*
X87515049Y-74217181D01*
X87515048Y-74217179D01*
X87390109Y-74045213D01*
X87276181Y-73931285D01*
X87242696Y-73869962D01*
X87247680Y-73800270D01*
X87289552Y-73744337D01*
X87320529Y-73727422D01*
X87452086Y-73678354D01*
X87452093Y-73678350D01*
X87567187Y-73592190D01*
X87567190Y-73592187D01*
X87653350Y-73477093D01*
X87653354Y-73477086D01*
X87703596Y-73342379D01*
X87703598Y-73342372D01*
X87709999Y-73282840D01*
X87710000Y-73282827D01*
X87710000Y-72635000D01*
X86793012Y-72635000D01*
X86825925Y-72577993D01*
X86860000Y-72450826D01*
X86860000Y-72319174D01*
X86825925Y-72192007D01*
X86793012Y-72135000D01*
X87710000Y-72135000D01*
X87710000Y-71487172D01*
X87709999Y-71487155D01*
X87703598Y-71427627D01*
X87703596Y-71427620D01*
X87653354Y-71292913D01*
X87653350Y-71292906D01*
X87567190Y-71177812D01*
X87567187Y-71177809D01*
X87452093Y-71091649D01*
X87452086Y-71091645D01*
X87317379Y-71041403D01*
X87317372Y-71041401D01*
X87257844Y-71035000D01*
X86610000Y-71035000D01*
X86610000Y-71951988D01*
X86552993Y-71919075D01*
X86425826Y-71885000D01*
X86294174Y-71885000D01*
X86167007Y-71919075D01*
X86110000Y-71951988D01*
X86110000Y-71035000D01*
X85462155Y-71035000D01*
X85402627Y-71041401D01*
X85402620Y-71041403D01*
X85267913Y-71091645D01*
X85267906Y-71091649D01*
X85152812Y-71177809D01*
X85152809Y-71177812D01*
X85066649Y-71292906D01*
X85066645Y-71292913D01*
X85016403Y-71427620D01*
X85016401Y-71427627D01*
X85010000Y-71487155D01*
X85010000Y-72135000D01*
X85926988Y-72135000D01*
X85894075Y-72192007D01*
X85860000Y-72319174D01*
X85860000Y-72450826D01*
X85894075Y-72577993D01*
X85926988Y-72635000D01*
X85010000Y-72635000D01*
X85010000Y-73282844D01*
X85016401Y-73342372D01*
X85016403Y-73342379D01*
X85066645Y-73477086D01*
X85066649Y-73477093D01*
X85152809Y-73592187D01*
X85152812Y-73592190D01*
X85267906Y-73678350D01*
X85267913Y-73678354D01*
X85399470Y-73727422D01*
X85455404Y-73769293D01*
X85479821Y-73834758D01*
X85464969Y-73903031D01*
X85443819Y-73931285D01*
X85329889Y-74045215D01*
X85204951Y-74217179D01*
X85108444Y-74406585D01*
X85042753Y-74608760D01*
X85015341Y-74781832D01*
X85009500Y-74818713D01*
X83050500Y-74818713D01*
X83050500Y-68868302D01*
X99591500Y-68868302D01*
X99591500Y-69104497D01*
X99628446Y-69337768D01*
X99701433Y-69562396D01*
X99772815Y-69702489D01*
X99808657Y-69772833D01*
X99947483Y-69963910D01*
X100114490Y-70130917D01*
X100305567Y-70269743D01*
X100404991Y-70320402D01*
X100516003Y-70376966D01*
X100516005Y-70376966D01*
X100516008Y-70376968D01*
X100636412Y-70416089D01*
X100740631Y-70449953D01*
X100973903Y-70486900D01*
X100973908Y-70486900D01*
X101210097Y-70486900D01*
X101443368Y-70449953D01*
X101667992Y-70376968D01*
X101878433Y-70269743D01*
X102069510Y-70130917D01*
X102236517Y-69963910D01*
X102375343Y-69772833D01*
X102482568Y-69562392D01*
X102522226Y-69440337D01*
X102538532Y-69390153D01*
X110959500Y-69390153D01*
X110959500Y-69547846D01*
X110990261Y-69702489D01*
X110990264Y-69702501D01*
X111050602Y-69848172D01*
X111050609Y-69848185D01*
X111138210Y-69979288D01*
X111138213Y-69979292D01*
X111249707Y-70090786D01*
X111249711Y-70090789D01*
X111380814Y-70178390D01*
X111380827Y-70178397D01*
X111526498Y-70238735D01*
X111526503Y-70238737D01*
X111681153Y-70269499D01*
X111681156Y-70269500D01*
X111681158Y-70269500D01*
X111838844Y-70269500D01*
X111838845Y-70269499D01*
X111993497Y-70238737D01*
X112139179Y-70178394D01*
X112270289Y-70090789D01*
X112381789Y-69979289D01*
X112469394Y-69848179D01*
X112529737Y-69702497D01*
X112560500Y-69547842D01*
X112560500Y-69390158D01*
X112560500Y-69390155D01*
X112560499Y-69390153D01*
X112529738Y-69235510D01*
X112529737Y-69235503D01*
X112484587Y-69126500D01*
X112469397Y-69089827D01*
X112469390Y-69089814D01*
X112381789Y-68958711D01*
X112381786Y-68958707D01*
X112270292Y-68847213D01*
X112270288Y-68847210D01*
X112139185Y-68759609D01*
X112139172Y-68759602D01*
X111993501Y-68699264D01*
X111993489Y-68699261D01*
X111838845Y-68668500D01*
X111838842Y-68668500D01*
X111681158Y-68668500D01*
X111681155Y-68668500D01*
X111526510Y-68699261D01*
X111526498Y-68699264D01*
X111380827Y-68759602D01*
X111380814Y-68759609D01*
X111249711Y-68847210D01*
X111249707Y-68847213D01*
X111138213Y-68958707D01*
X111138210Y-68958711D01*
X111050609Y-69089814D01*
X111050602Y-69089827D01*
X110990264Y-69235498D01*
X110990261Y-69235510D01*
X110959500Y-69390153D01*
X102538532Y-69390153D01*
X102552961Y-69345747D01*
X102554115Y-69342191D01*
X102555553Y-69337768D01*
X102574588Y-69217584D01*
X102592500Y-69104497D01*
X102592500Y-68868302D01*
X102555553Y-68635031D01*
X102482566Y-68410403D01*
X102424968Y-68297361D01*
X102399385Y-68247153D01*
X122262500Y-68247153D01*
X122262500Y-68404846D01*
X122293261Y-68559489D01*
X122293264Y-68559501D01*
X122353602Y-68705172D01*
X122353609Y-68705185D01*
X122441210Y-68836288D01*
X122441213Y-68836292D01*
X122552707Y-68947786D01*
X122552711Y-68947789D01*
X122683814Y-69035390D01*
X122683827Y-69035397D01*
X122815220Y-69089821D01*
X122829503Y-69095737D01*
X122984153Y-69126499D01*
X122984156Y-69126500D01*
X122984158Y-69126500D01*
X123141844Y-69126500D01*
X123141845Y-69126499D01*
X123296497Y-69095737D01*
X123442179Y-69035394D01*
X123573289Y-68947789D01*
X123684789Y-68836289D01*
X123772394Y-68705179D01*
X123774845Y-68699263D01*
X123801450Y-68635031D01*
X123832737Y-68559497D01*
X123863500Y-68404842D01*
X123863500Y-68247158D01*
X123863500Y-68247155D01*
X123863499Y-68247153D01*
X123832738Y-68092510D01*
X123832737Y-68092503D01*
X123798103Y-68008888D01*
X123772397Y-67946827D01*
X123772390Y-67946814D01*
X123684789Y-67815711D01*
X123684786Y-67815707D01*
X123573292Y-67704213D01*
X123573288Y-67704210D01*
X123442185Y-67616609D01*
X123442172Y-67616602D01*
X123296501Y-67556264D01*
X123296489Y-67556261D01*
X123141845Y-67525500D01*
X123141842Y-67525500D01*
X122984158Y-67525500D01*
X122984155Y-67525500D01*
X122829510Y-67556261D01*
X122829498Y-67556264D01*
X122683827Y-67616602D01*
X122683814Y-67616609D01*
X122552711Y-67704210D01*
X122552707Y-67704213D01*
X122441213Y-67815707D01*
X122441210Y-67815711D01*
X122353609Y-67946814D01*
X122353602Y-67946827D01*
X122293264Y-68092498D01*
X122293261Y-68092510D01*
X122262500Y-68247153D01*
X102399385Y-68247153D01*
X102375342Y-68199966D01*
X102359738Y-68178489D01*
X102236517Y-68008890D01*
X102069510Y-67841883D01*
X101878433Y-67703057D01*
X101667996Y-67595833D01*
X101443368Y-67522846D01*
X101210097Y-67485900D01*
X101210092Y-67485900D01*
X100973908Y-67485900D01*
X100973903Y-67485900D01*
X100740631Y-67522846D01*
X100516003Y-67595833D01*
X100305566Y-67703057D01*
X100293932Y-67711510D01*
X100114490Y-67841883D01*
X100114488Y-67841885D01*
X100114487Y-67841885D01*
X99947485Y-68008887D01*
X99947485Y-68008888D01*
X99947483Y-68008890D01*
X99936617Y-68023846D01*
X99808657Y-68199966D01*
X99701433Y-68410403D01*
X99628446Y-68635031D01*
X99591500Y-68868302D01*
X83050500Y-68868302D01*
X83050500Y-67866153D01*
X84543500Y-67866153D01*
X84543500Y-68023846D01*
X84574261Y-68178489D01*
X84574264Y-68178501D01*
X84634602Y-68324172D01*
X84634609Y-68324185D01*
X84722210Y-68455288D01*
X84722213Y-68455292D01*
X84833707Y-68566786D01*
X84833711Y-68566789D01*
X84964814Y-68654390D01*
X84964827Y-68654397D01*
X85087442Y-68705185D01*
X85110503Y-68714737D01*
X85246658Y-68741820D01*
X85265153Y-68745499D01*
X85265156Y-68745500D01*
X85265158Y-68745500D01*
X85422844Y-68745500D01*
X85422845Y-68745499D01*
X85428209Y-68744432D01*
X85441345Y-68741820D01*
X85441350Y-68741819D01*
X85539229Y-68722348D01*
X85577497Y-68714737D01*
X85723179Y-68654394D01*
X85854289Y-68566789D01*
X85965789Y-68455289D01*
X86053394Y-68324179D01*
X86113737Y-68178497D01*
X86144500Y-68023842D01*
X86144500Y-67866158D01*
X86144500Y-67866155D01*
X86144499Y-67866153D01*
X86134465Y-67815711D01*
X86113737Y-67711503D01*
X86074428Y-67616602D01*
X86053397Y-67565827D01*
X86053390Y-67565814D01*
X85965789Y-67434711D01*
X85965786Y-67434707D01*
X85854292Y-67323213D01*
X85854288Y-67323210D01*
X85723185Y-67235609D01*
X85723172Y-67235602D01*
X85577501Y-67175264D01*
X85577489Y-67175261D01*
X85422845Y-67144500D01*
X85422842Y-67144500D01*
X85265158Y-67144500D01*
X85265155Y-67144500D01*
X85110510Y-67175261D01*
X85110498Y-67175264D01*
X84964827Y-67235602D01*
X84964814Y-67235609D01*
X84833711Y-67323210D01*
X84833707Y-67323213D01*
X84722213Y-67434707D01*
X84722210Y-67434711D01*
X84634609Y-67565814D01*
X84634602Y-67565827D01*
X84574264Y-67711498D01*
X84574261Y-67711510D01*
X84543500Y-67866153D01*
X83050500Y-67866153D01*
X83050500Y-64056153D01*
X97370500Y-64056153D01*
X97370500Y-64213846D01*
X97401261Y-64368489D01*
X97401264Y-64368501D01*
X97461602Y-64514172D01*
X97461609Y-64514185D01*
X97549210Y-64645288D01*
X97549213Y-64645292D01*
X97660707Y-64756786D01*
X97660711Y-64756789D01*
X97791814Y-64844390D01*
X97791827Y-64844397D01*
X97937498Y-64904735D01*
X97937503Y-64904737D01*
X98092153Y-64935499D01*
X98092156Y-64935500D01*
X98092158Y-64935500D01*
X98249844Y-64935500D01*
X98249845Y-64935499D01*
X98404497Y-64904737D01*
X98539436Y-64848844D01*
X98550172Y-64844397D01*
X98550172Y-64844396D01*
X98550179Y-64844394D01*
X98681289Y-64756789D01*
X98792789Y-64645289D01*
X98880394Y-64514179D01*
X98940737Y-64368497D01*
X98971500Y-64213842D01*
X98971500Y-64056158D01*
X98971500Y-64056155D01*
X98971499Y-64056153D01*
X98949839Y-63947257D01*
X98946238Y-63929153D01*
X111467500Y-63929153D01*
X111467500Y-64086846D01*
X111498261Y-64241489D01*
X111498264Y-64241501D01*
X111558602Y-64387172D01*
X111558609Y-64387185D01*
X111646210Y-64518288D01*
X111646213Y-64518292D01*
X111757707Y-64629786D01*
X111757711Y-64629789D01*
X111888814Y-64717390D01*
X111888827Y-64717397D01*
X112034498Y-64777735D01*
X112034503Y-64777737D01*
X112189153Y-64808499D01*
X112189156Y-64808500D01*
X112189158Y-64808500D01*
X112346844Y-64808500D01*
X112346845Y-64808499D01*
X112501497Y-64777737D01*
X112647179Y-64717394D01*
X112686451Y-64691153D01*
X126326500Y-64691153D01*
X126326500Y-64848846D01*
X126357261Y-65003489D01*
X126357264Y-65003501D01*
X126417602Y-65149172D01*
X126417609Y-65149185D01*
X126505210Y-65280288D01*
X126505213Y-65280292D01*
X126616707Y-65391786D01*
X126616711Y-65391789D01*
X126747814Y-65479390D01*
X126747827Y-65479397D01*
X126893498Y-65539735D01*
X126893503Y-65539737D01*
X127048153Y-65570499D01*
X127048156Y-65570500D01*
X127048158Y-65570500D01*
X127205844Y-65570500D01*
X127205845Y-65570499D01*
X127360497Y-65539737D01*
X127506179Y-65479394D01*
X127637289Y-65391789D01*
X127748789Y-65280289D01*
X127836394Y-65149179D01*
X127896737Y-65003497D01*
X127927500Y-64848842D01*
X127927500Y-64691158D01*
X127927500Y-64691155D01*
X127927499Y-64691153D01*
X127900317Y-64554500D01*
X127896737Y-64536503D01*
X127866456Y-64463397D01*
X127836397Y-64390827D01*
X127836390Y-64390814D01*
X127748789Y-64259711D01*
X127748786Y-64259707D01*
X127637292Y-64148213D01*
X127637288Y-64148210D01*
X127506185Y-64060609D01*
X127506172Y-64060602D01*
X127360501Y-64000264D01*
X127360489Y-64000261D01*
X127205845Y-63969500D01*
X127205842Y-63969500D01*
X127048158Y-63969500D01*
X127048155Y-63969500D01*
X126893510Y-64000261D01*
X126893498Y-64000264D01*
X126747827Y-64060602D01*
X126747814Y-64060609D01*
X126616711Y-64148210D01*
X126616707Y-64148213D01*
X126505213Y-64259707D01*
X126505210Y-64259711D01*
X126417609Y-64390814D01*
X126417602Y-64390827D01*
X126357264Y-64536498D01*
X126357261Y-64536510D01*
X126326500Y-64691153D01*
X112686451Y-64691153D01*
X112778289Y-64629789D01*
X112778292Y-64629786D01*
X112810694Y-64597385D01*
X112889786Y-64518292D01*
X112889789Y-64518289D01*
X112977394Y-64387179D01*
X113037737Y-64241497D01*
X113068500Y-64086842D01*
X113068500Y-63929158D01*
X113068500Y-63929155D01*
X113068499Y-63929153D01*
X113041317Y-63792500D01*
X113037737Y-63774503D01*
X112996585Y-63675153D01*
X119214500Y-63675153D01*
X119214500Y-63832846D01*
X119245261Y-63987489D01*
X119245264Y-63987501D01*
X119305602Y-64133172D01*
X119305609Y-64133185D01*
X119393210Y-64264288D01*
X119393213Y-64264292D01*
X119504707Y-64375786D01*
X119504711Y-64375789D01*
X119635814Y-64463390D01*
X119635827Y-64463397D01*
X119781498Y-64523735D01*
X119781503Y-64523737D01*
X119936153Y-64554499D01*
X119936156Y-64554500D01*
X119936158Y-64554500D01*
X120093844Y-64554500D01*
X120093845Y-64554499D01*
X120248497Y-64523737D01*
X120394179Y-64463394D01*
X120525289Y-64375789D01*
X120636789Y-64264289D01*
X120724394Y-64133179D01*
X120784737Y-63987497D01*
X120815500Y-63832842D01*
X120815500Y-63675158D01*
X120815500Y-63675155D01*
X120815499Y-63675153D01*
X120806283Y-63628821D01*
X120784737Y-63520503D01*
X120768605Y-63481557D01*
X120724397Y-63374827D01*
X120724390Y-63374814D01*
X120636789Y-63243711D01*
X120636786Y-63243707D01*
X120525292Y-63132213D01*
X120525288Y-63132210D01*
X120394185Y-63044609D01*
X120394172Y-63044602D01*
X120248501Y-62984264D01*
X120248489Y-62984261D01*
X120093845Y-62953500D01*
X120093842Y-62953500D01*
X119936158Y-62953500D01*
X119936155Y-62953500D01*
X119781510Y-62984261D01*
X119781498Y-62984264D01*
X119635827Y-63044602D01*
X119635814Y-63044609D01*
X119504711Y-63132210D01*
X119504707Y-63132213D01*
X119393213Y-63243707D01*
X119393210Y-63243711D01*
X119305609Y-63374814D01*
X119305602Y-63374827D01*
X119245264Y-63520498D01*
X119245261Y-63520510D01*
X119214500Y-63675153D01*
X112996585Y-63675153D01*
X112977397Y-63628826D01*
X112977390Y-63628814D01*
X112889789Y-63497711D01*
X112889786Y-63497707D01*
X112778292Y-63386213D01*
X112778288Y-63386210D01*
X112647185Y-63298609D01*
X112647172Y-63298602D01*
X112501501Y-63238264D01*
X112501489Y-63238261D01*
X112346845Y-63207500D01*
X112346842Y-63207500D01*
X112189158Y-63207500D01*
X112189155Y-63207500D01*
X112034510Y-63238261D01*
X112034498Y-63238264D01*
X111888827Y-63298602D01*
X111888814Y-63298609D01*
X111757711Y-63386210D01*
X111757707Y-63386213D01*
X111646213Y-63497707D01*
X111646210Y-63497711D01*
X111558609Y-63628814D01*
X111558602Y-63628827D01*
X111498264Y-63774498D01*
X111498261Y-63774510D01*
X111467500Y-63929153D01*
X98946238Y-63929153D01*
X98940738Y-63901508D01*
X98940737Y-63901507D01*
X98940737Y-63901503D01*
X98895587Y-63792500D01*
X98880397Y-63755827D01*
X98880390Y-63755814D01*
X98792789Y-63624711D01*
X98792786Y-63624707D01*
X98681292Y-63513213D01*
X98681288Y-63513210D01*
X98550185Y-63425609D01*
X98550172Y-63425602D01*
X98404501Y-63365264D01*
X98404489Y-63365261D01*
X98249845Y-63334500D01*
X98249842Y-63334500D01*
X98092158Y-63334500D01*
X98092155Y-63334500D01*
X97937510Y-63365261D01*
X97937498Y-63365264D01*
X97791827Y-63425602D01*
X97791814Y-63425609D01*
X97660711Y-63513210D01*
X97660707Y-63513213D01*
X97549213Y-63624707D01*
X97549210Y-63624711D01*
X97461609Y-63755814D01*
X97461602Y-63755827D01*
X97401264Y-63901498D01*
X97401261Y-63901510D01*
X97370500Y-64056153D01*
X83050500Y-64056153D01*
X83050500Y-62913153D01*
X107276500Y-62913153D01*
X107276500Y-63070846D01*
X107307261Y-63225489D01*
X107307264Y-63225501D01*
X107367602Y-63371172D01*
X107367609Y-63371185D01*
X107455210Y-63502288D01*
X107455213Y-63502292D01*
X107566707Y-63613786D01*
X107566711Y-63613789D01*
X107697814Y-63701390D01*
X107697827Y-63701397D01*
X107829220Y-63755821D01*
X107843503Y-63761737D01*
X107998153Y-63792499D01*
X107998156Y-63792500D01*
X107998158Y-63792500D01*
X108155844Y-63792500D01*
X108155845Y-63792499D01*
X108310497Y-63761737D01*
X108456179Y-63701394D01*
X108587289Y-63613789D01*
X108698789Y-63502289D01*
X108786394Y-63371179D01*
X108788845Y-63365263D01*
X108832402Y-63260104D01*
X108846737Y-63225497D01*
X108877500Y-63070842D01*
X108877500Y-62913158D01*
X108877500Y-62913155D01*
X108877499Y-62913153D01*
X108876746Y-62909366D01*
X108846737Y-62758503D01*
X108807309Y-62663314D01*
X108786397Y-62612827D01*
X108786390Y-62612814D01*
X108698789Y-62481711D01*
X108698786Y-62481707D01*
X108587292Y-62370213D01*
X108587288Y-62370210D01*
X108456185Y-62282609D01*
X108456172Y-62282602D01*
X108310501Y-62222264D01*
X108310489Y-62222261D01*
X108155845Y-62191500D01*
X108155842Y-62191500D01*
X107998158Y-62191500D01*
X107998155Y-62191500D01*
X107843510Y-62222261D01*
X107843498Y-62222264D01*
X107697827Y-62282602D01*
X107697814Y-62282609D01*
X107566711Y-62370210D01*
X107566707Y-62370213D01*
X107455213Y-62481707D01*
X107455210Y-62481711D01*
X107367609Y-62612814D01*
X107367602Y-62612827D01*
X107307264Y-62758498D01*
X107307261Y-62758510D01*
X107276500Y-62913153D01*
X83050500Y-62913153D01*
X83050500Y-57522135D01*
X85009500Y-57522135D01*
X85009500Y-59317870D01*
X85009501Y-59317876D01*
X85015908Y-59377483D01*
X85066202Y-59512328D01*
X85066206Y-59512335D01*
X85152452Y-59627544D01*
X85152455Y-59627547D01*
X85267664Y-59713793D01*
X85267671Y-59713797D01*
X85399082Y-59762810D01*
X85455016Y-59804681D01*
X85479433Y-59870145D01*
X85464582Y-59938418D01*
X85443431Y-59966673D01*
X85329889Y-60080215D01*
X85204951Y-60252179D01*
X85108444Y-60441585D01*
X85042753Y-60643760D01*
X85016029Y-60812489D01*
X85009500Y-60853713D01*
X85009500Y-61066287D01*
X85010872Y-61074949D01*
X85036486Y-61236673D01*
X85042754Y-61276243D01*
X85107574Y-61475738D01*
X85108444Y-61478414D01*
X85204951Y-61667820D01*
X85329890Y-61839786D01*
X85480213Y-61990109D01*
X85652179Y-62115048D01*
X85652181Y-62115049D01*
X85652184Y-62115051D01*
X85841588Y-62211557D01*
X86043757Y-62277246D01*
X86253713Y-62310500D01*
X86253714Y-62310500D01*
X86466286Y-62310500D01*
X86466287Y-62310500D01*
X86676243Y-62277246D01*
X86878412Y-62211557D01*
X87067816Y-62115051D01*
X87095700Y-62094792D01*
X87239786Y-61990109D01*
X87239788Y-61990106D01*
X87239792Y-61990104D01*
X87390104Y-61839792D01*
X87390106Y-61839788D01*
X87390109Y-61839786D01*
X87515048Y-61667820D01*
X87515047Y-61667820D01*
X87515051Y-61667816D01*
X87611557Y-61478412D01*
X87677246Y-61276243D01*
X87710500Y-61066287D01*
X87710500Y-60853713D01*
X87677246Y-60643757D01*
X87671851Y-60627153D01*
X124929500Y-60627153D01*
X124929500Y-60784846D01*
X124960261Y-60939489D01*
X124960264Y-60939501D01*
X125020602Y-61085172D01*
X125020609Y-61085185D01*
X125108210Y-61216288D01*
X125108213Y-61216292D01*
X125219707Y-61327786D01*
X125219711Y-61327789D01*
X125350814Y-61415390D01*
X125350827Y-61415397D01*
X125496498Y-61475735D01*
X125496503Y-61475737D01*
X125651153Y-61506499D01*
X125651156Y-61506500D01*
X125651158Y-61506500D01*
X125808844Y-61506500D01*
X125808845Y-61506499D01*
X125963497Y-61475737D01*
X126109179Y-61415394D01*
X126131167Y-61400702D01*
X133779900Y-61400702D01*
X133779900Y-61636897D01*
X133816846Y-61870168D01*
X133889833Y-62094796D01*
X133997057Y-62305233D01*
X134135883Y-62496310D01*
X134302890Y-62663317D01*
X134493967Y-62802143D01*
X134593391Y-62852802D01*
X134704403Y-62909366D01*
X134704405Y-62909366D01*
X134704408Y-62909368D01*
X134791962Y-62937816D01*
X134929031Y-62982353D01*
X135162303Y-63019300D01*
X135162308Y-63019300D01*
X135398497Y-63019300D01*
X135631768Y-62982353D01*
X135856392Y-62909368D01*
X136066833Y-62802143D01*
X136257910Y-62663317D01*
X136424917Y-62496310D01*
X136563743Y-62305233D01*
X136670968Y-62094792D01*
X136743953Y-61870168D01*
X136748765Y-61839786D01*
X136780900Y-61636897D01*
X136780900Y-61400702D01*
X136743953Y-61167431D01*
X136700628Y-61034091D01*
X136670968Y-60942808D01*
X136670966Y-60942805D01*
X136670966Y-60942803D01*
X136563742Y-60732366D01*
X136424917Y-60541290D01*
X136257910Y-60374283D01*
X136066833Y-60235457D01*
X135856396Y-60128233D01*
X135631768Y-60055246D01*
X135398497Y-60018300D01*
X135398492Y-60018300D01*
X135162308Y-60018300D01*
X135162303Y-60018300D01*
X134929031Y-60055246D01*
X134704403Y-60128233D01*
X134493966Y-60235457D01*
X134470944Y-60252184D01*
X134302890Y-60374283D01*
X134302888Y-60374285D01*
X134302887Y-60374285D01*
X134135885Y-60541287D01*
X134135885Y-60541288D01*
X134135883Y-60541290D01*
X134102036Y-60587876D01*
X133997057Y-60732366D01*
X133889833Y-60942803D01*
X133816846Y-61167431D01*
X133779900Y-61400702D01*
X126131167Y-61400702D01*
X126240289Y-61327789D01*
X126351789Y-61216289D01*
X126439394Y-61085179D01*
X126499737Y-60939497D01*
X126530500Y-60784842D01*
X126530500Y-60627158D01*
X126530500Y-60627155D01*
X126530499Y-60627153D01*
X126508839Y-60518257D01*
X126505238Y-60500153D01*
X129882500Y-60500153D01*
X129882500Y-60657846D01*
X129913261Y-60812489D01*
X129913264Y-60812501D01*
X129973602Y-60958172D01*
X129973609Y-60958185D01*
X130061210Y-61089288D01*
X130061213Y-61089292D01*
X130172707Y-61200786D01*
X130172711Y-61200789D01*
X130303814Y-61288390D01*
X130303827Y-61288397D01*
X130449498Y-61348735D01*
X130449503Y-61348737D01*
X130604153Y-61379499D01*
X130604156Y-61379500D01*
X130604158Y-61379500D01*
X130761844Y-61379500D01*
X130761845Y-61379499D01*
X130916497Y-61348737D01*
X131062179Y-61288394D01*
X131193289Y-61200789D01*
X131304789Y-61089289D01*
X131392394Y-60958179D01*
X131452737Y-60812497D01*
X131483500Y-60657842D01*
X131483500Y-60500158D01*
X131483500Y-60500155D01*
X131483499Y-60500153D01*
X131477998Y-60472498D01*
X131452737Y-60345503D01*
X131444996Y-60326814D01*
X131392397Y-60199827D01*
X131392390Y-60199814D01*
X131304789Y-60068711D01*
X131304786Y-60068707D01*
X131193292Y-59957213D01*
X131193288Y-59957210D01*
X131062185Y-59869609D01*
X131062172Y-59869602D01*
X130916501Y-59809264D01*
X130916489Y-59809261D01*
X130761845Y-59778500D01*
X130761842Y-59778500D01*
X130604158Y-59778500D01*
X130604155Y-59778500D01*
X130449510Y-59809261D01*
X130449498Y-59809264D01*
X130303827Y-59869602D01*
X130303814Y-59869609D01*
X130172711Y-59957210D01*
X130172707Y-59957213D01*
X130061213Y-60068707D01*
X130061210Y-60068711D01*
X129973609Y-60199814D01*
X129973602Y-60199827D01*
X129913264Y-60345498D01*
X129913261Y-60345510D01*
X129882500Y-60500153D01*
X126505238Y-60500153D01*
X126499738Y-60472508D01*
X126499737Y-60472507D01*
X126499737Y-60472503D01*
X126486932Y-60441588D01*
X126439397Y-60326827D01*
X126439390Y-60326814D01*
X126351789Y-60195711D01*
X126351786Y-60195707D01*
X126240292Y-60084213D01*
X126240288Y-60084210D01*
X126109185Y-59996609D01*
X126109172Y-59996602D01*
X125963501Y-59936264D01*
X125963489Y-59936261D01*
X125808845Y-59905500D01*
X125808842Y-59905500D01*
X125651158Y-59905500D01*
X125651155Y-59905500D01*
X125496510Y-59936261D01*
X125496498Y-59936264D01*
X125350827Y-59996602D01*
X125350814Y-59996609D01*
X125219711Y-60084210D01*
X125219707Y-60084213D01*
X125108213Y-60195707D01*
X125108210Y-60195711D01*
X125020609Y-60326814D01*
X125020602Y-60326827D01*
X124960264Y-60472498D01*
X124960261Y-60472510D01*
X124929500Y-60627153D01*
X87671851Y-60627153D01*
X87611557Y-60441588D01*
X87515051Y-60252184D01*
X87515049Y-60252181D01*
X87515048Y-60252179D01*
X87390109Y-60080213D01*
X87276569Y-59966673D01*
X87243084Y-59905350D01*
X87248068Y-59835658D01*
X87289940Y-59779725D01*
X87320915Y-59762810D01*
X87452331Y-59713796D01*
X87567546Y-59627546D01*
X87653796Y-59512331D01*
X87704091Y-59377483D01*
X87710500Y-59317873D01*
X87710499Y-58849153D01*
X94068500Y-58849153D01*
X94068500Y-59006846D01*
X94099261Y-59161489D01*
X94099264Y-59161501D01*
X94159602Y-59307172D01*
X94159609Y-59307185D01*
X94247210Y-59438288D01*
X94247213Y-59438292D01*
X94358707Y-59549786D01*
X94358711Y-59549789D01*
X94489814Y-59637390D01*
X94489827Y-59637397D01*
X94635498Y-59697735D01*
X94635503Y-59697737D01*
X94716242Y-59713797D01*
X94790153Y-59728499D01*
X94790156Y-59728500D01*
X94790158Y-59728500D01*
X94947844Y-59728500D01*
X94947845Y-59728499D01*
X95102497Y-59697737D01*
X95248179Y-59637394D01*
X95379289Y-59549789D01*
X95490789Y-59438289D01*
X95578394Y-59307179D01*
X95638737Y-59161497D01*
X95669500Y-59006842D01*
X95669500Y-58976153D01*
X111213500Y-58976153D01*
X111213500Y-59133846D01*
X111244261Y-59288489D01*
X111244264Y-59288501D01*
X111304602Y-59434172D01*
X111304609Y-59434185D01*
X111392210Y-59565288D01*
X111392213Y-59565292D01*
X111503707Y-59676786D01*
X111503711Y-59676789D01*
X111634814Y-59764390D01*
X111634827Y-59764397D01*
X111780498Y-59824735D01*
X111780503Y-59824737D01*
X111935153Y-59855499D01*
X111935156Y-59855500D01*
X111935158Y-59855500D01*
X112092844Y-59855500D01*
X112092845Y-59855499D01*
X112247497Y-59824737D01*
X112393179Y-59764394D01*
X112524289Y-59676789D01*
X112635789Y-59565289D01*
X112723394Y-59434179D01*
X112783737Y-59288497D01*
X112814500Y-59133842D01*
X112814500Y-58976158D01*
X112814500Y-58976155D01*
X112814499Y-58976153D01*
X112787317Y-58839500D01*
X112783737Y-58821503D01*
X112772580Y-58794568D01*
X112723397Y-58675827D01*
X112723390Y-58675814D01*
X112635789Y-58544711D01*
X112635786Y-58544707D01*
X112524292Y-58433213D01*
X112524288Y-58433210D01*
X112393185Y-58345609D01*
X112393172Y-58345602D01*
X112247501Y-58285264D01*
X112247489Y-58285261D01*
X112092845Y-58254500D01*
X112092842Y-58254500D01*
X111935158Y-58254500D01*
X111935155Y-58254500D01*
X111780510Y-58285261D01*
X111780498Y-58285264D01*
X111634827Y-58345602D01*
X111634814Y-58345609D01*
X111503711Y-58433210D01*
X111503707Y-58433213D01*
X111392213Y-58544707D01*
X111392210Y-58544711D01*
X111304609Y-58675814D01*
X111304602Y-58675827D01*
X111244264Y-58821498D01*
X111244261Y-58821510D01*
X111213500Y-58976153D01*
X95669500Y-58976153D01*
X95669500Y-58849158D01*
X95669500Y-58849155D01*
X95669499Y-58849153D01*
X95658155Y-58792123D01*
X95638737Y-58694503D01*
X95624771Y-58660786D01*
X95578397Y-58548827D01*
X95578390Y-58548814D01*
X95490789Y-58417711D01*
X95490786Y-58417707D01*
X95379292Y-58306213D01*
X95379288Y-58306210D01*
X95248185Y-58218609D01*
X95248172Y-58218602D01*
X95102501Y-58158264D01*
X95102489Y-58158261D01*
X94947845Y-58127500D01*
X94947842Y-58127500D01*
X94790158Y-58127500D01*
X94790155Y-58127500D01*
X94635510Y-58158261D01*
X94635498Y-58158264D01*
X94489827Y-58218602D01*
X94489814Y-58218609D01*
X94358711Y-58306210D01*
X94358707Y-58306213D01*
X94247213Y-58417707D01*
X94247210Y-58417711D01*
X94159609Y-58548814D01*
X94159602Y-58548827D01*
X94099264Y-58694498D01*
X94099261Y-58694510D01*
X94068500Y-58849153D01*
X87710499Y-58849153D01*
X87710499Y-58418185D01*
X87710499Y-57522129D01*
X87710498Y-57522123D01*
X87710497Y-57522116D01*
X87704091Y-57462517D01*
X87687193Y-57417210D01*
X87653798Y-57327673D01*
X87653793Y-57327664D01*
X87622530Y-57285902D01*
X123467500Y-57285902D01*
X123467500Y-57522097D01*
X123504446Y-57755368D01*
X123577433Y-57979996D01*
X123668266Y-58158264D01*
X123684657Y-58190433D01*
X123823483Y-58381510D01*
X123990490Y-58548517D01*
X124181567Y-58687343D01*
X124270224Y-58732516D01*
X124392003Y-58794566D01*
X124392005Y-58794566D01*
X124392008Y-58794568D01*
X124435616Y-58808737D01*
X124616631Y-58867553D01*
X124849903Y-58904500D01*
X124849908Y-58904500D01*
X125086097Y-58904500D01*
X125319368Y-58867553D01*
X125543992Y-58794568D01*
X125754433Y-58687343D01*
X125945510Y-58548517D01*
X126112517Y-58381510D01*
X126251343Y-58190433D01*
X126358568Y-57979992D01*
X126365014Y-57960153D01*
X132041500Y-57960153D01*
X132041500Y-58117846D01*
X132072261Y-58272489D01*
X132072264Y-58272501D01*
X132132602Y-58418172D01*
X132132609Y-58418185D01*
X132220210Y-58549288D01*
X132220213Y-58549292D01*
X132331707Y-58660786D01*
X132331711Y-58660789D01*
X132462814Y-58748390D01*
X132462827Y-58748397D01*
X132608498Y-58808735D01*
X132608503Y-58808737D01*
X132763153Y-58839499D01*
X132763156Y-58839500D01*
X132763158Y-58839500D01*
X132920844Y-58839500D01*
X132920845Y-58839499D01*
X133075497Y-58808737D01*
X133115578Y-58792135D01*
X143429500Y-58792135D01*
X143429500Y-60587870D01*
X143429501Y-60587876D01*
X143435908Y-60647483D01*
X143486202Y-60782328D01*
X143486206Y-60782335D01*
X143572452Y-60897544D01*
X143572455Y-60897547D01*
X143687664Y-60983793D01*
X143687671Y-60983797D01*
X143819082Y-61032810D01*
X143875016Y-61074681D01*
X143899433Y-61140145D01*
X143884582Y-61208418D01*
X143863431Y-61236673D01*
X143749889Y-61350215D01*
X143624951Y-61522179D01*
X143528444Y-61711585D01*
X143462753Y-61913760D01*
X143429500Y-62123713D01*
X143429500Y-62336286D01*
X143454845Y-62496312D01*
X143462754Y-62546243D01*
X143484384Y-62612814D01*
X143528444Y-62748414D01*
X143624951Y-62937820D01*
X143749890Y-63109786D01*
X143900213Y-63260109D01*
X144072179Y-63385048D01*
X144072181Y-63385049D01*
X144072184Y-63385051D01*
X144261588Y-63481557D01*
X144463757Y-63547246D01*
X144673713Y-63580500D01*
X144673714Y-63580500D01*
X144886286Y-63580500D01*
X144886287Y-63580500D01*
X145096243Y-63547246D01*
X145298412Y-63481557D01*
X145487816Y-63385051D01*
X145557394Y-63334500D01*
X145659786Y-63260109D01*
X145659788Y-63260106D01*
X145659792Y-63260104D01*
X145810104Y-63109792D01*
X145810106Y-63109788D01*
X145810109Y-63109786D01*
X145935048Y-62937820D01*
X145935047Y-62937820D01*
X145935051Y-62937816D01*
X146031557Y-62748412D01*
X146097246Y-62546243D01*
X146130500Y-62336287D01*
X146130500Y-62123713D01*
X146097246Y-61913757D01*
X146031557Y-61711588D01*
X145935051Y-61522184D01*
X145935049Y-61522181D01*
X145935048Y-61522179D01*
X145810109Y-61350213D01*
X145696569Y-61236673D01*
X145663084Y-61175350D01*
X145668068Y-61105658D01*
X145709940Y-61049725D01*
X145740915Y-61032810D01*
X145872331Y-60983796D01*
X145987546Y-60897546D01*
X146073796Y-60782331D01*
X146124091Y-60647483D01*
X146130500Y-60587873D01*
X146130499Y-58792128D01*
X146124091Y-58732517D01*
X146109915Y-58694510D01*
X146073797Y-58597671D01*
X146073793Y-58597664D01*
X145987547Y-58482455D01*
X145987544Y-58482452D01*
X145872335Y-58396206D01*
X145872328Y-58396202D01*
X145737482Y-58345908D01*
X145737483Y-58345908D01*
X145677883Y-58339501D01*
X145677881Y-58339500D01*
X145677873Y-58339500D01*
X145677864Y-58339500D01*
X143882129Y-58339500D01*
X143882123Y-58339501D01*
X143822516Y-58345908D01*
X143687671Y-58396202D01*
X143687664Y-58396206D01*
X143572455Y-58482452D01*
X143572452Y-58482455D01*
X143486206Y-58597664D01*
X143486202Y-58597671D01*
X143435908Y-58732517D01*
X143429501Y-58792116D01*
X143429501Y-58792123D01*
X143429500Y-58792135D01*
X133115578Y-58792135D01*
X133221179Y-58748394D01*
X133244942Y-58732516D01*
X133315002Y-58685704D01*
X133332565Y-58673967D01*
X133352289Y-58660789D01*
X133463789Y-58549289D01*
X133551394Y-58418179D01*
X133611737Y-58272497D01*
X133642500Y-58117842D01*
X133642500Y-57960158D01*
X133642500Y-57960155D01*
X133642499Y-57960153D01*
X133611738Y-57805510D01*
X133611737Y-57805503D01*
X133590971Y-57755368D01*
X133551397Y-57659827D01*
X133551390Y-57659814D01*
X133463789Y-57528711D01*
X133463786Y-57528707D01*
X133352292Y-57417213D01*
X133352288Y-57417210D01*
X133221185Y-57329609D01*
X133221172Y-57329602D01*
X133075501Y-57269264D01*
X133075489Y-57269261D01*
X132920845Y-57238500D01*
X132920842Y-57238500D01*
X132763158Y-57238500D01*
X132763155Y-57238500D01*
X132608510Y-57269261D01*
X132608498Y-57269264D01*
X132462827Y-57329602D01*
X132462814Y-57329609D01*
X132331711Y-57417210D01*
X132331707Y-57417213D01*
X132220213Y-57528707D01*
X132220210Y-57528711D01*
X132132609Y-57659814D01*
X132132602Y-57659827D01*
X132072264Y-57805498D01*
X132072261Y-57805510D01*
X132041500Y-57960153D01*
X126365014Y-57960153D01*
X126431553Y-57755368D01*
X126446687Y-57659814D01*
X126468500Y-57522097D01*
X126468500Y-57285902D01*
X126431553Y-57052631D01*
X126415260Y-57002489D01*
X126358568Y-56828008D01*
X126288327Y-56690153D01*
X134863200Y-56690153D01*
X134863200Y-56847846D01*
X134893961Y-57002489D01*
X134893964Y-57002501D01*
X134954302Y-57148172D01*
X134954309Y-57148185D01*
X135041910Y-57279288D01*
X135041913Y-57279292D01*
X135153407Y-57390786D01*
X135153411Y-57390789D01*
X135284514Y-57478390D01*
X135284527Y-57478397D01*
X135405988Y-57528707D01*
X135430203Y-57538737D01*
X135584853Y-57569499D01*
X135584856Y-57569500D01*
X135584858Y-57569500D01*
X135742544Y-57569500D01*
X135742545Y-57569499D01*
X135897197Y-57538737D01*
X136042879Y-57478394D01*
X136173989Y-57390789D01*
X136285489Y-57279289D01*
X136373094Y-57148179D01*
X136433437Y-57002497D01*
X136464200Y-56847842D01*
X136464200Y-56690158D01*
X136464200Y-56690155D01*
X136464199Y-56690153D01*
X136433437Y-56535503D01*
X136388282Y-56426488D01*
X136373097Y-56389827D01*
X136373090Y-56389814D01*
X136285489Y-56258711D01*
X136285486Y-56258707D01*
X136173992Y-56147213D01*
X136173988Y-56147210D01*
X136042885Y-56059609D01*
X136042872Y-56059602D01*
X135897201Y-55999264D01*
X135897189Y-55999261D01*
X135742545Y-55968500D01*
X135742542Y-55968500D01*
X135584858Y-55968500D01*
X135584855Y-55968500D01*
X135430210Y-55999261D01*
X135430198Y-55999264D01*
X135284527Y-56059602D01*
X135284514Y-56059609D01*
X135153411Y-56147210D01*
X135153407Y-56147213D01*
X135041913Y-56258707D01*
X135041910Y-56258711D01*
X134954309Y-56389814D01*
X134954302Y-56389827D01*
X134893964Y-56535498D01*
X134893961Y-56535510D01*
X134863200Y-56690153D01*
X126288327Y-56690153D01*
X126251343Y-56617567D01*
X126112517Y-56426490D01*
X125945510Y-56259483D01*
X125754433Y-56120657D01*
X125543996Y-56013433D01*
X125319368Y-55940446D01*
X125086097Y-55903500D01*
X125086092Y-55903500D01*
X124849908Y-55903500D01*
X124849903Y-55903500D01*
X124616631Y-55940446D01*
X124392003Y-56013433D01*
X124181566Y-56120657D01*
X124072550Y-56199862D01*
X123990490Y-56259483D01*
X123990488Y-56259485D01*
X123990487Y-56259485D01*
X123823485Y-56426487D01*
X123823485Y-56426488D01*
X123823483Y-56426490D01*
X123763862Y-56508550D01*
X123684657Y-56617566D01*
X123577433Y-56828003D01*
X123504446Y-57052631D01*
X123467500Y-57285902D01*
X87622530Y-57285902D01*
X87567547Y-57212455D01*
X87567544Y-57212452D01*
X87452335Y-57126206D01*
X87452328Y-57126202D01*
X87317482Y-57075908D01*
X87317483Y-57075908D01*
X87257883Y-57069501D01*
X87257881Y-57069500D01*
X87257873Y-57069500D01*
X87257864Y-57069500D01*
X85462129Y-57069500D01*
X85462123Y-57069501D01*
X85402516Y-57075908D01*
X85267671Y-57126202D01*
X85267664Y-57126206D01*
X85152455Y-57212452D01*
X85152452Y-57212455D01*
X85066206Y-57327664D01*
X85066202Y-57327671D01*
X85015908Y-57462517D01*
X85009504Y-57522092D01*
X85009501Y-57522123D01*
X85009500Y-57522135D01*
X83050500Y-57522135D01*
X83050500Y-54277153D01*
X115404500Y-54277153D01*
X115404500Y-54434846D01*
X115435261Y-54589489D01*
X115435264Y-54589501D01*
X115495602Y-54735172D01*
X115495609Y-54735185D01*
X115583210Y-54866288D01*
X115583213Y-54866292D01*
X115694707Y-54977786D01*
X115694711Y-54977789D01*
X115825814Y-55065390D01*
X115825827Y-55065397D01*
X115971498Y-55125735D01*
X115971503Y-55125737D01*
X116126153Y-55156499D01*
X116126156Y-55156500D01*
X116126158Y-55156500D01*
X116283844Y-55156500D01*
X116283845Y-55156499D01*
X116438497Y-55125737D01*
X116584179Y-55065394D01*
X116715289Y-54977789D01*
X116826789Y-54866289D01*
X116914394Y-54735179D01*
X116974737Y-54589497D01*
X117005500Y-54434842D01*
X117005500Y-54277158D01*
X117005500Y-54277155D01*
X117005499Y-54277153D01*
X116974738Y-54122510D01*
X116974737Y-54122503D01*
X116946404Y-54054100D01*
X116914397Y-53976827D01*
X116914390Y-53976814D01*
X116826789Y-53845711D01*
X116826786Y-53845707D01*
X116715292Y-53734213D01*
X116715288Y-53734210D01*
X116584185Y-53646609D01*
X116584172Y-53646602D01*
X116438501Y-53586264D01*
X116438489Y-53586261D01*
X116283845Y-53555500D01*
X116283842Y-53555500D01*
X116126158Y-53555500D01*
X116126155Y-53555500D01*
X115971510Y-53586261D01*
X115971498Y-53586264D01*
X115825827Y-53646602D01*
X115825814Y-53646609D01*
X115694711Y-53734210D01*
X115694707Y-53734213D01*
X115583213Y-53845707D01*
X115583210Y-53845711D01*
X115495609Y-53976814D01*
X115495602Y-53976827D01*
X115435264Y-54122498D01*
X115435261Y-54122510D01*
X115404500Y-54277153D01*
X83050500Y-54277153D01*
X83050500Y-53174753D01*
X120525100Y-53174753D01*
X120525100Y-53332446D01*
X120555861Y-53487089D01*
X120555864Y-53487101D01*
X120616202Y-53632772D01*
X120616209Y-53632785D01*
X120703810Y-53763888D01*
X120703813Y-53763892D01*
X120815307Y-53875386D01*
X120815311Y-53875389D01*
X120946414Y-53962990D01*
X120946427Y-53962997D01*
X121092098Y-54023335D01*
X121092103Y-54023337D01*
X121246753Y-54054099D01*
X121246756Y-54054100D01*
X121246758Y-54054100D01*
X121404444Y-54054100D01*
X121404445Y-54054099D01*
X121559097Y-54023337D01*
X121704779Y-53962994D01*
X121835889Y-53875389D01*
X121947389Y-53763889D01*
X122034994Y-53632779D01*
X122095337Y-53487097D01*
X122126100Y-53332442D01*
X122126100Y-53174758D01*
X122126100Y-53174755D01*
X122126099Y-53174753D01*
X122103694Y-53062117D01*
X122095337Y-53020103D01*
X122095335Y-53020098D01*
X122034997Y-52874427D01*
X122034990Y-52874414D01*
X121947389Y-52743311D01*
X121947386Y-52743307D01*
X121835892Y-52631813D01*
X121835888Y-52631810D01*
X121704785Y-52544209D01*
X121704772Y-52544202D01*
X121559101Y-52483864D01*
X121559089Y-52483861D01*
X121404445Y-52453100D01*
X121404442Y-52453100D01*
X121246758Y-52453100D01*
X121246755Y-52453100D01*
X121092110Y-52483861D01*
X121092098Y-52483864D01*
X120946427Y-52544202D01*
X120946414Y-52544209D01*
X120815311Y-52631810D01*
X120815307Y-52631813D01*
X120703813Y-52743307D01*
X120703810Y-52743311D01*
X120616209Y-52874414D01*
X120616202Y-52874427D01*
X120555864Y-53020098D01*
X120555861Y-53020110D01*
X120525100Y-53174753D01*
X83050500Y-53174753D01*
X83050500Y-51799502D01*
X132001900Y-51799502D01*
X132001900Y-52035697D01*
X132038846Y-52268968D01*
X132111833Y-52493596D01*
X132182258Y-52631811D01*
X132219057Y-52704033D01*
X132357883Y-52895110D01*
X132524890Y-53062117D01*
X132715967Y-53200943D01*
X132815391Y-53251602D01*
X132926403Y-53308166D01*
X132926405Y-53308166D01*
X132926408Y-53308168D01*
X133001122Y-53332444D01*
X133151031Y-53381153D01*
X133384303Y-53418100D01*
X133384308Y-53418100D01*
X133620497Y-53418100D01*
X133853768Y-53381153D01*
X134078392Y-53308168D01*
X134288833Y-53200943D01*
X134479910Y-53062117D01*
X134646917Y-52895110D01*
X134785743Y-52704033D01*
X134892968Y-52493592D01*
X134965953Y-52268968D01*
X135002900Y-52035697D01*
X135002900Y-51799502D01*
X134965953Y-51566231D01*
X134892966Y-51341603D01*
X134785742Y-51131166D01*
X134646917Y-50940090D01*
X134479910Y-50773083D01*
X134288833Y-50634257D01*
X134078396Y-50527033D01*
X133853768Y-50454046D01*
X133620497Y-50417100D01*
X133620492Y-50417100D01*
X133384308Y-50417100D01*
X133384303Y-50417100D01*
X133151031Y-50454046D01*
X132926403Y-50527033D01*
X132715966Y-50634257D01*
X132606950Y-50713462D01*
X132524890Y-50773083D01*
X132524888Y-50773085D01*
X132524887Y-50773085D01*
X132357885Y-50940087D01*
X132357885Y-50940088D01*
X132357883Y-50940090D01*
X132298262Y-51022150D01*
X132219057Y-51131166D01*
X132111833Y-51341603D01*
X132038846Y-51566231D01*
X132001900Y-51799502D01*
X83050500Y-51799502D01*
X83050500Y-48125186D01*
X85229500Y-48125186D01*
X85229500Y-48394813D01*
X85259686Y-48662719D01*
X85259687Y-48662728D01*
X85259688Y-48662732D01*
X85269918Y-48707553D01*
X85319684Y-48925594D01*
X85319687Y-48925602D01*
X85408734Y-49180082D01*
X85525714Y-49422994D01*
X85525716Y-49422997D01*
X85669162Y-49651289D01*
X85837266Y-49862085D01*
X86027915Y-50052734D01*
X86238711Y-50220838D01*
X86467003Y-50364284D01*
X86709921Y-50481267D01*
X86901049Y-50548145D01*
X86964397Y-50570312D01*
X86964405Y-50570315D01*
X86964408Y-50570315D01*
X86964409Y-50570316D01*
X87227268Y-50630312D01*
X87495187Y-50660499D01*
X87495188Y-50660500D01*
X87495191Y-50660500D01*
X87764812Y-50660500D01*
X87764812Y-50660499D01*
X88032732Y-50630312D01*
X88295591Y-50570316D01*
X88550079Y-50481267D01*
X88792997Y-50364284D01*
X89021289Y-50220838D01*
X89232085Y-50052734D01*
X89422734Y-49862085D01*
X89590838Y-49651289D01*
X89734284Y-49422997D01*
X89781885Y-49324153D01*
X118452500Y-49324153D01*
X118452500Y-49481846D01*
X118483261Y-49636489D01*
X118483264Y-49636501D01*
X118543602Y-49782172D01*
X118543609Y-49782185D01*
X118631210Y-49913288D01*
X118631213Y-49913292D01*
X118742707Y-50024786D01*
X118742711Y-50024789D01*
X118873814Y-50112390D01*
X118873827Y-50112397D01*
X119019498Y-50172735D01*
X119019503Y-50172737D01*
X119174153Y-50203499D01*
X119174156Y-50203500D01*
X119174158Y-50203500D01*
X119331844Y-50203500D01*
X119331845Y-50203499D01*
X119486497Y-50172737D01*
X119632179Y-50112394D01*
X119763289Y-50024789D01*
X119874789Y-49913289D01*
X119962394Y-49782179D01*
X120022737Y-49636497D01*
X120053500Y-49481842D01*
X120053500Y-49324158D01*
X120053500Y-49324155D01*
X120026786Y-49189858D01*
X120026785Y-49189856D01*
X120023185Y-49171753D01*
X123938900Y-49171753D01*
X123938900Y-49329446D01*
X123969661Y-49484089D01*
X123969664Y-49484101D01*
X124030002Y-49629772D01*
X124030009Y-49629785D01*
X124117610Y-49760888D01*
X124117613Y-49760892D01*
X124229107Y-49872386D01*
X124229111Y-49872389D01*
X124360214Y-49959990D01*
X124360227Y-49959997D01*
X124505898Y-50020335D01*
X124505903Y-50020337D01*
X124660553Y-50051099D01*
X124660556Y-50051100D01*
X124660558Y-50051100D01*
X124818244Y-50051100D01*
X124818245Y-50051099D01*
X124972897Y-50020337D01*
X125118579Y-49959994D01*
X125249689Y-49872389D01*
X125361189Y-49760889D01*
X125448794Y-49629779D01*
X125509137Y-49484097D01*
X125539900Y-49329442D01*
X125539900Y-49171758D01*
X125539900Y-49171755D01*
X125539899Y-49171753D01*
X125509138Y-49017110D01*
X125509137Y-49017103D01*
X125509135Y-49017098D01*
X125448797Y-48871427D01*
X125448790Y-48871414D01*
X125361189Y-48740311D01*
X125361186Y-48740307D01*
X125249692Y-48628813D01*
X125249688Y-48628810D01*
X125118585Y-48541209D01*
X125118572Y-48541202D01*
X124972901Y-48480864D01*
X124972889Y-48480861D01*
X124818245Y-48450100D01*
X124818242Y-48450100D01*
X124660558Y-48450100D01*
X124660555Y-48450100D01*
X124505910Y-48480861D01*
X124505898Y-48480864D01*
X124360227Y-48541202D01*
X124360214Y-48541209D01*
X124229111Y-48628810D01*
X124229107Y-48628813D01*
X124117613Y-48740307D01*
X124117610Y-48740311D01*
X124030009Y-48871414D01*
X124030002Y-48871427D01*
X123969664Y-49017098D01*
X123969661Y-49017110D01*
X123938900Y-49171753D01*
X120023185Y-49171753D01*
X120022737Y-49169503D01*
X120022735Y-49169498D01*
X119962397Y-49023827D01*
X119962390Y-49023814D01*
X119874789Y-48892711D01*
X119874786Y-48892707D01*
X119763292Y-48781213D01*
X119763288Y-48781210D01*
X119632185Y-48693609D01*
X119632172Y-48693602D01*
X119486501Y-48633264D01*
X119486489Y-48633261D01*
X119331845Y-48602500D01*
X119331842Y-48602500D01*
X119174158Y-48602500D01*
X119174155Y-48602500D01*
X119019510Y-48633261D01*
X119019498Y-48633264D01*
X118873827Y-48693602D01*
X118873814Y-48693609D01*
X118742711Y-48781210D01*
X118742707Y-48781213D01*
X118631213Y-48892707D01*
X118631210Y-48892711D01*
X118543609Y-49023814D01*
X118543602Y-49023827D01*
X118483264Y-49169498D01*
X118483261Y-49169510D01*
X118452500Y-49324153D01*
X89781885Y-49324153D01*
X89851267Y-49180079D01*
X89940316Y-48925591D01*
X90000312Y-48662732D01*
X90030500Y-48394809D01*
X90030500Y-48125191D01*
X90000312Y-47857268D01*
X89940316Y-47594409D01*
X89851267Y-47339921D01*
X89851264Y-47339916D01*
X89851262Y-47339909D01*
X89759536Y-47149437D01*
X89735969Y-47100502D01*
X95047200Y-47100502D01*
X95047200Y-47336697D01*
X95084146Y-47569968D01*
X95157133Y-47794596D01*
X95199647Y-47878033D01*
X95264357Y-48005033D01*
X95403183Y-48196110D01*
X95570190Y-48363117D01*
X95761267Y-48501943D01*
X95838317Y-48541202D01*
X95971703Y-48609166D01*
X95971705Y-48609166D01*
X95971708Y-48609168D01*
X96045865Y-48633263D01*
X96196331Y-48682153D01*
X96429603Y-48719100D01*
X96429608Y-48719100D01*
X96665797Y-48719100D01*
X96899068Y-48682153D01*
X96958839Y-48662732D01*
X97123692Y-48609168D01*
X97334133Y-48501943D01*
X97525210Y-48363117D01*
X97692217Y-48196110D01*
X97831043Y-48005033D01*
X97938268Y-47794592D01*
X98011253Y-47569968D01*
X98031368Y-47442968D01*
X98048200Y-47336697D01*
X98048200Y-47125902D01*
X103401500Y-47125902D01*
X103401500Y-47362097D01*
X103438446Y-47595368D01*
X103511433Y-47819996D01*
X103541005Y-47878033D01*
X103618657Y-48030433D01*
X103757483Y-48221510D01*
X103924490Y-48388517D01*
X104115567Y-48527343D01*
X104214991Y-48578002D01*
X104326003Y-48634566D01*
X104326005Y-48634566D01*
X104326008Y-48634568D01*
X104412648Y-48662719D01*
X104550631Y-48707553D01*
X104783903Y-48744500D01*
X104783908Y-48744500D01*
X105020097Y-48744500D01*
X105253368Y-48707553D01*
X105296292Y-48693606D01*
X105477992Y-48634568D01*
X105688433Y-48527343D01*
X105879510Y-48388517D01*
X106046517Y-48221510D01*
X106185343Y-48030433D01*
X106292568Y-47819992D01*
X106365553Y-47595368D01*
X106389691Y-47442968D01*
X106402500Y-47362097D01*
X106402500Y-47125902D01*
X106378362Y-46973502D01*
X132004200Y-46973502D01*
X132004200Y-47209697D01*
X132041146Y-47442968D01*
X132114133Y-47667596D01*
X132210777Y-47857268D01*
X132221357Y-47878033D01*
X132360183Y-48069110D01*
X132527190Y-48236117D01*
X132718267Y-48374943D01*
X132817691Y-48425602D01*
X132928703Y-48482166D01*
X132928705Y-48482166D01*
X132928708Y-48482168D01*
X133049112Y-48521289D01*
X133153331Y-48555153D01*
X133386603Y-48592100D01*
X133386608Y-48592100D01*
X133622797Y-48592100D01*
X133856068Y-48555153D01*
X133898992Y-48541206D01*
X134080692Y-48482168D01*
X134291133Y-48374943D01*
X134482210Y-48236117D01*
X134593141Y-48125186D01*
X139839500Y-48125186D01*
X139839500Y-48394813D01*
X139869686Y-48662719D01*
X139869687Y-48662728D01*
X139869688Y-48662732D01*
X139879918Y-48707553D01*
X139929684Y-48925594D01*
X139929687Y-48925602D01*
X140018734Y-49180082D01*
X140135714Y-49422994D01*
X140135716Y-49422997D01*
X140279162Y-49651289D01*
X140447266Y-49862085D01*
X140637915Y-50052734D01*
X140848711Y-50220838D01*
X141077003Y-50364284D01*
X141319921Y-50481267D01*
X141511049Y-50548145D01*
X141574397Y-50570312D01*
X141574405Y-50570315D01*
X141574408Y-50570315D01*
X141574409Y-50570316D01*
X141837268Y-50630312D01*
X142105187Y-50660499D01*
X142105188Y-50660500D01*
X142105191Y-50660500D01*
X142374812Y-50660500D01*
X142374812Y-50660499D01*
X142642732Y-50630312D01*
X142905591Y-50570316D01*
X143160079Y-50481267D01*
X143402997Y-50364284D01*
X143631289Y-50220838D01*
X143842085Y-50052734D01*
X144032734Y-49862085D01*
X144200838Y-49651289D01*
X144344284Y-49422997D01*
X144461267Y-49180079D01*
X144550316Y-48925591D01*
X144610312Y-48662732D01*
X144640500Y-48394809D01*
X144640500Y-48125191D01*
X144610312Y-47857268D01*
X144550316Y-47594409D01*
X144461267Y-47339921D01*
X144344284Y-47097003D01*
X144200838Y-46868711D01*
X144032734Y-46657915D01*
X143842085Y-46467266D01*
X143631289Y-46299162D01*
X143402997Y-46155716D01*
X143402994Y-46155714D01*
X143160082Y-46038734D01*
X142905602Y-45949687D01*
X142905594Y-45949684D01*
X142708446Y-45904687D01*
X142642732Y-45889688D01*
X142642728Y-45889687D01*
X142642719Y-45889686D01*
X142374813Y-45859500D01*
X142374809Y-45859500D01*
X142105191Y-45859500D01*
X142105186Y-45859500D01*
X141837280Y-45889686D01*
X141837268Y-45889688D01*
X141574405Y-45949684D01*
X141574397Y-45949687D01*
X141319917Y-46038734D01*
X141077005Y-46155714D01*
X140848712Y-46299161D01*
X140637915Y-46467265D01*
X140447265Y-46657915D01*
X140279161Y-46868712D01*
X140135714Y-47097005D01*
X140018734Y-47339917D01*
X139929687Y-47594397D01*
X139929684Y-47594405D01*
X139869688Y-47857268D01*
X139869686Y-47857280D01*
X139839500Y-48125186D01*
X134593141Y-48125186D01*
X134649217Y-48069110D01*
X134788043Y-47878033D01*
X134895268Y-47667592D01*
X134968253Y-47442968D01*
X134981062Y-47362097D01*
X135005200Y-47209697D01*
X135005200Y-46973502D01*
X134968253Y-46740231D01*
X134895266Y-46515603D01*
X134788042Y-46305166D01*
X134759942Y-46266490D01*
X134649217Y-46114090D01*
X134482210Y-45947083D01*
X134291133Y-45808257D01*
X134236551Y-45780446D01*
X134080696Y-45701033D01*
X133856068Y-45628046D01*
X133622797Y-45591100D01*
X133622792Y-45591100D01*
X133386608Y-45591100D01*
X133386603Y-45591100D01*
X133153331Y-45628046D01*
X132928703Y-45701033D01*
X132718266Y-45808257D01*
X132647737Y-45859500D01*
X132527190Y-45947083D01*
X132527188Y-45947085D01*
X132527187Y-45947085D01*
X132360185Y-46114087D01*
X132360185Y-46114088D01*
X132360183Y-46114090D01*
X132329940Y-46155716D01*
X132221357Y-46305166D01*
X132114133Y-46515603D01*
X132041146Y-46740231D01*
X132004200Y-46973502D01*
X106378362Y-46973502D01*
X106365553Y-46892631D01*
X106310367Y-46722789D01*
X106292568Y-46668008D01*
X106292566Y-46668005D01*
X106292566Y-46668003D01*
X106196864Y-46480179D01*
X106185343Y-46457567D01*
X106046517Y-46266490D01*
X105879510Y-46099483D01*
X105773075Y-46022153D01*
X112483500Y-46022153D01*
X112483500Y-46179846D01*
X112514261Y-46334489D01*
X112514264Y-46334501D01*
X112574602Y-46480172D01*
X112574609Y-46480185D01*
X112662210Y-46611288D01*
X112662213Y-46611292D01*
X112773707Y-46722786D01*
X112773711Y-46722789D01*
X112904814Y-46810390D01*
X112904827Y-46810397D01*
X113042041Y-46867232D01*
X113050503Y-46870737D01*
X113160571Y-46892631D01*
X113205153Y-46901499D01*
X113205156Y-46901500D01*
X113205158Y-46901500D01*
X113362844Y-46901500D01*
X113362845Y-46901499D01*
X113517497Y-46870737D01*
X113535082Y-46863452D01*
X113557724Y-46854075D01*
X113663172Y-46810397D01*
X113663172Y-46810396D01*
X113663179Y-46810394D01*
X113794289Y-46722789D01*
X113905789Y-46611289D01*
X113993394Y-46480179D01*
X114053737Y-46334497D01*
X114084500Y-46179842D01*
X114084500Y-46022158D01*
X114084500Y-46022155D01*
X114084499Y-46022153D01*
X114053737Y-45867503D01*
X114029197Y-45808257D01*
X113993397Y-45721827D01*
X113993390Y-45721814D01*
X113905789Y-45590711D01*
X113905786Y-45590707D01*
X113794292Y-45479213D01*
X113794288Y-45479210D01*
X113663185Y-45391609D01*
X113663172Y-45391602D01*
X113517501Y-45331264D01*
X113517489Y-45331261D01*
X113362845Y-45300500D01*
X113362842Y-45300500D01*
X113205158Y-45300500D01*
X113205155Y-45300500D01*
X113050510Y-45331261D01*
X113050498Y-45331264D01*
X112904827Y-45391602D01*
X112904814Y-45391609D01*
X112773711Y-45479210D01*
X112773707Y-45479213D01*
X112662213Y-45590707D01*
X112662210Y-45590711D01*
X112574609Y-45721814D01*
X112574602Y-45721827D01*
X112514264Y-45867498D01*
X112514261Y-45867510D01*
X112483500Y-46022153D01*
X105773075Y-46022153D01*
X105688433Y-45960657D01*
X105666897Y-45949684D01*
X105477996Y-45853433D01*
X105253368Y-45780446D01*
X105020097Y-45743500D01*
X105020092Y-45743500D01*
X104783908Y-45743500D01*
X104783903Y-45743500D01*
X104550631Y-45780446D01*
X104326003Y-45853433D01*
X104115566Y-45960657D01*
X104030918Y-46022158D01*
X103924490Y-46099483D01*
X103924488Y-46099485D01*
X103924487Y-46099485D01*
X103757485Y-46266487D01*
X103757485Y-46266488D01*
X103757483Y-46266490D01*
X103708079Y-46334489D01*
X103618657Y-46457566D01*
X103511433Y-46668003D01*
X103438446Y-46892631D01*
X103401500Y-47125902D01*
X98048200Y-47125902D01*
X98048200Y-47100502D01*
X98011253Y-46867231D01*
X97946519Y-46668003D01*
X97938268Y-46642608D01*
X97938266Y-46642605D01*
X97938266Y-46642603D01*
X97831042Y-46432166D01*
X97692217Y-46241090D01*
X97525210Y-46074083D01*
X97334133Y-45935257D01*
X97123696Y-45828033D01*
X96899068Y-45755046D01*
X96665797Y-45718100D01*
X96665792Y-45718100D01*
X96429608Y-45718100D01*
X96429603Y-45718100D01*
X96196331Y-45755046D01*
X95971703Y-45828033D01*
X95761266Y-45935257D01*
X95652250Y-46014462D01*
X95570190Y-46074083D01*
X95570188Y-46074085D01*
X95570187Y-46074085D01*
X95403185Y-46241087D01*
X95403185Y-46241088D01*
X95403183Y-46241090D01*
X95384729Y-46266490D01*
X95264357Y-46432166D01*
X95157133Y-46642603D01*
X95084146Y-46867231D01*
X95047200Y-47100502D01*
X89735969Y-47100502D01*
X89734285Y-47097005D01*
X89734284Y-47097003D01*
X89590838Y-46868711D01*
X89422734Y-46657915D01*
X89232085Y-46467266D01*
X89021289Y-46299162D01*
X88792997Y-46155716D01*
X88792994Y-46155714D01*
X88550082Y-46038734D01*
X88295602Y-45949687D01*
X88295594Y-45949684D01*
X88098446Y-45904687D01*
X88032732Y-45889688D01*
X88032728Y-45889687D01*
X88032719Y-45889686D01*
X87764813Y-45859500D01*
X87764809Y-45859500D01*
X87495191Y-45859500D01*
X87495186Y-45859500D01*
X87227280Y-45889686D01*
X87227268Y-45889688D01*
X86964405Y-45949684D01*
X86964397Y-45949687D01*
X86709917Y-46038734D01*
X86467005Y-46155714D01*
X86238712Y-46299161D01*
X86027915Y-46467265D01*
X85837265Y-46657915D01*
X85669161Y-46868712D01*
X85525714Y-47097005D01*
X85408734Y-47339917D01*
X85319687Y-47594397D01*
X85319684Y-47594405D01*
X85259688Y-47857268D01*
X85259686Y-47857280D01*
X85229500Y-48125186D01*
X83050500Y-48125186D01*
X83050500Y-43804500D01*
X83070185Y-43737461D01*
X83122989Y-43691706D01*
X83174500Y-43680500D01*
X146695500Y-43680500D01*
X146762539Y-43700185D01*
G37*
%TD.AperFunction*%
%TD*%
M02*
