%TF.GenerationSoftware,KiCad,Pcbnew,9.0.2-9.0.2-0~ubuntu24.04.1*%
%TF.CreationDate,2025-05-09T12:29:09-04:00*%
%TF.ProjectId,vreg-dac-lt3014,76726567-2d64-4616-932d-6c7433303134,rev?*%
%TF.SameCoordinates,Original*%
%TF.FileFunction,Copper,L1,Top*%
%TF.FilePolarity,Positive*%
%FSLAX46Y46*%
G04 Gerber Fmt 4.6, Leading zero omitted, Abs format (unit mm)*
G04 Created by KiCad (PCBNEW 9.0.2-9.0.2-0~ubuntu24.04.1) date 2025-05-09 12:29:09*
%MOMM*%
%LPD*%
G01*
G04 APERTURE LIST*
G04 Aperture macros list*
%AMRoundRect*
0 Rectangle with rounded corners*
0 $1 Rounding radius*
0 $2 $3 $4 $5 $6 $7 $8 $9 X,Y pos of 4 corners*
0 Add a 4 corners polygon primitive as box body*
4,1,4,$2,$3,$4,$5,$6,$7,$8,$9,$2,$3,0*
0 Add four circle primitives for the rounded corners*
1,1,$1+$1,$2,$3*
1,1,$1+$1,$4,$5*
1,1,$1+$1,$6,$7*
1,1,$1+$1,$8,$9*
0 Add four rect primitives between the rounded corners*
20,1,$1+$1,$2,$3,$4,$5,0*
20,1,$1+$1,$4,$5,$6,$7,0*
20,1,$1+$1,$6,$7,$8,$9,0*
20,1,$1+$1,$8,$9,$2,$3,0*%
%AMFreePoly0*
4,1,37,0.800000,0.796148,0.878414,0.796148,1.032228,0.765552,1.177117,0.705537,1.307515,0.618408,1.418408,0.507515,1.505537,0.377117,1.565552,0.232228,1.596148,0.078414,1.596148,-0.078414,1.565552,-0.232228,1.505537,-0.377117,1.418408,-0.507515,1.307515,-0.618408,1.177117,-0.705537,1.032228,-0.765552,0.878414,-0.796148,0.800000,-0.796148,0.800000,-0.800000,-1.400000,-0.800000,
-1.403843,-0.796157,-1.439018,-0.796157,-1.511114,-0.766294,-1.566294,-0.711114,-1.596157,-0.639018,-1.596157,-0.603843,-1.600000,-0.600000,-1.600000,0.600000,-1.596157,0.603843,-1.596157,0.639018,-1.566294,0.711114,-1.511114,0.766294,-1.439018,0.796157,-1.403843,0.796157,-1.400000,0.800000,0.800000,0.800000,0.800000,0.796148,0.800000,0.796148,$1*%
%AMFreePoly1*
4,1,37,1.403843,0.796157,1.439018,0.796157,1.511114,0.766294,1.566294,0.711114,1.596157,0.639018,1.596157,0.603843,1.600000,0.600000,1.600000,-0.600000,1.596157,-0.603843,1.596157,-0.639018,1.566294,-0.711114,1.511114,-0.766294,1.439018,-0.796157,1.403843,-0.796157,1.400000,-0.800000,-0.800000,-0.800000,-0.800000,-0.796148,-0.878414,-0.796148,-1.032228,-0.765552,-1.177117,-0.705537,
-1.307515,-0.618408,-1.418408,-0.507515,-1.505537,-0.377117,-1.565552,-0.232228,-1.596148,-0.078414,-1.596148,0.078414,-1.565552,0.232228,-1.505537,0.377117,-1.418408,0.507515,-1.307515,0.618408,-1.177117,0.705537,-1.032228,0.765552,-0.878414,0.796148,-0.800000,0.796148,-0.800000,0.800000,1.400000,0.800000,1.403843,0.796157,1.403843,0.796157,$1*%
%AMFreePoly2*
4,1,37,0.603843,0.796157,0.639018,0.796157,0.711114,0.766294,0.766294,0.711114,0.796157,0.639018,0.796157,0.603843,0.800000,0.600000,0.800000,-0.600000,0.796157,-0.603843,0.796157,-0.639018,0.766294,-0.711114,0.711114,-0.766294,0.639018,-0.796157,0.603843,-0.796157,0.600000,-0.800000,0.000000,-0.800000,0.000000,-0.796148,-0.078414,-0.796148,-0.232228,-0.765552,-0.377117,-0.705537,
-0.507515,-0.618408,-0.618408,-0.507515,-0.705537,-0.377117,-0.765552,-0.232228,-0.796148,-0.078414,-0.796148,0.078414,-0.765552,0.232228,-0.705537,0.377117,-0.618408,0.507515,-0.507515,0.618408,-0.377117,0.705537,-0.232228,0.765552,-0.078414,0.796148,0.000000,0.796148,0.000000,0.800000,0.600000,0.800000,0.603843,0.796157,0.603843,0.796157,$1*%
%AMFreePoly3*
4,1,37,0.000000,0.796148,0.078414,0.796148,0.232228,0.765552,0.377117,0.705537,0.507515,0.618408,0.618408,0.507515,0.705537,0.377117,0.765552,0.232228,0.796148,0.078414,0.796148,-0.078414,0.765552,-0.232228,0.705537,-0.377117,0.618408,-0.507515,0.507515,-0.618408,0.377117,-0.705537,0.232228,-0.765552,0.078414,-0.796148,0.000000,-0.796148,0.000000,-0.800000,-0.600000,-0.800000,
-0.603843,-0.796157,-0.639018,-0.796157,-0.711114,-0.766294,-0.766294,-0.711114,-0.796157,-0.639018,-0.796157,-0.603843,-0.800000,-0.600000,-0.800000,0.600000,-0.796157,0.603843,-0.796157,0.639018,-0.766294,0.711114,-0.711114,0.766294,-0.639018,0.796157,-0.603843,0.796157,-0.600000,0.800000,0.000000,0.800000,0.000000,0.796148,0.000000,0.796148,$1*%
G04 Aperture macros list end*
%TA.AperFunction,SMDPad,CuDef*%
%ADD10RoundRect,0.150000X-0.587500X-0.150000X0.587500X-0.150000X0.587500X0.150000X-0.587500X0.150000X0*%
%TD*%
%TA.AperFunction,ComponentPad*%
%ADD11C,2.000000*%
%TD*%
%TA.AperFunction,SMDPad,CuDef*%
%ADD12RoundRect,0.237500X-0.300000X-0.237500X0.300000X-0.237500X0.300000X0.237500X-0.300000X0.237500X0*%
%TD*%
%TA.AperFunction,SMDPad,CuDef*%
%ADD13RoundRect,0.237500X0.250000X0.237500X-0.250000X0.237500X-0.250000X-0.237500X0.250000X-0.237500X0*%
%TD*%
%TA.AperFunction,SMDPad,CuDef*%
%ADD14RoundRect,0.237500X-0.250000X-0.237500X0.250000X-0.237500X0.250000X0.237500X-0.250000X0.237500X0*%
%TD*%
%TA.AperFunction,SMDPad,CuDef*%
%ADD15RoundRect,0.237500X0.300000X0.237500X-0.300000X0.237500X-0.300000X-0.237500X0.300000X-0.237500X0*%
%TD*%
%TA.AperFunction,SMDPad,CuDef*%
%ADD16RoundRect,0.237500X-0.287500X-0.237500X0.287500X-0.237500X0.287500X0.237500X-0.287500X0.237500X0*%
%TD*%
%TA.AperFunction,ComponentPad*%
%ADD17R,1.700000X1.700000*%
%TD*%
%TA.AperFunction,ComponentPad*%
%ADD18C,1.700000*%
%TD*%
%TA.AperFunction,SMDPad,CuDef*%
%ADD19RoundRect,0.150000X-0.825000X-0.150000X0.825000X-0.150000X0.825000X0.150000X-0.825000X0.150000X0*%
%TD*%
%TA.AperFunction,SMDPad,CuDef*%
%ADD20RoundRect,0.150000X-0.512500X-0.150000X0.512500X-0.150000X0.512500X0.150000X-0.512500X0.150000X0*%
%TD*%
%TA.AperFunction,SMDPad,CuDef*%
%ADD21FreePoly0,90.000000*%
%TD*%
%TA.AperFunction,ComponentPad*%
%ADD22RoundRect,0.200000X0.600000X-0.600000X0.600000X0.600000X-0.600000X0.600000X-0.600000X-0.600000X0*%
%TD*%
%TA.AperFunction,SMDPad,CuDef*%
%ADD23RoundRect,0.800000X0.000010X-0.800000X0.000010X0.800000X-0.000010X0.800000X-0.000010X-0.800000X0*%
%TD*%
%TA.AperFunction,ComponentPad*%
%ADD24C,1.600000*%
%TD*%
%TA.AperFunction,SMDPad,CuDef*%
%ADD25FreePoly1,90.000000*%
%TD*%
%TA.AperFunction,ComponentPad*%
%ADD26FreePoly2,90.000000*%
%TD*%
%TA.AperFunction,ComponentPad*%
%ADD27FreePoly3,90.000000*%
%TD*%
%TA.AperFunction,SMDPad,CuDef*%
%ADD28RoundRect,0.087500X0.725000X0.087500X-0.725000X0.087500X-0.725000X-0.087500X0.725000X-0.087500X0*%
%TD*%
%TA.AperFunction,ViaPad*%
%ADD29C,0.600000*%
%TD*%
%TA.AperFunction,Conductor*%
%ADD30C,0.200000*%
%TD*%
%TA.AperFunction,Conductor*%
%ADD31C,0.635000*%
%TD*%
%TA.AperFunction,Conductor*%
%ADD32C,0.381000*%
%TD*%
G04 APERTURE END LIST*
D10*
%TO.P,Q5,1,G*%
%TO.N,/RESET*%
X113390200Y-67543600D03*
%TO.P,Q5,2,S*%
%TO.N,GND*%
X113390200Y-69443600D03*
%TO.P,Q5,3,D*%
%TO.N,Net-(Q5-D)*%
X115265200Y-68493600D03*
%TD*%
%TO.P,Q3,1,G*%
%TO.N,Net-(Q3-G)*%
X113390200Y-57063600D03*
%TO.P,Q3,2,S*%
%TO.N,GND*%
X113390200Y-58963600D03*
%TO.P,Q3,3,D*%
%TO.N,/SHDN*%
X115265200Y-58013600D03*
%TD*%
%TO.P,Q4,1,G*%
%TO.N,/SHUTDOWN*%
X113390200Y-62143600D03*
%TO.P,Q4,2,S*%
%TO.N,GND*%
X113390200Y-64043600D03*
%TO.P,Q4,3,D*%
%TO.N,/SHDN*%
X115265200Y-63093600D03*
%TD*%
D11*
%TO.P,TP7,1,1*%
%TO.N,/IMON*%
X101092000Y-75133200D03*
%TD*%
D12*
%TO.P,C8,1*%
%TO.N,Net-(U1-ADJ)*%
X128932700Y-61442600D03*
%TO.P,C8,2*%
%TO.N,GND*%
X130657700Y-61442600D03*
%TD*%
D13*
%TO.P,R14,1*%
%TO.N,Net-(U3-V_{IN-})*%
X105971100Y-54051200D03*
%TO.P,R14,2*%
%TO.N,Net-(U1-VIN)*%
X104146100Y-54051200D03*
%TD*%
D14*
%TO.P,R9,1*%
%TO.N,Net-(J1-Pin_1)*%
X133838700Y-55854600D03*
%TO.P,R9,2*%
%TO.N,/VSENSE*%
X135663700Y-55854600D03*
%TD*%
D15*
%TO.P,C4,1*%
%TO.N,Net-(U1-VIN)*%
X121921200Y-49377600D03*
%TO.P,C4,2*%
%TO.N,GND*%
X120196200Y-49377600D03*
%TD*%
D16*
%TO.P,D1,1,K*%
%TO.N,/SHDN*%
X113374200Y-47091600D03*
%TO.P,D1,2,A*%
%TO.N,Net-(D1-A)*%
X115124200Y-47091600D03*
%TD*%
D17*
%TO.P,J3,1,Pin_1*%
%TO.N,+3.3V*%
X86360000Y-72385000D03*
D18*
%TO.P,J3,2,Pin_2*%
%TO.N,GND*%
X86360000Y-74925000D03*
%TD*%
D14*
%TO.P,R3,1*%
%TO.N,Net-(U1-ADJ)*%
X128881500Y-57658000D03*
%TO.P,R3,2*%
%TO.N,Net-(U4-A)*%
X130706500Y-57658000D03*
%TD*%
D17*
%TO.P,J2,1,Pin_1*%
%TO.N,Net-(J2-Pin_1)*%
X86360000Y-58420000D03*
D18*
%TO.P,J2,2,Pin_2*%
%TO.N,GND*%
X86360000Y-60960000D03*
%TD*%
D15*
%TO.P,C5,1*%
%TO.N,Net-(J1-Pin_1)*%
X127482700Y-49250600D03*
%TO.P,C5,2*%
%TO.N,GND*%
X125757700Y-49250600D03*
%TD*%
D13*
%TO.P,R10,1*%
%TO.N,/VSENSE*%
X135687200Y-58013600D03*
%TO.P,R10,2*%
%TO.N,GND*%
X133862200Y-58013600D03*
%TD*%
D14*
%TO.P,R4,1*%
%TO.N,+3.3V*%
X108815500Y-56591200D03*
%TO.P,R4,2*%
%TO.N,Net-(Q3-G)*%
X110640500Y-56591200D03*
%TD*%
D12*
%TO.P,C10,1*%
%TO.N,Net-(U3-V_{IN+})*%
X104094500Y-56489600D03*
%TO.P,C10,2*%
%TO.N,Net-(U3-V_{IN-})*%
X105819500Y-56489600D03*
%TD*%
D13*
%TO.P,R13,1*%
%TO.N,Net-(U3-V_{IN+})*%
X101627700Y-54051200D03*
%TO.P,R13,2*%
%TO.N,Net-(J2-Pin_1)*%
X99802700Y-54051200D03*
%TD*%
D14*
%TO.P,R16,1*%
%TO.N,/RESET*%
X108563400Y-69545200D03*
%TO.P,R16,2*%
%TO.N,GND*%
X110388400Y-69545200D03*
%TD*%
D16*
%TO.P,D3,1,K*%
%TO.N,GND*%
X94121000Y-105359200D03*
%TO.P,D3,2,A*%
%TO.N,Net-(D3-A)*%
X95871000Y-105359200D03*
%TD*%
D11*
%TO.P,TP4,1,1*%
%TO.N,Net-(J1-Pin_1)*%
X133504700Y-47091600D03*
%TD*%
D16*
%TO.P,D2,1,K*%
%TO.N,GND*%
X85383400Y-66802000D03*
%TO.P,D2,2,A*%
%TO.N,Net-(D2-A)*%
X87133400Y-66802000D03*
%TD*%
D13*
%TO.P,R15,1*%
%TO.N,+3.3V*%
X110386500Y-67513200D03*
%TO.P,R15,2*%
%TO.N,Net-(Q5-D)*%
X108561500Y-67513200D03*
%TD*%
D19*
%TO.P,U3,1,V_{s}*%
%TO.N,+3.3V*%
X100041700Y-60045600D03*
%TO.P,U3,2,OUT*%
%TO.N,/IMON*%
X100041700Y-61315600D03*
%TO.P,U3,3,CMP_{IN}*%
%TO.N,Net-(U3-CMP_{IN})*%
X100041700Y-62585600D03*
%TO.P,U3,4,GND*%
%TO.N,GND*%
X100041700Y-63855600D03*
%TO.P,U3,5,~{RESET}*%
%TO.N,Net-(Q5-D)*%
X104991700Y-63855600D03*
%TO.P,U3,6,CMP_{OUT}*%
%TO.N,Net-(Q3-G)*%
X104991700Y-62585600D03*
%TO.P,U3,7,V_{IN-}*%
%TO.N,Net-(U3-V_{IN-})*%
X104991700Y-61315600D03*
%TO.P,U3,8,V_{IN+}*%
%TO.N,Net-(U3-V_{IN+})*%
X104991700Y-60045600D03*
%TD*%
D13*
%TO.P,R7,1*%
%TO.N,/SHUTDOWN*%
X110644700Y-62204600D03*
%TO.P,R7,2*%
%TO.N,GND*%
X108819700Y-62204600D03*
%TD*%
D17*
%TO.P,J5,1,Pin_1*%
%TO.N,/GP0{slash}TX*%
X98552000Y-110744000D03*
D18*
%TO.P,J5,2,Pin_2*%
%TO.N,/GP1{slash}RX*%
X101092000Y-110744000D03*
%TO.P,J5,3,Pin_3*%
%TO.N,/GP2*%
X103632000Y-110744000D03*
%TO.P,J5,4,Pin_4*%
%TO.N,GND*%
X106172000Y-110744000D03*
%TD*%
D13*
%TO.P,R17,1*%
%TO.N,/LED1*%
X99667700Y-105359200D03*
%TO.P,R17,2*%
%TO.N,Net-(D3-A)*%
X97842700Y-105359200D03*
%TD*%
%TO.P,R18,1*%
%TO.N,/LED2*%
X108227500Y-105410000D03*
%TO.P,R18,2*%
%TO.N,Net-(D4-A)*%
X106402500Y-105410000D03*
%TD*%
D20*
%TO.P,U1,1,VIN*%
%TO.N,Net-(U1-VIN)*%
X122582700Y-52303600D03*
%TO.P,U1,2,GND*%
%TO.N,GND*%
X122582700Y-53253600D03*
%TO.P,U1,3,~{SHDN}*%
%TO.N,/SHDN*%
X122582700Y-54203600D03*
%TO.P,U1,4,ADJ*%
%TO.N,Net-(U1-ADJ)*%
X124857700Y-54203600D03*
%TO.P,U1,5,VOUT*%
%TO.N,Net-(J1-Pin_1)*%
X124857700Y-52303600D03*
%TD*%
D11*
%TO.P,TP10,1,1*%
%TO.N,GND*%
X139700000Y-73660000D03*
%TD*%
D14*
%TO.P,R8,1*%
%TO.N,+3.3V*%
X94794700Y-66852800D03*
%TO.P,R8,2*%
%TO.N,Net-(D2-A)*%
X96619700Y-66852800D03*
%TD*%
D13*
%TO.P,R2,1*%
%TO.N,Net-(J1-Pin_1)*%
X130710700Y-55727600D03*
%TO.P,R2,2*%
%TO.N,Net-(U1-ADJ)*%
X128885700Y-55727600D03*
%TD*%
D17*
%TO.P,JP1,1,A*%
%TO.N,Net-(A1-3V3)*%
X107061000Y-75946000D03*
D18*
%TO.P,JP1,2,B*%
%TO.N,+3.3V*%
X107061000Y-73406000D03*
%TD*%
D14*
%TO.P,R12,1*%
%TO.N,Net-(U3-CMP_{IN})*%
X94847400Y-64414400D03*
%TO.P,R12,2*%
%TO.N,GND*%
X96672400Y-64414400D03*
%TD*%
%TO.P,R1,1*%
%TO.N,Net-(J2-Pin_1)*%
X99802700Y-51384200D03*
%TO.P,R1,2*%
%TO.N,Net-(U1-VIN)*%
X101627700Y-51384200D03*
%TD*%
D11*
%TO.P,TP9,1,1*%
%TO.N,GND*%
X95554800Y-74930000D03*
%TD*%
D14*
%TO.P,R6,1*%
%TO.N,+3.3V*%
X113338600Y-49149000D03*
%TO.P,R6,2*%
%TO.N,Net-(D1-A)*%
X115163600Y-49149000D03*
%TD*%
D13*
%TO.P,R11,1*%
%TO.N,/IMON*%
X96672400Y-61925200D03*
%TO.P,R11,2*%
%TO.N,Net-(U3-CMP_{IN})*%
X94847400Y-61925200D03*
%TD*%
D15*
%TO.P,C6,1*%
%TO.N,+3.3V*%
X125704700Y-68173600D03*
%TO.P,C6,2*%
%TO.N,GND*%
X123979700Y-68173600D03*
%TD*%
D16*
%TO.P,D4,1,K*%
%TO.N,GND*%
X102630000Y-105410000D03*
%TO.P,D4,2,A*%
%TO.N,Net-(D4-A)*%
X104380000Y-105410000D03*
%TD*%
D12*
%TO.P,C7,1*%
%TO.N,Net-(U4-EXT_CAP)*%
X124006200Y-61569600D03*
%TO.P,C7,2*%
%TO.N,GND*%
X125731200Y-61569600D03*
%TD*%
D11*
%TO.P,TP1,1,1*%
%TO.N,Net-(U4-A)*%
X135280400Y-61518800D03*
%TD*%
%TO.P,TP3,1,1*%
%TO.N,Net-(U1-VIN)*%
X104902000Y-47244000D03*
%TD*%
D15*
%TO.P,C9,1*%
%TO.N,+3.3V*%
X96622800Y-59766200D03*
%TO.P,C9,2*%
%TO.N,GND*%
X94897800Y-59766200D03*
%TD*%
D21*
%TO.P,A1,1,GPIO0*%
%TO.N,/LED1*%
X90805000Y-100495000D03*
D22*
X90805000Y-99695000D03*
D23*
%TO.P,A1,2,GPIO1*%
%TO.N,/LED2*%
X93345000Y-100495000D03*
D24*
X93345000Y-99695000D03*
D25*
%TO.P,A1,3,GND*%
%TO.N,GND*%
X95885000Y-100495000D03*
D26*
X95885000Y-99695000D03*
D23*
%TO.P,A1,4,GPIO2*%
%TO.N,unconnected-(A1-GPIO2-Pad4)*%
X98425000Y-100495000D03*
D24*
X98425000Y-99695000D03*
D23*
%TO.P,A1,5,GPIO3*%
%TO.N,unconnected-(A1-GPIO3-Pad5)*%
X100965000Y-100495000D03*
D24*
X100965000Y-99695000D03*
D23*
%TO.P,A1,6,GPIO4*%
%TO.N,/GP0{slash}TX*%
X103505000Y-100495000D03*
D24*
X103505000Y-99695000D03*
D23*
%TO.P,A1,7,GPIO5*%
%TO.N,/GP1{slash}RX*%
X106045000Y-100495000D03*
D24*
X106045000Y-99695000D03*
D25*
%TO.P,A1,8,GND*%
%TO.N,GND*%
X108585000Y-100495000D03*
D26*
X108585000Y-99695000D03*
D23*
%TO.P,A1,9,GPIO6*%
%TO.N,/GP2*%
X111125000Y-100495000D03*
D24*
X111125000Y-99695000D03*
D23*
%TO.P,A1,10,GPIO7*%
%TO.N,unconnected-(A1-GPIO7-Pad10)*%
X113665000Y-100495000D03*
D24*
X113665000Y-99695000D03*
D23*
%TO.P,A1,11,GPIO8*%
%TO.N,unconnected-(A1-GPIO8-Pad11)*%
X116205000Y-100495000D03*
D24*
X116205000Y-99695000D03*
D23*
%TO.P,A1,12,GPIO9*%
%TO.N,unconnected-(A1-GPIO9-Pad12)*%
X118745000Y-100495000D03*
D24*
X118745000Y-99695000D03*
D25*
%TO.P,A1,13,GND*%
%TO.N,GND*%
X121285000Y-100495000D03*
D26*
X121285000Y-99695000D03*
D23*
%TO.P,A1,14,GPIO10*%
%TO.N,unconnected-(A1-GPIO10-Pad14)*%
X123825000Y-100495000D03*
D24*
X123825000Y-99695000D03*
D23*
%TO.P,A1,15,GPIO11*%
%TO.N,unconnected-(A1-GPIO11-Pad15)*%
X126365000Y-100495000D03*
D24*
X126365000Y-99695000D03*
D23*
%TO.P,A1,16,GPIO12*%
%TO.N,unconnected-(A1-GPIO12-Pad16)*%
X128905000Y-100495000D03*
D24*
X128905000Y-99695000D03*
D23*
%TO.P,A1,17,GPIO13*%
%TO.N,unconnected-(A1-GPIO13-Pad17)*%
X131445000Y-100495000D03*
D24*
X131445000Y-99695000D03*
D25*
%TO.P,A1,18,GND*%
%TO.N,GND*%
X133985000Y-100495000D03*
D26*
X133985000Y-99695000D03*
D23*
%TO.P,A1,19,GPIO14*%
%TO.N,unconnected-(A1-GPIO14-Pad19)*%
X136525000Y-100495000D03*
D24*
X136525000Y-99695000D03*
D23*
%TO.P,A1,20,GPIO15*%
%TO.N,unconnected-(A1-GPIO15-Pad20)*%
X139065000Y-100495000D03*
D24*
X139065000Y-99695000D03*
%TO.P,A1,21,GPIO16*%
%TO.N,unconnected-(A1-GPIO16-Pad21)*%
X139065000Y-81915000D03*
D23*
X139065000Y-81115000D03*
D24*
%TO.P,A1,22,GPIO17*%
%TO.N,/~{SYNC}*%
X136525000Y-81915000D03*
D23*
X136525000Y-81115000D03*
D27*
%TO.P,A1,23,GND*%
%TO.N,GND*%
X133985000Y-81915000D03*
D21*
X133985000Y-81115000D03*
D24*
%TO.P,A1,24,GPIO18*%
%TO.N,/SCLK*%
X131445000Y-81915000D03*
D23*
X131445000Y-81115000D03*
D24*
%TO.P,A1,25,GPIO19*%
%TO.N,/SDA*%
X128905000Y-81915000D03*
D23*
X128905000Y-81115000D03*
D24*
%TO.P,A1,26,GPIO20*%
%TO.N,/RESET*%
X126365000Y-81915000D03*
D23*
X126365000Y-81115000D03*
D24*
%TO.P,A1,27,GPIO21*%
%TO.N,/SHDN*%
X123825000Y-81915000D03*
D23*
X123825000Y-81115000D03*
D27*
%TO.P,A1,28,GND*%
%TO.N,GND*%
X121285000Y-81915000D03*
D21*
X121285000Y-81115000D03*
D24*
%TO.P,A1,29,GPIO22*%
%TO.N,/SHUTDOWN*%
X118745000Y-81915000D03*
D23*
X118745000Y-81115000D03*
D24*
%TO.P,A1,30,RUN*%
%TO.N,unconnected-(A1-RUN-Pad30)*%
X116205000Y-81915000D03*
D23*
X116205000Y-81115000D03*
D24*
%TO.P,A1,31,GPIO26_ADC0*%
%TO.N,/IMON*%
X113665000Y-81915000D03*
D23*
X113665000Y-81115000D03*
D24*
%TO.P,A1,32,GPIO27_ADC1*%
%TO.N,/VSENSE*%
X111125000Y-81915000D03*
D23*
X111125000Y-81115000D03*
D27*
%TO.P,A1,33,AGND*%
%TO.N,GND*%
X108585000Y-81915000D03*
D21*
X108585000Y-81115000D03*
D24*
%TO.P,A1,34,GPIO28_ADC2*%
%TO.N,unconnected-(A1-GPIO28_ADC2-Pad34)*%
X106045000Y-81915000D03*
D23*
X106045000Y-81115000D03*
D24*
%TO.P,A1,35,ADC_VREF*%
%TO.N,unconnected-(A1-ADC_VREF-Pad35)*%
X103505000Y-81915000D03*
D23*
X103505000Y-81115000D03*
D24*
%TO.P,A1,36,3V3*%
%TO.N,Net-(A1-3V3)*%
X100965000Y-81915000D03*
D23*
X100965000Y-81115000D03*
D24*
%TO.P,A1,37,3V3_EN*%
%TO.N,unconnected-(A1-3V3_EN-Pad37)*%
X98425000Y-81915000D03*
D23*
X98425000Y-81115000D03*
D27*
%TO.P,A1,38,GND*%
%TO.N,GND*%
X95885000Y-81915000D03*
D21*
X95885000Y-81115000D03*
D24*
%TO.P,A1,39,VSYS*%
%TO.N,unconnected-(A1-VSYS-Pad39)*%
X93345000Y-81915000D03*
D23*
X93345000Y-81115000D03*
D24*
%TO.P,A1,40,VBUS*%
%TO.N,unconnected-(A1-VBUS-Pad40)*%
X90805000Y-81915000D03*
D23*
X90805000Y-81115000D03*
%TD*%
D11*
%TO.P,TP8,1,1*%
%TO.N,Net-(Q3-G)*%
X101092000Y-68986400D03*
%TD*%
D28*
%TO.P,U4,1,VDD*%
%TO.N,+3.3V*%
X125330200Y-65998600D03*
%TO.P,U4,2,A*%
%TO.N,Net-(U4-A)*%
X125330200Y-65498600D03*
%TO.P,U4,3,W*%
%TO.N,GND*%
X125330200Y-64998600D03*
%TO.P,U4,4,VSS*%
X125330200Y-64498600D03*
%TO.P,U4,5,EXT_CAP*%
%TO.N,Net-(U4-EXT_CAP)*%
X125330200Y-63998600D03*
%TO.P,U4,6,GND*%
%TO.N,GND*%
X121105200Y-63998600D03*
%TO.P,U4,7,SDO*%
%TO.N,unconnected-(U4-SDO-Pad7)*%
X121105200Y-64498600D03*
%TO.P,U4,8,DIN*%
%TO.N,/SDA*%
X121105200Y-64998600D03*
%TO.P,U4,9,SCLK*%
%TO.N,/SCLK*%
X121105200Y-65498600D03*
%TO.P,U4,10,~{SYNC}*%
%TO.N,/~{SYNC}*%
X121105200Y-65998600D03*
%TD*%
D11*
%TO.P,TP5,1,1*%
%TO.N,Net-(J2-Pin_1)*%
X96547700Y-47218600D03*
%TD*%
D17*
%TO.P,J4,1,Pin_1*%
%TO.N,/SCLK*%
X111963200Y-75641200D03*
D18*
%TO.P,J4,2,Pin_2*%
%TO.N,/SDA*%
X114503200Y-75641200D03*
%TO.P,J4,3,Pin_3*%
%TO.N,/~{SYNC}*%
X117043200Y-75641200D03*
%TO.P,J4,4,Pin_4*%
%TO.N,/SHUTDOWN*%
X119583200Y-75641200D03*
%TO.P,J4,5,Pin_5*%
%TO.N,/RESET*%
X122123200Y-75641200D03*
%TO.P,J4,6,Pin_6*%
%TO.N,/SHDN*%
X124663200Y-75641200D03*
%TO.P,J4,7,Pin_7*%
%TO.N,unconnected-(J4-Pin_7-Pad7)*%
X127203200Y-75641200D03*
%TO.P,J4,8,Pin_8*%
%TO.N,GND*%
X129743200Y-75641200D03*
%TD*%
D11*
%TO.P,TP2,1,1*%
%TO.N,Net-(U1-ADJ)*%
X124968000Y-57404000D03*
%TD*%
D17*
%TO.P,J1,1,Pin_1*%
%TO.N,Net-(J1-Pin_1)*%
X144780000Y-59690000D03*
D18*
%TO.P,J1,2,Pin_2*%
%TO.N,GND*%
X144780000Y-62230000D03*
%TD*%
D14*
%TO.P,R5,1*%
%TO.N,+3.3V*%
X113387500Y-54483000D03*
%TO.P,R5,2*%
%TO.N,/SHDN*%
X115212500Y-54483000D03*
%TD*%
D11*
%TO.P,TP6,1,1*%
%TO.N,/VSENSE*%
X133502400Y-51917600D03*
%TD*%
D29*
%TO.N,/LED2*%
X108458000Y-104394000D03*
%TO.N,/SHDN*%
X113284000Y-46101000D03*
X116205000Y-54356000D03*
%TO.N,/SDA*%
X116840000Y-72517000D03*
X127889000Y-72517000D03*
%TO.N,/VSENSE*%
X135663700Y-56769000D03*
%TO.N,GND*%
X132842000Y-58039000D03*
X112014000Y-59055000D03*
X121325600Y-53253600D03*
X112268000Y-64008000D03*
X94121000Y-106412000D03*
X119253000Y-49403000D03*
X120015000Y-63754000D03*
X124739400Y-49250600D03*
X130683000Y-60579000D03*
X111760000Y-69469000D03*
X125730000Y-60706000D03*
X123063000Y-68326000D03*
X85344000Y-67945000D03*
X98171000Y-64135000D03*
X102630000Y-106412000D03*
X127127000Y-64770000D03*
X94869000Y-58928000D03*
X108077000Y-62992000D03*
%TO.N,+3.3V*%
X94869000Y-67818000D03*
X96622800Y-58825200D03*
X98425000Y-60071000D03*
X125730000Y-69088000D03*
X127000000Y-66421000D03*
X108077000Y-56642000D03*
X110363000Y-66675000D03*
X112649000Y-54483000D03*
X112522000Y-49149000D03*
%TD*%
D30*
%TO.N,/LED2*%
X108458000Y-104394000D02*
X108458000Y-105179500D01*
X108458000Y-105179500D02*
X108227500Y-105410000D01*
%TO.N,/GP2*%
X111125000Y-100495000D02*
X107439000Y-104181000D01*
X107439000Y-104181000D02*
X107439000Y-106937000D01*
X107439000Y-106937000D02*
X103632000Y-110744000D01*
%TO.N,/GP1{slash}RX*%
X106045000Y-99695000D02*
X106045000Y-101987000D01*
X106045000Y-101987000D02*
X103505000Y-104527000D01*
X103505000Y-104527000D02*
X103505000Y-108331000D01*
X103505000Y-108331000D02*
X101092000Y-110744000D01*
%TO.N,/GP0{slash}TX*%
X103505000Y-99695000D02*
X103505000Y-102616000D01*
X103505000Y-102616000D02*
X100711000Y-105410000D01*
X100711000Y-105410000D02*
X100711000Y-107188000D01*
X100711000Y-107188000D02*
X98552000Y-109347000D01*
X98552000Y-109347000D02*
X98552000Y-110744000D01*
%TO.N,Net-(D4-A)*%
X104380000Y-105410000D02*
X106402500Y-105410000D01*
%TO.N,Net-(D3-A)*%
X95871000Y-105359200D02*
X97842700Y-105359200D01*
%TO.N,/LED1*%
X90805000Y-100495000D02*
X90805000Y-102870000D01*
X90805000Y-102870000D02*
X92075000Y-104140000D01*
X92075000Y-104140000D02*
X98806000Y-104140000D01*
X98806000Y-104140000D02*
X99667700Y-105001700D01*
X99667700Y-105001700D02*
X99667700Y-105359200D01*
%TO.N,/IMON*%
X105167800Y-79209000D02*
X112090370Y-79209000D01*
X101473000Y-61771901D02*
X101473000Y-65405000D01*
X100041700Y-61315600D02*
X97282000Y-61315600D01*
X101092000Y-75133200D02*
X105167800Y-79209000D01*
X101016699Y-61315600D02*
X101473000Y-61771901D01*
X113665000Y-80783630D02*
X113665000Y-81915000D01*
X101473000Y-65405000D02*
X98806000Y-68072000D01*
X100041700Y-61315600D02*
X101016699Y-61315600D01*
X112090370Y-79209000D02*
X113665000Y-80783630D01*
X98806000Y-72847200D02*
X101092000Y-75133200D01*
X97282000Y-61315600D02*
X96672400Y-61925200D01*
X98806000Y-68072000D02*
X98806000Y-72847200D01*
%TO.N,/SHDN*%
X115493800Y-62865000D02*
X115265200Y-63093600D01*
X113284000Y-47001400D02*
X113374200Y-47091600D01*
X124663200Y-75641200D02*
X122047000Y-73025000D01*
X122936000Y-66294000D02*
X122936000Y-63500000D01*
X122936000Y-63500000D02*
X122301000Y-62865000D01*
X122301000Y-62865000D02*
X115493800Y-62865000D01*
X115212500Y-54483000D02*
X116078000Y-54483000D01*
X116078000Y-54483000D02*
X116205000Y-54356000D01*
X122047000Y-73025000D02*
X122047000Y-67183000D01*
X115212500Y-57960900D02*
X115265200Y-58013600D01*
X122582700Y-54203600D02*
X116357400Y-54203600D01*
X116357400Y-54203600D02*
X116205000Y-54356000D01*
X115265200Y-58013600D02*
X115265200Y-63093600D01*
X115212500Y-54483000D02*
X115212500Y-57960900D01*
X113284000Y-46101000D02*
X113284000Y-47001400D01*
X122047000Y-67183000D02*
X122936000Y-66294000D01*
%TO.N,/RESET*%
X109220000Y-77724000D02*
X109220000Y-72136000D01*
X108563400Y-69545200D02*
X108563400Y-69236600D01*
X108563400Y-69236600D02*
X109220000Y-68580000D01*
X119238400Y-78526000D02*
X110022000Y-78526000D01*
X109220000Y-72136000D02*
X108563400Y-71479400D01*
X111653400Y-67543600D02*
X113390200Y-67543600D01*
X110617000Y-68580000D02*
X111653400Y-67543600D01*
X122123200Y-75641200D02*
X119238400Y-78526000D01*
X108563400Y-71479400D02*
X108563400Y-69545200D01*
X109220000Y-68580000D02*
X110617000Y-68580000D01*
X110022000Y-78526000D02*
X109220000Y-77724000D01*
%TO.N,/SDA*%
X116967000Y-66040000D02*
X116967000Y-73177400D01*
X118008400Y-64998600D02*
X116967000Y-66040000D01*
X128592200Y-81602200D02*
X128592200Y-73220200D01*
X121105200Y-64998600D02*
X118008400Y-64998600D01*
X128905000Y-81915000D02*
X128592200Y-81602200D01*
X128592200Y-73220200D02*
X127889000Y-72517000D01*
X116967000Y-73177400D02*
X114503200Y-75641200D01*
%TO.N,/VSENSE*%
X130175000Y-83566000D02*
X130175000Y-79375000D01*
X135663700Y-57990100D02*
X135687200Y-58013600D01*
X130175000Y-79375000D02*
X137414000Y-72136000D01*
X135663700Y-56769000D02*
X135663700Y-57990100D01*
X137414000Y-72136000D02*
X137414000Y-59436000D01*
X135991600Y-58013600D02*
X135687200Y-58013600D01*
X113258109Y-84048109D02*
X129692891Y-84048109D01*
X135663700Y-55854600D02*
X135663700Y-56769000D01*
X137414000Y-59436000D02*
X135991600Y-58013600D01*
X129692891Y-84048109D02*
X130175000Y-83566000D01*
X111125000Y-81915000D02*
X113258109Y-84048109D01*
D31*
%TO.N,Net-(U1-VIN)*%
X121921200Y-49377600D02*
X121921200Y-51126300D01*
X121921200Y-51126300D02*
X121663300Y-51384200D01*
X104902000Y-51384200D02*
X121663300Y-51384200D01*
X121663300Y-51384200D02*
X122582700Y-52303600D01*
D30*
X104146100Y-54051200D02*
X101627700Y-51532800D01*
D31*
X101627700Y-51384200D02*
X104902000Y-51384200D01*
D30*
X104902000Y-47244000D02*
X104902000Y-51384200D01*
X101627700Y-51532800D02*
X101627700Y-51384200D01*
%TO.N,Net-(U3-V_{IN+})*%
X101627700Y-54051200D02*
X101656100Y-54051200D01*
X101656100Y-54051200D02*
X104094500Y-56489600D01*
X104991700Y-60045600D02*
X104094500Y-59148400D01*
X104094500Y-59148400D02*
X104094500Y-56489600D01*
%TO.N,Net-(U3-V_{IN-})*%
X105971100Y-56338000D02*
X105819500Y-56489600D01*
X106680000Y-60706000D02*
X106680000Y-57350100D01*
X105971100Y-54051200D02*
X105971100Y-56338000D01*
X106070400Y-61315600D02*
X106680000Y-60706000D01*
X106680000Y-57350100D02*
X105819500Y-56489600D01*
X104991700Y-61315600D02*
X106070400Y-61315600D01*
%TO.N,Net-(D2-A)*%
X87133400Y-66802000D02*
X88276400Y-65659000D01*
X96139000Y-65659000D02*
X96619700Y-66139700D01*
X88276400Y-65659000D02*
X96139000Y-65659000D01*
X96619700Y-66139700D02*
X96619700Y-66852800D01*
%TO.N,Net-(Q3-G)*%
X106578400Y-62585600D02*
X107569000Y-61595000D01*
X107569000Y-61595000D02*
X107569000Y-59944000D01*
X102235000Y-66167000D02*
X102235000Y-67843400D01*
X107569000Y-59944000D02*
X110640500Y-56872500D01*
X112917800Y-56591200D02*
X113390200Y-57063600D01*
X102870000Y-63119000D02*
X102870000Y-65532000D01*
X102235000Y-67843400D02*
X101092000Y-68986400D01*
X104991700Y-62585600D02*
X106578400Y-62585600D01*
X104991700Y-62585600D02*
X103403400Y-62585600D01*
X110640500Y-56591200D02*
X112917800Y-56591200D01*
X103403400Y-62585600D02*
X102870000Y-63119000D01*
X110640500Y-56872500D02*
X110640500Y-56591200D01*
X102870000Y-65532000D02*
X102235000Y-66167000D01*
%TO.N,GND*%
X108819700Y-62249300D02*
X108077000Y-62992000D01*
X125330200Y-64498600D02*
X126855600Y-64498600D01*
X120196200Y-49377600D02*
X119278400Y-49377600D01*
X132867400Y-58013600D02*
X132842000Y-58039000D01*
X94897800Y-58956800D02*
X94869000Y-58928000D01*
X113390200Y-69443600D02*
X111785400Y-69443600D01*
X85383400Y-66802000D02*
X85383400Y-67905600D01*
X113390200Y-64043600D02*
X112303600Y-64043600D01*
X130657700Y-60604300D02*
X130683000Y-60579000D01*
X94107000Y-106426000D02*
X94121000Y-106412000D01*
X98450400Y-63855600D02*
X98171000Y-64135000D01*
D32*
X121285000Y-53213000D02*
X121325600Y-53253600D01*
D30*
X120259600Y-63998600D02*
X120015000Y-63754000D01*
X97891600Y-64414400D02*
X98171000Y-64135000D01*
X102630000Y-105410000D02*
X102630000Y-106412000D01*
X100041700Y-63855600D02*
X98450400Y-63855600D01*
X124714000Y-49276000D02*
X124739400Y-49250600D01*
X112105400Y-58963600D02*
X112014000Y-59055000D01*
X113390200Y-58963600D02*
X112105400Y-58963600D01*
X125731200Y-61569600D02*
X125731200Y-60707200D01*
X96672400Y-64414400D02*
X97891600Y-64414400D01*
X123215400Y-68173600D02*
X123063000Y-68326000D01*
X126855600Y-64498600D02*
X127127000Y-64770000D01*
X85383400Y-67905600D02*
X85344000Y-67945000D01*
X125757700Y-49250600D02*
X124739400Y-49250600D01*
X111785400Y-69443600D02*
X111760000Y-69469000D01*
X123979700Y-68173600D02*
X123215400Y-68173600D01*
X102616000Y-106426000D02*
X102630000Y-106412000D01*
X112303600Y-64043600D02*
X112268000Y-64008000D01*
X125731200Y-60707200D02*
X125730000Y-60706000D01*
X119278400Y-49377600D02*
X119253000Y-49403000D01*
X110388400Y-69545200D02*
X111683800Y-69545200D01*
D32*
X122582700Y-53253600D02*
X121325600Y-53253600D01*
D30*
X111683800Y-69545200D02*
X111760000Y-69469000D01*
X94897800Y-59766200D02*
X94897800Y-58956800D01*
X108819700Y-62204600D02*
X108819700Y-62249300D01*
X94121000Y-105359200D02*
X94121000Y-106412000D01*
X133862200Y-58013600D02*
X132867400Y-58013600D01*
X121105200Y-63998600D02*
X120259600Y-63998600D01*
X126898400Y-64998600D02*
X127127000Y-64770000D01*
X130657700Y-61442600D02*
X130657700Y-60604300D01*
X125330200Y-64998600D02*
X126898400Y-64998600D01*
%TO.N,Net-(J2-Pin_1)*%
X99802700Y-54051200D02*
X99802700Y-51384200D01*
D31*
X86360000Y-58420000D02*
X87249000Y-58420000D01*
D30*
X96547700Y-47218600D02*
X96547700Y-51284900D01*
D31*
X96647000Y-51384200D02*
X99802700Y-51384200D01*
X94284800Y-51384200D02*
X96647000Y-51384200D01*
X87249000Y-58420000D02*
X94284800Y-51384200D01*
D30*
X96547700Y-51284900D02*
X96647000Y-51384200D01*
%TO.N,Net-(Q5-D)*%
X104991700Y-63855600D02*
X106908600Y-63855600D01*
X115265200Y-68493600D02*
X115265200Y-66370200D01*
X106908600Y-63855600D02*
X108561500Y-65508500D01*
X108561500Y-65508500D02*
X108561500Y-67513200D01*
X114403500Y-65508500D02*
X108561500Y-65508500D01*
X115265200Y-66370200D02*
X114403500Y-65508500D01*
%TO.N,+3.3V*%
X113338600Y-49149000D02*
X112522000Y-49149000D01*
X127000000Y-66421000D02*
X127000000Y-66211200D01*
X110386500Y-66698500D02*
X110363000Y-66675000D01*
X94794700Y-67743700D02*
X94869000Y-67818000D01*
X126787400Y-65998600D02*
X125330200Y-65998600D01*
X98450400Y-60045600D02*
X98425000Y-60071000D01*
X96647000Y-58801000D02*
X96622800Y-58825200D01*
X110386500Y-67513200D02*
X110386500Y-66698500D01*
X108127800Y-56591200D02*
X108077000Y-56642000D01*
X125704700Y-68173600D02*
X125704700Y-69062700D01*
X100041700Y-60045600D02*
X98450400Y-60045600D01*
X125704700Y-69062700D02*
X125730000Y-69088000D01*
X94794700Y-66852800D02*
X94794700Y-67743700D01*
X113387500Y-54483000D02*
X112649000Y-54483000D01*
X108815500Y-56591200D02*
X108127800Y-56591200D01*
X127000000Y-66211200D02*
X126787400Y-65998600D01*
X96622800Y-59766200D02*
X96622800Y-58825200D01*
%TO.N,Net-(U4-EXT_CAP)*%
X125330200Y-63998600D02*
X124006200Y-62674600D01*
X124006200Y-62674600D02*
X124006200Y-61569600D01*
%TO.N,Net-(U1-ADJ)*%
X128885700Y-55727600D02*
X128885700Y-57653800D01*
X127361700Y-54203600D02*
X128885700Y-55727600D01*
X128881500Y-57658000D02*
X128881500Y-61391400D01*
X128885700Y-57653800D02*
X128881500Y-57658000D01*
X124968000Y-57404000D02*
X128627500Y-57404000D01*
X128881500Y-61391400D02*
X128932700Y-61442600D01*
X128627500Y-57404000D02*
X128881500Y-57658000D01*
X124857700Y-54203600D02*
X127361700Y-54203600D01*
%TO.N,Net-(D1-A)*%
X115124200Y-49109600D02*
X115163600Y-49149000D01*
X115124200Y-47091600D02*
X115124200Y-49109600D01*
%TO.N,Net-(J1-Pin_1)*%
X133838700Y-54248300D02*
X133985000Y-54102000D01*
D31*
X144780000Y-58420000D02*
X144780000Y-59690000D01*
X131318000Y-54102000D02*
X133985000Y-54102000D01*
D30*
X130710700Y-55727600D02*
X130710700Y-54709300D01*
D31*
X127508000Y-52303600D02*
X129519600Y-52303600D01*
X127482700Y-49250600D02*
X127482700Y-52278300D01*
D30*
X133504700Y-47091600D02*
X131345700Y-49250600D01*
D31*
X124857700Y-52303600D02*
X127508000Y-52303600D01*
X127482700Y-52278300D02*
X127508000Y-52303600D01*
X129519600Y-52303600D02*
X131318000Y-54102000D01*
D30*
X133838700Y-55854600D02*
X133838700Y-54248300D01*
D31*
X140462000Y-54102000D02*
X144780000Y-58420000D01*
D30*
X131345700Y-49250600D02*
X127482700Y-49250600D01*
X130710700Y-54709300D02*
X131318000Y-54102000D01*
D31*
X133985000Y-54102000D02*
X140462000Y-54102000D01*
D30*
%TO.N,/SCLK*%
X117602000Y-66675000D02*
X117602000Y-73454640D01*
X111963200Y-75895200D02*
X111963200Y-75641200D01*
X115824000Y-77089000D02*
X115189000Y-77724000D01*
X121105200Y-65498600D02*
X118778400Y-65498600D01*
X113792000Y-77724000D02*
X111963200Y-75895200D01*
X115189000Y-77724000D02*
X113792000Y-77724000D01*
X118778400Y-65498600D02*
X117602000Y-66675000D01*
X117602000Y-73454640D02*
X115824000Y-75232640D01*
X115824000Y-75232640D02*
X115824000Y-77089000D01*
%TO.N,/SHUTDOWN*%
X113329200Y-62204600D02*
X113390200Y-62143600D01*
X110617000Y-77089000D02*
X110617000Y-74685400D01*
X115062000Y-64770000D02*
X111379000Y-64770000D01*
X111379000Y-64770000D02*
X110644700Y-64035700D01*
X110617000Y-74685400D02*
X116459000Y-68843400D01*
X110644700Y-64035700D02*
X110644700Y-62204600D01*
X116459000Y-68843400D02*
X116459000Y-66167000D01*
X111653000Y-78125000D02*
X110617000Y-77089000D01*
X119583200Y-75641200D02*
X117099400Y-78125000D01*
X117099400Y-78125000D02*
X111653000Y-78125000D01*
X116459000Y-66167000D02*
X115062000Y-64770000D01*
X110644700Y-62204600D02*
X113329200Y-62204600D01*
%TO.N,/~{SYNC}*%
X121105200Y-65998600D02*
X121105200Y-71579200D01*
X121105200Y-71579200D02*
X117043200Y-75641200D01*
%TO.N,Net-(U4-A)*%
X131419600Y-57658000D02*
X135280400Y-61518800D01*
X125330200Y-65498600D02*
X131300600Y-65498600D01*
X131300600Y-65498600D02*
X135280400Y-61518800D01*
X130706500Y-57658000D02*
X131419600Y-57658000D01*
%TO.N,Net-(U3-CMP_{IN})*%
X95758000Y-63119000D02*
X94847400Y-62208400D01*
X94847400Y-62208400D02*
X94847400Y-61925200D01*
X95758000Y-63119000D02*
X95758000Y-63503800D01*
X100041700Y-62585600D02*
X99508300Y-63119000D01*
X95758000Y-63503800D02*
X94847400Y-64414400D01*
X99508300Y-63119000D02*
X95758000Y-63119000D01*
%TD*%
M02*
