%TF.GenerationSoftware,KiCad,Pcbnew,9.0.2-9.0.2-0~ubuntu24.04.1*%
%TF.CreationDate,2025-05-10T13:12:50-04:00*%
%TF.ProjectId,lt3014-test,6c743330-3134-42d7-9465-73742e6b6963,rev?*%
%TF.SameCoordinates,Original*%
%TF.FileFunction,Legend,Top*%
%TF.FilePolarity,Positive*%
%FSLAX46Y46*%
G04 Gerber Fmt 4.6, Leading zero omitted, Abs format (unit mm)*
G04 Created by KiCad (PCBNEW 9.0.2-9.0.2-0~ubuntu24.04.1) date 2025-05-10 13:12:50*
%MOMM*%
%LPD*%
G01*
G04 APERTURE LIST*
%ADD10C,0.152400*%
%ADD11C,0.203200*%
%ADD12C,0.150000*%
%ADD13C,0.100000*%
%ADD14C,0.120000*%
G04 APERTURE END LIST*
D10*
X97841882Y-107212127D02*
X97720929Y-107151651D01*
X97720929Y-107151651D02*
X97539501Y-107151651D01*
X97539501Y-107151651D02*
X97358072Y-107212127D01*
X97358072Y-107212127D02*
X97237120Y-107333079D01*
X97237120Y-107333079D02*
X97176643Y-107454032D01*
X97176643Y-107454032D02*
X97116167Y-107695936D01*
X97116167Y-107695936D02*
X97116167Y-107877365D01*
X97116167Y-107877365D02*
X97176643Y-108119270D01*
X97176643Y-108119270D02*
X97237120Y-108240222D01*
X97237120Y-108240222D02*
X97358072Y-108361175D01*
X97358072Y-108361175D02*
X97539501Y-108421651D01*
X97539501Y-108421651D02*
X97660453Y-108421651D01*
X97660453Y-108421651D02*
X97841882Y-108361175D01*
X97841882Y-108361175D02*
X97902358Y-108300698D01*
X97902358Y-108300698D02*
X97902358Y-107877365D01*
X97902358Y-107877365D02*
X97660453Y-107877365D01*
X98446643Y-108421651D02*
X98446643Y-107151651D01*
X98446643Y-107151651D02*
X98930453Y-107151651D01*
X98930453Y-107151651D02*
X99051405Y-107212127D01*
X99051405Y-107212127D02*
X99111882Y-107272603D01*
X99111882Y-107272603D02*
X99172358Y-107393555D01*
X99172358Y-107393555D02*
X99172358Y-107574984D01*
X99172358Y-107574984D02*
X99111882Y-107695936D01*
X99111882Y-107695936D02*
X99051405Y-107756413D01*
X99051405Y-107756413D02*
X98930453Y-107816889D01*
X98930453Y-107816889D02*
X98446643Y-107816889D01*
X99716643Y-108421651D02*
X99716643Y-107151651D01*
X100563310Y-107151651D02*
X100805215Y-107151651D01*
X100805215Y-107151651D02*
X100926167Y-107212127D01*
X100926167Y-107212127D02*
X101047120Y-107333079D01*
X101047120Y-107333079D02*
X101107596Y-107574984D01*
X101107596Y-107574984D02*
X101107596Y-107998317D01*
X101107596Y-107998317D02*
X101047120Y-108240222D01*
X101047120Y-108240222D02*
X100926167Y-108361175D01*
X100926167Y-108361175D02*
X100805215Y-108421651D01*
X100805215Y-108421651D02*
X100563310Y-108421651D01*
X100563310Y-108421651D02*
X100442358Y-108361175D01*
X100442358Y-108361175D02*
X100321405Y-108240222D01*
X100321405Y-108240222D02*
X100260929Y-107998317D01*
X100260929Y-107998317D02*
X100260929Y-107574984D01*
X100260929Y-107574984D02*
X100321405Y-107333079D01*
X100321405Y-107333079D02*
X100442358Y-107212127D01*
X100442358Y-107212127D02*
X100563310Y-107151651D01*
X102559024Y-107091175D02*
X101470453Y-108724032D01*
X102982357Y-107151651D02*
X102982357Y-108179746D01*
X102982357Y-108179746D02*
X103042834Y-108300698D01*
X103042834Y-108300698D02*
X103103310Y-108361175D01*
X103103310Y-108361175D02*
X103224262Y-108421651D01*
X103224262Y-108421651D02*
X103466167Y-108421651D01*
X103466167Y-108421651D02*
X103587119Y-108361175D01*
X103587119Y-108361175D02*
X103647596Y-108300698D01*
X103647596Y-108300698D02*
X103708072Y-108179746D01*
X103708072Y-108179746D02*
X103708072Y-107151651D01*
X104252357Y-108058794D02*
X104857119Y-108058794D01*
X104131405Y-108421651D02*
X104554738Y-107151651D01*
X104554738Y-107151651D02*
X104978072Y-108421651D01*
X106127119Y-108421651D02*
X105703785Y-107816889D01*
X105401404Y-108421651D02*
X105401404Y-107151651D01*
X105401404Y-107151651D02*
X105885214Y-107151651D01*
X105885214Y-107151651D02*
X106006166Y-107212127D01*
X106006166Y-107212127D02*
X106066643Y-107272603D01*
X106066643Y-107272603D02*
X106127119Y-107393555D01*
X106127119Y-107393555D02*
X106127119Y-107574984D01*
X106127119Y-107574984D02*
X106066643Y-107695936D01*
X106066643Y-107695936D02*
X106006166Y-107756413D01*
X106006166Y-107756413D02*
X105885214Y-107816889D01*
X105885214Y-107816889D02*
X105401404Y-107816889D01*
X106489976Y-107151651D02*
X107215690Y-107151651D01*
X106852833Y-108421651D02*
X106852833Y-107151651D01*
D11*
X110732541Y-105545697D02*
X111004684Y-105636411D01*
X111004684Y-105636411D02*
X111458255Y-105636411D01*
X111458255Y-105636411D02*
X111639684Y-105545697D01*
X111639684Y-105545697D02*
X111730398Y-105454982D01*
X111730398Y-105454982D02*
X111821112Y-105273554D01*
X111821112Y-105273554D02*
X111821112Y-105092125D01*
X111821112Y-105092125D02*
X111730398Y-104910697D01*
X111730398Y-104910697D02*
X111639684Y-104819982D01*
X111639684Y-104819982D02*
X111458255Y-104729268D01*
X111458255Y-104729268D02*
X111095398Y-104638554D01*
X111095398Y-104638554D02*
X110913969Y-104547839D01*
X110913969Y-104547839D02*
X110823255Y-104457125D01*
X110823255Y-104457125D02*
X110732541Y-104275697D01*
X110732541Y-104275697D02*
X110732541Y-104094268D01*
X110732541Y-104094268D02*
X110823255Y-103912839D01*
X110823255Y-103912839D02*
X110913969Y-103822125D01*
X110913969Y-103822125D02*
X111095398Y-103731411D01*
X111095398Y-103731411D02*
X111548969Y-103731411D01*
X111548969Y-103731411D02*
X111821112Y-103822125D01*
X112637541Y-105636411D02*
X112637541Y-104366411D01*
X112637541Y-103731411D02*
X112546827Y-103822125D01*
X112546827Y-103822125D02*
X112637541Y-103912839D01*
X112637541Y-103912839D02*
X112728255Y-103822125D01*
X112728255Y-103822125D02*
X112637541Y-103731411D01*
X112637541Y-103731411D02*
X112637541Y-103912839D01*
X113544684Y-105636411D02*
X113544684Y-103731411D01*
X113544684Y-103731411D02*
X114270398Y-103731411D01*
X114270398Y-103731411D02*
X114451827Y-103822125D01*
X114451827Y-103822125D02*
X114542541Y-103912839D01*
X114542541Y-103912839D02*
X114633255Y-104094268D01*
X114633255Y-104094268D02*
X114633255Y-104366411D01*
X114633255Y-104366411D02*
X114542541Y-104547839D01*
X114542541Y-104547839D02*
X114451827Y-104638554D01*
X114451827Y-104638554D02*
X114270398Y-104729268D01*
X114270398Y-104729268D02*
X113544684Y-104729268D01*
X115449684Y-105636411D02*
X115449684Y-103731411D01*
X115449684Y-103731411D02*
X116084684Y-105092125D01*
X116084684Y-105092125D02*
X116719684Y-103731411D01*
X116719684Y-103731411D02*
X116719684Y-105636411D01*
X119078256Y-105636411D02*
X119078256Y-103731411D01*
X119078256Y-104638554D02*
X120166827Y-104638554D01*
X120166827Y-105636411D02*
X120166827Y-103731411D01*
X120801827Y-103731411D02*
X121436827Y-105636411D01*
X121436827Y-105636411D02*
X122071827Y-103731411D01*
X125246827Y-105454982D02*
X125156113Y-105545697D01*
X125156113Y-105545697D02*
X124883970Y-105636411D01*
X124883970Y-105636411D02*
X124702542Y-105636411D01*
X124702542Y-105636411D02*
X124430399Y-105545697D01*
X124430399Y-105545697D02*
X124248970Y-105364268D01*
X124248970Y-105364268D02*
X124158256Y-105182839D01*
X124158256Y-105182839D02*
X124067542Y-104819982D01*
X124067542Y-104819982D02*
X124067542Y-104547839D01*
X124067542Y-104547839D02*
X124158256Y-104184982D01*
X124158256Y-104184982D02*
X124248970Y-104003554D01*
X124248970Y-104003554D02*
X124430399Y-103822125D01*
X124430399Y-103822125D02*
X124702542Y-103731411D01*
X124702542Y-103731411D02*
X124883970Y-103731411D01*
X124883970Y-103731411D02*
X125156113Y-103822125D01*
X125156113Y-103822125D02*
X125246827Y-103912839D01*
X126335399Y-105636411D02*
X126153970Y-105545697D01*
X126153970Y-105545697D02*
X126063256Y-105454982D01*
X126063256Y-105454982D02*
X125972542Y-105273554D01*
X125972542Y-105273554D02*
X125972542Y-104729268D01*
X125972542Y-104729268D02*
X126063256Y-104547839D01*
X126063256Y-104547839D02*
X126153970Y-104457125D01*
X126153970Y-104457125D02*
X126335399Y-104366411D01*
X126335399Y-104366411D02*
X126607542Y-104366411D01*
X126607542Y-104366411D02*
X126788970Y-104457125D01*
X126788970Y-104457125D02*
X126879685Y-104547839D01*
X126879685Y-104547839D02*
X126970399Y-104729268D01*
X126970399Y-104729268D02*
X126970399Y-105273554D01*
X126970399Y-105273554D02*
X126879685Y-105454982D01*
X126879685Y-105454982D02*
X126788970Y-105545697D01*
X126788970Y-105545697D02*
X126607542Y-105636411D01*
X126607542Y-105636411D02*
X126335399Y-105636411D01*
X127786827Y-104366411D02*
X127786827Y-105636411D01*
X127786827Y-104547839D02*
X127877541Y-104457125D01*
X127877541Y-104457125D02*
X128058970Y-104366411D01*
X128058970Y-104366411D02*
X128331113Y-104366411D01*
X128331113Y-104366411D02*
X128512541Y-104457125D01*
X128512541Y-104457125D02*
X128603256Y-104638554D01*
X128603256Y-104638554D02*
X128603256Y-105636411D01*
X129238255Y-104366411D02*
X129963969Y-104366411D01*
X129510398Y-103731411D02*
X129510398Y-105364268D01*
X129510398Y-105364268D02*
X129601112Y-105545697D01*
X129601112Y-105545697D02*
X129782541Y-105636411D01*
X129782541Y-105636411D02*
X129963969Y-105636411D01*
X130598969Y-105636411D02*
X130598969Y-104366411D01*
X130598969Y-104729268D02*
X130689683Y-104547839D01*
X130689683Y-104547839D02*
X130780398Y-104457125D01*
X130780398Y-104457125D02*
X130961826Y-104366411D01*
X130961826Y-104366411D02*
X131143255Y-104366411D01*
X132050398Y-105636411D02*
X131868969Y-105545697D01*
X131868969Y-105545697D02*
X131778255Y-105454982D01*
X131778255Y-105454982D02*
X131687541Y-105273554D01*
X131687541Y-105273554D02*
X131687541Y-104729268D01*
X131687541Y-104729268D02*
X131778255Y-104547839D01*
X131778255Y-104547839D02*
X131868969Y-104457125D01*
X131868969Y-104457125D02*
X132050398Y-104366411D01*
X132050398Y-104366411D02*
X132322541Y-104366411D01*
X132322541Y-104366411D02*
X132503969Y-104457125D01*
X132503969Y-104457125D02*
X132594684Y-104547839D01*
X132594684Y-104547839D02*
X132685398Y-104729268D01*
X132685398Y-104729268D02*
X132685398Y-105273554D01*
X132685398Y-105273554D02*
X132594684Y-105454982D01*
X132594684Y-105454982D02*
X132503969Y-105545697D01*
X132503969Y-105545697D02*
X132322541Y-105636411D01*
X132322541Y-105636411D02*
X132050398Y-105636411D01*
X133773969Y-105636411D02*
X133592540Y-105545697D01*
X133592540Y-105545697D02*
X133501826Y-105364268D01*
X133501826Y-105364268D02*
X133501826Y-103731411D01*
X110551112Y-106798354D02*
X111639684Y-106798354D01*
X111095398Y-108703354D02*
X111095398Y-106798354D01*
X113000398Y-108612640D02*
X112818970Y-108703354D01*
X112818970Y-108703354D02*
X112456113Y-108703354D01*
X112456113Y-108703354D02*
X112274684Y-108612640D01*
X112274684Y-108612640D02*
X112183970Y-108431211D01*
X112183970Y-108431211D02*
X112183970Y-107705497D01*
X112183970Y-107705497D02*
X112274684Y-107524068D01*
X112274684Y-107524068D02*
X112456113Y-107433354D01*
X112456113Y-107433354D02*
X112818970Y-107433354D01*
X112818970Y-107433354D02*
X113000398Y-107524068D01*
X113000398Y-107524068D02*
X113091113Y-107705497D01*
X113091113Y-107705497D02*
X113091113Y-107886925D01*
X113091113Y-107886925D02*
X112183970Y-108068354D01*
X113816827Y-108612640D02*
X113998255Y-108703354D01*
X113998255Y-108703354D02*
X114361112Y-108703354D01*
X114361112Y-108703354D02*
X114542541Y-108612640D01*
X114542541Y-108612640D02*
X114633255Y-108431211D01*
X114633255Y-108431211D02*
X114633255Y-108340497D01*
X114633255Y-108340497D02*
X114542541Y-108159068D01*
X114542541Y-108159068D02*
X114361112Y-108068354D01*
X114361112Y-108068354D02*
X114088970Y-108068354D01*
X114088970Y-108068354D02*
X113907541Y-107977640D01*
X113907541Y-107977640D02*
X113816827Y-107796211D01*
X113816827Y-107796211D02*
X113816827Y-107705497D01*
X113816827Y-107705497D02*
X113907541Y-107524068D01*
X113907541Y-107524068D02*
X114088970Y-107433354D01*
X114088970Y-107433354D02*
X114361112Y-107433354D01*
X114361112Y-107433354D02*
X114542541Y-107524068D01*
X115177541Y-107433354D02*
X115903255Y-107433354D01*
X115449684Y-106798354D02*
X115449684Y-108431211D01*
X115449684Y-108431211D02*
X115540398Y-108612640D01*
X115540398Y-108612640D02*
X115721827Y-108703354D01*
X115721827Y-108703354D02*
X115903255Y-108703354D01*
X118624684Y-107705497D02*
X118896827Y-107796211D01*
X118896827Y-107796211D02*
X118987541Y-107886925D01*
X118987541Y-107886925D02*
X119078255Y-108068354D01*
X119078255Y-108068354D02*
X119078255Y-108340497D01*
X119078255Y-108340497D02*
X118987541Y-108521925D01*
X118987541Y-108521925D02*
X118896827Y-108612640D01*
X118896827Y-108612640D02*
X118715398Y-108703354D01*
X118715398Y-108703354D02*
X117989684Y-108703354D01*
X117989684Y-108703354D02*
X117989684Y-106798354D01*
X117989684Y-106798354D02*
X118624684Y-106798354D01*
X118624684Y-106798354D02*
X118806113Y-106889068D01*
X118806113Y-106889068D02*
X118896827Y-106979782D01*
X118896827Y-106979782D02*
X118987541Y-107161211D01*
X118987541Y-107161211D02*
X118987541Y-107342640D01*
X118987541Y-107342640D02*
X118896827Y-107524068D01*
X118896827Y-107524068D02*
X118806113Y-107614782D01*
X118806113Y-107614782D02*
X118624684Y-107705497D01*
X118624684Y-107705497D02*
X117989684Y-107705497D01*
X120166827Y-108703354D02*
X119985398Y-108612640D01*
X119985398Y-108612640D02*
X119894684Y-108521925D01*
X119894684Y-108521925D02*
X119803970Y-108340497D01*
X119803970Y-108340497D02*
X119803970Y-107796211D01*
X119803970Y-107796211D02*
X119894684Y-107614782D01*
X119894684Y-107614782D02*
X119985398Y-107524068D01*
X119985398Y-107524068D02*
X120166827Y-107433354D01*
X120166827Y-107433354D02*
X120438970Y-107433354D01*
X120438970Y-107433354D02*
X120620398Y-107524068D01*
X120620398Y-107524068D02*
X120711113Y-107614782D01*
X120711113Y-107614782D02*
X120801827Y-107796211D01*
X120801827Y-107796211D02*
X120801827Y-108340497D01*
X120801827Y-108340497D02*
X120711113Y-108521925D01*
X120711113Y-108521925D02*
X120620398Y-108612640D01*
X120620398Y-108612640D02*
X120438970Y-108703354D01*
X120438970Y-108703354D02*
X120166827Y-108703354D01*
X122434684Y-108703354D02*
X122434684Y-107705497D01*
X122434684Y-107705497D02*
X122343969Y-107524068D01*
X122343969Y-107524068D02*
X122162541Y-107433354D01*
X122162541Y-107433354D02*
X121799684Y-107433354D01*
X121799684Y-107433354D02*
X121618255Y-107524068D01*
X122434684Y-108612640D02*
X122253255Y-108703354D01*
X122253255Y-108703354D02*
X121799684Y-108703354D01*
X121799684Y-108703354D02*
X121618255Y-108612640D01*
X121618255Y-108612640D02*
X121527541Y-108431211D01*
X121527541Y-108431211D02*
X121527541Y-108249782D01*
X121527541Y-108249782D02*
X121618255Y-108068354D01*
X121618255Y-108068354D02*
X121799684Y-107977640D01*
X121799684Y-107977640D02*
X122253255Y-107977640D01*
X122253255Y-107977640D02*
X122434684Y-107886925D01*
X123341826Y-108703354D02*
X123341826Y-107433354D01*
X123341826Y-107796211D02*
X123432540Y-107614782D01*
X123432540Y-107614782D02*
X123523255Y-107524068D01*
X123523255Y-107524068D02*
X123704683Y-107433354D01*
X123704683Y-107433354D02*
X123886112Y-107433354D01*
X125337541Y-108703354D02*
X125337541Y-106798354D01*
X125337541Y-108612640D02*
X125156112Y-108703354D01*
X125156112Y-108703354D02*
X124793255Y-108703354D01*
X124793255Y-108703354D02*
X124611826Y-108612640D01*
X124611826Y-108612640D02*
X124521112Y-108521925D01*
X124521112Y-108521925D02*
X124430398Y-108340497D01*
X124430398Y-108340497D02*
X124430398Y-107796211D01*
X124430398Y-107796211D02*
X124521112Y-107614782D01*
X124521112Y-107614782D02*
X124611826Y-107524068D01*
X124611826Y-107524068D02*
X124793255Y-107433354D01*
X124793255Y-107433354D02*
X125156112Y-107433354D01*
X125156112Y-107433354D02*
X125337541Y-107524068D01*
X127696112Y-107977640D02*
X129147541Y-107977640D01*
X131506112Y-107705497D02*
X132141112Y-107705497D01*
X132413255Y-108703354D02*
X131506112Y-108703354D01*
X131506112Y-108703354D02*
X131506112Y-106798354D01*
X131506112Y-106798354D02*
X132413255Y-106798354D01*
X133138969Y-108612640D02*
X133411112Y-108703354D01*
X133411112Y-108703354D02*
X133864683Y-108703354D01*
X133864683Y-108703354D02*
X134046112Y-108612640D01*
X134046112Y-108612640D02*
X134136826Y-108521925D01*
X134136826Y-108521925D02*
X134227540Y-108340497D01*
X134227540Y-108340497D02*
X134227540Y-108159068D01*
X134227540Y-108159068D02*
X134136826Y-107977640D01*
X134136826Y-107977640D02*
X134046112Y-107886925D01*
X134046112Y-107886925D02*
X133864683Y-107796211D01*
X133864683Y-107796211D02*
X133501826Y-107705497D01*
X133501826Y-107705497D02*
X133320397Y-107614782D01*
X133320397Y-107614782D02*
X133229683Y-107524068D01*
X133229683Y-107524068D02*
X133138969Y-107342640D01*
X133138969Y-107342640D02*
X133138969Y-107161211D01*
X133138969Y-107161211D02*
X133229683Y-106979782D01*
X133229683Y-106979782D02*
X133320397Y-106889068D01*
X133320397Y-106889068D02*
X133501826Y-106798354D01*
X133501826Y-106798354D02*
X133955397Y-106798354D01*
X133955397Y-106798354D02*
X134227540Y-106889068D01*
X135043969Y-108703354D02*
X135043969Y-106798354D01*
X135043969Y-107705497D02*
X136132540Y-107705497D01*
X136132540Y-108703354D02*
X136132540Y-106798354D01*
X110551112Y-109865297D02*
X111186112Y-111770297D01*
X111186112Y-111770297D02*
X111821112Y-109865297D01*
X113453969Y-111770297D02*
X112365398Y-111770297D01*
X112909683Y-111770297D02*
X112909683Y-109865297D01*
X112909683Y-109865297D02*
X112728255Y-110137440D01*
X112728255Y-110137440D02*
X112546826Y-110318868D01*
X112546826Y-110318868D02*
X112365398Y-110409583D01*
X114270398Y-111588868D02*
X114361112Y-111679583D01*
X114361112Y-111679583D02*
X114270398Y-111770297D01*
X114270398Y-111770297D02*
X114179684Y-111679583D01*
X114179684Y-111679583D02*
X114270398Y-111588868D01*
X114270398Y-111588868D02*
X114270398Y-111770297D01*
X115540398Y-109865297D02*
X115721827Y-109865297D01*
X115721827Y-109865297D02*
X115903255Y-109956011D01*
X115903255Y-109956011D02*
X115993970Y-110046725D01*
X115993970Y-110046725D02*
X116084684Y-110228154D01*
X116084684Y-110228154D02*
X116175398Y-110591011D01*
X116175398Y-110591011D02*
X116175398Y-111044583D01*
X116175398Y-111044583D02*
X116084684Y-111407440D01*
X116084684Y-111407440D02*
X115993970Y-111588868D01*
X115993970Y-111588868D02*
X115903255Y-111679583D01*
X115903255Y-111679583D02*
X115721827Y-111770297D01*
X115721827Y-111770297D02*
X115540398Y-111770297D01*
X115540398Y-111770297D02*
X115358970Y-111679583D01*
X115358970Y-111679583D02*
X115268255Y-111588868D01*
X115268255Y-111588868D02*
X115177541Y-111407440D01*
X115177541Y-111407440D02*
X115086827Y-111044583D01*
X115086827Y-111044583D02*
X115086827Y-110591011D01*
X115086827Y-110591011D02*
X115177541Y-110228154D01*
X115177541Y-110228154D02*
X115268255Y-110046725D01*
X115268255Y-110046725D02*
X115358970Y-109956011D01*
X115358970Y-109956011D02*
X115540398Y-109865297D01*
X118352542Y-110046725D02*
X118443256Y-109956011D01*
X118443256Y-109956011D02*
X118624685Y-109865297D01*
X118624685Y-109865297D02*
X119078256Y-109865297D01*
X119078256Y-109865297D02*
X119259685Y-109956011D01*
X119259685Y-109956011D02*
X119350399Y-110046725D01*
X119350399Y-110046725D02*
X119441113Y-110228154D01*
X119441113Y-110228154D02*
X119441113Y-110409583D01*
X119441113Y-110409583D02*
X119350399Y-110681725D01*
X119350399Y-110681725D02*
X118261827Y-111770297D01*
X118261827Y-111770297D02*
X119441113Y-111770297D01*
X120620399Y-109865297D02*
X120801828Y-109865297D01*
X120801828Y-109865297D02*
X120983256Y-109956011D01*
X120983256Y-109956011D02*
X121073971Y-110046725D01*
X121073971Y-110046725D02*
X121164685Y-110228154D01*
X121164685Y-110228154D02*
X121255399Y-110591011D01*
X121255399Y-110591011D02*
X121255399Y-111044583D01*
X121255399Y-111044583D02*
X121164685Y-111407440D01*
X121164685Y-111407440D02*
X121073971Y-111588868D01*
X121073971Y-111588868D02*
X120983256Y-111679583D01*
X120983256Y-111679583D02*
X120801828Y-111770297D01*
X120801828Y-111770297D02*
X120620399Y-111770297D01*
X120620399Y-111770297D02*
X120438971Y-111679583D01*
X120438971Y-111679583D02*
X120348256Y-111588868D01*
X120348256Y-111588868D02*
X120257542Y-111407440D01*
X120257542Y-111407440D02*
X120166828Y-111044583D01*
X120166828Y-111044583D02*
X120166828Y-110591011D01*
X120166828Y-110591011D02*
X120257542Y-110228154D01*
X120257542Y-110228154D02*
X120348256Y-110046725D01*
X120348256Y-110046725D02*
X120438971Y-109956011D01*
X120438971Y-109956011D02*
X120620399Y-109865297D01*
X121981114Y-110046725D02*
X122071828Y-109956011D01*
X122071828Y-109956011D02*
X122253257Y-109865297D01*
X122253257Y-109865297D02*
X122706828Y-109865297D01*
X122706828Y-109865297D02*
X122888257Y-109956011D01*
X122888257Y-109956011D02*
X122978971Y-110046725D01*
X122978971Y-110046725D02*
X123069685Y-110228154D01*
X123069685Y-110228154D02*
X123069685Y-110409583D01*
X123069685Y-110409583D02*
X122978971Y-110681725D01*
X122978971Y-110681725D02*
X121890399Y-111770297D01*
X121890399Y-111770297D02*
X123069685Y-111770297D01*
X124793257Y-109865297D02*
X123886114Y-109865297D01*
X123886114Y-109865297D02*
X123795400Y-110772440D01*
X123795400Y-110772440D02*
X123886114Y-110681725D01*
X123886114Y-110681725D02*
X124067543Y-110591011D01*
X124067543Y-110591011D02*
X124521114Y-110591011D01*
X124521114Y-110591011D02*
X124702543Y-110681725D01*
X124702543Y-110681725D02*
X124793257Y-110772440D01*
X124793257Y-110772440D02*
X124883971Y-110953868D01*
X124883971Y-110953868D02*
X124883971Y-111407440D01*
X124883971Y-111407440D02*
X124793257Y-111588868D01*
X124793257Y-111588868D02*
X124702543Y-111679583D01*
X124702543Y-111679583D02*
X124521114Y-111770297D01*
X124521114Y-111770297D02*
X124067543Y-111770297D01*
X124067543Y-111770297D02*
X123886114Y-111679583D01*
X123886114Y-111679583D02*
X123795400Y-111588868D01*
X125700400Y-111044583D02*
X127151829Y-111044583D01*
X128421828Y-109865297D02*
X128603257Y-109865297D01*
X128603257Y-109865297D02*
X128784685Y-109956011D01*
X128784685Y-109956011D02*
X128875400Y-110046725D01*
X128875400Y-110046725D02*
X128966114Y-110228154D01*
X128966114Y-110228154D02*
X129056828Y-110591011D01*
X129056828Y-110591011D02*
X129056828Y-111044583D01*
X129056828Y-111044583D02*
X128966114Y-111407440D01*
X128966114Y-111407440D02*
X128875400Y-111588868D01*
X128875400Y-111588868D02*
X128784685Y-111679583D01*
X128784685Y-111679583D02*
X128603257Y-111770297D01*
X128603257Y-111770297D02*
X128421828Y-111770297D01*
X128421828Y-111770297D02*
X128240400Y-111679583D01*
X128240400Y-111679583D02*
X128149685Y-111588868D01*
X128149685Y-111588868D02*
X128058971Y-111407440D01*
X128058971Y-111407440D02*
X127968257Y-111044583D01*
X127968257Y-111044583D02*
X127968257Y-110591011D01*
X127968257Y-110591011D02*
X128058971Y-110228154D01*
X128058971Y-110228154D02*
X128149685Y-110046725D01*
X128149685Y-110046725D02*
X128240400Y-109956011D01*
X128240400Y-109956011D02*
X128421828Y-109865297D01*
X130780400Y-109865297D02*
X129873257Y-109865297D01*
X129873257Y-109865297D02*
X129782543Y-110772440D01*
X129782543Y-110772440D02*
X129873257Y-110681725D01*
X129873257Y-110681725D02*
X130054686Y-110591011D01*
X130054686Y-110591011D02*
X130508257Y-110591011D01*
X130508257Y-110591011D02*
X130689686Y-110681725D01*
X130689686Y-110681725D02*
X130780400Y-110772440D01*
X130780400Y-110772440D02*
X130871114Y-110953868D01*
X130871114Y-110953868D02*
X130871114Y-111407440D01*
X130871114Y-111407440D02*
X130780400Y-111588868D01*
X130780400Y-111588868D02*
X130689686Y-111679583D01*
X130689686Y-111679583D02*
X130508257Y-111770297D01*
X130508257Y-111770297D02*
X130054686Y-111770297D01*
X130054686Y-111770297D02*
X129873257Y-111679583D01*
X129873257Y-111679583D02*
X129782543Y-111588868D01*
D10*
X84736691Y-68797651D02*
X85522882Y-68797651D01*
X85522882Y-68797651D02*
X85099548Y-69281460D01*
X85099548Y-69281460D02*
X85280977Y-69281460D01*
X85280977Y-69281460D02*
X85401929Y-69341936D01*
X85401929Y-69341936D02*
X85462405Y-69402413D01*
X85462405Y-69402413D02*
X85522882Y-69523365D01*
X85522882Y-69523365D02*
X85522882Y-69825746D01*
X85522882Y-69825746D02*
X85462405Y-69946698D01*
X85462405Y-69946698D02*
X85401929Y-70007175D01*
X85401929Y-70007175D02*
X85280977Y-70067651D01*
X85280977Y-70067651D02*
X84918120Y-70067651D01*
X84918120Y-70067651D02*
X84797167Y-70007175D01*
X84797167Y-70007175D02*
X84736691Y-69946698D01*
X86067167Y-69946698D02*
X86127644Y-70007175D01*
X86127644Y-70007175D02*
X86067167Y-70067651D01*
X86067167Y-70067651D02*
X86006691Y-70007175D01*
X86006691Y-70007175D02*
X86067167Y-69946698D01*
X86067167Y-69946698D02*
X86067167Y-70067651D01*
X86550977Y-68797651D02*
X87337168Y-68797651D01*
X87337168Y-68797651D02*
X86913834Y-69281460D01*
X86913834Y-69281460D02*
X87095263Y-69281460D01*
X87095263Y-69281460D02*
X87216215Y-69341936D01*
X87216215Y-69341936D02*
X87276691Y-69402413D01*
X87276691Y-69402413D02*
X87337168Y-69523365D01*
X87337168Y-69523365D02*
X87337168Y-69825746D01*
X87337168Y-69825746D02*
X87276691Y-69946698D01*
X87276691Y-69946698D02*
X87216215Y-70007175D01*
X87216215Y-70007175D02*
X87095263Y-70067651D01*
X87095263Y-70067651D02*
X86732406Y-70067651D01*
X86732406Y-70067651D02*
X86611453Y-70007175D01*
X86611453Y-70007175D02*
X86550977Y-69946698D01*
X87700025Y-68797651D02*
X88123358Y-70067651D01*
X88123358Y-70067651D02*
X88546692Y-68797651D01*
X110070167Y-45292975D02*
X110251596Y-45353451D01*
X110251596Y-45353451D02*
X110553977Y-45353451D01*
X110553977Y-45353451D02*
X110674929Y-45292975D01*
X110674929Y-45292975D02*
X110735405Y-45232498D01*
X110735405Y-45232498D02*
X110795882Y-45111546D01*
X110795882Y-45111546D02*
X110795882Y-44990594D01*
X110795882Y-44990594D02*
X110735405Y-44869641D01*
X110735405Y-44869641D02*
X110674929Y-44809165D01*
X110674929Y-44809165D02*
X110553977Y-44748689D01*
X110553977Y-44748689D02*
X110312072Y-44688213D01*
X110312072Y-44688213D02*
X110191120Y-44627736D01*
X110191120Y-44627736D02*
X110130643Y-44567260D01*
X110130643Y-44567260D02*
X110070167Y-44446308D01*
X110070167Y-44446308D02*
X110070167Y-44325355D01*
X110070167Y-44325355D02*
X110130643Y-44204403D01*
X110130643Y-44204403D02*
X110191120Y-44143927D01*
X110191120Y-44143927D02*
X110312072Y-44083451D01*
X110312072Y-44083451D02*
X110614453Y-44083451D01*
X110614453Y-44083451D02*
X110795882Y-44143927D01*
X111340167Y-45353451D02*
X111340167Y-44083451D01*
X111340167Y-44688213D02*
X112065882Y-44688213D01*
X112065882Y-45353451D02*
X112065882Y-44083451D01*
X112670643Y-44083451D02*
X112670643Y-45111546D01*
X112670643Y-45111546D02*
X112731120Y-45232498D01*
X112731120Y-45232498D02*
X112791596Y-45292975D01*
X112791596Y-45292975D02*
X112912548Y-45353451D01*
X112912548Y-45353451D02*
X113154453Y-45353451D01*
X113154453Y-45353451D02*
X113275405Y-45292975D01*
X113275405Y-45292975D02*
X113335882Y-45232498D01*
X113335882Y-45232498D02*
X113396358Y-45111546D01*
X113396358Y-45111546D02*
X113396358Y-44083451D01*
X113819691Y-44083451D02*
X114545405Y-44083451D01*
X114182548Y-45353451D02*
X114182548Y-44083451D01*
X114968738Y-45353451D02*
X114968738Y-44083451D01*
X114968738Y-44083451D02*
X115271119Y-44083451D01*
X115271119Y-44083451D02*
X115452548Y-44143927D01*
X115452548Y-44143927D02*
X115573500Y-44264879D01*
X115573500Y-44264879D02*
X115633977Y-44385832D01*
X115633977Y-44385832D02*
X115694453Y-44627736D01*
X115694453Y-44627736D02*
X115694453Y-44809165D01*
X115694453Y-44809165D02*
X115633977Y-45051070D01*
X115633977Y-45051070D02*
X115573500Y-45172022D01*
X115573500Y-45172022D02*
X115452548Y-45292975D01*
X115452548Y-45292975D02*
X115271119Y-45353451D01*
X115271119Y-45353451D02*
X114968738Y-45353451D01*
X116480643Y-44083451D02*
X116722548Y-44083451D01*
X116722548Y-44083451D02*
X116843500Y-44143927D01*
X116843500Y-44143927D02*
X116964453Y-44264879D01*
X116964453Y-44264879D02*
X117024929Y-44506784D01*
X117024929Y-44506784D02*
X117024929Y-44930117D01*
X117024929Y-44930117D02*
X116964453Y-45172022D01*
X116964453Y-45172022D02*
X116843500Y-45292975D01*
X116843500Y-45292975D02*
X116722548Y-45353451D01*
X116722548Y-45353451D02*
X116480643Y-45353451D01*
X116480643Y-45353451D02*
X116359691Y-45292975D01*
X116359691Y-45292975D02*
X116238738Y-45172022D01*
X116238738Y-45172022D02*
X116178262Y-44930117D01*
X116178262Y-44930117D02*
X116178262Y-44506784D01*
X116178262Y-44506784D02*
X116238738Y-44264879D01*
X116238738Y-44264879D02*
X116359691Y-44143927D01*
X116359691Y-44143927D02*
X116480643Y-44083451D01*
X117448262Y-44083451D02*
X117750643Y-45353451D01*
X117750643Y-45353451D02*
X117992548Y-44446308D01*
X117992548Y-44446308D02*
X118234453Y-45353451D01*
X118234453Y-45353451D02*
X118536834Y-44083451D01*
X119020643Y-45353451D02*
X119020643Y-44083451D01*
X119020643Y-44083451D02*
X119746358Y-45353451D01*
X119746358Y-45353451D02*
X119746358Y-44083451D01*
X142207215Y-55462651D02*
X142630548Y-56732651D01*
X142630548Y-56732651D02*
X143053882Y-55462651D01*
X143719119Y-55462651D02*
X143961024Y-55462651D01*
X143961024Y-55462651D02*
X144081976Y-55523127D01*
X144081976Y-55523127D02*
X144202929Y-55644079D01*
X144202929Y-55644079D02*
X144263405Y-55885984D01*
X144263405Y-55885984D02*
X144263405Y-56309317D01*
X144263405Y-56309317D02*
X144202929Y-56551222D01*
X144202929Y-56551222D02*
X144081976Y-56672175D01*
X144081976Y-56672175D02*
X143961024Y-56732651D01*
X143961024Y-56732651D02*
X143719119Y-56732651D01*
X143719119Y-56732651D02*
X143598167Y-56672175D01*
X143598167Y-56672175D02*
X143477214Y-56551222D01*
X143477214Y-56551222D02*
X143416738Y-56309317D01*
X143416738Y-56309317D02*
X143416738Y-55885984D01*
X143416738Y-55885984D02*
X143477214Y-55644079D01*
X143477214Y-55644079D02*
X143598167Y-55523127D01*
X143598167Y-55523127D02*
X143719119Y-55462651D01*
X144807690Y-55462651D02*
X144807690Y-56490746D01*
X144807690Y-56490746D02*
X144868167Y-56611698D01*
X144868167Y-56611698D02*
X144928643Y-56672175D01*
X144928643Y-56672175D02*
X145049595Y-56732651D01*
X145049595Y-56732651D02*
X145291500Y-56732651D01*
X145291500Y-56732651D02*
X145412452Y-56672175D01*
X145412452Y-56672175D02*
X145472929Y-56611698D01*
X145472929Y-56611698D02*
X145533405Y-56490746D01*
X145533405Y-56490746D02*
X145533405Y-55462651D01*
X145956738Y-55462651D02*
X146682452Y-55462651D01*
X146319595Y-56732651D02*
X146319595Y-55462651D01*
X85274929Y-54832651D02*
X85033024Y-54832651D01*
X85033024Y-54832651D02*
X84912072Y-54893127D01*
X84912072Y-54893127D02*
X84851596Y-54953603D01*
X84851596Y-54953603D02*
X84730643Y-55135032D01*
X84730643Y-55135032D02*
X84670167Y-55376936D01*
X84670167Y-55376936D02*
X84670167Y-55860746D01*
X84670167Y-55860746D02*
X84730643Y-55981698D01*
X84730643Y-55981698D02*
X84791120Y-56042175D01*
X84791120Y-56042175D02*
X84912072Y-56102651D01*
X84912072Y-56102651D02*
X85153977Y-56102651D01*
X85153977Y-56102651D02*
X85274929Y-56042175D01*
X85274929Y-56042175D02*
X85335405Y-55981698D01*
X85335405Y-55981698D02*
X85395882Y-55860746D01*
X85395882Y-55860746D02*
X85395882Y-55558365D01*
X85395882Y-55558365D02*
X85335405Y-55437413D01*
X85335405Y-55437413D02*
X85274929Y-55376936D01*
X85274929Y-55376936D02*
X85153977Y-55316460D01*
X85153977Y-55316460D02*
X84912072Y-55316460D01*
X84912072Y-55316460D02*
X84791120Y-55376936D01*
X84791120Y-55376936D02*
X84730643Y-55437413D01*
X84730643Y-55437413D02*
X84670167Y-55558365D01*
X86182072Y-54832651D02*
X86303025Y-54832651D01*
X86303025Y-54832651D02*
X86423977Y-54893127D01*
X86423977Y-54893127D02*
X86484453Y-54953603D01*
X86484453Y-54953603D02*
X86544929Y-55074555D01*
X86544929Y-55074555D02*
X86605406Y-55316460D01*
X86605406Y-55316460D02*
X86605406Y-55618841D01*
X86605406Y-55618841D02*
X86544929Y-55860746D01*
X86544929Y-55860746D02*
X86484453Y-55981698D01*
X86484453Y-55981698D02*
X86423977Y-56042175D01*
X86423977Y-56042175D02*
X86303025Y-56102651D01*
X86303025Y-56102651D02*
X86182072Y-56102651D01*
X86182072Y-56102651D02*
X86061120Y-56042175D01*
X86061120Y-56042175D02*
X86000644Y-55981698D01*
X86000644Y-55981698D02*
X85940167Y-55860746D01*
X85940167Y-55860746D02*
X85879691Y-55618841D01*
X85879691Y-55618841D02*
X85879691Y-55316460D01*
X85879691Y-55316460D02*
X85940167Y-55074555D01*
X85940167Y-55074555D02*
X86000644Y-54953603D01*
X86000644Y-54953603D02*
X86061120Y-54893127D01*
X86061120Y-54893127D02*
X86182072Y-54832651D01*
X86968263Y-54832651D02*
X87391596Y-56102651D01*
X87391596Y-56102651D02*
X87814930Y-54832651D01*
D12*
X117455961Y-68825257D02*
X117360723Y-68777638D01*
X117360723Y-68777638D02*
X117265485Y-68682400D01*
X117265485Y-68682400D02*
X117122628Y-68539542D01*
X117122628Y-68539542D02*
X117027390Y-68491923D01*
X117027390Y-68491923D02*
X116932152Y-68491923D01*
X116979771Y-68730019D02*
X116884533Y-68682400D01*
X116884533Y-68682400D02*
X116789295Y-68587161D01*
X116789295Y-68587161D02*
X116741676Y-68396685D01*
X116741676Y-68396685D02*
X116741676Y-68063352D01*
X116741676Y-68063352D02*
X116789295Y-67872876D01*
X116789295Y-67872876D02*
X116884533Y-67777638D01*
X116884533Y-67777638D02*
X116979771Y-67730019D01*
X116979771Y-67730019D02*
X117170247Y-67730019D01*
X117170247Y-67730019D02*
X117265485Y-67777638D01*
X117265485Y-67777638D02*
X117360723Y-67872876D01*
X117360723Y-67872876D02*
X117408342Y-68063352D01*
X117408342Y-68063352D02*
X117408342Y-68396685D01*
X117408342Y-68396685D02*
X117360723Y-68587161D01*
X117360723Y-68587161D02*
X117265485Y-68682400D01*
X117265485Y-68682400D02*
X117170247Y-68730019D01*
X117170247Y-68730019D02*
X116979771Y-68730019D01*
X118313104Y-67730019D02*
X117836914Y-67730019D01*
X117836914Y-67730019D02*
X117789295Y-68206209D01*
X117789295Y-68206209D02*
X117836914Y-68158590D01*
X117836914Y-68158590D02*
X117932152Y-68110971D01*
X117932152Y-68110971D02*
X118170247Y-68110971D01*
X118170247Y-68110971D02*
X118265485Y-68158590D01*
X118265485Y-68158590D02*
X118313104Y-68206209D01*
X118313104Y-68206209D02*
X118360723Y-68301447D01*
X118360723Y-68301447D02*
X118360723Y-68539542D01*
X118360723Y-68539542D02*
X118313104Y-68634780D01*
X118313104Y-68634780D02*
X118265485Y-68682400D01*
X118265485Y-68682400D02*
X118170247Y-68730019D01*
X118170247Y-68730019D02*
X117932152Y-68730019D01*
X117932152Y-68730019D02*
X117836914Y-68682400D01*
X117836914Y-68682400D02*
X117789295Y-68634780D01*
D10*
X99035809Y-73212801D02*
X99035809Y-71942801D01*
X99640571Y-73212801D02*
X99640571Y-71942801D01*
X99640571Y-71942801D02*
X100063905Y-72849944D01*
X100063905Y-72849944D02*
X100487238Y-71942801D01*
X100487238Y-71942801D02*
X100487238Y-73212801D01*
X101333905Y-71942801D02*
X101575810Y-71942801D01*
X101575810Y-71942801D02*
X101696762Y-72003277D01*
X101696762Y-72003277D02*
X101817715Y-72124229D01*
X101817715Y-72124229D02*
X101878191Y-72366134D01*
X101878191Y-72366134D02*
X101878191Y-72789467D01*
X101878191Y-72789467D02*
X101817715Y-73031372D01*
X101817715Y-73031372D02*
X101696762Y-73152325D01*
X101696762Y-73152325D02*
X101575810Y-73212801D01*
X101575810Y-73212801D02*
X101333905Y-73212801D01*
X101333905Y-73212801D02*
X101212953Y-73152325D01*
X101212953Y-73152325D02*
X101092000Y-73031372D01*
X101092000Y-73031372D02*
X101031524Y-72789467D01*
X101031524Y-72789467D02*
X101031524Y-72366134D01*
X101031524Y-72366134D02*
X101092000Y-72124229D01*
X101092000Y-72124229D02*
X101212953Y-72003277D01*
X101212953Y-72003277D02*
X101333905Y-71942801D01*
X102422476Y-73212801D02*
X102422476Y-71942801D01*
X102422476Y-71942801D02*
X103148191Y-73212801D01*
X103148191Y-73212801D02*
X103148191Y-71942801D01*
D12*
X132370533Y-61827580D02*
X132322914Y-61875200D01*
X132322914Y-61875200D02*
X132180057Y-61922819D01*
X132180057Y-61922819D02*
X132084819Y-61922819D01*
X132084819Y-61922819D02*
X131941962Y-61875200D01*
X131941962Y-61875200D02*
X131846724Y-61779961D01*
X131846724Y-61779961D02*
X131799105Y-61684723D01*
X131799105Y-61684723D02*
X131751486Y-61494247D01*
X131751486Y-61494247D02*
X131751486Y-61351390D01*
X131751486Y-61351390D02*
X131799105Y-61160914D01*
X131799105Y-61160914D02*
X131846724Y-61065676D01*
X131846724Y-61065676D02*
X131941962Y-60970438D01*
X131941962Y-60970438D02*
X132084819Y-60922819D01*
X132084819Y-60922819D02*
X132180057Y-60922819D01*
X132180057Y-60922819D02*
X132322914Y-60970438D01*
X132322914Y-60970438D02*
X132370533Y-61018057D01*
X132941962Y-61351390D02*
X132846724Y-61303771D01*
X132846724Y-61303771D02*
X132799105Y-61256152D01*
X132799105Y-61256152D02*
X132751486Y-61160914D01*
X132751486Y-61160914D02*
X132751486Y-61113295D01*
X132751486Y-61113295D02*
X132799105Y-61018057D01*
X132799105Y-61018057D02*
X132846724Y-60970438D01*
X132846724Y-60970438D02*
X132941962Y-60922819D01*
X132941962Y-60922819D02*
X133132438Y-60922819D01*
X133132438Y-60922819D02*
X133227676Y-60970438D01*
X133227676Y-60970438D02*
X133275295Y-61018057D01*
X133275295Y-61018057D02*
X133322914Y-61113295D01*
X133322914Y-61113295D02*
X133322914Y-61160914D01*
X133322914Y-61160914D02*
X133275295Y-61256152D01*
X133275295Y-61256152D02*
X133227676Y-61303771D01*
X133227676Y-61303771D02*
X133132438Y-61351390D01*
X133132438Y-61351390D02*
X132941962Y-61351390D01*
X132941962Y-61351390D02*
X132846724Y-61399009D01*
X132846724Y-61399009D02*
X132799105Y-61446628D01*
X132799105Y-61446628D02*
X132751486Y-61541866D01*
X132751486Y-61541866D02*
X132751486Y-61732342D01*
X132751486Y-61732342D02*
X132799105Y-61827580D01*
X132799105Y-61827580D02*
X132846724Y-61875200D01*
X132846724Y-61875200D02*
X132941962Y-61922819D01*
X132941962Y-61922819D02*
X133132438Y-61922819D01*
X133132438Y-61922819D02*
X133227676Y-61875200D01*
X133227676Y-61875200D02*
X133275295Y-61827580D01*
X133275295Y-61827580D02*
X133322914Y-61732342D01*
X133322914Y-61732342D02*
X133322914Y-61541866D01*
X133322914Y-61541866D02*
X133275295Y-61446628D01*
X133275295Y-61446628D02*
X133227676Y-61399009D01*
X133227676Y-61399009D02*
X133132438Y-61351390D01*
X104415742Y-52982019D02*
X104082409Y-52505828D01*
X103844314Y-52982019D02*
X103844314Y-51982019D01*
X103844314Y-51982019D02*
X104225266Y-51982019D01*
X104225266Y-51982019D02*
X104320504Y-52029638D01*
X104320504Y-52029638D02*
X104368123Y-52077257D01*
X104368123Y-52077257D02*
X104415742Y-52172495D01*
X104415742Y-52172495D02*
X104415742Y-52315352D01*
X104415742Y-52315352D02*
X104368123Y-52410590D01*
X104368123Y-52410590D02*
X104320504Y-52458209D01*
X104320504Y-52458209D02*
X104225266Y-52505828D01*
X104225266Y-52505828D02*
X103844314Y-52505828D01*
X105368123Y-52982019D02*
X104796695Y-52982019D01*
X105082409Y-52982019D02*
X105082409Y-51982019D01*
X105082409Y-51982019D02*
X104987171Y-52124876D01*
X104987171Y-52124876D02*
X104891933Y-52220114D01*
X104891933Y-52220114D02*
X104796695Y-52267733D01*
X106225266Y-52315352D02*
X106225266Y-52982019D01*
X105987171Y-51934400D02*
X105749076Y-52648685D01*
X105749076Y-52648685D02*
X106368123Y-52648685D01*
X137505533Y-56436419D02*
X137172200Y-55960228D01*
X136934105Y-56436419D02*
X136934105Y-55436419D01*
X136934105Y-55436419D02*
X137315057Y-55436419D01*
X137315057Y-55436419D02*
X137410295Y-55484038D01*
X137410295Y-55484038D02*
X137457914Y-55531657D01*
X137457914Y-55531657D02*
X137505533Y-55626895D01*
X137505533Y-55626895D02*
X137505533Y-55769752D01*
X137505533Y-55769752D02*
X137457914Y-55864990D01*
X137457914Y-55864990D02*
X137410295Y-55912609D01*
X137410295Y-55912609D02*
X137315057Y-55960228D01*
X137315057Y-55960228D02*
X136934105Y-55960228D01*
X137981724Y-56436419D02*
X138172200Y-56436419D01*
X138172200Y-56436419D02*
X138267438Y-56388800D01*
X138267438Y-56388800D02*
X138315057Y-56341180D01*
X138315057Y-56341180D02*
X138410295Y-56198323D01*
X138410295Y-56198323D02*
X138457914Y-56007847D01*
X138457914Y-56007847D02*
X138457914Y-55626895D01*
X138457914Y-55626895D02*
X138410295Y-55531657D01*
X138410295Y-55531657D02*
X138362676Y-55484038D01*
X138362676Y-55484038D02*
X138267438Y-55436419D01*
X138267438Y-55436419D02*
X138076962Y-55436419D01*
X138076962Y-55436419D02*
X137981724Y-55484038D01*
X137981724Y-55484038D02*
X137934105Y-55531657D01*
X137934105Y-55531657D02*
X137886486Y-55626895D01*
X137886486Y-55626895D02*
X137886486Y-55864990D01*
X137886486Y-55864990D02*
X137934105Y-55960228D01*
X137934105Y-55960228D02*
X137981724Y-56007847D01*
X137981724Y-56007847D02*
X138076962Y-56055466D01*
X138076962Y-56055466D02*
X138267438Y-56055466D01*
X138267438Y-56055466D02*
X138362676Y-56007847D01*
X138362676Y-56007847D02*
X138410295Y-55960228D01*
X138410295Y-55960228D02*
X138457914Y-55864990D01*
X120892033Y-48340180D02*
X120844414Y-48387800D01*
X120844414Y-48387800D02*
X120701557Y-48435419D01*
X120701557Y-48435419D02*
X120606319Y-48435419D01*
X120606319Y-48435419D02*
X120463462Y-48387800D01*
X120463462Y-48387800D02*
X120368224Y-48292561D01*
X120368224Y-48292561D02*
X120320605Y-48197323D01*
X120320605Y-48197323D02*
X120272986Y-48006847D01*
X120272986Y-48006847D02*
X120272986Y-47863990D01*
X120272986Y-47863990D02*
X120320605Y-47673514D01*
X120320605Y-47673514D02*
X120368224Y-47578276D01*
X120368224Y-47578276D02*
X120463462Y-47483038D01*
X120463462Y-47483038D02*
X120606319Y-47435419D01*
X120606319Y-47435419D02*
X120701557Y-47435419D01*
X120701557Y-47435419D02*
X120844414Y-47483038D01*
X120844414Y-47483038D02*
X120892033Y-47530657D01*
X121749176Y-47768752D02*
X121749176Y-48435419D01*
X121511081Y-47387800D02*
X121272986Y-48102085D01*
X121272986Y-48102085D02*
X121892033Y-48102085D01*
X116813105Y-47648019D02*
X116813105Y-46648019D01*
X116813105Y-46648019D02*
X117051200Y-46648019D01*
X117051200Y-46648019D02*
X117194057Y-46695638D01*
X117194057Y-46695638D02*
X117289295Y-46790876D01*
X117289295Y-46790876D02*
X117336914Y-46886114D01*
X117336914Y-46886114D02*
X117384533Y-47076590D01*
X117384533Y-47076590D02*
X117384533Y-47219447D01*
X117384533Y-47219447D02*
X117336914Y-47409923D01*
X117336914Y-47409923D02*
X117289295Y-47505161D01*
X117289295Y-47505161D02*
X117194057Y-47600400D01*
X117194057Y-47600400D02*
X117051200Y-47648019D01*
X117051200Y-47648019D02*
X116813105Y-47648019D01*
X118336914Y-47648019D02*
X117765486Y-47648019D01*
X118051200Y-47648019D02*
X118051200Y-46648019D01*
X118051200Y-46648019D02*
X117955962Y-46790876D01*
X117955962Y-46790876D02*
X117860724Y-46886114D01*
X117860724Y-46886114D02*
X117765486Y-46933733D01*
D13*
X111753084Y-47564019D02*
X111753084Y-46564019D01*
X112324512Y-47564019D02*
X111895941Y-46992590D01*
X112324512Y-46564019D02*
X111753084Y-47135447D01*
D12*
X88820666Y-72987819D02*
X88820666Y-73702104D01*
X88820666Y-73702104D02*
X88773047Y-73844961D01*
X88773047Y-73844961D02*
X88677809Y-73940200D01*
X88677809Y-73940200D02*
X88534952Y-73987819D01*
X88534952Y-73987819D02*
X88439714Y-73987819D01*
X89201619Y-72987819D02*
X89820666Y-72987819D01*
X89820666Y-72987819D02*
X89487333Y-73368771D01*
X89487333Y-73368771D02*
X89630190Y-73368771D01*
X89630190Y-73368771D02*
X89725428Y-73416390D01*
X89725428Y-73416390D02*
X89773047Y-73464009D01*
X89773047Y-73464009D02*
X89820666Y-73559247D01*
X89820666Y-73559247D02*
X89820666Y-73797342D01*
X89820666Y-73797342D02*
X89773047Y-73892580D01*
X89773047Y-73892580D02*
X89725428Y-73940200D01*
X89725428Y-73940200D02*
X89630190Y-73987819D01*
X89630190Y-73987819D02*
X89344476Y-73987819D01*
X89344476Y-73987819D02*
X89249238Y-73940200D01*
X89249238Y-73940200D02*
X89201619Y-73892580D01*
X128865333Y-59763819D02*
X128532000Y-59287628D01*
X128293905Y-59763819D02*
X128293905Y-58763819D01*
X128293905Y-58763819D02*
X128674857Y-58763819D01*
X128674857Y-58763819D02*
X128770095Y-58811438D01*
X128770095Y-58811438D02*
X128817714Y-58859057D01*
X128817714Y-58859057D02*
X128865333Y-58954295D01*
X128865333Y-58954295D02*
X128865333Y-59097152D01*
X128865333Y-59097152D02*
X128817714Y-59192390D01*
X128817714Y-59192390D02*
X128770095Y-59240009D01*
X128770095Y-59240009D02*
X128674857Y-59287628D01*
X128674857Y-59287628D02*
X128293905Y-59287628D01*
X129198667Y-58763819D02*
X129817714Y-58763819D01*
X129817714Y-58763819D02*
X129484381Y-59144771D01*
X129484381Y-59144771D02*
X129627238Y-59144771D01*
X129627238Y-59144771D02*
X129722476Y-59192390D01*
X129722476Y-59192390D02*
X129770095Y-59240009D01*
X129770095Y-59240009D02*
X129817714Y-59335247D01*
X129817714Y-59335247D02*
X129817714Y-59573342D01*
X129817714Y-59573342D02*
X129770095Y-59668580D01*
X129770095Y-59668580D02*
X129722476Y-59716200D01*
X129722476Y-59716200D02*
X129627238Y-59763819D01*
X129627238Y-59763819D02*
X129341524Y-59763819D01*
X129341524Y-59763819D02*
X129246286Y-59716200D01*
X129246286Y-59716200D02*
X129198667Y-59668580D01*
X88947666Y-59149819D02*
X88947666Y-59864104D01*
X88947666Y-59864104D02*
X88900047Y-60006961D01*
X88900047Y-60006961D02*
X88804809Y-60102200D01*
X88804809Y-60102200D02*
X88661952Y-60149819D01*
X88661952Y-60149819D02*
X88566714Y-60149819D01*
X89376238Y-59245057D02*
X89423857Y-59197438D01*
X89423857Y-59197438D02*
X89519095Y-59149819D01*
X89519095Y-59149819D02*
X89757190Y-59149819D01*
X89757190Y-59149819D02*
X89852428Y-59197438D01*
X89852428Y-59197438D02*
X89900047Y-59245057D01*
X89900047Y-59245057D02*
X89947666Y-59340295D01*
X89947666Y-59340295D02*
X89947666Y-59435533D01*
X89947666Y-59435533D02*
X89900047Y-59578390D01*
X89900047Y-59578390D02*
X89328619Y-60149819D01*
X89328619Y-60149819D02*
X89947666Y-60149819D01*
X126198333Y-48238580D02*
X126150714Y-48286200D01*
X126150714Y-48286200D02*
X126007857Y-48333819D01*
X126007857Y-48333819D02*
X125912619Y-48333819D01*
X125912619Y-48333819D02*
X125769762Y-48286200D01*
X125769762Y-48286200D02*
X125674524Y-48190961D01*
X125674524Y-48190961D02*
X125626905Y-48095723D01*
X125626905Y-48095723D02*
X125579286Y-47905247D01*
X125579286Y-47905247D02*
X125579286Y-47762390D01*
X125579286Y-47762390D02*
X125626905Y-47571914D01*
X125626905Y-47571914D02*
X125674524Y-47476676D01*
X125674524Y-47476676D02*
X125769762Y-47381438D01*
X125769762Y-47381438D02*
X125912619Y-47333819D01*
X125912619Y-47333819D02*
X126007857Y-47333819D01*
X126007857Y-47333819D02*
X126150714Y-47381438D01*
X126150714Y-47381438D02*
X126198333Y-47429057D01*
X127103095Y-47333819D02*
X126626905Y-47333819D01*
X126626905Y-47333819D02*
X126579286Y-47810009D01*
X126579286Y-47810009D02*
X126626905Y-47762390D01*
X126626905Y-47762390D02*
X126722143Y-47714771D01*
X126722143Y-47714771D02*
X126960238Y-47714771D01*
X126960238Y-47714771D02*
X127055476Y-47762390D01*
X127055476Y-47762390D02*
X127103095Y-47810009D01*
X127103095Y-47810009D02*
X127150714Y-47905247D01*
X127150714Y-47905247D02*
X127150714Y-48143342D01*
X127150714Y-48143342D02*
X127103095Y-48238580D01*
X127103095Y-48238580D02*
X127055476Y-48286200D01*
X127055476Y-48286200D02*
X126960238Y-48333819D01*
X126960238Y-48333819D02*
X126722143Y-48333819D01*
X126722143Y-48333819D02*
X126626905Y-48286200D01*
X126626905Y-48286200D02*
X126579286Y-48238580D01*
X137560842Y-58595419D02*
X137227509Y-58119228D01*
X136989414Y-58595419D02*
X136989414Y-57595419D01*
X136989414Y-57595419D02*
X137370366Y-57595419D01*
X137370366Y-57595419D02*
X137465604Y-57643038D01*
X137465604Y-57643038D02*
X137513223Y-57690657D01*
X137513223Y-57690657D02*
X137560842Y-57785895D01*
X137560842Y-57785895D02*
X137560842Y-57928752D01*
X137560842Y-57928752D02*
X137513223Y-58023990D01*
X137513223Y-58023990D02*
X137465604Y-58071609D01*
X137465604Y-58071609D02*
X137370366Y-58119228D01*
X137370366Y-58119228D02*
X136989414Y-58119228D01*
X138513223Y-58595419D02*
X137941795Y-58595419D01*
X138227509Y-58595419D02*
X138227509Y-57595419D01*
X138227509Y-57595419D02*
X138132271Y-57738276D01*
X138132271Y-57738276D02*
X138037033Y-57833514D01*
X138037033Y-57833514D02*
X137941795Y-57881133D01*
X139132271Y-57595419D02*
X139227509Y-57595419D01*
X139227509Y-57595419D02*
X139322747Y-57643038D01*
X139322747Y-57643038D02*
X139370366Y-57690657D01*
X139370366Y-57690657D02*
X139417985Y-57785895D01*
X139417985Y-57785895D02*
X139465604Y-57976371D01*
X139465604Y-57976371D02*
X139465604Y-58214466D01*
X139465604Y-58214466D02*
X139417985Y-58404942D01*
X139417985Y-58404942D02*
X139370366Y-58500180D01*
X139370366Y-58500180D02*
X139322747Y-58547800D01*
X139322747Y-58547800D02*
X139227509Y-58595419D01*
X139227509Y-58595419D02*
X139132271Y-58595419D01*
X139132271Y-58595419D02*
X139037033Y-58547800D01*
X139037033Y-58547800D02*
X138989414Y-58500180D01*
X138989414Y-58500180D02*
X138941795Y-58404942D01*
X138941795Y-58404942D02*
X138894176Y-58214466D01*
X138894176Y-58214466D02*
X138894176Y-57976371D01*
X138894176Y-57976371D02*
X138941795Y-57785895D01*
X138941795Y-57785895D02*
X138989414Y-57690657D01*
X138989414Y-57690657D02*
X139037033Y-57643038D01*
X139037033Y-57643038D02*
X139132271Y-57595419D01*
X109561333Y-55616019D02*
X109228000Y-55139828D01*
X108989905Y-55616019D02*
X108989905Y-54616019D01*
X108989905Y-54616019D02*
X109370857Y-54616019D01*
X109370857Y-54616019D02*
X109466095Y-54663638D01*
X109466095Y-54663638D02*
X109513714Y-54711257D01*
X109513714Y-54711257D02*
X109561333Y-54806495D01*
X109561333Y-54806495D02*
X109561333Y-54949352D01*
X109561333Y-54949352D02*
X109513714Y-55044590D01*
X109513714Y-55044590D02*
X109466095Y-55092209D01*
X109466095Y-55092209D02*
X109370857Y-55139828D01*
X109370857Y-55139828D02*
X108989905Y-55139828D01*
X110418476Y-54949352D02*
X110418476Y-55616019D01*
X110180381Y-54568400D02*
X109942286Y-55282685D01*
X109942286Y-55282685D02*
X110561333Y-55282685D01*
X101007942Y-56645980D02*
X100960323Y-56693600D01*
X100960323Y-56693600D02*
X100817466Y-56741219D01*
X100817466Y-56741219D02*
X100722228Y-56741219D01*
X100722228Y-56741219D02*
X100579371Y-56693600D01*
X100579371Y-56693600D02*
X100484133Y-56598361D01*
X100484133Y-56598361D02*
X100436514Y-56503123D01*
X100436514Y-56503123D02*
X100388895Y-56312647D01*
X100388895Y-56312647D02*
X100388895Y-56169790D01*
X100388895Y-56169790D02*
X100436514Y-55979314D01*
X100436514Y-55979314D02*
X100484133Y-55884076D01*
X100484133Y-55884076D02*
X100579371Y-55788838D01*
X100579371Y-55788838D02*
X100722228Y-55741219D01*
X100722228Y-55741219D02*
X100817466Y-55741219D01*
X100817466Y-55741219D02*
X100960323Y-55788838D01*
X100960323Y-55788838D02*
X101007942Y-55836457D01*
X101960323Y-56741219D02*
X101388895Y-56741219D01*
X101674609Y-56741219D02*
X101674609Y-55741219D01*
X101674609Y-55741219D02*
X101579371Y-55884076D01*
X101579371Y-55884076D02*
X101484133Y-55979314D01*
X101484133Y-55979314D02*
X101388895Y-56026933D01*
X102579371Y-55741219D02*
X102674609Y-55741219D01*
X102674609Y-55741219D02*
X102769847Y-55788838D01*
X102769847Y-55788838D02*
X102817466Y-55836457D01*
X102817466Y-55836457D02*
X102865085Y-55931695D01*
X102865085Y-55931695D02*
X102912704Y-56122171D01*
X102912704Y-56122171D02*
X102912704Y-56360266D01*
X102912704Y-56360266D02*
X102865085Y-56550742D01*
X102865085Y-56550742D02*
X102817466Y-56645980D01*
X102817466Y-56645980D02*
X102769847Y-56693600D01*
X102769847Y-56693600D02*
X102674609Y-56741219D01*
X102674609Y-56741219D02*
X102579371Y-56741219D01*
X102579371Y-56741219D02*
X102484133Y-56693600D01*
X102484133Y-56693600D02*
X102436514Y-56645980D01*
X102436514Y-56645980D02*
X102388895Y-56550742D01*
X102388895Y-56550742D02*
X102341276Y-56360266D01*
X102341276Y-56360266D02*
X102341276Y-56122171D01*
X102341276Y-56122171D02*
X102388895Y-55931695D01*
X102388895Y-55931695D02*
X102436514Y-55836457D01*
X102436514Y-55836457D02*
X102484133Y-55788838D01*
X102484133Y-55788838D02*
X102579371Y-55741219D01*
X96588342Y-54506019D02*
X96255009Y-54029828D01*
X96016914Y-54506019D02*
X96016914Y-53506019D01*
X96016914Y-53506019D02*
X96397866Y-53506019D01*
X96397866Y-53506019D02*
X96493104Y-53553638D01*
X96493104Y-53553638D02*
X96540723Y-53601257D01*
X96540723Y-53601257D02*
X96588342Y-53696495D01*
X96588342Y-53696495D02*
X96588342Y-53839352D01*
X96588342Y-53839352D02*
X96540723Y-53934590D01*
X96540723Y-53934590D02*
X96493104Y-53982209D01*
X96493104Y-53982209D02*
X96397866Y-54029828D01*
X96397866Y-54029828D02*
X96016914Y-54029828D01*
X97540723Y-54506019D02*
X96969295Y-54506019D01*
X97255009Y-54506019D02*
X97255009Y-53506019D01*
X97255009Y-53506019D02*
X97159771Y-53648876D01*
X97159771Y-53648876D02*
X97064533Y-53744114D01*
X97064533Y-53744114D02*
X96969295Y-53791733D01*
X97874057Y-53506019D02*
X98493104Y-53506019D01*
X98493104Y-53506019D02*
X98159771Y-53886971D01*
X98159771Y-53886971D02*
X98302628Y-53886971D01*
X98302628Y-53886971D02*
X98397866Y-53934590D01*
X98397866Y-53934590D02*
X98445485Y-53982209D01*
X98445485Y-53982209D02*
X98493104Y-54077447D01*
X98493104Y-54077447D02*
X98493104Y-54315542D01*
X98493104Y-54315542D02*
X98445485Y-54410780D01*
X98445485Y-54410780D02*
X98397866Y-54458400D01*
X98397866Y-54458400D02*
X98302628Y-54506019D01*
X98302628Y-54506019D02*
X98016914Y-54506019D01*
X98016914Y-54506019D02*
X97921676Y-54458400D01*
X97921676Y-54458400D02*
X97874057Y-54410780D01*
X105327842Y-70000019D02*
X104994509Y-69523828D01*
X104756414Y-70000019D02*
X104756414Y-69000019D01*
X104756414Y-69000019D02*
X105137366Y-69000019D01*
X105137366Y-69000019D02*
X105232604Y-69047638D01*
X105232604Y-69047638D02*
X105280223Y-69095257D01*
X105280223Y-69095257D02*
X105327842Y-69190495D01*
X105327842Y-69190495D02*
X105327842Y-69333352D01*
X105327842Y-69333352D02*
X105280223Y-69428590D01*
X105280223Y-69428590D02*
X105232604Y-69476209D01*
X105232604Y-69476209D02*
X105137366Y-69523828D01*
X105137366Y-69523828D02*
X104756414Y-69523828D01*
X106280223Y-70000019D02*
X105708795Y-70000019D01*
X105994509Y-70000019D02*
X105994509Y-69000019D01*
X105994509Y-69000019D02*
X105899271Y-69142876D01*
X105899271Y-69142876D02*
X105804033Y-69238114D01*
X105804033Y-69238114D02*
X105708795Y-69285733D01*
X107137366Y-69000019D02*
X106946890Y-69000019D01*
X106946890Y-69000019D02*
X106851652Y-69047638D01*
X106851652Y-69047638D02*
X106804033Y-69095257D01*
X106804033Y-69095257D02*
X106708795Y-69238114D01*
X106708795Y-69238114D02*
X106661176Y-69428590D01*
X106661176Y-69428590D02*
X106661176Y-69809542D01*
X106661176Y-69809542D02*
X106708795Y-69904780D01*
X106708795Y-69904780D02*
X106756414Y-69952400D01*
X106756414Y-69952400D02*
X106851652Y-70000019D01*
X106851652Y-70000019D02*
X107042128Y-70000019D01*
X107042128Y-70000019D02*
X107137366Y-69952400D01*
X107137366Y-69952400D02*
X107184985Y-69904780D01*
X107184985Y-69904780D02*
X107232604Y-69809542D01*
X107232604Y-69809542D02*
X107232604Y-69571447D01*
X107232604Y-69571447D02*
X107184985Y-69476209D01*
X107184985Y-69476209D02*
X107137366Y-69428590D01*
X107137366Y-69428590D02*
X107042128Y-69380971D01*
X107042128Y-69380971D02*
X106851652Y-69380971D01*
X106851652Y-69380971D02*
X106756414Y-69428590D01*
X106756414Y-69428590D02*
X106708795Y-69476209D01*
X106708795Y-69476209D02*
X106661176Y-69571447D01*
X94156305Y-104137619D02*
X94156305Y-103137619D01*
X94156305Y-103137619D02*
X94394400Y-103137619D01*
X94394400Y-103137619D02*
X94537257Y-103185238D01*
X94537257Y-103185238D02*
X94632495Y-103280476D01*
X94632495Y-103280476D02*
X94680114Y-103375714D01*
X94680114Y-103375714D02*
X94727733Y-103566190D01*
X94727733Y-103566190D02*
X94727733Y-103709047D01*
X94727733Y-103709047D02*
X94680114Y-103899523D01*
X94680114Y-103899523D02*
X94632495Y-103994761D01*
X94632495Y-103994761D02*
X94537257Y-104090000D01*
X94537257Y-104090000D02*
X94394400Y-104137619D01*
X94394400Y-104137619D02*
X94156305Y-104137619D01*
X95061067Y-103137619D02*
X95680114Y-103137619D01*
X95680114Y-103137619D02*
X95346781Y-103518571D01*
X95346781Y-103518571D02*
X95489638Y-103518571D01*
X95489638Y-103518571D02*
X95584876Y-103566190D01*
X95584876Y-103566190D02*
X95632495Y-103613809D01*
X95632495Y-103613809D02*
X95680114Y-103709047D01*
X95680114Y-103709047D02*
X95680114Y-103947142D01*
X95680114Y-103947142D02*
X95632495Y-104042380D01*
X95632495Y-104042380D02*
X95584876Y-104090000D01*
X95584876Y-104090000D02*
X95489638Y-104137619D01*
X95489638Y-104137619D02*
X95203924Y-104137619D01*
X95203924Y-104137619D02*
X95108686Y-104090000D01*
X95108686Y-104090000D02*
X95061067Y-104042380D01*
D13*
X92499884Y-105831619D02*
X92499884Y-104831619D01*
X93071312Y-105831619D02*
X92642741Y-105260190D01*
X93071312Y-104831619D02*
X92499884Y-105403047D01*
D10*
X131267081Y-43861201D02*
X131690414Y-45131201D01*
X131690414Y-45131201D02*
X132113748Y-43861201D01*
X132778985Y-43861201D02*
X133020890Y-43861201D01*
X133020890Y-43861201D02*
X133141842Y-43921677D01*
X133141842Y-43921677D02*
X133262795Y-44042629D01*
X133262795Y-44042629D02*
X133323271Y-44284534D01*
X133323271Y-44284534D02*
X133323271Y-44707867D01*
X133323271Y-44707867D02*
X133262795Y-44949772D01*
X133262795Y-44949772D02*
X133141842Y-45070725D01*
X133141842Y-45070725D02*
X133020890Y-45131201D01*
X133020890Y-45131201D02*
X132778985Y-45131201D01*
X132778985Y-45131201D02*
X132658033Y-45070725D01*
X132658033Y-45070725D02*
X132537080Y-44949772D01*
X132537080Y-44949772D02*
X132476604Y-44707867D01*
X132476604Y-44707867D02*
X132476604Y-44284534D01*
X132476604Y-44284534D02*
X132537080Y-44042629D01*
X132537080Y-44042629D02*
X132658033Y-43921677D01*
X132658033Y-43921677D02*
X132778985Y-43861201D01*
X133867556Y-43861201D02*
X133867556Y-44889296D01*
X133867556Y-44889296D02*
X133928033Y-45010248D01*
X133928033Y-45010248D02*
X133988509Y-45070725D01*
X133988509Y-45070725D02*
X134109461Y-45131201D01*
X134109461Y-45131201D02*
X134351366Y-45131201D01*
X134351366Y-45131201D02*
X134472318Y-45070725D01*
X134472318Y-45070725D02*
X134532795Y-45010248D01*
X134532795Y-45010248D02*
X134593271Y-44889296D01*
X134593271Y-44889296D02*
X134593271Y-43861201D01*
X135016604Y-43861201D02*
X135742318Y-43861201D01*
X135379461Y-45131201D02*
X135379461Y-43861201D01*
D12*
X85418705Y-65580419D02*
X85418705Y-64580419D01*
X85418705Y-64580419D02*
X85656800Y-64580419D01*
X85656800Y-64580419D02*
X85799657Y-64628038D01*
X85799657Y-64628038D02*
X85894895Y-64723276D01*
X85894895Y-64723276D02*
X85942514Y-64818514D01*
X85942514Y-64818514D02*
X85990133Y-65008990D01*
X85990133Y-65008990D02*
X85990133Y-65151847D01*
X85990133Y-65151847D02*
X85942514Y-65342323D01*
X85942514Y-65342323D02*
X85894895Y-65437561D01*
X85894895Y-65437561D02*
X85799657Y-65532800D01*
X85799657Y-65532800D02*
X85656800Y-65580419D01*
X85656800Y-65580419D02*
X85418705Y-65580419D01*
X86371086Y-64675657D02*
X86418705Y-64628038D01*
X86418705Y-64628038D02*
X86513943Y-64580419D01*
X86513943Y-64580419D02*
X86752038Y-64580419D01*
X86752038Y-64580419D02*
X86847276Y-64628038D01*
X86847276Y-64628038D02*
X86894895Y-64675657D01*
X86894895Y-64675657D02*
X86942514Y-64770895D01*
X86942514Y-64770895D02*
X86942514Y-64866133D01*
X86942514Y-64866133D02*
X86894895Y-65008990D01*
X86894895Y-65008990D02*
X86323467Y-65580419D01*
X86323467Y-65580419D02*
X86942514Y-65580419D01*
D13*
X83762284Y-67274419D02*
X83762284Y-66274419D01*
X84333712Y-67274419D02*
X83905141Y-66702990D01*
X84333712Y-66274419D02*
X83762284Y-66845847D01*
D12*
X105378642Y-67917219D02*
X105045309Y-67441028D01*
X104807214Y-67917219D02*
X104807214Y-66917219D01*
X104807214Y-66917219D02*
X105188166Y-66917219D01*
X105188166Y-66917219D02*
X105283404Y-66964838D01*
X105283404Y-66964838D02*
X105331023Y-67012457D01*
X105331023Y-67012457D02*
X105378642Y-67107695D01*
X105378642Y-67107695D02*
X105378642Y-67250552D01*
X105378642Y-67250552D02*
X105331023Y-67345790D01*
X105331023Y-67345790D02*
X105283404Y-67393409D01*
X105283404Y-67393409D02*
X105188166Y-67441028D01*
X105188166Y-67441028D02*
X104807214Y-67441028D01*
X106331023Y-67917219D02*
X105759595Y-67917219D01*
X106045309Y-67917219D02*
X106045309Y-66917219D01*
X106045309Y-66917219D02*
X105950071Y-67060076D01*
X105950071Y-67060076D02*
X105854833Y-67155314D01*
X105854833Y-67155314D02*
X105759595Y-67202933D01*
X107235785Y-66917219D02*
X106759595Y-66917219D01*
X106759595Y-66917219D02*
X106711976Y-67393409D01*
X106711976Y-67393409D02*
X106759595Y-67345790D01*
X106759595Y-67345790D02*
X106854833Y-67298171D01*
X106854833Y-67298171D02*
X107092928Y-67298171D01*
X107092928Y-67298171D02*
X107188166Y-67345790D01*
X107188166Y-67345790D02*
X107235785Y-67393409D01*
X107235785Y-67393409D02*
X107283404Y-67488647D01*
X107283404Y-67488647D02*
X107283404Y-67726742D01*
X107283404Y-67726742D02*
X107235785Y-67821980D01*
X107235785Y-67821980D02*
X107188166Y-67869600D01*
X107188166Y-67869600D02*
X107092928Y-67917219D01*
X107092928Y-67917219D02*
X106854833Y-67917219D01*
X106854833Y-67917219D02*
X106759595Y-67869600D01*
X106759595Y-67869600D02*
X106711976Y-67821980D01*
X99009295Y-57722419D02*
X99009295Y-58531942D01*
X99009295Y-58531942D02*
X99056914Y-58627180D01*
X99056914Y-58627180D02*
X99104533Y-58674800D01*
X99104533Y-58674800D02*
X99199771Y-58722419D01*
X99199771Y-58722419D02*
X99390247Y-58722419D01*
X99390247Y-58722419D02*
X99485485Y-58674800D01*
X99485485Y-58674800D02*
X99533104Y-58627180D01*
X99533104Y-58627180D02*
X99580723Y-58531942D01*
X99580723Y-58531942D02*
X99580723Y-57722419D01*
X99961676Y-57722419D02*
X100580723Y-57722419D01*
X100580723Y-57722419D02*
X100247390Y-58103371D01*
X100247390Y-58103371D02*
X100390247Y-58103371D01*
X100390247Y-58103371D02*
X100485485Y-58150990D01*
X100485485Y-58150990D02*
X100533104Y-58198609D01*
X100533104Y-58198609D02*
X100580723Y-58293847D01*
X100580723Y-58293847D02*
X100580723Y-58531942D01*
X100580723Y-58531942D02*
X100533104Y-58627180D01*
X100533104Y-58627180D02*
X100485485Y-58674800D01*
X100485485Y-58674800D02*
X100390247Y-58722419D01*
X100390247Y-58722419D02*
X100104533Y-58722419D01*
X100104533Y-58722419D02*
X100009295Y-58674800D01*
X100009295Y-58674800D02*
X99961676Y-58627180D01*
X109565533Y-64089419D02*
X109232200Y-63613228D01*
X108994105Y-64089419D02*
X108994105Y-63089419D01*
X108994105Y-63089419D02*
X109375057Y-63089419D01*
X109375057Y-63089419D02*
X109470295Y-63137038D01*
X109470295Y-63137038D02*
X109517914Y-63184657D01*
X109517914Y-63184657D02*
X109565533Y-63279895D01*
X109565533Y-63279895D02*
X109565533Y-63422752D01*
X109565533Y-63422752D02*
X109517914Y-63517990D01*
X109517914Y-63517990D02*
X109470295Y-63565609D01*
X109470295Y-63565609D02*
X109375057Y-63613228D01*
X109375057Y-63613228D02*
X108994105Y-63613228D01*
X109898867Y-63089419D02*
X110565533Y-63089419D01*
X110565533Y-63089419D02*
X110136962Y-64089419D01*
X94408666Y-110198819D02*
X94408666Y-110913104D01*
X94408666Y-110913104D02*
X94361047Y-111055961D01*
X94361047Y-111055961D02*
X94265809Y-111151200D01*
X94265809Y-111151200D02*
X94122952Y-111198819D01*
X94122952Y-111198819D02*
X94027714Y-111198819D01*
X95361047Y-110198819D02*
X94884857Y-110198819D01*
X94884857Y-110198819D02*
X94837238Y-110675009D01*
X94837238Y-110675009D02*
X94884857Y-110627390D01*
X94884857Y-110627390D02*
X94980095Y-110579771D01*
X94980095Y-110579771D02*
X95218190Y-110579771D01*
X95218190Y-110579771D02*
X95313428Y-110627390D01*
X95313428Y-110627390D02*
X95361047Y-110675009D01*
X95361047Y-110675009D02*
X95408666Y-110770247D01*
X95408666Y-110770247D02*
X95408666Y-111008342D01*
X95408666Y-111008342D02*
X95361047Y-111103580D01*
X95361047Y-111103580D02*
X95313428Y-111151200D01*
X95313428Y-111151200D02*
X95218190Y-111198819D01*
X95218190Y-111198819D02*
X94980095Y-111198819D01*
X94980095Y-111198819D02*
X94884857Y-111151200D01*
X94884857Y-111151200D02*
X94837238Y-111103580D01*
X98112342Y-104290019D02*
X97779009Y-103813828D01*
X97540914Y-104290019D02*
X97540914Y-103290019D01*
X97540914Y-103290019D02*
X97921866Y-103290019D01*
X97921866Y-103290019D02*
X98017104Y-103337638D01*
X98017104Y-103337638D02*
X98064723Y-103385257D01*
X98064723Y-103385257D02*
X98112342Y-103480495D01*
X98112342Y-103480495D02*
X98112342Y-103623352D01*
X98112342Y-103623352D02*
X98064723Y-103718590D01*
X98064723Y-103718590D02*
X98017104Y-103766209D01*
X98017104Y-103766209D02*
X97921866Y-103813828D01*
X97921866Y-103813828D02*
X97540914Y-103813828D01*
X99064723Y-104290019D02*
X98493295Y-104290019D01*
X98779009Y-104290019D02*
X98779009Y-103290019D01*
X98779009Y-103290019D02*
X98683771Y-103432876D01*
X98683771Y-103432876D02*
X98588533Y-103528114D01*
X98588533Y-103528114D02*
X98493295Y-103575733D01*
X99398057Y-103290019D02*
X100064723Y-103290019D01*
X100064723Y-103290019D02*
X99636152Y-104290019D01*
X106545142Y-104340819D02*
X106211809Y-103864628D01*
X105973714Y-104340819D02*
X105973714Y-103340819D01*
X105973714Y-103340819D02*
X106354666Y-103340819D01*
X106354666Y-103340819D02*
X106449904Y-103388438D01*
X106449904Y-103388438D02*
X106497523Y-103436057D01*
X106497523Y-103436057D02*
X106545142Y-103531295D01*
X106545142Y-103531295D02*
X106545142Y-103674152D01*
X106545142Y-103674152D02*
X106497523Y-103769390D01*
X106497523Y-103769390D02*
X106449904Y-103817009D01*
X106449904Y-103817009D02*
X106354666Y-103864628D01*
X106354666Y-103864628D02*
X105973714Y-103864628D01*
X107497523Y-104340819D02*
X106926095Y-104340819D01*
X107211809Y-104340819D02*
X107211809Y-103340819D01*
X107211809Y-103340819D02*
X107116571Y-103483676D01*
X107116571Y-103483676D02*
X107021333Y-103578914D01*
X107021333Y-103578914D02*
X106926095Y-103626533D01*
X108068952Y-103769390D02*
X107973714Y-103721771D01*
X107973714Y-103721771D02*
X107926095Y-103674152D01*
X107926095Y-103674152D02*
X107878476Y-103578914D01*
X107878476Y-103578914D02*
X107878476Y-103531295D01*
X107878476Y-103531295D02*
X107926095Y-103436057D01*
X107926095Y-103436057D02*
X107973714Y-103388438D01*
X107973714Y-103388438D02*
X108068952Y-103340819D01*
X108068952Y-103340819D02*
X108259428Y-103340819D01*
X108259428Y-103340819D02*
X108354666Y-103388438D01*
X108354666Y-103388438D02*
X108402285Y-103436057D01*
X108402285Y-103436057D02*
X108449904Y-103531295D01*
X108449904Y-103531295D02*
X108449904Y-103578914D01*
X108449904Y-103578914D02*
X108402285Y-103674152D01*
X108402285Y-103674152D02*
X108354666Y-103721771D01*
X108354666Y-103721771D02*
X108259428Y-103769390D01*
X108259428Y-103769390D02*
X108068952Y-103769390D01*
X108068952Y-103769390D02*
X107973714Y-103817009D01*
X107973714Y-103817009D02*
X107926095Y-103864628D01*
X107926095Y-103864628D02*
X107878476Y-103959866D01*
X107878476Y-103959866D02*
X107878476Y-104150342D01*
X107878476Y-104150342D02*
X107926095Y-104245580D01*
X107926095Y-104245580D02*
X107973714Y-104293200D01*
X107973714Y-104293200D02*
X108068952Y-104340819D01*
X108068952Y-104340819D02*
X108259428Y-104340819D01*
X108259428Y-104340819D02*
X108354666Y-104293200D01*
X108354666Y-104293200D02*
X108402285Y-104245580D01*
X108402285Y-104245580D02*
X108449904Y-104150342D01*
X108449904Y-104150342D02*
X108449904Y-103959866D01*
X108449904Y-103959866D02*
X108402285Y-103864628D01*
X108402285Y-103864628D02*
X108354666Y-103817009D01*
X108354666Y-103817009D02*
X108259428Y-103769390D01*
X122958295Y-50107419D02*
X122958295Y-50916942D01*
X122958295Y-50916942D02*
X123005914Y-51012180D01*
X123005914Y-51012180D02*
X123053533Y-51059800D01*
X123053533Y-51059800D02*
X123148771Y-51107419D01*
X123148771Y-51107419D02*
X123339247Y-51107419D01*
X123339247Y-51107419D02*
X123434485Y-51059800D01*
X123434485Y-51059800D02*
X123482104Y-51012180D01*
X123482104Y-51012180D02*
X123529723Y-50916942D01*
X123529723Y-50916942D02*
X123529723Y-50107419D01*
X124529723Y-51107419D02*
X123958295Y-51107419D01*
X124244009Y-51107419D02*
X124244009Y-50107419D01*
X124244009Y-50107419D02*
X124148771Y-50250276D01*
X124148771Y-50250276D02*
X124053533Y-50345514D01*
X124053533Y-50345514D02*
X123958295Y-50393133D01*
D10*
X138732381Y-70530077D02*
X138611428Y-70469601D01*
X138611428Y-70469601D02*
X138430000Y-70469601D01*
X138430000Y-70469601D02*
X138248571Y-70530077D01*
X138248571Y-70530077D02*
X138127619Y-70651029D01*
X138127619Y-70651029D02*
X138067142Y-70771982D01*
X138067142Y-70771982D02*
X138006666Y-71013886D01*
X138006666Y-71013886D02*
X138006666Y-71195315D01*
X138006666Y-71195315D02*
X138067142Y-71437220D01*
X138067142Y-71437220D02*
X138127619Y-71558172D01*
X138127619Y-71558172D02*
X138248571Y-71679125D01*
X138248571Y-71679125D02*
X138430000Y-71739601D01*
X138430000Y-71739601D02*
X138550952Y-71739601D01*
X138550952Y-71739601D02*
X138732381Y-71679125D01*
X138732381Y-71679125D02*
X138792857Y-71618648D01*
X138792857Y-71618648D02*
X138792857Y-71195315D01*
X138792857Y-71195315D02*
X138550952Y-71195315D01*
X139337142Y-71739601D02*
X139337142Y-70469601D01*
X139337142Y-70469601D02*
X140062857Y-71739601D01*
X140062857Y-71739601D02*
X140062857Y-70469601D01*
X140667618Y-71739601D02*
X140667618Y-70469601D01*
X140667618Y-70469601D02*
X140969999Y-70469601D01*
X140969999Y-70469601D02*
X141151428Y-70530077D01*
X141151428Y-70530077D02*
X141272380Y-70651029D01*
X141272380Y-70651029D02*
X141332857Y-70771982D01*
X141332857Y-70771982D02*
X141393333Y-71013886D01*
X141393333Y-71013886D02*
X141393333Y-71195315D01*
X141393333Y-71195315D02*
X141332857Y-71437220D01*
X141332857Y-71437220D02*
X141272380Y-71558172D01*
X141272380Y-71558172D02*
X141151428Y-71679125D01*
X141151428Y-71679125D02*
X140969999Y-71739601D01*
X140969999Y-71739601D02*
X140667618Y-71739601D01*
D12*
X92596033Y-67180619D02*
X92262700Y-66704428D01*
X92024605Y-67180619D02*
X92024605Y-66180619D01*
X92024605Y-66180619D02*
X92405557Y-66180619D01*
X92405557Y-66180619D02*
X92500795Y-66228238D01*
X92500795Y-66228238D02*
X92548414Y-66275857D01*
X92548414Y-66275857D02*
X92596033Y-66371095D01*
X92596033Y-66371095D02*
X92596033Y-66513952D01*
X92596033Y-66513952D02*
X92548414Y-66609190D01*
X92548414Y-66609190D02*
X92500795Y-66656809D01*
X92500795Y-66656809D02*
X92405557Y-66704428D01*
X92405557Y-66704428D02*
X92024605Y-66704428D01*
X93167462Y-66609190D02*
X93072224Y-66561571D01*
X93072224Y-66561571D02*
X93024605Y-66513952D01*
X93024605Y-66513952D02*
X92976986Y-66418714D01*
X92976986Y-66418714D02*
X92976986Y-66371095D01*
X92976986Y-66371095D02*
X93024605Y-66275857D01*
X93024605Y-66275857D02*
X93072224Y-66228238D01*
X93072224Y-66228238D02*
X93167462Y-66180619D01*
X93167462Y-66180619D02*
X93357938Y-66180619D01*
X93357938Y-66180619D02*
X93453176Y-66228238D01*
X93453176Y-66228238D02*
X93500795Y-66275857D01*
X93500795Y-66275857D02*
X93548414Y-66371095D01*
X93548414Y-66371095D02*
X93548414Y-66418714D01*
X93548414Y-66418714D02*
X93500795Y-66513952D01*
X93500795Y-66513952D02*
X93453176Y-66561571D01*
X93453176Y-66561571D02*
X93357938Y-66609190D01*
X93357938Y-66609190D02*
X93167462Y-66609190D01*
X93167462Y-66609190D02*
X93072224Y-66656809D01*
X93072224Y-66656809D02*
X93024605Y-66704428D01*
X93024605Y-66704428D02*
X92976986Y-66799666D01*
X92976986Y-66799666D02*
X92976986Y-66990142D01*
X92976986Y-66990142D02*
X93024605Y-67085380D01*
X93024605Y-67085380D02*
X93072224Y-67133000D01*
X93072224Y-67133000D02*
X93167462Y-67180619D01*
X93167462Y-67180619D02*
X93357938Y-67180619D01*
X93357938Y-67180619D02*
X93453176Y-67133000D01*
X93453176Y-67133000D02*
X93500795Y-67085380D01*
X93500795Y-67085380D02*
X93548414Y-66990142D01*
X93548414Y-66990142D02*
X93548414Y-66799666D01*
X93548414Y-66799666D02*
X93500795Y-66704428D01*
X93500795Y-66704428D02*
X93453176Y-66656809D01*
X93453176Y-66656809D02*
X93357938Y-66609190D01*
X128738333Y-54683819D02*
X128405000Y-54207628D01*
X128166905Y-54683819D02*
X128166905Y-53683819D01*
X128166905Y-53683819D02*
X128547857Y-53683819D01*
X128547857Y-53683819D02*
X128643095Y-53731438D01*
X128643095Y-53731438D02*
X128690714Y-53779057D01*
X128690714Y-53779057D02*
X128738333Y-53874295D01*
X128738333Y-53874295D02*
X128738333Y-54017152D01*
X128738333Y-54017152D02*
X128690714Y-54112390D01*
X128690714Y-54112390D02*
X128643095Y-54160009D01*
X128643095Y-54160009D02*
X128547857Y-54207628D01*
X128547857Y-54207628D02*
X128166905Y-54207628D01*
X129119286Y-53779057D02*
X129166905Y-53731438D01*
X129166905Y-53731438D02*
X129262143Y-53683819D01*
X129262143Y-53683819D02*
X129500238Y-53683819D01*
X129500238Y-53683819D02*
X129595476Y-53731438D01*
X129595476Y-53731438D02*
X129643095Y-53779057D01*
X129643095Y-53779057D02*
X129690714Y-53874295D01*
X129690714Y-53874295D02*
X129690714Y-53969533D01*
X129690714Y-53969533D02*
X129643095Y-54112390D01*
X129643095Y-54112390D02*
X129071667Y-54683819D01*
X129071667Y-54683819D02*
X129690714Y-54683819D01*
X109656666Y-71463819D02*
X109656666Y-72178104D01*
X109656666Y-72178104D02*
X109609047Y-72320961D01*
X109609047Y-72320961D02*
X109513809Y-72416200D01*
X109513809Y-72416200D02*
X109370952Y-72463819D01*
X109370952Y-72463819D02*
X109275714Y-72463819D01*
X110132857Y-72463819D02*
X110132857Y-71463819D01*
X110132857Y-71463819D02*
X110513809Y-71463819D01*
X110513809Y-71463819D02*
X110609047Y-71511438D01*
X110609047Y-71511438D02*
X110656666Y-71559057D01*
X110656666Y-71559057D02*
X110704285Y-71654295D01*
X110704285Y-71654295D02*
X110704285Y-71797152D01*
X110704285Y-71797152D02*
X110656666Y-71892390D01*
X110656666Y-71892390D02*
X110609047Y-71940009D01*
X110609047Y-71940009D02*
X110513809Y-71987628D01*
X110513809Y-71987628D02*
X110132857Y-71987628D01*
X111656666Y-72463819D02*
X111085238Y-72463819D01*
X111370952Y-72463819D02*
X111370952Y-71463819D01*
X111370952Y-71463819D02*
X111275714Y-71606676D01*
X111275714Y-71606676D02*
X111180476Y-71701914D01*
X111180476Y-71701914D02*
X111085238Y-71749533D01*
X91457542Y-64818419D02*
X91124209Y-64342228D01*
X90886114Y-64818419D02*
X90886114Y-63818419D01*
X90886114Y-63818419D02*
X91267066Y-63818419D01*
X91267066Y-63818419D02*
X91362304Y-63866038D01*
X91362304Y-63866038D02*
X91409923Y-63913657D01*
X91409923Y-63913657D02*
X91457542Y-64008895D01*
X91457542Y-64008895D02*
X91457542Y-64151752D01*
X91457542Y-64151752D02*
X91409923Y-64246990D01*
X91409923Y-64246990D02*
X91362304Y-64294609D01*
X91362304Y-64294609D02*
X91267066Y-64342228D01*
X91267066Y-64342228D02*
X90886114Y-64342228D01*
X92409923Y-64818419D02*
X91838495Y-64818419D01*
X92124209Y-64818419D02*
X92124209Y-63818419D01*
X92124209Y-63818419D02*
X92028971Y-63961276D01*
X92028971Y-63961276D02*
X91933733Y-64056514D01*
X91933733Y-64056514D02*
X91838495Y-64104133D01*
X92790876Y-63913657D02*
X92838495Y-63866038D01*
X92838495Y-63866038D02*
X92933733Y-63818419D01*
X92933733Y-63818419D02*
X93171828Y-63818419D01*
X93171828Y-63818419D02*
X93267066Y-63866038D01*
X93267066Y-63866038D02*
X93314685Y-63913657D01*
X93314685Y-63913657D02*
X93362304Y-64008895D01*
X93362304Y-64008895D02*
X93362304Y-64104133D01*
X93362304Y-64104133D02*
X93314685Y-64246990D01*
X93314685Y-64246990D02*
X92743257Y-64818419D01*
X92743257Y-64818419D02*
X93362304Y-64818419D01*
X97267733Y-51966019D02*
X96934400Y-51489828D01*
X96696305Y-51966019D02*
X96696305Y-50966019D01*
X96696305Y-50966019D02*
X97077257Y-50966019D01*
X97077257Y-50966019D02*
X97172495Y-51013638D01*
X97172495Y-51013638D02*
X97220114Y-51061257D01*
X97220114Y-51061257D02*
X97267733Y-51156495D01*
X97267733Y-51156495D02*
X97267733Y-51299352D01*
X97267733Y-51299352D02*
X97220114Y-51394590D01*
X97220114Y-51394590D02*
X97172495Y-51442209D01*
X97172495Y-51442209D02*
X97077257Y-51489828D01*
X97077257Y-51489828D02*
X96696305Y-51489828D01*
X98220114Y-51966019D02*
X97648686Y-51966019D01*
X97934400Y-51966019D02*
X97934400Y-50966019D01*
X97934400Y-50966019D02*
X97839162Y-51108876D01*
X97839162Y-51108876D02*
X97743924Y-51204114D01*
X97743924Y-51204114D02*
X97648686Y-51251733D01*
D10*
X94434781Y-71302877D02*
X94313828Y-71242401D01*
X94313828Y-71242401D02*
X94132400Y-71242401D01*
X94132400Y-71242401D02*
X93950971Y-71302877D01*
X93950971Y-71302877D02*
X93830019Y-71423829D01*
X93830019Y-71423829D02*
X93769542Y-71544782D01*
X93769542Y-71544782D02*
X93709066Y-71786686D01*
X93709066Y-71786686D02*
X93709066Y-71968115D01*
X93709066Y-71968115D02*
X93769542Y-72210020D01*
X93769542Y-72210020D02*
X93830019Y-72330972D01*
X93830019Y-72330972D02*
X93950971Y-72451925D01*
X93950971Y-72451925D02*
X94132400Y-72512401D01*
X94132400Y-72512401D02*
X94253352Y-72512401D01*
X94253352Y-72512401D02*
X94434781Y-72451925D01*
X94434781Y-72451925D02*
X94495257Y-72391448D01*
X94495257Y-72391448D02*
X94495257Y-71968115D01*
X94495257Y-71968115D02*
X94253352Y-71968115D01*
X95039542Y-72512401D02*
X95039542Y-71242401D01*
X95039542Y-71242401D02*
X95765257Y-72512401D01*
X95765257Y-72512401D02*
X95765257Y-71242401D01*
X96370018Y-72512401D02*
X96370018Y-71242401D01*
X96370018Y-71242401D02*
X96672399Y-71242401D01*
X96672399Y-71242401D02*
X96853828Y-71302877D01*
X96853828Y-71302877D02*
X96974780Y-71423829D01*
X96974780Y-71423829D02*
X97035257Y-71544782D01*
X97035257Y-71544782D02*
X97095733Y-71786686D01*
X97095733Y-71786686D02*
X97095733Y-71968115D01*
X97095733Y-71968115D02*
X97035257Y-72210020D01*
X97035257Y-72210020D02*
X96974780Y-72330972D01*
X96974780Y-72330972D02*
X96853828Y-72451925D01*
X96853828Y-72451925D02*
X96672399Y-72512401D01*
X96672399Y-72512401D02*
X96370018Y-72512401D01*
D12*
X117435333Y-49603819D02*
X117102000Y-49127628D01*
X116863905Y-49603819D02*
X116863905Y-48603819D01*
X116863905Y-48603819D02*
X117244857Y-48603819D01*
X117244857Y-48603819D02*
X117340095Y-48651438D01*
X117340095Y-48651438D02*
X117387714Y-48699057D01*
X117387714Y-48699057D02*
X117435333Y-48794295D01*
X117435333Y-48794295D02*
X117435333Y-48937152D01*
X117435333Y-48937152D02*
X117387714Y-49032390D01*
X117387714Y-49032390D02*
X117340095Y-49080009D01*
X117340095Y-49080009D02*
X117244857Y-49127628D01*
X117244857Y-49127628D02*
X116863905Y-49127628D01*
X118292476Y-48603819D02*
X118102000Y-48603819D01*
X118102000Y-48603819D02*
X118006762Y-48651438D01*
X118006762Y-48651438D02*
X117959143Y-48699057D01*
X117959143Y-48699057D02*
X117863905Y-48841914D01*
X117863905Y-48841914D02*
X117816286Y-49032390D01*
X117816286Y-49032390D02*
X117816286Y-49413342D01*
X117816286Y-49413342D02*
X117863905Y-49508580D01*
X117863905Y-49508580D02*
X117911524Y-49556200D01*
X117911524Y-49556200D02*
X118006762Y-49603819D01*
X118006762Y-49603819D02*
X118197238Y-49603819D01*
X118197238Y-49603819D02*
X118292476Y-49556200D01*
X118292476Y-49556200D02*
X118340095Y-49508580D01*
X118340095Y-49508580D02*
X118387714Y-49413342D01*
X118387714Y-49413342D02*
X118387714Y-49175247D01*
X118387714Y-49175247D02*
X118340095Y-49080009D01*
X118340095Y-49080009D02*
X118292476Y-49032390D01*
X118292476Y-49032390D02*
X118197238Y-48984771D01*
X118197238Y-48984771D02*
X118006762Y-48984771D01*
X118006762Y-48984771D02*
X117911524Y-49032390D01*
X117911524Y-49032390D02*
X117863905Y-49080009D01*
X117863905Y-49080009D02*
X117816286Y-49175247D01*
X91609942Y-62430819D02*
X91276609Y-61954628D01*
X91038514Y-62430819D02*
X91038514Y-61430819D01*
X91038514Y-61430819D02*
X91419466Y-61430819D01*
X91419466Y-61430819D02*
X91514704Y-61478438D01*
X91514704Y-61478438D02*
X91562323Y-61526057D01*
X91562323Y-61526057D02*
X91609942Y-61621295D01*
X91609942Y-61621295D02*
X91609942Y-61764152D01*
X91609942Y-61764152D02*
X91562323Y-61859390D01*
X91562323Y-61859390D02*
X91514704Y-61907009D01*
X91514704Y-61907009D02*
X91419466Y-61954628D01*
X91419466Y-61954628D02*
X91038514Y-61954628D01*
X92562323Y-62430819D02*
X91990895Y-62430819D01*
X92276609Y-62430819D02*
X92276609Y-61430819D01*
X92276609Y-61430819D02*
X92181371Y-61573676D01*
X92181371Y-61573676D02*
X92086133Y-61668914D01*
X92086133Y-61668914D02*
X91990895Y-61716533D01*
X93514704Y-62430819D02*
X92943276Y-62430819D01*
X93228990Y-62430819D02*
X93228990Y-61430819D01*
X93228990Y-61430819D02*
X93133752Y-61573676D01*
X93133752Y-61573676D02*
X93038514Y-61668914D01*
X93038514Y-61668914D02*
X92943276Y-61716533D01*
X127468333Y-68456980D02*
X127420714Y-68504600D01*
X127420714Y-68504600D02*
X127277857Y-68552219D01*
X127277857Y-68552219D02*
X127182619Y-68552219D01*
X127182619Y-68552219D02*
X127039762Y-68504600D01*
X127039762Y-68504600D02*
X126944524Y-68409361D01*
X126944524Y-68409361D02*
X126896905Y-68314123D01*
X126896905Y-68314123D02*
X126849286Y-68123647D01*
X126849286Y-68123647D02*
X126849286Y-67980790D01*
X126849286Y-67980790D02*
X126896905Y-67790314D01*
X126896905Y-67790314D02*
X126944524Y-67695076D01*
X126944524Y-67695076D02*
X127039762Y-67599838D01*
X127039762Y-67599838D02*
X127182619Y-67552219D01*
X127182619Y-67552219D02*
X127277857Y-67552219D01*
X127277857Y-67552219D02*
X127420714Y-67599838D01*
X127420714Y-67599838D02*
X127468333Y-67647457D01*
X128325476Y-67552219D02*
X128135000Y-67552219D01*
X128135000Y-67552219D02*
X128039762Y-67599838D01*
X128039762Y-67599838D02*
X127992143Y-67647457D01*
X127992143Y-67647457D02*
X127896905Y-67790314D01*
X127896905Y-67790314D02*
X127849286Y-67980790D01*
X127849286Y-67980790D02*
X127849286Y-68361742D01*
X127849286Y-68361742D02*
X127896905Y-68456980D01*
X127896905Y-68456980D02*
X127944524Y-68504600D01*
X127944524Y-68504600D02*
X128039762Y-68552219D01*
X128039762Y-68552219D02*
X128230238Y-68552219D01*
X128230238Y-68552219D02*
X128325476Y-68504600D01*
X128325476Y-68504600D02*
X128373095Y-68456980D01*
X128373095Y-68456980D02*
X128420714Y-68361742D01*
X128420714Y-68361742D02*
X128420714Y-68123647D01*
X128420714Y-68123647D02*
X128373095Y-68028409D01*
X128373095Y-68028409D02*
X128325476Y-67980790D01*
X128325476Y-67980790D02*
X128230238Y-67933171D01*
X128230238Y-67933171D02*
X128039762Y-67933171D01*
X128039762Y-67933171D02*
X127944524Y-67980790D01*
X127944524Y-67980790D02*
X127896905Y-68028409D01*
X127896905Y-68028409D02*
X127849286Y-68123647D01*
X102665305Y-104188419D02*
X102665305Y-103188419D01*
X102665305Y-103188419D02*
X102903400Y-103188419D01*
X102903400Y-103188419D02*
X103046257Y-103236038D01*
X103046257Y-103236038D02*
X103141495Y-103331276D01*
X103141495Y-103331276D02*
X103189114Y-103426514D01*
X103189114Y-103426514D02*
X103236733Y-103616990D01*
X103236733Y-103616990D02*
X103236733Y-103759847D01*
X103236733Y-103759847D02*
X103189114Y-103950323D01*
X103189114Y-103950323D02*
X103141495Y-104045561D01*
X103141495Y-104045561D02*
X103046257Y-104140800D01*
X103046257Y-104140800D02*
X102903400Y-104188419D01*
X102903400Y-104188419D02*
X102665305Y-104188419D01*
X104093876Y-103521752D02*
X104093876Y-104188419D01*
X103855781Y-103140800D02*
X103617686Y-103855085D01*
X103617686Y-103855085D02*
X104236733Y-103855085D01*
D13*
X101008884Y-105882419D02*
X101008884Y-104882419D01*
X101580312Y-105882419D02*
X101151741Y-105310990D01*
X101580312Y-104882419D02*
X101008884Y-105453847D01*
D12*
X121651733Y-61979980D02*
X121604114Y-62027600D01*
X121604114Y-62027600D02*
X121461257Y-62075219D01*
X121461257Y-62075219D02*
X121366019Y-62075219D01*
X121366019Y-62075219D02*
X121223162Y-62027600D01*
X121223162Y-62027600D02*
X121127924Y-61932361D01*
X121127924Y-61932361D02*
X121080305Y-61837123D01*
X121080305Y-61837123D02*
X121032686Y-61646647D01*
X121032686Y-61646647D02*
X121032686Y-61503790D01*
X121032686Y-61503790D02*
X121080305Y-61313314D01*
X121080305Y-61313314D02*
X121127924Y-61218076D01*
X121127924Y-61218076D02*
X121223162Y-61122838D01*
X121223162Y-61122838D02*
X121366019Y-61075219D01*
X121366019Y-61075219D02*
X121461257Y-61075219D01*
X121461257Y-61075219D02*
X121604114Y-61122838D01*
X121604114Y-61122838D02*
X121651733Y-61170457D01*
X121985067Y-61075219D02*
X122651733Y-61075219D01*
X122651733Y-61075219D02*
X122223162Y-62075219D01*
D10*
X133163733Y-64943201D02*
X133163733Y-63673201D01*
X133163733Y-63673201D02*
X133466114Y-63673201D01*
X133466114Y-63673201D02*
X133647543Y-63733677D01*
X133647543Y-63733677D02*
X133768495Y-63854629D01*
X133768495Y-63854629D02*
X133828972Y-63975582D01*
X133828972Y-63975582D02*
X133889448Y-64217486D01*
X133889448Y-64217486D02*
X133889448Y-64398915D01*
X133889448Y-64398915D02*
X133828972Y-64640820D01*
X133828972Y-64640820D02*
X133768495Y-64761772D01*
X133768495Y-64761772D02*
X133647543Y-64882725D01*
X133647543Y-64882725D02*
X133466114Y-64943201D01*
X133466114Y-64943201D02*
X133163733Y-64943201D01*
X134433733Y-64943201D02*
X134433733Y-63673201D01*
X134433733Y-63673201D02*
X134917543Y-63673201D01*
X134917543Y-63673201D02*
X135038495Y-63733677D01*
X135038495Y-63733677D02*
X135098972Y-63794153D01*
X135098972Y-63794153D02*
X135159448Y-63915105D01*
X135159448Y-63915105D02*
X135159448Y-64096534D01*
X135159448Y-64096534D02*
X135098972Y-64217486D01*
X135098972Y-64217486D02*
X135038495Y-64277963D01*
X135038495Y-64277963D02*
X134917543Y-64338439D01*
X134917543Y-64338439D02*
X134433733Y-64338439D01*
X135945638Y-63673201D02*
X136187543Y-63673201D01*
X136187543Y-63673201D02*
X136308495Y-63733677D01*
X136308495Y-63733677D02*
X136429448Y-63854629D01*
X136429448Y-63854629D02*
X136489924Y-64096534D01*
X136489924Y-64096534D02*
X136489924Y-64519867D01*
X136489924Y-64519867D02*
X136429448Y-64761772D01*
X136429448Y-64761772D02*
X136308495Y-64882725D01*
X136308495Y-64882725D02*
X136187543Y-64943201D01*
X136187543Y-64943201D02*
X135945638Y-64943201D01*
X135945638Y-64943201D02*
X135824686Y-64882725D01*
X135824686Y-64882725D02*
X135703733Y-64761772D01*
X135703733Y-64761772D02*
X135643257Y-64519867D01*
X135643257Y-64519867D02*
X135643257Y-64096534D01*
X135643257Y-64096534D02*
X135703733Y-63854629D01*
X135703733Y-63854629D02*
X135824686Y-63733677D01*
X135824686Y-63733677D02*
X135945638Y-63673201D01*
X136852781Y-63673201D02*
X137578495Y-63673201D01*
X137215638Y-64943201D02*
X137215638Y-63673201D01*
X102392238Y-44053601D02*
X102815571Y-45323601D01*
X102815571Y-45323601D02*
X103238905Y-44053601D01*
X104387952Y-45323601D02*
X103964618Y-44718839D01*
X103662237Y-45323601D02*
X103662237Y-44053601D01*
X103662237Y-44053601D02*
X104146047Y-44053601D01*
X104146047Y-44053601D02*
X104266999Y-44114077D01*
X104266999Y-44114077D02*
X104327476Y-44174553D01*
X104327476Y-44174553D02*
X104387952Y-44295505D01*
X104387952Y-44295505D02*
X104387952Y-44476934D01*
X104387952Y-44476934D02*
X104327476Y-44597886D01*
X104327476Y-44597886D02*
X104266999Y-44658363D01*
X104266999Y-44658363D02*
X104146047Y-44718839D01*
X104146047Y-44718839D02*
X103662237Y-44718839D01*
X104629857Y-45444553D02*
X105597476Y-45444553D01*
X105899856Y-45323601D02*
X105899856Y-44053601D01*
X106504618Y-45323601D02*
X106504618Y-44053601D01*
X106504618Y-44053601D02*
X107230333Y-45323601D01*
X107230333Y-45323601D02*
X107230333Y-44053601D01*
D12*
X92594133Y-60303580D02*
X92546514Y-60351200D01*
X92546514Y-60351200D02*
X92403657Y-60398819D01*
X92403657Y-60398819D02*
X92308419Y-60398819D01*
X92308419Y-60398819D02*
X92165562Y-60351200D01*
X92165562Y-60351200D02*
X92070324Y-60255961D01*
X92070324Y-60255961D02*
X92022705Y-60160723D01*
X92022705Y-60160723D02*
X91975086Y-59970247D01*
X91975086Y-59970247D02*
X91975086Y-59827390D01*
X91975086Y-59827390D02*
X92022705Y-59636914D01*
X92022705Y-59636914D02*
X92070324Y-59541676D01*
X92070324Y-59541676D02*
X92165562Y-59446438D01*
X92165562Y-59446438D02*
X92308419Y-59398819D01*
X92308419Y-59398819D02*
X92403657Y-59398819D01*
X92403657Y-59398819D02*
X92546514Y-59446438D01*
X92546514Y-59446438D02*
X92594133Y-59494057D01*
X93070324Y-60398819D02*
X93260800Y-60398819D01*
X93260800Y-60398819D02*
X93356038Y-60351200D01*
X93356038Y-60351200D02*
X93403657Y-60303580D01*
X93403657Y-60303580D02*
X93498895Y-60160723D01*
X93498895Y-60160723D02*
X93546514Y-59970247D01*
X93546514Y-59970247D02*
X93546514Y-59589295D01*
X93546514Y-59589295D02*
X93498895Y-59494057D01*
X93498895Y-59494057D02*
X93451276Y-59446438D01*
X93451276Y-59446438D02*
X93356038Y-59398819D01*
X93356038Y-59398819D02*
X93165562Y-59398819D01*
X93165562Y-59398819D02*
X93070324Y-59446438D01*
X93070324Y-59446438D02*
X93022705Y-59494057D01*
X93022705Y-59494057D02*
X92975086Y-59589295D01*
X92975086Y-59589295D02*
X92975086Y-59827390D01*
X92975086Y-59827390D02*
X93022705Y-59922628D01*
X93022705Y-59922628D02*
X93070324Y-59970247D01*
X93070324Y-59970247D02*
X93165562Y-60017866D01*
X93165562Y-60017866D02*
X93356038Y-60017866D01*
X93356038Y-60017866D02*
X93451276Y-59970247D01*
X93451276Y-59970247D02*
X93498895Y-59922628D01*
X93498895Y-59922628D02*
X93546514Y-59827390D01*
X138719160Y-77639104D02*
X139195350Y-77639104D01*
X138623922Y-77924819D02*
X138957255Y-76924819D01*
X138957255Y-76924819D02*
X139290588Y-77924819D01*
X140147731Y-77924819D02*
X139576303Y-77924819D01*
X139862017Y-77924819D02*
X139862017Y-76924819D01*
X139862017Y-76924819D02*
X139766779Y-77067676D01*
X139766779Y-77067676D02*
X139671541Y-77162914D01*
X139671541Y-77162914D02*
X139576303Y-77210533D01*
D10*
X100124381Y-66945048D02*
X100063905Y-67005525D01*
X100063905Y-67005525D02*
X99882476Y-67066001D01*
X99882476Y-67066001D02*
X99761524Y-67066001D01*
X99761524Y-67066001D02*
X99580095Y-67005525D01*
X99580095Y-67005525D02*
X99459143Y-66884572D01*
X99459143Y-66884572D02*
X99398666Y-66763620D01*
X99398666Y-66763620D02*
X99338190Y-66521715D01*
X99338190Y-66521715D02*
X99338190Y-66340286D01*
X99338190Y-66340286D02*
X99398666Y-66098382D01*
X99398666Y-66098382D02*
X99459143Y-65977429D01*
X99459143Y-65977429D02*
X99580095Y-65856477D01*
X99580095Y-65856477D02*
X99761524Y-65796001D01*
X99761524Y-65796001D02*
X99882476Y-65796001D01*
X99882476Y-65796001D02*
X100063905Y-65856477D01*
X100063905Y-65856477D02*
X100124381Y-65916953D01*
X100668666Y-67066001D02*
X100668666Y-65796001D01*
X100668666Y-65796001D02*
X101092000Y-66703144D01*
X101092000Y-66703144D02*
X101515333Y-65796001D01*
X101515333Y-65796001D02*
X101515333Y-67066001D01*
X102120095Y-67066001D02*
X102120095Y-65796001D01*
X102120095Y-65796001D02*
X102603905Y-65796001D01*
X102603905Y-65796001D02*
X102724857Y-65856477D01*
X102724857Y-65856477D02*
X102785334Y-65916953D01*
X102785334Y-65916953D02*
X102845810Y-66037905D01*
X102845810Y-66037905D02*
X102845810Y-66219334D01*
X102845810Y-66219334D02*
X102785334Y-66340286D01*
X102785334Y-66340286D02*
X102724857Y-66400763D01*
X102724857Y-66400763D02*
X102603905Y-66461239D01*
X102603905Y-66461239D02*
X102120095Y-66461239D01*
D12*
X126746095Y-62700819D02*
X126746095Y-63510342D01*
X126746095Y-63510342D02*
X126793714Y-63605580D01*
X126793714Y-63605580D02*
X126841333Y-63653200D01*
X126841333Y-63653200D02*
X126936571Y-63700819D01*
X126936571Y-63700819D02*
X127127047Y-63700819D01*
X127127047Y-63700819D02*
X127222285Y-63653200D01*
X127222285Y-63653200D02*
X127269904Y-63605580D01*
X127269904Y-63605580D02*
X127317523Y-63510342D01*
X127317523Y-63510342D02*
X127317523Y-62700819D01*
X128222285Y-63034152D02*
X128222285Y-63700819D01*
X127984190Y-62653200D02*
X127746095Y-63367485D01*
X127746095Y-63367485D02*
X128365142Y-63367485D01*
D10*
X95156748Y-44028201D02*
X95580081Y-45298201D01*
X95580081Y-45298201D02*
X96003415Y-44028201D01*
X96426747Y-45298201D02*
X96426747Y-44028201D01*
X97031509Y-45298201D02*
X97031509Y-44028201D01*
X97031509Y-44028201D02*
X97757224Y-45298201D01*
X97757224Y-45298201D02*
X97757224Y-44028201D01*
D12*
X129968666Y-71971819D02*
X129968666Y-72686104D01*
X129968666Y-72686104D02*
X129921047Y-72828961D01*
X129921047Y-72828961D02*
X129825809Y-72924200D01*
X129825809Y-72924200D02*
X129682952Y-72971819D01*
X129682952Y-72971819D02*
X129587714Y-72971819D01*
X130873428Y-72305152D02*
X130873428Y-72971819D01*
X130635333Y-71924200D02*
X130397238Y-72638485D01*
X130397238Y-72638485D02*
X131016285Y-72638485D01*
D10*
X117190762Y-55392801D02*
X117614095Y-56662801D01*
X117614095Y-56662801D02*
X118037429Y-55392801D01*
X119186476Y-56662801D02*
X118763142Y-56058039D01*
X118460761Y-56662801D02*
X118460761Y-55392801D01*
X118460761Y-55392801D02*
X118944571Y-55392801D01*
X118944571Y-55392801D02*
X119065523Y-55453277D01*
X119065523Y-55453277D02*
X119126000Y-55513753D01*
X119126000Y-55513753D02*
X119186476Y-55634705D01*
X119186476Y-55634705D02*
X119186476Y-55816134D01*
X119186476Y-55816134D02*
X119126000Y-55937086D01*
X119126000Y-55937086D02*
X119065523Y-55997563D01*
X119065523Y-55997563D02*
X118944571Y-56058039D01*
X118944571Y-56058039D02*
X118460761Y-56058039D01*
X119428381Y-56783753D02*
X120396000Y-56783753D01*
X120637904Y-56299944D02*
X121242666Y-56299944D01*
X120516952Y-56662801D02*
X120940285Y-55392801D01*
X120940285Y-55392801D02*
X121363619Y-56662801D01*
X121786951Y-56662801D02*
X121786951Y-55392801D01*
X121786951Y-55392801D02*
X122089332Y-55392801D01*
X122089332Y-55392801D02*
X122270761Y-55453277D01*
X122270761Y-55453277D02*
X122391713Y-55574229D01*
X122391713Y-55574229D02*
X122452190Y-55695182D01*
X122452190Y-55695182D02*
X122512666Y-55937086D01*
X122512666Y-55937086D02*
X122512666Y-56118515D01*
X122512666Y-56118515D02*
X122452190Y-56360420D01*
X122452190Y-56360420D02*
X122391713Y-56481372D01*
X122391713Y-56481372D02*
X122270761Y-56602325D01*
X122270761Y-56602325D02*
X122089332Y-56662801D01*
X122089332Y-56662801D02*
X121786951Y-56662801D01*
X123419809Y-55392801D02*
X123419809Y-56299944D01*
X123419809Y-56299944D02*
X123359332Y-56481372D01*
X123359332Y-56481372D02*
X123238380Y-56602325D01*
X123238380Y-56602325D02*
X123056951Y-56662801D01*
X123056951Y-56662801D02*
X122935999Y-56662801D01*
D12*
X117455961Y-58614457D02*
X117360723Y-58566838D01*
X117360723Y-58566838D02*
X117265485Y-58471600D01*
X117265485Y-58471600D02*
X117122628Y-58328742D01*
X117122628Y-58328742D02*
X117027390Y-58281123D01*
X117027390Y-58281123D02*
X116932152Y-58281123D01*
X116979771Y-58519219D02*
X116884533Y-58471600D01*
X116884533Y-58471600D02*
X116789295Y-58376361D01*
X116789295Y-58376361D02*
X116741676Y-58185885D01*
X116741676Y-58185885D02*
X116741676Y-57852552D01*
X116741676Y-57852552D02*
X116789295Y-57662076D01*
X116789295Y-57662076D02*
X116884533Y-57566838D01*
X116884533Y-57566838D02*
X116979771Y-57519219D01*
X116979771Y-57519219D02*
X117170247Y-57519219D01*
X117170247Y-57519219D02*
X117265485Y-57566838D01*
X117265485Y-57566838D02*
X117360723Y-57662076D01*
X117360723Y-57662076D02*
X117408342Y-57852552D01*
X117408342Y-57852552D02*
X117408342Y-58185885D01*
X117408342Y-58185885D02*
X117360723Y-58376361D01*
X117360723Y-58376361D02*
X117265485Y-58471600D01*
X117265485Y-58471600D02*
X117170247Y-58519219D01*
X117170247Y-58519219D02*
X116979771Y-58519219D01*
X117741676Y-57519219D02*
X118360723Y-57519219D01*
X118360723Y-57519219D02*
X118027390Y-57900171D01*
X118027390Y-57900171D02*
X118170247Y-57900171D01*
X118170247Y-57900171D02*
X118265485Y-57947790D01*
X118265485Y-57947790D02*
X118313104Y-57995409D01*
X118313104Y-57995409D02*
X118360723Y-58090647D01*
X118360723Y-58090647D02*
X118360723Y-58328742D01*
X118360723Y-58328742D02*
X118313104Y-58423980D01*
X118313104Y-58423980D02*
X118265485Y-58471600D01*
X118265485Y-58471600D02*
X118170247Y-58519219D01*
X118170247Y-58519219D02*
X117884533Y-58519219D01*
X117884533Y-58519219D02*
X117789295Y-58471600D01*
X117789295Y-58471600D02*
X117741676Y-58423980D01*
X141297066Y-59906819D02*
X141297066Y-60621104D01*
X141297066Y-60621104D02*
X141249447Y-60763961D01*
X141249447Y-60763961D02*
X141154209Y-60859200D01*
X141154209Y-60859200D02*
X141011352Y-60906819D01*
X141011352Y-60906819D02*
X140916114Y-60906819D01*
X142297066Y-60906819D02*
X141725638Y-60906819D01*
X142011352Y-60906819D02*
X142011352Y-59906819D01*
X142011352Y-59906819D02*
X141916114Y-60049676D01*
X141916114Y-60049676D02*
X141820876Y-60144914D01*
X141820876Y-60144914D02*
X141725638Y-60192533D01*
X117506761Y-63440457D02*
X117411523Y-63392838D01*
X117411523Y-63392838D02*
X117316285Y-63297600D01*
X117316285Y-63297600D02*
X117173428Y-63154742D01*
X117173428Y-63154742D02*
X117078190Y-63107123D01*
X117078190Y-63107123D02*
X116982952Y-63107123D01*
X117030571Y-63345219D02*
X116935333Y-63297600D01*
X116935333Y-63297600D02*
X116840095Y-63202361D01*
X116840095Y-63202361D02*
X116792476Y-63011885D01*
X116792476Y-63011885D02*
X116792476Y-62678552D01*
X116792476Y-62678552D02*
X116840095Y-62488076D01*
X116840095Y-62488076D02*
X116935333Y-62392838D01*
X116935333Y-62392838D02*
X117030571Y-62345219D01*
X117030571Y-62345219D02*
X117221047Y-62345219D01*
X117221047Y-62345219D02*
X117316285Y-62392838D01*
X117316285Y-62392838D02*
X117411523Y-62488076D01*
X117411523Y-62488076D02*
X117459142Y-62678552D01*
X117459142Y-62678552D02*
X117459142Y-63011885D01*
X117459142Y-63011885D02*
X117411523Y-63202361D01*
X117411523Y-63202361D02*
X117316285Y-63297600D01*
X117316285Y-63297600D02*
X117221047Y-63345219D01*
X117221047Y-63345219D02*
X117030571Y-63345219D01*
X118316285Y-62678552D02*
X118316285Y-63345219D01*
X118078190Y-62297600D02*
X117840095Y-63011885D01*
X117840095Y-63011885D02*
X118459142Y-63011885D01*
X114133333Y-53413819D02*
X113800000Y-52937628D01*
X113561905Y-53413819D02*
X113561905Y-52413819D01*
X113561905Y-52413819D02*
X113942857Y-52413819D01*
X113942857Y-52413819D02*
X114038095Y-52461438D01*
X114038095Y-52461438D02*
X114085714Y-52509057D01*
X114085714Y-52509057D02*
X114133333Y-52604295D01*
X114133333Y-52604295D02*
X114133333Y-52747152D01*
X114133333Y-52747152D02*
X114085714Y-52842390D01*
X114085714Y-52842390D02*
X114038095Y-52890009D01*
X114038095Y-52890009D02*
X113942857Y-52937628D01*
X113942857Y-52937628D02*
X113561905Y-52937628D01*
X115038095Y-52413819D02*
X114561905Y-52413819D01*
X114561905Y-52413819D02*
X114514286Y-52890009D01*
X114514286Y-52890009D02*
X114561905Y-52842390D01*
X114561905Y-52842390D02*
X114657143Y-52794771D01*
X114657143Y-52794771D02*
X114895238Y-52794771D01*
X114895238Y-52794771D02*
X114990476Y-52842390D01*
X114990476Y-52842390D02*
X115038095Y-52890009D01*
X115038095Y-52890009D02*
X115085714Y-52985247D01*
X115085714Y-52985247D02*
X115085714Y-53223342D01*
X115085714Y-53223342D02*
X115038095Y-53318580D01*
X115038095Y-53318580D02*
X114990476Y-53366200D01*
X114990476Y-53366200D02*
X114895238Y-53413819D01*
X114895238Y-53413819D02*
X114657143Y-53413819D01*
X114657143Y-53413819D02*
X114561905Y-53366200D01*
X114561905Y-53366200D02*
X114514286Y-53318580D01*
D10*
X129953657Y-48890401D02*
X130376990Y-50160401D01*
X130376990Y-50160401D02*
X130800324Y-48890401D01*
X131163180Y-50099925D02*
X131344609Y-50160401D01*
X131344609Y-50160401D02*
X131646990Y-50160401D01*
X131646990Y-50160401D02*
X131767942Y-50099925D01*
X131767942Y-50099925D02*
X131828418Y-50039448D01*
X131828418Y-50039448D02*
X131888895Y-49918496D01*
X131888895Y-49918496D02*
X131888895Y-49797544D01*
X131888895Y-49797544D02*
X131828418Y-49676591D01*
X131828418Y-49676591D02*
X131767942Y-49616115D01*
X131767942Y-49616115D02*
X131646990Y-49555639D01*
X131646990Y-49555639D02*
X131405085Y-49495163D01*
X131405085Y-49495163D02*
X131284133Y-49434686D01*
X131284133Y-49434686D02*
X131223656Y-49374210D01*
X131223656Y-49374210D02*
X131163180Y-49253258D01*
X131163180Y-49253258D02*
X131163180Y-49132305D01*
X131163180Y-49132305D02*
X131223656Y-49011353D01*
X131223656Y-49011353D02*
X131284133Y-48950877D01*
X131284133Y-48950877D02*
X131405085Y-48890401D01*
X131405085Y-48890401D02*
X131707466Y-48890401D01*
X131707466Y-48890401D02*
X131888895Y-48950877D01*
X132433180Y-49495163D02*
X132856514Y-49495163D01*
X133037942Y-50160401D02*
X132433180Y-50160401D01*
X132433180Y-50160401D02*
X132433180Y-48890401D01*
X132433180Y-48890401D02*
X133037942Y-48890401D01*
X133582228Y-50160401D02*
X133582228Y-48890401D01*
X133582228Y-48890401D02*
X134307943Y-50160401D01*
X134307943Y-50160401D02*
X134307943Y-48890401D01*
X134852228Y-50099925D02*
X135033657Y-50160401D01*
X135033657Y-50160401D02*
X135336038Y-50160401D01*
X135336038Y-50160401D02*
X135456990Y-50099925D01*
X135456990Y-50099925D02*
X135517466Y-50039448D01*
X135517466Y-50039448D02*
X135577943Y-49918496D01*
X135577943Y-49918496D02*
X135577943Y-49797544D01*
X135577943Y-49797544D02*
X135517466Y-49676591D01*
X135517466Y-49676591D02*
X135456990Y-49616115D01*
X135456990Y-49616115D02*
X135336038Y-49555639D01*
X135336038Y-49555639D02*
X135094133Y-49495163D01*
X135094133Y-49495163D02*
X134973181Y-49434686D01*
X134973181Y-49434686D02*
X134912704Y-49374210D01*
X134912704Y-49374210D02*
X134852228Y-49253258D01*
X134852228Y-49253258D02*
X134852228Y-49132305D01*
X134852228Y-49132305D02*
X134912704Y-49011353D01*
X134912704Y-49011353D02*
X134973181Y-48950877D01*
X134973181Y-48950877D02*
X135094133Y-48890401D01*
X135094133Y-48890401D02*
X135396514Y-48890401D01*
X135396514Y-48890401D02*
X135577943Y-48950877D01*
X136122228Y-49495163D02*
X136545562Y-49495163D01*
X136726990Y-50160401D02*
X136122228Y-50160401D01*
X136122228Y-50160401D02*
X136122228Y-48890401D01*
X136122228Y-48890401D02*
X136726990Y-48890401D01*
D14*
%TO.C,Q5*%
X114327700Y-66933600D02*
X113677700Y-66933600D01*
X114327700Y-66933600D02*
X114977700Y-66933600D01*
X114327700Y-70053600D02*
X113677700Y-70053600D01*
X114327700Y-70053600D02*
X114977700Y-70053600D01*
X113165200Y-66983600D02*
X112925200Y-66653600D01*
X113405200Y-66653600D01*
X113165200Y-66983600D01*
G36*
X113165200Y-66983600D02*
G01*
X112925200Y-66653600D01*
X113405200Y-66653600D01*
X113165200Y-66983600D01*
G37*
%TO.C,TP7*%
X102292000Y-75133200D02*
G75*
G02*
X99892000Y-75133200I-1200000J0D01*
G01*
X99892000Y-75133200D02*
G75*
G02*
X102292000Y-75133200I1200000J0D01*
G01*
%TO.C,C8*%
X129648933Y-60932600D02*
X129941467Y-60932600D01*
X129648933Y-61952600D02*
X129941467Y-61952600D01*
%TO.C,R14*%
X105313324Y-53528700D02*
X104803876Y-53528700D01*
X105313324Y-54573700D02*
X104803876Y-54573700D01*
%TO.C,R9*%
X134496476Y-55332100D02*
X135005924Y-55332100D01*
X134496476Y-56377100D02*
X135005924Y-56377100D01*
%TO.C,C4*%
X121204967Y-48867600D02*
X120912433Y-48867600D01*
X121204967Y-49887600D02*
X120912433Y-49887600D01*
%TO.C,D1*%
X112589200Y-46356600D02*
X112589200Y-47826600D01*
X112589200Y-47826600D02*
X115049200Y-47826600D01*
X115049200Y-46356600D02*
X112589200Y-46356600D01*
%TO.C,J3*%
X84980000Y-71005000D02*
X86360000Y-71005000D01*
X84980000Y-72385000D02*
X84980000Y-71005000D01*
X84980000Y-73655000D02*
X84980000Y-76305000D01*
X84980000Y-73655000D02*
X87740000Y-73655000D01*
X84980000Y-76305000D02*
X87740000Y-76305000D01*
X87740000Y-73655000D02*
X87740000Y-76305000D01*
%TO.C,R3*%
X129539276Y-57135500D02*
X130048724Y-57135500D01*
X129539276Y-58180500D02*
X130048724Y-58180500D01*
%TO.C,J2*%
X84980000Y-57040000D02*
X86360000Y-57040000D01*
X84980000Y-58420000D02*
X84980000Y-57040000D01*
X84980000Y-59690000D02*
X84980000Y-62340000D01*
X84980000Y-59690000D02*
X87740000Y-59690000D01*
X84980000Y-62340000D02*
X87740000Y-62340000D01*
X87740000Y-59690000D02*
X87740000Y-62340000D01*
%TO.C,C5*%
X126766467Y-48740600D02*
X126473933Y-48740600D01*
X126766467Y-49760600D02*
X126473933Y-49760600D01*
%TO.C,R10*%
X135029424Y-57491100D02*
X134519976Y-57491100D01*
X135029424Y-58536100D02*
X134519976Y-58536100D01*
%TO.C,R4*%
X109473276Y-56068700D02*
X109982724Y-56068700D01*
X109473276Y-57113700D02*
X109982724Y-57113700D01*
%TO.C,C10*%
X104810733Y-55979600D02*
X105103267Y-55979600D01*
X104810733Y-56999600D02*
X105103267Y-56999600D01*
%TO.C,R13*%
X100969924Y-53528700D02*
X100460476Y-53528700D01*
X100969924Y-54573700D02*
X100460476Y-54573700D01*
%TO.C,R16*%
X109221176Y-69022700D02*
X109730624Y-69022700D01*
X109221176Y-70067700D02*
X109730624Y-70067700D01*
%TO.C,D3*%
X93336000Y-104624200D02*
X93336000Y-106094200D01*
X93336000Y-106094200D02*
X95796000Y-106094200D01*
X95796000Y-104624200D02*
X93336000Y-104624200D01*
%TO.C,TP4*%
X134704700Y-47091600D02*
G75*
G02*
X132304700Y-47091600I-1200000J0D01*
G01*
X132304700Y-47091600D02*
G75*
G02*
X134704700Y-47091600I1200000J0D01*
G01*
%TO.C,D2*%
X84598400Y-66067000D02*
X84598400Y-67537000D01*
X84598400Y-67537000D02*
X87058400Y-67537000D01*
X87058400Y-66067000D02*
X84598400Y-66067000D01*
%TO.C,R15*%
X109728724Y-66990700D02*
X109219276Y-66990700D01*
X109728724Y-68035700D02*
X109219276Y-68035700D01*
%TO.C,U3*%
X102516700Y-59390600D02*
X100566700Y-59390600D01*
X102516700Y-59390600D02*
X104466700Y-59390600D01*
X102516700Y-64510600D02*
X100566700Y-64510600D01*
X102516700Y-64510600D02*
X104466700Y-64510600D01*
X99816700Y-59485600D02*
X99576700Y-59155600D01*
X100056700Y-59155600D01*
X99816700Y-59485600D01*
G36*
X99816700Y-59485600D02*
G01*
X99576700Y-59155600D01*
X100056700Y-59155600D01*
X99816700Y-59485600D01*
G37*
%TO.C,R7*%
X109986924Y-61682100D02*
X109477476Y-61682100D01*
X109986924Y-62727100D02*
X109477476Y-62727100D01*
%TO.C,J5*%
X97172000Y-112124000D02*
X97172000Y-110744000D01*
X98552000Y-112124000D02*
X97172000Y-112124000D01*
X99822000Y-109364000D02*
X107552000Y-109364000D01*
X99822000Y-112124000D02*
X99822000Y-109364000D01*
X99822000Y-112124000D02*
X107552000Y-112124000D01*
X107552000Y-112124000D02*
X107552000Y-109364000D01*
%TO.C,R17*%
X99009924Y-104836700D02*
X98500476Y-104836700D01*
X99009924Y-105881700D02*
X98500476Y-105881700D01*
%TO.C,R18*%
X107569724Y-104887500D02*
X107060276Y-104887500D01*
X107569724Y-105932500D02*
X107060276Y-105932500D01*
%TO.C,U1*%
X123720200Y-51693600D02*
X122920200Y-51693600D01*
X123720200Y-51693600D02*
X124520200Y-51693600D01*
X123720200Y-54813600D02*
X122920200Y-54813600D01*
X123720200Y-54813600D02*
X124520200Y-54813600D01*
X122420200Y-51743600D02*
X122180200Y-51413600D01*
X122660200Y-51413600D01*
X122420200Y-51743600D01*
G36*
X122420200Y-51743600D02*
G01*
X122180200Y-51413600D01*
X122660200Y-51413600D01*
X122420200Y-51743600D01*
G37*
%TO.C,TP10*%
X140900000Y-73660000D02*
G75*
G02*
X138500000Y-73660000I-1200000J0D01*
G01*
X138500000Y-73660000D02*
G75*
G02*
X140900000Y-73660000I1200000J0D01*
G01*
%TO.C,R8*%
X95452476Y-66330300D02*
X95961924Y-66330300D01*
X95452476Y-67375300D02*
X95961924Y-67375300D01*
%TO.C,R2*%
X130052924Y-55205100D02*
X129543476Y-55205100D01*
X130052924Y-56250100D02*
X129543476Y-56250100D01*
%TO.C,JP1*%
X105681000Y-74676000D02*
X105681000Y-72026000D01*
X108441000Y-72026000D02*
X105681000Y-72026000D01*
X108441000Y-74676000D02*
X105681000Y-74676000D01*
X108441000Y-74676000D02*
X108441000Y-72026000D01*
X108441000Y-75946000D02*
X108441000Y-77326000D01*
X108441000Y-77326000D02*
X107061000Y-77326000D01*
%TO.C,R12*%
X95505176Y-63891900D02*
X96014624Y-63891900D01*
X95505176Y-64936900D02*
X96014624Y-64936900D01*
%TO.C,R1*%
X100460476Y-50861700D02*
X100969924Y-50861700D01*
X100460476Y-51906700D02*
X100969924Y-51906700D01*
%TO.C,TP9*%
X96754800Y-74930000D02*
G75*
G02*
X94354800Y-74930000I-1200000J0D01*
G01*
X94354800Y-74930000D02*
G75*
G02*
X96754800Y-74930000I1200000J0D01*
G01*
%TO.C,R6*%
X113996376Y-48626500D02*
X114505824Y-48626500D01*
X113996376Y-49671500D02*
X114505824Y-49671500D01*
%TO.C,R11*%
X96014624Y-61402700D02*
X95505176Y-61402700D01*
X96014624Y-62447700D02*
X95505176Y-62447700D01*
%TO.C,C6*%
X124988467Y-67663600D02*
X124695933Y-67663600D01*
X124988467Y-68683600D02*
X124695933Y-68683600D01*
%TO.C,D4*%
X101845000Y-104675000D02*
X101845000Y-106145000D01*
X101845000Y-106145000D02*
X104305000Y-106145000D01*
X104305000Y-104675000D02*
X101845000Y-104675000D01*
%TO.C,C7*%
X124722433Y-61059600D02*
X125014967Y-61059600D01*
X124722433Y-62079600D02*
X125014967Y-62079600D01*
%TO.C,TP1*%
X136480400Y-61518800D02*
G75*
G02*
X134080400Y-61518800I-1200000J0D01*
G01*
X134080400Y-61518800D02*
G75*
G02*
X136480400Y-61518800I1200000J0D01*
G01*
%TO.C,TP3*%
X106102000Y-47244000D02*
G75*
G02*
X103702000Y-47244000I-1200000J0D01*
G01*
X103702000Y-47244000D02*
G75*
G02*
X106102000Y-47244000I1200000J0D01*
G01*
%TO.C,C9*%
X95906567Y-59256200D02*
X95614033Y-59256200D01*
X95906567Y-60276200D02*
X95614033Y-60276200D01*
%TO.C,A1*%
X89325000Y-80805000D02*
X89325000Y-83295000D01*
X89325000Y-83295000D02*
X90238520Y-83295000D01*
X89325000Y-84642939D02*
X89325000Y-83295000D01*
X89325000Y-86570000D02*
X89325000Y-85567061D01*
X89325000Y-86905000D02*
X90241000Y-86905000D01*
X89325000Y-94705000D02*
X90241000Y-94705000D01*
X89325000Y-95040000D02*
X89325000Y-86570000D01*
X89325000Y-96042939D02*
X89325000Y-95040000D01*
X89325000Y-98315000D02*
X89325000Y-96967060D01*
X89325000Y-98315000D02*
X90238520Y-98315000D01*
X89325000Y-100805000D02*
X89325000Y-98315000D01*
X89745000Y-101384676D02*
X89745000Y-101895000D01*
X89745063Y-80535000D02*
X89388000Y-80535000D01*
X89745063Y-101075000D02*
X89388000Y-101075000D01*
X91865000Y-80195000D02*
X92285000Y-80195000D01*
X91865000Y-80535000D02*
X92285000Y-80535000D01*
X91865000Y-101075000D02*
X92285000Y-101075000D01*
X91865000Y-101415000D02*
X91865000Y-101895000D01*
X91865000Y-101415000D02*
X92285000Y-101415000D01*
X92629000Y-86905000D02*
X93845000Y-86905000D01*
X92629000Y-94705000D02*
X93845000Y-94705000D01*
X92631480Y-83295000D02*
X137238520Y-83295000D01*
X92631480Y-98315000D02*
X137238520Y-98315000D01*
X93845000Y-87201090D02*
X93845000Y-86905000D01*
X93845000Y-92051090D02*
X93845000Y-89558910D01*
X93845000Y-94705000D02*
X93845000Y-94408910D01*
X94405000Y-80195000D02*
X94825000Y-80195000D01*
X94405000Y-80535000D02*
X94825000Y-80535000D01*
X94405000Y-101075000D02*
X94825000Y-101075000D01*
X94405000Y-101415000D02*
X94825000Y-101415000D01*
X96945000Y-80195000D02*
X97365000Y-80195000D01*
X96945000Y-80535000D02*
X97365000Y-80535000D01*
X96945000Y-101075000D02*
X97365000Y-101075000D01*
X96945000Y-101415000D02*
X97365000Y-101415000D01*
X99485000Y-80195000D02*
X99905000Y-80195000D01*
X99485000Y-80535000D02*
X99905000Y-80535000D01*
X99485000Y-101075000D02*
X99905000Y-101075000D01*
X99485000Y-101415000D02*
X99905000Y-101415000D01*
X102025000Y-80195000D02*
X102445000Y-80195000D01*
X102025000Y-80535000D02*
X102445000Y-80535000D01*
X102025000Y-101075000D02*
X102445000Y-101075000D01*
X102025000Y-101415000D02*
X102445000Y-101415000D01*
X104565000Y-80195000D02*
X104985000Y-80195000D01*
X104565000Y-80535000D02*
X104985000Y-80535000D01*
X104565000Y-101075000D02*
X104985000Y-101075000D01*
X104565000Y-101415000D02*
X104985000Y-101415000D01*
X107105000Y-80195000D02*
X107525000Y-80195000D01*
X107105000Y-80535000D02*
X107525000Y-80535000D01*
X107105000Y-101075000D02*
X107525000Y-101075000D01*
X107105000Y-101415000D02*
X107525000Y-101415000D01*
X109645000Y-80195000D02*
X110065000Y-80195000D01*
X109645000Y-80535000D02*
X110065000Y-80535000D01*
X109645000Y-101075000D02*
X110065000Y-101075000D01*
X109645000Y-101415000D02*
X110065000Y-101415000D01*
X112185000Y-80195000D02*
X112605000Y-80195000D01*
X112185000Y-80535000D02*
X112605000Y-80535000D01*
X112185000Y-101075000D02*
X112605000Y-101075000D01*
X112185000Y-101415000D02*
X112605000Y-101415000D01*
X114725000Y-80195000D02*
X115145000Y-80195000D01*
X114725000Y-80535000D02*
X115145000Y-80535000D01*
X114725000Y-101075000D02*
X115145000Y-101075000D01*
X114725000Y-101415000D02*
X115145000Y-101415000D01*
X117265000Y-80195000D02*
X117685000Y-80195000D01*
X117265000Y-80535000D02*
X117685000Y-80535000D01*
X117265000Y-101075000D02*
X117685000Y-101075000D01*
X117265000Y-101415000D02*
X117685000Y-101415000D01*
X119805000Y-80195000D02*
X120225000Y-80195000D01*
X119805000Y-80535000D02*
X120225000Y-80535000D01*
X119805000Y-101075000D02*
X120225000Y-101075000D01*
X119805000Y-101415000D02*
X120225000Y-101415000D01*
X122345000Y-80195000D02*
X122765000Y-80195000D01*
X122345000Y-80535000D02*
X122765000Y-80535000D01*
X122345000Y-101075000D02*
X122765000Y-101075000D01*
X122345000Y-101415000D02*
X122765000Y-101415000D01*
X124885000Y-80195000D02*
X125305000Y-80195000D01*
X124885000Y-80535000D02*
X125305000Y-80535000D01*
X124885000Y-101075000D02*
X125305000Y-101075000D01*
X124885000Y-101415000D02*
X125305000Y-101415000D01*
X127425000Y-80195000D02*
X127845000Y-80195000D01*
X127425000Y-80535000D02*
X127845000Y-80535000D01*
X127425000Y-101075000D02*
X127845000Y-101075000D01*
X127425000Y-101415000D02*
X127845000Y-101415000D01*
X129965000Y-80195000D02*
X130385000Y-80195000D01*
X129965000Y-80535000D02*
X130385000Y-80535000D01*
X129965000Y-101075000D02*
X130385000Y-101075000D01*
X129965000Y-101415000D02*
X130385000Y-101415000D01*
X132505000Y-80195000D02*
X132925000Y-80195000D01*
X132505000Y-80535000D02*
X132925000Y-80535000D01*
X132505000Y-101075000D02*
X132925000Y-101075000D01*
X132505000Y-101415000D02*
X132925000Y-101415000D01*
X135045000Y-80195000D02*
X135465000Y-80195000D01*
X135045000Y-80535000D02*
X135465000Y-80535000D01*
X135045000Y-101075000D02*
X135465000Y-101075000D01*
X135045000Y-101415000D02*
X135465000Y-101415000D01*
X137585000Y-80195000D02*
X138005000Y-80195000D01*
X137585000Y-80535000D02*
X138005000Y-80535000D01*
X137585000Y-101075000D02*
X138005000Y-101075000D01*
X137585000Y-101415000D02*
X138005000Y-101415000D01*
X139631480Y-83295000D02*
X140545000Y-83295000D01*
X139631480Y-98315000D02*
X140545000Y-98315000D01*
X140124937Y-80535000D02*
X140482000Y-80535000D01*
X140124937Y-101075000D02*
X140482000Y-101075000D01*
X140545000Y-84642939D02*
X140545000Y-80805000D01*
X140545000Y-85567061D02*
X140545000Y-87205000D01*
X140545000Y-87205000D02*
X140545000Y-94405000D01*
X140545000Y-94405000D02*
X140545000Y-96042939D01*
X140545000Y-100805000D02*
X140545000Y-96967061D01*
X89325000Y-80805000D02*
G75*
G02*
X89745063Y-80225324I610000J0D01*
G01*
X89745000Y-101384676D02*
G75*
G02*
X89325000Y-100805000I190051J579692D01*
G01*
X140124937Y-80225324D02*
G75*
G02*
X140545069Y-80805000I-189837J-579676D01*
G01*
X140545000Y-100805000D02*
G75*
G02*
X140124937Y-101384676I-610002J1D01*
G01*
%TO.C,TP8*%
X102292000Y-68986400D02*
G75*
G02*
X99892000Y-68986400I-1200000J0D01*
G01*
X99892000Y-68986400D02*
G75*
G02*
X102292000Y-68986400I1200000J0D01*
G01*
%TO.C,U4*%
X123217700Y-63388600D02*
X121717700Y-63388600D01*
X123217700Y-63388600D02*
X124717700Y-63388600D01*
X123217700Y-66608600D02*
X121717700Y-66608600D01*
X123217700Y-66608600D02*
X124717700Y-66608600D01*
X125670200Y-66763600D02*
X125190200Y-66763600D01*
X125430200Y-66433600D01*
X125670200Y-66763600D01*
G36*
X125670200Y-66763600D02*
G01*
X125190200Y-66763600D01*
X125430200Y-66433600D01*
X125670200Y-66763600D01*
G37*
%TO.C,TP5*%
X97747700Y-47218600D02*
G75*
G02*
X95347700Y-47218600I-1200000J0D01*
G01*
X95347700Y-47218600D02*
G75*
G02*
X97747700Y-47218600I1200000J0D01*
G01*
%TO.C,J4*%
X110583200Y-77021200D02*
X110583200Y-75641200D01*
X111963200Y-77021200D02*
X110583200Y-77021200D01*
X113233200Y-74261200D02*
X131123200Y-74261200D01*
X113233200Y-77021200D02*
X113233200Y-74261200D01*
X113233200Y-77021200D02*
X131123200Y-77021200D01*
X131123200Y-77021200D02*
X131123200Y-74261200D01*
%TO.C,TP2*%
X126168000Y-57404000D02*
G75*
G02*
X123768000Y-57404000I-1200000J0D01*
G01*
X123768000Y-57404000D02*
G75*
G02*
X126168000Y-57404000I1200000J0D01*
G01*
%TO.C,Q3*%
X114327700Y-56453600D02*
X113677700Y-56453600D01*
X114327700Y-56453600D02*
X114977700Y-56453600D01*
X114327700Y-59573600D02*
X113677700Y-59573600D01*
X114327700Y-59573600D02*
X114977700Y-59573600D01*
X113165200Y-56503600D02*
X112925200Y-56173600D01*
X113405200Y-56173600D01*
X113165200Y-56503600D01*
G36*
X113165200Y-56503600D02*
G01*
X112925200Y-56173600D01*
X113405200Y-56173600D01*
X113165200Y-56503600D01*
G37*
%TO.C,J1*%
X143400000Y-58310000D02*
X144780000Y-58310000D01*
X143400000Y-59690000D02*
X143400000Y-58310000D01*
X143400000Y-60960000D02*
X143400000Y-63610000D01*
X143400000Y-60960000D02*
X146160000Y-60960000D01*
X143400000Y-63610000D02*
X146160000Y-63610000D01*
X146160000Y-60960000D02*
X146160000Y-63610000D01*
%TO.C,Q4*%
X114327700Y-61533600D02*
X113677700Y-61533600D01*
X114327700Y-61533600D02*
X114977700Y-61533600D01*
X114327700Y-64653600D02*
X113677700Y-64653600D01*
X114327700Y-64653600D02*
X114977700Y-64653600D01*
X113165200Y-61583600D02*
X112925200Y-61253600D01*
X113405200Y-61253600D01*
X113165200Y-61583600D01*
G36*
X113165200Y-61583600D02*
G01*
X112925200Y-61253600D01*
X113405200Y-61253600D01*
X113165200Y-61583600D01*
G37*
%TO.C,R5*%
X114045276Y-53960500D02*
X114554724Y-53960500D01*
X114045276Y-55005500D02*
X114554724Y-55005500D01*
%TO.C,TP6*%
X134702400Y-51917600D02*
G75*
G02*
X132302400Y-51917600I-1200000J0D01*
G01*
X132302400Y-51917600D02*
G75*
G02*
X134702400Y-51917600I1200000J0D01*
G01*
%TD*%
M02*
