%TF.GenerationSoftware,KiCad,Pcbnew,10.0.5-10.0.5~ubuntu24.04.1*%
%TF.CreationDate,2026-08-25T13:16:28-04:00*%
%TF.ProjectId,NN22_RPi_DetAdapter03_s00,4e4e3232-5f52-4506-995f-446574416461,rev?*%
%TF.SameCoordinates,Original*%
%TF.FileFunction,Soldermask,Top*%
%TF.FilePolarity,Negative*%
%FSLAX46Y46*%
G04 Gerber Fmt 4.6, Leading zero omitted, Abs format (unit mm)*
G04 Created by KiCad (PCBNEW 10.0.5-10.0.5~ubuntu24.04.1) date 2026-08-25 13:16:28*
%MOMM*%
%LPD*%
G01*
G04 APERTURE LIST*
G04 Aperture macros list*
%AMRoundRect*
0 Rectangle with rounded corners*
0 $1 Rounding radius*
0 $2 $3 $4 $5 $6 $7 $8 $9 X,Y pos of 4 corners*
0 Add a 4 corners polygon primitive as box body*
4,1,4,$2,$3,$4,$5,$6,$7,$8,$9,$2,$3,0*
0 Add four circle primitives for the rounded corners*
1,1,$1+$1,$2,$3*
1,1,$1+$1,$4,$5*
1,1,$1+$1,$6,$7*
1,1,$1+$1,$8,$9*
0 Add four rect primitives between the rounded corners*
20,1,$1+$1,$2,$3,$4,$5,0*
20,1,$1+$1,$4,$5,$6,$7,0*
20,1,$1+$1,$6,$7,$8,$9,0*
20,1,$1+$1,$8,$9,$2,$3,0*%
G04 Aperture macros list end*
%ADD10C,0.762000*%
%ADD11RoundRect,0.546100X-0.000010X-0.000010X0.000010X-0.000010X0.000010X0.000010X-0.000010X0.000010X0*%
%ADD12C,1.955800*%
%ADD13RoundRect,0.038100X0.300000X0.300000X-0.300000X0.300000X-0.300000X-0.300000X0.300000X-0.300000X0*%
%ADD14RoundRect,0.038100X0.500000X0.450000X-0.500000X0.450000X-0.500000X-0.450000X0.500000X-0.450000X0*%
%ADD15RoundRect,0.038100X-0.250000X0.300000X-0.250000X-0.300000X0.250000X-0.300000X0.250000X0.300000X0*%
%ADD16RoundRect,0.038100X0.300000X0.250000X-0.300000X0.250000X-0.300000X-0.250000X0.300000X-0.250000X0*%
%ADD17RoundRect,0.038100X0.250000X-0.300000X0.250000X0.300000X-0.250000X0.300000X-0.250000X-0.300000X0*%
%ADD18C,1.600000*%
%ADD19RoundRect,0.038100X0.400000X-0.400000X0.400000X0.400000X-0.400000X0.400000X-0.400000X-0.400000X0*%
%ADD20RoundRect,0.038100X1.350000X0.600000X-1.350000X0.600000X-1.350000X-0.600000X1.350000X-0.600000X0*%
%ADD21RoundRect,0.038100X-0.300000X-0.300000X0.300000X-0.300000X0.300000X0.300000X-0.300000X0.300000X0*%
%ADD22RoundRect,0.038100X0.300000X-0.300000X0.300000X0.300000X-0.300000X0.300000X-0.300000X-0.300000X0*%
%ADD23RoundRect,0.038100X-0.300000X-0.250000X0.300000X-0.250000X0.300000X0.250000X-0.300000X0.250000X0*%
%ADD24RoundRect,0.038100X0.035355X0.388909X-0.388909X-0.035355X-0.035355X-0.388909X0.388909X0.035355X0*%
%ADD25RoundRect,0.038100X-0.300000X0.300000X-0.300000X-0.300000X0.300000X-0.300000X0.300000X0.300000X0*%
%ADD26RoundRect,0.038100X-0.125000X0.500000X-0.125000X-0.500000X0.125000X-0.500000X0.125000X0.500000X0*%
%ADD27RoundRect,0.038100X-0.500000X-0.125000X0.500000X-0.125000X0.500000X0.125000X-0.500000X0.125000X0*%
%ADD28RoundRect,0.038100X0.125000X-0.500000X0.125000X0.500000X-0.125000X0.500000X-0.125000X-0.500000X0*%
%ADD29RoundRect,0.038100X0.500000X0.125000X-0.500000X0.125000X-0.500000X-0.125000X0.500000X-0.125000X0*%
%ADD30RoundRect,0.038100X-0.550000X0.550000X-0.550000X-0.550000X0.550000X-0.550000X0.550000X0.550000X0*%
%ADD31RoundRect,0.038100X-0.400000X-0.400000X0.400000X-0.400000X0.400000X0.400000X-0.400000X0.400000X0*%
%ADD32RoundRect,0.038100X0.450000X-0.500000X0.450000X0.500000X-0.450000X0.500000X-0.450000X-0.500000X0*%
%ADD33RoundRect,0.038100X0.200000X-0.700000X0.200000X0.700000X-0.200000X0.700000X-0.200000X-0.700000X0*%
%ADD34C,1.426200*%
%ADD35C,1.876200*%
%ADD36RoundRect,0.038100X-0.750000X-0.775000X0.750000X-0.775000X0.750000X0.775000X-0.750000X0.775000X0*%
%ADD37R,0.750000X0.750000*%
%ADD38R,0.400000X0.480000*%
%ADD39RoundRect,0.038100X0.538815X-0.179605X-0.179605X0.538815X-0.538815X0.179605X0.179605X-0.538815X0*%
%ADD40RoundRect,0.038100X0.388909X-0.035355X-0.035355X0.388909X-0.388909X0.035355X0.035355X-0.388909X0*%
%ADD41RoundRect,0.038100X-0.500000X-0.400000X0.500000X-0.400000X0.500000X0.400000X-0.500000X0.400000X0*%
%ADD42RoundRect,0.038100X-0.450000X0.500000X-0.450000X-0.500000X0.450000X-0.500000X0.450000X0.500000X0*%
%ADD43RoundRect,0.038100X-0.525000X-0.650000X0.525000X-0.650000X0.525000X0.650000X-0.525000X0.650000X0*%
%ADD44RoundRect,0.038100X0.425000X0.150000X-0.425000X0.150000X-0.425000X-0.150000X0.425000X-0.150000X0*%
%ADD45RoundRect,0.038100X-0.100000X0.800000X-0.100000X-0.800000X0.100000X-0.800000X0.100000X0.800000X0*%
%ADD46RoundRect,0.058100X0.417500X0.080000X-0.417500X0.080000X-0.417500X-0.080000X0.417500X-0.080000X0*%
%ADD47RoundRect,0.058100X-0.080000X0.417500X-0.080000X-0.417500X0.080000X-0.417500X0.080000X0.417500X0*%
%ADD48RoundRect,0.058100X-0.417500X-0.080000X0.417500X-0.080000X0.417500X0.080000X-0.417500X0.080000X0*%
%ADD49RoundRect,0.058100X0.080000X-0.417500X0.080000X0.417500X-0.080000X0.417500X-0.080000X-0.417500X0*%
%ADD50RoundRect,0.198100X1.440000X1.440000X-1.440000X1.440000X-1.440000X-1.440000X1.440000X-1.440000X0*%
%ADD51RoundRect,0.114300X-0.304800X1.066800X-0.304800X-1.066800X0.304800X-1.066800X0.304800X1.066800X0*%
%ADD52RoundRect,0.038100X-0.225000X-0.150000X0.225000X-0.150000X0.225000X0.150000X-0.225000X0.150000X0*%
%ADD53RoundRect,0.038100X-0.500000X-0.800000X0.500000X-0.800000X0.500000X0.800000X-0.500000X0.800000X0*%
%ADD54RoundRect,0.038100X-1.397000X-0.381000X1.397000X-0.381000X1.397000X0.381000X-1.397000X0.381000X0*%
%ADD55RoundRect,0.038100X-1.275000X-1.275000X1.275000X-1.275000X1.275000X1.275000X-1.275000X1.275000X0*%
G04 APERTURE END LIST*
%TO.C,FID3*%
D10*
X170218100Y-90398600D02*
G75*
G02*
X169456100Y-90398600I-381000J0D01*
G01*
X169456100Y-90398600D02*
G75*
G02*
X170218100Y-90398600I381000J0D01*
G01*
%TO.C,FID1*%
X119164100Y-90652600D02*
G75*
G02*
X118402100Y-90652600I-381000J0D01*
G01*
X118402100Y-90652600D02*
G75*
G02*
X119164100Y-90652600I381000J0D01*
G01*
%TO.C,FID8*%
X158661100Y-109194600D02*
G75*
G02*
X157899100Y-109194600I-381000J0D01*
G01*
X157899100Y-109194600D02*
G75*
G02*
X158661100Y-109194600I381000J0D01*
G01*
%TO.C,FID2*%
X119164100Y-119354600D02*
G75*
G02*
X118402100Y-119354600I-381000J0D01*
G01*
X118402100Y-119354600D02*
G75*
G02*
X119164100Y-119354600I381000J0D01*
G01*
%TO.C,FID7*%
X167043100Y-100812600D02*
G75*
G02*
X166281100Y-100812600I-381000J0D01*
G01*
X166281100Y-100812600D02*
G75*
G02*
X167043100Y-100812600I381000J0D01*
G01*
%TD*%
D11*
%TO.C,TP1*%
X128308100Y-98653600D03*
%TD*%
D12*
%TO.C,TP20*%
X155486100Y-114528600D03*
%TD*%
D13*
%TO.C,R57*%
X169575100Y-112115600D03*
X168575100Y-112115600D03*
%TD*%
D11*
%TO.C,TP11*%
X128308100Y-103733600D03*
%TD*%
D14*
%TO.C,C108*%
X140892100Y-119227600D03*
X139092100Y-119227600D03*
%TD*%
D13*
%TO.C,R4*%
X138587100Y-103606600D03*
X137587100Y-103606600D03*
%TD*%
D15*
%TO.C,C12*%
X150914100Y-101455600D03*
X150914100Y-102455600D03*
%TD*%
D16*
%TO.C,C2*%
X144429100Y-99288600D03*
X143429100Y-99288600D03*
%TD*%
D17*
%TO.C,C87*%
X165011100Y-97629600D03*
X165011100Y-96629600D03*
%TD*%
D18*
%TO.C,J5*%
X175933100Y-119278600D03*
X175933100Y-90728600D03*
D19*
X173933100Y-92938600D03*
X173933100Y-94208600D03*
X173933100Y-95478600D03*
X173933100Y-96748600D03*
X173933100Y-98018600D03*
X173933100Y-99288600D03*
X173933100Y-100558600D03*
X173933100Y-101828600D03*
X173933100Y-103098600D03*
X173933100Y-104368600D03*
X173933100Y-105638600D03*
X173933100Y-106908600D03*
X173933100Y-108178600D03*
X173933100Y-109448600D03*
X173933100Y-110718600D03*
X173933100Y-111988600D03*
X173933100Y-113258600D03*
X173933100Y-114528600D03*
X173933100Y-115798600D03*
X173933100Y-117068600D03*
X172663100Y-92938600D03*
X172663100Y-94208600D03*
X172663100Y-95478600D03*
X172663100Y-96748600D03*
X172663100Y-98018600D03*
X172663100Y-99288600D03*
X172663100Y-100558600D03*
X172663100Y-101828600D03*
X172663100Y-103098600D03*
X172663100Y-104368600D03*
X172663100Y-105638600D03*
X172663100Y-106908600D03*
X172663100Y-108178600D03*
X172663100Y-109448600D03*
X172663100Y-110718600D03*
X172663100Y-111988600D03*
X172663100Y-113258600D03*
X172663100Y-114528600D03*
X172663100Y-115798600D03*
X172663100Y-117068600D03*
D20*
X173483100Y-119578600D03*
X178383100Y-119578600D03*
X173483100Y-90428600D03*
X178383100Y-90428600D03*
%TD*%
D21*
%TO.C,R9*%
X143429100Y-94462600D03*
X144429100Y-94462600D03*
%TD*%
D16*
%TO.C,C15*%
X144429100Y-93573600D03*
X143429100Y-93573600D03*
%TD*%
D21*
%TO.C,R26*%
X143429100Y-109194600D03*
X144429100Y-109194600D03*
%TD*%
D11*
%TO.C,TP8*%
X143167100Y-117576600D03*
%TD*%
D17*
%TO.C,C86*%
X160439100Y-95597600D03*
X160439100Y-94597600D03*
%TD*%
D14*
%TO.C,S1*%
X168275100Y-117975600D03*
X168275100Y-113875600D03*
X169875100Y-117975600D03*
X169875100Y-113875600D03*
%TD*%
D22*
%TO.C,R16*%
X134912100Y-113885600D03*
X134912100Y-112885600D03*
%TD*%
D15*
%TO.C,C24*%
X147866100Y-112377600D03*
X147866100Y-113377600D03*
%TD*%
D11*
%TO.C,TP7*%
X128308100Y-106273600D03*
%TD*%
D22*
%TO.C,R28*%
X152946100Y-117314600D03*
X152946100Y-116314600D03*
%TD*%
D17*
%TO.C,C22*%
X135928100Y-113885600D03*
X135928100Y-112885600D03*
%TD*%
D23*
%TO.C,C4*%
X143429100Y-102082600D03*
X144429100Y-102082600D03*
%TD*%
D24*
%TO.C,C34*%
X149235653Y-114937047D03*
X148528547Y-115644153D03*
%TD*%
D25*
%TO.C,R61*%
X160820100Y-110193200D03*
X160820100Y-111193200D03*
%TD*%
D26*
%TO.C,U3*%
X151537100Y-110261600D03*
X151037100Y-110261600D03*
X150537100Y-110261600D03*
X150037100Y-110261600D03*
D27*
X149187100Y-111111600D03*
X149187100Y-111611600D03*
X149187100Y-112111600D03*
X149187100Y-112611600D03*
D28*
X150037100Y-113461600D03*
X150537100Y-113461600D03*
X151037100Y-113461600D03*
X151537100Y-113461600D03*
D29*
X152387100Y-112611600D03*
X152387100Y-112111600D03*
X152387100Y-111611600D03*
X152387100Y-111111600D03*
D30*
X150787100Y-111861600D03*
%TD*%
D17*
%TO.C,C14*%
X150660100Y-94708600D03*
X150660100Y-93708600D03*
%TD*%
D31*
%TO.C,LED1*%
X169583100Y-100419600D03*
X169583100Y-98919600D03*
%TD*%
D32*
%TO.C,C104*%
X133515100Y-119492600D03*
X133515100Y-117692600D03*
%TD*%
D11*
%TO.C,TP12*%
X143294100Y-92176600D03*
%TD*%
D21*
%TO.C,R17*%
X143429100Y-113893600D03*
X144429100Y-113893600D03*
%TD*%
%TO.C,R19*%
X137587100Y-116306600D03*
X138587100Y-116306600D03*
%TD*%
D23*
%TO.C,C105*%
X130983100Y-117068600D03*
X131983100Y-117068600D03*
%TD*%
D22*
%TO.C,R65*%
X158407100Y-111599600D03*
X158407100Y-110599600D03*
%TD*%
D33*
%TO.C,J4*%
X160409100Y-114749600D03*
X161059100Y-114749600D03*
X161709100Y-114749600D03*
X162359100Y-114749600D03*
X163009100Y-114749600D03*
D34*
X159209100Y-114749600D03*
X164209100Y-114749600D03*
D35*
X158209100Y-117449600D03*
D36*
X160709100Y-117449600D03*
X162709100Y-117449600D03*
D35*
X165209100Y-117449600D03*
%TD*%
D15*
%TO.C,C9*%
X140627100Y-101963600D03*
X140627100Y-102963600D03*
%TD*%
D22*
%TO.C,R24*%
X134023100Y-110837600D03*
X134023100Y-109837600D03*
%TD*%
D23*
%TO.C,C26*%
X137587100Y-115417600D03*
X138587100Y-115417600D03*
%TD*%
D16*
%TO.C,C23*%
X144429100Y-113004600D03*
X143429100Y-113004600D03*
%TD*%
D21*
%TO.C,R21*%
X135428100Y-108178600D03*
X136428100Y-108178600D03*
%TD*%
D15*
%TO.C,C30*%
X140627100Y-115679600D03*
X140627100Y-116679600D03*
%TD*%
D11*
%TO.C,TP6*%
X128308100Y-108813600D03*
%TD*%
D21*
%TO.C,R3*%
X143429100Y-100177600D03*
X144429100Y-100177600D03*
%TD*%
D15*
%TO.C,C18*%
X135928100Y-96121600D03*
X135928100Y-97121600D03*
%TD*%
D22*
%TO.C,R14*%
X152946100Y-103471600D03*
X152946100Y-102471600D03*
%TD*%
D11*
%TO.C,TP13*%
X128308100Y-111099600D03*
%TD*%
D17*
%TO.C,C28*%
X151676100Y-108424600D03*
X151676100Y-107424600D03*
%TD*%
D11*
%TO.C,TP17*%
X164122100Y-91287600D03*
%TD*%
%TO.C,TP3*%
X131864100Y-91287600D03*
%TD*%
D23*
%TO.C,C25*%
X143429100Y-115798600D03*
X144429100Y-115798600D03*
%TD*%
D11*
%TO.C,TP19*%
X146977100Y-91287600D03*
%TD*%
%TO.C,TP5*%
X143167100Y-103987600D03*
%TD*%
D21*
%TO.C,R58*%
X168575100Y-111099600D03*
X169575100Y-111099600D03*
%TD*%
D16*
%TO.C,C36*%
X144429100Y-107289600D03*
X143429100Y-107289600D03*
%TD*%
D11*
%TO.C,TP2*%
X129832100Y-91287600D03*
%TD*%
D25*
%TO.C,R60*%
X161759900Y-110193200D03*
X161759900Y-111193200D03*
%TD*%
D11*
%TO.C,TP22*%
X165773100Y-94081600D03*
%TD*%
D21*
%TO.C,R20*%
X143429100Y-114909600D03*
X144429100Y-114909600D03*
%TD*%
D16*
%TO.C,C19*%
X135666100Y-98145600D03*
X134666100Y-98145600D03*
%TD*%
D25*
%TO.C,R25*%
X135039100Y-109837600D03*
X135039100Y-110837600D03*
%TD*%
D23*
%TO.C,C10*%
X143429100Y-98272600D03*
X144429100Y-98272600D03*
%TD*%
D17*
%TO.C,C35*%
X150660100Y-108424600D03*
X150660100Y-107424600D03*
%TD*%
D37*
%TO.C,D1*%
X169826100Y-92973600D03*
D38*
X169551100Y-92213600D03*
X170101100Y-92213600D03*
%TD*%
D39*
%TO.C,TP21*%
X161074100Y-99796600D03*
%TD*%
D17*
%TO.C,C7*%
X151549100Y-94708600D03*
X151549100Y-93708600D03*
%TD*%
D24*
%TO.C,C13*%
X149235653Y-101348047D03*
X148528547Y-102055153D03*
%TD*%
D40*
%TO.C,C27*%
X149235653Y-108913153D03*
X148528547Y-108206047D03*
%TD*%
D15*
%TO.C,C16*%
X147866100Y-96629600D03*
X147866100Y-97629600D03*
%TD*%
D11*
%TO.C,TP4*%
X128308100Y-96113600D03*
%TD*%
D23*
%TO.C,C20*%
X143429100Y-97383600D03*
X144429100Y-97383600D03*
%TD*%
D21*
%TO.C,R8*%
X137714100Y-93573600D03*
X138714100Y-93573600D03*
%TD*%
D15*
%TO.C,C8*%
X139611100Y-101963600D03*
X139611100Y-102963600D03*
%TD*%
D23*
%TO.C,C31*%
X143429100Y-111988600D03*
X144429100Y-111988600D03*
%TD*%
D21*
%TO.C,R22*%
X137587100Y-107289600D03*
X138587100Y-107289600D03*
%TD*%
D22*
%TO.C,R2*%
X135039100Y-100169600D03*
X135039100Y-99169600D03*
%TD*%
D21*
%TO.C,R5*%
X137587100Y-102590600D03*
X138587100Y-102590600D03*
%TD*%
D15*
%TO.C,C3*%
X147866100Y-98661600D03*
X147866100Y-99661600D03*
%TD*%
D41*
%TO.C,LF2*%
X128016100Y-114528600D03*
X129616100Y-114528600D03*
%TD*%
D21*
%TO.C,R7*%
X135555100Y-94462600D03*
X136555100Y-94462600D03*
%TD*%
D42*
%TO.C,C88*%
X169837100Y-95340600D03*
X169837100Y-97140600D03*
%TD*%
D43*
%TO.C,X1*%
X161800100Y-95725600D03*
X161800100Y-98025600D03*
X163650100Y-98025600D03*
X163650100Y-95725600D03*
%TD*%
D25*
%TO.C,R11*%
X135039100Y-96121600D03*
X135039100Y-97121600D03*
%TD*%
%TO.C,R67*%
X127800100Y-118346600D03*
X127800100Y-119346600D03*
%TD*%
D26*
%TO.C,U1*%
X151537100Y-96545600D03*
X151037100Y-96545600D03*
X150537100Y-96545600D03*
X150037100Y-96545600D03*
D27*
X149187100Y-97395600D03*
X149187100Y-97895600D03*
X149187100Y-98395600D03*
X149187100Y-98895600D03*
D28*
X150037100Y-99745600D03*
X150537100Y-99745600D03*
X151037100Y-99745600D03*
X151537100Y-99745600D03*
D29*
X152387100Y-98895600D03*
X152387100Y-98395600D03*
X152387100Y-97895600D03*
X152387100Y-97395600D03*
D30*
X150787100Y-98145600D03*
%TD*%
D44*
%TO.C,U9*%
X166157100Y-112357600D03*
X166157100Y-111857600D03*
X166157100Y-111357600D03*
X166157100Y-110857600D03*
X163357100Y-110857600D03*
X163357100Y-111357600D03*
X163357100Y-111857600D03*
X163357100Y-112357600D03*
D45*
X164757100Y-111607600D03*
%TD*%
D15*
%TO.C,C33*%
X150914100Y-115298600D03*
X150914100Y-116298600D03*
%TD*%
D46*
%TO.C,U10*%
X165908600Y-107603600D03*
X165908600Y-107203600D03*
X165908600Y-106803600D03*
X165908600Y-106403600D03*
X165908600Y-106003600D03*
X165908600Y-105603600D03*
X165908600Y-105203600D03*
X165908600Y-104803600D03*
X165908600Y-104403600D03*
X165908600Y-104003600D03*
X165908600Y-103603600D03*
X165908600Y-103203600D03*
X165908600Y-102803600D03*
X165908600Y-102403600D03*
D47*
X165071100Y-101566100D03*
X164671100Y-101566100D03*
X164271100Y-101566100D03*
X163871100Y-101566100D03*
X163471100Y-101566100D03*
X163071100Y-101566100D03*
X162671100Y-101566100D03*
X162271100Y-101566100D03*
X161871100Y-101566100D03*
X161471100Y-101566100D03*
X161071100Y-101566100D03*
X160671100Y-101566100D03*
X160271100Y-101566100D03*
X159871100Y-101566100D03*
D48*
X159033600Y-102403600D03*
X159033600Y-102803600D03*
X159033600Y-103203600D03*
X159033600Y-103603600D03*
X159033600Y-104003600D03*
X159033600Y-104403600D03*
X159033600Y-104803600D03*
X159033600Y-105203600D03*
X159033600Y-105603600D03*
X159033600Y-106003600D03*
X159033600Y-106403600D03*
X159033600Y-106803600D03*
X159033600Y-107203600D03*
X159033600Y-107603600D03*
D49*
X159871100Y-108441100D03*
X160271100Y-108441100D03*
X160671100Y-108441100D03*
X161071100Y-108441100D03*
X161471100Y-108441100D03*
X161871100Y-108441100D03*
X162271100Y-108441100D03*
X162671100Y-108441100D03*
X163071100Y-108441100D03*
X163471100Y-108441100D03*
X163871100Y-108441100D03*
X164271100Y-108441100D03*
X164671100Y-108441100D03*
X165071100Y-108441100D03*
D50*
X162471100Y-105003600D03*
%TD*%
D17*
%TO.C,C42*%
X139611100Y-107916600D03*
X139611100Y-106916600D03*
%TD*%
D22*
%TO.C,R66*%
X128816100Y-119346600D03*
X128816100Y-118346600D03*
%TD*%
D42*
%TO.C,C109*%
X135547100Y-117438600D03*
X135547100Y-119238600D03*
%TD*%
D22*
%TO.C,R64*%
X160439100Y-97883600D03*
X160439100Y-96883600D03*
%TD*%
D37*
%TO.C,D2*%
X167026100Y-95553600D03*
D38*
X167301100Y-96313600D03*
X166751100Y-96313600D03*
%TD*%
D21*
%TO.C,R6*%
X143429100Y-101193600D03*
X144429100Y-101193600D03*
%TD*%
D15*
%TO.C,C37*%
X147866100Y-110345600D03*
X147866100Y-111345600D03*
%TD*%
D22*
%TO.C,R27*%
X151930100Y-116298600D03*
X151930100Y-115298600D03*
%TD*%
D11*
%TO.C,TP9*%
X128308100Y-101193600D03*
%TD*%
D51*
%TO.C,J3*%
X158407100Y-97510600D03*
X157137100Y-95224600D03*
X155867100Y-97510600D03*
%TD*%
D16*
%TO.C,C40*%
X135666100Y-111861600D03*
X134666100Y-111861600D03*
%TD*%
D22*
%TO.C,R13*%
X151930100Y-102455600D03*
X151930100Y-101455600D03*
%TD*%
D23*
%TO.C,C11*%
X137714100Y-94462600D03*
X138714100Y-94462600D03*
%TD*%
%TO.C,C5*%
X137587100Y-101701600D03*
X138587100Y-101701600D03*
%TD*%
%TO.C,C32*%
X137587100Y-108178600D03*
X138587100Y-108178600D03*
%TD*%
D22*
%TO.C,R10*%
X134023100Y-97121600D03*
X134023100Y-96121600D03*
%TD*%
D52*
%TO.C,U13*%
X130127100Y-118196600D03*
X130127100Y-118846600D03*
X130127100Y-119496600D03*
X132077100Y-119496600D03*
X132077100Y-118846600D03*
X132077100Y-118196600D03*
D53*
X131102100Y-118846600D03*
%TD*%
D23*
%TO.C,C41*%
X143429100Y-111099600D03*
X144429100Y-111099600D03*
%TD*%
D25*
%TO.C,R59*%
X170599100Y-101963600D03*
X170599100Y-102963600D03*
%TD*%
D21*
%TO.C,R1*%
X133015100Y-100177600D03*
X134015100Y-100177600D03*
%TD*%
%TO.C,R23*%
X143429100Y-108178600D03*
X144429100Y-108178600D03*
%TD*%
%TO.C,R12*%
X143429100Y-95478600D03*
X144429100Y-95478600D03*
%TD*%
D41*
%TO.C,LF1*%
X128016100Y-116814600D03*
X129616100Y-116814600D03*
%TD*%
D21*
%TO.C,R63*%
X168575100Y-109956600D03*
X169575100Y-109956600D03*
%TD*%
D11*
%TO.C,TP18*%
X155232100Y-91287600D03*
%TD*%
%TO.C,TP16*%
X143167100Y-105765600D03*
%TD*%
D23*
%TO.C,C17*%
X143429100Y-96367600D03*
X144429100Y-96367600D03*
%TD*%
D14*
%TO.C,C106*%
X150925100Y-119227600D03*
X149125100Y-119227600D03*
%TD*%
D15*
%TO.C,C29*%
X139611100Y-115679600D03*
X139611100Y-116679600D03*
%TD*%
D54*
%TO.C,J1*%
X121069100Y-94843600D03*
X125133100Y-94843600D03*
X121069100Y-96113600D03*
X125133100Y-96113600D03*
X121069100Y-97383600D03*
X125133100Y-97383600D03*
X121069100Y-98653600D03*
X125133100Y-98653600D03*
X121069100Y-99923600D03*
X125133100Y-99923600D03*
X121069100Y-101193600D03*
X125133100Y-101193600D03*
X121069100Y-102463600D03*
X125133100Y-102463600D03*
X121069100Y-103733600D03*
X125133100Y-103733600D03*
X121069100Y-105003600D03*
X125133100Y-105003600D03*
X121069100Y-106273600D03*
X125133100Y-106273600D03*
X121069100Y-107543600D03*
X125133100Y-107543600D03*
X121069100Y-108813600D03*
X125133100Y-108813600D03*
X121069100Y-110083600D03*
X125133100Y-110083600D03*
X121069100Y-111353600D03*
X125133100Y-111353600D03*
X121069100Y-112623600D03*
X125133100Y-112623600D03*
X121069100Y-113893600D03*
X125133100Y-113893600D03*
X121069100Y-115163600D03*
X125133100Y-115163600D03*
%TD*%
D13*
%TO.C,R18*%
X138587100Y-117322600D03*
X137587100Y-117322600D03*
%TD*%
D21*
%TO.C,R71*%
X128316100Y-115671600D03*
X129316100Y-115671600D03*
%TD*%
D15*
%TO.C,C39*%
X135928100Y-109837600D03*
X135928100Y-110837600D03*
%TD*%
D27*
%TO.C,U2*%
X137511100Y-96895600D03*
X137511100Y-97395600D03*
X137511100Y-97895600D03*
X137511100Y-98395600D03*
X137511100Y-98895600D03*
X137511100Y-99395600D03*
D28*
X138361100Y-100245600D03*
X138861100Y-100245600D03*
X139361100Y-100245600D03*
X139861100Y-100245600D03*
X140361100Y-100245600D03*
X140861100Y-100245600D03*
D29*
X141711100Y-99395600D03*
X141711100Y-98895600D03*
X141711100Y-98395600D03*
X141711100Y-97895600D03*
X141711100Y-97395600D03*
X141711100Y-96895600D03*
D26*
X140861100Y-96045600D03*
X140361100Y-96045600D03*
X139861100Y-96045600D03*
X139361100Y-96045600D03*
X138861100Y-96045600D03*
X138361100Y-96045600D03*
D55*
X139611100Y-98145600D03*
%TD*%
D11*
%TO.C,TP15*%
X128308100Y-112877600D03*
%TD*%
D17*
%TO.C,C1*%
X135928100Y-100169600D03*
X135928100Y-99169600D03*
%TD*%
D25*
%TO.C,R62*%
X169583100Y-101963600D03*
X169583100Y-102963600D03*
%TD*%
D23*
%TO.C,C38*%
X143429100Y-110083600D03*
X144429100Y-110083600D03*
%TD*%
D40*
%TO.C,C6*%
X149235653Y-95197153D03*
X148528547Y-94490047D03*
%TD*%
D21*
%TO.C,R15*%
X132888100Y-113893600D03*
X133888100Y-113893600D03*
%TD*%
D27*
%TO.C,U4*%
X137511100Y-110611600D03*
X137511100Y-111111600D03*
X137511100Y-111611600D03*
X137511100Y-112111600D03*
X137511100Y-112611600D03*
X137511100Y-113111600D03*
D28*
X138361100Y-113961600D03*
X138861100Y-113961600D03*
X139361100Y-113961600D03*
X139861100Y-113961600D03*
X140361100Y-113961600D03*
X140861100Y-113961600D03*
D29*
X141711100Y-113111600D03*
X141711100Y-112611600D03*
X141711100Y-112111600D03*
X141711100Y-111611600D03*
X141711100Y-111111600D03*
X141711100Y-110611600D03*
D26*
X140861100Y-109761600D03*
X140361100Y-109761600D03*
X139861100Y-109761600D03*
X139361100Y-109761600D03*
X138861100Y-109761600D03*
X138361100Y-109761600D03*
D55*
X139611100Y-111861600D03*
%TD*%
D15*
%TO.C,C93*%
X159423100Y-110599600D03*
X159423100Y-111599600D03*
%TD*%
D17*
%TO.C,C21*%
X139738100Y-94327600D03*
X139738100Y-93327600D03*
%TD*%
M02*
