M48
; DRILL file KiCad 10.0.5-10.0.5~ubuntu24.04.1 date 2026-08-25T13:16:48
; FORMAT={-:-/ absolute / metric / decimal}
; #@! TF.CreationDate,2026-08-25T13:16:48-04:00
; #@! TF.GenerationSoftware,Kicad,Pcbnew,10.0.5-10.0.5~ubuntu24.04.1
; #@! TF.FileFunction,Plated,1,6,PTH
FMAT,2
METRIC
; #@! TA.AperFunction,Plated,PTH,ViaDrill
T1C0.254
; #@! TA.AperFunction,Plated,PTH,ComponentDrill
T2C0.900
; #@! TA.AperFunction,Plated,PTH,ComponentDrill
T3C1.100
; #@! TA.AperFunction,Plated,PTH,ComponentDrill
T4C1.200
%
G90
G05
T1
X117.513Y-92.304
X117.513Y-98.654
X117.513Y-105.004
X117.513Y-111.354
X117.513Y-117.704
X120.561Y-89.256
X120.561Y-120.752
X121.069Y-116.18
X123.101Y-94.844
X123.101Y-96.114
X123.101Y-97.384
X123.101Y-98.654
X123.101Y-99.924
X123.101Y-101.194
X123.101Y-102.464
X123.101Y-103.734
X123.101Y-105.004
X123.101Y-106.274
X123.101Y-107.544
X123.101Y-108.814
X123.101Y-110.084
X123.101Y-111.354
X123.101Y-112.624
X123.101Y-113.894
X124.244Y-116.18
X125.006Y-116.18
X126.911Y-89.256
X126.911Y-120.752
X127.038Y-118.339
X127.165Y-94.844
X127.165Y-97.384
X127.165Y-99.924
X127.165Y-102.464
X127.165Y-105.004
X127.165Y-107.544
X127.165Y-110.084
X127.165Y-112.243
X128.816Y-117.577
X130.086Y-100.559
X130.086Y-112.878
X130.086Y-120.117
X130.34Y-111.1
X131.102Y-120.117
X131.61Y-116.307
X132.626Y-101.702
X132.626Y-119.99
X133.134Y-112.878
X133.261Y-89.256
X133.261Y-97.13
X133.261Y-99.162
X133.388Y-110.846
X133.515Y-116.815
X133.896Y-98.146
X133.896Y-111.862
X134.531Y-119.355
X135.801Y-100.94
X135.801Y-114.656
X136.309Y-107.29
X136.436Y-98.146
X136.436Y-111.862
X136.563Y-93.574
X136.563Y-117.45
X137.96Y-118.72
X137.96Y-119.482
X138.595Y-104.242
X138.595Y-105.512
X138.722Y-117.831
X138.849Y-97.384
X138.849Y-98.908
X138.849Y-111.1
X138.849Y-112.624
X139.484Y-92.558
X139.484Y-103.734
X139.484Y-106.147
X139.484Y-117.45
X139.611Y-89.256
X139.611Y-98.146
X139.611Y-111.862
X139.611Y-120.752
X140.119Y-92.177
X140.119Y-104.115
X140.119Y-106.147
X140.119Y-117.45
X140.373Y-97.384
X140.373Y-98.908
X140.373Y-111.1
X140.373Y-112.624
X140.754Y-92.558
X140.754Y-103.734
X140.754Y-106.147
X140.754Y-117.45
X141.008Y-118.466
X141.262Y-93.32
X141.262Y-102.972
X141.262Y-106.655
X141.262Y-116.688
X141.516Y-93.955
X141.643Y-107.29
X142.405Y-118.974
X142.659Y-97.384
X142.659Y-98.146
X142.659Y-98.781
X142.659Y-111.1
X142.659Y-111.862
X142.659Y-112.624
X143.04Y-118.974
X143.167Y-105.766
X143.167Y-117.577
X143.294Y-92.177
X143.929Y-104.75
X144.056Y-116.942
X145.199Y-90.526
X145.199Y-93.574
X145.199Y-96.368
X145.199Y-97.384
X145.199Y-98.4
X145.199Y-99.289
X145.199Y-102.083
X145.199Y-107.29
X145.199Y-110.084
X145.199Y-111.1
X145.199Y-111.989
X145.199Y-113.005
X145.199Y-115.799
X145.707Y-103.988
X145.961Y-89.256
X145.961Y-105.131
X145.961Y-120.752
X146.723Y-103.353
X147.866Y-108.56
X147.993Y-95.098
X147.993Y-101.575
X147.993Y-115.164
X148.12Y-118.72
X148.12Y-119.355
X148.628Y-104.75
X148.882Y-95.733
X148.882Y-109.449
X149.009Y-90.526
X149.009Y-114.275
X149.136Y-100.432
X149.771Y-90.526
X150.025Y-95.225
X150.025Y-101.067
X150.025Y-114.783
X150.152Y-109.068
X150.533Y-92.939
X150.66Y-103.226
X150.66Y-106.782
X150.787Y-98.146
X150.787Y-111.862
X150.914Y-117.069
X151.422Y-92.939
X151.422Y-103.226
X151.422Y-106.655
X151.93Y-118.847
X152.184Y-95.86
X152.184Y-109.703
X152.311Y-89.256
X152.311Y-100.305
X152.311Y-114.021
X152.946Y-104.242
X152.946Y-115.291
X152.946Y-118.085
X153.454Y-94.717
X153.454Y-108.433
X153.835Y-93.828
X153.835Y-101.448
X153.835Y-107.544
X153.835Y-120.752
X154.343Y-100.813
X154.978Y-97.257
X155.105Y-105.004
X155.232Y-93.066
X155.867Y-105.131
X155.994Y-105.893
X156.248Y-95.225
X156.248Y-104.623
X156.883Y-97.257
X156.883Y-104.242
X157.137Y-110.084
X157.391Y-100.813
X157.391Y-105.512
X157.391Y-107.798
X157.645Y-91.161
X158.026Y-95.225
X158.026Y-103.988
X158.026Y-107.671
X158.407Y-112.37
X158.661Y-89.256
X159.042Y-91.161
X159.423Y-98.019
X159.423Y-112.37
X159.677Y-113.132
X159.931Y-92.05
X159.931Y-92.812
X159.931Y-109.703
X160.566Y-109.449
X160.947Y-92.05
X160.947Y-92.812
X161.201Y-94.59
X161.455Y-103.988
X161.455Y-106.02
X161.709Y-100.559
X161.963Y-109.449
X162.344Y-100.559
X162.471Y-105.004
X162.522Y-112.37
X162.598Y-109.576
X162.725Y-96.749
X162.979Y-91.161
X163.233Y-94.082
X163.487Y-103.988
X163.487Y-106.02
X163.487Y-107.544
X163.614Y-99.289
X163.995Y-94.082
X164.122Y-92.431
X164.122Y-93.193
X164.376Y-99.924
X164.503Y-100.559
X164.63Y-98.654
X165.011Y-89.256
X165.011Y-95.86
X165.265Y-91.161
X165.265Y-110.465
X166.408Y-91.161
X166.535Y-113.64
X166.916Y-107.671
X166.916Y-108.433
X167.043Y-102.591
X167.043Y-103.861
X167.17Y-114.148
X167.297Y-92.05
X167.297Y-92.812
X167.551Y-114.91
X167.678Y-102.845
X168.186Y-103.353
X168.313Y-92.05
X168.313Y-92.812
X168.313Y-99.797
X168.313Y-117.069
X168.567Y-95.352
X168.567Y-96.622
X168.567Y-98.146
X168.567Y-99.162
X168.567Y-100.432
X168.567Y-101.702
X168.694Y-103.861
X168.694Y-108.814
X169.329Y-120.752
X169.456Y-109.068
X169.837Y-94.082
X170.345Y-111.1
X170.599Y-94.082
X170.853Y-91.161
X170.853Y-112.624
X171.361Y-89.256
X171.361Y-102.972
X171.742Y-117.069
X171.869Y-94.209
X171.869Y-96.749
X171.869Y-98.019
X171.869Y-99.289
X171.869Y-100.559
X171.869Y-101.829
X171.869Y-111.989
X171.869Y-114.529
X171.869Y-115.799
X174.79Y-94.209
X174.79Y-96.749
X174.79Y-98.019
X174.79Y-99.289
X174.79Y-100.559
X174.79Y-101.829
X174.79Y-103.099
X174.79Y-104.369
X174.79Y-105.639
X174.79Y-106.909
X174.79Y-108.179
X174.79Y-109.449
X174.79Y-110.719
X174.79Y-111.989
X174.79Y-113.259
X174.79Y-115.799
X174.79Y-117.069
X178.727Y-89.256
X178.727Y-120.752
X179.489Y-92.304
X179.489Y-98.654
X179.489Y-105.004
X179.489Y-111.354
X179.489Y-117.704
T2
X159.209Y-114.75
X164.209Y-114.75
T3
X155.486Y-114.529
T4
X158.209Y-117.45
X165.209Y-117.45
M30
