%TF.GenerationSoftware,KiCad,Pcbnew,10.0.5-10.0.5~ubuntu24.04.1*%
%TF.CreationDate,2026-08-25T13:16:28-04:00*%
%TF.ProjectId,NN22_RPi_DetAdapter03_s00,4e4e3232-5f52-4506-995f-446574416461,rev?*%
%TF.SameCoordinates,Original*%
%TF.FileFunction,Paste,Bot*%
%TF.FilePolarity,Positive*%
%FSLAX46Y46*%
G04 Gerber Fmt 4.6, Leading zero omitted, Abs format (unit mm)*
G04 Created by KiCad (PCBNEW 10.0.5-10.0.5~ubuntu24.04.1) date 2026-08-25 13:16:28*
%MOMM*%
%LPD*%
G01*
G04 APERTURE LIST*
G04 Aperture macros list*
%AMRotRect*
0 Rectangle, with rotation*
0 The origin of the aperture is its center*
0 $1 length*
0 $2 width*
0 $3 Rotation angle, in degrees counterclockwise*
0 Add horizontal line*
21,1,$1,$2,0,0,$3*%
G04 Aperture macros list end*
%ADD10C,0.000000*%
%ADD11R,0.250000X1.000000*%
%ADD12R,1.000000X0.250000*%
%ADD13R,0.600000X0.500000*%
%ADD14R,0.500000X0.600000*%
%ADD15R,0.600000X0.600000*%
%ADD16R,0.750000X0.300000*%
%ADD17RotRect,0.600000X0.500000X135.000000*%
%ADD18RotRect,0.600000X0.500000X225.000000*%
%ADD19R,0.450000X0.300000*%
G04 APERTURE END LIST*
D10*
%TO.C,U7*%
G36*
X151187100Y-112261600D02*
G01*
X150387100Y-112261600D01*
X150387100Y-111461600D01*
X151187100Y-111461600D01*
X151187100Y-112261600D01*
G37*
%TO.C,U12*%
G36*
X161139100Y-92930600D02*
G01*
X159739100Y-92930600D01*
X159739100Y-91930600D01*
X161139100Y-91930600D01*
X161139100Y-92930600D01*
G37*
%TO.C,U5*%
G36*
X151187100Y-98545600D02*
G01*
X150387100Y-98545600D01*
X150387100Y-97745600D01*
X151187100Y-97745600D01*
X151187100Y-98545600D01*
G37*
%TO.C,U14*%
G36*
X146794100Y-119496600D02*
G01*
X146144100Y-119496600D01*
X146144100Y-118196600D01*
X146794100Y-118196600D01*
X146794100Y-119496600D01*
G37*
%TO.C,U11*%
G36*
X168505100Y-92930600D02*
G01*
X167105100Y-92930600D01*
X167105100Y-91930600D01*
X168505100Y-91930600D01*
X168505100Y-92930600D01*
G37*
%TO.C,U15*%
G36*
X136634100Y-119496600D02*
G01*
X135984100Y-119496600D01*
X135984100Y-118196600D01*
X136634100Y-118196600D01*
X136634100Y-119496600D01*
G37*
%TO.C,U6*%
G36*
X140611100Y-99145600D02*
G01*
X138611100Y-99145600D01*
X138611100Y-97145600D01*
X140611100Y-97145600D01*
X140611100Y-99145600D01*
G37*
%TO.C,U8*%
G36*
X140611100Y-112861600D02*
G01*
X138611100Y-112861600D01*
X138611100Y-110861600D01*
X140611100Y-110861600D01*
X140611100Y-112861600D01*
G37*
%TD*%
D11*
%TO.C,U7*%
X151537100Y-113461600D03*
X151037100Y-113461600D03*
X150537100Y-113461600D03*
X150037100Y-113461600D03*
D12*
X149187100Y-112611600D03*
X149187100Y-112111600D03*
X149187100Y-111611600D03*
X149187100Y-111111600D03*
D11*
X150037100Y-110261600D03*
X150537100Y-110261600D03*
X151037100Y-110261600D03*
X151537100Y-110261600D03*
D12*
X152387100Y-111111600D03*
X152387100Y-111611600D03*
X152387100Y-112111600D03*
X152387100Y-112611600D03*
%TD*%
D13*
%TO.C,C113*%
X165638100Y-105130600D03*
X164638100Y-105130600D03*
%TD*%
D14*
%TO.C,C81*%
X135928100Y-113885600D03*
X135928100Y-112885600D03*
%TD*%
D13*
%TO.C,C68*%
X137587100Y-108178600D03*
X138587100Y-108178600D03*
%TD*%
D15*
%TO.C,R69*%
X133507100Y-118338600D03*
X132507100Y-118338600D03*
%TD*%
D14*
%TO.C,C84*%
X139611100Y-115679600D03*
X139611100Y-116679600D03*
%TD*%
D15*
%TO.C,R45*%
X143429100Y-109194600D03*
X144429100Y-109194600D03*
%TD*%
%TO.C,R53*%
X134912100Y-113885600D03*
X134912100Y-112885600D03*
%TD*%
D14*
%TO.C,C56*%
X150660100Y-101455600D03*
X150660100Y-102455600D03*
%TD*%
D16*
%TO.C,U12*%
X158989100Y-93180600D03*
X158989100Y-92680600D03*
X158989100Y-92180600D03*
X158989100Y-91680600D03*
X161889100Y-91680600D03*
X161889100Y-92180600D03*
X161889100Y-92680600D03*
X161889100Y-93180600D03*
%TD*%
D15*
%TO.C,R42*%
X152692100Y-94708600D03*
X152692100Y-93708600D03*
%TD*%
%TO.C,R49*%
X135555100Y-115417600D03*
X136555100Y-115417600D03*
%TD*%
D11*
%TO.C,U5*%
X151537100Y-99745600D03*
X151037100Y-99745600D03*
X150537100Y-99745600D03*
X150037100Y-99745600D03*
D12*
X149187100Y-98895600D03*
X149187100Y-98395600D03*
X149187100Y-97895600D03*
X149187100Y-97395600D03*
D11*
X150037100Y-96545600D03*
X150537100Y-96545600D03*
X151037100Y-96545600D03*
X151537100Y-96545600D03*
D12*
X152387100Y-97395600D03*
X152387100Y-97895600D03*
X152387100Y-98395600D03*
X152387100Y-98895600D03*
%TD*%
D15*
%TO.C,R33*%
X137587100Y-93573600D03*
X138587100Y-93573600D03*
%TD*%
D17*
%TO.C,C76*%
X149235653Y-108913153D03*
X148528547Y-108206047D03*
%TD*%
D14*
%TO.C,C102*%
X166154100Y-107551600D03*
X166154100Y-108551600D03*
%TD*%
%TO.C,C96*%
X161582100Y-101836600D03*
X161582100Y-102836600D03*
%TD*%
%TO.C,C92*%
X159550100Y-110599600D03*
X159550100Y-111599600D03*
%TD*%
D18*
%TO.C,C48*%
X149235653Y-101348047D03*
X148528547Y-102055153D03*
%TD*%
D15*
%TO.C,R36*%
X137587100Y-102590600D03*
X138587100Y-102590600D03*
%TD*%
D14*
%TO.C,C94*%
X163233100Y-92930600D03*
X163233100Y-91930600D03*
%TD*%
D15*
%TO.C,R37*%
X143429100Y-101320600D03*
X144429100Y-101320600D03*
%TD*%
D14*
%TO.C,C90*%
X165011100Y-92930600D03*
X165011100Y-91930600D03*
%TD*%
%TO.C,C103*%
X158026100Y-108567600D03*
X158026100Y-109567600D03*
%TD*%
D15*
%TO.C,R47*%
X137587100Y-107289600D03*
X138587100Y-107289600D03*
%TD*%
D14*
%TO.C,C89*%
X170599100Y-92930600D03*
X170599100Y-91930600D03*
%TD*%
D15*
%TO.C,R56*%
X152692100Y-108424600D03*
X152692100Y-107424600D03*
%TD*%
%TO.C,R50*%
X137587100Y-116306600D03*
X138587100Y-116306600D03*
%TD*%
%TO.C,R41*%
X151676100Y-93708600D03*
X151676100Y-94708600D03*
%TD*%
D13*
%TO.C,C46*%
X143429100Y-93573600D03*
X144429100Y-93573600D03*
%TD*%
D19*
%TO.C,U14*%
X145494100Y-119496600D03*
X145494100Y-118846600D03*
X145494100Y-118196600D03*
X147444100Y-118196600D03*
X147444100Y-118846600D03*
X147444100Y-119496600D03*
%TD*%
D14*
%TO.C,C77*%
X150660100Y-115298600D03*
X150660100Y-116298600D03*
%TD*%
D15*
%TO.C,R52*%
X133896100Y-112885600D03*
X133896100Y-113885600D03*
%TD*%
D13*
%TO.C,C73*%
X143429100Y-111099600D03*
X144429100Y-111099600D03*
%TD*%
%TO.C,C52*%
X143429100Y-97637600D03*
X144429100Y-97637600D03*
%TD*%
D14*
%TO.C,C95*%
X157645100Y-92930600D03*
X157645100Y-91930600D03*
%TD*%
D13*
%TO.C,C59*%
X143429100Y-99415600D03*
X144429100Y-99415600D03*
%TD*%
D14*
%TO.C,C71*%
X139611100Y-107916600D03*
X139611100Y-106916600D03*
%TD*%
D13*
%TO.C,C53*%
X137587100Y-101701600D03*
X138587100Y-101701600D03*
%TD*%
D15*
%TO.C,R38*%
X134023100Y-99169600D03*
X134023100Y-100169600D03*
%TD*%
D13*
%TO.C,C57*%
X144429100Y-102209600D03*
X143429100Y-102209600D03*
%TD*%
D15*
%TO.C,R48*%
X143429100Y-108178600D03*
X144429100Y-108178600D03*
%TD*%
%TO.C,R35*%
X135555100Y-101701600D03*
X136555100Y-101701600D03*
%TD*%
%TO.C,R39*%
X135039100Y-100169600D03*
X135039100Y-99169600D03*
%TD*%
D13*
%TO.C,C47*%
X137587100Y-94462600D03*
X138587100Y-94462600D03*
%TD*%
D14*
%TO.C,C98*%
X161709100Y-108297600D03*
X161709100Y-107297600D03*
%TD*%
%TO.C,C49*%
X151549100Y-101455600D03*
X151549100Y-102455600D03*
%TD*%
%TO.C,C100*%
X162598100Y-101836600D03*
X162598100Y-102836600D03*
%TD*%
D13*
%TO.C,C61*%
X135666100Y-98145600D03*
X134666100Y-98145600D03*
%TD*%
D14*
%TO.C,C60*%
X135928100Y-100169600D03*
X135928100Y-99169600D03*
%TD*%
D13*
%TO.C,C78*%
X144429100Y-115798600D03*
X143429100Y-115798600D03*
%TD*%
%TO.C,C65*%
X144429100Y-110083600D03*
X143429100Y-110083600D03*
%TD*%
D15*
%TO.C,R54*%
X143429100Y-113893600D03*
X144429100Y-113893600D03*
%TD*%
D13*
%TO.C,C82*%
X135666100Y-111861600D03*
X134666100Y-111861600D03*
%TD*%
D14*
%TO.C,C72*%
X140627100Y-107916600D03*
X140627100Y-106916600D03*
%TD*%
D13*
%TO.C,C110*%
X132507100Y-119354600D03*
X133507100Y-119354600D03*
%TD*%
D14*
%TO.C,C66*%
X147866100Y-111345600D03*
X147866100Y-110345600D03*
%TD*%
D13*
%TO.C,C85*%
X163368100Y-111607600D03*
X164368100Y-111607600D03*
%TD*%
%TO.C,C111*%
X146731100Y-104114600D03*
X147731100Y-104114600D03*
%TD*%
D15*
%TO.C,R34*%
X143429100Y-94462600D03*
X144429100Y-94462600D03*
%TD*%
%TO.C,R70*%
X131475100Y-119354600D03*
X130475100Y-119354600D03*
%TD*%
D14*
%TO.C,C50*%
X139611100Y-94327600D03*
X139611100Y-93327600D03*
%TD*%
D17*
%TO.C,C55*%
X149235653Y-95197153D03*
X148528547Y-94490047D03*
%TD*%
D15*
%TO.C,R46*%
X138587100Y-106273600D03*
X137587100Y-106273600D03*
%TD*%
D16*
%TO.C,U11*%
X166355100Y-93180600D03*
X166355100Y-92680600D03*
X166355100Y-92180600D03*
X166355100Y-91680600D03*
X169255100Y-91680600D03*
X169255100Y-92180600D03*
X169255100Y-92680600D03*
X169255100Y-93180600D03*
%TD*%
D15*
%TO.C,R43*%
X133015100Y-109829600D03*
X134015100Y-109829600D03*
%TD*%
D19*
%TO.C,U15*%
X135334100Y-119496600D03*
X135334100Y-118846600D03*
X135334100Y-118196600D03*
X137284100Y-118196600D03*
X137284100Y-118846600D03*
X137284100Y-119496600D03*
%TD*%
D15*
%TO.C,R32*%
X138587100Y-92557600D03*
X137587100Y-92557600D03*
%TD*%
D13*
%TO.C,C62*%
X143429100Y-98526600D03*
X144429100Y-98526600D03*
%TD*%
D15*
%TO.C,R40*%
X143429100Y-100304600D03*
X144429100Y-100304600D03*
%TD*%
%TO.C,R29*%
X133015100Y-96113600D03*
X134015100Y-96113600D03*
%TD*%
D12*
%TO.C,U6*%
X137511100Y-99395600D03*
X137511100Y-98895600D03*
X137511100Y-98395600D03*
X137511100Y-97895600D03*
X137511100Y-97395600D03*
X137511100Y-96895600D03*
D11*
X138361100Y-96045600D03*
X138861100Y-96045600D03*
X139361100Y-96045600D03*
X139861100Y-96045600D03*
X140361100Y-96045600D03*
X140861100Y-96045600D03*
D12*
X141711100Y-96895600D03*
X141711100Y-97395600D03*
X141711100Y-97895600D03*
X141711100Y-98395600D03*
X141711100Y-98895600D03*
X141711100Y-99395600D03*
D11*
X140861100Y-100245600D03*
X140361100Y-100245600D03*
X139861100Y-100245600D03*
X139361100Y-100245600D03*
X138861100Y-100245600D03*
X138361100Y-100245600D03*
%TD*%
D14*
%TO.C,C58*%
X147866100Y-99661600D03*
X147866100Y-98661600D03*
%TD*%
%TO.C,C64*%
X135928100Y-109837600D03*
X135928100Y-110837600D03*
%TD*%
D15*
%TO.C,R30*%
X135039100Y-96121600D03*
X135039100Y-97121600D03*
%TD*%
D18*
%TO.C,C69*%
X149235653Y-114937047D03*
X148528547Y-115644153D03*
%TD*%
D14*
%TO.C,C45*%
X147866100Y-97629600D03*
X147866100Y-96629600D03*
%TD*%
D13*
%TO.C,C112*%
X147731100Y-105130600D03*
X146731100Y-105130600D03*
%TD*%
%TO.C,C67*%
X143429100Y-107289600D03*
X144429100Y-107289600D03*
%TD*%
D14*
%TO.C,C43*%
X135928100Y-96121600D03*
X135928100Y-97121600D03*
%TD*%
%TO.C,C79*%
X147866100Y-113377600D03*
X147866100Y-112377600D03*
%TD*%
D15*
%TO.C,R68*%
X131475100Y-118338600D03*
X130475100Y-118338600D03*
%TD*%
D14*
%TO.C,C70*%
X151549100Y-115298600D03*
X151549100Y-116298600D03*
%TD*%
D13*
%TO.C,C74*%
X137587100Y-115417600D03*
X138587100Y-115417600D03*
%TD*%
D14*
%TO.C,C97*%
X162725100Y-108297600D03*
X162725100Y-107297600D03*
%TD*%
D12*
%TO.C,U8*%
X137511100Y-113111600D03*
X137511100Y-112611600D03*
X137511100Y-112111600D03*
X137511100Y-111611600D03*
X137511100Y-111111600D03*
X137511100Y-110611600D03*
D11*
X138361100Y-109761600D03*
X138861100Y-109761600D03*
X139361100Y-109761600D03*
X139861100Y-109761600D03*
X140361100Y-109761600D03*
X140861100Y-109761600D03*
D12*
X141711100Y-110611600D03*
X141711100Y-111111600D03*
X141711100Y-111611600D03*
X141711100Y-112111600D03*
X141711100Y-112611600D03*
X141711100Y-113111600D03*
D11*
X140861100Y-113961600D03*
X140361100Y-113961600D03*
X139861100Y-113961600D03*
X139361100Y-113961600D03*
X138861100Y-113961600D03*
X138361100Y-113961600D03*
%TD*%
D15*
%TO.C,R55*%
X151676100Y-107424600D03*
X151676100Y-108424600D03*
%TD*%
D13*
%TO.C,C99*%
X165638100Y-103987600D03*
X164638100Y-103987600D03*
%TD*%
D14*
%TO.C,C63*%
X139611100Y-101963600D03*
X139611100Y-102963600D03*
%TD*%
%TO.C,C107*%
X144056100Y-118346600D03*
X144056100Y-119346600D03*
%TD*%
D13*
%TO.C,C80*%
X143429100Y-113004600D03*
X144429100Y-113004600D03*
%TD*%
D14*
%TO.C,C75*%
X150660100Y-108424600D03*
X150660100Y-107424600D03*
%TD*%
%TO.C,C51*%
X140627100Y-94327600D03*
X140627100Y-93327600D03*
%TD*%
%TO.C,C54*%
X150660100Y-94708600D03*
X150660100Y-93708600D03*
%TD*%
D13*
%TO.C,C44*%
X144429100Y-96367600D03*
X143429100Y-96367600D03*
%TD*%
%TO.C,C101*%
X159050100Y-103987600D03*
X160050100Y-103987600D03*
%TD*%
D15*
%TO.C,R51*%
X143429100Y-114909600D03*
X144429100Y-114909600D03*
%TD*%
%TO.C,R31*%
X143429100Y-95478600D03*
X144429100Y-95478600D03*
%TD*%
D13*
%TO.C,C83*%
X143429100Y-112115600D03*
X144429100Y-112115600D03*
%TD*%
D14*
%TO.C,C91*%
X160693100Y-108297600D03*
X160693100Y-107297600D03*
%TD*%
D15*
%TO.C,R44*%
X135039100Y-109837600D03*
X135039100Y-110837600D03*
%TD*%
M02*
