%TF.GenerationSoftware,KiCad,Pcbnew,10.0.5-10.0.5~ubuntu24.04.1*%
%TF.CreationDate,2026-08-25T13:16:28-04:00*%
%TF.ProjectId,NN22_RPi_DetAdapter03_s00,4e4e3232-5f52-4506-995f-446574416461,rev?*%
%TF.SameCoordinates,Original*%
%TF.FileFunction,Soldermask,Bot*%
%TF.FilePolarity,Negative*%
%FSLAX46Y46*%
G04 Gerber Fmt 4.6, Leading zero omitted, Abs format (unit mm)*
G04 Created by KiCad (PCBNEW 10.0.5-10.0.5~ubuntu24.04.1) date 2026-08-25 13:16:28*
%MOMM*%
%LPD*%
G01*
G04 APERTURE LIST*
G04 Aperture macros list*
%AMRoundRect*
0 Rectangle with rounded corners*
0 $1 Rounding radius*
0 $2 $3 $4 $5 $6 $7 $8 $9 X,Y pos of 4 corners*
0 Add a 4 corners polygon primitive as box body*
4,1,4,$2,$3,$4,$5,$6,$7,$8,$9,$2,$3,0*
0 Add four circle primitives for the rounded corners*
1,1,$1+$1,$2,$3*
1,1,$1+$1,$4,$5*
1,1,$1+$1,$6,$7*
1,1,$1+$1,$8,$9*
0 Add four rect primitives between the rounded corners*
20,1,$1+$1,$2,$3,$4,$5,0*
20,1,$1+$1,$4,$5,$6,$7,0*
20,1,$1+$1,$6,$7,$8,$9,0*
20,1,$1+$1,$8,$9,$2,$3,0*%
G04 Aperture macros list end*
%ADD10C,0.762000*%
%ADD11C,1.955800*%
%ADD12C,1.600000*%
%ADD13C,1.426200*%
%ADD14C,1.876200*%
%ADD15RoundRect,0.038100X0.125000X-0.500000X0.125000X0.500000X-0.125000X0.500000X-0.125000X-0.500000X0*%
%ADD16RoundRect,0.038100X-0.500000X-0.125000X0.500000X-0.125000X0.500000X0.125000X-0.500000X0.125000X0*%
%ADD17RoundRect,0.038100X-0.125000X0.500000X-0.125000X-0.500000X0.125000X-0.500000X0.125000X0.500000X0*%
%ADD18RoundRect,0.038100X0.500000X0.125000X-0.500000X0.125000X-0.500000X-0.125000X0.500000X-0.125000X0*%
%ADD19RoundRect,0.038100X0.550000X-0.550000X0.550000X0.550000X-0.550000X0.550000X-0.550000X-0.550000X0*%
%ADD20RoundRect,0.038100X0.300000X0.250000X-0.300000X0.250000X-0.300000X-0.250000X0.300000X-0.250000X0*%
%ADD21RoundRect,0.038100X0.250000X-0.300000X0.250000X0.300000X-0.250000X0.300000X-0.250000X-0.300000X0*%
%ADD22RoundRect,0.038100X-0.300000X-0.250000X0.300000X-0.250000X0.300000X0.250000X-0.300000X0.250000X0*%
%ADD23RoundRect,0.038100X0.300000X0.300000X-0.300000X0.300000X-0.300000X-0.300000X0.300000X-0.300000X0*%
%ADD24RoundRect,0.038100X-0.250000X0.300000X-0.250000X-0.300000X0.250000X-0.300000X0.250000X0.300000X0*%
%ADD25RoundRect,0.038100X-0.300000X-0.300000X0.300000X-0.300000X0.300000X0.300000X-0.300000X0.300000X0*%
%ADD26RoundRect,0.038100X0.300000X-0.300000X0.300000X0.300000X-0.300000X0.300000X-0.300000X-0.300000X0*%
%ADD27RoundRect,0.038100X-0.375000X-0.150000X0.375000X-0.150000X0.375000X0.150000X-0.375000X0.150000X0*%
%ADD28RoundRect,0.038100X-0.875000X-0.725000X0.875000X-0.725000X0.875000X0.725000X-0.875000X0.725000X0*%
%ADD29RoundRect,0.038100X0.388909X-0.035355X-0.035355X0.388909X-0.388909X0.035355X0.035355X-0.388909X0*%
%ADD30RoundRect,0.038100X0.035355X0.388909X-0.388909X-0.035355X-0.035355X-0.388909X0.388909X0.035355X0*%
%ADD31RoundRect,0.038100X-0.300000X0.300000X-0.300000X-0.300000X0.300000X-0.300000X0.300000X0.300000X0*%
%ADD32RoundRect,0.038100X-0.225000X-0.150000X0.225000X-0.150000X0.225000X0.150000X-0.225000X0.150000X0*%
%ADD33RoundRect,0.038100X-0.500000X-0.800000X0.500000X-0.800000X0.500000X0.800000X-0.500000X0.800000X0*%
%ADD34RoundRect,0.038100X1.104900X0.381000X-1.104900X0.381000X-1.104900X-0.381000X1.104900X-0.381000X0*%
%ADD35RoundRect,0.038100X-1.275000X-1.275000X1.275000X-1.275000X1.275000X1.275000X-1.275000X1.275000X0*%
G04 APERTURE END LIST*
%TO.C,FID5*%
D10*
X119164100Y-119481600D02*
G75*
G02*
X118402100Y-119481600I-381000J0D01*
G01*
X118402100Y-119481600D02*
G75*
G02*
X119164100Y-119481600I381000J0D01*
G01*
%TO.C,FID6*%
X178854100Y-90525600D02*
G75*
G02*
X178092100Y-90525600I-381000J0D01*
G01*
X178092100Y-90525600D02*
G75*
G02*
X178854100Y-90525600I381000J0D01*
G01*
%TO.C,FID4*%
X119164100Y-90525600D02*
G75*
G02*
X118402100Y-90525600I-381000J0D01*
G01*
X118402100Y-90525600D02*
G75*
G02*
X119164100Y-90525600I381000J0D01*
G01*
%TD*%
D11*
%TO.C,TP20*%
X155486100Y-114528600D03*
%TD*%
D12*
%TO.C,J5*%
X175933100Y-119278600D03*
X175933100Y-90728600D03*
%TD*%
D13*
%TO.C,J4*%
X159209100Y-114749600D03*
X164209100Y-114749600D03*
D14*
X158209100Y-117449600D03*
X165209100Y-117449600D03*
%TD*%
D15*
%TO.C,U7*%
X151537100Y-113461600D03*
X151037100Y-113461600D03*
X150537100Y-113461600D03*
X150037100Y-113461600D03*
D16*
X149187100Y-112611600D03*
X149187100Y-112111600D03*
X149187100Y-111611600D03*
X149187100Y-111111600D03*
D17*
X150037100Y-110261600D03*
X150537100Y-110261600D03*
X151037100Y-110261600D03*
X151537100Y-110261600D03*
D18*
X152387100Y-111111600D03*
X152387100Y-111611600D03*
X152387100Y-112111600D03*
X152387100Y-112611600D03*
D19*
X150787100Y-111861600D03*
%TD*%
D20*
%TO.C,C113*%
X165638100Y-105130600D03*
X164638100Y-105130600D03*
%TD*%
D21*
%TO.C,C81*%
X135928100Y-113885600D03*
X135928100Y-112885600D03*
%TD*%
D22*
%TO.C,C68*%
X137587100Y-108178600D03*
X138587100Y-108178600D03*
%TD*%
D23*
%TO.C,R69*%
X133507100Y-118338600D03*
X132507100Y-118338600D03*
%TD*%
D24*
%TO.C,C84*%
X139611100Y-115679600D03*
X139611100Y-116679600D03*
%TD*%
D25*
%TO.C,R45*%
X143429100Y-109194600D03*
X144429100Y-109194600D03*
%TD*%
D26*
%TO.C,R53*%
X134912100Y-113885600D03*
X134912100Y-112885600D03*
%TD*%
D24*
%TO.C,C56*%
X150660100Y-101455600D03*
X150660100Y-102455600D03*
%TD*%
D27*
%TO.C,U12*%
X158989100Y-93180600D03*
X158989100Y-92680600D03*
X158989100Y-92180600D03*
X158989100Y-91680600D03*
X161889100Y-91680600D03*
X161889100Y-92180600D03*
X161889100Y-92680600D03*
X161889100Y-93180600D03*
D28*
X160439100Y-92430600D03*
%TD*%
D26*
%TO.C,R42*%
X152692100Y-94708600D03*
X152692100Y-93708600D03*
%TD*%
D25*
%TO.C,R49*%
X135555100Y-115417600D03*
X136555100Y-115417600D03*
%TD*%
D15*
%TO.C,U5*%
X151537100Y-99745600D03*
X151037100Y-99745600D03*
X150537100Y-99745600D03*
X150037100Y-99745600D03*
D16*
X149187100Y-98895600D03*
X149187100Y-98395600D03*
X149187100Y-97895600D03*
X149187100Y-97395600D03*
D17*
X150037100Y-96545600D03*
X150537100Y-96545600D03*
X151037100Y-96545600D03*
X151537100Y-96545600D03*
D18*
X152387100Y-97395600D03*
X152387100Y-97895600D03*
X152387100Y-98395600D03*
X152387100Y-98895600D03*
D19*
X150787100Y-98145600D03*
%TD*%
D25*
%TO.C,R33*%
X137587100Y-93573600D03*
X138587100Y-93573600D03*
%TD*%
D29*
%TO.C,C76*%
X149235653Y-108913153D03*
X148528547Y-108206047D03*
%TD*%
D24*
%TO.C,C102*%
X166154100Y-107551600D03*
X166154100Y-108551600D03*
%TD*%
%TO.C,C96*%
X161582100Y-101836600D03*
X161582100Y-102836600D03*
%TD*%
%TO.C,C92*%
X159550100Y-110599600D03*
X159550100Y-111599600D03*
%TD*%
D30*
%TO.C,C48*%
X149235653Y-101348047D03*
X148528547Y-102055153D03*
%TD*%
D25*
%TO.C,R36*%
X137587100Y-102590600D03*
X138587100Y-102590600D03*
%TD*%
D21*
%TO.C,C94*%
X163233100Y-92930600D03*
X163233100Y-91930600D03*
%TD*%
D25*
%TO.C,R37*%
X143429100Y-101320600D03*
X144429100Y-101320600D03*
%TD*%
D21*
%TO.C,C90*%
X165011100Y-92930600D03*
X165011100Y-91930600D03*
%TD*%
D24*
%TO.C,C103*%
X158026100Y-108567600D03*
X158026100Y-109567600D03*
%TD*%
D25*
%TO.C,R47*%
X137587100Y-107289600D03*
X138587100Y-107289600D03*
%TD*%
D21*
%TO.C,C89*%
X170599100Y-92930600D03*
X170599100Y-91930600D03*
%TD*%
D26*
%TO.C,R56*%
X152692100Y-108424600D03*
X152692100Y-107424600D03*
%TD*%
D25*
%TO.C,R50*%
X137587100Y-116306600D03*
X138587100Y-116306600D03*
%TD*%
D31*
%TO.C,R41*%
X151676100Y-93708600D03*
X151676100Y-94708600D03*
%TD*%
D22*
%TO.C,C46*%
X143429100Y-93573600D03*
X144429100Y-93573600D03*
%TD*%
D32*
%TO.C,U14*%
X145494100Y-119496600D03*
X145494100Y-118846600D03*
X145494100Y-118196600D03*
X147444100Y-118196600D03*
X147444100Y-118846600D03*
X147444100Y-119496600D03*
D33*
X146469100Y-118846600D03*
%TD*%
D24*
%TO.C,C77*%
X150660100Y-115298600D03*
X150660100Y-116298600D03*
%TD*%
D31*
%TO.C,R52*%
X133896100Y-112885600D03*
X133896100Y-113885600D03*
%TD*%
D22*
%TO.C,C73*%
X143429100Y-111099600D03*
X144429100Y-111099600D03*
%TD*%
%TO.C,C52*%
X143429100Y-97637600D03*
X144429100Y-97637600D03*
%TD*%
D21*
%TO.C,C95*%
X157645100Y-92930600D03*
X157645100Y-91930600D03*
%TD*%
D22*
%TO.C,C59*%
X143429100Y-99415600D03*
X144429100Y-99415600D03*
%TD*%
D21*
%TO.C,C71*%
X139611100Y-107916600D03*
X139611100Y-106916600D03*
%TD*%
D22*
%TO.C,C53*%
X137587100Y-101701600D03*
X138587100Y-101701600D03*
%TD*%
D31*
%TO.C,R38*%
X134023100Y-99169600D03*
X134023100Y-100169600D03*
%TD*%
D20*
%TO.C,C57*%
X144429100Y-102209600D03*
X143429100Y-102209600D03*
%TD*%
D25*
%TO.C,R48*%
X143429100Y-108178600D03*
X144429100Y-108178600D03*
%TD*%
%TO.C,R35*%
X135555100Y-101701600D03*
X136555100Y-101701600D03*
%TD*%
D26*
%TO.C,R39*%
X135039100Y-100169600D03*
X135039100Y-99169600D03*
%TD*%
D22*
%TO.C,C47*%
X137587100Y-94462600D03*
X138587100Y-94462600D03*
%TD*%
D21*
%TO.C,C98*%
X161709100Y-108297600D03*
X161709100Y-107297600D03*
%TD*%
D24*
%TO.C,C49*%
X151549100Y-101455600D03*
X151549100Y-102455600D03*
%TD*%
%TO.C,C100*%
X162598100Y-101836600D03*
X162598100Y-102836600D03*
%TD*%
D20*
%TO.C,C61*%
X135666100Y-98145600D03*
X134666100Y-98145600D03*
%TD*%
D21*
%TO.C,C60*%
X135928100Y-100169600D03*
X135928100Y-99169600D03*
%TD*%
D34*
%TO.C,J2*%
X170281600Y-96621600D03*
X166598600Y-96621600D03*
X170281600Y-97891600D03*
X166598600Y-97891600D03*
X170281600Y-99161600D03*
X166598600Y-99161600D03*
X170281600Y-100431600D03*
X166598600Y-100431600D03*
X170281600Y-101701600D03*
X166598600Y-101701600D03*
%TD*%
D20*
%TO.C,C78*%
X144429100Y-115798600D03*
X143429100Y-115798600D03*
%TD*%
%TO.C,C65*%
X144429100Y-110083600D03*
X143429100Y-110083600D03*
%TD*%
D25*
%TO.C,R54*%
X143429100Y-113893600D03*
X144429100Y-113893600D03*
%TD*%
D20*
%TO.C,C82*%
X135666100Y-111861600D03*
X134666100Y-111861600D03*
%TD*%
D21*
%TO.C,C72*%
X140627100Y-107916600D03*
X140627100Y-106916600D03*
%TD*%
D22*
%TO.C,C110*%
X132507100Y-119354600D03*
X133507100Y-119354600D03*
%TD*%
D21*
%TO.C,C66*%
X147866100Y-111345600D03*
X147866100Y-110345600D03*
%TD*%
D22*
%TO.C,C85*%
X163368100Y-111607600D03*
X164368100Y-111607600D03*
%TD*%
%TO.C,C111*%
X146731100Y-104114600D03*
X147731100Y-104114600D03*
%TD*%
D25*
%TO.C,R34*%
X143429100Y-94462600D03*
X144429100Y-94462600D03*
%TD*%
D23*
%TO.C,R70*%
X131475100Y-119354600D03*
X130475100Y-119354600D03*
%TD*%
D21*
%TO.C,C50*%
X139611100Y-94327600D03*
X139611100Y-93327600D03*
%TD*%
D29*
%TO.C,C55*%
X149235653Y-95197153D03*
X148528547Y-94490047D03*
%TD*%
D23*
%TO.C,R46*%
X138587100Y-106273600D03*
X137587100Y-106273600D03*
%TD*%
D27*
%TO.C,U11*%
X166355100Y-93180600D03*
X166355100Y-92680600D03*
X166355100Y-92180600D03*
X166355100Y-91680600D03*
X169255100Y-91680600D03*
X169255100Y-92180600D03*
X169255100Y-92680600D03*
X169255100Y-93180600D03*
D28*
X167805100Y-92430600D03*
%TD*%
D25*
%TO.C,R43*%
X133015100Y-109829600D03*
X134015100Y-109829600D03*
%TD*%
D32*
%TO.C,U15*%
X135334100Y-119496600D03*
X135334100Y-118846600D03*
X135334100Y-118196600D03*
X137284100Y-118196600D03*
X137284100Y-118846600D03*
X137284100Y-119496600D03*
D33*
X136309100Y-118846600D03*
%TD*%
D23*
%TO.C,R32*%
X138587100Y-92557600D03*
X137587100Y-92557600D03*
%TD*%
D22*
%TO.C,C62*%
X143429100Y-98526600D03*
X144429100Y-98526600D03*
%TD*%
D25*
%TO.C,R40*%
X143429100Y-100304600D03*
X144429100Y-100304600D03*
%TD*%
%TO.C,R29*%
X133015100Y-96113600D03*
X134015100Y-96113600D03*
%TD*%
D16*
%TO.C,U6*%
X137511100Y-99395600D03*
X137511100Y-98895600D03*
X137511100Y-98395600D03*
X137511100Y-97895600D03*
X137511100Y-97395600D03*
X137511100Y-96895600D03*
D17*
X138361100Y-96045600D03*
X138861100Y-96045600D03*
X139361100Y-96045600D03*
X139861100Y-96045600D03*
X140361100Y-96045600D03*
X140861100Y-96045600D03*
D18*
X141711100Y-96895600D03*
X141711100Y-97395600D03*
X141711100Y-97895600D03*
X141711100Y-98395600D03*
X141711100Y-98895600D03*
X141711100Y-99395600D03*
D15*
X140861100Y-100245600D03*
X140361100Y-100245600D03*
X139861100Y-100245600D03*
X139361100Y-100245600D03*
X138861100Y-100245600D03*
X138361100Y-100245600D03*
D35*
X139611100Y-98145600D03*
%TD*%
D21*
%TO.C,C58*%
X147866100Y-99661600D03*
X147866100Y-98661600D03*
%TD*%
D24*
%TO.C,C64*%
X135928100Y-109837600D03*
X135928100Y-110837600D03*
%TD*%
D31*
%TO.C,R30*%
X135039100Y-96121600D03*
X135039100Y-97121600D03*
%TD*%
D30*
%TO.C,C69*%
X149235653Y-114937047D03*
X148528547Y-115644153D03*
%TD*%
D21*
%TO.C,C45*%
X147866100Y-97629600D03*
X147866100Y-96629600D03*
%TD*%
D20*
%TO.C,C112*%
X147731100Y-105130600D03*
X146731100Y-105130600D03*
%TD*%
D22*
%TO.C,C67*%
X143429100Y-107289600D03*
X144429100Y-107289600D03*
%TD*%
D24*
%TO.C,C43*%
X135928100Y-96121600D03*
X135928100Y-97121600D03*
%TD*%
D21*
%TO.C,C79*%
X147866100Y-113377600D03*
X147866100Y-112377600D03*
%TD*%
D23*
%TO.C,R68*%
X131475100Y-118338600D03*
X130475100Y-118338600D03*
%TD*%
D24*
%TO.C,C70*%
X151549100Y-115298600D03*
X151549100Y-116298600D03*
%TD*%
D22*
%TO.C,C74*%
X137587100Y-115417600D03*
X138587100Y-115417600D03*
%TD*%
D21*
%TO.C,C97*%
X162725100Y-108297600D03*
X162725100Y-107297600D03*
%TD*%
D16*
%TO.C,U8*%
X137511100Y-113111600D03*
X137511100Y-112611600D03*
X137511100Y-112111600D03*
X137511100Y-111611600D03*
X137511100Y-111111600D03*
X137511100Y-110611600D03*
D17*
X138361100Y-109761600D03*
X138861100Y-109761600D03*
X139361100Y-109761600D03*
X139861100Y-109761600D03*
X140361100Y-109761600D03*
X140861100Y-109761600D03*
D18*
X141711100Y-110611600D03*
X141711100Y-111111600D03*
X141711100Y-111611600D03*
X141711100Y-112111600D03*
X141711100Y-112611600D03*
X141711100Y-113111600D03*
D15*
X140861100Y-113961600D03*
X140361100Y-113961600D03*
X139861100Y-113961600D03*
X139361100Y-113961600D03*
X138861100Y-113961600D03*
X138361100Y-113961600D03*
D35*
X139611100Y-111861600D03*
%TD*%
D31*
%TO.C,R55*%
X151676100Y-107424600D03*
X151676100Y-108424600D03*
%TD*%
D20*
%TO.C,C99*%
X165638100Y-103987600D03*
X164638100Y-103987600D03*
%TD*%
D24*
%TO.C,C63*%
X139611100Y-101963600D03*
X139611100Y-102963600D03*
%TD*%
%TO.C,C107*%
X144056100Y-118346600D03*
X144056100Y-119346600D03*
%TD*%
D22*
%TO.C,C80*%
X143429100Y-113004600D03*
X144429100Y-113004600D03*
%TD*%
D21*
%TO.C,C75*%
X150660100Y-108424600D03*
X150660100Y-107424600D03*
%TD*%
%TO.C,C51*%
X140627100Y-94327600D03*
X140627100Y-93327600D03*
%TD*%
%TO.C,C54*%
X150660100Y-94708600D03*
X150660100Y-93708600D03*
%TD*%
D20*
%TO.C,C44*%
X144429100Y-96367600D03*
X143429100Y-96367600D03*
%TD*%
D22*
%TO.C,C101*%
X159050100Y-103987600D03*
X160050100Y-103987600D03*
%TD*%
D25*
%TO.C,R51*%
X143429100Y-114909600D03*
X144429100Y-114909600D03*
%TD*%
%TO.C,R31*%
X143429100Y-95478600D03*
X144429100Y-95478600D03*
%TD*%
D22*
%TO.C,C83*%
X143429100Y-112115600D03*
X144429100Y-112115600D03*
%TD*%
D21*
%TO.C,C91*%
X160693100Y-108297600D03*
X160693100Y-107297600D03*
%TD*%
D31*
%TO.C,R44*%
X135039100Y-109837600D03*
X135039100Y-110837600D03*
%TD*%
M02*
