%TF.GenerationSoftware,KiCad,Pcbnew,10.0.5-10.0.5~ubuntu24.04.1*%
%TF.CreationDate,2026-08-25T13:16:28-04:00*%
%TF.ProjectId,NN22_RPi_DetAdapter03_s00,4e4e3232-5f52-4506-995f-446574416461,rev?*%
%TF.SameCoordinates,Original*%
%TF.FileFunction,Copper,L5,Inr*%
%TF.FilePolarity,Positive*%
%FSLAX46Y46*%
G04 Gerber Fmt 4.6, Leading zero omitted, Abs format (unit mm)*
G04 Created by KiCad (PCBNEW 10.0.5-10.0.5~ubuntu24.04.1) date 2026-08-25 13:16:28*
%MOMM*%
%LPD*%
G01*
G04 APERTURE LIST*
%TA.AperFunction,ComponentPad*%
%ADD10C,1.879600*%
%TD*%
%TA.AperFunction,ComponentPad*%
%ADD11C,1.350000*%
%TD*%
%TA.AperFunction,ComponentPad*%
%ADD12C,1.800000*%
%TD*%
%TA.AperFunction,ViaPad*%
%ADD13C,0.457200*%
%TD*%
G04 APERTURE END LIST*
D10*
%TO.N,GND*%
%TO.C,TP20*%
X155486100Y-114528600D03*
%TD*%
D11*
%TO.N,GND*%
%TO.C,J4*%
X159209100Y-114749600D03*
X164209100Y-114749600D03*
D12*
X158209100Y-117449600D03*
X165209100Y-117449600D03*
%TD*%
D13*
%TO.N,GND*%
X143929100Y-104749600D03*
X141262100Y-102971600D03*
X120561100Y-89255600D03*
X123101100Y-96113600D03*
X138849100Y-112623600D03*
X147993100Y-101574600D03*
X150914100Y-117068600D03*
X157645100Y-91160600D03*
X171869100Y-101828600D03*
X123101100Y-103733600D03*
X123101100Y-113893600D03*
X165011100Y-95859600D03*
X171869100Y-114528600D03*
X133261100Y-99161600D03*
X133515100Y-116814600D03*
X126911100Y-89255600D03*
X160947100Y-92811600D03*
X174790100Y-96748600D03*
X138849100Y-97383600D03*
X123101100Y-106273600D03*
X159042100Y-91160600D03*
X168313100Y-92049600D03*
X171361100Y-89255600D03*
X174790100Y-104368600D03*
X145199100Y-97383600D03*
X163487100Y-106019600D03*
X163487100Y-103987600D03*
X133261100Y-97129600D03*
X140373100Y-112623600D03*
X162725100Y-96748600D03*
X145199100Y-111099600D03*
X153454100Y-94716600D03*
X162471100Y-105003600D03*
X136563100Y-93573600D03*
X137960100Y-118719600D03*
X168567100Y-99161600D03*
X157137100Y-110083600D03*
X145199100Y-93573600D03*
X123101100Y-101193600D03*
X169329100Y-120751600D03*
X138595100Y-104241600D03*
X167297100Y-92049600D03*
X179489100Y-111353600D03*
X178727100Y-120751600D03*
X127165100Y-105003600D03*
X150660100Y-103225600D03*
X133896100Y-98145600D03*
X152946100Y-118084600D03*
X127165100Y-94843600D03*
X174790100Y-113258600D03*
X166408100Y-91160600D03*
X174790100Y-94208600D03*
X139611100Y-98145600D03*
X145199100Y-110083600D03*
X153454100Y-108432600D03*
X141262100Y-93319600D03*
X152184100Y-109702600D03*
X138722100Y-117830600D03*
X170853100Y-91160600D03*
X145199100Y-111988600D03*
X156248100Y-95224600D03*
X139484100Y-117449600D03*
X152946100Y-104241600D03*
X117513100Y-111353600D03*
X141262100Y-106654600D03*
X174790100Y-108178600D03*
X117513100Y-105003600D03*
X139611100Y-89255600D03*
X139611100Y-111861600D03*
X152184100Y-95859600D03*
X151930100Y-118846600D03*
X145199100Y-99288600D03*
X150660100Y-106781600D03*
X133261100Y-89255600D03*
X127165100Y-110083600D03*
X165265100Y-91160600D03*
X174790100Y-109448600D03*
X140373100Y-111099600D03*
X147866100Y-108559600D03*
X160947100Y-92049600D03*
X159931100Y-92811600D03*
X145199100Y-98399600D03*
X117513100Y-117703600D03*
X131102100Y-120116600D03*
X133134100Y-112877600D03*
X174790100Y-106908600D03*
X117513100Y-92303600D03*
X123101100Y-108813600D03*
X117513100Y-98653600D03*
X162979100Y-91160600D03*
X135801100Y-100939600D03*
X161201100Y-94589600D03*
X140373100Y-98907600D03*
X170853100Y-112623600D03*
X150152100Y-109067600D03*
X150025100Y-95224600D03*
X168567100Y-101701600D03*
X144056100Y-116941600D03*
X152311100Y-89255600D03*
X179489100Y-98653600D03*
X166916100Y-108432600D03*
X152311100Y-100304600D03*
X179489100Y-105003600D03*
X150025100Y-101066600D03*
X178727100Y-89255600D03*
X128816100Y-117576600D03*
X159931100Y-92049600D03*
X140373100Y-97383600D03*
X130086100Y-120116600D03*
X171869100Y-115798600D03*
X171869100Y-96748600D03*
X148628100Y-104749600D03*
X138849100Y-98907600D03*
X141008100Y-118465600D03*
X127165100Y-99923600D03*
X153835100Y-120751600D03*
X139484100Y-103733600D03*
X152311100Y-114020600D03*
X174790100Y-100558600D03*
X138849100Y-111099600D03*
X174790100Y-103098600D03*
X147993100Y-115163600D03*
X148120100Y-118719600D03*
X145961100Y-120751600D03*
X168567100Y-96621600D03*
X163487100Y-107543600D03*
X179489100Y-92303600D03*
X167297100Y-92811600D03*
X158026100Y-95224600D03*
X145199100Y-107289600D03*
X174790100Y-99288600D03*
X145199100Y-96367600D03*
X123101100Y-111353600D03*
X158661100Y-89255600D03*
X174790100Y-117068600D03*
X150025100Y-114782600D03*
X168313100Y-92811600D03*
X145199100Y-115798600D03*
X139484100Y-106146600D03*
X174790100Y-110718600D03*
X174790100Y-111988600D03*
X133388100Y-110845600D03*
X165011100Y-89255600D03*
X141262100Y-116687600D03*
X120561100Y-120751600D03*
X174790100Y-101828600D03*
X168313100Y-117068600D03*
X126911100Y-120751600D03*
X150787100Y-111861600D03*
X127038100Y-118338600D03*
X174790100Y-105638600D03*
X151422100Y-106654600D03*
X151422100Y-92938600D03*
X139611100Y-120751600D03*
X168567100Y-100431600D03*
X145199100Y-102082600D03*
X135801100Y-114655600D03*
X145199100Y-113004600D03*
X168567100Y-98145600D03*
X171869100Y-94208600D03*
X133896100Y-111861600D03*
X174790100Y-98018600D03*
X161455100Y-103987600D03*
X151422100Y-103225600D03*
X165265100Y-110464600D03*
X139484100Y-92557600D03*
X179489100Y-117703600D03*
X127165100Y-102463600D03*
X159423100Y-112369600D03*
X138595100Y-105511600D03*
X150787100Y-98145600D03*
X123101100Y-98653600D03*
X127165100Y-112242600D03*
X136309100Y-107289600D03*
X150533100Y-92938600D03*
X145961100Y-89255600D03*
X147993100Y-95097600D03*
X131610100Y-116306600D03*
X127165100Y-97383600D03*
X127165100Y-107543600D03*
X161455100Y-106019600D03*
%TO.N,DET3*%
X132626100Y-101701600D03*
%TO.N,VN22*%
X137960100Y-119481600D03*
X171742100Y-117068600D03*
%TO.N,VN3P0*%
X148120100Y-119354600D03*
X174790100Y-115798600D03*
%TO.N,SWDIO*%
X171869100Y-98018600D03*
X156883100Y-97256600D03*
%TO.N,SWCLK*%
X159423100Y-98018600D03*
X171869100Y-99288600D03*
%TO.N,RUN*%
X171869100Y-100558600D03*
X154978100Y-97256600D03*
%TO.N,V3P3*%
X164122100Y-92430600D03*
X164122100Y-93192600D03*
X158407100Y-112369600D03*
X158026100Y-107670600D03*
X170345100Y-111099600D03*
X153835100Y-101447600D03*
X166916100Y-107670600D03*
X171869100Y-111988600D03*
X162521900Y-112369600D03*
X159931100Y-109702600D03*
X162344100Y-100558600D03*
X153835100Y-107543600D03*
X158026100Y-103987600D03*
X171361100Y-102971600D03*
X153835100Y-93827600D03*
X161963100Y-109448600D03*
X152946100Y-115290600D03*
X167043100Y-103860600D03*
%TO.N,VOCM_A2*%
X143167100Y-117576600D03*
X142659100Y-111099600D03*
%TO.N,V3P3A*%
X146723100Y-103352600D03*
X149009100Y-90525600D03*
X136436100Y-98145600D03*
X149136100Y-100431600D03*
X149009100Y-114274600D03*
X140119100Y-92176600D03*
X136436100Y-111861600D03*
X140119100Y-117449600D03*
X148882100Y-109448600D03*
X140119100Y-106146600D03*
X155232100Y-93065600D03*
X140119100Y-104114600D03*
X149771100Y-90525600D03*
X148882100Y-95732600D03*
%TO.N,{slash}CS_A2*%
X157391100Y-107797600D03*
X157391100Y-105511600D03*
%TO.N,VOCM_A3*%
X143294100Y-92176600D03*
X142659100Y-98780600D03*
X141516100Y-93954600D03*
%TO.N,VBUS*%
X159677100Y-113131600D03*
X168567100Y-95351600D03*
%TO.N,VOCM_A1*%
X145707100Y-103987600D03*
X142659100Y-97383600D03*
%TO.N,DET6*%
X130340100Y-111099600D03*
%TO.N,Net-(LF2-P$1)*%
X125006100Y-116179600D03*
X123101100Y-112623600D03*
X123101100Y-105003600D03*
X123101100Y-97383600D03*
X123101100Y-110083600D03*
X123101100Y-94843600D03*
X124244100Y-116179600D03*
X123101100Y-107543600D03*
X123101100Y-102463600D03*
X123101100Y-99923600D03*
%TO.N,VN1P2*%
X140754100Y-106146600D03*
X140754100Y-117449600D03*
X142659100Y-111861600D03*
X140754100Y-103733600D03*
X145199100Y-90525600D03*
X140754100Y-92557600D03*
X143040100Y-118973600D03*
X145961100Y-105130600D03*
X142405100Y-118973600D03*
X142659100Y-98145600D03*
%TO.N,V5P0*%
X163233100Y-94081600D03*
X163995100Y-94081600D03*
X169837100Y-94081600D03*
X170599100Y-94081600D03*
%TO.N,V1P1*%
X160566100Y-109448600D03*
X162598100Y-109575600D03*
X161709100Y-100558600D03*
%TO.N,VN20P0*%
X134531100Y-119354600D03*
%TO.N,{slash}CS_A1*%
X157391100Y-100812600D03*
X154343100Y-100812600D03*
%TO.N,LED*%
X168694100Y-103860600D03*
X168694100Y-108813600D03*
%TO.N,OPT_EN_VP*%
X132626100Y-119989600D03*
X168186100Y-103352600D03*
X167170100Y-114147600D03*
%TO.N,OPT_EN_VN*%
X136563100Y-117449600D03*
X167678100Y-102844600D03*
X166535100Y-113639600D03*
%TO.N,SDOB_A4*%
X167043100Y-102590600D03*
X155994100Y-105892600D03*
%TO.N,SDOB_A3*%
X168313100Y-99796600D03*
%TO.N,{slash}CS_A3*%
X164630100Y-98653600D03*
%TO.N,SCLK_A3*%
X164503100Y-100558600D03*
%TO.N,SDI_A3*%
X164376100Y-99923600D03*
%TO.N,SDOA_A3*%
X163614100Y-99288600D03*
%TO.N,{slash}CS_A4*%
X155105100Y-105003600D03*
%TO.N,SCLK_A4*%
X156883100Y-104241600D03*
%TO.N,SDI_A4*%
X156248100Y-104622600D03*
%TO.N,SDOA_A4*%
X155867100Y-105130600D03*
%TO.N,DET2*%
X130086100Y-100558600D03*
%TO.N,A_COMM*%
X167551100Y-114909600D03*
X169456100Y-109067600D03*
X121069100Y-116179600D03*
%TO.N,VOCM_A4*%
X141643100Y-107289600D03*
X143167100Y-105765600D03*
X142659100Y-112623600D03*
%TO.N,DET7*%
X130086100Y-112877600D03*
%TD*%
%TA.AperFunction,Conductor*%
%TO.N,GND*%
G36*
X179239123Y-88533686D02*
G01*
X180211014Y-89505577D01*
X180225600Y-89540791D01*
X180225600Y-120466409D01*
X180211014Y-120501623D01*
X179239123Y-121473514D01*
X179203909Y-121488100D01*
X169106290Y-121488100D01*
X169071076Y-121473514D01*
X167883792Y-120286230D01*
X166772695Y-119175132D01*
X174882600Y-119175132D01*
X174882600Y-119382067D01*
X174922967Y-119585010D01*
X174922970Y-119585020D01*
X175002158Y-119776197D01*
X175117119Y-119948251D01*
X175263448Y-120094580D01*
X175366400Y-120163369D01*
X175435502Y-120209541D01*
X175626680Y-120288730D01*
X175626686Y-120288731D01*
X175626689Y-120288732D01*
X175696138Y-120302546D01*
X175829635Y-120329100D01*
X175829640Y-120329100D01*
X176036560Y-120329100D01*
X176036565Y-120329100D01*
X176239520Y-120288730D01*
X176430698Y-120209541D01*
X176602755Y-120094577D01*
X176749077Y-119948255D01*
X176864041Y-119776198D01*
X176943230Y-119585020D01*
X176983600Y-119382065D01*
X176983600Y-119175135D01*
X176943230Y-118972180D01*
X176864041Y-118781002D01*
X176794529Y-118676969D01*
X176749080Y-118608948D01*
X176602751Y-118462619D01*
X176465481Y-118370900D01*
X176430698Y-118347659D01*
X176430696Y-118347658D01*
X176430697Y-118347658D01*
X176239520Y-118268470D01*
X176239510Y-118268467D01*
X176036567Y-118228100D01*
X176036565Y-118228100D01*
X175829635Y-118228100D01*
X175829632Y-118228100D01*
X175626689Y-118268467D01*
X175626679Y-118268470D01*
X175435502Y-118347658D01*
X175263448Y-118462619D01*
X175263446Y-118462622D01*
X175117122Y-118608946D01*
X175117119Y-118608948D01*
X175002158Y-118781002D01*
X174922970Y-118972179D01*
X174922967Y-118972189D01*
X174882600Y-119175132D01*
X166772695Y-119175132D01*
X166545663Y-118948100D01*
X166545662Y-118948100D01*
X156872538Y-118948100D01*
X156872537Y-118948101D01*
X154347123Y-121473514D01*
X154311909Y-121488100D01*
X117798291Y-121488100D01*
X117763077Y-121473514D01*
X116791186Y-120501623D01*
X116776600Y-120466409D01*
X116776600Y-119925997D01*
X132143000Y-119925997D01*
X132143000Y-119925999D01*
X132143000Y-120053201D01*
X132175922Y-120176070D01*
X132239524Y-120286231D01*
X132329469Y-120376176D01*
X132439630Y-120439778D01*
X132562499Y-120472700D01*
X132689701Y-120472700D01*
X132812570Y-120439778D01*
X132922731Y-120376176D01*
X133012676Y-120286231D01*
X133076278Y-120176070D01*
X133109200Y-120053201D01*
X133109200Y-119925999D01*
X133076278Y-119803130D01*
X133012676Y-119692969D01*
X132922731Y-119603024D01*
X132922730Y-119603023D01*
X132822579Y-119545201D01*
X132812570Y-119539422D01*
X132743877Y-119521016D01*
X132689702Y-119506500D01*
X132689701Y-119506500D01*
X132562499Y-119506500D01*
X132562497Y-119506500D01*
X132454146Y-119535532D01*
X132439630Y-119539422D01*
X132439627Y-119539423D01*
X132439626Y-119539424D01*
X132329469Y-119603023D01*
X132239523Y-119692969D01*
X132175924Y-119803126D01*
X132175922Y-119803130D01*
X132175921Y-119803134D01*
X132143000Y-119925997D01*
X116776600Y-119925997D01*
X116776600Y-119290997D01*
X134048000Y-119290997D01*
X134048000Y-119418202D01*
X134062516Y-119472377D01*
X134080922Y-119541070D01*
X134144524Y-119651231D01*
X134234469Y-119741176D01*
X134344630Y-119804778D01*
X134467499Y-119837700D01*
X134594701Y-119837700D01*
X134717570Y-119804778D01*
X134827731Y-119741176D01*
X134917676Y-119651231D01*
X134981278Y-119541070D01*
X135014200Y-119418201D01*
X135014200Y-119417997D01*
X137477000Y-119417997D01*
X137477000Y-119417999D01*
X137477000Y-119545201D01*
X137509922Y-119668070D01*
X137509924Y-119668073D01*
X137572349Y-119776197D01*
X137573524Y-119778231D01*
X137663469Y-119868176D01*
X137773630Y-119931778D01*
X137896499Y-119964700D01*
X138023701Y-119964700D01*
X138146570Y-119931778D01*
X138256731Y-119868176D01*
X138346676Y-119778231D01*
X138410278Y-119668070D01*
X138443200Y-119545201D01*
X138443200Y-119417999D01*
X138410278Y-119295130D01*
X138346676Y-119184969D01*
X138256731Y-119095024D01*
X138256730Y-119095023D01*
X138146573Y-119031424D01*
X138146574Y-119031424D01*
X138146570Y-119031422D01*
X138077877Y-119013016D01*
X138023702Y-118998500D01*
X138023701Y-118998500D01*
X137896499Y-118998500D01*
X137896497Y-118998500D01*
X137788146Y-119027532D01*
X137773630Y-119031422D01*
X137773627Y-119031423D01*
X137773626Y-119031424D01*
X137663469Y-119095023D01*
X137573523Y-119184969D01*
X137512308Y-119290997D01*
X137509922Y-119295130D01*
X137509921Y-119295134D01*
X137477000Y-119417997D01*
X135014200Y-119417997D01*
X135014200Y-119290999D01*
X134981278Y-119168130D01*
X134917676Y-119057969D01*
X134827731Y-118968024D01*
X134827730Y-118968023D01*
X134796276Y-118949863D01*
X134754724Y-118925873D01*
X134727226Y-118909997D01*
X141922000Y-118909997D01*
X141922000Y-119037202D01*
X141936516Y-119091377D01*
X141954922Y-119160070D01*
X142018524Y-119270231D01*
X142108469Y-119360176D01*
X142218630Y-119423778D01*
X142341499Y-119456700D01*
X142468701Y-119456700D01*
X142591570Y-119423778D01*
X142697700Y-119362502D01*
X142735489Y-119357528D01*
X142747498Y-119362502D01*
X142853630Y-119423778D01*
X142976499Y-119456700D01*
X143103701Y-119456700D01*
X143226570Y-119423778D01*
X143336731Y-119360176D01*
X143405910Y-119290997D01*
X147637000Y-119290997D01*
X147637000Y-119418202D01*
X147651516Y-119472377D01*
X147669922Y-119541070D01*
X147733524Y-119651231D01*
X147823469Y-119741176D01*
X147933630Y-119804778D01*
X148056499Y-119837700D01*
X148183701Y-119837700D01*
X148306570Y-119804778D01*
X148416731Y-119741176D01*
X148506676Y-119651231D01*
X148570278Y-119541070D01*
X148603200Y-119418201D01*
X148603200Y-119290999D01*
X148570278Y-119168130D01*
X148506676Y-119057969D01*
X148416731Y-118968024D01*
X148416730Y-118968023D01*
X148349312Y-118929099D01*
X148306570Y-118904422D01*
X148237877Y-118886016D01*
X148183702Y-118871500D01*
X148183701Y-118871500D01*
X148056499Y-118871500D01*
X148056497Y-118871500D01*
X147948146Y-118900532D01*
X147933630Y-118904422D01*
X147933627Y-118904423D01*
X147933626Y-118904424D01*
X147823469Y-118968023D01*
X147733523Y-119057969D01*
X147669924Y-119168126D01*
X147669922Y-119168130D01*
X147669921Y-119168134D01*
X147637000Y-119290997D01*
X143405910Y-119290997D01*
X143426676Y-119270231D01*
X143490278Y-119160070D01*
X143523200Y-119037201D01*
X143523200Y-118909999D01*
X143490278Y-118787130D01*
X143426676Y-118676969D01*
X143336731Y-118587024D01*
X143336730Y-118587023D01*
X143226573Y-118523424D01*
X143226574Y-118523424D01*
X143226570Y-118523422D01*
X143157877Y-118505016D01*
X143103702Y-118490500D01*
X143103701Y-118490500D01*
X142976499Y-118490500D01*
X142976497Y-118490500D01*
X142872705Y-118518311D01*
X142853630Y-118523422D01*
X142853627Y-118523423D01*
X142853626Y-118523424D01*
X142747500Y-118584696D01*
X142709711Y-118589671D01*
X142697700Y-118584696D01*
X142591573Y-118523424D01*
X142591574Y-118523424D01*
X142591570Y-118523422D01*
X142522877Y-118505016D01*
X142468702Y-118490500D01*
X142468701Y-118490500D01*
X142341499Y-118490500D01*
X142341497Y-118490500D01*
X142237705Y-118518311D01*
X142218630Y-118523422D01*
X142218627Y-118523423D01*
X142218626Y-118523424D01*
X142108469Y-118587023D01*
X142018523Y-118676969D01*
X141958460Y-118781002D01*
X141954922Y-118787130D01*
X141954921Y-118787134D01*
X141922000Y-118909997D01*
X134727226Y-118909997D01*
X134717570Y-118904422D01*
X134648877Y-118886016D01*
X134594702Y-118871500D01*
X134594701Y-118871500D01*
X134467499Y-118871500D01*
X134467497Y-118871500D01*
X134359146Y-118900532D01*
X134344630Y-118904422D01*
X134344627Y-118904423D01*
X134344626Y-118904424D01*
X134234469Y-118968023D01*
X134144523Y-119057969D01*
X134080924Y-119168126D01*
X134080922Y-119168130D01*
X134080921Y-119168134D01*
X134048000Y-119290997D01*
X116776600Y-119290997D01*
X116776600Y-117385997D01*
X136080000Y-117385997D01*
X136080000Y-117513202D01*
X136094516Y-117567377D01*
X136112922Y-117636070D01*
X136112924Y-117636073D01*
X136161171Y-117719640D01*
X136176524Y-117746231D01*
X136266469Y-117836176D01*
X136376630Y-117899778D01*
X136499499Y-117932700D01*
X136626701Y-117932700D01*
X136749570Y-117899778D01*
X136859731Y-117836176D01*
X136949676Y-117746231D01*
X137013278Y-117636070D01*
X137046200Y-117513201D01*
X137046200Y-117385999D01*
X137046199Y-117385997D01*
X139636000Y-117385997D01*
X139636000Y-117513202D01*
X139650516Y-117567377D01*
X139668922Y-117636070D01*
X139668924Y-117636073D01*
X139717171Y-117719640D01*
X139732524Y-117746231D01*
X139822469Y-117836176D01*
X139932630Y-117899778D01*
X140055499Y-117932700D01*
X140182701Y-117932700D01*
X140305570Y-117899778D01*
X140411700Y-117838502D01*
X140449489Y-117833528D01*
X140461498Y-117838502D01*
X140567630Y-117899778D01*
X140690499Y-117932700D01*
X140817701Y-117932700D01*
X140940570Y-117899778D01*
X141050731Y-117836176D01*
X141140676Y-117746231D01*
X141204278Y-117636070D01*
X141237200Y-117513201D01*
X141237200Y-117512997D01*
X142684000Y-117512997D01*
X142684000Y-117512999D01*
X142684000Y-117640201D01*
X142716922Y-117763070D01*
X142716924Y-117763073D01*
X142760473Y-117838503D01*
X142780524Y-117873231D01*
X142870469Y-117963176D01*
X142980630Y-118026778D01*
X143103499Y-118059700D01*
X143230701Y-118059700D01*
X143353570Y-118026778D01*
X143463731Y-117963176D01*
X143553676Y-117873231D01*
X143617278Y-117763070D01*
X143650200Y-117640201D01*
X143650200Y-117512999D01*
X143617278Y-117390130D01*
X143578520Y-117323000D01*
X157061577Y-117323000D01*
X157621857Y-117323000D01*
X157609100Y-117370609D01*
X157609100Y-117528591D01*
X157621857Y-117576200D01*
X157061577Y-117576200D01*
X157084294Y-117719633D01*
X157084296Y-117719640D01*
X157140388Y-117892276D01*
X157222792Y-118054005D01*
X157222793Y-118054006D01*
X157329484Y-118200854D01*
X157457845Y-118329215D01*
X157604693Y-118435906D01*
X157604694Y-118435907D01*
X157766423Y-118518311D01*
X157939059Y-118574403D01*
X157939066Y-118574405D01*
X158082500Y-118597122D01*
X158082500Y-118036843D01*
X158130109Y-118049600D01*
X158288091Y-118049600D01*
X158335700Y-118036843D01*
X158335700Y-118597122D01*
X158479133Y-118574405D01*
X158479140Y-118574403D01*
X158651776Y-118518311D01*
X158813505Y-118435907D01*
X158813506Y-118435906D01*
X158960354Y-118329215D01*
X159088715Y-118200854D01*
X159195406Y-118054006D01*
X159195407Y-118054005D01*
X159277811Y-117892276D01*
X159333903Y-117719640D01*
X159333905Y-117719633D01*
X159356623Y-117576200D01*
X158796343Y-117576200D01*
X158809100Y-117528591D01*
X158809100Y-117370609D01*
X158796343Y-117323000D01*
X159356622Y-117323000D01*
X164061577Y-117323000D01*
X164621857Y-117323000D01*
X164609100Y-117370609D01*
X164609100Y-117528591D01*
X164621857Y-117576200D01*
X164061577Y-117576200D01*
X164084294Y-117719633D01*
X164084296Y-117719640D01*
X164140388Y-117892276D01*
X164222792Y-118054005D01*
X164222793Y-118054006D01*
X164329484Y-118200854D01*
X164457845Y-118329215D01*
X164604693Y-118435906D01*
X164604694Y-118435907D01*
X164766423Y-118518311D01*
X164939059Y-118574403D01*
X164939066Y-118574405D01*
X165082500Y-118597122D01*
X165082500Y-118036843D01*
X165130109Y-118049600D01*
X165288091Y-118049600D01*
X165335700Y-118036843D01*
X165335700Y-118597122D01*
X165479133Y-118574405D01*
X165479140Y-118574403D01*
X165651776Y-118518311D01*
X165813505Y-118435907D01*
X165813506Y-118435906D01*
X165960354Y-118329215D01*
X166088715Y-118200854D01*
X166195406Y-118054006D01*
X166195407Y-118054005D01*
X166277811Y-117892276D01*
X166333903Y-117719640D01*
X166333905Y-117719633D01*
X166356623Y-117576200D01*
X165796343Y-117576200D01*
X165809100Y-117528591D01*
X165809100Y-117370609D01*
X165796343Y-117323000D01*
X166356622Y-117323000D01*
X166333905Y-117179566D01*
X166333903Y-117179559D01*
X166281126Y-117017124D01*
X166281126Y-117017123D01*
X166277812Y-117006926D01*
X166276829Y-117004997D01*
X171259000Y-117004997D01*
X171259000Y-117132202D01*
X171271689Y-117179559D01*
X171291922Y-117255070D01*
X171296578Y-117263134D01*
X171354111Y-117362785D01*
X171355524Y-117365231D01*
X171445469Y-117455176D01*
X171555630Y-117518778D01*
X171678499Y-117551700D01*
X171805701Y-117551700D01*
X171928570Y-117518778D01*
X172038731Y-117455176D01*
X172128676Y-117365231D01*
X172192278Y-117255070D01*
X172225200Y-117132201D01*
X172225200Y-117004999D01*
X172192278Y-116882130D01*
X172128676Y-116771969D01*
X172038731Y-116682024D01*
X172038730Y-116682023D01*
X171928573Y-116618424D01*
X171928574Y-116618424D01*
X171928570Y-116618422D01*
X171859877Y-116600016D01*
X171805702Y-116585500D01*
X171805701Y-116585500D01*
X171678499Y-116585500D01*
X171678497Y-116585500D01*
X171570146Y-116614532D01*
X171555630Y-116618422D01*
X171555627Y-116618423D01*
X171555626Y-116618424D01*
X171445469Y-116682023D01*
X171355523Y-116771969D01*
X171313247Y-116845194D01*
X171291922Y-116882130D01*
X171291921Y-116882134D01*
X171259000Y-117004997D01*
X166276829Y-117004997D01*
X166195407Y-116845194D01*
X166195406Y-116845193D01*
X166088715Y-116698345D01*
X165960354Y-116569984D01*
X165813506Y-116463293D01*
X165813505Y-116463292D01*
X165651776Y-116380888D01*
X165479140Y-116324796D01*
X165479135Y-116324794D01*
X165335700Y-116302076D01*
X165335700Y-116862356D01*
X165288091Y-116849600D01*
X165130109Y-116849600D01*
X165082500Y-116862356D01*
X165082500Y-116302076D01*
X164939064Y-116324794D01*
X164939059Y-116324796D01*
X164766423Y-116380888D01*
X164604694Y-116463292D01*
X164604693Y-116463293D01*
X164457845Y-116569984D01*
X164329484Y-116698345D01*
X164222793Y-116845193D01*
X164222792Y-116845194D01*
X164140388Y-117006923D01*
X164084296Y-117179559D01*
X164084294Y-117179566D01*
X164061577Y-117323000D01*
X159356622Y-117323000D01*
X159333905Y-117179566D01*
X159333903Y-117179559D01*
X159277811Y-117006923D01*
X159195407Y-116845194D01*
X159195406Y-116845193D01*
X159088715Y-116698345D01*
X158960354Y-116569984D01*
X158813506Y-116463293D01*
X158813505Y-116463292D01*
X158651776Y-116380888D01*
X158479140Y-116324796D01*
X158479135Y-116324794D01*
X158335700Y-116302076D01*
X158335700Y-116862356D01*
X158288091Y-116849600D01*
X158130109Y-116849600D01*
X158082500Y-116862356D01*
X158082500Y-116302076D01*
X157939064Y-116324794D01*
X157939059Y-116324796D01*
X157766423Y-116380888D01*
X157604694Y-116463292D01*
X157604693Y-116463293D01*
X157457845Y-116569984D01*
X157329484Y-116698345D01*
X157222793Y-116845193D01*
X157222792Y-116845194D01*
X157140388Y-117006923D01*
X157084296Y-117179559D01*
X157084294Y-117179566D01*
X157061577Y-117323000D01*
X143578520Y-117323000D01*
X143553676Y-117279969D01*
X143463731Y-117190024D01*
X143463730Y-117190023D01*
X143353573Y-117126424D01*
X143353574Y-117126424D01*
X143353570Y-117126422D01*
X143284877Y-117108016D01*
X143230702Y-117093500D01*
X143230701Y-117093500D01*
X143103499Y-117093500D01*
X143103497Y-117093500D01*
X142995146Y-117122532D01*
X142980630Y-117126422D01*
X142980627Y-117126423D01*
X142980626Y-117126424D01*
X142870469Y-117190023D01*
X142780523Y-117279969D01*
X142719308Y-117385997D01*
X142716922Y-117390130D01*
X142716921Y-117390134D01*
X142684000Y-117512997D01*
X141237200Y-117512997D01*
X141237200Y-117385999D01*
X141204278Y-117263130D01*
X141140676Y-117152969D01*
X141050731Y-117063024D01*
X141050730Y-117063023D01*
X140983312Y-117024099D01*
X140940570Y-116999422D01*
X140871877Y-116981016D01*
X140817702Y-116966500D01*
X140817701Y-116966500D01*
X140690499Y-116966500D01*
X140690497Y-116966500D01*
X140582146Y-116995532D01*
X140567630Y-116999422D01*
X140567627Y-116999423D01*
X140567626Y-116999424D01*
X140461500Y-117060696D01*
X140423711Y-117065671D01*
X140411700Y-117060696D01*
X140318562Y-117006923D01*
X140305570Y-116999422D01*
X140236877Y-116981016D01*
X140182702Y-116966500D01*
X140182701Y-116966500D01*
X140055499Y-116966500D01*
X140055497Y-116966500D01*
X139947146Y-116995532D01*
X139932630Y-116999422D01*
X139932627Y-116999423D01*
X139932626Y-116999424D01*
X139822469Y-117063023D01*
X139732523Y-117152969D01*
X139668924Y-117263126D01*
X139668922Y-117263130D01*
X139668921Y-117263134D01*
X139636000Y-117385997D01*
X137046199Y-117385997D01*
X137013278Y-117263130D01*
X136949676Y-117152969D01*
X136859731Y-117063024D01*
X136859730Y-117063023D01*
X136792312Y-117024099D01*
X136749570Y-116999422D01*
X136680877Y-116981016D01*
X136626702Y-116966500D01*
X136626701Y-116966500D01*
X136499499Y-116966500D01*
X136499497Y-116966500D01*
X136391146Y-116995532D01*
X136376630Y-116999422D01*
X136376627Y-116999423D01*
X136376626Y-116999424D01*
X136266469Y-117063023D01*
X136176523Y-117152969D01*
X136112924Y-117263126D01*
X136112922Y-117263130D01*
X136112921Y-117263134D01*
X136080000Y-117385997D01*
X116776600Y-117385997D01*
X116776600Y-116115997D01*
X120586000Y-116115997D01*
X120586000Y-116243202D01*
X120600516Y-116297377D01*
X120618922Y-116366070D01*
X120618924Y-116366073D01*
X120675053Y-116463292D01*
X120682524Y-116476231D01*
X120772469Y-116566176D01*
X120882630Y-116629778D01*
X121005499Y-116662700D01*
X121132701Y-116662700D01*
X121255570Y-116629778D01*
X121365731Y-116566176D01*
X121455676Y-116476231D01*
X121519278Y-116366070D01*
X121552200Y-116243201D01*
X121552200Y-116115999D01*
X121552199Y-116115997D01*
X123761000Y-116115997D01*
X123761000Y-116243202D01*
X123775516Y-116297377D01*
X123793922Y-116366070D01*
X123793924Y-116366073D01*
X123850053Y-116463292D01*
X123857524Y-116476231D01*
X123947469Y-116566176D01*
X124057630Y-116629778D01*
X124180499Y-116662700D01*
X124307701Y-116662700D01*
X124430570Y-116629778D01*
X124540731Y-116566176D01*
X124589886Y-116517021D01*
X124625100Y-116502435D01*
X124660314Y-116517021D01*
X124709469Y-116566176D01*
X124819630Y-116629778D01*
X124942499Y-116662700D01*
X125069701Y-116662700D01*
X125192570Y-116629778D01*
X125302731Y-116566176D01*
X125392676Y-116476231D01*
X125456278Y-116366070D01*
X125489200Y-116243201D01*
X125489200Y-116115999D01*
X125456278Y-115993130D01*
X125392676Y-115882969D01*
X125302731Y-115793024D01*
X125302730Y-115793023D01*
X125212234Y-115740775D01*
X125192570Y-115729422D01*
X125123877Y-115711016D01*
X125069702Y-115696500D01*
X125069701Y-115696500D01*
X124942499Y-115696500D01*
X124942497Y-115696500D01*
X124834146Y-115725532D01*
X124819630Y-115729422D01*
X124819627Y-115729423D01*
X124819626Y-115729424D01*
X124709469Y-115793023D01*
X124660314Y-115842179D01*
X124625100Y-115856765D01*
X124589886Y-115842179D01*
X124540730Y-115793023D01*
X124450234Y-115740775D01*
X124430570Y-115729422D01*
X124361877Y-115711016D01*
X124307702Y-115696500D01*
X124307701Y-115696500D01*
X124180499Y-115696500D01*
X124180497Y-115696500D01*
X124072146Y-115725532D01*
X124057630Y-115729422D01*
X124057627Y-115729423D01*
X124057626Y-115729424D01*
X123947469Y-115793023D01*
X123857523Y-115882969D01*
X123793924Y-115993126D01*
X123793922Y-115993130D01*
X123793921Y-115993134D01*
X123761000Y-116115997D01*
X121552199Y-116115997D01*
X121519278Y-115993130D01*
X121455676Y-115882969D01*
X121365731Y-115793024D01*
X121365730Y-115793023D01*
X121275234Y-115740775D01*
X121255570Y-115729422D01*
X121186877Y-115711016D01*
X121132702Y-115696500D01*
X121132701Y-115696500D01*
X121005499Y-115696500D01*
X121005497Y-115696500D01*
X120897146Y-115725532D01*
X120882630Y-115729422D01*
X120882627Y-115729423D01*
X120882626Y-115729424D01*
X120772469Y-115793023D01*
X120682523Y-115882969D01*
X120618924Y-115993126D01*
X120618922Y-115993130D01*
X120618921Y-115993134D01*
X120586000Y-116115997D01*
X116776600Y-116115997D01*
X116776600Y-113486297D01*
X133324600Y-113486297D01*
X133324600Y-114173903D01*
X133488797Y-114338100D01*
X135627170Y-114338100D01*
X135662384Y-114352686D01*
X135977014Y-114667316D01*
X135991600Y-114702530D01*
X135991600Y-115697903D01*
X136282797Y-115989100D01*
X136770170Y-115989100D01*
X136805384Y-116003686D01*
X136993014Y-116191316D01*
X137007600Y-116226530D01*
X137007600Y-116459903D01*
X137298797Y-116751100D01*
X137298798Y-116751100D01*
X138875402Y-116751100D01*
X138875403Y-116751100D01*
X139166600Y-116459903D01*
X139166600Y-115226997D01*
X152463000Y-115226997D01*
X152463000Y-115354202D01*
X152477516Y-115408377D01*
X152495922Y-115477070D01*
X152495924Y-115477073D01*
X152550822Y-115572160D01*
X152559524Y-115587231D01*
X152649469Y-115677176D01*
X152759630Y-115740778D01*
X152882499Y-115773700D01*
X153009701Y-115773700D01*
X153132570Y-115740778D01*
X153142583Y-115734997D01*
X174307000Y-115734997D01*
X174307000Y-115862202D01*
X174321516Y-115916377D01*
X174339922Y-115985070D01*
X174403524Y-116095231D01*
X174493469Y-116185176D01*
X174603630Y-116248778D01*
X174726499Y-116281700D01*
X174853701Y-116281700D01*
X174976570Y-116248778D01*
X175086731Y-116185176D01*
X175176676Y-116095231D01*
X175240278Y-115985070D01*
X175273200Y-115862201D01*
X175273200Y-115734999D01*
X175240278Y-115612130D01*
X175176676Y-115501969D01*
X175086731Y-115412024D01*
X175086730Y-115412023D01*
X174976573Y-115348424D01*
X174976574Y-115348424D01*
X174976570Y-115348422D01*
X174907877Y-115330016D01*
X174853702Y-115315500D01*
X174853701Y-115315500D01*
X174726499Y-115315500D01*
X174726497Y-115315500D01*
X174630251Y-115341289D01*
X174603630Y-115348422D01*
X174603627Y-115348423D01*
X174603626Y-115348424D01*
X174493469Y-115412023D01*
X174403523Y-115501969D01*
X174339924Y-115612126D01*
X174339922Y-115612130D01*
X174339921Y-115612134D01*
X174307000Y-115734997D01*
X153142583Y-115734997D01*
X153242731Y-115677176D01*
X153332676Y-115587231D01*
X153396278Y-115477070D01*
X153429200Y-115354201D01*
X153429200Y-115226999D01*
X153396278Y-115104130D01*
X153332676Y-114993969D01*
X153242731Y-114904024D01*
X153242730Y-114904023D01*
X153144699Y-114847425D01*
X153132570Y-114840422D01*
X153063877Y-114822016D01*
X153009702Y-114807500D01*
X153009701Y-114807500D01*
X152882499Y-114807500D01*
X152882497Y-114807500D01*
X152774146Y-114836532D01*
X152759630Y-114840422D01*
X152759627Y-114840423D01*
X152759626Y-114840424D01*
X152649469Y-114904023D01*
X152559523Y-114993969D01*
X152495924Y-115104126D01*
X152495922Y-115104130D01*
X152495921Y-115104134D01*
X152463000Y-115226997D01*
X139166600Y-115226997D01*
X139166600Y-114210997D01*
X148526000Y-114210997D01*
X148526000Y-114338202D01*
X148534846Y-114371216D01*
X148558922Y-114461070D01*
X148622524Y-114571231D01*
X148712469Y-114661176D01*
X148822630Y-114724778D01*
X148945499Y-114757700D01*
X149072701Y-114757700D01*
X149195570Y-114724778D01*
X149305731Y-114661176D01*
X149395676Y-114571231D01*
X149459278Y-114461070D01*
X149468541Y-114426500D01*
X149474571Y-114403996D01*
X149475106Y-114402000D01*
X154298281Y-114402000D01*
X154950621Y-114402000D01*
X154936100Y-114456191D01*
X154936100Y-114601009D01*
X154950621Y-114655200D01*
X154298281Y-114655200D01*
X154322474Y-114807952D01*
X154322476Y-114807959D01*
X154380503Y-114986551D01*
X154465754Y-115153867D01*
X154576127Y-115305782D01*
X154708917Y-115438572D01*
X154860832Y-115548945D01*
X155028148Y-115634196D01*
X155206740Y-115692223D01*
X155206747Y-115692225D01*
X155359500Y-115716418D01*
X155359500Y-115064079D01*
X155413691Y-115078600D01*
X155558509Y-115078600D01*
X155612700Y-115064079D01*
X155612700Y-115716418D01*
X155765452Y-115692225D01*
X155765459Y-115692223D01*
X155789625Y-115684372D01*
X155944051Y-115634196D01*
X156111367Y-115548945D01*
X156263282Y-115438572D01*
X156396072Y-115305782D01*
X156506445Y-115153867D01*
X156591696Y-114986551D01*
X156636901Y-114847425D01*
X156649723Y-114807959D01*
X156649725Y-114807952D01*
X156673918Y-114655200D01*
X156021579Y-114655200D01*
X156030208Y-114622999D01*
X158287897Y-114622999D01*
X158287898Y-114623000D01*
X158777148Y-114623000D01*
X158759100Y-114690356D01*
X158759100Y-114808844D01*
X158777148Y-114876200D01*
X158287898Y-114876200D01*
X158316567Y-115020336D01*
X158316570Y-115020346D01*
X158386539Y-115189266D01*
X158488116Y-115341289D01*
X158617410Y-115470583D01*
X158769434Y-115572160D01*
X158769433Y-115572160D01*
X158938353Y-115642129D01*
X158938363Y-115642132D01*
X159082499Y-115670802D01*
X159082500Y-115670802D01*
X159082500Y-115181551D01*
X159149856Y-115199600D01*
X159268344Y-115199600D01*
X159335700Y-115181551D01*
X159335700Y-115670802D01*
X159479836Y-115642132D01*
X159479846Y-115642129D01*
X159648766Y-115572160D01*
X159800789Y-115470583D01*
X159800792Y-115470581D01*
X159930081Y-115341292D01*
X159930083Y-115341289D01*
X160031660Y-115189266D01*
X160101629Y-115020346D01*
X160101632Y-115020336D01*
X160130302Y-114876200D01*
X159641052Y-114876200D01*
X159659100Y-114808844D01*
X159659100Y-114690356D01*
X159641052Y-114623000D01*
X160130302Y-114623000D01*
X160130302Y-114622999D01*
X163287897Y-114622999D01*
X163287898Y-114623000D01*
X163777148Y-114623000D01*
X163759100Y-114690356D01*
X163759100Y-114808844D01*
X163777148Y-114876200D01*
X163287898Y-114876200D01*
X163316567Y-115020336D01*
X163316570Y-115020346D01*
X163386539Y-115189266D01*
X163488116Y-115341289D01*
X163617410Y-115470583D01*
X163769434Y-115572160D01*
X163769433Y-115572160D01*
X163938353Y-115642129D01*
X163938363Y-115642132D01*
X164082500Y-115670802D01*
X164082500Y-115181551D01*
X164149856Y-115199600D01*
X164268344Y-115199600D01*
X164335700Y-115181551D01*
X164335700Y-115670802D01*
X164479836Y-115642132D01*
X164479846Y-115642129D01*
X164648766Y-115572160D01*
X164800789Y-115470583D01*
X164800792Y-115470581D01*
X164930081Y-115341292D01*
X164930083Y-115341289D01*
X165031660Y-115189266D01*
X165101629Y-115020346D01*
X165101632Y-115020336D01*
X165130302Y-114876200D01*
X164641052Y-114876200D01*
X164659100Y-114808844D01*
X164659100Y-114690356D01*
X164641052Y-114623000D01*
X165130302Y-114623000D01*
X165130302Y-114622999D01*
X165101632Y-114478863D01*
X165101629Y-114478853D01*
X165031660Y-114309933D01*
X164930083Y-114157910D01*
X164800789Y-114028616D01*
X164648765Y-113927039D01*
X164648766Y-113927039D01*
X164479844Y-113857069D01*
X164335700Y-113828397D01*
X164335700Y-114317648D01*
X164268344Y-114299600D01*
X164149856Y-114299600D01*
X164082500Y-114317648D01*
X164082500Y-113828397D01*
X163938355Y-113857069D01*
X163769433Y-113927039D01*
X163617410Y-114028616D01*
X163617408Y-114028619D01*
X163488119Y-114157908D01*
X163488116Y-114157910D01*
X163386539Y-114309933D01*
X163316570Y-114478853D01*
X163316567Y-114478863D01*
X163287897Y-114622999D01*
X160130302Y-114622999D01*
X160101632Y-114478863D01*
X160101629Y-114478853D01*
X160031660Y-114309933D01*
X159930083Y-114157910D01*
X159800789Y-114028616D01*
X159648765Y-113927039D01*
X159648766Y-113927039D01*
X159479844Y-113857069D01*
X159335700Y-113828397D01*
X159335700Y-114317648D01*
X159268344Y-114299600D01*
X159149856Y-114299600D01*
X159082500Y-114317648D01*
X159082500Y-113828397D01*
X158938355Y-113857069D01*
X158769433Y-113927039D01*
X158617410Y-114028616D01*
X158617408Y-114028619D01*
X158488119Y-114157908D01*
X158488116Y-114157910D01*
X158386539Y-114309933D01*
X158316570Y-114478853D01*
X158316567Y-114478863D01*
X158287897Y-114622999D01*
X156030208Y-114622999D01*
X156036100Y-114601009D01*
X156036100Y-114456191D01*
X156021579Y-114402000D01*
X156673918Y-114402000D01*
X156649725Y-114249247D01*
X156649723Y-114249240D01*
X156591696Y-114070648D01*
X156506445Y-113903332D01*
X156396072Y-113751417D01*
X156263282Y-113618627D01*
X156111367Y-113508254D01*
X155944051Y-113423003D01*
X155765459Y-113364976D01*
X155765454Y-113364974D01*
X155612700Y-113340780D01*
X155612700Y-113993120D01*
X155558509Y-113978600D01*
X155413691Y-113978600D01*
X155359500Y-113993120D01*
X155359500Y-113340780D01*
X155206745Y-113364974D01*
X155206740Y-113364976D01*
X155028148Y-113423003D01*
X154860832Y-113508254D01*
X154708917Y-113618627D01*
X154576127Y-113751417D01*
X154465754Y-113903332D01*
X154380503Y-114070648D01*
X154322476Y-114249240D01*
X154322474Y-114249247D01*
X154298281Y-114402000D01*
X149475106Y-114402000D01*
X149486572Y-114359204D01*
X149492200Y-114338201D01*
X149492200Y-114210999D01*
X149459278Y-114088130D01*
X149395676Y-113977969D01*
X149305731Y-113888024D01*
X149305730Y-113888023D01*
X149238312Y-113849099D01*
X149195570Y-113824422D01*
X149126877Y-113806016D01*
X149072702Y-113791500D01*
X149072701Y-113791500D01*
X148945499Y-113791500D01*
X148945497Y-113791500D01*
X148837146Y-113820532D01*
X148822630Y-113824422D01*
X148822627Y-113824423D01*
X148822626Y-113824424D01*
X148712469Y-113888023D01*
X148622523Y-113977969D01*
X148569015Y-114070648D01*
X148558922Y-114088130D01*
X148558921Y-114088134D01*
X148526000Y-114210997D01*
X139166600Y-114210997D01*
X139166600Y-113830100D01*
X137880030Y-113830100D01*
X137844816Y-113815514D01*
X137657186Y-113627884D01*
X137642600Y-113592670D01*
X137642600Y-112306100D01*
X136795035Y-112306100D01*
X136759821Y-112291514D01*
X136745235Y-112256300D01*
X136759821Y-112221086D01*
X136773521Y-112207386D01*
X136822676Y-112158231D01*
X136886278Y-112048070D01*
X136919200Y-111925201D01*
X136919200Y-111797999D01*
X136886278Y-111675130D01*
X136822676Y-111564969D01*
X136759821Y-111502114D01*
X136745235Y-111466900D01*
X136759821Y-111431686D01*
X136795035Y-111417100D01*
X137642600Y-111417100D01*
X137642600Y-111035997D01*
X142176000Y-111035997D01*
X142176000Y-111035999D01*
X142176000Y-111163201D01*
X142208922Y-111286070D01*
X142208924Y-111286073D01*
X142272523Y-111396230D01*
X142321679Y-111445386D01*
X142336265Y-111480600D01*
X142321679Y-111515814D01*
X142272523Y-111564969D01*
X142208924Y-111675126D01*
X142208922Y-111675130D01*
X142208921Y-111675134D01*
X142176000Y-111797997D01*
X142176000Y-111797999D01*
X142176000Y-111925201D01*
X142208922Y-112048070D01*
X142208924Y-112048073D01*
X142272523Y-112158230D01*
X142321679Y-112207386D01*
X142336265Y-112242600D01*
X142321679Y-112277814D01*
X142272523Y-112326969D01*
X142211190Y-112433201D01*
X142208922Y-112437130D01*
X142208921Y-112437134D01*
X142176000Y-112559997D01*
X142176000Y-112687202D01*
X142177053Y-112691130D01*
X142208922Y-112810070D01*
X142272524Y-112920231D01*
X142362469Y-113010176D01*
X142472630Y-113073778D01*
X142595499Y-113106700D01*
X142722701Y-113106700D01*
X142845570Y-113073778D01*
X142855583Y-113067997D01*
X159194000Y-113067997D01*
X159194000Y-113067999D01*
X159194000Y-113195201D01*
X159226922Y-113318070D01*
X159226924Y-113318073D01*
X159287505Y-113423003D01*
X159290524Y-113428231D01*
X159380469Y-113518176D01*
X159490630Y-113581778D01*
X159613499Y-113614700D01*
X159740701Y-113614700D01*
X159863570Y-113581778D01*
X159873583Y-113575997D01*
X166052000Y-113575997D01*
X166052000Y-113575999D01*
X166052000Y-113703201D01*
X166084922Y-113826070D01*
X166109599Y-113868812D01*
X166129529Y-113903332D01*
X166148524Y-113936231D01*
X166238469Y-114026176D01*
X166348630Y-114089778D01*
X166471499Y-114122700D01*
X166598699Y-114122700D01*
X166598701Y-114122700D01*
X166624312Y-114115837D01*
X166662099Y-114120811D01*
X166685303Y-114151049D01*
X166687000Y-114163940D01*
X166687000Y-114211201D01*
X166719922Y-114334070D01*
X166719924Y-114334073D01*
X166751930Y-114389510D01*
X166783524Y-114444231D01*
X166873469Y-114534176D01*
X166983630Y-114597778D01*
X167085196Y-114624992D01*
X167115434Y-114648194D01*
X167120409Y-114685983D01*
X167115434Y-114697993D01*
X167100925Y-114723122D01*
X167100921Y-114723134D01*
X167068000Y-114845997D01*
X167068000Y-114973202D01*
X167080630Y-115020336D01*
X167100922Y-115096070D01*
X167105578Y-115104134D01*
X167160695Y-115199600D01*
X167164524Y-115206231D01*
X167254469Y-115296176D01*
X167364630Y-115359778D01*
X167487499Y-115392700D01*
X167614701Y-115392700D01*
X167737570Y-115359778D01*
X167847731Y-115296176D01*
X167937676Y-115206231D01*
X168001278Y-115096070D01*
X168034200Y-114973201D01*
X168034200Y-114845999D01*
X168001278Y-114723130D01*
X167937676Y-114612969D01*
X167847731Y-114523024D01*
X167847730Y-114523023D01*
X167780312Y-114484099D01*
X167737570Y-114459422D01*
X167636004Y-114432208D01*
X167605765Y-114409005D01*
X167600790Y-114371216D01*
X167605764Y-114359208D01*
X167620278Y-114334070D01*
X167653200Y-114211201D01*
X167653200Y-114083999D01*
X167620278Y-113961130D01*
X167556676Y-113850969D01*
X167466731Y-113761024D01*
X167466730Y-113761023D01*
X167356573Y-113697424D01*
X167356574Y-113697424D01*
X167356570Y-113697422D01*
X167259311Y-113671362D01*
X167233702Y-113664500D01*
X167233701Y-113664500D01*
X167106499Y-113664500D01*
X167089243Y-113669123D01*
X167080888Y-113671362D01*
X167043099Y-113666385D01*
X167019896Y-113636146D01*
X167018200Y-113623258D01*
X167018200Y-113575999D01*
X167018199Y-113575997D01*
X166985278Y-113453130D01*
X166921676Y-113342969D01*
X166831731Y-113253024D01*
X166831730Y-113253023D01*
X166721573Y-113189424D01*
X166721574Y-113189424D01*
X166721570Y-113189422D01*
X166652877Y-113171016D01*
X166598702Y-113156500D01*
X166598701Y-113156500D01*
X166471499Y-113156500D01*
X166471497Y-113156500D01*
X166363146Y-113185532D01*
X166348630Y-113189422D01*
X166348627Y-113189423D01*
X166348626Y-113189424D01*
X166238469Y-113253023D01*
X166148523Y-113342969D01*
X166084924Y-113453126D01*
X166084922Y-113453130D01*
X166084921Y-113453134D01*
X166052000Y-113575997D01*
X159873583Y-113575997D01*
X159973731Y-113518176D01*
X160063676Y-113428231D01*
X160127278Y-113318070D01*
X160160200Y-113195201D01*
X160160200Y-113067999D01*
X160127278Y-112945130D01*
X160063676Y-112834969D01*
X159973731Y-112745024D01*
X159973730Y-112745023D01*
X159906312Y-112706099D01*
X159863570Y-112681422D01*
X159794877Y-112663016D01*
X159740702Y-112648500D01*
X159740701Y-112648500D01*
X159613499Y-112648500D01*
X159613497Y-112648500D01*
X159505146Y-112677532D01*
X159490630Y-112681422D01*
X159490627Y-112681423D01*
X159490626Y-112681424D01*
X159380469Y-112745023D01*
X159290523Y-112834969D01*
X159229190Y-112941201D01*
X159226922Y-112945130D01*
X159226921Y-112945134D01*
X159194000Y-113067997D01*
X142855583Y-113067997D01*
X142955731Y-113010176D01*
X143045676Y-112920231D01*
X143109278Y-112810070D01*
X143142200Y-112687201D01*
X143142200Y-112559999D01*
X143109278Y-112437130D01*
X143073509Y-112375176D01*
X143049050Y-112332812D01*
X143049048Y-112332810D01*
X143045676Y-112326969D01*
X143024704Y-112305997D01*
X157924000Y-112305997D01*
X157924000Y-112433202D01*
X157938516Y-112487377D01*
X157956922Y-112556070D01*
X158020524Y-112666231D01*
X158110469Y-112756176D01*
X158220630Y-112819778D01*
X158343499Y-112852700D01*
X158470701Y-112852700D01*
X158593570Y-112819778D01*
X158703731Y-112756176D01*
X158793676Y-112666231D01*
X158857278Y-112556070D01*
X158890200Y-112433201D01*
X158890200Y-112305999D01*
X158890199Y-112305997D01*
X162038800Y-112305997D01*
X162038800Y-112433202D01*
X162053316Y-112487377D01*
X162071722Y-112556070D01*
X162135324Y-112666231D01*
X162225269Y-112756176D01*
X162335430Y-112819778D01*
X162458299Y-112852700D01*
X162585501Y-112852700D01*
X162708370Y-112819778D01*
X162818531Y-112756176D01*
X162908476Y-112666231D01*
X162972078Y-112556070D01*
X163005000Y-112433201D01*
X163005000Y-112305999D01*
X162972078Y-112183130D01*
X162908476Y-112072969D01*
X162818531Y-111983024D01*
X162818530Y-111983023D01*
X162787076Y-111964863D01*
X162718379Y-111925201D01*
X162718026Y-111924997D01*
X171386000Y-111924997D01*
X171386000Y-112052202D01*
X171400516Y-112106377D01*
X171418922Y-112175070D01*
X171423578Y-112183134D01*
X171478241Y-112277814D01*
X171482524Y-112285231D01*
X171572469Y-112375176D01*
X171682630Y-112438778D01*
X171805499Y-112471700D01*
X171932701Y-112471700D01*
X172055570Y-112438778D01*
X172165731Y-112375176D01*
X172255676Y-112285231D01*
X172319278Y-112175070D01*
X172352200Y-112052201D01*
X172352200Y-111924999D01*
X172319278Y-111802130D01*
X172255676Y-111691969D01*
X172165731Y-111602024D01*
X172165730Y-111602023D01*
X172055573Y-111538424D01*
X172055574Y-111538424D01*
X172055570Y-111538422D01*
X171971194Y-111515814D01*
X171932702Y-111505500D01*
X171932701Y-111505500D01*
X171805499Y-111505500D01*
X171805497Y-111505500D01*
X171697146Y-111534532D01*
X171682630Y-111538422D01*
X171682627Y-111538423D01*
X171682626Y-111538424D01*
X171572469Y-111602023D01*
X171482523Y-111691969D01*
X171421308Y-111797997D01*
X171418922Y-111802130D01*
X171418921Y-111802134D01*
X171386000Y-111924997D01*
X162718026Y-111924997D01*
X162708370Y-111919422D01*
X162639677Y-111901016D01*
X162585502Y-111886500D01*
X162585501Y-111886500D01*
X162458299Y-111886500D01*
X162458297Y-111886500D01*
X162349946Y-111915532D01*
X162335430Y-111919422D01*
X162335427Y-111919423D01*
X162335426Y-111919424D01*
X162225269Y-111983023D01*
X162135323Y-112072969D01*
X162071724Y-112183126D01*
X162071722Y-112183130D01*
X162071721Y-112183134D01*
X162038800Y-112305997D01*
X158890199Y-112305997D01*
X158857278Y-112183130D01*
X158793676Y-112072969D01*
X158703731Y-111983024D01*
X158703730Y-111983023D01*
X158603579Y-111925201D01*
X158593570Y-111919422D01*
X158524877Y-111901016D01*
X158470702Y-111886500D01*
X158470701Y-111886500D01*
X158343499Y-111886500D01*
X158343497Y-111886500D01*
X158235146Y-111915532D01*
X158220630Y-111919422D01*
X158220627Y-111919423D01*
X158220626Y-111919424D01*
X158110469Y-111983023D01*
X158020523Y-112072969D01*
X157956924Y-112183126D01*
X157956922Y-112183130D01*
X157956921Y-112183134D01*
X157924000Y-112305997D01*
X143024704Y-112305997D01*
X142996135Y-112277428D01*
X142995728Y-112277002D01*
X142989032Y-112259733D01*
X142981935Y-112242600D01*
X142982169Y-112242035D01*
X142981948Y-112241465D01*
X142989424Y-112224518D01*
X142996521Y-112207386D01*
X143020781Y-112183126D01*
X143045676Y-112158231D01*
X143109278Y-112048070D01*
X143142200Y-111925201D01*
X143142200Y-111797999D01*
X143109278Y-111675130D01*
X143045676Y-111564969D01*
X142996521Y-111515814D01*
X142981935Y-111480600D01*
X142996521Y-111445386D01*
X143010221Y-111431686D01*
X143045676Y-111396231D01*
X143109278Y-111286070D01*
X143142200Y-111163201D01*
X143142200Y-111035999D01*
X143142199Y-111035997D01*
X169862000Y-111035997D01*
X169862000Y-111035999D01*
X169862000Y-111163201D01*
X169894922Y-111286070D01*
X169958524Y-111396231D01*
X170048469Y-111486176D01*
X170158630Y-111549778D01*
X170281499Y-111582700D01*
X170408701Y-111582700D01*
X170531570Y-111549778D01*
X170641731Y-111486176D01*
X170731676Y-111396231D01*
X170795278Y-111286070D01*
X170828200Y-111163201D01*
X170828200Y-111035999D01*
X170795278Y-110913130D01*
X170731676Y-110802969D01*
X170641731Y-110713024D01*
X170641730Y-110713023D01*
X170531573Y-110649424D01*
X170531574Y-110649424D01*
X170531570Y-110649422D01*
X170462877Y-110631016D01*
X170408702Y-110616500D01*
X170408701Y-110616500D01*
X170281499Y-110616500D01*
X170281497Y-110616500D01*
X170199280Y-110638530D01*
X170158630Y-110649422D01*
X170158627Y-110649423D01*
X170158626Y-110649424D01*
X170048469Y-110713023D01*
X169958523Y-110802969D01*
X169894924Y-110913126D01*
X169894922Y-110913130D01*
X169894921Y-110913134D01*
X169862000Y-111035997D01*
X143142199Y-111035997D01*
X143109278Y-110913130D01*
X143045676Y-110802969D01*
X142955731Y-110713024D01*
X142955730Y-110713023D01*
X142845573Y-110649424D01*
X142845574Y-110649424D01*
X142845570Y-110649422D01*
X142776877Y-110631016D01*
X142722702Y-110616500D01*
X142722701Y-110616500D01*
X142595499Y-110616500D01*
X142595497Y-110616500D01*
X142513280Y-110638530D01*
X142472630Y-110649422D01*
X142472627Y-110649423D01*
X142472626Y-110649424D01*
X142362469Y-110713023D01*
X142272523Y-110802969D01*
X142208924Y-110913126D01*
X142208922Y-110913130D01*
X142208921Y-110913134D01*
X142176000Y-111035997D01*
X137642600Y-111035997D01*
X137642600Y-110130530D01*
X137657186Y-110095316D01*
X137844816Y-109907686D01*
X137880030Y-109893100D01*
X139166600Y-109893100D01*
X139166600Y-109384997D01*
X148399000Y-109384997D01*
X148399000Y-109512202D01*
X148413516Y-109566377D01*
X148431922Y-109635070D01*
X148495524Y-109745231D01*
X148585469Y-109835176D01*
X148695630Y-109898778D01*
X148818499Y-109931700D01*
X148945701Y-109931700D01*
X149068570Y-109898778D01*
X149178731Y-109835176D01*
X149268676Y-109745231D01*
X149330011Y-109638997D01*
X159448000Y-109638997D01*
X159448000Y-109766202D01*
X159462516Y-109820377D01*
X159480922Y-109889070D01*
X159544524Y-109999231D01*
X159634469Y-110089176D01*
X159744630Y-110152778D01*
X159867499Y-110185700D01*
X159994701Y-110185700D01*
X160117570Y-110152778D01*
X160227731Y-110089176D01*
X160317676Y-109999231D01*
X160357097Y-109930950D01*
X160387334Y-109907749D01*
X160413111Y-109907749D01*
X160502499Y-109931700D01*
X160629701Y-109931700D01*
X160752570Y-109898778D01*
X160862731Y-109835176D01*
X160952676Y-109745231D01*
X161016278Y-109635070D01*
X161049200Y-109512201D01*
X161049200Y-109384999D01*
X161049199Y-109384997D01*
X161480000Y-109384997D01*
X161480000Y-109512202D01*
X161494516Y-109566377D01*
X161512922Y-109635070D01*
X161576524Y-109745231D01*
X161666469Y-109835176D01*
X161776630Y-109898778D01*
X161899499Y-109931700D01*
X162026701Y-109931700D01*
X162149570Y-109898778D01*
X162172583Y-109885490D01*
X162210370Y-109880514D01*
X162232697Y-109893404D01*
X162301469Y-109962176D01*
X162411630Y-110025778D01*
X162534499Y-110058700D01*
X162661701Y-110058700D01*
X162784570Y-110025778D01*
X162894731Y-109962176D01*
X162984676Y-109872231D01*
X163048278Y-109762070D01*
X163081200Y-109639201D01*
X163081200Y-109511999D01*
X163048278Y-109389130D01*
X162984676Y-109278969D01*
X162894731Y-109189024D01*
X162894730Y-109189023D01*
X162816197Y-109143682D01*
X162784570Y-109125422D01*
X162715877Y-109107016D01*
X162661702Y-109092500D01*
X162661701Y-109092500D01*
X162534499Y-109092500D01*
X162534497Y-109092500D01*
X162426146Y-109121532D01*
X162411630Y-109125422D01*
X162411627Y-109125423D01*
X162411623Y-109125425D01*
X162388613Y-109138709D01*
X162350823Y-109143682D01*
X162328501Y-109130794D01*
X162259730Y-109062023D01*
X162192312Y-109023099D01*
X162149570Y-108998422D01*
X162080877Y-108980016D01*
X162026702Y-108965500D01*
X162026701Y-108965500D01*
X161899499Y-108965500D01*
X161899497Y-108965500D01*
X161791146Y-108994532D01*
X161776630Y-108998422D01*
X161776627Y-108998423D01*
X161776626Y-108998424D01*
X161666469Y-109062023D01*
X161576523Y-109151969D01*
X161512924Y-109262126D01*
X161512922Y-109262130D01*
X161512921Y-109262134D01*
X161480000Y-109384997D01*
X161049199Y-109384997D01*
X161016278Y-109262130D01*
X160952676Y-109151969D01*
X160862731Y-109062024D01*
X160862730Y-109062023D01*
X160795312Y-109023099D01*
X160752570Y-108998422D01*
X160683877Y-108980016D01*
X160629702Y-108965500D01*
X160629701Y-108965500D01*
X160502499Y-108965500D01*
X160502497Y-108965500D01*
X160394146Y-108994532D01*
X160379630Y-108998422D01*
X160379627Y-108998423D01*
X160379626Y-108998424D01*
X160269469Y-109062023D01*
X160179524Y-109151968D01*
X160140102Y-109220248D01*
X160109862Y-109243450D01*
X160084085Y-109243450D01*
X159994702Y-109219500D01*
X159994701Y-109219500D01*
X159867499Y-109219500D01*
X159867497Y-109219500D01*
X159759146Y-109248532D01*
X159744630Y-109252422D01*
X159744627Y-109252423D01*
X159744626Y-109252424D01*
X159634469Y-109316023D01*
X159544523Y-109405969D01*
X159516691Y-109454176D01*
X159480922Y-109516130D01*
X159480921Y-109516134D01*
X159448000Y-109638997D01*
X149330011Y-109638997D01*
X149332278Y-109635070D01*
X149365200Y-109512201D01*
X149365200Y-109384999D01*
X149332278Y-109262130D01*
X149268676Y-109151969D01*
X149178731Y-109062024D01*
X149178730Y-109062023D01*
X149111312Y-109023099D01*
X149068570Y-108998422D01*
X148999877Y-108980016D01*
X148945702Y-108965500D01*
X148945701Y-108965500D01*
X148818499Y-108965500D01*
X148818497Y-108965500D01*
X148710146Y-108994532D01*
X148695630Y-108998422D01*
X148695627Y-108998423D01*
X148695626Y-108998424D01*
X148585469Y-109062023D01*
X148495523Y-109151969D01*
X148431924Y-109262126D01*
X148431922Y-109262130D01*
X148431921Y-109262134D01*
X148399000Y-109384997D01*
X139166600Y-109384997D01*
X139166600Y-108749997D01*
X168211000Y-108749997D01*
X168211000Y-108877202D01*
X168212053Y-108881130D01*
X168243922Y-109000070D01*
X168307524Y-109110231D01*
X168397469Y-109200176D01*
X168507630Y-109263778D01*
X168630499Y-109296700D01*
X168757701Y-109296700D01*
X168880570Y-109263778D01*
X168935797Y-109231891D01*
X168973586Y-109226917D01*
X169003825Y-109250120D01*
X169004899Y-109252297D01*
X169005921Y-109254067D01*
X169005922Y-109254070D01*
X169069524Y-109364231D01*
X169159469Y-109454176D01*
X169269630Y-109517778D01*
X169392499Y-109550700D01*
X169519701Y-109550700D01*
X169642570Y-109517778D01*
X169752731Y-109454176D01*
X169842676Y-109364231D01*
X169906278Y-109254070D01*
X169939200Y-109131201D01*
X169939200Y-109003999D01*
X169906278Y-108881130D01*
X169842676Y-108770969D01*
X169752731Y-108681024D01*
X169752730Y-108681023D01*
X169666224Y-108631079D01*
X169642570Y-108617422D01*
X169573877Y-108599016D01*
X169519702Y-108584500D01*
X169519701Y-108584500D01*
X169392499Y-108584500D01*
X169392497Y-108584500D01*
X169284146Y-108613532D01*
X169269630Y-108617422D01*
X169269627Y-108617423D01*
X169269626Y-108617424D01*
X169214403Y-108649307D01*
X169176614Y-108654282D01*
X169146375Y-108631079D01*
X169145301Y-108628903D01*
X169144278Y-108627132D01*
X169144278Y-108627130D01*
X169080676Y-108516969D01*
X168990731Y-108427024D01*
X168990730Y-108427023D01*
X168880573Y-108363424D01*
X168880574Y-108363424D01*
X168880570Y-108363422D01*
X168811877Y-108345016D01*
X168757702Y-108330500D01*
X168757701Y-108330500D01*
X168630499Y-108330500D01*
X168630497Y-108330500D01*
X168522146Y-108359532D01*
X168507630Y-108363422D01*
X168507627Y-108363423D01*
X168507626Y-108363424D01*
X168397469Y-108427023D01*
X168307523Y-108516969D01*
X168243924Y-108627126D01*
X168243922Y-108627130D01*
X168243921Y-108627134D01*
X168211000Y-108749997D01*
X139166600Y-108749997D01*
X139166600Y-107225997D01*
X141160000Y-107225997D01*
X141160000Y-107353202D01*
X141167418Y-107380885D01*
X141192922Y-107476070D01*
X141256524Y-107586231D01*
X141346469Y-107676176D01*
X141456630Y-107739778D01*
X141579499Y-107772700D01*
X141706701Y-107772700D01*
X141829570Y-107739778D01*
X141939731Y-107676176D01*
X142029676Y-107586231D01*
X142091011Y-107479997D01*
X153352000Y-107479997D01*
X153352000Y-107607202D01*
X153353053Y-107611130D01*
X153384922Y-107730070D01*
X153448524Y-107840231D01*
X153538469Y-107930176D01*
X153648630Y-107993778D01*
X153771499Y-108026700D01*
X153898701Y-108026700D01*
X154021570Y-107993778D01*
X154131731Y-107930176D01*
X154221676Y-107840231D01*
X154283011Y-107733997D01*
X156908000Y-107733997D01*
X156908000Y-107733999D01*
X156908000Y-107861201D01*
X156940922Y-107984070D01*
X157004524Y-108094231D01*
X157094469Y-108184176D01*
X157204630Y-108247778D01*
X157327499Y-108280700D01*
X157454701Y-108280700D01*
X157577570Y-108247778D01*
X157687731Y-108184176D01*
X157756502Y-108115404D01*
X157791714Y-108100818D01*
X157816614Y-108107489D01*
X157839630Y-108120778D01*
X157962499Y-108153700D01*
X158089701Y-108153700D01*
X158212570Y-108120778D01*
X158322731Y-108057176D01*
X158412676Y-107967231D01*
X158476278Y-107857070D01*
X158509200Y-107734201D01*
X158509200Y-107606999D01*
X158509199Y-107606997D01*
X166433000Y-107606997D01*
X166433000Y-107734202D01*
X166447516Y-107788377D01*
X166465922Y-107857070D01*
X166529524Y-107967231D01*
X166619469Y-108057176D01*
X166729630Y-108120778D01*
X166852499Y-108153700D01*
X166979701Y-108153700D01*
X167102570Y-108120778D01*
X167212731Y-108057176D01*
X167302676Y-107967231D01*
X167366278Y-107857070D01*
X167399200Y-107734201D01*
X167399200Y-107606999D01*
X167366278Y-107484130D01*
X167302676Y-107373969D01*
X167212731Y-107284024D01*
X167212730Y-107284023D01*
X167145312Y-107245099D01*
X167102570Y-107220422D01*
X167033877Y-107202016D01*
X166979702Y-107187500D01*
X166979701Y-107187500D01*
X166852499Y-107187500D01*
X166852497Y-107187500D01*
X166744146Y-107216532D01*
X166729630Y-107220422D01*
X166729627Y-107220423D01*
X166729626Y-107220424D01*
X166619469Y-107284023D01*
X166529523Y-107373969D01*
X166468308Y-107479997D01*
X166465922Y-107484130D01*
X166465921Y-107484134D01*
X166433000Y-107606997D01*
X158509199Y-107606997D01*
X158476278Y-107484130D01*
X158412676Y-107373969D01*
X158322731Y-107284024D01*
X158322730Y-107284023D01*
X158255312Y-107245099D01*
X158212570Y-107220422D01*
X158143877Y-107202016D01*
X158089702Y-107187500D01*
X158089701Y-107187500D01*
X157962499Y-107187500D01*
X157962497Y-107187500D01*
X157854146Y-107216532D01*
X157839630Y-107220422D01*
X157839627Y-107220423D01*
X157839626Y-107220424D01*
X157729469Y-107284023D01*
X157660697Y-107352795D01*
X157625483Y-107367381D01*
X157600584Y-107360709D01*
X157577570Y-107347422D01*
X157508877Y-107329016D01*
X157454702Y-107314500D01*
X157454701Y-107314500D01*
X157327499Y-107314500D01*
X157327497Y-107314500D01*
X157219146Y-107343532D01*
X157204630Y-107347422D01*
X157204627Y-107347423D01*
X157204626Y-107347424D01*
X157094469Y-107411023D01*
X157004523Y-107500969D01*
X156943308Y-107606997D01*
X156940922Y-107611130D01*
X156940921Y-107611134D01*
X156908000Y-107733997D01*
X154283011Y-107733997D01*
X154285278Y-107730070D01*
X154318200Y-107607201D01*
X154318200Y-107479999D01*
X154285278Y-107357130D01*
X154221676Y-107246969D01*
X154131731Y-107157024D01*
X154131730Y-107157023D01*
X154064312Y-107118099D01*
X154021570Y-107093422D01*
X153952877Y-107075016D01*
X153898702Y-107060500D01*
X153898701Y-107060500D01*
X153771499Y-107060500D01*
X153771497Y-107060500D01*
X153663146Y-107089532D01*
X153648630Y-107093422D01*
X153648627Y-107093423D01*
X153648626Y-107093424D01*
X153538469Y-107157023D01*
X153448523Y-107246969D01*
X153387190Y-107353201D01*
X153384922Y-107357130D01*
X153384921Y-107357134D01*
X153352000Y-107479997D01*
X142091011Y-107479997D01*
X142093278Y-107476070D01*
X142126200Y-107353201D01*
X142126200Y-107225999D01*
X142093278Y-107103130D01*
X142029676Y-106992969D01*
X141939731Y-106903024D01*
X141939730Y-106903023D01*
X141829573Y-106839424D01*
X141829574Y-106839424D01*
X141829570Y-106839422D01*
X141760877Y-106821016D01*
X141706702Y-106806500D01*
X141706701Y-106806500D01*
X141579499Y-106806500D01*
X141579497Y-106806500D01*
X141471146Y-106835532D01*
X141456630Y-106839422D01*
X141456627Y-106839423D01*
X141456626Y-106839424D01*
X141346469Y-106903023D01*
X141256523Y-106992969D01*
X141192924Y-107103126D01*
X141192922Y-107103130D01*
X141192921Y-107103134D01*
X141160000Y-107225997D01*
X139166600Y-107225997D01*
X139166600Y-107009298D01*
X139166600Y-107009297D01*
X138875403Y-106718100D01*
X138875402Y-106718100D01*
X138388030Y-106718100D01*
X138352816Y-106703514D01*
X138165186Y-106515884D01*
X138150600Y-106480670D01*
X138150600Y-106082997D01*
X139636000Y-106082997D01*
X139636000Y-106210202D01*
X139650516Y-106264377D01*
X139668922Y-106333070D01*
X139732524Y-106443231D01*
X139822469Y-106533176D01*
X139932630Y-106596778D01*
X140055499Y-106629700D01*
X140182701Y-106629700D01*
X140305570Y-106596778D01*
X140411700Y-106535502D01*
X140449489Y-106530528D01*
X140461498Y-106535502D01*
X140567630Y-106596778D01*
X140690499Y-106629700D01*
X140817701Y-106629700D01*
X140940570Y-106596778D01*
X141050731Y-106533176D01*
X141140676Y-106443231D01*
X141204278Y-106333070D01*
X141237200Y-106210201D01*
X141237200Y-106082999D01*
X141204278Y-105960130D01*
X141140676Y-105849969D01*
X141050731Y-105760024D01*
X141050730Y-105760023D01*
X141019276Y-105741863D01*
X140977724Y-105717873D01*
X140950226Y-105701997D01*
X142684000Y-105701997D01*
X142684000Y-105829202D01*
X142698516Y-105883377D01*
X142716922Y-105952070D01*
X142780524Y-106062231D01*
X142870469Y-106152176D01*
X142980630Y-106215778D01*
X143103499Y-106248700D01*
X143230701Y-106248700D01*
X143353570Y-106215778D01*
X143463731Y-106152176D01*
X143553676Y-106062231D01*
X143617278Y-105952070D01*
X143650200Y-105829201D01*
X143650200Y-105701999D01*
X143617278Y-105579130D01*
X143553676Y-105468969D01*
X143463731Y-105379024D01*
X143463730Y-105379023D01*
X143396312Y-105340099D01*
X143353570Y-105315422D01*
X143284877Y-105297016D01*
X143230702Y-105282500D01*
X143230701Y-105282500D01*
X143103499Y-105282500D01*
X143103497Y-105282500D01*
X142995146Y-105311532D01*
X142980630Y-105315422D01*
X142980627Y-105315423D01*
X142980626Y-105315424D01*
X142870469Y-105379023D01*
X142780523Y-105468969D01*
X142719190Y-105575201D01*
X142716922Y-105579130D01*
X142716921Y-105579134D01*
X142684000Y-105701997D01*
X140950226Y-105701997D01*
X140940570Y-105696422D01*
X140871877Y-105678016D01*
X140817702Y-105663500D01*
X140817701Y-105663500D01*
X140690499Y-105663500D01*
X140690497Y-105663500D01*
X140582146Y-105692532D01*
X140567630Y-105696422D01*
X140567627Y-105696423D01*
X140567626Y-105696424D01*
X140461500Y-105757696D01*
X140423711Y-105762671D01*
X140411700Y-105757696D01*
X140335502Y-105713703D01*
X140305570Y-105696422D01*
X140236877Y-105678016D01*
X140182702Y-105663500D01*
X140182701Y-105663500D01*
X140055499Y-105663500D01*
X140055497Y-105663500D01*
X139947146Y-105692532D01*
X139932630Y-105696422D01*
X139932627Y-105696423D01*
X139932626Y-105696424D01*
X139822469Y-105760023D01*
X139732523Y-105849969D01*
X139671190Y-105956201D01*
X139668922Y-105960130D01*
X139668921Y-105960134D01*
X139636000Y-106082997D01*
X138150600Y-106082997D01*
X138150600Y-105993298D01*
X138150600Y-105993297D01*
X137859403Y-105702100D01*
X137298797Y-105702100D01*
X137007600Y-105993297D01*
X137007600Y-108512670D01*
X136993014Y-108547884D01*
X136297384Y-109243514D01*
X136262170Y-109258100D01*
X133742797Y-109258100D01*
X133451600Y-109549297D01*
X133451600Y-110109903D01*
X133742797Y-110401100D01*
X134230170Y-110401100D01*
X134265384Y-110415686D01*
X134453014Y-110603316D01*
X134467600Y-110638530D01*
X134467600Y-111125903D01*
X134758797Y-111417100D01*
X136077165Y-111417100D01*
X136112379Y-111431686D01*
X136126965Y-111466900D01*
X136112379Y-111502114D01*
X136049523Y-111564969D01*
X135985924Y-111675126D01*
X135985922Y-111675130D01*
X135985921Y-111675134D01*
X135953000Y-111797997D01*
X135953000Y-111797999D01*
X135953000Y-111925201D01*
X135985922Y-112048070D01*
X135985924Y-112048073D01*
X136049523Y-112158230D01*
X136112379Y-112221086D01*
X136126965Y-112256300D01*
X136112379Y-112291514D01*
X136077165Y-112306100D01*
X134504797Y-112306100D01*
X134340600Y-112470297D01*
X134340600Y-113211670D01*
X134326014Y-113246884D01*
X134265384Y-113307514D01*
X134230170Y-113322100D01*
X133488797Y-113322100D01*
X133324600Y-113486297D01*
X116776600Y-113486297D01*
X116776600Y-112559997D01*
X122618000Y-112559997D01*
X122618000Y-112687202D01*
X122619053Y-112691130D01*
X122650922Y-112810070D01*
X122714524Y-112920231D01*
X122804469Y-113010176D01*
X122914630Y-113073778D01*
X123037499Y-113106700D01*
X123164701Y-113106700D01*
X123287570Y-113073778D01*
X123397731Y-113010176D01*
X123487676Y-112920231D01*
X123549011Y-112813997D01*
X129603000Y-112813997D01*
X129603000Y-112941202D01*
X129604053Y-112945130D01*
X129635922Y-113064070D01*
X129699524Y-113174231D01*
X129789469Y-113264176D01*
X129899630Y-113327778D01*
X130022499Y-113360700D01*
X130149701Y-113360700D01*
X130272570Y-113327778D01*
X130382731Y-113264176D01*
X130472676Y-113174231D01*
X130536278Y-113064070D01*
X130569200Y-112941201D01*
X130569200Y-112813999D01*
X130536278Y-112691130D01*
X130472676Y-112580969D01*
X130382731Y-112491024D01*
X130382730Y-112491023D01*
X130292234Y-112438775D01*
X130272570Y-112427422D01*
X130203877Y-112409016D01*
X130149702Y-112394500D01*
X130149701Y-112394500D01*
X130022499Y-112394500D01*
X130022497Y-112394500D01*
X129914146Y-112423532D01*
X129899630Y-112427422D01*
X129899627Y-112427423D01*
X129899626Y-112427424D01*
X129789469Y-112491023D01*
X129699523Y-112580969D01*
X129638190Y-112687201D01*
X129635922Y-112691130D01*
X129635921Y-112691134D01*
X129603000Y-112813997D01*
X123549011Y-112813997D01*
X123551278Y-112810070D01*
X123584200Y-112687201D01*
X123584200Y-112559999D01*
X123551278Y-112437130D01*
X123487676Y-112326969D01*
X123397731Y-112237024D01*
X123397730Y-112237023D01*
X123330312Y-112198099D01*
X123287570Y-112173422D01*
X123218877Y-112155016D01*
X123164702Y-112140500D01*
X123164701Y-112140500D01*
X123037499Y-112140500D01*
X123037497Y-112140500D01*
X122929146Y-112169532D01*
X122914630Y-112173422D01*
X122914627Y-112173423D01*
X122914626Y-112173424D01*
X122804469Y-112237023D01*
X122714523Y-112326969D01*
X122653190Y-112433201D01*
X122650922Y-112437130D01*
X122650921Y-112437134D01*
X122618000Y-112559997D01*
X116776600Y-112559997D01*
X116776600Y-111035997D01*
X129857000Y-111035997D01*
X129857000Y-111035999D01*
X129857000Y-111163201D01*
X129889922Y-111286070D01*
X129953524Y-111396231D01*
X130043469Y-111486176D01*
X130153630Y-111549778D01*
X130276499Y-111582700D01*
X130403701Y-111582700D01*
X130526570Y-111549778D01*
X130636731Y-111486176D01*
X130726676Y-111396231D01*
X130790278Y-111286070D01*
X130823200Y-111163201D01*
X130823200Y-111035999D01*
X130790278Y-110913130D01*
X130726676Y-110802969D01*
X130636731Y-110713024D01*
X130636730Y-110713023D01*
X130526573Y-110649424D01*
X130526574Y-110649424D01*
X130526570Y-110649422D01*
X130457877Y-110631016D01*
X130403702Y-110616500D01*
X130403701Y-110616500D01*
X130276499Y-110616500D01*
X130276497Y-110616500D01*
X130194280Y-110638530D01*
X130153630Y-110649422D01*
X130153627Y-110649423D01*
X130153626Y-110649424D01*
X130043469Y-110713023D01*
X129953523Y-110802969D01*
X129889924Y-110913126D01*
X129889922Y-110913130D01*
X129889921Y-110913134D01*
X129857000Y-111035997D01*
X116776600Y-111035997D01*
X116776600Y-110019997D01*
X122618000Y-110019997D01*
X122618000Y-110147202D01*
X122632516Y-110201377D01*
X122650922Y-110270070D01*
X122714524Y-110380231D01*
X122804469Y-110470176D01*
X122914630Y-110533778D01*
X123037499Y-110566700D01*
X123164701Y-110566700D01*
X123287570Y-110533778D01*
X123397731Y-110470176D01*
X123487676Y-110380231D01*
X123551278Y-110270070D01*
X123584200Y-110147201D01*
X123584200Y-110019999D01*
X123551278Y-109897130D01*
X123487676Y-109786969D01*
X123397731Y-109697024D01*
X123397730Y-109697023D01*
X123297579Y-109639201D01*
X123287570Y-109633422D01*
X123218877Y-109615016D01*
X123164702Y-109600500D01*
X123164701Y-109600500D01*
X123037499Y-109600500D01*
X123037497Y-109600500D01*
X122954097Y-109622847D01*
X122914630Y-109633422D01*
X122914627Y-109633423D01*
X122914626Y-109633424D01*
X122804469Y-109697023D01*
X122714523Y-109786969D01*
X122653073Y-109893404D01*
X122650922Y-109897130D01*
X122650921Y-109897134D01*
X122618000Y-110019997D01*
X116776600Y-110019997D01*
X116776600Y-107479997D01*
X122618000Y-107479997D01*
X122618000Y-107607202D01*
X122619053Y-107611130D01*
X122650922Y-107730070D01*
X122714524Y-107840231D01*
X122804469Y-107930176D01*
X122914630Y-107993778D01*
X123037499Y-108026700D01*
X123164701Y-108026700D01*
X123287570Y-107993778D01*
X123397731Y-107930176D01*
X123487676Y-107840231D01*
X123551278Y-107730070D01*
X123584200Y-107607201D01*
X123584200Y-107479999D01*
X123551278Y-107357130D01*
X123487676Y-107246969D01*
X123397731Y-107157024D01*
X123397730Y-107157023D01*
X123330312Y-107118099D01*
X123287570Y-107093422D01*
X123218877Y-107075016D01*
X123164702Y-107060500D01*
X123164701Y-107060500D01*
X123037499Y-107060500D01*
X123037497Y-107060500D01*
X122929146Y-107089532D01*
X122914630Y-107093422D01*
X122914627Y-107093423D01*
X122914626Y-107093424D01*
X122804469Y-107157023D01*
X122714523Y-107246969D01*
X122653190Y-107353201D01*
X122650922Y-107357130D01*
X122650921Y-107357134D01*
X122618000Y-107479997D01*
X116776600Y-107479997D01*
X116776600Y-104939997D01*
X122618000Y-104939997D01*
X122618000Y-105067202D01*
X122619494Y-105072778D01*
X122650922Y-105190070D01*
X122714524Y-105300231D01*
X122804469Y-105390176D01*
X122914630Y-105453778D01*
X123037499Y-105486700D01*
X123164701Y-105486700D01*
X123287570Y-105453778D01*
X123397731Y-105390176D01*
X123487676Y-105300231D01*
X123551278Y-105190070D01*
X123584200Y-105067201D01*
X123584200Y-105066997D01*
X145478000Y-105066997D01*
X145478000Y-105194202D01*
X145492516Y-105248377D01*
X145510922Y-105317070D01*
X145515578Y-105325134D01*
X145570252Y-105419833D01*
X145574524Y-105427231D01*
X145664469Y-105517176D01*
X145774630Y-105580778D01*
X145897499Y-105613700D01*
X146024701Y-105613700D01*
X146147570Y-105580778D01*
X146257731Y-105517176D01*
X146347676Y-105427231D01*
X146411278Y-105317070D01*
X146444200Y-105194201D01*
X146444200Y-105066999D01*
X146411278Y-104944130D01*
X146408892Y-104939997D01*
X154622000Y-104939997D01*
X154622000Y-105067202D01*
X154623494Y-105072778D01*
X154654922Y-105190070D01*
X154718524Y-105300231D01*
X154808469Y-105390176D01*
X154918630Y-105453778D01*
X155041499Y-105486700D01*
X155168701Y-105486700D01*
X155291570Y-105453778D01*
X155401653Y-105390220D01*
X155439441Y-105385246D01*
X155469680Y-105408449D01*
X155480523Y-105427230D01*
X155570470Y-105517177D01*
X155589249Y-105528019D01*
X155612453Y-105558257D01*
X155607478Y-105596046D01*
X155607478Y-105596047D01*
X155543924Y-105706126D01*
X155543922Y-105706130D01*
X155543921Y-105706134D01*
X155511000Y-105828997D01*
X155511000Y-105956202D01*
X155525516Y-106010377D01*
X155543922Y-106079070D01*
X155607524Y-106189231D01*
X155697469Y-106279176D01*
X155807630Y-106342778D01*
X155930499Y-106375700D01*
X156057701Y-106375700D01*
X156180570Y-106342778D01*
X156290731Y-106279176D01*
X156380676Y-106189231D01*
X156444278Y-106079070D01*
X156477200Y-105956201D01*
X156477200Y-105828999D01*
X156444278Y-105706130D01*
X156380676Y-105595969D01*
X156290731Y-105506024D01*
X156290730Y-105506023D01*
X156271949Y-105495180D01*
X156271948Y-105495179D01*
X156271947Y-105495179D01*
X156255763Y-105474087D01*
X156248746Y-105464941D01*
X156248746Y-105464940D01*
X156248745Y-105464939D01*
X156250976Y-105447997D01*
X156908000Y-105447997D01*
X156908000Y-105575202D01*
X156922516Y-105629377D01*
X156940922Y-105698070D01*
X157004524Y-105808231D01*
X157094469Y-105898176D01*
X157204630Y-105961778D01*
X157327499Y-105994700D01*
X157454701Y-105994700D01*
X157577570Y-105961778D01*
X157687731Y-105898176D01*
X157777676Y-105808231D01*
X157841278Y-105698070D01*
X157874200Y-105575201D01*
X157874200Y-105447999D01*
X157841278Y-105325130D01*
X157777676Y-105214969D01*
X157687731Y-105125024D01*
X157687730Y-105125023D01*
X157587579Y-105067201D01*
X157577570Y-105061422D01*
X157508877Y-105043016D01*
X157454702Y-105028500D01*
X157454701Y-105028500D01*
X157327499Y-105028500D01*
X157327497Y-105028500D01*
X157219146Y-105057532D01*
X157204630Y-105061422D01*
X157204627Y-105061423D01*
X157204626Y-105061424D01*
X157094469Y-105125023D01*
X157004523Y-105214969D01*
X156940924Y-105325126D01*
X156940922Y-105325130D01*
X156940921Y-105325134D01*
X156908000Y-105447997D01*
X156250976Y-105447997D01*
X156251374Y-105444976D01*
X156251274Y-105444735D01*
X156251533Y-105443766D01*
X156253126Y-105431672D01*
X156253720Y-105427153D01*
X156317278Y-105317070D01*
X156350200Y-105194201D01*
X156350200Y-105133597D01*
X156364786Y-105098383D01*
X156387111Y-105085494D01*
X156434570Y-105072778D01*
X156544731Y-105009176D01*
X156634676Y-104919231D01*
X156698278Y-104809070D01*
X156714601Y-104748148D01*
X156737804Y-104717910D01*
X156775592Y-104712935D01*
X156819499Y-104724700D01*
X156819500Y-104724700D01*
X156946701Y-104724700D01*
X157069570Y-104691778D01*
X157179731Y-104628176D01*
X157269676Y-104538231D01*
X157333278Y-104428070D01*
X157366200Y-104305201D01*
X157366200Y-104177999D01*
X157333278Y-104055130D01*
X157269676Y-103944969D01*
X157248704Y-103923997D01*
X157543000Y-103923997D01*
X157543000Y-104051202D01*
X157544053Y-104055130D01*
X157575922Y-104174070D01*
X157639524Y-104284231D01*
X157729469Y-104374176D01*
X157839630Y-104437778D01*
X157962499Y-104470700D01*
X158089701Y-104470700D01*
X158212570Y-104437778D01*
X158322731Y-104374176D01*
X158412676Y-104284231D01*
X158476278Y-104174070D01*
X158509200Y-104051201D01*
X158509200Y-103923999D01*
X158476278Y-103801130D01*
X158473892Y-103796997D01*
X166560000Y-103796997D01*
X166560000Y-103924202D01*
X166565565Y-103944970D01*
X166592922Y-104047070D01*
X166597577Y-104055132D01*
X166650206Y-104146289D01*
X166656524Y-104157231D01*
X166746469Y-104247176D01*
X166856630Y-104310778D01*
X166979499Y-104343700D01*
X167106701Y-104343700D01*
X167229570Y-104310778D01*
X167339731Y-104247176D01*
X167429676Y-104157231D01*
X167493278Y-104047070D01*
X167526200Y-103924201D01*
X167526200Y-103796999D01*
X167493278Y-103674130D01*
X167429676Y-103563969D01*
X167339731Y-103474024D01*
X167339730Y-103474023D01*
X167229573Y-103410424D01*
X167229574Y-103410424D01*
X167229570Y-103410422D01*
X167160877Y-103392016D01*
X167106702Y-103377500D01*
X167106701Y-103377500D01*
X166979499Y-103377500D01*
X166979497Y-103377500D01*
X166871146Y-103406532D01*
X166856630Y-103410422D01*
X166856627Y-103410423D01*
X166856626Y-103410424D01*
X166746469Y-103474023D01*
X166656523Y-103563969D01*
X166595308Y-103669997D01*
X166592922Y-103674130D01*
X166592921Y-103674134D01*
X166560000Y-103796997D01*
X158473892Y-103796997D01*
X158412676Y-103690969D01*
X158322731Y-103601024D01*
X158322730Y-103601023D01*
X158255312Y-103562099D01*
X158212570Y-103537422D01*
X158143877Y-103519016D01*
X158089702Y-103504500D01*
X158089701Y-103504500D01*
X157962499Y-103504500D01*
X157962497Y-103504500D01*
X157854146Y-103533532D01*
X157839630Y-103537422D01*
X157839627Y-103537423D01*
X157839626Y-103537424D01*
X157729469Y-103601023D01*
X157639523Y-103690969D01*
X157578308Y-103796997D01*
X157575922Y-103801130D01*
X157575921Y-103801134D01*
X157543000Y-103923997D01*
X157248704Y-103923997D01*
X157179731Y-103855024D01*
X157179730Y-103855023D01*
X157089234Y-103802775D01*
X157069570Y-103791422D01*
X157000877Y-103773016D01*
X156946702Y-103758500D01*
X156946701Y-103758500D01*
X156819499Y-103758500D01*
X156819497Y-103758500D01*
X156711146Y-103787532D01*
X156696630Y-103791422D01*
X156696627Y-103791423D01*
X156696626Y-103791424D01*
X156586469Y-103855023D01*
X156496523Y-103944969D01*
X156432924Y-104055126D01*
X156432921Y-104055132D01*
X156416598Y-104116051D01*
X156393395Y-104146289D01*
X156355606Y-104151264D01*
X156311702Y-104139500D01*
X156311701Y-104139500D01*
X156184499Y-104139500D01*
X156184497Y-104139500D01*
X156092491Y-104164153D01*
X156061630Y-104172422D01*
X156061627Y-104172423D01*
X156061626Y-104172424D01*
X155951469Y-104236023D01*
X155861523Y-104325969D01*
X155797924Y-104436126D01*
X155797922Y-104436130D01*
X155797921Y-104436134D01*
X155765000Y-104558997D01*
X155765000Y-104619602D01*
X155750414Y-104654816D01*
X155728090Y-104667705D01*
X155680632Y-104680421D01*
X155680626Y-104680424D01*
X155570547Y-104743978D01*
X155532758Y-104748953D01*
X155502519Y-104725750D01*
X155502519Y-104725749D01*
X155491677Y-104706970D01*
X155401730Y-104617023D01*
X155311234Y-104564775D01*
X155291570Y-104553422D01*
X155222877Y-104535016D01*
X155168702Y-104520500D01*
X155168701Y-104520500D01*
X155041499Y-104520500D01*
X155041497Y-104520500D01*
X154933146Y-104549532D01*
X154918630Y-104553422D01*
X154918627Y-104553423D01*
X154918626Y-104553424D01*
X154808469Y-104617023D01*
X154718523Y-104706969D01*
X154654924Y-104817126D01*
X154654922Y-104817130D01*
X154654921Y-104817134D01*
X154622000Y-104939997D01*
X146408892Y-104939997D01*
X146347676Y-104833969D01*
X146257731Y-104744024D01*
X146257730Y-104744023D01*
X146147573Y-104680424D01*
X146147574Y-104680424D01*
X146147570Y-104680422D01*
X146063198Y-104657815D01*
X146024702Y-104647500D01*
X146024701Y-104647500D01*
X145897499Y-104647500D01*
X145897497Y-104647500D01*
X145822091Y-104667705D01*
X145774630Y-104680422D01*
X145774627Y-104680423D01*
X145774626Y-104680424D01*
X145664469Y-104744023D01*
X145574523Y-104833969D01*
X145513308Y-104939997D01*
X145510922Y-104944130D01*
X145510921Y-104944134D01*
X145478000Y-105066997D01*
X123584200Y-105066997D01*
X123584200Y-104939999D01*
X123551278Y-104817130D01*
X123487676Y-104706969D01*
X123397731Y-104617024D01*
X123397730Y-104617023D01*
X123307234Y-104564775D01*
X123287570Y-104553422D01*
X123218877Y-104535016D01*
X123164702Y-104520500D01*
X123164701Y-104520500D01*
X123037499Y-104520500D01*
X123037497Y-104520500D01*
X122929146Y-104549532D01*
X122914630Y-104553422D01*
X122914627Y-104553423D01*
X122914626Y-104553424D01*
X122804469Y-104617023D01*
X122714523Y-104706969D01*
X122650924Y-104817126D01*
X122650922Y-104817130D01*
X122650921Y-104817134D01*
X122618000Y-104939997D01*
X116776600Y-104939997D01*
X116776600Y-104050997D01*
X139636000Y-104050997D01*
X139636000Y-104178202D01*
X139650516Y-104232377D01*
X139668922Y-104301070D01*
X139732524Y-104411231D01*
X139822469Y-104501176D01*
X139932630Y-104564778D01*
X140055499Y-104597700D01*
X140182701Y-104597700D01*
X140305570Y-104564778D01*
X140415731Y-104501176D01*
X140505676Y-104411231D01*
X140569278Y-104301070D01*
X140585601Y-104240148D01*
X140608804Y-104209910D01*
X140646592Y-104204935D01*
X140690499Y-104216700D01*
X140690500Y-104216700D01*
X140817701Y-104216700D01*
X140940570Y-104183778D01*
X141050731Y-104120176D01*
X141140676Y-104030231D01*
X141202011Y-103923997D01*
X145224000Y-103923997D01*
X145224000Y-104051202D01*
X145225053Y-104055130D01*
X145256922Y-104174070D01*
X145320524Y-104284231D01*
X145410469Y-104374176D01*
X145520630Y-104437778D01*
X145643499Y-104470700D01*
X145770701Y-104470700D01*
X145893570Y-104437778D01*
X146003731Y-104374176D01*
X146093676Y-104284231D01*
X146157278Y-104174070D01*
X146190200Y-104051201D01*
X146190200Y-103923999D01*
X146157278Y-103801130D01*
X146093676Y-103690969D01*
X146003731Y-103601024D01*
X146003730Y-103601023D01*
X145936312Y-103562099D01*
X145893570Y-103537422D01*
X145824877Y-103519016D01*
X145770702Y-103504500D01*
X145770701Y-103504500D01*
X145643499Y-103504500D01*
X145643497Y-103504500D01*
X145535146Y-103533532D01*
X145520630Y-103537422D01*
X145520627Y-103537423D01*
X145520626Y-103537424D01*
X145410469Y-103601023D01*
X145320523Y-103690969D01*
X145259308Y-103796997D01*
X145256922Y-103801130D01*
X145256921Y-103801134D01*
X145224000Y-103923997D01*
X141202011Y-103923997D01*
X141204278Y-103920070D01*
X141237200Y-103797201D01*
X141237200Y-103669999D01*
X141204278Y-103547130D01*
X141140676Y-103436969D01*
X141050731Y-103347024D01*
X141050730Y-103347023D01*
X141019276Y-103328863D01*
X140960234Y-103294775D01*
X140950226Y-103288997D01*
X146240000Y-103288997D01*
X146240000Y-103416202D01*
X146254516Y-103470377D01*
X146272922Y-103539070D01*
X146277577Y-103547132D01*
X146330206Y-103638289D01*
X146336524Y-103649231D01*
X146426469Y-103739176D01*
X146536630Y-103802778D01*
X146659499Y-103835700D01*
X146786701Y-103835700D01*
X146909570Y-103802778D01*
X147019731Y-103739176D01*
X147109676Y-103649231D01*
X147173278Y-103539070D01*
X147206200Y-103416201D01*
X147206200Y-103288999D01*
X147173278Y-103166130D01*
X147109676Y-103055969D01*
X147019731Y-102966024D01*
X147019730Y-102966023D01*
X146929234Y-102913775D01*
X146909570Y-102902422D01*
X146840877Y-102884016D01*
X146786702Y-102869500D01*
X146786701Y-102869500D01*
X146659499Y-102869500D01*
X146659497Y-102869500D01*
X146551146Y-102898532D01*
X146536630Y-102902422D01*
X146536627Y-102902423D01*
X146536626Y-102902424D01*
X146426469Y-102966023D01*
X146336523Y-103055969D01*
X146272924Y-103166126D01*
X146272922Y-103166130D01*
X146272921Y-103166134D01*
X146240000Y-103288997D01*
X140950226Y-103288997D01*
X140940570Y-103283422D01*
X140871877Y-103265016D01*
X140817702Y-103250500D01*
X140817701Y-103250500D01*
X140690499Y-103250500D01*
X140690497Y-103250500D01*
X140582146Y-103279532D01*
X140567630Y-103283422D01*
X140567627Y-103283423D01*
X140567626Y-103283424D01*
X140457469Y-103347023D01*
X140367523Y-103436969D01*
X140303924Y-103547126D01*
X140303921Y-103547132D01*
X140287598Y-103608051D01*
X140264395Y-103638289D01*
X140226606Y-103643264D01*
X140182702Y-103631500D01*
X140182701Y-103631500D01*
X140055499Y-103631500D01*
X140055497Y-103631500D01*
X139963491Y-103656153D01*
X139932630Y-103664422D01*
X139932627Y-103664423D01*
X139932626Y-103664424D01*
X139822469Y-103728023D01*
X139732523Y-103817969D01*
X139671308Y-103923997D01*
X139668922Y-103928130D01*
X139668921Y-103928134D01*
X139636000Y-104050997D01*
X116776600Y-104050997D01*
X116776600Y-102399997D01*
X122618000Y-102399997D01*
X122618000Y-102527202D01*
X122632516Y-102581377D01*
X122650922Y-102650070D01*
X122714524Y-102760231D01*
X122804469Y-102850176D01*
X122914630Y-102913778D01*
X123037499Y-102946700D01*
X123164701Y-102946700D01*
X123287570Y-102913778D01*
X123397731Y-102850176D01*
X123487676Y-102760231D01*
X123551278Y-102650070D01*
X123584200Y-102527201D01*
X123584200Y-102399999D01*
X123551278Y-102277130D01*
X123487676Y-102166969D01*
X123397731Y-102077024D01*
X123397730Y-102077023D01*
X123287573Y-102013424D01*
X123287574Y-102013424D01*
X123287570Y-102013422D01*
X123218877Y-101995016D01*
X123164702Y-101980500D01*
X123164701Y-101980500D01*
X123037499Y-101980500D01*
X123037497Y-101980500D01*
X122929146Y-102009532D01*
X122914630Y-102013422D01*
X122914627Y-102013423D01*
X122914626Y-102013424D01*
X122804469Y-102077023D01*
X122714523Y-102166969D01*
X122650924Y-102277126D01*
X122650922Y-102277130D01*
X122650921Y-102277134D01*
X122618000Y-102399997D01*
X116776600Y-102399997D01*
X116776600Y-101637997D01*
X132143000Y-101637997D01*
X132143000Y-101637999D01*
X132143000Y-101765201D01*
X132175922Y-101888070D01*
X132239524Y-101998231D01*
X132329469Y-102088176D01*
X132439630Y-102151778D01*
X132562499Y-102184700D01*
X132689701Y-102184700D01*
X132812570Y-102151778D01*
X132922731Y-102088176D01*
X133012676Y-101998231D01*
X133076278Y-101888070D01*
X133109200Y-101765201D01*
X133109200Y-101637999D01*
X133076278Y-101515130D01*
X133012676Y-101404969D01*
X132922731Y-101315024D01*
X132922730Y-101315023D01*
X132832234Y-101262775D01*
X132812570Y-101251422D01*
X132743877Y-101233016D01*
X132689702Y-101218500D01*
X132689701Y-101218500D01*
X132562499Y-101218500D01*
X132562497Y-101218500D01*
X132454146Y-101247532D01*
X132439630Y-101251422D01*
X132439627Y-101251423D01*
X132439626Y-101251424D01*
X132329469Y-101315023D01*
X132239523Y-101404969D01*
X132178190Y-101511201D01*
X132175922Y-101515130D01*
X132175921Y-101515134D01*
X132143000Y-101637997D01*
X116776600Y-101637997D01*
X116776600Y-100494997D01*
X129603000Y-100494997D01*
X129603000Y-100622202D01*
X129604053Y-100626130D01*
X129635922Y-100745070D01*
X129699524Y-100855231D01*
X129789469Y-100945176D01*
X129899630Y-101008778D01*
X130022499Y-101041700D01*
X130149701Y-101041700D01*
X130272570Y-101008778D01*
X130382731Y-100945176D01*
X130472676Y-100855231D01*
X130536278Y-100745070D01*
X130569200Y-100622201D01*
X130569200Y-100494999D01*
X130536278Y-100372130D01*
X130472676Y-100261969D01*
X130382731Y-100172024D01*
X130382730Y-100172023D01*
X130315280Y-100133081D01*
X130272570Y-100108422D01*
X130203877Y-100090016D01*
X130149702Y-100075500D01*
X130149701Y-100075500D01*
X130022499Y-100075500D01*
X130022497Y-100075500D01*
X129914146Y-100104532D01*
X129899630Y-100108422D01*
X129899627Y-100108423D01*
X129899626Y-100108424D01*
X129789469Y-100172023D01*
X129699523Y-100261969D01*
X129638308Y-100367997D01*
X129635922Y-100372130D01*
X129635921Y-100372134D01*
X129603000Y-100494997D01*
X116776600Y-100494997D01*
X116776600Y-99859997D01*
X122618000Y-99859997D01*
X122618000Y-99859999D01*
X122618000Y-99987201D01*
X122650922Y-100110070D01*
X122714524Y-100220231D01*
X122804469Y-100310176D01*
X122914630Y-100373778D01*
X123037499Y-100406700D01*
X123164701Y-100406700D01*
X123287570Y-100373778D01*
X123397731Y-100310176D01*
X123487676Y-100220231D01*
X123551278Y-100110070D01*
X123584200Y-99987201D01*
X123584200Y-99859999D01*
X123551278Y-99737130D01*
X123487676Y-99626969D01*
X123397731Y-99537024D01*
X123397730Y-99537023D01*
X123299649Y-99480396D01*
X123287570Y-99473422D01*
X123172565Y-99442607D01*
X123164702Y-99440500D01*
X123164701Y-99440500D01*
X123037499Y-99440500D01*
X123037497Y-99440500D01*
X122929146Y-99469532D01*
X122914630Y-99473422D01*
X122914627Y-99473423D01*
X122914626Y-99473424D01*
X122804469Y-99537023D01*
X122714523Y-99626969D01*
X122664521Y-99713576D01*
X122650922Y-99737130D01*
X122650921Y-99737134D01*
X122618000Y-99859997D01*
X116776600Y-99859997D01*
X116776600Y-97319997D01*
X122618000Y-97319997D01*
X122618000Y-97319999D01*
X122618000Y-97447201D01*
X122650922Y-97570070D01*
X122714524Y-97680231D01*
X122804469Y-97770176D01*
X122914630Y-97833778D01*
X123037499Y-97866700D01*
X123164701Y-97866700D01*
X123287570Y-97833778D01*
X123397731Y-97770176D01*
X123487676Y-97680231D01*
X123551278Y-97570070D01*
X123584200Y-97447201D01*
X123584200Y-97319999D01*
X123551278Y-97197130D01*
X123487676Y-97086969D01*
X123397731Y-96997024D01*
X123397730Y-96997023D01*
X123287573Y-96933424D01*
X123287574Y-96933424D01*
X123287570Y-96933422D01*
X123218877Y-96915016D01*
X123164702Y-96900500D01*
X123164701Y-96900500D01*
X123037499Y-96900500D01*
X123037497Y-96900500D01*
X122955280Y-96922530D01*
X122914630Y-96933422D01*
X122914627Y-96933423D01*
X122914626Y-96933424D01*
X122804469Y-96997023D01*
X122714523Y-97086969D01*
X122653308Y-97192997D01*
X122650922Y-97197130D01*
X122650921Y-97197134D01*
X122618000Y-97319997D01*
X116776600Y-97319997D01*
X116776600Y-95706297D01*
X133451600Y-95706297D01*
X133451600Y-96520903D01*
X133615797Y-96685100D01*
X134230170Y-96685100D01*
X134265384Y-96699686D01*
X134453014Y-96887316D01*
X134467600Y-96922530D01*
X134467600Y-97409903D01*
X134758797Y-97701100D01*
X136077165Y-97701100D01*
X136112379Y-97715686D01*
X136126965Y-97750900D01*
X136112379Y-97786114D01*
X136049523Y-97848969D01*
X135988308Y-97954997D01*
X135985922Y-97959130D01*
X135985921Y-97959134D01*
X135953000Y-98081997D01*
X135953000Y-98081999D01*
X135953000Y-98209201D01*
X135985922Y-98332070D01*
X135985924Y-98332073D01*
X136049523Y-98442230D01*
X136112379Y-98505086D01*
X136126965Y-98540300D01*
X136112379Y-98575514D01*
X136077165Y-98590100D01*
X134758797Y-98590100D01*
X134467600Y-98881297D01*
X134467600Y-99368670D01*
X134453014Y-99403884D01*
X134265384Y-99591514D01*
X134230170Y-99606100D01*
X133451600Y-99606100D01*
X133451600Y-100749100D01*
X135754170Y-100749100D01*
X135789384Y-100763686D01*
X135977014Y-100951316D01*
X135991600Y-100986530D01*
X135991600Y-101981903D01*
X136282797Y-102273100D01*
X136770170Y-102273100D01*
X136805384Y-102287686D01*
X136993014Y-102475316D01*
X137007600Y-102510530D01*
X137007600Y-102997903D01*
X137298797Y-103289100D01*
X137298798Y-103289100D01*
X138875402Y-103289100D01*
X138875403Y-103289100D01*
X139166600Y-102997903D01*
X139166600Y-102146100D01*
X165455600Y-102146100D01*
X166684165Y-102146100D01*
X166719379Y-102160686D01*
X166733965Y-102195900D01*
X166719379Y-102231114D01*
X166656523Y-102293969D01*
X166597538Y-102396135D01*
X166592922Y-102404130D01*
X166592921Y-102404134D01*
X166560000Y-102526997D01*
X166560000Y-102654202D01*
X166574516Y-102708377D01*
X166592922Y-102777070D01*
X166597578Y-102785134D01*
X166637865Y-102854914D01*
X166656524Y-102887231D01*
X166746469Y-102977176D01*
X166856630Y-103040778D01*
X166979499Y-103073700D01*
X167106701Y-103073700D01*
X167179548Y-103054181D01*
X167196086Y-103049750D01*
X167233875Y-103054725D01*
X167252103Y-103072953D01*
X167291524Y-103141231D01*
X167381469Y-103231176D01*
X167491630Y-103294778D01*
X167614499Y-103327700D01*
X167653200Y-103327700D01*
X167688414Y-103342286D01*
X167703000Y-103377500D01*
X167703000Y-103416202D01*
X167717516Y-103470377D01*
X167735922Y-103539070D01*
X167740577Y-103547132D01*
X167793206Y-103638289D01*
X167799524Y-103649231D01*
X167889469Y-103739176D01*
X167999630Y-103802778D01*
X168122499Y-103835700D01*
X168161200Y-103835700D01*
X168196414Y-103850286D01*
X168211000Y-103885500D01*
X168211000Y-103924202D01*
X168216565Y-103944970D01*
X168243922Y-104047070D01*
X168248577Y-104055132D01*
X168301206Y-104146289D01*
X168307524Y-104157231D01*
X168397469Y-104247176D01*
X168507630Y-104310778D01*
X168630499Y-104343700D01*
X168757701Y-104343700D01*
X168880570Y-104310778D01*
X168990731Y-104247176D01*
X169080676Y-104157231D01*
X169144278Y-104047070D01*
X169177200Y-103924201D01*
X169177200Y-103796999D01*
X169144278Y-103674130D01*
X169080676Y-103563969D01*
X168990731Y-103474024D01*
X168990730Y-103474023D01*
X168880573Y-103410424D01*
X168880574Y-103410424D01*
X168880570Y-103410422D01*
X168811877Y-103392016D01*
X168757702Y-103377500D01*
X168757701Y-103377500D01*
X168719000Y-103377500D01*
X168683786Y-103362914D01*
X168669200Y-103327700D01*
X168669200Y-103288999D01*
X168669199Y-103288997D01*
X168667706Y-103283424D01*
X168636278Y-103166130D01*
X168572676Y-103055969D01*
X168482731Y-102966024D01*
X168482730Y-102966023D01*
X168451276Y-102947863D01*
X168392234Y-102913775D01*
X168382226Y-102907997D01*
X170878000Y-102907997D01*
X170878000Y-103035202D01*
X170892516Y-103089377D01*
X170910922Y-103158070D01*
X170974524Y-103268231D01*
X171064469Y-103358176D01*
X171174630Y-103421778D01*
X171297499Y-103454700D01*
X171424701Y-103454700D01*
X171547570Y-103421778D01*
X171657731Y-103358176D01*
X171747676Y-103268231D01*
X171811278Y-103158070D01*
X171844200Y-103035201D01*
X171844200Y-102907999D01*
X171811278Y-102785130D01*
X171747676Y-102674969D01*
X171657731Y-102585024D01*
X171657730Y-102585023D01*
X171557579Y-102527201D01*
X171547570Y-102521422D01*
X171478877Y-102503016D01*
X171424702Y-102488500D01*
X171424701Y-102488500D01*
X171297499Y-102488500D01*
X171297497Y-102488500D01*
X171215280Y-102510530D01*
X171174630Y-102521422D01*
X171174627Y-102521423D01*
X171174626Y-102521424D01*
X171064469Y-102585023D01*
X170974523Y-102674969D01*
X170913308Y-102780997D01*
X170910922Y-102785130D01*
X170910921Y-102785134D01*
X170878000Y-102907997D01*
X168382226Y-102907997D01*
X168372570Y-102902422D01*
X168303877Y-102884016D01*
X168249702Y-102869500D01*
X168249701Y-102869500D01*
X168211000Y-102869500D01*
X168175786Y-102854914D01*
X168161200Y-102819700D01*
X168161200Y-102780999D01*
X168161199Y-102780997D01*
X168160147Y-102777070D01*
X168128278Y-102658130D01*
X168064676Y-102547969D01*
X167974731Y-102458024D01*
X167974730Y-102458023D01*
X167907312Y-102419099D01*
X167864570Y-102394422D01*
X167795877Y-102376016D01*
X167741702Y-102361500D01*
X167741701Y-102361500D01*
X167614499Y-102361500D01*
X167614495Y-102361500D01*
X167525112Y-102385449D01*
X167487323Y-102380474D01*
X167469096Y-102362246D01*
X167429676Y-102293969D01*
X167366821Y-102231114D01*
X167352235Y-102195900D01*
X167366821Y-102160686D01*
X167402035Y-102146100D01*
X167868600Y-102146100D01*
X167868600Y-100494997D01*
X171386000Y-100494997D01*
X171386000Y-100622202D01*
X171387053Y-100626130D01*
X171418922Y-100745070D01*
X171482524Y-100855231D01*
X171572469Y-100945176D01*
X171682630Y-101008778D01*
X171805499Y-101041700D01*
X171932701Y-101041700D01*
X172055570Y-101008778D01*
X172165731Y-100945176D01*
X172255676Y-100855231D01*
X172319278Y-100745070D01*
X172352200Y-100622201D01*
X172352200Y-100494999D01*
X172319278Y-100372130D01*
X172255676Y-100261969D01*
X172165731Y-100172024D01*
X172165730Y-100172023D01*
X172098280Y-100133081D01*
X172055570Y-100108422D01*
X171986877Y-100090016D01*
X171932702Y-100075500D01*
X171932701Y-100075500D01*
X171805499Y-100075500D01*
X171805497Y-100075500D01*
X171697146Y-100104532D01*
X171682630Y-100108422D01*
X171682627Y-100108423D01*
X171682626Y-100108424D01*
X171572469Y-100172023D01*
X171482523Y-100261969D01*
X171421308Y-100367997D01*
X171418922Y-100372130D01*
X171418921Y-100372134D01*
X171386000Y-100494997D01*
X167868600Y-100494997D01*
X167868600Y-100155535D01*
X167883186Y-100120321D01*
X167918400Y-100105735D01*
X167953614Y-100120321D01*
X168016469Y-100183176D01*
X168126630Y-100246778D01*
X168249499Y-100279700D01*
X168376701Y-100279700D01*
X168499570Y-100246778D01*
X168609731Y-100183176D01*
X168699676Y-100093231D01*
X168763278Y-99983070D01*
X168796200Y-99860201D01*
X168796200Y-99732999D01*
X168763278Y-99610130D01*
X168699676Y-99499969D01*
X168609731Y-99410024D01*
X168609730Y-99410023D01*
X168499573Y-99346424D01*
X168499574Y-99346424D01*
X168499570Y-99346422D01*
X168430877Y-99328016D01*
X168376702Y-99313500D01*
X168376701Y-99313500D01*
X168249499Y-99313500D01*
X168249497Y-99313500D01*
X168141146Y-99342532D01*
X168126630Y-99346422D01*
X168126627Y-99346423D01*
X168126626Y-99346424D01*
X168016469Y-99410023D01*
X167953614Y-99472879D01*
X167918400Y-99487465D01*
X167883186Y-99472879D01*
X167868600Y-99437665D01*
X167868600Y-99224997D01*
X171386000Y-99224997D01*
X171386000Y-99224999D01*
X171386000Y-99352201D01*
X171418922Y-99475070D01*
X171482524Y-99585231D01*
X171572469Y-99675176D01*
X171682630Y-99738778D01*
X171805499Y-99771700D01*
X171932701Y-99771700D01*
X172055570Y-99738778D01*
X172165731Y-99675176D01*
X172255676Y-99585231D01*
X172319278Y-99475070D01*
X172352200Y-99352201D01*
X172352200Y-99224999D01*
X172319278Y-99102130D01*
X172255676Y-98991969D01*
X172165731Y-98902024D01*
X172165730Y-98902023D01*
X172065579Y-98844201D01*
X172055570Y-98838422D01*
X171986877Y-98820016D01*
X171932702Y-98805500D01*
X171932701Y-98805500D01*
X171805499Y-98805500D01*
X171805497Y-98805500D01*
X171697146Y-98834532D01*
X171682630Y-98838422D01*
X171682627Y-98838423D01*
X171682626Y-98838424D01*
X171572469Y-98902023D01*
X171482523Y-98991969D01*
X171418924Y-99102126D01*
X171418922Y-99102130D01*
X171418921Y-99102134D01*
X171386000Y-99224997D01*
X167868600Y-99224997D01*
X167868600Y-97954997D01*
X171386000Y-97954997D01*
X171386000Y-97954999D01*
X171386000Y-98082201D01*
X171418922Y-98205070D01*
X171482524Y-98315231D01*
X171572469Y-98405176D01*
X171682630Y-98468778D01*
X171805499Y-98501700D01*
X171932701Y-98501700D01*
X172055570Y-98468778D01*
X172165731Y-98405176D01*
X172255676Y-98315231D01*
X172319278Y-98205070D01*
X172352200Y-98082201D01*
X172352200Y-97954999D01*
X172319278Y-97832130D01*
X172255676Y-97721969D01*
X172165731Y-97632024D01*
X172165730Y-97632023D01*
X172098312Y-97593099D01*
X172055570Y-97568422D01*
X171986877Y-97550016D01*
X171932702Y-97535500D01*
X171932701Y-97535500D01*
X171805499Y-97535500D01*
X171805497Y-97535500D01*
X171697146Y-97564532D01*
X171682630Y-97568422D01*
X171682627Y-97568423D01*
X171682626Y-97568424D01*
X171572469Y-97632023D01*
X171482523Y-97721969D01*
X171418924Y-97832126D01*
X171418922Y-97832130D01*
X171418921Y-97832134D01*
X171386000Y-97954997D01*
X167868600Y-97954997D01*
X167868600Y-96177100D01*
X165455600Y-96177100D01*
X165455600Y-102146100D01*
X139166600Y-102146100D01*
X139166600Y-101383997D01*
X153352000Y-101383997D01*
X153352000Y-101511202D01*
X153353053Y-101515130D01*
X153384922Y-101634070D01*
X153448524Y-101744231D01*
X153538469Y-101834176D01*
X153648630Y-101897778D01*
X153771499Y-101930700D01*
X153898701Y-101930700D01*
X154021570Y-101897778D01*
X154131731Y-101834176D01*
X154221676Y-101744231D01*
X154285278Y-101634070D01*
X154318200Y-101511201D01*
X154318200Y-101383999D01*
X154311338Y-101358388D01*
X154316313Y-101320600D01*
X154346552Y-101297397D01*
X154359441Y-101295700D01*
X154406701Y-101295700D01*
X154529570Y-101262778D01*
X154639731Y-101199176D01*
X154729676Y-101109231D01*
X154793278Y-100999070D01*
X154826200Y-100876201D01*
X154826200Y-100748999D01*
X154826199Y-100748997D01*
X156908000Y-100748997D01*
X156908000Y-100876202D01*
X156920890Y-100924307D01*
X156940922Y-100999070D01*
X157004524Y-101109231D01*
X157094469Y-101199176D01*
X157204630Y-101262778D01*
X157327499Y-101295700D01*
X157454701Y-101295700D01*
X157577570Y-101262778D01*
X157687731Y-101199176D01*
X157777676Y-101109231D01*
X157841278Y-100999070D01*
X157874200Y-100876201D01*
X157874200Y-100748999D01*
X157841278Y-100626130D01*
X157777676Y-100515969D01*
X157756704Y-100494997D01*
X161226000Y-100494997D01*
X161226000Y-100622202D01*
X161227053Y-100626130D01*
X161258922Y-100745070D01*
X161322524Y-100855231D01*
X161412469Y-100945176D01*
X161522630Y-101008778D01*
X161645499Y-101041700D01*
X161772701Y-101041700D01*
X161895570Y-101008778D01*
X162001700Y-100947502D01*
X162039489Y-100942528D01*
X162051498Y-100947502D01*
X162157630Y-101008778D01*
X162280499Y-101041700D01*
X162407701Y-101041700D01*
X162530570Y-101008778D01*
X162640731Y-100945176D01*
X162730676Y-100855231D01*
X162794278Y-100745070D01*
X162827200Y-100622201D01*
X162827200Y-100494999D01*
X162794278Y-100372130D01*
X162730676Y-100261969D01*
X162640731Y-100172024D01*
X162640730Y-100172023D01*
X162573280Y-100133081D01*
X162530570Y-100108422D01*
X162461877Y-100090016D01*
X162407702Y-100075500D01*
X162407701Y-100075500D01*
X162280499Y-100075500D01*
X162280497Y-100075500D01*
X162172146Y-100104532D01*
X162157630Y-100108422D01*
X162157627Y-100108423D01*
X162157626Y-100108424D01*
X162051500Y-100169696D01*
X162013711Y-100174671D01*
X162001700Y-100169696D01*
X161925502Y-100125703D01*
X161895570Y-100108422D01*
X161826877Y-100090016D01*
X161772702Y-100075500D01*
X161772701Y-100075500D01*
X161645499Y-100075500D01*
X161645497Y-100075500D01*
X161537146Y-100104532D01*
X161522630Y-100108422D01*
X161522627Y-100108423D01*
X161522626Y-100108424D01*
X161412469Y-100172023D01*
X161322523Y-100261969D01*
X161261308Y-100367997D01*
X161258922Y-100372130D01*
X161258921Y-100372134D01*
X161226000Y-100494997D01*
X157756704Y-100494997D01*
X157687731Y-100426024D01*
X157687730Y-100426023D01*
X157597234Y-100373775D01*
X157577570Y-100362422D01*
X157508877Y-100344016D01*
X157454702Y-100329500D01*
X157454701Y-100329500D01*
X157327499Y-100329500D01*
X157327497Y-100329500D01*
X157219146Y-100358532D01*
X157204630Y-100362422D01*
X157204627Y-100362423D01*
X157204626Y-100362424D01*
X157094469Y-100426023D01*
X157004523Y-100515969D01*
X156943190Y-100622201D01*
X156940922Y-100626130D01*
X156940921Y-100626134D01*
X156908000Y-100748997D01*
X154826199Y-100748997D01*
X154793278Y-100626130D01*
X154729676Y-100515969D01*
X154639731Y-100426024D01*
X154639730Y-100426023D01*
X154549234Y-100373775D01*
X154529570Y-100362422D01*
X154460877Y-100344016D01*
X154406702Y-100329500D01*
X154406701Y-100329500D01*
X154279499Y-100329500D01*
X154279497Y-100329500D01*
X154171146Y-100358532D01*
X154156630Y-100362422D01*
X154156627Y-100362423D01*
X154156626Y-100362424D01*
X154046469Y-100426023D01*
X153956523Y-100515969D01*
X153895190Y-100622201D01*
X153892922Y-100626130D01*
X153892921Y-100626134D01*
X153860000Y-100748997D01*
X153860000Y-100876202D01*
X153866862Y-100901811D01*
X153861887Y-100939600D01*
X153831648Y-100962803D01*
X153818759Y-100964500D01*
X153771497Y-100964500D01*
X153689280Y-100986530D01*
X153648630Y-100997422D01*
X153648627Y-100997423D01*
X153648626Y-100997424D01*
X153538469Y-101061023D01*
X153448523Y-101150969D01*
X153384924Y-101261126D01*
X153384922Y-101261130D01*
X153384921Y-101261134D01*
X153352000Y-101383997D01*
X139166600Y-101383997D01*
X139166600Y-100367997D01*
X148653000Y-100367997D01*
X148653000Y-100495202D01*
X148658565Y-100515970D01*
X148685922Y-100618070D01*
X148749524Y-100728231D01*
X148839469Y-100818176D01*
X148949630Y-100881778D01*
X149072499Y-100914700D01*
X149199701Y-100914700D01*
X149322570Y-100881778D01*
X149432731Y-100818176D01*
X149522676Y-100728231D01*
X149586278Y-100618070D01*
X149619200Y-100495201D01*
X149619200Y-100367999D01*
X149586278Y-100245130D01*
X149522676Y-100134969D01*
X149432731Y-100045024D01*
X149432730Y-100045023D01*
X149332579Y-99987201D01*
X149322570Y-99981422D01*
X149253877Y-99963016D01*
X149199702Y-99948500D01*
X149199701Y-99948500D01*
X149072499Y-99948500D01*
X149072497Y-99948500D01*
X148964146Y-99977532D01*
X148949630Y-99981422D01*
X148949627Y-99981423D01*
X148949626Y-99981424D01*
X148839469Y-100045023D01*
X148749523Y-100134969D01*
X148685924Y-100245126D01*
X148685922Y-100245130D01*
X148685921Y-100245134D01*
X148653000Y-100367997D01*
X139166600Y-100367997D01*
X139166600Y-100114100D01*
X137880030Y-100114100D01*
X137844816Y-100099514D01*
X137657186Y-99911884D01*
X137642600Y-99876670D01*
X137642600Y-98590100D01*
X136795035Y-98590100D01*
X136759821Y-98575514D01*
X136745235Y-98540300D01*
X136759821Y-98505086D01*
X136788918Y-98475989D01*
X136822676Y-98442231D01*
X136886278Y-98332070D01*
X136919200Y-98209201D01*
X136919200Y-98081999D01*
X136886278Y-97959130D01*
X136822676Y-97848969D01*
X136759821Y-97786114D01*
X136745235Y-97750900D01*
X136759821Y-97715686D01*
X136795035Y-97701100D01*
X137642600Y-97701100D01*
X137642600Y-97319997D01*
X142176000Y-97319997D01*
X142176000Y-97319999D01*
X142176000Y-97447201D01*
X142208922Y-97570070D01*
X142208924Y-97570073D01*
X142272523Y-97680230D01*
X142321679Y-97729386D01*
X142336265Y-97764600D01*
X142321679Y-97799814D01*
X142272523Y-97848969D01*
X142211308Y-97954997D01*
X142208922Y-97959130D01*
X142208921Y-97959134D01*
X142176000Y-98081997D01*
X142176000Y-98081999D01*
X142176000Y-98209201D01*
X142208922Y-98332070D01*
X142208924Y-98332073D01*
X142270196Y-98438200D01*
X142275171Y-98475989D01*
X142270196Y-98488000D01*
X142208924Y-98594126D01*
X142208922Y-98594130D01*
X142208921Y-98594134D01*
X142176000Y-98716997D01*
X142176000Y-98716999D01*
X142176000Y-98844201D01*
X142208922Y-98967070D01*
X142272524Y-99077231D01*
X142362469Y-99167176D01*
X142472630Y-99230778D01*
X142595499Y-99263700D01*
X142722701Y-99263700D01*
X142845570Y-99230778D01*
X142855583Y-99224997D01*
X163131000Y-99224997D01*
X163131000Y-99224999D01*
X163131000Y-99352201D01*
X163163922Y-99475070D01*
X163227524Y-99585231D01*
X163317469Y-99675176D01*
X163427630Y-99738778D01*
X163550499Y-99771700D01*
X163677701Y-99771700D01*
X163800570Y-99738778D01*
X163844221Y-99713575D01*
X163882008Y-99708600D01*
X163912247Y-99731802D01*
X163917223Y-99769591D01*
X163917223Y-99769592D01*
X163893000Y-99859997D01*
X163893000Y-99859999D01*
X163893000Y-99987201D01*
X163925922Y-100110070D01*
X163939208Y-100133081D01*
X163989523Y-100220230D01*
X164058294Y-100289001D01*
X164072880Y-100324215D01*
X164066209Y-100349113D01*
X164052925Y-100372123D01*
X164052921Y-100372134D01*
X164020000Y-100494997D01*
X164020000Y-100622202D01*
X164021053Y-100626130D01*
X164052922Y-100745070D01*
X164116524Y-100855231D01*
X164206469Y-100945176D01*
X164316630Y-101008778D01*
X164439499Y-101041700D01*
X164566701Y-101041700D01*
X164689570Y-101008778D01*
X164799731Y-100945176D01*
X164889676Y-100855231D01*
X164953278Y-100745070D01*
X164986200Y-100622201D01*
X164986200Y-100494999D01*
X164953278Y-100372130D01*
X164889676Y-100261969D01*
X164820904Y-100193197D01*
X164806318Y-100157983D01*
X164812989Y-100133085D01*
X164826278Y-100110070D01*
X164859200Y-99987201D01*
X164859200Y-99859999D01*
X164826278Y-99737130D01*
X164762676Y-99626969D01*
X164672731Y-99537024D01*
X164672730Y-99537023D01*
X164574649Y-99480396D01*
X164562570Y-99473422D01*
X164447565Y-99442607D01*
X164439702Y-99440500D01*
X164439701Y-99440500D01*
X164312499Y-99440500D01*
X164312497Y-99440500D01*
X164204146Y-99469532D01*
X164189630Y-99473422D01*
X164189627Y-99473423D01*
X164189626Y-99473424D01*
X164145979Y-99498624D01*
X164108190Y-99503599D01*
X164077951Y-99480396D01*
X164072976Y-99442607D01*
X164074300Y-99437665D01*
X164097200Y-99352201D01*
X164097200Y-99224999D01*
X164064278Y-99102130D01*
X164000676Y-98991969D01*
X163910731Y-98902024D01*
X163910730Y-98902023D01*
X163810579Y-98844201D01*
X163800570Y-98838422D01*
X163731877Y-98820016D01*
X163677702Y-98805500D01*
X163677701Y-98805500D01*
X163550499Y-98805500D01*
X163550497Y-98805500D01*
X163442146Y-98834532D01*
X163427630Y-98838422D01*
X163427627Y-98838423D01*
X163427626Y-98838424D01*
X163317469Y-98902023D01*
X163227523Y-98991969D01*
X163163924Y-99102126D01*
X163163922Y-99102130D01*
X163163921Y-99102134D01*
X163131000Y-99224997D01*
X142855583Y-99224997D01*
X142955731Y-99167176D01*
X143045676Y-99077231D01*
X143109278Y-98967070D01*
X143142200Y-98844201D01*
X143142200Y-98716999D01*
X143109278Y-98594130D01*
X143106892Y-98589997D01*
X164147000Y-98589997D01*
X164147000Y-98589999D01*
X164147000Y-98717201D01*
X164179922Y-98840070D01*
X164243524Y-98950231D01*
X164333469Y-99040176D01*
X164443630Y-99103778D01*
X164566499Y-99136700D01*
X164693701Y-99136700D01*
X164816570Y-99103778D01*
X164926731Y-99040176D01*
X165016676Y-98950231D01*
X165080278Y-98840070D01*
X165113200Y-98717201D01*
X165113200Y-98589999D01*
X165080278Y-98467130D01*
X165016676Y-98356969D01*
X164926731Y-98267024D01*
X164926730Y-98267023D01*
X164826579Y-98209201D01*
X164816570Y-98203422D01*
X164747877Y-98185016D01*
X164693702Y-98170500D01*
X164693701Y-98170500D01*
X164566499Y-98170500D01*
X164566497Y-98170500D01*
X164458146Y-98199532D01*
X164443630Y-98203422D01*
X164443627Y-98203423D01*
X164443626Y-98203424D01*
X164333469Y-98267023D01*
X164243523Y-98356969D01*
X164179924Y-98467126D01*
X164179922Y-98467130D01*
X164179921Y-98467134D01*
X164147000Y-98589997D01*
X143106892Y-98589997D01*
X143048002Y-98487999D01*
X143043028Y-98450211D01*
X143048003Y-98438200D01*
X143109278Y-98332070D01*
X143142200Y-98209201D01*
X143142200Y-98081999D01*
X143109278Y-97959130D01*
X143106892Y-97954997D01*
X158940000Y-97954997D01*
X158940000Y-97954999D01*
X158940000Y-98082201D01*
X158972922Y-98205070D01*
X159036524Y-98315231D01*
X159126469Y-98405176D01*
X159236630Y-98468778D01*
X159359499Y-98501700D01*
X159486701Y-98501700D01*
X159609570Y-98468778D01*
X159719731Y-98405176D01*
X159809676Y-98315231D01*
X159873278Y-98205070D01*
X159906200Y-98082201D01*
X159906200Y-97954999D01*
X159873278Y-97832130D01*
X159809676Y-97721969D01*
X159719731Y-97632024D01*
X159719730Y-97632023D01*
X159652312Y-97593099D01*
X159609570Y-97568422D01*
X159540877Y-97550016D01*
X159486702Y-97535500D01*
X159486701Y-97535500D01*
X159359499Y-97535500D01*
X159359497Y-97535500D01*
X159251146Y-97564532D01*
X159236630Y-97568422D01*
X159236627Y-97568423D01*
X159236626Y-97568424D01*
X159126469Y-97632023D01*
X159036523Y-97721969D01*
X158972924Y-97832126D01*
X158972922Y-97832130D01*
X158972921Y-97832134D01*
X158940000Y-97954997D01*
X143106892Y-97954997D01*
X143045676Y-97848969D01*
X142996521Y-97799814D01*
X142981935Y-97764600D01*
X142996521Y-97729386D01*
X143019132Y-97706775D01*
X143045676Y-97680231D01*
X143109278Y-97570070D01*
X143142200Y-97447201D01*
X143142200Y-97319999D01*
X143109278Y-97197130D01*
X143106892Y-97192997D01*
X154495000Y-97192997D01*
X154495000Y-97192999D01*
X154495000Y-97320201D01*
X154527922Y-97443070D01*
X154591524Y-97553231D01*
X154681469Y-97643176D01*
X154791630Y-97706778D01*
X154914499Y-97739700D01*
X155041701Y-97739700D01*
X155164570Y-97706778D01*
X155274731Y-97643176D01*
X155364676Y-97553231D01*
X155428278Y-97443070D01*
X155461200Y-97320201D01*
X155461200Y-97192999D01*
X155461199Y-97192997D01*
X156400000Y-97192997D01*
X156400000Y-97192999D01*
X156400000Y-97320201D01*
X156432922Y-97443070D01*
X156496524Y-97553231D01*
X156586469Y-97643176D01*
X156696630Y-97706778D01*
X156819499Y-97739700D01*
X156946701Y-97739700D01*
X157069570Y-97706778D01*
X157179731Y-97643176D01*
X157269676Y-97553231D01*
X157333278Y-97443070D01*
X157366200Y-97320201D01*
X157366200Y-97192999D01*
X157333278Y-97070130D01*
X157269676Y-96959969D01*
X157179731Y-96870024D01*
X157179730Y-96870023D01*
X157069573Y-96806424D01*
X157069574Y-96806424D01*
X157069570Y-96806422D01*
X157000877Y-96788016D01*
X156946702Y-96773500D01*
X156946701Y-96773500D01*
X156819499Y-96773500D01*
X156819497Y-96773500D01*
X156711146Y-96802532D01*
X156696630Y-96806422D01*
X156696627Y-96806423D01*
X156696626Y-96806424D01*
X156586469Y-96870023D01*
X156496523Y-96959969D01*
X156432924Y-97070126D01*
X156432922Y-97070130D01*
X156432921Y-97070134D01*
X156400000Y-97192997D01*
X155461199Y-97192997D01*
X155428278Y-97070130D01*
X155364676Y-96959969D01*
X155274731Y-96870024D01*
X155274730Y-96870023D01*
X155164573Y-96806424D01*
X155164574Y-96806424D01*
X155164570Y-96806422D01*
X155095877Y-96788016D01*
X155041702Y-96773500D01*
X155041701Y-96773500D01*
X154914499Y-96773500D01*
X154914497Y-96773500D01*
X154806146Y-96802532D01*
X154791630Y-96806422D01*
X154791627Y-96806423D01*
X154791626Y-96806424D01*
X154681469Y-96870023D01*
X154591523Y-96959969D01*
X154527924Y-97070126D01*
X154527922Y-97070130D01*
X154527921Y-97070134D01*
X154495000Y-97192997D01*
X143106892Y-97192997D01*
X143045676Y-97086969D01*
X142955731Y-96997024D01*
X142955730Y-96997023D01*
X142845573Y-96933424D01*
X142845574Y-96933424D01*
X142845570Y-96933422D01*
X142776877Y-96915016D01*
X142722702Y-96900500D01*
X142722701Y-96900500D01*
X142595499Y-96900500D01*
X142595497Y-96900500D01*
X142513280Y-96922530D01*
X142472630Y-96933422D01*
X142472627Y-96933423D01*
X142472626Y-96933424D01*
X142362469Y-96997023D01*
X142272523Y-97086969D01*
X142211308Y-97192997D01*
X142208922Y-97197130D01*
X142208921Y-97197134D01*
X142176000Y-97319997D01*
X137642600Y-97319997D01*
X137642600Y-96414530D01*
X137657186Y-96379316D01*
X137844816Y-96191686D01*
X137880030Y-96177100D01*
X139166600Y-96177100D01*
X139166600Y-95668997D01*
X148399000Y-95668997D01*
X148399000Y-95796202D01*
X148413516Y-95850377D01*
X148431922Y-95919070D01*
X148495524Y-96029231D01*
X148585469Y-96119176D01*
X148695630Y-96182778D01*
X148818499Y-96215700D01*
X148945701Y-96215700D01*
X149068570Y-96182778D01*
X149178731Y-96119176D01*
X149268676Y-96029231D01*
X149332278Y-95919070D01*
X149365200Y-95796201D01*
X149365200Y-95668999D01*
X149332278Y-95546130D01*
X149268676Y-95435969D01*
X149178731Y-95346024D01*
X149178730Y-95346023D01*
X149147276Y-95327863D01*
X149088234Y-95293775D01*
X149078226Y-95287997D01*
X168084000Y-95287997D01*
X168084000Y-95415202D01*
X168098516Y-95469377D01*
X168116922Y-95538070D01*
X168180524Y-95648231D01*
X168270469Y-95738176D01*
X168380630Y-95801778D01*
X168503499Y-95834700D01*
X168630701Y-95834700D01*
X168753570Y-95801778D01*
X168863731Y-95738176D01*
X168953676Y-95648231D01*
X169017278Y-95538070D01*
X169050200Y-95415201D01*
X169050200Y-95287999D01*
X169017278Y-95165130D01*
X168953676Y-95054969D01*
X168863731Y-94965024D01*
X168863730Y-94965023D01*
X168753573Y-94901424D01*
X168753574Y-94901424D01*
X168753570Y-94901422D01*
X168684877Y-94883016D01*
X168630702Y-94868500D01*
X168630701Y-94868500D01*
X168503499Y-94868500D01*
X168503497Y-94868500D01*
X168395146Y-94897532D01*
X168380630Y-94901422D01*
X168380627Y-94901423D01*
X168380626Y-94901424D01*
X168270469Y-94965023D01*
X168180523Y-95054969D01*
X168116924Y-95165126D01*
X168116922Y-95165130D01*
X168116921Y-95165134D01*
X168084000Y-95287997D01*
X149078226Y-95287997D01*
X149068570Y-95282422D01*
X148999877Y-95264016D01*
X148945702Y-95249500D01*
X148945701Y-95249500D01*
X148818499Y-95249500D01*
X148818497Y-95249500D01*
X148710146Y-95278532D01*
X148695630Y-95282422D01*
X148695627Y-95282423D01*
X148695626Y-95282424D01*
X148585469Y-95346023D01*
X148495523Y-95435969D01*
X148431924Y-95546126D01*
X148431922Y-95546130D01*
X148431921Y-95546134D01*
X148399000Y-95668997D01*
X139166600Y-95668997D01*
X139166600Y-93890997D01*
X141033000Y-93890997D01*
X141033000Y-93890999D01*
X141033000Y-94018201D01*
X141065922Y-94141070D01*
X141129524Y-94251231D01*
X141219469Y-94341176D01*
X141329630Y-94404778D01*
X141452499Y-94437700D01*
X141579701Y-94437700D01*
X141702570Y-94404778D01*
X141812731Y-94341176D01*
X141902676Y-94251231D01*
X141966278Y-94141070D01*
X141999200Y-94018201D01*
X141999200Y-93890999D01*
X141966278Y-93768130D01*
X141963892Y-93763997D01*
X153352000Y-93763997D01*
X153352000Y-93891202D01*
X153353053Y-93895130D01*
X153384922Y-94014070D01*
X153448524Y-94124231D01*
X153538469Y-94214176D01*
X153648630Y-94277778D01*
X153771499Y-94310700D01*
X153898701Y-94310700D01*
X154021570Y-94277778D01*
X154131731Y-94214176D01*
X154221676Y-94124231D01*
X154283011Y-94017997D01*
X162750000Y-94017997D01*
X162750000Y-94017999D01*
X162750000Y-94145201D01*
X162782922Y-94268070D01*
X162846524Y-94378231D01*
X162936469Y-94468176D01*
X163046630Y-94531778D01*
X163169499Y-94564700D01*
X163296701Y-94564700D01*
X163419570Y-94531778D01*
X163529731Y-94468176D01*
X163578886Y-94419021D01*
X163614100Y-94404435D01*
X163649314Y-94419021D01*
X163698469Y-94468176D01*
X163808630Y-94531778D01*
X163931499Y-94564700D01*
X164058701Y-94564700D01*
X164181570Y-94531778D01*
X164291731Y-94468176D01*
X164381676Y-94378231D01*
X164445278Y-94268070D01*
X164478200Y-94145201D01*
X164478200Y-94017999D01*
X164478199Y-94017997D01*
X169354000Y-94017997D01*
X169354000Y-94017999D01*
X169354000Y-94145201D01*
X169386922Y-94268070D01*
X169450524Y-94378231D01*
X169540469Y-94468176D01*
X169650630Y-94531778D01*
X169773499Y-94564700D01*
X169900701Y-94564700D01*
X170023570Y-94531778D01*
X170133731Y-94468176D01*
X170182886Y-94419021D01*
X170218100Y-94404435D01*
X170253314Y-94419021D01*
X170302469Y-94468176D01*
X170412630Y-94531778D01*
X170535499Y-94564700D01*
X170662701Y-94564700D01*
X170785570Y-94531778D01*
X170895731Y-94468176D01*
X170985676Y-94378231D01*
X171049278Y-94268070D01*
X171082200Y-94145201D01*
X171082200Y-94017999D01*
X171049278Y-93895130D01*
X170985676Y-93784969D01*
X170895731Y-93695024D01*
X170895730Y-93695023D01*
X170805239Y-93642778D01*
X170785570Y-93631422D01*
X170712260Y-93611779D01*
X170662702Y-93598500D01*
X170662701Y-93598500D01*
X170535499Y-93598500D01*
X170535497Y-93598500D01*
X170427146Y-93627532D01*
X170412630Y-93631422D01*
X170412627Y-93631423D01*
X170412626Y-93631424D01*
X170302469Y-93695023D01*
X170253314Y-93744179D01*
X170218100Y-93758765D01*
X170182886Y-93744179D01*
X170133730Y-93695023D01*
X170043239Y-93642778D01*
X170023570Y-93631422D01*
X169950260Y-93611779D01*
X169900702Y-93598500D01*
X169900701Y-93598500D01*
X169773499Y-93598500D01*
X169773497Y-93598500D01*
X169665146Y-93627532D01*
X169650630Y-93631422D01*
X169650627Y-93631423D01*
X169650626Y-93631424D01*
X169540469Y-93695023D01*
X169450523Y-93784969D01*
X169389308Y-93890997D01*
X169386922Y-93895130D01*
X169386921Y-93895134D01*
X169354000Y-94017997D01*
X164478199Y-94017997D01*
X164445278Y-93895130D01*
X164381676Y-93784969D01*
X164310663Y-93713956D01*
X164296077Y-93678742D01*
X164310663Y-93643528D01*
X164320973Y-93635617D01*
X164418731Y-93579176D01*
X164508676Y-93489231D01*
X164572278Y-93379070D01*
X164605200Y-93256201D01*
X164605200Y-93128999D01*
X164572278Y-93006130D01*
X164508676Y-92895969D01*
X164459521Y-92846814D01*
X164444935Y-92811600D01*
X164459521Y-92776386D01*
X164471237Y-92764670D01*
X164508676Y-92727231D01*
X164572278Y-92617070D01*
X164605200Y-92494201D01*
X164605200Y-92366999D01*
X164572278Y-92244130D01*
X164508676Y-92133969D01*
X164418731Y-92044024D01*
X164418730Y-92044023D01*
X164351312Y-92005099D01*
X164308570Y-91980422D01*
X164239877Y-91962016D01*
X164185702Y-91947500D01*
X164185701Y-91947500D01*
X164058499Y-91947500D01*
X164058497Y-91947500D01*
X163950146Y-91976532D01*
X163935630Y-91980422D01*
X163935627Y-91980423D01*
X163935626Y-91980424D01*
X163825469Y-92044023D01*
X163735523Y-92133969D01*
X163674190Y-92240201D01*
X163671922Y-92244130D01*
X163671921Y-92244134D01*
X163639000Y-92366997D01*
X163639000Y-92366999D01*
X163639000Y-92494201D01*
X163671922Y-92617070D01*
X163671924Y-92617073D01*
X163735523Y-92727230D01*
X163784679Y-92776386D01*
X163799265Y-92811600D01*
X163784679Y-92846814D01*
X163735523Y-92895969D01*
X163671924Y-93006126D01*
X163671922Y-93006130D01*
X163671921Y-93006134D01*
X163639000Y-93128997D01*
X163639000Y-93128999D01*
X163639000Y-93256201D01*
X163671922Y-93379070D01*
X163671924Y-93379073D01*
X163735523Y-93489230D01*
X163806536Y-93560243D01*
X163821122Y-93595457D01*
X163806536Y-93630671D01*
X163796222Y-93638585D01*
X163698469Y-93695023D01*
X163649314Y-93744179D01*
X163614100Y-93758765D01*
X163578886Y-93744179D01*
X163529730Y-93695023D01*
X163439239Y-93642778D01*
X163419570Y-93631422D01*
X163346260Y-93611779D01*
X163296702Y-93598500D01*
X163296701Y-93598500D01*
X163169499Y-93598500D01*
X163169497Y-93598500D01*
X163061146Y-93627532D01*
X163046630Y-93631422D01*
X163046627Y-93631423D01*
X163046626Y-93631424D01*
X162936469Y-93695023D01*
X162846523Y-93784969D01*
X162785308Y-93890997D01*
X162782922Y-93895130D01*
X162782921Y-93895134D01*
X162750000Y-94017997D01*
X154283011Y-94017997D01*
X154285278Y-94014070D01*
X154318200Y-93891201D01*
X154318200Y-93763999D01*
X154285278Y-93641130D01*
X154221676Y-93530969D01*
X154131731Y-93441024D01*
X154131730Y-93441023D01*
X154064312Y-93402099D01*
X154021570Y-93377422D01*
X153952877Y-93359016D01*
X153898702Y-93344500D01*
X153898701Y-93344500D01*
X153771499Y-93344500D01*
X153771497Y-93344500D01*
X153663146Y-93373532D01*
X153648630Y-93377422D01*
X153648627Y-93377423D01*
X153648626Y-93377424D01*
X153538469Y-93441023D01*
X153448523Y-93530969D01*
X153386391Y-93638585D01*
X153384922Y-93641130D01*
X153381032Y-93655646D01*
X153352000Y-93763997D01*
X141963892Y-93763997D01*
X141902676Y-93657969D01*
X141812731Y-93568024D01*
X141812730Y-93568023D01*
X141702573Y-93504424D01*
X141702574Y-93504424D01*
X141702570Y-93504422D01*
X141633877Y-93486016D01*
X141579702Y-93471500D01*
X141579701Y-93471500D01*
X141452499Y-93471500D01*
X141452497Y-93471500D01*
X141344146Y-93500532D01*
X141329630Y-93504422D01*
X141329627Y-93504423D01*
X141329626Y-93504424D01*
X141219469Y-93568023D01*
X141129523Y-93657969D01*
X141079750Y-93744179D01*
X141065922Y-93768130D01*
X141065921Y-93768134D01*
X141033000Y-93890997D01*
X139166600Y-93890997D01*
X139166600Y-93293298D01*
X139166600Y-93293297D01*
X138875403Y-93002100D01*
X138875402Y-93002100D01*
X138388030Y-93002100D01*
X138352816Y-92987514D01*
X138165186Y-92799884D01*
X138150600Y-92764670D01*
X138150600Y-92277298D01*
X138150600Y-92277297D01*
X137986300Y-92112997D01*
X139636000Y-92112997D01*
X139636000Y-92240202D01*
X139645940Y-92277297D01*
X139668922Y-92363070D01*
X139732524Y-92473231D01*
X139822469Y-92563176D01*
X139932630Y-92626778D01*
X140055499Y-92659700D01*
X140182701Y-92659700D01*
X140226606Y-92647935D01*
X140264394Y-92652909D01*
X140287598Y-92683148D01*
X140287598Y-92683149D01*
X140303920Y-92744065D01*
X140303924Y-92744073D01*
X140363241Y-92846814D01*
X140367524Y-92854231D01*
X140457469Y-92944176D01*
X140567630Y-93007778D01*
X140690499Y-93040700D01*
X140817701Y-93040700D01*
X140940570Y-93007778D01*
X140950583Y-93001997D01*
X154749000Y-93001997D01*
X154749000Y-93001999D01*
X154749000Y-93129201D01*
X154781922Y-93252070D01*
X154845524Y-93362231D01*
X154935469Y-93452176D01*
X155045630Y-93515778D01*
X155168499Y-93548700D01*
X155295701Y-93548700D01*
X155418570Y-93515778D01*
X155528731Y-93452176D01*
X155618676Y-93362231D01*
X155682278Y-93252070D01*
X155715200Y-93129201D01*
X155715200Y-93001999D01*
X155682278Y-92879130D01*
X155618676Y-92768969D01*
X155528731Y-92679024D01*
X155528730Y-92679023D01*
X155428579Y-92621201D01*
X155418570Y-92615422D01*
X155349877Y-92597016D01*
X155295702Y-92582500D01*
X155295701Y-92582500D01*
X155168499Y-92582500D01*
X155168497Y-92582500D01*
X155060146Y-92611532D01*
X155045630Y-92615422D01*
X155045627Y-92615423D01*
X155045626Y-92615424D01*
X154935469Y-92679023D01*
X154845523Y-92768969D01*
X154781924Y-92879126D01*
X154781922Y-92879130D01*
X154781921Y-92879134D01*
X154749000Y-93001997D01*
X140950583Y-93001997D01*
X141050731Y-92944176D01*
X141140676Y-92854231D01*
X141204278Y-92744070D01*
X141237200Y-92621201D01*
X141237200Y-92493999D01*
X141204278Y-92371130D01*
X141140676Y-92260969D01*
X141050731Y-92171024D01*
X141050730Y-92171023D01*
X141019276Y-92152863D01*
X140977724Y-92128873D01*
X140950226Y-92112997D01*
X142811000Y-92112997D01*
X142811000Y-92240202D01*
X142820940Y-92277297D01*
X142843922Y-92363070D01*
X142907524Y-92473231D01*
X142997469Y-92563176D01*
X143107630Y-92626778D01*
X143230499Y-92659700D01*
X143357701Y-92659700D01*
X143480570Y-92626778D01*
X143590731Y-92563176D01*
X143680676Y-92473231D01*
X143744278Y-92363070D01*
X143777200Y-92240201D01*
X143777200Y-92112999D01*
X143744278Y-91990130D01*
X143680676Y-91879969D01*
X143590731Y-91790024D01*
X143590730Y-91790023D01*
X143480573Y-91726424D01*
X143480574Y-91726424D01*
X143480570Y-91726422D01*
X143411877Y-91708016D01*
X143357702Y-91693500D01*
X143357701Y-91693500D01*
X143230499Y-91693500D01*
X143230497Y-91693500D01*
X143122146Y-91722532D01*
X143107630Y-91726422D01*
X143107627Y-91726423D01*
X143107626Y-91726424D01*
X142997469Y-91790023D01*
X142907523Y-91879969D01*
X142843924Y-91990126D01*
X142843922Y-91990130D01*
X142843921Y-91990134D01*
X142811000Y-92112997D01*
X140950226Y-92112997D01*
X140940570Y-92107422D01*
X140861606Y-92086264D01*
X140817702Y-92074500D01*
X140817701Y-92074500D01*
X140690499Y-92074500D01*
X140690497Y-92074500D01*
X140646593Y-92086264D01*
X140608804Y-92081289D01*
X140585601Y-92051050D01*
X140569278Y-91990130D01*
X140505676Y-91879969D01*
X140415731Y-91790024D01*
X140415730Y-91790023D01*
X140305573Y-91726424D01*
X140305574Y-91726424D01*
X140305570Y-91726422D01*
X140236877Y-91708016D01*
X140182702Y-91693500D01*
X140182701Y-91693500D01*
X140055499Y-91693500D01*
X140055497Y-91693500D01*
X139947146Y-91722532D01*
X139932630Y-91726422D01*
X139932627Y-91726423D01*
X139932626Y-91726424D01*
X139822469Y-91790023D01*
X139732523Y-91879969D01*
X139668924Y-91990126D01*
X139668922Y-91990130D01*
X139668921Y-91990134D01*
X139636000Y-92112997D01*
X137986300Y-92112997D01*
X137859403Y-91986100D01*
X137298797Y-91986100D01*
X137007600Y-92277297D01*
X137007600Y-94796670D01*
X136993014Y-94831884D01*
X136297384Y-95527514D01*
X136262170Y-95542100D01*
X133615797Y-95542100D01*
X133451600Y-95706297D01*
X116776600Y-95706297D01*
X116776600Y-94779997D01*
X122618000Y-94779997D01*
X122618000Y-94779999D01*
X122618000Y-94907201D01*
X122650922Y-95030070D01*
X122714524Y-95140231D01*
X122804469Y-95230176D01*
X122914630Y-95293778D01*
X123037499Y-95326700D01*
X123164701Y-95326700D01*
X123287570Y-95293778D01*
X123397731Y-95230176D01*
X123487676Y-95140231D01*
X123551278Y-95030070D01*
X123584200Y-94907201D01*
X123584200Y-94779999D01*
X123551278Y-94657130D01*
X123487676Y-94546969D01*
X123397731Y-94457024D01*
X123397730Y-94457023D01*
X123287573Y-94393424D01*
X123287574Y-94393424D01*
X123287570Y-94393422D01*
X123218877Y-94375016D01*
X123164702Y-94360500D01*
X123164701Y-94360500D01*
X123037499Y-94360500D01*
X123037497Y-94360500D01*
X122950514Y-94383807D01*
X122914630Y-94393422D01*
X122914627Y-94393423D01*
X122914626Y-94393424D01*
X122804469Y-94457023D01*
X122714523Y-94546969D01*
X122650924Y-94657126D01*
X122650922Y-94657130D01*
X122650921Y-94657134D01*
X122618000Y-94779997D01*
X116776600Y-94779997D01*
X116776600Y-90461997D01*
X144716000Y-90461997D01*
X144716000Y-90461999D01*
X144716000Y-90589201D01*
X144748922Y-90712070D01*
X144812524Y-90822231D01*
X144902469Y-90912176D01*
X145012630Y-90975778D01*
X145135499Y-91008700D01*
X145262701Y-91008700D01*
X145385570Y-90975778D01*
X145495731Y-90912176D01*
X145585676Y-90822231D01*
X145649278Y-90712070D01*
X145682200Y-90589201D01*
X145682200Y-90461999D01*
X145682199Y-90461997D01*
X148526000Y-90461997D01*
X148526000Y-90461999D01*
X148526000Y-90589201D01*
X148558922Y-90712070D01*
X148622524Y-90822231D01*
X148712469Y-90912176D01*
X148822630Y-90975778D01*
X148945499Y-91008700D01*
X149072701Y-91008700D01*
X149195570Y-90975778D01*
X149305731Y-90912176D01*
X149354886Y-90863021D01*
X149390100Y-90848435D01*
X149425314Y-90863021D01*
X149474469Y-90912176D01*
X149584630Y-90975778D01*
X149707499Y-91008700D01*
X149834701Y-91008700D01*
X149957570Y-90975778D01*
X150067731Y-90912176D01*
X150157676Y-90822231D01*
X150221278Y-90712070D01*
X150244573Y-90625132D01*
X174882600Y-90625132D01*
X174882600Y-90832067D01*
X174922967Y-91035010D01*
X174922970Y-91035020D01*
X175002158Y-91226197D01*
X175117119Y-91398251D01*
X175263448Y-91544580D01*
X175366400Y-91613369D01*
X175435502Y-91659541D01*
X175626680Y-91738730D01*
X175626686Y-91738731D01*
X175626689Y-91738732D01*
X175696138Y-91752546D01*
X175829635Y-91779100D01*
X175829640Y-91779100D01*
X176036560Y-91779100D01*
X176036565Y-91779100D01*
X176239520Y-91738730D01*
X176430698Y-91659541D01*
X176602755Y-91544577D01*
X176749077Y-91398255D01*
X176864041Y-91226198D01*
X176943230Y-91035020D01*
X176983600Y-90832065D01*
X176983600Y-90625135D01*
X176957046Y-90491638D01*
X176943232Y-90422189D01*
X176943231Y-90422186D01*
X176943230Y-90422180D01*
X176864041Y-90231002D01*
X176802584Y-90139024D01*
X176749080Y-90058948D01*
X176602751Y-89912619D01*
X176465481Y-89820900D01*
X176430698Y-89797659D01*
X176430696Y-89797658D01*
X176430697Y-89797658D01*
X176239520Y-89718470D01*
X176239510Y-89718467D01*
X176036567Y-89678100D01*
X176036565Y-89678100D01*
X175829635Y-89678100D01*
X175829632Y-89678100D01*
X175626689Y-89718467D01*
X175626679Y-89718470D01*
X175435502Y-89797658D01*
X175263448Y-89912619D01*
X175263446Y-89912622D01*
X175117122Y-90058946D01*
X175117119Y-90058948D01*
X175002158Y-90231002D01*
X174922970Y-90422179D01*
X174922967Y-90422189D01*
X174882600Y-90625132D01*
X150244573Y-90625132D01*
X150254200Y-90589201D01*
X150254200Y-90461999D01*
X150221278Y-90339130D01*
X150157676Y-90228969D01*
X150067731Y-90139024D01*
X150067730Y-90139023D01*
X149957573Y-90075424D01*
X149957574Y-90075424D01*
X149957570Y-90075422D01*
X149888877Y-90057016D01*
X149834702Y-90042500D01*
X149834701Y-90042500D01*
X149707499Y-90042500D01*
X149707497Y-90042500D01*
X149599146Y-90071532D01*
X149584630Y-90075422D01*
X149584627Y-90075423D01*
X149584626Y-90075424D01*
X149474469Y-90139023D01*
X149425314Y-90188179D01*
X149390100Y-90202765D01*
X149354886Y-90188179D01*
X149305730Y-90139023D01*
X149195573Y-90075424D01*
X149195574Y-90075424D01*
X149195570Y-90075422D01*
X149126877Y-90057016D01*
X149072702Y-90042500D01*
X149072701Y-90042500D01*
X148945499Y-90042500D01*
X148945497Y-90042500D01*
X148837146Y-90071532D01*
X148822630Y-90075422D01*
X148822627Y-90075423D01*
X148822626Y-90075424D01*
X148712469Y-90139023D01*
X148622523Y-90228969D01*
X148558924Y-90339126D01*
X148558922Y-90339130D01*
X148558921Y-90339134D01*
X148526000Y-90461997D01*
X145682199Y-90461997D01*
X145649278Y-90339130D01*
X145585676Y-90228969D01*
X145495731Y-90139024D01*
X145495730Y-90139023D01*
X145385573Y-90075424D01*
X145385574Y-90075424D01*
X145385570Y-90075422D01*
X145316877Y-90057016D01*
X145262702Y-90042500D01*
X145262701Y-90042500D01*
X145135499Y-90042500D01*
X145135497Y-90042500D01*
X145027146Y-90071532D01*
X145012630Y-90075422D01*
X145012627Y-90075423D01*
X145012626Y-90075424D01*
X144902469Y-90139023D01*
X144812523Y-90228969D01*
X144748924Y-90339126D01*
X144748922Y-90339130D01*
X144748921Y-90339134D01*
X144716000Y-90461997D01*
X116776600Y-90461997D01*
X116776600Y-89540791D01*
X116791186Y-89505577D01*
X117763077Y-88533686D01*
X117798291Y-88519100D01*
X179203909Y-88519100D01*
X179239123Y-88533686D01*
G37*
%TD.AperFunction*%
%TD*%
M02*
