%TF.GenerationSoftware,KiCad,Pcbnew,9.0.2-9.0.2-0~ubuntu24.04.1*%
%TF.CreationDate,2025-07-08T13:32:56-04:00*%
%TF.ProjectId,sipm-hv-splitter,7369706d-2d68-4762-9d73-706c69747465,rev?*%
%TF.SameCoordinates,Original*%
%TF.FileFunction,Copper,L1,Top*%
%TF.FilePolarity,Positive*%
%FSLAX46Y46*%
G04 Gerber Fmt 4.6, Leading zero omitted, Abs format (unit mm)*
G04 Created by KiCad (PCBNEW 9.0.2-9.0.2-0~ubuntu24.04.1) date 2025-07-08 13:32:56*
%MOMM*%
%LPD*%
G01*
G04 APERTURE LIST*
G04 Aperture macros list*
%AMRoundRect*
0 Rectangle with rounded corners*
0 $1 Rounding radius*
0 $2 $3 $4 $5 $6 $7 $8 $9 X,Y pos of 4 corners*
0 Add a 4 corners polygon primitive as box body*
4,1,4,$2,$3,$4,$5,$6,$7,$8,$9,$2,$3,0*
0 Add four circle primitives for the rounded corners*
1,1,$1+$1,$2,$3*
1,1,$1+$1,$4,$5*
1,1,$1+$1,$6,$7*
1,1,$1+$1,$8,$9*
0 Add four rect primitives between the rounded corners*
20,1,$1+$1,$2,$3,$4,$5,0*
20,1,$1+$1,$4,$5,$6,$7,0*
20,1,$1+$1,$6,$7,$8,$9,0*
20,1,$1+$1,$8,$9,$2,$3,0*%
G04 Aperture macros list end*
%TA.AperFunction,SMDPad,CuDef*%
%ADD10RoundRect,0.237500X0.287500X0.237500X-0.287500X0.237500X-0.287500X-0.237500X0.287500X-0.237500X0*%
%TD*%
%TA.AperFunction,SMDPad,CuDef*%
%ADD11RoundRect,0.237500X0.237500X-0.300000X0.237500X0.300000X-0.237500X0.300000X-0.237500X-0.300000X0*%
%TD*%
%TA.AperFunction,SMDPad,CuDef*%
%ADD12RoundRect,0.237500X-0.237500X0.300000X-0.237500X-0.300000X0.237500X-0.300000X0.237500X0.300000X0*%
%TD*%
%TA.AperFunction,SMDPad,CuDef*%
%ADD13RoundRect,0.237500X-0.287500X-0.237500X0.287500X-0.237500X0.287500X0.237500X-0.287500X0.237500X0*%
%TD*%
%TA.AperFunction,SMDPad,CuDef*%
%ADD14RoundRect,0.237500X-0.237500X0.250000X-0.237500X-0.250000X0.237500X-0.250000X0.237500X0.250000X0*%
%TD*%
%TA.AperFunction,SMDPad,CuDef*%
%ADD15RoundRect,0.100000X-0.350000X-0.100000X0.350000X-0.100000X0.350000X0.100000X-0.350000X0.100000X0*%
%TD*%
%TA.AperFunction,SMDPad,CuDef*%
%ADD16RoundRect,0.237500X-0.300000X-0.237500X0.300000X-0.237500X0.300000X0.237500X-0.300000X0.237500X0*%
%TD*%
%TA.AperFunction,SMDPad,CuDef*%
%ADD17RoundRect,0.237500X0.237500X-0.250000X0.237500X0.250000X-0.237500X0.250000X-0.237500X-0.250000X0*%
%TD*%
%TA.AperFunction,SMDPad,CuDef*%
%ADD18RoundRect,0.237500X0.250000X0.237500X-0.250000X0.237500X-0.250000X-0.237500X0.250000X-0.237500X0*%
%TD*%
%TA.AperFunction,SMDPad,CuDef*%
%ADD19RoundRect,0.093750X-0.093750X-0.106250X0.093750X-0.106250X0.093750X0.106250X-0.093750X0.106250X0*%
%TD*%
%TA.AperFunction,HeatsinkPad*%
%ADD20C,0.500000*%
%TD*%
%TA.AperFunction,HeatsinkPad*%
%ADD21R,1.000000X1.600000*%
%TD*%
%TA.AperFunction,SMDPad,CuDef*%
%ADD22RoundRect,0.237500X0.300000X0.237500X-0.300000X0.237500X-0.300000X-0.237500X0.300000X-0.237500X0*%
%TD*%
%TA.AperFunction,SMDPad,CuDef*%
%ADD23RoundRect,0.237500X-0.250000X-0.237500X0.250000X-0.237500X0.250000X0.237500X-0.250000X0.237500X0*%
%TD*%
%TA.AperFunction,SMDPad,CuDef*%
%ADD24RoundRect,0.150000X-0.587500X-0.150000X0.587500X-0.150000X0.587500X0.150000X-0.587500X0.150000X0*%
%TD*%
%TA.AperFunction,SMDPad,CuDef*%
%ADD25O,1.000000X0.240000*%
%TD*%
%TA.AperFunction,SMDPad,CuDef*%
%ADD26O,0.240000X1.000000*%
%TD*%
%TA.AperFunction,HeatsinkPad*%
%ADD27C,0.254000*%
%TD*%
%TA.AperFunction,SMDPad,CuDef*%
%ADD28R,1.680000X1.680000*%
%TD*%
%TA.AperFunction,SMDPad,CuDef*%
%ADD29RoundRect,0.062500X-0.375000X-0.062500X0.375000X-0.062500X0.375000X0.062500X-0.375000X0.062500X0*%
%TD*%
%TA.AperFunction,SMDPad,CuDef*%
%ADD30RoundRect,0.062500X-0.062500X-0.375000X0.062500X-0.375000X0.062500X0.375000X-0.062500X0.375000X0*%
%TD*%
%TA.AperFunction,HeatsinkPad*%
%ADD31R,3.100000X3.100000*%
%TD*%
%TA.AperFunction,SMDPad,CuDef*%
%ADD32C,1.000000*%
%TD*%
%TA.AperFunction,SMDPad,CuDef*%
%ADD33RoundRect,0.250000X0.650000X-0.412500X0.650000X0.412500X-0.650000X0.412500X-0.650000X-0.412500X0*%
%TD*%
%TA.AperFunction,SMDPad,CuDef*%
%ADD34RoundRect,0.087500X-0.725000X-0.087500X0.725000X-0.087500X0.725000X0.087500X-0.725000X0.087500X0*%
%TD*%
%TA.AperFunction,SMDPad,CuDef*%
%ADD35RoundRect,0.150000X-0.350000X-1.450000X0.350000X-1.450000X0.350000X1.450000X-0.350000X1.450000X0*%
%TD*%
%TA.AperFunction,SMDPad,CuDef*%
%ADD36RoundRect,0.150000X-0.512500X-0.150000X0.512500X-0.150000X0.512500X0.150000X-0.512500X0.150000X0*%
%TD*%
%TA.AperFunction,SMDPad,CuDef*%
%ADD37R,1.200000X1.200000*%
%TD*%
%TA.AperFunction,SMDPad,CuDef*%
%ADD38RoundRect,0.250000X-0.400000X-0.625000X0.400000X-0.625000X0.400000X0.625000X-0.400000X0.625000X0*%
%TD*%
%TA.AperFunction,ComponentPad*%
%ADD39R,0.850000X0.850000*%
%TD*%
%TA.AperFunction,ComponentPad*%
%ADD40C,0.850000*%
%TD*%
%TA.AperFunction,SMDPad,CuDef*%
%ADD41R,2.794000X0.736600*%
%TD*%
%TA.AperFunction,SMDPad,CuDef*%
%ADD42RoundRect,0.150000X0.150000X-0.825000X0.150000X0.825000X-0.150000X0.825000X-0.150000X-0.825000X0*%
%TD*%
%TA.AperFunction,SMDPad,CuDef*%
%ADD43R,2.220000X0.740000*%
%TD*%
%TA.AperFunction,ViaPad*%
%ADD44C,0.635000*%
%TD*%
%TA.AperFunction,ViaPad*%
%ADD45C,0.381000*%
%TD*%
%TA.AperFunction,Conductor*%
%ADD46C,0.127000*%
%TD*%
%TA.AperFunction,Conductor*%
%ADD47C,0.381000*%
%TD*%
%TA.AperFunction,Conductor*%
%ADD48C,0.254000*%
%TD*%
G04 APERTURE END LIST*
D10*
%TO.P,L2,1,1*%
%TO.N,+3.3V*%
X90283000Y-61976000D03*
%TO.P,L2,2,2*%
%TO.N,Net-(U1-AVCC)*%
X88533000Y-61976000D03*
%TD*%
D11*
%TO.P,C39,1*%
%TO.N,/DET_0*%
X95088994Y-81550500D03*
%TO.P,C39,2*%
%TO.N,Net-(C39-Pad2)*%
X95088994Y-79825500D03*
%TD*%
D12*
%TO.P,C1,1*%
%TO.N,+12V*%
X63139000Y-59544000D03*
%TO.P,C1,2*%
%TO.N,GND*%
X63139000Y-61269000D03*
%TD*%
D13*
%TO.P,D2,1,K*%
%TO.N,/BOOST/SHDN*%
X79111500Y-62992000D03*
%TO.P,D2,2,A*%
%TO.N,Net-(D2-A)*%
X80861500Y-62992000D03*
%TD*%
D14*
%TO.P,R1,1*%
%TO.N,/COMM{slash}RX*%
X77089000Y-52935500D03*
%TO.P,R1,2*%
%TO.N,/COMM{slash}TX*%
X77089000Y-54760500D03*
%TD*%
D15*
%TO.P,U11,1*%
%TO.N,Net-(C37-Pad2)*%
X96965994Y-72282000D03*
%TO.P,U11,2,V-*%
%TO.N,-24V*%
X96965994Y-72932000D03*
%TO.P,U11,3,+*%
%TO.N,GND*%
X96965994Y-73582000D03*
%TO.P,U11,4,-*%
%TO.N,/DET_2*%
X99165994Y-73582000D03*
%TO.P,U11,5,V+*%
%TO.N,+3.3VA*%
X99165994Y-72282000D03*
%TD*%
%TO.P,U9,1*%
%TO.N,Net-(C35-Pad2)*%
X96965994Y-64662000D03*
%TO.P,U9,2,V-*%
%TO.N,-24V*%
X96965994Y-65312000D03*
%TO.P,U9,3,+*%
%TO.N,GND*%
X96965994Y-65962000D03*
%TO.P,U9,4,-*%
%TO.N,/DET_4*%
X99165994Y-65962000D03*
%TO.P,U9,5,V+*%
%TO.N,+3.3VA*%
X99165994Y-64662000D03*
%TD*%
D16*
%TO.P,C50,1*%
%TO.N,+12V*%
X69876500Y-81788000D03*
%TO.P,C50,2*%
%TO.N,GND*%
X71601500Y-81788000D03*
%TD*%
D17*
%TO.P,R6,1*%
%TO.N,Net-(U3-RT)*%
X73533000Y-54760500D03*
%TO.P,R6,2*%
%TO.N,GND*%
X73533000Y-52935500D03*
%TD*%
D18*
%TO.P,R17,1*%
%TO.N,/VBIAS*%
X82370300Y-70662800D03*
%TO.P,R17,2*%
%TO.N,Net-(U4-ADJ)*%
X80545300Y-70662800D03*
%TD*%
D19*
%TO.P,U16,1,OUT*%
%TO.N,+3.3V*%
X76962000Y-80615000D03*
%TO.P,U16,2*%
%TO.N,N/C*%
X76962000Y-81265000D03*
%TO.P,U16,3,PG*%
%TO.N,unconnected-(U16-PG-Pad3)*%
X76962000Y-81915000D03*
%TO.P,U16,4,EN*%
%TO.N,+12V*%
X78737000Y-81915000D03*
%TO.P,U16,5,GND*%
%TO.N,GND*%
X78737000Y-81265000D03*
%TO.P,U16,6,IN*%
%TO.N,+12V*%
X78737000Y-80615000D03*
D20*
%TO.P,U16,7,Pad*%
%TO.N,GND*%
X77849500Y-80715000D03*
D21*
X77849500Y-81265000D03*
D20*
X77849500Y-81815000D03*
%TD*%
D22*
%TO.P,C4,1*%
%TO.N,Net-(U3-SS)*%
X66648500Y-57619500D03*
%TO.P,C4,2*%
%TO.N,GND*%
X64923500Y-57619500D03*
%TD*%
D17*
%TO.P,R11,1*%
%TO.N,+3.3V*%
X72874500Y-75207500D03*
%TO.P,R11,2*%
%TO.N,Net-(Q2-G)*%
X72874500Y-73382500D03*
%TD*%
D11*
%TO.P,C54,1*%
%TO.N,Net-(U1-AVCC)*%
X86487000Y-61314500D03*
%TO.P,C54,2*%
%TO.N,GND*%
X86487000Y-59589500D03*
%TD*%
D23*
%TO.P,R15,1*%
%TO.N,+3.3V*%
X82757000Y-62992000D03*
%TO.P,R15,2*%
%TO.N,Net-(D2-A)*%
X84582000Y-62992000D03*
%TD*%
D12*
%TO.P,C2,1*%
%TO.N,Net-(U3-VCC)*%
X74041000Y-56757000D03*
%TO.P,C2,2*%
%TO.N,GND*%
X74041000Y-58482000D03*
%TD*%
D24*
%TO.P,Q3,1,G*%
%TO.N,/VR_SHDN*%
X88061800Y-71779300D03*
%TO.P,Q3,2,S*%
%TO.N,GND*%
X88061800Y-73679300D03*
%TO.P,Q3,3,D*%
%TO.N,/BOOST/SHDN*%
X89936800Y-72729300D03*
%TD*%
D22*
%TO.P,C49,1*%
%TO.N,+3.3V*%
X75411500Y-81788000D03*
%TO.P,C49,2*%
%TO.N,GND*%
X73686500Y-81788000D03*
%TD*%
%TO.P,C51,1*%
%TO.N,+3.3VA*%
X64743500Y-81788000D03*
%TO.P,C51,2*%
%TO.N,GND*%
X63018500Y-81788000D03*
%TD*%
D25*
%TO.P,U3,1,PGND*%
%TO.N,GND*%
X71707000Y-58357500D03*
%TO.P,U3,2,VCC*%
%TO.N,Net-(U3-VCC)*%
X71707000Y-57857500D03*
%TO.P,U3,3,BIAS*%
%TO.N,+12V*%
X71707000Y-57357500D03*
%TO.P,U3,4,PGOOD*%
%TO.N,/PGOOD*%
X71707000Y-56857500D03*
D26*
%TO.P,U3,5,RT*%
%TO.N,Net-(U3-RT)*%
X70957000Y-56107500D03*
%TO.P,U3,6,UVLO*%
%TO.N,/BOOST_ENA*%
X70457000Y-56107500D03*
%TO.P,U3,7,AGND*%
%TO.N,GND*%
X69957000Y-56107500D03*
%TO.P,U3,8,COMP*%
%TO.N,Net-(U3-COMP)*%
X69457000Y-56107500D03*
D25*
%TO.P,U3,9,FB*%
%TO.N,Net-(U3-FB)*%
X68707000Y-56857500D03*
%TO.P,U3,10,SS*%
%TO.N,Net-(U3-SS)*%
X68707000Y-57357500D03*
%TO.P,U3,11,MODE*%
%TO.N,GND*%
X68707000Y-57857500D03*
%TO.P,U3,12*%
%TO.N,N/C*%
X68707000Y-58357500D03*
D26*
%TO.P,U3,13,SW*%
%TO.N,Net-(D1-A)*%
X69457000Y-59107500D03*
%TO.P,U3,14,SW*%
X69957000Y-59107500D03*
%TO.P,U3,15*%
%TO.N,N/C*%
X70457000Y-59107500D03*
%TO.P,U3,16,PGND*%
%TO.N,GND*%
X70957000Y-59107500D03*
D27*
%TO.P,U3,17,EP/GND*%
X70627000Y-58027500D03*
X70627000Y-57187500D03*
X70207000Y-57607500D03*
D28*
X70207000Y-57607500D03*
D27*
X69787000Y-58027500D03*
X69787000Y-57187500D03*
%TD*%
D29*
%TO.P,U1,1,PD3*%
%TO.N,unconnected-(U1-PD3-Pad1)*%
X79453000Y-56436000D03*
%TO.P,U1,2,PD4*%
%TO.N,unconnected-(U1-PD4-Pad2)*%
X79453000Y-56936000D03*
%TO.P,U1,3,GND*%
%TO.N,GND*%
X79453000Y-57436000D03*
%TO.P,U1,4,VCC*%
%TO.N,+3.3V*%
X79453000Y-57936000D03*
%TO.P,U1,5,GND*%
%TO.N,GND*%
X79453000Y-58436000D03*
%TO.P,U1,6,VCC*%
%TO.N,+3.3V*%
X79453000Y-58936000D03*
%TO.P,U1,7,XTAL1/PB6*%
%TO.N,/VR_SHDN*%
X79453000Y-59436000D03*
%TO.P,U1,8,XTAL2/PB7*%
%TO.N,/PGOOD*%
X79453000Y-59936000D03*
D30*
%TO.P,U1,9,PD5*%
%TO.N,unconnected-(U1-PD5-Pad9)*%
X80140500Y-60623500D03*
%TO.P,U1,10,PD6*%
%TO.N,unconnected-(U1-PD6-Pad10)*%
X80640500Y-60623500D03*
%TO.P,U1,11,PD7*%
%TO.N,unconnected-(U1-PD7-Pad11)*%
X81140500Y-60623500D03*
%TO.P,U1,12,PB0*%
%TO.N,/~{SYNC}*%
X81640500Y-60623500D03*
%TO.P,U1,13,PB1*%
%TO.N,/VR_RESET*%
X82140500Y-60623500D03*
%TO.P,U1,14,PB2*%
%TO.N,/BOOST_ENA*%
X82640500Y-60623500D03*
%TO.P,U1,15,PB3*%
%TO.N,/MOSI*%
X83140500Y-60623500D03*
%TO.P,U1,16,PB4*%
%TO.N,/MISO*%
X83640500Y-60623500D03*
D29*
%TO.P,U1,17,PB5*%
%TO.N,/SCK*%
X84328000Y-59936000D03*
%TO.P,U1,18,AVCC*%
%TO.N,Net-(U1-AVCC)*%
X84328000Y-59436000D03*
%TO.P,U1,19,ADC6*%
%TO.N,unconnected-(U1-ADC6-Pad19)*%
X84328000Y-58936000D03*
%TO.P,U1,20,AREF*%
%TO.N,Net-(U1-AREF)*%
X84328000Y-58436000D03*
%TO.P,U1,21,GND*%
%TO.N,GND*%
X84328000Y-57936000D03*
%TO.P,U1,22,ADC7*%
%TO.N,unconnected-(U1-ADC7-Pad22)*%
X84328000Y-57436000D03*
%TO.P,U1,23,PC0*%
%TO.N,/ADC_IMON*%
X84328000Y-56936000D03*
%TO.P,U1,24,PC1*%
%TO.N,/ADC_VMON*%
X84328000Y-56436000D03*
D30*
%TO.P,U1,25,PC2*%
%TO.N,/THERM*%
X83640500Y-55748500D03*
%TO.P,U1,26,PC3*%
%TO.N,unconnected-(U1-PC3-Pad26)*%
X83140500Y-55748500D03*
%TO.P,U1,27,PC4*%
%TO.N,unconnected-(U1-PC4-Pad27)*%
X82640500Y-55748500D03*
%TO.P,U1,28,PC5*%
%TO.N,unconnected-(U1-PC5-Pad28)*%
X82140500Y-55748500D03*
%TO.P,U1,29,~{RESET}/PC6*%
%TO.N,/~{RESET}*%
X81640500Y-55748500D03*
%TO.P,U1,30,PD0*%
%TO.N,/COMM{slash}RX*%
X81140500Y-55748500D03*
%TO.P,U1,31,PD1*%
%TO.N,/COMM{slash}TX*%
X80640500Y-55748500D03*
%TO.P,U1,32,PD2*%
%TO.N,Net-(U1-PD2)*%
X80140500Y-55748500D03*
D31*
%TO.P,U1,33,GND*%
%TO.N,GND*%
X81890500Y-58186000D03*
%TD*%
D32*
%TO.P,TP8,1,1*%
%TO.N,/VBIAS*%
X84836000Y-70739000D03*
%TD*%
D12*
%TO.P,C13,1*%
%TO.N,+3.3V*%
X77262500Y-74813500D03*
%TO.P,C13,2*%
%TO.N,GND*%
X77262500Y-76538500D03*
%TD*%
D24*
%TO.P,Q1,1,G*%
%TO.N,/VR_RESET*%
X88066800Y-77616300D03*
%TO.P,Q1,2,S*%
%TO.N,GND*%
X88066800Y-79516300D03*
%TO.P,Q1,3,D*%
%TO.N,Net-(Q1-D)*%
X89941800Y-78566300D03*
%TD*%
D11*
%TO.P,C34,1*%
%TO.N,/DET_5*%
X95088994Y-62373500D03*
%TO.P,C34,2*%
%TO.N,Net-(C34-Pad2)*%
X95088994Y-60648500D03*
%TD*%
%TO.P,C10,1*%
%TO.N,/BOOST/62V*%
X71628000Y-63181000D03*
%TO.P,C10,2*%
%TO.N,GND*%
X71628000Y-61456000D03*
%TD*%
D33*
%TO.P,C9,1*%
%TO.N,/BOOST/62V*%
X74168000Y-63881000D03*
%TO.P,C9,2*%
%TO.N,GND*%
X74168000Y-60756000D03*
%TD*%
D34*
%TO.P,U5,1,VDD*%
%TO.N,+3.3V*%
X79548500Y-74692000D03*
%TO.P,U5,2,A*%
%TO.N,Net-(U5-A)*%
X79548500Y-75192000D03*
%TO.P,U5,3,W*%
%TO.N,GND*%
X79548500Y-75692000D03*
%TO.P,U5,4,VSS*%
X79548500Y-76192000D03*
%TO.P,U5,5,EXT_CAP*%
%TO.N,Net-(U5-EXT_CAP)*%
X79548500Y-76692000D03*
%TO.P,U5,6,GND*%
%TO.N,GND*%
X83773500Y-76692000D03*
%TO.P,U5,7,SDO*%
%TO.N,/MISO*%
X83773500Y-76192000D03*
%TO.P,U5,8,DIN*%
%TO.N,/MOSI*%
X83773500Y-75692000D03*
%TO.P,U5,9,SCLK*%
%TO.N,/SCK*%
X83773500Y-75192000D03*
%TO.P,U5,10,~{SYNC}*%
%TO.N,/~{SYNC}*%
X83773500Y-74692000D03*
%TD*%
D23*
%TO.P,R10,1*%
%TO.N,Net-(U2-V_{IN-})*%
X70946000Y-69469000D03*
%TO.P,R10,2*%
%TO.N,/BOOST/V62_IN*%
X72771000Y-69469000D03*
%TD*%
D11*
%TO.P,C37,1*%
%TO.N,/DET_2*%
X95088994Y-73787000D03*
%TO.P,C37,2*%
%TO.N,Net-(C37-Pad2)*%
X95088994Y-72062000D03*
%TD*%
D35*
%TO.P,L1,1,1*%
%TO.N,+12V*%
X64801000Y-60425500D03*
%TO.P,L1,2,2*%
%TO.N,Net-(D1-A)*%
X67001000Y-60425500D03*
%TD*%
D16*
%TO.P,C48,1*%
%TO.N,+12V*%
X80544500Y-81788000D03*
%TO.P,C48,2*%
%TO.N,GND*%
X82269500Y-81788000D03*
%TD*%
D36*
%TO.P,U4,1,VIN*%
%TO.N,/BOOST/V62_IN*%
X79812300Y-66791800D03*
%TO.P,U4,2,GND*%
%TO.N,GND*%
X79812300Y-67741800D03*
%TO.P,U4,3,~{SHDN}*%
%TO.N,/BOOST/SHDN*%
X79812300Y-68691800D03*
%TO.P,U4,4,ADJ*%
%TO.N,Net-(U4-ADJ)*%
X82087300Y-68691800D03*
%TO.P,U4,5,VOUT*%
%TO.N,/VBIAS*%
X82087300Y-66791800D03*
%TD*%
D37*
%TO.P,D1,1,K*%
%TO.N,/BOOST/62V*%
X69330000Y-63860500D03*
%TO.P,D1,2,A*%
%TO.N,Net-(D1-A)*%
X69330000Y-61060500D03*
%TD*%
D23*
%TO.P,R46,1*%
%TO.N,/THERM*%
X88495500Y-58547000D03*
%TO.P,R46,2*%
%TO.N,+3.3V*%
X90320500Y-58547000D03*
%TD*%
D38*
%TO.P,R9,1*%
%TO.N,/BOOST/62V*%
X69443000Y-66675000D03*
%TO.P,R9,2*%
%TO.N,/BOOST/V62_IN*%
X72543000Y-66675000D03*
%TD*%
D11*
%TO.P,C55,1*%
%TO.N,Net-(U1-AREF)*%
X86487000Y-57631500D03*
%TO.P,C55,2*%
%TO.N,GND*%
X86487000Y-55906500D03*
%TD*%
D39*
%TO.P,J3,1,MISO*%
%TO.N,/MISO*%
X79931000Y-53213000D03*
D40*
%TO.P,J3,2,VCC*%
%TO.N,+3.3V*%
X80931000Y-53213000D03*
%TO.P,J3,3,SCK*%
%TO.N,/SCK*%
X81931000Y-53213000D03*
%TO.P,J3,4,MOSI*%
%TO.N,/MOSI*%
X82931000Y-53213000D03*
%TO.P,J3,5,~{RST}*%
%TO.N,/~{RESET}*%
X83931000Y-53213000D03*
%TO.P,J3,6,GND*%
%TO.N,GND*%
X84931000Y-53213000D03*
%TD*%
D15*
%TO.P,U7,1*%
%TO.N,Net-(C33-Pad2)*%
X96965994Y-57149000D03*
%TO.P,U7,2,V-*%
%TO.N,-24V*%
X96965994Y-57799000D03*
%TO.P,U7,3,+*%
%TO.N,GND*%
X96965994Y-58449000D03*
%TO.P,U7,4,-*%
%TO.N,/DET_6*%
X99165994Y-58449000D03*
%TO.P,U7,5,V+*%
%TO.N,+3.3VA*%
X99165994Y-57149000D03*
%TD*%
D11*
%TO.P,C33,1*%
%TO.N,/DET_6*%
X95088994Y-58654000D03*
%TO.P,C33,2*%
%TO.N,Net-(C33-Pad2)*%
X95088994Y-56929000D03*
%TD*%
D16*
%TO.P,C53,1*%
%TO.N,/THERM*%
X88545500Y-60325000D03*
%TO.P,C53,2*%
%TO.N,GND*%
X90270500Y-60325000D03*
%TD*%
D14*
%TO.P,R32,1*%
%TO.N,Net-(C35-Pad2)*%
X93310994Y-64365500D03*
%TO.P,R32,2*%
%TO.N,/SIG_4*%
X93310994Y-66190500D03*
%TD*%
D17*
%TO.P,R13,1*%
%TO.N,/BOOST/62V*%
X63119000Y-57770000D03*
%TO.P,R13,2*%
%TO.N,Net-(U3-FB)*%
X63119000Y-55945000D03*
%TD*%
D16*
%TO.P,C14,1*%
%TO.N,Net-(U5-EXT_CAP)*%
X80845000Y-78359000D03*
%TO.P,C14,2*%
%TO.N,GND*%
X82570000Y-78359000D03*
%TD*%
D15*
%TO.P,U6,1*%
%TO.N,Net-(C32-Pad2)*%
X96965994Y-53318500D03*
%TO.P,U6,2,V-*%
%TO.N,-24V*%
X96965994Y-53968500D03*
%TO.P,U6,3,+*%
%TO.N,GND*%
X96965994Y-54618500D03*
%TO.P,U6,4,-*%
%TO.N,/DET_7*%
X99165994Y-54618500D03*
%TO.P,U6,5,V+*%
%TO.N,+3.3VA*%
X99165994Y-53318500D03*
%TD*%
D18*
%TO.P,R14,1*%
%TO.N,Net-(U3-FB)*%
X66698500Y-55968500D03*
%TO.P,R14,2*%
%TO.N,GND*%
X64873500Y-55968500D03*
%TD*%
D15*
%TO.P,U10,1*%
%TO.N,Net-(C36-Pad2)*%
X96965994Y-68475000D03*
%TO.P,U10,2,V-*%
%TO.N,-24V*%
X96965994Y-69125000D03*
%TO.P,U10,3,+*%
%TO.N,GND*%
X96965994Y-69775000D03*
%TO.P,U10,4,-*%
%TO.N,/DET_3*%
X99165994Y-69775000D03*
%TO.P,U10,5,V+*%
%TO.N,+3.3VA*%
X99165994Y-68475000D03*
%TD*%
D41*
%TO.P,J2,1,Pin_1*%
%TO.N,+12V*%
X59182000Y-77470000D03*
%TO.P,J2,2,Pin_2*%
%TO.N,-24V*%
X55118000Y-77470000D03*
%TO.P,J2,3,Pin_3*%
%TO.N,GND*%
X59182000Y-76200000D03*
%TO.P,J2,4,Pin_4*%
%TO.N,/SIG_0*%
X55118000Y-76200000D03*
%TO.P,J2,5,Pin_5*%
%TO.N,+12V*%
X59182000Y-74930000D03*
%TO.P,J2,6,Pin_6*%
%TO.N,-24V*%
X55118000Y-74930000D03*
%TO.P,J2,7,Pin_7*%
%TO.N,GND*%
X59182000Y-73660000D03*
%TO.P,J2,8,Pin_8*%
%TO.N,/SIG_1*%
X55118000Y-73660000D03*
%TO.P,J2,9,Pin_9*%
%TO.N,+12V*%
X59182000Y-72390000D03*
%TO.P,J2,10,Pin_10*%
%TO.N,-24V*%
X55118000Y-72390000D03*
%TO.P,J2,11,Pin_11*%
%TO.N,GND*%
X59182000Y-71120000D03*
%TO.P,J2,12,Pin_12*%
%TO.N,/SIG_2*%
X55118000Y-71120000D03*
%TO.P,J2,13,Pin_13*%
%TO.N,+12V*%
X59182000Y-69850000D03*
%TO.P,J2,14,Pin_14*%
%TO.N,-24V*%
X55118000Y-69850000D03*
%TO.P,J2,15,Pin_15*%
%TO.N,GND*%
X59182000Y-68580000D03*
%TO.P,J2,16,Pin_16*%
%TO.N,/SIG_3*%
X55118000Y-68580000D03*
%TO.P,J2,17,Pin_17*%
%TO.N,+12V*%
X59182000Y-67310000D03*
%TO.P,J2,18,Pin_18*%
%TO.N,-24V*%
X55118000Y-67310000D03*
%TO.P,J2,19,Pin_19*%
%TO.N,GND*%
X59182000Y-66040000D03*
%TO.P,J2,20,Pin_20*%
%TO.N,/SIG_4*%
X55118000Y-66040000D03*
%TO.P,J2,21,Pin_21*%
%TO.N,+12V*%
X59182000Y-64770000D03*
%TO.P,J2,22,Pin_22*%
%TO.N,-24V*%
X55118000Y-64770000D03*
%TO.P,J2,23,Pin_23*%
%TO.N,GND*%
X59182000Y-63500000D03*
%TO.P,J2,24,Pin_24*%
%TO.N,/SIG_5*%
X55118000Y-63500000D03*
%TO.P,J2,25,Pin_25*%
%TO.N,+12V*%
X59182000Y-62230000D03*
%TO.P,J2,26,Pin_26*%
%TO.N,-24V*%
X55118000Y-62230000D03*
%TO.P,J2,27,Pin_27*%
%TO.N,GND*%
X59182000Y-60960000D03*
%TO.P,J2,28,Pin_28*%
%TO.N,/SIG_6*%
X55118000Y-60960000D03*
%TO.P,J2,29,Pin_29*%
%TO.N,+12V*%
X59182000Y-59690000D03*
%TO.P,J2,30,Pin_30*%
%TO.N,-24V*%
X55118000Y-59690000D03*
%TO.P,J2,31,Pin_31*%
%TO.N,GND*%
X59182000Y-58420000D03*
%TO.P,J2,32,Pin_32*%
%TO.N,/SIG_7*%
X55118000Y-58420000D03*
%TO.P,J2,33,Pin_33*%
%TO.N,/COMM{slash}RX*%
X59182000Y-57150000D03*
%TO.P,J2,34,Pin_34*%
%TO.N,/COMM{slash}TX*%
X55118000Y-57150000D03*
%TD*%
D14*
%TO.P,R36,1*%
%TO.N,Net-(C39-Pad2)*%
X93310994Y-79749000D03*
%TO.P,R36,2*%
%TO.N,/SIG_0*%
X93310994Y-81574000D03*
%TD*%
D23*
%TO.P,R2,1*%
%TO.N,/ADC_IMON*%
X67136000Y-78994000D03*
%TO.P,R2,2*%
%TO.N,Net-(U2-CMP_{IN})*%
X68961000Y-78994000D03*
%TD*%
D12*
%TO.P,C11,1*%
%TO.N,/BOOST/V62_IN*%
X77012800Y-66879300D03*
%TO.P,C11,2*%
%TO.N,GND*%
X77012800Y-68604300D03*
%TD*%
D11*
%TO.P,C35,1*%
%TO.N,/DET_4*%
X95088994Y-66167000D03*
%TO.P,C35,2*%
%TO.N,Net-(C35-Pad2)*%
X95088994Y-64442000D03*
%TD*%
D16*
%TO.P,C15,1*%
%TO.N,Net-(U4-ADJ)*%
X82877000Y-72882000D03*
%TO.P,C15,2*%
%TO.N,GND*%
X84602000Y-72882000D03*
%TD*%
D22*
%TO.P,C8,1*%
%TO.N,Net-(U3-COMP)*%
X71855500Y-54102000D03*
%TO.P,C8,2*%
%TO.N,GND*%
X70130500Y-54102000D03*
%TD*%
D14*
%TO.P,R31,1*%
%TO.N,Net-(C34-Pad2)*%
X93310994Y-60572000D03*
%TO.P,R31,2*%
%TO.N,/SIG_5*%
X93310994Y-62397000D03*
%TD*%
%TO.P,R33,1*%
%TO.N,Net-(C36-Pad2)*%
X93310994Y-68178500D03*
%TO.P,R33,2*%
%TO.N,/SIG_3*%
X93310994Y-70003500D03*
%TD*%
D10*
%TO.P,D3,1,K*%
%TO.N,GND*%
X90283000Y-52959000D03*
%TO.P,D3,2,A*%
%TO.N,Net-(D3-A)*%
X88533000Y-52959000D03*
%TD*%
D42*
%TO.P,U2,1,V_{s}*%
%TO.N,+3.3V*%
X67032500Y-76705000D03*
%TO.P,U2,2,OUT*%
%TO.N,/ADC_IMON*%
X68302500Y-76705000D03*
%TO.P,U2,3,CMP_{IN}*%
%TO.N,Net-(U2-CMP_{IN})*%
X69572500Y-76705000D03*
%TO.P,U2,4,GND*%
%TO.N,GND*%
X70842500Y-76705000D03*
%TO.P,U2,5,~{RESET}*%
%TO.N,Net-(Q1-D)*%
X70842500Y-71755000D03*
%TO.P,U2,6,CMP_{OUT}*%
%TO.N,Net-(Q2-G)*%
X69572500Y-71755000D03*
%TO.P,U2,7,V_{IN-}*%
%TO.N,Net-(U2-V_{IN-})*%
X68302500Y-71755000D03*
%TO.P,U2,8,V_{IN+}*%
%TO.N,Net-(U2-V_{IN+})*%
X67032500Y-71755000D03*
%TD*%
D23*
%TO.P,R16,1*%
%TO.N,+3.3V*%
X87710000Y-63627000D03*
%TO.P,R16,2*%
%TO.N,/BOOST/SHDN*%
X89535000Y-63627000D03*
%TD*%
D18*
%TO.P,R20,1*%
%TO.N,Net-(U4-ADJ)*%
X79191000Y-72882000D03*
%TO.P,R20,2*%
%TO.N,Net-(U5-A)*%
X77366000Y-72882000D03*
%TD*%
%TO.P,R12,1*%
%TO.N,Net-(U3-COMP)*%
X68349500Y-54190500D03*
%TO.P,R12,2*%
%TO.N,Net-(C7-Pad1)*%
X66524500Y-54190500D03*
%TD*%
D11*
%TO.P,C52,1*%
%TO.N,+3.3V*%
X76962000Y-58520500D03*
%TO.P,C52,2*%
%TO.N,GND*%
X76962000Y-56795500D03*
%TD*%
%TO.P,C3,1*%
%TO.N,+12V*%
X75311000Y-54710500D03*
%TO.P,C3,2*%
%TO.N,GND*%
X75311000Y-52985500D03*
%TD*%
%TO.P,C5,1*%
%TO.N,+3.3V*%
X65000500Y-75157500D03*
%TO.P,C5,2*%
%TO.N,GND*%
X65000500Y-73432500D03*
%TD*%
D17*
%TO.P,R8,1*%
%TO.N,Net-(U2-V_{IN+})*%
X65000500Y-71270500D03*
%TO.P,R8,2*%
%TO.N,/BOOST/62V*%
X65000500Y-69445500D03*
%TD*%
D23*
%TO.P,R3,1*%
%TO.N,Net-(U2-CMP_{IN})*%
X70946000Y-78994000D03*
%TO.P,R3,2*%
%TO.N,GND*%
X72771000Y-78994000D03*
%TD*%
D16*
%TO.P,C6,1*%
%TO.N,Net-(U2-V_{IN+})*%
X67186000Y-69469000D03*
%TO.P,C6,2*%
%TO.N,Net-(U2-V_{IN-})*%
X68911000Y-69469000D03*
%TD*%
D14*
%TO.P,R34,1*%
%TO.N,Net-(C37-Pad2)*%
X93310994Y-71985500D03*
%TO.P,R34,2*%
%TO.N,/SIG_2*%
X93310994Y-73810500D03*
%TD*%
D11*
%TO.P,C32,1*%
%TO.N,/DET_7*%
X95088994Y-54823500D03*
%TO.P,C32,2*%
%TO.N,Net-(C32-Pad2)*%
X95088994Y-53098500D03*
%TD*%
D18*
%TO.P,R18,1*%
%TO.N,/VBIAS*%
X84605500Y-64897000D03*
%TO.P,R18,2*%
%TO.N,/ADC_VMON*%
X82780500Y-64897000D03*
%TD*%
D24*
%TO.P,Q2,1,G*%
%TO.N,Net-(Q2-G)*%
X88013300Y-66003300D03*
%TO.P,Q2,2,S*%
%TO.N,GND*%
X88013300Y-67903300D03*
%TO.P,Q2,3,D*%
%TO.N,/BOOST/SHDN*%
X89888300Y-66953300D03*
%TD*%
D19*
%TO.P,U14,1,OUT*%
%TO.N,+3.3VA*%
X66424000Y-80615000D03*
%TO.P,U14,2*%
%TO.N,N/C*%
X66424000Y-81265000D03*
%TO.P,U14,3,PG*%
%TO.N,unconnected-(U14-PG-Pad3)*%
X66424000Y-81915000D03*
%TO.P,U14,4,EN*%
%TO.N,+12V*%
X68199000Y-81915000D03*
%TO.P,U14,5,GND*%
%TO.N,GND*%
X68199000Y-81265000D03*
%TO.P,U14,6,IN*%
%TO.N,+12V*%
X68199000Y-80615000D03*
D20*
%TO.P,U14,7,Pad*%
%TO.N,GND*%
X67311500Y-80715000D03*
D21*
X67311500Y-81265000D03*
D20*
X67311500Y-81815000D03*
%TD*%
D12*
%TO.P,C12,1*%
%TO.N,/VBIAS*%
X84886800Y-67006300D03*
%TO.P,C12,2*%
%TO.N,GND*%
X84886800Y-68731300D03*
%TD*%
D11*
%TO.P,C38,1*%
%TO.N,/DET_1*%
X95088994Y-77613500D03*
%TO.P,C38,2*%
%TO.N,Net-(C38-Pad2)*%
X95088994Y-75888500D03*
%TD*%
D14*
%TO.P,R29,1*%
%TO.N,Net-(C32-Pad2)*%
X93310994Y-53022000D03*
%TO.P,R29,2*%
%TO.N,/SIG_7*%
X93310994Y-54847000D03*
%TD*%
D11*
%TO.P,C36,1*%
%TO.N,/DET_3*%
X95088994Y-69980000D03*
%TO.P,C36,2*%
%TO.N,Net-(C36-Pad2)*%
X95088994Y-68255000D03*
%TD*%
D15*
%TO.P,U8,1*%
%TO.N,Net-(C34-Pad2)*%
X96965994Y-60868500D03*
%TO.P,U8,2,V-*%
%TO.N,-24V*%
X96965994Y-61518500D03*
%TO.P,U8,3,+*%
%TO.N,GND*%
X96965994Y-62168500D03*
%TO.P,U8,4,-*%
%TO.N,/DET_5*%
X99165994Y-62168500D03*
%TO.P,U8,5,V+*%
%TO.N,+3.3VA*%
X99165994Y-60868500D03*
%TD*%
%TO.P,U13,1*%
%TO.N,Net-(C39-Pad2)*%
X96965994Y-80045500D03*
%TO.P,U13,2,V-*%
%TO.N,-24V*%
X96965994Y-80695500D03*
%TO.P,U13,3,+*%
%TO.N,GND*%
X96965994Y-81345500D03*
%TO.P,U13,4,-*%
%TO.N,/DET_0*%
X99165994Y-81345500D03*
%TO.P,U13,5,V+*%
%TO.N,+3.3VA*%
X99165994Y-80045500D03*
%TD*%
D18*
%TO.P,R19,1*%
%TO.N,/ADC_VMON*%
X80922500Y-64897000D03*
%TO.P,R19,2*%
%TO.N,GND*%
X79097500Y-64897000D03*
%TD*%
D23*
%TO.P,R7,1*%
%TO.N,+3.3V*%
X87784300Y-69874300D03*
%TO.P,R7,2*%
%TO.N,/VR_SHDN*%
X89609300Y-69874300D03*
%TD*%
%TO.P,R4,1*%
%TO.N,/VR_RESET*%
X87633800Y-75716300D03*
%TO.P,R4,2*%
%TO.N,GND*%
X89458800Y-75716300D03*
%TD*%
D14*
%TO.P,R35,1*%
%TO.N,Net-(C38-Pad2)*%
X93310994Y-75812000D03*
%TO.P,R35,2*%
%TO.N,/SIG_1*%
X93310994Y-77637000D03*
%TD*%
D22*
%TO.P,C7,1*%
%TO.N,Net-(C7-Pad1)*%
X64693500Y-54190500D03*
%TO.P,C7,2*%
%TO.N,GND*%
X62968500Y-54190500D03*
%TD*%
D14*
%TO.P,R30,1*%
%TO.N,Net-(C33-Pad2)*%
X93310994Y-56852500D03*
%TO.P,R30,2*%
%TO.N,/SIG_6*%
X93310994Y-58677500D03*
%TD*%
D23*
%TO.P,R47,1*%
%TO.N,Net-(U1-PD2)*%
X88495500Y-54991000D03*
%TO.P,R47,2*%
%TO.N,Net-(D3-A)*%
X90320500Y-54991000D03*
%TD*%
%TO.P,R45,1*%
%TO.N,/~{RESET}*%
X88495500Y-56769000D03*
%TO.P,R45,2*%
%TO.N,+3.3V*%
X90320500Y-56769000D03*
%TD*%
D15*
%TO.P,U12,1*%
%TO.N,Net-(C38-Pad2)*%
X96965994Y-76108500D03*
%TO.P,U12,2,V-*%
%TO.N,-24V*%
X96965994Y-76758500D03*
%TO.P,U12,3,+*%
%TO.N,GND*%
X96965994Y-77408500D03*
%TO.P,U12,4,-*%
%TO.N,/DET_1*%
X99165994Y-77408500D03*
%TO.P,U12,5,V+*%
%TO.N,+3.3VA*%
X99165994Y-76108500D03*
%TD*%
D43*
%TO.P,J1,1,Pin_1*%
%TO.N,/THERM*%
X111556800Y-56159400D03*
%TO.P,J1,2,Pin_2*%
%TO.N,/DET_7*%
X108826800Y-56159400D03*
%TO.P,J1,3,Pin_3*%
%TO.N,GND*%
X111556800Y-57429400D03*
%TO.P,J1,4,Pin_4*%
%TO.N,/TIA_0/SIPM_K*%
X108826800Y-57429400D03*
%TO.P,J1,5,Pin_5*%
%TO.N,unconnected-(J1-Pin_5-Pad5)*%
X111556800Y-58699400D03*
%TO.P,J1,6,Pin_6*%
%TO.N,/DET_6*%
X108826800Y-58699400D03*
%TO.P,J1,7,Pin_7*%
%TO.N,GND*%
X111556800Y-59969400D03*
%TO.P,J1,8,Pin_8*%
%TO.N,/TIA_1/SIPM_K*%
X108826800Y-59969400D03*
%TO.P,J1,9,Pin_9*%
%TO.N,unconnected-(J1-Pin_9-Pad9)*%
X111556800Y-61239400D03*
%TO.P,J1,10,Pin_10*%
%TO.N,/DET_5*%
X108826800Y-61239400D03*
%TO.P,J1,11,Pin_11*%
%TO.N,GND*%
X111556800Y-62509400D03*
%TO.P,J1,12,Pin_12*%
%TO.N,/TIA_2/SIPM_K*%
X108826800Y-62509400D03*
%TO.P,J1,13,Pin_13*%
%TO.N,unconnected-(J1-Pin_13-Pad13)*%
X111556800Y-63779400D03*
%TO.P,J1,14,Pin_14*%
%TO.N,/DET_4*%
X108826800Y-63779400D03*
%TO.P,J1,15,Pin_15*%
%TO.N,GND*%
X111556800Y-65049400D03*
%TO.P,J1,16,Pin_16*%
%TO.N,/TIA_3/SIPM_K*%
X108826800Y-65049400D03*
%TO.P,J1,17,Pin_17*%
%TO.N,unconnected-(J1-Pin_17-Pad17)*%
X111556800Y-66319400D03*
%TO.P,J1,18,Pin_18*%
%TO.N,/DET_3*%
X108826800Y-66319400D03*
%TO.P,J1,19,Pin_19*%
%TO.N,GND*%
X111556800Y-67589400D03*
%TO.P,J1,20,Pin_20*%
%TO.N,/TIA_4/SIPM_K*%
X108826800Y-67589400D03*
%TO.P,J1,21,Pin_21*%
%TO.N,unconnected-(J1-Pin_21-Pad21)*%
X111556800Y-68859400D03*
%TO.P,J1,22,Pin_22*%
%TO.N,/DET_2*%
X108826800Y-68859400D03*
%TO.P,J1,23,Pin_23*%
%TO.N,GND*%
X111556800Y-70129400D03*
%TO.P,J1,24,Pin_24*%
%TO.N,/TIA_5/SIPM_K*%
X108826800Y-70129400D03*
%TO.P,J1,25,Pin_25*%
%TO.N,unconnected-(J1-Pin_25-Pad25)*%
X111556800Y-71399400D03*
%TO.P,J1,26,Pin_26*%
%TO.N,/DET_1*%
X108826800Y-71399400D03*
%TO.P,J1,27,Pin_27*%
%TO.N,GND*%
X111556800Y-72669400D03*
%TO.P,J1,28,Pin_28*%
%TO.N,/TIA_6/SIPM_K*%
X108826800Y-72669400D03*
%TO.P,J1,29,Pin_29*%
%TO.N,unconnected-(J1-Pin_29-Pad29)*%
X111556800Y-73939400D03*
%TO.P,J1,30,Pin_30*%
%TO.N,/DET_0*%
X108826800Y-73939400D03*
%TO.P,J1,31,Pin_31*%
%TO.N,GND*%
X111556800Y-75209400D03*
%TO.P,J1,32,Pin_32*%
%TO.N,/TIA_7/SIPM_K*%
X108826800Y-75209400D03*
%TO.P,J1,33,Pin_33*%
%TO.N,unconnected-(J1-Pin_33-Pad33)*%
X111556800Y-76479400D03*
%TO.P,J1,34,Pin_34*%
%TO.N,unconnected-(J1-Pin_34-Pad34)*%
X108826800Y-76479400D03*
%TO.P,J1,35,Pin_35*%
%TO.N,unconnected-(J1-Pin_35-Pad35)*%
X111556800Y-77749400D03*
%TO.P,J1,36,Pin_36*%
%TO.N,unconnected-(J1-Pin_36-Pad36)*%
X108826800Y-77749400D03*
%TD*%
D23*
%TO.P,R5,1*%
%TO.N,+3.3V*%
X87784300Y-81431300D03*
%TO.P,R5,2*%
%TO.N,Net-(Q1-D)*%
X89609300Y-81431300D03*
%TD*%
D44*
%TO.N,GND*%
X103629000Y-81550500D03*
X87095500Y-59258200D03*
X98171000Y-53931500D03*
D45*
X83185000Y-81788000D03*
X63119000Y-81026000D03*
D44*
X98171000Y-69088000D03*
X99060000Y-63132500D03*
X98171000Y-76721500D03*
X64897000Y-56642000D03*
D45*
X89027000Y-67945000D03*
D44*
X71500000Y-77600000D03*
X61036200Y-73407000D03*
X63144400Y-60526000D03*
D45*
X80645000Y-75692000D03*
D44*
X103629000Y-69980000D03*
D45*
X78629000Y-58436000D03*
X80899000Y-68453000D03*
D44*
X103629000Y-77613500D03*
D45*
X83312000Y-78613000D03*
X80637000Y-76192000D03*
X90272700Y-75716300D03*
D44*
X75438000Y-60833000D03*
X71601500Y-80925500D03*
X99060000Y-59413000D03*
X103629000Y-66167000D03*
X61010800Y-60960000D03*
X103629000Y-58654000D03*
D45*
X70993000Y-59944000D03*
D44*
X99060000Y-78372500D03*
X113087800Y-70185400D03*
X60985400Y-71145400D03*
X74865000Y-58482000D03*
X113087800Y-65105400D03*
X77824500Y-56795500D03*
X91440000Y-52959000D03*
X98171000Y-72895000D03*
X99060000Y-66926000D03*
X61036200Y-68605400D03*
X86614000Y-56642000D03*
X113087800Y-59898400D03*
D45*
X85140800Y-58293000D03*
D44*
X72390000Y-58420000D03*
X99060000Y-74546000D03*
X76327000Y-76454000D03*
X61976000Y-54102000D03*
X98171000Y-57762000D03*
X98171000Y-61481500D03*
X61036200Y-58420000D03*
X113087800Y-67645400D03*
X103629000Y-62373500D03*
X98171000Y-65275000D03*
X103629000Y-73787000D03*
X61010800Y-76174600D03*
X91567000Y-60325000D03*
X99060000Y-55582500D03*
D45*
X71374000Y-60706000D03*
X84383187Y-68074564D03*
X84074000Y-72263000D03*
X68565000Y-81265000D03*
D44*
X113087800Y-62565400D03*
D45*
X79200000Y-81300000D03*
X89139700Y-79516300D03*
D44*
X63881000Y-73406000D03*
D45*
X82566000Y-76692000D03*
D44*
X69469000Y-54864000D03*
X73686500Y-80925500D03*
X77851000Y-64770000D03*
X99060000Y-82309500D03*
X60985400Y-63474600D03*
D45*
X73533000Y-78994000D03*
D44*
X76073000Y-68707000D03*
D45*
X89154000Y-73787000D03*
D44*
X113087800Y-75138400D03*
X103629000Y-54823500D03*
X98171000Y-80658500D03*
X113087800Y-57358400D03*
X113087800Y-72598400D03*
X61036200Y-66040000D03*
X99060000Y-70739000D03*
X74422000Y-53467000D03*
%TO.N,+12V*%
X57277000Y-59664600D03*
D45*
X79218000Y-80615000D03*
D44*
X75311000Y-55499000D03*
X57251600Y-62204600D03*
D45*
X68580000Y-81915000D03*
D44*
X63989000Y-59544000D03*
X69850000Y-80899000D03*
X57251600Y-69824600D03*
X57277000Y-64795400D03*
X57124600Y-77444600D03*
X57302400Y-72390000D03*
D45*
X80645000Y-81026000D03*
X72771000Y-57150000D03*
D44*
X57277000Y-67310000D03*
D45*
X68580000Y-80645000D03*
D44*
X57175400Y-75185000D03*
D45*
X79248000Y-81915000D03*
D44*
%TO.N,+3.3V*%
X91313000Y-56769000D03*
X76327000Y-74803000D03*
D45*
X82677000Y-61976000D03*
X78486000Y-59055000D03*
D44*
X79248000Y-74041000D03*
D45*
X88519000Y-69342000D03*
D44*
X66294000Y-76962000D03*
D45*
X86892300Y-81431300D03*
D44*
X65000500Y-76096500D03*
D45*
X78503485Y-57908628D03*
X87757000Y-64389000D03*
D44*
X73636500Y-75207500D03*
X91186000Y-61722000D03*
X75311000Y-80899000D03*
D45*
X76454000Y-80645000D03*
D44*
X77700000Y-58500000D03*
%TO.N,/VBIAS*%
X103629000Y-75962500D03*
X103629000Y-64516000D03*
X103629000Y-60722500D03*
X92075000Y-67310000D03*
X92075000Y-64770000D03*
X103629000Y-72136000D03*
X92075000Y-72390000D03*
X103629000Y-79899500D03*
X103629000Y-68329000D03*
X103629000Y-53172500D03*
X103629000Y-57003000D03*
X92075000Y-68580000D03*
X92075000Y-71120000D03*
%TO.N,-24V*%
X53213000Y-69824600D03*
X96124347Y-58004837D03*
X53000000Y-77500000D03*
X96124347Y-80901337D03*
X96124347Y-54174337D03*
X96124347Y-76964337D03*
X53263800Y-74930000D03*
X96124347Y-65517837D03*
X96124347Y-73137837D03*
X53238400Y-59690000D03*
X53213000Y-72339200D03*
X53187600Y-67335400D03*
X53213000Y-62204600D03*
X53213000Y-64770000D03*
X96124347Y-61724337D03*
X96124347Y-69330837D03*
D45*
%TO.N,Net-(C32-Pad2)*%
X94234000Y-53042500D03*
D44*
%TO.N,/TIA_0/SIPM_K*%
X101674491Y-55614959D03*
%TO.N,/TIA_1/SIPM_K*%
X101674491Y-59445459D03*
D45*
%TO.N,Net-(C33-Pad2)*%
X94234000Y-56873000D03*
%TO.N,Net-(C34-Pad2)*%
X94234000Y-60592500D03*
D44*
%TO.N,/TIA_2/SIPM_K*%
X101674491Y-63164959D03*
%TO.N,/TIA_3/SIPM_K*%
X101674491Y-66958459D03*
D45*
%TO.N,Net-(C35-Pad2)*%
X94234000Y-64386000D03*
%TO.N,Net-(C36-Pad2)*%
X94234000Y-68199000D03*
D44*
%TO.N,/TIA_4/SIPM_K*%
X101674491Y-70771459D03*
%TO.N,/TIA_5/SIPM_K*%
X101674491Y-74578459D03*
D45*
%TO.N,Net-(C37-Pad2)*%
X94234000Y-72006000D03*
D44*
%TO.N,/TIA_6/SIPM_K*%
X101674491Y-78404959D03*
D45*
%TO.N,Net-(C38-Pad2)*%
X94234000Y-75832500D03*
%TO.N,Net-(C39-Pad2)*%
X94234000Y-79769500D03*
D44*
%TO.N,/TIA_7/SIPM_K*%
X101674491Y-82341959D03*
D45*
%TO.N,/BOOST/SHDN*%
X91059000Y-63627000D03*
X77978000Y-62992000D03*
X78359000Y-68707000D03*
X91059000Y-72771000D03*
X91034700Y-66953300D03*
%TO.N,/DET_4*%
X96012000Y-66799000D03*
%TO.N,/THERM*%
X87757000Y-57785000D03*
X87376000Y-52324000D03*
X87355500Y-54764500D03*
%TO.N,/DET_1*%
X96012000Y-78245500D03*
%TO.N,/DET_2*%
X96012000Y-74419000D03*
%TO.N,/DET_0*%
X96012000Y-82182500D03*
%TO.N,/DET_5*%
X96012000Y-63005500D03*
%TO.N,/DET_6*%
X96012000Y-59286000D03*
%TO.N,/DET_7*%
X96012000Y-55455500D03*
%TO.N,/DET_3*%
X96012000Y-70612000D03*
D44*
%TO.N,/SIG_3*%
X92076100Y-70003500D03*
X53187600Y-68656200D03*
D45*
%TO.N,+3.3VA*%
X99695000Y-56365000D03*
X99695000Y-52534500D03*
X99695000Y-71498000D03*
X99695000Y-75324500D03*
X99695000Y-60084500D03*
X99695000Y-67691000D03*
X64743500Y-81052500D03*
X99695000Y-63878000D03*
X65943000Y-80615000D03*
X99695000Y-79261500D03*
D44*
%TO.N,/SIG_1*%
X53238400Y-73482200D03*
X92481400Y-77647800D03*
%TO.N,/SIG_2*%
X53213000Y-71145400D03*
X92557600Y-73761600D03*
%TO.N,/SIG_6*%
X53238400Y-60960000D03*
X92202000Y-58699400D03*
D45*
%TO.N,/COMM{slash}TX*%
X55118000Y-56007000D03*
X59944000Y-52578000D03*
D44*
%TO.N,/SIG_7*%
X92227400Y-54838600D03*
X53263800Y-58470800D03*
%TO.N,/SIG_4*%
X53187600Y-66014600D03*
X92049600Y-66014600D03*
%TO.N,/SIG_5*%
X92125800Y-62357000D03*
X53213000Y-63423800D03*
%TO.N,/SIG_0*%
X92506800Y-81559400D03*
X53263800Y-76225400D03*
D45*
%TO.N,Net-(Q1-D)*%
X70739000Y-73533000D03*
X72644000Y-77724000D03*
%TO.N,/VR_RESET*%
X81407000Y-74676000D03*
X81809184Y-61548437D03*
%TO.N,Net-(Q2-G)*%
X74930000Y-77089000D03*
X74930000Y-73279000D03*
X86614000Y-77343000D03*
X86523700Y-66003300D03*
%TO.N,/VR_SHDN*%
X80772000Y-74041000D03*
X78486000Y-59690000D03*
X89002700Y-71779300D03*
X90297000Y-69977000D03*
%TO.N,/ADC_IMON*%
X85344000Y-57785000D03*
X85344000Y-78105000D03*
%TO.N,/ADC_VMON*%
X85471000Y-57160240D03*
X86610000Y-64007685D03*
%TO.N,/MOSI*%
X84066000Y-61956856D03*
X84963000Y-75561000D03*
%TO.N,/~{SYNC}*%
X80926429Y-61611461D03*
X82432422Y-75069000D03*
%TO.N,/SCK*%
X84277200Y-60883800D03*
X82351030Y-75950252D03*
%TO.N,/BOOST_ENA*%
X72745600Y-60731400D03*
X70485000Y-55118000D03*
%TO.N,/~{RESET}*%
X83566000Y-54610000D03*
%TO.N,/MISO*%
X85348000Y-76342014D03*
X85348000Y-61341000D03*
%TO.N,/PGOOD*%
X72898000Y-59563000D03*
X72898000Y-56134000D03*
%TO.N,Net-(U1-PD2)*%
X79633500Y-55748500D03*
X80391000Y-54102000D03*
%TO.N,Net-(U1-AVCC)*%
X85090000Y-59436000D03*
%TD*%
D46*
%TO.N,GND*%
X69957000Y-56107500D02*
X69957000Y-57357500D01*
D47*
X98171000Y-65275000D02*
X97484000Y-65962000D01*
X113016800Y-72669400D02*
X113087800Y-72598400D01*
X86487000Y-59589500D02*
X87095500Y-59589500D01*
X76962000Y-56795500D02*
X77824500Y-56795500D01*
X111556800Y-65049400D02*
X113031800Y-65049400D01*
X62064500Y-54190500D02*
X61976000Y-54102000D01*
D48*
X79453000Y-57436000D02*
X81140500Y-57436000D01*
D46*
X84328000Y-57936000D02*
X82140500Y-57936000D01*
D47*
X97484000Y-77408500D02*
X96966000Y-77408500D01*
D46*
X72452000Y-58482000D02*
X72390000Y-58420000D01*
D47*
X65000500Y-73432500D02*
X63907500Y-73432500D01*
X71628000Y-61456000D02*
X71628000Y-60960000D01*
D48*
X63018500Y-81126500D02*
X63119000Y-81026000D01*
D47*
X113031800Y-67589400D02*
X113087800Y-67645400D01*
D48*
X79812300Y-67741800D02*
X80187800Y-67741800D01*
X78737000Y-81265000D02*
X79165000Y-81265000D01*
D47*
X71628000Y-60960000D02*
X71374000Y-60706000D01*
D46*
X89154000Y-79502000D02*
X89139700Y-79516300D01*
X74930000Y-58547000D02*
X74865000Y-58482000D01*
D48*
X78772000Y-57436000D02*
X78131500Y-56795500D01*
D47*
X79097500Y-64897000D02*
X77978000Y-64897000D01*
D48*
X80187800Y-67741800D02*
X80899000Y-68453000D01*
D47*
X98171000Y-69088000D02*
X97484000Y-69775000D01*
X71628000Y-80899000D02*
X71601500Y-80925500D01*
D48*
X78131500Y-56795500D02*
X77824500Y-56795500D01*
D47*
X64873500Y-55968500D02*
X64873500Y-56618500D01*
X98171000Y-53931500D02*
X97484000Y-54618500D01*
D46*
X84886800Y-68731300D02*
X84886800Y-68691860D01*
D47*
X59182000Y-71120000D02*
X60960000Y-71120000D01*
X90270500Y-60325000D02*
X91567000Y-60325000D01*
X111556800Y-57429400D02*
X113016800Y-57429400D01*
X77012800Y-68604300D02*
X76175700Y-68604300D01*
D46*
X84602000Y-72791000D02*
X84074000Y-72263000D01*
X84328000Y-57936000D02*
X84783800Y-57936000D01*
D48*
X79453000Y-58436000D02*
X78629000Y-58436000D01*
X79165000Y-81265000D02*
X79200000Y-81300000D01*
D46*
X68707000Y-57857500D02*
X69957000Y-57857500D01*
D47*
X97484000Y-58449000D02*
X96966000Y-58449000D01*
D48*
X63018500Y-81788000D02*
X63018500Y-81126500D01*
X81140500Y-57436000D02*
X81890500Y-58186000D01*
D46*
X83773500Y-76692000D02*
X82566000Y-76692000D01*
D47*
X73533000Y-52935500D02*
X73890500Y-52935500D01*
X98171000Y-76721500D02*
X97484000Y-77408500D01*
X87095500Y-59536500D02*
X87095500Y-59258200D01*
X64923500Y-56668500D02*
X64897000Y-56642000D01*
D46*
X74041000Y-58482000D02*
X72452000Y-58482000D01*
D47*
X98171000Y-61481500D02*
X97484000Y-62168500D01*
X60960000Y-63500000D02*
X60985400Y-63474600D01*
X97484000Y-54618500D02*
X96966000Y-54618500D01*
X111556800Y-70129400D02*
X113031800Y-70129400D01*
D46*
X69957000Y-57857500D02*
X70207000Y-57607500D01*
X88066800Y-79516300D02*
X89139700Y-79516300D01*
D47*
X111556800Y-62509400D02*
X113031800Y-62509400D01*
X113031800Y-70129400D02*
X113087800Y-70185400D01*
X97484000Y-81345500D02*
X96966000Y-81345500D01*
D46*
X84783800Y-57936000D02*
X85140800Y-58293000D01*
D48*
X70957000Y-59107500D02*
X70957000Y-59908000D01*
X72771000Y-78994000D02*
X73533000Y-78994000D01*
D47*
X60960000Y-71120000D02*
X60985400Y-71145400D01*
X113016800Y-75209400D02*
X113087800Y-75138400D01*
X77978000Y-64897000D02*
X77851000Y-64770000D01*
X76175700Y-68604300D02*
X76073000Y-68707000D01*
D46*
X79548500Y-76192000D02*
X80637000Y-76192000D01*
D47*
X113031800Y-65049400D02*
X113087800Y-65105400D01*
D46*
X89046300Y-73679300D02*
X89154000Y-73787000D01*
D47*
X113016800Y-59969400D02*
X113087800Y-59898400D01*
X70842500Y-76705000D02*
X70842500Y-77342500D01*
X113016800Y-57429400D02*
X113087800Y-57358400D01*
X59182000Y-58420000D02*
X61036200Y-58420000D01*
X74168000Y-60756000D02*
X75361000Y-60756000D01*
X113031800Y-62509400D02*
X113087800Y-62565400D01*
X87095500Y-59589500D02*
X87122000Y-59563000D01*
D46*
X69957000Y-57357500D02*
X70207000Y-57607500D01*
D47*
X97484000Y-69775000D02*
X96966000Y-69775000D01*
D48*
X79453000Y-57436000D02*
X78772000Y-57436000D01*
D46*
X90297000Y-75692000D02*
X90272700Y-75716300D01*
X69957000Y-56107500D02*
X69957000Y-55352000D01*
D47*
X64873500Y-56618500D02*
X64897000Y-56642000D01*
X59182000Y-66040000D02*
X61036200Y-66040000D01*
D46*
X80645000Y-76200000D02*
X80637000Y-76192000D01*
X82550000Y-76708000D02*
X82566000Y-76692000D01*
X88061800Y-73679300D02*
X89046300Y-73679300D01*
X88013300Y-67903300D02*
X88985300Y-67903300D01*
D47*
X98171000Y-57762000D02*
X97484000Y-58449000D01*
X61010800Y-73660000D02*
X61036200Y-73634600D01*
X111556800Y-59969400D02*
X113016800Y-59969400D01*
X71601500Y-81788000D02*
X71601500Y-80925500D01*
X70130500Y-54102000D02*
X70130500Y-54202500D01*
X77851000Y-56769000D02*
X77824500Y-56795500D01*
X97484000Y-73582000D02*
X96966000Y-73582000D01*
X111556800Y-75209400D02*
X113016800Y-75209400D01*
X111556800Y-67589400D02*
X113031800Y-67589400D01*
D46*
X79548500Y-75692000D02*
X80645000Y-75692000D01*
D47*
X76411500Y-76538500D02*
X76327000Y-76454000D01*
X75311000Y-52985500D02*
X74903500Y-52985500D01*
D46*
X88985300Y-67903300D02*
X89027000Y-67945000D01*
D47*
X70842500Y-77342500D02*
X71100000Y-77600000D01*
X90283000Y-52959000D02*
X91440000Y-52959000D01*
X71100000Y-77600000D02*
X71500000Y-77600000D01*
X60985400Y-76200000D02*
X61010800Y-76174600D01*
D46*
X74041000Y-58482000D02*
X74865000Y-58482000D01*
X71707000Y-58357500D02*
X72327500Y-58357500D01*
X83296000Y-78597000D02*
X83312000Y-78613000D01*
D47*
X86487000Y-55906500D02*
X86487000Y-56515000D01*
X97484000Y-62168500D02*
X96966000Y-62168500D01*
D48*
X70957000Y-58357500D02*
X70207000Y-57607500D01*
D47*
X63139000Y-60531400D02*
X63144400Y-60526000D01*
X86487000Y-56515000D02*
X86614000Y-56642000D01*
X73890500Y-52935500D02*
X74422000Y-53467000D01*
X97484000Y-65962000D02*
X96966000Y-65962000D01*
X64923500Y-57619500D02*
X64923500Y-56668500D01*
X61010800Y-68580000D02*
X61036200Y-68605400D01*
X111556800Y-72669400D02*
X113016800Y-72669400D01*
D48*
X68199000Y-81265000D02*
X68565000Y-81265000D01*
D46*
X72327500Y-58357500D02*
X72390000Y-58420000D01*
X84602000Y-72882000D02*
X84602000Y-72791000D01*
D47*
X59182000Y-76200000D02*
X60985400Y-76200000D01*
X75361000Y-60756000D02*
X75438000Y-60833000D01*
X73660000Y-80899000D02*
X73686500Y-80925500D01*
D48*
X78613000Y-58420000D02*
X78629000Y-58436000D01*
D46*
X84269504Y-68074564D02*
X84383187Y-68074564D01*
X82269500Y-81788000D02*
X83185000Y-81788000D01*
X84886800Y-68691860D02*
X84269504Y-68074564D01*
X69957000Y-55352000D02*
X69469000Y-54864000D01*
X89458800Y-75716300D02*
X90272700Y-75716300D01*
D47*
X63139000Y-61269000D02*
X63139000Y-60531400D01*
X59182000Y-63500000D02*
X60960000Y-63500000D01*
D48*
X70957000Y-59908000D02*
X70993000Y-59944000D01*
D47*
X98171000Y-72895000D02*
X97484000Y-73582000D01*
X98171000Y-80658500D02*
X97484000Y-81345500D01*
X59182000Y-73660000D02*
X61010800Y-73660000D01*
X59182000Y-60960000D02*
X61010800Y-60960000D01*
D46*
X82570000Y-78597000D02*
X83296000Y-78597000D01*
D47*
X63907500Y-73432500D02*
X63881000Y-73406000D01*
X70130500Y-54202500D02*
X69469000Y-54864000D01*
X87122000Y-59563000D02*
X87095500Y-59536500D01*
D48*
X68580000Y-81280000D02*
X68565000Y-81265000D01*
D47*
X74903500Y-52985500D02*
X74422000Y-53467000D01*
X61036200Y-73634600D02*
X61036200Y-73407000D01*
X73686500Y-81788000D02*
X73686500Y-80925500D01*
X62968500Y-54190500D02*
X62064500Y-54190500D01*
X59182000Y-68580000D02*
X61010800Y-68580000D01*
D48*
X70957000Y-59107500D02*
X70957000Y-58357500D01*
D46*
X82140500Y-57936000D02*
X81890500Y-58186000D01*
D47*
X77262500Y-76538500D02*
X76411500Y-76538500D01*
%TO.N,+12V*%
X63139000Y-59544000D02*
X63989000Y-59544000D01*
X64801000Y-60356000D02*
X63989000Y-59544000D01*
X57302400Y-59690000D02*
X57277000Y-59664600D01*
X64801000Y-60425500D02*
X64801000Y-60356000D01*
X59182000Y-64770000D02*
X57302400Y-64770000D01*
X59182000Y-69850000D02*
X57277000Y-69850000D01*
D48*
X68199000Y-81915000D02*
X68580000Y-81915000D01*
X78737000Y-81915000D02*
X79248000Y-81915000D01*
D47*
X59182000Y-67310000D02*
X57277000Y-67310000D01*
X57277000Y-62230000D02*
X57251600Y-62204600D01*
D48*
X68199000Y-80615000D02*
X68550000Y-80615000D01*
X72470500Y-57357500D02*
X72517000Y-57404000D01*
X79248000Y-80645000D02*
X79218000Y-80615000D01*
X71707000Y-57357500D02*
X72470500Y-57357500D01*
D47*
X57175400Y-74955400D02*
X57175400Y-75185000D01*
X57150000Y-77470000D02*
X57124600Y-77444600D01*
X69876500Y-80925500D02*
X69850000Y-80899000D01*
X59182000Y-77470000D02*
X57150000Y-77470000D01*
D48*
X78737000Y-80615000D02*
X79218000Y-80615000D01*
D47*
X57277000Y-69850000D02*
X57251600Y-69824600D01*
X59182000Y-72390000D02*
X57302400Y-72390000D01*
X75311000Y-54710500D02*
X75311000Y-55499000D01*
D48*
X80544500Y-81788000D02*
X80544500Y-81126500D01*
X68550000Y-80615000D02*
X68580000Y-80645000D01*
D47*
X59182000Y-74930000D02*
X57200800Y-74930000D01*
D48*
X72517000Y-57404000D02*
X72771000Y-57150000D01*
X80544500Y-81126500D02*
X80645000Y-81026000D01*
D47*
X69876500Y-81788000D02*
X69876500Y-80925500D01*
X59182000Y-62230000D02*
X57277000Y-62230000D01*
X59182000Y-59690000D02*
X57302400Y-59690000D01*
X57200800Y-74930000D02*
X57175400Y-74955400D01*
X57302400Y-64770000D02*
X57277000Y-64795400D01*
D46*
%TO.N,Net-(U3-VCC)*%
X71707000Y-57857500D02*
X72940500Y-57857500D01*
X72940500Y-57857500D02*
X74041000Y-56757000D01*
%TO.N,Net-(U3-SS)*%
X68707000Y-57357500D02*
X67914500Y-57357500D01*
X67652500Y-57619500D02*
X66648500Y-57619500D01*
X67914500Y-57357500D02*
X67652500Y-57619500D01*
D48*
%TO.N,+3.3V*%
X79453000Y-57936000D02*
X78510000Y-57936000D01*
X78605000Y-58936000D02*
X78486000Y-59055000D01*
X79248000Y-74391500D02*
X79248000Y-74041000D01*
D46*
X82757000Y-62056000D02*
X82677000Y-61976000D01*
D47*
X90320500Y-58547000D02*
X90320500Y-56769000D01*
D48*
X79548500Y-74692000D02*
X79248000Y-74391500D01*
X90932000Y-61976000D02*
X91186000Y-61722000D01*
D47*
X73660000Y-75184000D02*
X73636500Y-75207500D01*
D48*
X79453000Y-58936000D02*
X78605000Y-58936000D01*
D46*
X87710000Y-63627000D02*
X87710000Y-64342000D01*
D48*
X78510000Y-57936000D02*
X78486000Y-57912000D01*
D47*
X86868000Y-81407000D02*
X86892300Y-81431300D01*
X64897000Y-76200000D02*
X65000500Y-76096500D01*
X67032500Y-76705000D02*
X66551000Y-76705000D01*
D48*
X78489372Y-57908628D02*
X78503485Y-57908628D01*
D47*
X76337500Y-74813500D02*
X76327000Y-74803000D01*
X76962000Y-58520500D02*
X77679500Y-58520500D01*
D48*
X90283000Y-61976000D02*
X90932000Y-61976000D01*
D46*
X87784300Y-69874300D02*
X87986700Y-69874300D01*
X82757000Y-62992000D02*
X82757000Y-62056000D01*
D47*
X75411500Y-81788000D02*
X75411500Y-80999500D01*
X75411500Y-80999500D02*
X75311000Y-80899000D01*
D46*
X87986700Y-69874300D02*
X88519000Y-69342000D01*
D47*
X66551000Y-76705000D02*
X66294000Y-76962000D01*
X65000500Y-75157500D02*
X65000500Y-76096500D01*
D48*
X78486000Y-57912000D02*
X78489372Y-57908628D01*
X76962000Y-80615000D02*
X76484000Y-80615000D01*
D47*
X77262500Y-74813500D02*
X76337500Y-74813500D01*
X77679500Y-58520500D02*
X77700000Y-58500000D01*
X72874500Y-75207500D02*
X73636500Y-75207500D01*
X90320500Y-56769000D02*
X91313000Y-56769000D01*
D48*
X76484000Y-80615000D02*
X76454000Y-80645000D01*
D46*
X87710000Y-64342000D02*
X87757000Y-64389000D01*
D47*
X87784300Y-81431300D02*
X86892300Y-81431300D01*
D46*
%TO.N,Net-(U2-V_{IN-})*%
X68911000Y-69469000D02*
X70946000Y-69469000D01*
X68302500Y-70077500D02*
X68911000Y-69469000D01*
X68302500Y-71755000D02*
X68302500Y-70077500D01*
%TO.N,Net-(U2-V_{IN+})*%
X65682500Y-71270500D02*
X66167000Y-71755000D01*
X66167000Y-71755000D02*
X67032500Y-71755000D01*
X67032500Y-69622500D02*
X67186000Y-69469000D01*
X65000500Y-71270500D02*
X65682500Y-71270500D01*
X67032500Y-71755000D02*
X67032500Y-69622500D01*
%TO.N,Net-(C7-Pad1)*%
X64693500Y-54190500D02*
X66524500Y-54190500D01*
%TO.N,Net-(U3-COMP)*%
X68349500Y-55221500D02*
X68349500Y-54190500D01*
X69088000Y-53213000D02*
X70966500Y-53213000D01*
X69188500Y-56107500D02*
X68326000Y-55245000D01*
X68349500Y-53951500D02*
X69088000Y-53213000D01*
X69457000Y-56107500D02*
X69188500Y-56107500D01*
X68326000Y-55245000D02*
X68349500Y-55221500D01*
X70966500Y-53213000D02*
X71855500Y-54102000D01*
X68349500Y-54190500D02*
X68349500Y-53951500D01*
D47*
%TO.N,/BOOST/62V*%
X62091500Y-60186094D02*
X62103000Y-60197594D01*
X62753000Y-57770000D02*
X62103000Y-58420000D01*
X62091500Y-58901906D02*
X62091500Y-60186094D01*
X62103000Y-61922594D02*
X62103000Y-62611000D01*
X62103000Y-60615406D02*
X62091500Y-60626906D01*
X62091500Y-61911094D02*
X62103000Y-61922594D01*
X62103000Y-58420000D02*
X62103000Y-58890406D01*
X62103000Y-60197594D02*
X62103000Y-60615406D01*
X63119000Y-57770000D02*
X62753000Y-57770000D01*
X62091500Y-60626906D02*
X62091500Y-61911094D01*
X62103000Y-58890406D02*
X62091500Y-58901906D01*
X62103000Y-62611000D02*
X62992000Y-63500000D01*
%TO.N,/VBIAS*%
X83693000Y-68397500D02*
X83693000Y-70612000D01*
X82087300Y-66791800D02*
X84672300Y-66791800D01*
X84672300Y-66791800D02*
X84886800Y-67006300D01*
X82087300Y-66791800D02*
X83693000Y-68397500D01*
X84605500Y-64897000D02*
X84605500Y-66725000D01*
X84605500Y-66725000D02*
X84886800Y-67006300D01*
X83642200Y-70662800D02*
X82370300Y-70662800D01*
X84836000Y-70739000D02*
X83718400Y-70739000D01*
X83718400Y-70739000D02*
X83642200Y-70662800D01*
X83693000Y-70612000D02*
X83642200Y-70662800D01*
D46*
%TO.N,Net-(U5-EXT_CAP)*%
X79548500Y-77643500D02*
X80264000Y-78359000D01*
X80264000Y-78359000D02*
X80845000Y-78359000D01*
X79548500Y-76692000D02*
X79548500Y-77643500D01*
%TO.N,Net-(U4-ADJ)*%
X80545300Y-70233800D02*
X80545300Y-70662800D01*
X81772000Y-72882000D02*
X82877000Y-72882000D01*
X80545300Y-72163300D02*
X81026000Y-72644000D01*
X80788000Y-72882000D02*
X81026000Y-72644000D01*
X81534000Y-72644000D02*
X81772000Y-72882000D01*
X80545300Y-70662800D02*
X80545300Y-72163300D01*
X82087300Y-68691800D02*
X80545300Y-70233800D01*
X79191000Y-72882000D02*
X80788000Y-72882000D01*
X81026000Y-72644000D02*
X81534000Y-72644000D01*
D47*
%TO.N,-24V*%
X55118000Y-64770000D02*
X53213000Y-64770000D01*
X55118000Y-74930000D02*
X53263800Y-74930000D01*
X55118000Y-72390000D02*
X53263800Y-72390000D01*
X55118000Y-59690000D02*
X53238400Y-59690000D01*
X96127837Y-61724337D02*
X96124347Y-61724337D01*
X53238400Y-62230000D02*
X53213000Y-62204600D01*
X96966000Y-53968500D02*
X96356000Y-53968500D01*
X96966000Y-57799000D02*
X96356000Y-57799000D01*
X96127837Y-80901337D02*
X96124347Y-80901337D01*
X96127837Y-54174337D02*
X96124347Y-54174337D01*
X96356000Y-72932000D02*
X96139000Y-73149000D01*
X96139000Y-73149000D02*
X96127837Y-73137837D01*
X96127837Y-73137837D02*
X96124347Y-73137837D01*
X96966000Y-65312000D02*
X96356000Y-65312000D01*
X96356000Y-65312000D02*
X96139000Y-65529000D01*
X96139000Y-61735500D02*
X96127837Y-61724337D01*
X96139000Y-58016000D02*
X96127837Y-58004837D01*
X96356000Y-76758500D02*
X96139000Y-76975500D01*
X96127837Y-58004837D02*
X96124347Y-58004837D01*
X96966000Y-80695500D02*
X96356000Y-80695500D01*
X55118000Y-67310000D02*
X53213000Y-67310000D01*
X96139000Y-65529000D02*
X96127837Y-65517837D01*
X96356000Y-57799000D02*
X96139000Y-58016000D01*
X96356000Y-53968500D02*
X96139000Y-54185500D01*
X53030000Y-77470000D02*
X53000000Y-77500000D01*
X55118000Y-62230000D02*
X53238400Y-62230000D01*
X96139000Y-54185500D02*
X96127837Y-54174337D01*
X96966000Y-61518500D02*
X96356000Y-61518500D01*
X53238400Y-69850000D02*
X53213000Y-69824600D01*
X53213000Y-67310000D02*
X53187600Y-67335400D01*
X53263800Y-72390000D02*
X53213000Y-72339200D01*
X96356000Y-80695500D02*
X96139000Y-80912500D01*
X55118000Y-69850000D02*
X53238400Y-69850000D01*
X96139000Y-69342000D02*
X96127837Y-69330837D01*
X96356000Y-69125000D02*
X96139000Y-69342000D01*
X96356000Y-61518500D02*
X96139000Y-61735500D01*
X96966000Y-76758500D02*
X96356000Y-76758500D01*
X96139000Y-76975500D02*
X96127837Y-76964337D01*
X55118000Y-77470000D02*
X53030000Y-77470000D01*
X96127837Y-69330837D02*
X96124347Y-69330837D01*
X96139000Y-80912500D02*
X96127837Y-80901337D01*
X96127837Y-65517837D02*
X96124347Y-65517837D01*
X96966000Y-72932000D02*
X96356000Y-72932000D01*
X96127837Y-76964337D02*
X96124347Y-76964337D01*
X96966000Y-69125000D02*
X96356000Y-69125000D01*
D46*
%TO.N,Net-(C32-Pad2)*%
X93311000Y-53022000D02*
X95012500Y-53022000D01*
X93311000Y-53022000D02*
X96669500Y-53022000D01*
X96669500Y-53022000D02*
X96966000Y-53318500D01*
X95012500Y-53022000D02*
X95089000Y-53098500D01*
D47*
%TO.N,/TIA_0/SIPM_K*%
X101755532Y-55696000D02*
X103886000Y-55696000D01*
X101674491Y-55614959D02*
X101755532Y-55696000D01*
X105619400Y-57429400D02*
X108826800Y-57429400D01*
X103886000Y-55696000D02*
X105619400Y-57429400D01*
%TO.N,/TIA_1/SIPM_K*%
X104328900Y-59969400D02*
X108826800Y-59969400D01*
X101755532Y-59526500D02*
X103886000Y-59526500D01*
X103886000Y-59526500D02*
X104328900Y-59969400D01*
X101674491Y-59445459D02*
X101755532Y-59526500D01*
D46*
%TO.N,Net-(C33-Pad2)*%
X96669500Y-56852500D02*
X96966000Y-57149000D01*
X93311000Y-56852500D02*
X96669500Y-56852500D01*
X95012500Y-56852500D02*
X95089000Y-56929000D01*
X93311000Y-56852500D02*
X95012500Y-56852500D01*
%TO.N,Net-(C34-Pad2)*%
X93311000Y-60572000D02*
X96669500Y-60572000D01*
X93311000Y-60572000D02*
X95012500Y-60572000D01*
X95012500Y-60572000D02*
X95089000Y-60648500D01*
X96669500Y-60572000D02*
X96966000Y-60868500D01*
D47*
%TO.N,/TIA_2/SIPM_K*%
X101674491Y-63164959D02*
X101755532Y-63246000D01*
X101755532Y-63246000D02*
X106599200Y-63246000D01*
X106599200Y-63246000D02*
X107335800Y-62509400D01*
X107335800Y-62509400D02*
X108826800Y-62509400D01*
%TO.N,/TIA_3/SIPM_K*%
X101755532Y-67039500D02*
X105481700Y-67039500D01*
X101674491Y-66958459D02*
X101755532Y-67039500D01*
X105481700Y-67039500D02*
X107471800Y-65049400D01*
X107471800Y-65049400D02*
X108826800Y-65049400D01*
D46*
%TO.N,Net-(C35-Pad2)*%
X93311000Y-64365500D02*
X96669500Y-64365500D01*
X93311000Y-64365500D02*
X95012500Y-64365500D01*
X95012500Y-64365500D02*
X95089000Y-64442000D01*
X96669500Y-64365500D02*
X96966000Y-64662000D01*
%TO.N,Net-(C36-Pad2)*%
X96669500Y-68178500D02*
X96966000Y-68475000D01*
X95012500Y-68178500D02*
X95089000Y-68255000D01*
X93311000Y-68178500D02*
X95012500Y-68178500D01*
X93311000Y-68178500D02*
X96669500Y-68178500D01*
D47*
%TO.N,/TIA_4/SIPM_K*%
X107471800Y-67589400D02*
X108826800Y-67589400D01*
X104833260Y-70852500D02*
X106689680Y-68996080D01*
X106689680Y-68996080D02*
X106689680Y-68371520D01*
X106689680Y-68371520D02*
X107471800Y-67589400D01*
X101674491Y-70771459D02*
X101755532Y-70852500D01*
X101755532Y-70852500D02*
X104833260Y-70852500D01*
%TO.N,/TIA_5/SIPM_K*%
X104553640Y-74659500D02*
X105557770Y-73655370D01*
X101674491Y-74578459D02*
X101755532Y-74659500D01*
X105557770Y-73655370D02*
X105557770Y-72784550D01*
X107471800Y-70129400D02*
X108826800Y-70129400D01*
X106557460Y-71784860D02*
X106557460Y-71043740D01*
X106557460Y-71043740D02*
X107471800Y-70129400D01*
X101755532Y-74659500D02*
X104553640Y-74659500D01*
X105557770Y-72784550D02*
X106557460Y-71784860D01*
D46*
%TO.N,Net-(C37-Pad2)*%
X95012500Y-71985500D02*
X95089000Y-72062000D01*
X93311000Y-71985500D02*
X95012500Y-71985500D01*
X96669500Y-71985500D02*
X96966000Y-72282000D01*
X93311000Y-71985500D02*
X96669500Y-71985500D01*
D47*
%TO.N,/TIA_6/SIPM_K*%
X107054110Y-73957910D02*
X107054110Y-73087090D01*
X107054110Y-73087090D02*
X107471800Y-72669400D01*
X107471800Y-72669400D02*
X108826800Y-72669400D01*
X105872300Y-78328500D02*
X105872300Y-75139720D01*
X105872300Y-75139720D02*
X107054110Y-73957910D01*
X101674491Y-78404959D02*
X101755532Y-78486000D01*
X101755532Y-78486000D02*
X105714800Y-78486000D01*
X105714800Y-78486000D02*
X105872300Y-78328500D01*
D46*
%TO.N,Net-(C38-Pad2)*%
X93311000Y-75812000D02*
X95012500Y-75812000D01*
X96669500Y-75812000D02*
X96966000Y-76108500D01*
X95012500Y-75812000D02*
X95089000Y-75888500D01*
X93311000Y-75812000D02*
X96669500Y-75812000D01*
%TO.N,Net-(C39-Pad2)*%
X96669500Y-79749000D02*
X96966000Y-80045500D01*
X95012500Y-79749000D02*
X95089000Y-79825500D01*
X93311000Y-79749000D02*
X95012500Y-79749000D01*
X93311000Y-79749000D02*
X96669500Y-79749000D01*
D47*
%TO.N,/TIA_7/SIPM_K*%
X101755532Y-82423000D02*
X105029000Y-82423000D01*
X105029000Y-82423000D02*
X107144300Y-80307700D01*
X107601500Y-75209400D02*
X108826800Y-75209400D01*
X107144300Y-75666600D02*
X107601500Y-75209400D01*
X107144300Y-80307700D02*
X107144300Y-75666600D01*
X101674491Y-82341959D02*
X101755532Y-82423000D01*
D46*
%TO.N,Net-(D1-A)*%
X69957000Y-59924000D02*
X69977000Y-59944000D01*
X69957000Y-59107500D02*
X69457000Y-59107500D01*
X69957000Y-59107500D02*
X69957000Y-59924000D01*
%TO.N,Net-(D2-A)*%
X83049778Y-63800000D02*
X81600000Y-63800000D01*
X84582000Y-62992000D02*
X83857778Y-62992000D01*
X81600000Y-63800000D02*
X81600000Y-63730500D01*
X83857778Y-62992000D02*
X83049778Y-63800000D01*
X81600000Y-63730500D02*
X80861500Y-62992000D01*
%TO.N,/BOOST/SHDN*%
X87275722Y-62960500D02*
X88144278Y-62960500D01*
X89888300Y-66953300D02*
X91034700Y-66953300D01*
X77978000Y-62992000D02*
X79111500Y-62992000D01*
X89978500Y-72771000D02*
X89936800Y-72729300D01*
X89535000Y-63373000D02*
X89535000Y-63627000D01*
X85682778Y-62992000D02*
X87244222Y-62992000D01*
X83116876Y-64200000D02*
X83659376Y-63657500D01*
X88144278Y-62960500D02*
X88175778Y-62992000D01*
X79111500Y-62992000D02*
X80319500Y-64200000D01*
X79812300Y-68691800D02*
X78374200Y-68691800D01*
X91059000Y-72771000D02*
X89978500Y-72771000D01*
X89154000Y-62992000D02*
X89535000Y-63373000D01*
X85015864Y-63657500D02*
X85047364Y-63626000D01*
X83659376Y-63657500D02*
X85015864Y-63657500D01*
X80319500Y-64200000D02*
X83116876Y-64200000D01*
X78374200Y-68691800D02*
X78359000Y-68707000D01*
X87244222Y-62992000D02*
X87275722Y-62960500D01*
X85047364Y-63626000D02*
X85048777Y-63626001D01*
X91059000Y-66929000D02*
X91034700Y-66953300D01*
X85048777Y-63626001D02*
X85682778Y-62992000D01*
X89535000Y-63627000D02*
X91059000Y-63627000D01*
X88175778Y-62992000D02*
X89154000Y-62992000D01*
%TO.N,/DET_4*%
X95089000Y-66167000D02*
X95380000Y-66167000D01*
X95380000Y-66167000D02*
X96139000Y-66926000D01*
X96139000Y-66926000D02*
X97536000Y-66926000D01*
X99972000Y-65298000D02*
X106071200Y-65298000D01*
X99165994Y-65962000D02*
X99852994Y-65275000D01*
X106071200Y-65298000D02*
X107589800Y-63779400D01*
X98500000Y-65962000D02*
X99166000Y-65962000D01*
X99949000Y-65275000D02*
X99972000Y-65298000D01*
X99852994Y-65275000D02*
X99949000Y-65275000D01*
X107589800Y-63779400D02*
X108826800Y-63779400D01*
X97536000Y-66926000D02*
X98500000Y-65962000D01*
%TO.N,/THERM*%
X88495500Y-58547000D02*
X88495500Y-60275000D01*
X84779000Y-54610000D02*
X87201000Y-54610000D01*
X87201000Y-54610000D02*
X87355500Y-54764500D01*
X108458000Y-51816000D02*
X111556800Y-54914800D01*
X83640500Y-55748500D02*
X84779000Y-54610000D01*
X87757000Y-57808500D02*
X88495500Y-58547000D01*
X87355500Y-52324000D02*
X87863500Y-51816000D01*
X87863500Y-51816000D02*
X108458000Y-51816000D01*
X87757000Y-57785000D02*
X87757000Y-57808500D01*
X88495500Y-60275000D02*
X88545500Y-60325000D01*
X111556800Y-54914800D02*
X111556800Y-56159400D01*
%TO.N,/DET_1*%
X95380000Y-77613500D02*
X96139000Y-78372500D01*
X104763900Y-76744500D02*
X105236300Y-76272100D01*
X105236300Y-76272100D02*
X105236300Y-74876280D01*
X97536000Y-78372500D02*
X98500000Y-77408500D01*
X106418110Y-72823650D02*
X107842360Y-71399400D01*
X99972000Y-76744500D02*
X104763900Y-76744500D01*
X105236300Y-74876280D02*
X106418110Y-73694470D01*
X106418110Y-73694470D02*
X106418110Y-72823650D01*
X107842360Y-71399400D02*
X108826800Y-71399400D01*
X95089000Y-77613500D02*
X95380000Y-77613500D01*
X99852994Y-76721500D02*
X99949000Y-76721500D01*
X107725800Y-71399400D02*
X108826800Y-71399400D01*
X98500000Y-77408500D02*
X99166000Y-77408500D01*
X99165994Y-77408500D02*
X99852994Y-76721500D01*
X99949000Y-76721500D02*
X99972000Y-76744500D01*
X96139000Y-78372500D02*
X97536000Y-78372500D01*
%TO.N,/DET_2*%
X99972000Y-72918000D02*
X104825570Y-72918000D01*
X96139000Y-74546000D02*
X97536000Y-74546000D01*
X99165994Y-73582000D02*
X99852994Y-72895000D01*
X104921770Y-72521110D02*
X105921460Y-71521420D01*
X107725800Y-68859400D02*
X108826800Y-68859400D01*
X104921770Y-72821800D02*
X104921770Y-72521110D01*
X98500000Y-73582000D02*
X99166000Y-73582000D01*
X99852994Y-72895000D02*
X99949000Y-72895000D01*
X95089000Y-73787000D02*
X95380000Y-73787000D01*
X104825570Y-72918000D02*
X104921770Y-72821800D01*
X99949000Y-72895000D02*
X99972000Y-72918000D01*
X105921460Y-71521420D02*
X105921460Y-70663740D01*
X97536000Y-74546000D02*
X98500000Y-73582000D01*
X105921460Y-70663740D02*
X107725800Y-68859400D01*
X95380000Y-73787000D02*
X96139000Y-74546000D01*
%TO.N,/DET_0*%
X106508300Y-79800700D02*
X106508300Y-75403160D01*
X96139000Y-82309500D02*
X97536000Y-82309500D01*
X99852994Y-80658500D02*
X99949000Y-80658500D01*
X99972000Y-80681500D02*
X105627500Y-80681500D01*
X99949000Y-80658500D02*
X99972000Y-80681500D01*
X105627500Y-80681500D02*
X106508300Y-79800700D01*
X107972060Y-73939400D02*
X108826800Y-73939400D01*
X98500000Y-81345500D02*
X99166000Y-81345500D01*
X95089000Y-81550500D02*
X95380000Y-81550500D01*
X97536000Y-82309500D02*
X98500000Y-81345500D01*
X107842360Y-73939400D02*
X108826800Y-73939400D01*
X99165994Y-81345500D02*
X99852994Y-80658500D01*
X106508300Y-75403160D02*
X107972060Y-73939400D01*
X95380000Y-81550500D02*
X96139000Y-82309500D01*
%TO.N,/DET_5*%
X108561700Y-61504500D02*
X108826800Y-61239400D01*
X95380000Y-62373500D02*
X96139000Y-63132500D01*
X99852994Y-61481500D02*
X99949000Y-61481500D01*
X96139000Y-63132500D02*
X97536000Y-63132500D01*
X99949000Y-61481500D02*
X99972000Y-61504500D01*
X97536000Y-63132500D02*
X98500000Y-62168500D01*
X99972000Y-61504500D02*
X108561700Y-61504500D01*
X98500000Y-62168500D02*
X99166000Y-62168500D01*
X95089000Y-62373500D02*
X95380000Y-62373500D01*
X99165994Y-62168500D02*
X99852994Y-61481500D01*
%TO.N,/DET_6*%
X95089000Y-58654000D02*
X95380000Y-58654000D01*
X103863000Y-57785000D02*
X104777400Y-58699400D01*
X99165994Y-58449000D02*
X99852994Y-57762000D01*
X104777400Y-58699400D02*
X108826800Y-58699400D01*
X96139000Y-59413000D02*
X97536000Y-59413000D01*
X99949000Y-57762000D02*
X99972000Y-57785000D01*
X97536000Y-59413000D02*
X98500000Y-58449000D01*
X98500000Y-58449000D02*
X99166000Y-58449000D01*
X99972000Y-57785000D02*
X103863000Y-57785000D01*
X99852994Y-57762000D02*
X99949000Y-57762000D01*
X95380000Y-58654000D02*
X96139000Y-59413000D01*
%TO.N,/DET_7*%
X99165994Y-54618500D02*
X99852994Y-53931500D01*
X99852994Y-53931500D02*
X99949000Y-53931500D01*
X98500000Y-54618500D02*
X99166000Y-54618500D01*
X95089000Y-54823500D02*
X95380000Y-54823500D01*
X99949000Y-53931500D02*
X99972000Y-53954500D01*
X103863000Y-53954500D02*
X106067900Y-56159400D01*
X97536000Y-55582500D02*
X98500000Y-54618500D01*
X96139000Y-55582500D02*
X97536000Y-55582500D01*
X106067900Y-56159400D02*
X108826800Y-56159400D01*
X95380000Y-54823500D02*
X96139000Y-55582500D01*
X99972000Y-53954500D02*
X103863000Y-53954500D01*
%TO.N,/DET_3*%
X99165994Y-69775000D02*
X99852994Y-69088000D01*
X99972000Y-69111000D02*
X104934200Y-69111000D01*
X97536000Y-70739000D02*
X98500000Y-69775000D01*
X95089000Y-69980000D02*
X95380000Y-69980000D01*
X98500000Y-69775000D02*
X99166000Y-69775000D01*
X99852994Y-69088000D02*
X99949000Y-69088000D01*
X104934200Y-69111000D02*
X107725800Y-66319400D01*
X96139000Y-70739000D02*
X97536000Y-70739000D01*
X107725800Y-66319400D02*
X108826800Y-66319400D01*
X95380000Y-69980000D02*
X96139000Y-70739000D01*
X99949000Y-69088000D02*
X99972000Y-69111000D01*
D47*
%TO.N,/SIG_3*%
X53263800Y-68580000D02*
X53187600Y-68656200D01*
X93310994Y-70003500D02*
X92076100Y-70003500D01*
X55118000Y-68580000D02*
X53263800Y-68580000D01*
X92075000Y-70002400D02*
X92076100Y-70003500D01*
D46*
%TO.N,+3.3VA*%
X99695000Y-75579494D02*
X99165994Y-76108500D01*
X99695000Y-60339494D02*
X99165994Y-60868500D01*
X99695000Y-75324500D02*
X99695000Y-75579494D01*
X99695000Y-79261500D02*
X99695000Y-79516494D01*
D48*
X64770000Y-81026000D02*
X64743500Y-81052500D01*
D46*
X99695000Y-71752994D02*
X99165994Y-72282000D01*
X99695000Y-67691000D02*
X99695000Y-67945994D01*
X99695000Y-56365000D02*
X99695000Y-56619994D01*
X99695000Y-52534500D02*
X99695000Y-52789494D01*
D48*
X66424000Y-80615000D02*
X65943000Y-80615000D01*
D46*
X99695000Y-63878000D02*
X99695000Y-64132994D01*
X99695000Y-71498000D02*
X99695000Y-71752994D01*
X99695000Y-67945994D02*
X99165994Y-68475000D01*
X99695000Y-56619994D02*
X99165994Y-57149000D01*
X99695000Y-64132994D02*
X99165994Y-64662000D01*
X99695000Y-79516494D02*
X99165994Y-80045500D01*
X99695000Y-60084500D02*
X99695000Y-60339494D01*
D48*
X64743500Y-81788000D02*
X64743500Y-81052500D01*
X65913000Y-80645000D02*
X65943000Y-80615000D01*
D46*
X99695000Y-52789494D02*
X99165994Y-53318500D01*
D47*
%TO.N,/SIG_1*%
X92492200Y-77637000D02*
X92481400Y-77647800D01*
X93310994Y-77637000D02*
X92492200Y-77637000D01*
X53416200Y-73660000D02*
X53238400Y-73482200D01*
X55118000Y-73660000D02*
X53416200Y-73660000D01*
%TO.N,/SIG_2*%
X92606500Y-73810500D02*
X92557600Y-73761600D01*
X55092600Y-71145400D02*
X55118000Y-71120000D01*
X53213000Y-71145400D02*
X55092600Y-71145400D01*
X93310994Y-73810500D02*
X92606500Y-73810500D01*
%TO.N,/SIG_6*%
X55118000Y-60960000D02*
X53238400Y-60960000D01*
X92223900Y-58677500D02*
X92202000Y-58699400D01*
X93310994Y-58677500D02*
X92223900Y-58677500D01*
D46*
%TO.N,/COMM{slash}TX*%
X77089000Y-54760500D02*
X76422500Y-54094000D01*
X76422500Y-52673500D02*
X75819000Y-52070000D01*
X55118000Y-56007000D02*
X55118000Y-57150000D01*
X76422500Y-54094000D02*
X76422500Y-52673500D01*
X80340000Y-54987000D02*
X80640500Y-55287500D01*
X80024421Y-54987000D02*
X80340000Y-54987000D01*
X79797921Y-54760500D02*
X80024421Y-54987000D01*
X60452000Y-52070000D02*
X59944000Y-52578000D01*
X75819000Y-52070000D02*
X60452000Y-52070000D01*
X77089000Y-54760500D02*
X79797921Y-54760500D01*
X80640500Y-55287500D02*
X80640500Y-55748500D01*
D47*
%TO.N,/SIG_7*%
X92235800Y-54847000D02*
X92227400Y-54838600D01*
X93310994Y-54847000D02*
X92235800Y-54847000D01*
X55118000Y-58420000D02*
X53314600Y-58420000D01*
X53314600Y-58420000D02*
X53263800Y-58470800D01*
%TO.N,/SIG_4*%
X92225500Y-66190500D02*
X92049600Y-66014600D01*
X93310994Y-66190500D02*
X92225500Y-66190500D01*
X55118000Y-66040000D02*
X53213000Y-66040000D01*
X53213000Y-66040000D02*
X53187600Y-66014600D01*
%TO.N,/SIG_5*%
X93310994Y-62397000D02*
X92165800Y-62397000D01*
X53289200Y-63500000D02*
X53213000Y-63423800D01*
X55118000Y-63500000D02*
X53289200Y-63500000D01*
X92165800Y-62397000D02*
X92125800Y-62357000D01*
D46*
%TO.N,/COMM{slash}RX*%
X59690000Y-51562000D02*
X59182000Y-52070000D01*
X75946000Y-51562000D02*
X59690000Y-51562000D01*
X77089000Y-52935500D02*
X78332131Y-52935500D01*
X77089000Y-52705000D02*
X75946000Y-51562000D01*
X77089000Y-52935500D02*
X77089000Y-52705000D01*
X59182000Y-52070000D02*
X59182000Y-57150000D01*
X81140500Y-55232500D02*
X81140500Y-55748500D01*
X78332131Y-52935500D02*
X80129631Y-54733000D01*
X80129631Y-54733000D02*
X80641000Y-54733000D01*
X80641000Y-54733000D02*
X81140500Y-55232500D01*
D47*
%TO.N,/SIG_0*%
X55118000Y-76200000D02*
X53289200Y-76200000D01*
X93310994Y-81574000D02*
X92521400Y-81574000D01*
X53289200Y-76200000D02*
X53263800Y-76225400D01*
X92521400Y-81574000D02*
X92506800Y-81559400D01*
D46*
%TO.N,Net-(Q1-D)*%
X73556204Y-77724000D02*
X72644000Y-77724000D01*
X89609300Y-81431300D02*
X89609300Y-78898800D01*
X89941800Y-78566300D02*
X85771700Y-78566300D01*
X89609300Y-78898800D02*
X89941800Y-78566300D01*
X70739000Y-73533000D02*
X70739000Y-71858500D01*
X84328000Y-80010000D02*
X75842204Y-80010000D01*
X85771700Y-78566300D02*
X84328000Y-80010000D01*
X75842204Y-80010000D02*
X73556204Y-77724000D01*
X70739000Y-71858500D02*
X70842500Y-71755000D01*
%TO.N,/VR_RESET*%
X88066800Y-77616300D02*
X87633800Y-77183300D01*
X82140500Y-61217121D02*
X81809184Y-61548437D01*
X87249000Y-74676000D02*
X87633800Y-75060800D01*
X87633800Y-75060800D02*
X87633800Y-75716300D01*
X83058000Y-74168000D02*
X85344000Y-74168000D01*
X87633800Y-77183300D02*
X87633800Y-75716300D01*
X85344000Y-74168000D02*
X85852000Y-74676000D01*
X81645000Y-74438000D02*
X82788000Y-74438000D01*
X85852000Y-74676000D02*
X87249000Y-74676000D01*
X81407000Y-74676000D02*
X81645000Y-74438000D01*
X82140500Y-60623500D02*
X82140500Y-61217121D01*
X82788000Y-74438000D02*
X83058000Y-74168000D01*
%TO.N,Net-(Q2-G)*%
X74930000Y-73279000D02*
X74826500Y-73382500D01*
X74826500Y-73382500D02*
X72874500Y-73382500D01*
X75184000Y-77343000D02*
X74930000Y-77089000D01*
X86614000Y-77343000D02*
X85471000Y-77343000D01*
X70231000Y-74676000D02*
X71581000Y-74676000D01*
X69572500Y-74017500D02*
X70231000Y-74676000D01*
X85471000Y-77343000D02*
X83566000Y-79248000D01*
X88013300Y-66003300D02*
X86523700Y-66003300D01*
X83566000Y-79248000D02*
X76327000Y-79248000D01*
X71581000Y-74676000D02*
X72874500Y-73382500D01*
X76327000Y-79248000D02*
X75184000Y-78105000D01*
X86487000Y-66040000D02*
X86523700Y-66003300D01*
X69572500Y-71755000D02*
X69572500Y-74017500D01*
X75184000Y-78105000D02*
X75184000Y-77343000D01*
%TO.N,/VR_SHDN*%
X89712000Y-69977000D02*
X89609300Y-69874300D01*
X89027000Y-71755000D02*
X89002700Y-71779300D01*
X88061800Y-71779300D02*
X89002700Y-71779300D01*
X82063790Y-74041000D02*
X82444790Y-73660000D01*
X78741999Y-59436000D02*
X79453000Y-59436000D01*
X82444790Y-73660000D02*
X86181100Y-73660000D01*
X89609300Y-70231800D02*
X89609300Y-69874300D01*
X78486000Y-59690000D02*
X78487999Y-59690000D01*
X86181100Y-73660000D02*
X88061800Y-71779300D01*
X78487999Y-59690000D02*
X78741999Y-59436000D01*
X90297000Y-69977000D02*
X89712000Y-69977000D01*
X80772000Y-74041000D02*
X82063790Y-74041000D01*
%TO.N,/ADC_IMON*%
X68302500Y-77827500D02*
X68302500Y-76705000D01*
X72433165Y-77215000D02*
X71628000Y-76409835D01*
X71628000Y-75692000D02*
X71247000Y-75311000D01*
X85344000Y-78105000D02*
X83693000Y-79756000D01*
X83693000Y-79756000D02*
X75947414Y-79756000D01*
X85344000Y-57785000D02*
X84957000Y-57398000D01*
X73406414Y-77215000D02*
X72433165Y-77215000D01*
X84957000Y-57266556D02*
X84809944Y-57119500D01*
X71628000Y-76409835D02*
X71628000Y-75692000D01*
X84495000Y-56936000D02*
X84328000Y-56936000D01*
X84809944Y-57119500D02*
X84678500Y-57119500D01*
X68302500Y-75730001D02*
X68302500Y-76705000D01*
X75947414Y-79756000D02*
X73406414Y-77215000D01*
X84678500Y-57119500D02*
X84495000Y-56936000D01*
X68302500Y-77679999D02*
X68302500Y-76705000D01*
X71247000Y-75311000D02*
X68721501Y-75311000D01*
X68721501Y-75311000D02*
X68302500Y-75730001D01*
X84957000Y-57398000D02*
X84957000Y-57266556D01*
X67136000Y-78994000D02*
X68302500Y-77827500D01*
%TO.N,Net-(U2-CMP_{IN})*%
X69572500Y-78382500D02*
X68961000Y-78994000D01*
X69572500Y-76705000D02*
X69572500Y-78382500D01*
X70946000Y-78994000D02*
X68961000Y-78994000D01*
%TO.N,Net-(U3-RT)*%
X72339778Y-54768500D02*
X72347778Y-54760500D01*
X71469500Y-54768500D02*
X72339778Y-54768500D01*
X70957000Y-56107500D02*
X70957000Y-55281000D01*
X70957000Y-55281000D02*
X71469500Y-54768500D01*
X72347778Y-54760500D02*
X73533000Y-54760500D01*
%TO.N,Net-(U3-FB)*%
X65975000Y-55245000D02*
X66698500Y-55968500D01*
X63119000Y-55945000D02*
X63562000Y-55945000D01*
X67652500Y-56857500D02*
X68707000Y-56857500D01*
X66698500Y-55968500D02*
X66763500Y-55968500D01*
X64262000Y-55245000D02*
X65975000Y-55245000D01*
X63562000Y-55945000D02*
X64262000Y-55245000D01*
X66763500Y-55968500D02*
X67652500Y-56857500D01*
%TO.N,/ADC_VMON*%
X85226000Y-56436000D02*
X84328000Y-56436000D01*
X82780500Y-64897000D02*
X80922500Y-64897000D01*
X85471000Y-56681000D02*
X85226000Y-56436000D01*
X85471000Y-57160240D02*
X85471000Y-56681000D01*
X82780500Y-64897000D02*
X83765000Y-63912500D01*
X86483315Y-63881000D02*
X86610000Y-64007685D01*
X85121488Y-63912500D02*
X85152988Y-63881000D01*
X85152988Y-63881000D02*
X86483315Y-63881000D01*
X83765000Y-63912500D02*
X85121488Y-63912500D01*
%TO.N,Net-(U5-A)*%
X78359000Y-74930000D02*
X78621000Y-75192000D01*
X78359000Y-74295000D02*
X78359000Y-74930000D01*
X77366000Y-72882000D02*
X77366000Y-73302000D01*
X78621000Y-75192000D02*
X79548500Y-75192000D01*
X77366000Y-73302000D02*
X78359000Y-74295000D01*
%TO.N,/MOSI*%
X83140500Y-61278082D02*
X83819274Y-61956856D01*
X84832000Y-75692000D02*
X84963000Y-75561000D01*
X83140500Y-60623500D02*
X83140500Y-61278082D01*
X83773500Y-75692000D02*
X84832000Y-75692000D01*
X83819274Y-61956856D02*
X84066000Y-61956856D01*
%TO.N,/~{SYNC}*%
X81640500Y-60921944D02*
X80950983Y-61611461D01*
X83773500Y-74692000D02*
X82809422Y-74692000D01*
X82809422Y-74692000D02*
X82432422Y-75069000D01*
X81640500Y-60623500D02*
X81640500Y-60921944D01*
X80950983Y-61611461D02*
X80926429Y-61611461D01*
%TO.N,/SCK*%
X83047409Y-75184000D02*
X82351030Y-75880379D01*
X84404200Y-60299600D02*
X84328000Y-60223400D01*
X82351030Y-75880379D02*
X82351030Y-75950252D01*
X84404200Y-60756800D02*
X84404200Y-60299600D01*
X83773500Y-75192000D02*
X83765500Y-75184000D01*
X83765500Y-75184000D02*
X83047409Y-75184000D01*
X84328000Y-60223400D02*
X84328000Y-59936000D01*
X84277200Y-60883800D02*
X84404200Y-60756800D01*
%TO.N,/BOOST_ENA*%
X70485000Y-55118000D02*
X70485000Y-56079500D01*
X73330561Y-62027561D02*
X81990439Y-62027561D01*
X72745600Y-60731400D02*
X72745600Y-61442600D01*
X70485000Y-56079500D02*
X70457000Y-56107500D01*
X81990439Y-62027561D02*
X82640500Y-61377500D01*
X82640500Y-61377500D02*
X82640500Y-60623500D01*
X72745600Y-61442600D02*
X73330561Y-62027561D01*
%TO.N,/~{RESET}*%
X81640500Y-55011500D02*
X81640500Y-55748500D01*
X82042000Y-54610000D02*
X81640500Y-55011500D01*
X89174500Y-54503500D02*
X88500500Y-53829500D01*
X88495500Y-56769000D02*
X89174500Y-56090000D01*
X84547500Y-53829500D02*
X83931000Y-53213000D01*
X83566000Y-54610000D02*
X82042000Y-54610000D01*
X89174500Y-56090000D02*
X89174500Y-54503500D01*
X88500500Y-53829500D02*
X84547500Y-53829500D01*
%TO.N,/MISO*%
X83640500Y-60623500D02*
X83640500Y-61059900D01*
X83773500Y-76192000D02*
X85197986Y-76192000D01*
X83640500Y-61059900D02*
X83921600Y-61341000D01*
X83921600Y-61341000D02*
X85348000Y-61341000D01*
X85197986Y-76192000D02*
X85348000Y-76342014D01*
%TO.N,/PGOOD*%
X75007802Y-59902000D02*
X73328198Y-59902000D01*
X73282599Y-59947599D02*
X72898000Y-59563000D01*
X79453000Y-59936000D02*
X79191000Y-60198000D01*
X73328198Y-59902000D02*
X73282599Y-59947599D01*
X72263000Y-56769000D02*
X71795500Y-56769000D01*
X75259500Y-60153698D02*
X75007802Y-59902000D01*
X79191000Y-60198000D02*
X75259500Y-60198000D01*
X75259500Y-60198000D02*
X75259500Y-60153698D01*
X72898000Y-56134000D02*
X72263000Y-56769000D01*
X71795500Y-56769000D02*
X71707000Y-56857500D01*
%TO.N,Net-(D3-A)*%
X88533000Y-53203500D02*
X90320500Y-54991000D01*
X88533000Y-52959000D02*
X88533000Y-53203500D01*
%TO.N,Net-(U1-PD2)*%
X79629000Y-55753000D02*
X79633500Y-55748500D01*
X80140500Y-55748500D02*
X79633500Y-55748500D01*
X88495500Y-54991000D02*
X87606500Y-54102000D01*
X87606500Y-54102000D02*
X80391000Y-54102000D01*
%TO.N,Net-(U1-AREF)*%
X84899544Y-58709100D02*
X84626444Y-58436000D01*
X86487000Y-57631500D02*
X85409400Y-58709100D01*
X85409400Y-58709100D02*
X84899544Y-58709100D01*
X84626444Y-58436000D02*
X84328000Y-58436000D01*
D48*
%TO.N,Net-(U1-AVCC)*%
X84328000Y-59436000D02*
X85090000Y-59436000D01*
X86487000Y-61314500D02*
X85852000Y-60679500D01*
X88265000Y-61976000D02*
X87603500Y-61314500D01*
X85852000Y-60198000D02*
X85090000Y-59436000D01*
X85852000Y-60679500D02*
X85852000Y-60198000D01*
X87603500Y-61314500D02*
X86487000Y-61314500D01*
X88533000Y-61976000D02*
X88265000Y-61976000D01*
%TD*%
%TA.AperFunction,Conductor*%
%TO.N,/BOOST/V62_IN*%
G36*
X71782257Y-65679565D02*
G01*
X71812321Y-65731636D01*
X71801880Y-65790850D01*
X71796480Y-65799097D01*
X71760502Y-65847845D01*
X71760501Y-65847846D01*
X71717910Y-65969565D01*
X71717909Y-65969570D01*
X71715200Y-65998466D01*
X71715200Y-66586099D01*
X71715201Y-66586100D01*
X73370799Y-66586100D01*
X73370800Y-66586099D01*
X73370800Y-66546615D01*
X76360000Y-66546615D01*
X76360000Y-66790399D01*
X76360001Y-66790400D01*
X76923899Y-66790400D01*
X76923900Y-66790399D01*
X76923900Y-66164001D01*
X77101700Y-66164001D01*
X77101700Y-66790399D01*
X77101701Y-66790400D01*
X77665599Y-66790400D01*
X77665600Y-66790399D01*
X77665600Y-66603387D01*
X78972000Y-66603387D01*
X78972000Y-66702899D01*
X78972001Y-66702900D01*
X79723399Y-66702900D01*
X79723400Y-66702899D01*
X79723400Y-66314001D01*
X79901200Y-66314001D01*
X79901200Y-66702899D01*
X79901201Y-66702900D01*
X80652598Y-66702900D01*
X80652599Y-66702899D01*
X80652599Y-66603386D01*
X80652598Y-66603384D01*
X80646316Y-66555654D01*
X80646314Y-66555648D01*
X80597460Y-66450882D01*
X80515716Y-66369138D01*
X80410954Y-66320287D01*
X80410945Y-66320284D01*
X80363213Y-66314000D01*
X79901201Y-66314000D01*
X79901200Y-66314001D01*
X79723400Y-66314001D01*
X79723399Y-66314000D01*
X79261386Y-66314000D01*
X79261384Y-66314001D01*
X79213654Y-66320283D01*
X79213648Y-66320285D01*
X79108882Y-66369139D01*
X79027138Y-66450883D01*
X78978287Y-66555645D01*
X78978284Y-66555654D01*
X78972000Y-66603387D01*
X77665600Y-66603387D01*
X77665600Y-66546615D01*
X77650197Y-66449367D01*
X77590473Y-66332151D01*
X77497448Y-66239126D01*
X77380232Y-66179402D01*
X77282984Y-66164000D01*
X77101701Y-66164000D01*
X77101700Y-66164001D01*
X76923900Y-66164001D01*
X76923899Y-66164000D01*
X76742616Y-66164000D01*
X76645367Y-66179402D01*
X76528151Y-66239126D01*
X76435126Y-66332151D01*
X76375402Y-66449367D01*
X76360000Y-66546615D01*
X73370800Y-66546615D01*
X73370800Y-65998469D01*
X73370799Y-65998466D01*
X73368090Y-65969570D01*
X73368089Y-65969565D01*
X73325498Y-65847846D01*
X73325497Y-65847845D01*
X73289520Y-65799097D01*
X73272515Y-65741424D01*
X73296559Y-65686314D01*
X73350403Y-65659553D01*
X73360244Y-65659000D01*
X78545120Y-65659000D01*
X78578758Y-65665691D01*
X78692539Y-65712821D01*
X78808595Y-65728100D01*
X79386404Y-65728099D01*
X79386407Y-65728099D01*
X79423884Y-65723165D01*
X79502461Y-65712821D01*
X79616242Y-65665691D01*
X79649880Y-65659000D01*
X80370120Y-65659000D01*
X80403758Y-65665691D01*
X80517539Y-65712821D01*
X80633595Y-65728100D01*
X80831000Y-65728099D01*
X80887501Y-65748663D01*
X80917565Y-65800735D01*
X80918900Y-65815999D01*
X80918900Y-65978875D01*
X80918900Y-66236597D01*
X80925212Y-66289929D01*
X80928878Y-66320900D01*
X80928880Y-66320910D01*
X80935685Y-66349258D01*
X80935686Y-66349259D01*
X80935688Y-66349264D01*
X80935689Y-66349268D01*
X80943728Y-66369139D01*
X80975843Y-66448525D01*
X80975844Y-66448526D01*
X81005410Y-66483729D01*
X81026000Y-66540218D01*
X81026000Y-67041226D01*
X81012665Y-67087772D01*
X80964692Y-67164621D01*
X80946386Y-67208815D01*
X80938466Y-67229750D01*
X80938465Y-67229753D01*
X80926284Y-67302747D01*
X80896699Y-67355092D01*
X80840389Y-67376174D01*
X80783702Y-67356129D01*
X80769220Y-67340959D01*
X80686347Y-67230253D01*
X80643913Y-67198487D01*
X80611006Y-67148167D01*
X80616926Y-67090972D01*
X80646313Y-67027951D01*
X80646315Y-67027945D01*
X80652600Y-66980212D01*
X80652600Y-66880701D01*
X80652599Y-66880700D01*
X78972002Y-66880700D01*
X78972001Y-66880701D01*
X78972001Y-66980215D01*
X78978283Y-67027945D01*
X78978284Y-67027949D01*
X79007673Y-67090973D01*
X79012913Y-67150871D01*
X78980685Y-67198488D01*
X78938256Y-67230250D01*
X78938251Y-67230255D01*
X78851038Y-67346759D01*
X78800180Y-67483116D01*
X78793700Y-67543388D01*
X78793700Y-67603100D01*
X78773135Y-67659601D01*
X78721064Y-67689665D01*
X78705800Y-67691000D01*
X77526940Y-67691000D01*
X77470439Y-67670435D01*
X77440375Y-67618364D01*
X77450816Y-67559150D01*
X77487034Y-67524781D01*
X77497446Y-67519475D01*
X77590473Y-67426448D01*
X77650197Y-67309232D01*
X77665600Y-67211984D01*
X77665600Y-66968201D01*
X77665599Y-66968200D01*
X76360001Y-66968200D01*
X76360000Y-66968201D01*
X76360000Y-67211984D01*
X76375402Y-67309232D01*
X76435126Y-67426448D01*
X76528153Y-67519475D01*
X76538566Y-67524781D01*
X76579572Y-67568755D01*
X76582719Y-67628800D01*
X76546534Y-67676819D01*
X76498660Y-67691000D01*
X73914000Y-67691000D01*
X73914000Y-67691001D01*
X73914000Y-70397100D01*
X73893435Y-70453601D01*
X73841364Y-70483665D01*
X73826100Y-70485000D01*
X71334900Y-70485000D01*
X71313442Y-70477190D01*
X71290950Y-70473224D01*
X71285851Y-70467147D01*
X71278399Y-70464435D01*
X71266980Y-70444658D01*
X71252301Y-70427164D01*
X71250287Y-70415746D01*
X71248335Y-70412364D01*
X71247000Y-70397100D01*
X71247000Y-70375593D01*
X71267565Y-70319092D01*
X71319636Y-70289028D01*
X71323412Y-70288447D01*
X71350961Y-70284821D01*
X71495361Y-70225008D01*
X71503322Y-70218900D01*
X71557360Y-70177434D01*
X71619360Y-70129860D01*
X71714508Y-70005861D01*
X71774321Y-69861461D01*
X71786820Y-69766518D01*
X71789600Y-69745407D01*
X71789600Y-69557901D01*
X72105700Y-69557901D01*
X72105700Y-69739184D01*
X72121102Y-69836432D01*
X72180826Y-69953648D01*
X72273851Y-70046673D01*
X72391067Y-70106397D01*
X72488316Y-70121800D01*
X72682099Y-70121800D01*
X72682100Y-70121799D01*
X72682100Y-69557901D01*
X72859900Y-69557901D01*
X72859900Y-70121799D01*
X72859901Y-70121800D01*
X73053684Y-70121800D01*
X73150932Y-70106397D01*
X73268148Y-70046673D01*
X73361173Y-69953648D01*
X73420897Y-69836432D01*
X73436300Y-69739184D01*
X73436300Y-69557901D01*
X73436299Y-69557900D01*
X72859901Y-69557900D01*
X72859900Y-69557901D01*
X72682100Y-69557901D01*
X72682099Y-69557900D01*
X72105701Y-69557900D01*
X72105700Y-69557901D01*
X71789600Y-69557901D01*
X71789600Y-69521491D01*
X71789599Y-69198815D01*
X72105700Y-69198815D01*
X72105700Y-69380099D01*
X72105701Y-69380100D01*
X72682099Y-69380100D01*
X72682100Y-69380099D01*
X72682100Y-68816201D01*
X72859900Y-68816201D01*
X72859900Y-69380099D01*
X72859901Y-69380100D01*
X73436299Y-69380100D01*
X73436300Y-69380099D01*
X73436300Y-69198815D01*
X73420897Y-69101567D01*
X73361173Y-68984351D01*
X73268148Y-68891326D01*
X73150932Y-68831602D01*
X73053684Y-68816200D01*
X72859901Y-68816200D01*
X72859900Y-68816201D01*
X72682100Y-68816201D01*
X72682099Y-68816200D01*
X72488316Y-68816200D01*
X72391067Y-68831602D01*
X72273851Y-68891326D01*
X72180826Y-68984351D01*
X72121102Y-69101567D01*
X72105700Y-69198815D01*
X71789599Y-69198815D01*
X71789599Y-69195360D01*
X71789599Y-69192592D01*
X71783253Y-69144389D01*
X71774321Y-69076539D01*
X71714508Y-68932139D01*
X71714506Y-68932136D01*
X71714503Y-68932131D01*
X71619365Y-68808146D01*
X71619363Y-68808144D01*
X71619360Y-68808140D01*
X71619355Y-68808136D01*
X71619353Y-68808134D01*
X71495368Y-68712996D01*
X71495361Y-68712992D01*
X71350962Y-68653179D01*
X71323424Y-68649553D01*
X71270091Y-68621787D01*
X71247084Y-68566236D01*
X71247000Y-68562405D01*
X71247000Y-66763901D01*
X71715200Y-66763901D01*
X71715200Y-67351533D01*
X71717909Y-67380429D01*
X71717910Y-67380434D01*
X71760501Y-67502153D01*
X71760502Y-67502154D01*
X71837080Y-67605914D01*
X71837085Y-67605919D01*
X71940845Y-67682497D01*
X71940846Y-67682498D01*
X72062565Y-67725089D01*
X72062570Y-67725090D01*
X72091466Y-67727799D01*
X72091470Y-67727800D01*
X72454099Y-67727800D01*
X72454100Y-67727799D01*
X72454100Y-66763901D01*
X72631900Y-66763901D01*
X72631900Y-67727799D01*
X72631901Y-67727800D01*
X72994530Y-67727800D01*
X72994533Y-67727799D01*
X73023429Y-67725090D01*
X73023434Y-67725089D01*
X73145153Y-67682498D01*
X73145154Y-67682497D01*
X73248914Y-67605919D01*
X73248919Y-67605914D01*
X73325497Y-67502154D01*
X73325498Y-67502153D01*
X73368089Y-67380434D01*
X73368090Y-67380429D01*
X73370799Y-67351533D01*
X73370800Y-67351530D01*
X73370800Y-66763901D01*
X73370799Y-66763900D01*
X72631901Y-66763900D01*
X72631900Y-66763901D01*
X72454100Y-66763901D01*
X72454099Y-66763900D01*
X71715201Y-66763900D01*
X71715200Y-66763901D01*
X71247000Y-66763901D01*
X71247000Y-65746900D01*
X71267565Y-65690399D01*
X71319636Y-65660335D01*
X71334900Y-65659000D01*
X71725756Y-65659000D01*
X71782257Y-65679565D01*
G37*
%TD.AperFunction*%
%TD*%
%TA.AperFunction,Conductor*%
%TO.N,/BOOST/62V*%
G36*
X71194502Y-62377565D02*
G01*
X71224566Y-62429636D01*
X71214125Y-62488850D01*
X71177906Y-62523220D01*
X71143352Y-62540825D01*
X71050326Y-62633851D01*
X70990602Y-62751067D01*
X70975200Y-62848315D01*
X70975200Y-63092099D01*
X70975201Y-63092100D01*
X72280799Y-63092100D01*
X72280800Y-63092099D01*
X72280800Y-62848315D01*
X72265397Y-62751067D01*
X72205673Y-62633851D01*
X72112647Y-62540825D01*
X72078094Y-62523220D01*
X72037087Y-62479246D01*
X72033940Y-62419201D01*
X72070125Y-62371181D01*
X72117999Y-62357000D01*
X73038413Y-62357000D01*
X73044564Y-62358444D01*
X73048258Y-62357553D01*
X73066921Y-62363694D01*
X73077539Y-62366188D01*
X73079983Y-62367403D01*
X73168601Y-62418566D01*
X73191153Y-62424609D01*
X73275320Y-62447162D01*
X73275321Y-62447162D01*
X73391184Y-62447162D01*
X73391200Y-62447161D01*
X75858100Y-62447161D01*
X75914601Y-62467726D01*
X75944665Y-62519797D01*
X75946000Y-62535061D01*
X75946000Y-65210000D01*
X75925435Y-65266501D01*
X75873364Y-65296565D01*
X75858100Y-65297900D01*
X73360230Y-65297900D01*
X73340014Y-65298467D01*
X73330122Y-65299023D01*
X73303391Y-65301525D01*
X73303387Y-65301526D01*
X73189691Y-65336188D01*
X73189682Y-65336192D01*
X73135834Y-65362954D01*
X73124072Y-65369073D01*
X73124071Y-65369073D01*
X73101953Y-65386359D01*
X73047827Y-65405000D01*
X72043463Y-65405000D01*
X72000214Y-65393624D01*
X71905766Y-65340245D01*
X71905764Y-65340244D01*
X71905762Y-65340243D01*
X71871763Y-65327868D01*
X71849251Y-65319674D01*
X71843003Y-65317464D01*
X71725760Y-65297900D01*
X71725756Y-65297900D01*
X71334900Y-65297900D01*
X71334890Y-65297900D01*
X71303450Y-65299271D01*
X71288193Y-65300605D01*
X71288168Y-65300608D01*
X71250408Y-65305933D01*
X71250403Y-65305934D01*
X71169602Y-65336188D01*
X71139082Y-65347615D01*
X71139080Y-65347615D01*
X71139080Y-65347616D01*
X71087029Y-65377668D01*
X71076536Y-65383986D01*
X71076534Y-65383987D01*
X71075650Y-65384520D01*
X71052566Y-65405000D01*
X70993000Y-65405000D01*
X70993000Y-65457845D01*
X70986730Y-65463408D01*
X70975535Y-65483215D01*
X70975533Y-65483218D01*
X70928245Y-65566889D01*
X70907674Y-65623404D01*
X70905464Y-65629652D01*
X70885900Y-65746896D01*
X70885900Y-68238100D01*
X70865335Y-68294601D01*
X70813264Y-68324665D01*
X70798000Y-68326000D01*
X66294000Y-68326000D01*
X66294000Y-68326001D01*
X66294000Y-69174679D01*
X66293248Y-69186154D01*
X66292400Y-69192594D01*
X66292400Y-69745403D01*
X66293248Y-69751835D01*
X66294000Y-69763311D01*
X66294000Y-70016100D01*
X66273435Y-70072601D01*
X66221364Y-70102665D01*
X66206100Y-70104000D01*
X65629032Y-70104000D01*
X65572531Y-70083435D01*
X65542467Y-70031364D01*
X65552908Y-69972150D01*
X65566877Y-69953945D01*
X65578173Y-69942648D01*
X65637897Y-69825432D01*
X65653300Y-69728184D01*
X65653300Y-69534401D01*
X65653299Y-69534400D01*
X64347701Y-69534400D01*
X64347700Y-69534401D01*
X64347700Y-69728184D01*
X64363102Y-69825432D01*
X64422826Y-69942648D01*
X64434123Y-69953945D01*
X64459534Y-70008439D01*
X64443971Y-70066517D01*
X64394718Y-70101005D01*
X64371968Y-70104000D01*
X62825900Y-70104000D01*
X62769399Y-70083435D01*
X62739335Y-70031364D01*
X62738000Y-70016100D01*
X62738000Y-69162815D01*
X64347700Y-69162815D01*
X64347700Y-69356599D01*
X64347701Y-69356600D01*
X64911599Y-69356600D01*
X64911600Y-69356599D01*
X64911600Y-68780201D01*
X65089400Y-68780201D01*
X65089400Y-69356599D01*
X65089401Y-69356600D01*
X65653299Y-69356600D01*
X65653300Y-69356599D01*
X65653300Y-69162815D01*
X65637897Y-69065567D01*
X65578173Y-68948351D01*
X65485148Y-68855326D01*
X65367932Y-68795602D01*
X65270684Y-68780200D01*
X65089401Y-68780200D01*
X65089400Y-68780201D01*
X64911600Y-68780201D01*
X64911599Y-68780200D01*
X64730316Y-68780200D01*
X64633067Y-68795602D01*
X64515851Y-68855326D01*
X64422826Y-68948351D01*
X64363102Y-69065567D01*
X64347700Y-69162815D01*
X62738000Y-69162815D01*
X62738000Y-66763901D01*
X68615200Y-66763901D01*
X68615200Y-67351533D01*
X68617909Y-67380429D01*
X68617910Y-67380434D01*
X68660501Y-67502153D01*
X68660502Y-67502154D01*
X68737080Y-67605914D01*
X68737085Y-67605919D01*
X68840845Y-67682497D01*
X68840846Y-67682498D01*
X68962565Y-67725089D01*
X68962570Y-67725090D01*
X68991466Y-67727799D01*
X68991470Y-67727800D01*
X69354099Y-67727800D01*
X69354100Y-67727799D01*
X69354100Y-66763901D01*
X69531900Y-66763901D01*
X69531900Y-67727799D01*
X69531901Y-67727800D01*
X69894530Y-67727800D01*
X69894533Y-67727799D01*
X69923429Y-67725090D01*
X69923434Y-67725089D01*
X70045153Y-67682498D01*
X70045154Y-67682497D01*
X70148914Y-67605919D01*
X70148919Y-67605914D01*
X70225497Y-67502154D01*
X70225498Y-67502153D01*
X70268089Y-67380434D01*
X70268090Y-67380429D01*
X70270799Y-67351533D01*
X70270800Y-67351530D01*
X70270800Y-66763901D01*
X70270799Y-66763900D01*
X69531901Y-66763900D01*
X69531900Y-66763901D01*
X69354100Y-66763901D01*
X69354099Y-66763900D01*
X68615201Y-66763900D01*
X68615200Y-66763901D01*
X62738000Y-66763901D01*
X62738000Y-65998466D01*
X68615200Y-65998466D01*
X68615200Y-66586099D01*
X68615201Y-66586100D01*
X69354099Y-66586100D01*
X69354100Y-66586099D01*
X69354100Y-65622201D01*
X69531900Y-65622201D01*
X69531900Y-66586099D01*
X69531901Y-66586100D01*
X70270799Y-66586100D01*
X70270800Y-66586099D01*
X70270800Y-65998469D01*
X70270799Y-65998466D01*
X70268090Y-65969570D01*
X70268089Y-65969565D01*
X70225498Y-65847846D01*
X70225497Y-65847845D01*
X70148919Y-65744085D01*
X70148914Y-65744080D01*
X70045154Y-65667502D01*
X70045153Y-65667501D01*
X69923434Y-65624910D01*
X69923429Y-65624909D01*
X69894533Y-65622200D01*
X69531901Y-65622200D01*
X69531900Y-65622201D01*
X69354100Y-65622201D01*
X69354099Y-65622200D01*
X68991466Y-65622200D01*
X68962570Y-65624909D01*
X68962565Y-65624910D01*
X68840846Y-65667501D01*
X68840845Y-65667502D01*
X68737085Y-65744080D01*
X68737080Y-65744085D01*
X68660502Y-65847845D01*
X68660501Y-65847846D01*
X68617910Y-65969565D01*
X68617909Y-65969570D01*
X68615200Y-65998466D01*
X62738000Y-65998466D01*
X62738000Y-63949401D01*
X68552201Y-63949401D01*
X68552201Y-64478008D01*
X68562516Y-64529875D01*
X68601811Y-64588682D01*
X68601817Y-64588688D01*
X68660624Y-64627983D01*
X68712486Y-64638299D01*
X69241098Y-64638299D01*
X69241100Y-64638298D01*
X69241100Y-63949401D01*
X69418900Y-63949401D01*
X69418900Y-64638298D01*
X69418901Y-64638299D01*
X69947509Y-64638299D01*
X69999375Y-64627983D01*
X70058182Y-64588688D01*
X70058188Y-64588682D01*
X70097483Y-64529875D01*
X70107800Y-64478012D01*
X70107800Y-63969901D01*
X73090200Y-63969901D01*
X73090200Y-64345033D01*
X73092909Y-64373929D01*
X73092910Y-64373934D01*
X73135501Y-64495653D01*
X73135502Y-64495654D01*
X73212080Y-64599414D01*
X73212085Y-64599419D01*
X73315845Y-64675997D01*
X73315846Y-64675998D01*
X73437565Y-64718589D01*
X73437570Y-64718590D01*
X73466466Y-64721299D01*
X73466470Y-64721300D01*
X74079099Y-64721300D01*
X74079100Y-64721299D01*
X74079100Y-63969901D01*
X74256900Y-63969901D01*
X74256900Y-64721299D01*
X74256901Y-64721300D01*
X74869530Y-64721300D01*
X74869533Y-64721299D01*
X74898429Y-64718590D01*
X74898434Y-64718589D01*
X75020153Y-64675998D01*
X75020154Y-64675997D01*
X75123914Y-64599419D01*
X75123919Y-64599414D01*
X75200497Y-64495654D01*
X75200498Y-64495653D01*
X75243089Y-64373934D01*
X75243090Y-64373929D01*
X75245799Y-64345033D01*
X75245800Y-64345030D01*
X75245800Y-63969901D01*
X75245799Y-63969900D01*
X74256901Y-63969900D01*
X74256900Y-63969901D01*
X74079100Y-63969901D01*
X74079099Y-63969900D01*
X73090201Y-63969900D01*
X73090200Y-63969901D01*
X70107800Y-63969901D01*
X70107800Y-63949401D01*
X70107799Y-63949400D01*
X69418901Y-63949400D01*
X69418900Y-63949401D01*
X69241100Y-63949401D01*
X69241099Y-63949400D01*
X68552202Y-63949400D01*
X68552201Y-63949401D01*
X62738000Y-63949401D01*
X62738000Y-63242987D01*
X68552200Y-63242987D01*
X68552200Y-63771599D01*
X68552201Y-63771600D01*
X69241099Y-63771600D01*
X69241100Y-63771599D01*
X69241100Y-63082701D01*
X69418900Y-63082701D01*
X69418900Y-63771599D01*
X69418901Y-63771600D01*
X70107798Y-63771600D01*
X70107799Y-63771599D01*
X70107799Y-63269901D01*
X70975200Y-63269901D01*
X70975200Y-63513684D01*
X70990602Y-63610932D01*
X71050326Y-63728148D01*
X71143351Y-63821173D01*
X71260567Y-63880897D01*
X71357816Y-63896300D01*
X71539099Y-63896300D01*
X71539100Y-63896299D01*
X71539100Y-63269901D01*
X71716900Y-63269901D01*
X71716900Y-63896299D01*
X71716901Y-63896300D01*
X71898184Y-63896300D01*
X71995432Y-63880897D01*
X72045924Y-63855171D01*
X72112648Y-63821173D01*
X72205673Y-63728148D01*
X72265397Y-63610932D01*
X72280800Y-63513684D01*
X72280800Y-63416966D01*
X73090200Y-63416966D01*
X73090200Y-63792099D01*
X73090201Y-63792100D01*
X74079099Y-63792100D01*
X74079100Y-63792099D01*
X74079100Y-63040701D01*
X74256900Y-63040701D01*
X74256900Y-63792099D01*
X74256901Y-63792100D01*
X75245799Y-63792100D01*
X75245800Y-63792099D01*
X75245800Y-63416969D01*
X75245799Y-63416966D01*
X75243090Y-63388070D01*
X75243089Y-63388065D01*
X75200498Y-63266346D01*
X75200497Y-63266345D01*
X75123919Y-63162585D01*
X75123914Y-63162580D01*
X75020154Y-63086002D01*
X75020153Y-63086001D01*
X74898434Y-63043410D01*
X74898429Y-63043409D01*
X74869533Y-63040700D01*
X74256901Y-63040700D01*
X74256900Y-63040701D01*
X74079100Y-63040701D01*
X74079099Y-63040700D01*
X73466466Y-63040700D01*
X73437570Y-63043409D01*
X73437565Y-63043410D01*
X73315846Y-63086001D01*
X73315845Y-63086002D01*
X73212085Y-63162580D01*
X73212080Y-63162585D01*
X73135502Y-63266345D01*
X73135501Y-63266346D01*
X73092910Y-63388065D01*
X73092909Y-63388070D01*
X73090200Y-63416966D01*
X72280800Y-63416966D01*
X72280800Y-63269901D01*
X72280799Y-63269900D01*
X71716901Y-63269900D01*
X71716900Y-63269901D01*
X71539100Y-63269901D01*
X71539099Y-63269900D01*
X70975201Y-63269900D01*
X70975200Y-63269901D01*
X70107799Y-63269901D01*
X70107799Y-63242991D01*
X70097483Y-63191124D01*
X70058188Y-63132317D01*
X70058182Y-63132311D01*
X69999375Y-63093016D01*
X69947513Y-63082700D01*
X69418901Y-63082700D01*
X69418900Y-63082701D01*
X69241100Y-63082701D01*
X69241099Y-63082700D01*
X68712486Y-63082700D01*
X68712484Y-63082701D01*
X68660628Y-63093014D01*
X68660624Y-63093016D01*
X68601817Y-63132311D01*
X68601811Y-63132317D01*
X68562516Y-63191124D01*
X68552200Y-63242987D01*
X62738000Y-63242987D01*
X62738000Y-62952900D01*
X62758565Y-62896399D01*
X62810636Y-62866335D01*
X62825900Y-62865000D01*
X70357999Y-62865000D01*
X70358000Y-62865000D01*
X70358000Y-62444900D01*
X70378565Y-62388399D01*
X70430636Y-62358335D01*
X70445900Y-62357000D01*
X71138001Y-62357000D01*
X71194502Y-62377565D01*
G37*
%TD.AperFunction*%
%TD*%
%TA.AperFunction,Conductor*%
%TO.N,/VBIAS*%
G36*
X88757939Y-64153306D02*
G01*
X88763713Y-64160831D01*
X88763999Y-64160612D01*
X88861639Y-64287860D01*
X88933898Y-64343306D01*
X88985639Y-64383008D01*
X89130039Y-64442821D01*
X89130045Y-64442821D01*
X89130046Y-64442822D01*
X89139659Y-64444087D01*
X89246095Y-64458100D01*
X89823904Y-64458099D01*
X89939961Y-64442821D01*
X90084361Y-64383008D01*
X90208360Y-64287860D01*
X90303508Y-64163861D01*
X90303508Y-64163860D01*
X90306001Y-64160612D01*
X90307739Y-64161945D01*
X90340073Y-64137131D01*
X90356255Y-64135000D01*
X90834753Y-64135000D01*
X90850929Y-64137130D01*
X90961416Y-64166734D01*
X90987039Y-64173600D01*
X90987040Y-64173600D01*
X91130960Y-64173600D01*
X91130961Y-64173600D01*
X91188460Y-64158193D01*
X91267071Y-64137130D01*
X91283247Y-64135000D01*
X92417394Y-64135000D01*
X92461588Y-64153306D01*
X92479894Y-64197500D01*
X92479894Y-64654397D01*
X92479895Y-64654411D01*
X92495171Y-64770453D01*
X92495174Y-64770464D01*
X92554984Y-64914858D01*
X92650133Y-65038860D01*
X92723213Y-65094936D01*
X92774133Y-65134008D01*
X92918533Y-65193821D01*
X92918539Y-65193821D01*
X92918540Y-65193822D01*
X92972325Y-65200903D01*
X93013752Y-65224820D01*
X93026133Y-65271025D01*
X93002216Y-65312452D01*
X92978804Y-65322842D01*
X92978958Y-65323370D01*
X92825707Y-65367894D01*
X92691086Y-65447507D01*
X92625258Y-65513335D01*
X92581064Y-65531641D01*
X92536870Y-65513335D01*
X92495185Y-65471650D01*
X92380703Y-65395155D01*
X92380701Y-65395154D01*
X92253492Y-65342462D01*
X92253489Y-65342461D01*
X92118445Y-65315600D01*
X91980755Y-65315600D01*
X91845710Y-65342461D01*
X91845707Y-65342462D01*
X91718498Y-65395154D01*
X91718496Y-65395155D01*
X91604014Y-65471650D01*
X91506650Y-65569014D01*
X91430155Y-65683496D01*
X91430154Y-65683498D01*
X91377462Y-65810707D01*
X91377461Y-65810710D01*
X91350600Y-65945754D01*
X91350600Y-66083445D01*
X91377461Y-66218489D01*
X91377462Y-66218492D01*
X91430154Y-66345701D01*
X91430155Y-66345703D01*
X91506650Y-66460185D01*
X91506651Y-66460186D01*
X91604014Y-66557549D01*
X91718499Y-66634046D01*
X91845709Y-66686738D01*
X91980755Y-66713600D01*
X91980757Y-66713600D01*
X91980978Y-66713644D01*
X92000037Y-66720817D01*
X92004716Y-66723519D01*
X92150194Y-66762500D01*
X92150195Y-66762500D01*
X92509127Y-66762500D01*
X92553321Y-66780806D01*
X92562923Y-66793184D01*
X92580502Y-66822908D01*
X92691086Y-66933492D01*
X92691088Y-66933493D01*
X92691089Y-66933494D01*
X92825705Y-67013105D01*
X92975891Y-67056739D01*
X93010975Y-67059500D01*
X93611012Y-67059499D01*
X93611019Y-67059499D01*
X93611022Y-67059498D01*
X93646097Y-67056739D01*
X93796283Y-67013105D01*
X93874486Y-66966855D01*
X93921843Y-66960115D01*
X93960096Y-66988837D01*
X93968800Y-67020895D01*
X93967425Y-67375247D01*
X93948947Y-67419369D01*
X93904682Y-67437504D01*
X93866877Y-67424588D01*
X93847856Y-67409992D01*
X93847852Y-67409990D01*
X93703458Y-67350180D01*
X93703456Y-67350179D01*
X93703455Y-67350179D01*
X93703453Y-67350178D01*
X93703447Y-67350177D01*
X93587399Y-67334900D01*
X93034596Y-67334900D01*
X93034582Y-67334901D01*
X92918540Y-67350177D01*
X92918529Y-67350180D01*
X92774135Y-67409990D01*
X92650133Y-67505139D01*
X92554984Y-67629141D01*
X92495174Y-67773535D01*
X92495171Y-67773546D01*
X92479894Y-67889588D01*
X92479894Y-68467397D01*
X92479895Y-68467411D01*
X92495171Y-68583453D01*
X92495174Y-68583464D01*
X92554984Y-68727858D01*
X92650133Y-68851860D01*
X92700114Y-68890211D01*
X92774133Y-68947008D01*
X92774134Y-68947008D01*
X92774135Y-68947009D01*
X92822266Y-68966945D01*
X92918533Y-69006821D01*
X92918539Y-69006821D01*
X92918540Y-69006822D01*
X92972325Y-69013903D01*
X93013752Y-69037820D01*
X93026133Y-69084025D01*
X93002216Y-69125452D01*
X92978804Y-69135842D01*
X92978958Y-69136370D01*
X92975891Y-69137260D01*
X92975891Y-69137261D01*
X92958392Y-69142344D01*
X92825707Y-69180894D01*
X92825705Y-69180894D01*
X92825705Y-69180895D01*
X92799993Y-69196100D01*
X92691086Y-69260507D01*
X92580502Y-69371091D01*
X92562923Y-69400816D01*
X92556428Y-69405692D01*
X92553321Y-69413194D01*
X92537965Y-69419554D01*
X92524670Y-69429537D01*
X92509127Y-69431500D01*
X92497168Y-69431500D01*
X92462445Y-69420967D01*
X92407203Y-69384055D01*
X92407201Y-69384054D01*
X92279992Y-69331362D01*
X92279989Y-69331361D01*
X92144945Y-69304500D01*
X92007255Y-69304500D01*
X91872210Y-69331361D01*
X91872207Y-69331362D01*
X91744998Y-69384054D01*
X91744996Y-69384055D01*
X91630514Y-69460550D01*
X91533150Y-69557914D01*
X91456655Y-69672396D01*
X91456654Y-69672398D01*
X91403962Y-69799607D01*
X91403961Y-69799610D01*
X91377100Y-69934654D01*
X91377100Y-70072345D01*
X91403961Y-70207389D01*
X91403962Y-70207392D01*
X91456654Y-70334601D01*
X91456655Y-70334603D01*
X91509967Y-70414389D01*
X91533151Y-70449086D01*
X91630514Y-70546449D01*
X91744999Y-70622946D01*
X91872209Y-70675638D01*
X92007255Y-70702500D01*
X92144945Y-70702500D01*
X92279991Y-70675638D01*
X92407201Y-70622946D01*
X92450812Y-70593806D01*
X92462445Y-70586033D01*
X92497168Y-70575500D01*
X92509127Y-70575500D01*
X92553321Y-70593806D01*
X92562923Y-70606184D01*
X92580502Y-70635908D01*
X92691086Y-70746492D01*
X92691088Y-70746493D01*
X92691089Y-70746494D01*
X92825705Y-70826105D01*
X92975891Y-70869739D01*
X93010975Y-70872500D01*
X93611012Y-70872499D01*
X93611019Y-70872499D01*
X93611022Y-70872498D01*
X93646097Y-70869739D01*
X93796283Y-70826105D01*
X93859655Y-70788626D01*
X93907012Y-70781888D01*
X93945266Y-70810609D01*
X93953969Y-70842667D01*
X93952695Y-71170944D01*
X93934217Y-71215066D01*
X93889952Y-71233201D01*
X93852148Y-71220286D01*
X93847852Y-71216990D01*
X93847853Y-71216990D01*
X93703458Y-71157180D01*
X93703456Y-71157179D01*
X93703455Y-71157179D01*
X93703453Y-71157178D01*
X93703447Y-71157177D01*
X93587399Y-71141900D01*
X93034596Y-71141900D01*
X93034582Y-71141901D01*
X92918540Y-71157177D01*
X92918529Y-71157180D01*
X92774135Y-71216990D01*
X92650133Y-71312139D01*
X92554984Y-71436141D01*
X92495174Y-71580535D01*
X92495171Y-71580546D01*
X92479894Y-71696588D01*
X92479894Y-72274397D01*
X92479895Y-72274411D01*
X92495171Y-72390453D01*
X92495174Y-72390464D01*
X92554984Y-72534858D01*
X92650133Y-72658860D01*
X92702487Y-72699032D01*
X92774133Y-72754008D01*
X92831469Y-72777757D01*
X92865293Y-72811582D01*
X92865294Y-72859418D01*
X92831469Y-72893242D01*
X92807551Y-72898000D01*
X91668100Y-72898000D01*
X91623906Y-72879694D01*
X91605600Y-72835500D01*
X91605600Y-72699040D01*
X91605598Y-72699032D01*
X91568351Y-72560023D01*
X91568350Y-72560020D01*
X91564066Y-72552600D01*
X91496389Y-72435379D01*
X91496387Y-72435377D01*
X91496384Y-72435373D01*
X91394626Y-72333615D01*
X91394622Y-72333612D01*
X91394621Y-72333611D01*
X91292059Y-72274397D01*
X91269979Y-72261649D01*
X91269976Y-72261648D01*
X91130967Y-72224401D01*
X91130962Y-72224400D01*
X91130961Y-72224400D01*
X90987039Y-72224400D01*
X90987037Y-72224400D01*
X90947326Y-72235040D01*
X90899900Y-72228795D01*
X90886957Y-72218863D01*
X90885849Y-72217755D01*
X90885847Y-72217754D01*
X90885847Y-72217753D01*
X90769342Y-72130539D01*
X90769340Y-72130538D01*
X90769337Y-72130536D01*
X90632987Y-72079681D01*
X90632989Y-72079681D01*
X90572711Y-72073200D01*
X90572704Y-72073200D01*
X89571241Y-72073200D01*
X89527047Y-72054894D01*
X89508741Y-72010700D01*
X89511966Y-71994498D01*
X89510990Y-71994237D01*
X89549298Y-71851267D01*
X89549300Y-71851259D01*
X89549300Y-71707340D01*
X89549298Y-71707332D01*
X89512050Y-71568320D01*
X89510653Y-71565900D01*
X89440089Y-71443679D01*
X89440087Y-71443677D01*
X89440084Y-71443673D01*
X89338326Y-71341915D01*
X89338322Y-71341912D01*
X89338321Y-71341911D01*
X89276000Y-71305930D01*
X89213679Y-71269949D01*
X89213676Y-71269948D01*
X89074667Y-71232701D01*
X89074662Y-71232700D01*
X89074661Y-71232700D01*
X89074660Y-71232700D01*
X88984823Y-71232700D01*
X88947368Y-71220234D01*
X88943037Y-71216992D01*
X88894342Y-71180539D01*
X88894340Y-71180538D01*
X88894337Y-71180536D01*
X88757987Y-71129681D01*
X88757989Y-71129681D01*
X88697711Y-71123200D01*
X88697704Y-71123200D01*
X87425896Y-71123200D01*
X87425888Y-71123200D01*
X87365611Y-71129681D01*
X87229262Y-71180536D01*
X87229256Y-71180540D01*
X87112753Y-71267753D01*
X87025540Y-71384256D01*
X87025536Y-71384262D01*
X86974681Y-71520611D01*
X86968200Y-71580888D01*
X86968200Y-71977711D01*
X86974681Y-72037988D01*
X87024491Y-72171533D01*
X87022784Y-72219337D01*
X87010126Y-72237568D01*
X86842595Y-72405100D01*
X86456390Y-72791306D01*
X86368002Y-72879694D01*
X86323808Y-72898000D01*
X85558100Y-72898000D01*
X85513906Y-72879694D01*
X85495600Y-72835500D01*
X85495599Y-72605602D01*
X85495598Y-72605588D01*
X85480322Y-72489546D01*
X85480321Y-72489545D01*
X85480321Y-72489539D01*
X85420508Y-72345139D01*
X85381436Y-72294219D01*
X85325360Y-72221139D01*
X85207288Y-72130540D01*
X85201361Y-72125992D01*
X85201360Y-72125991D01*
X85201358Y-72125990D01*
X85056964Y-72066180D01*
X85056962Y-72066179D01*
X85056961Y-72066179D01*
X85056959Y-72066178D01*
X85056953Y-72066177D01*
X84940911Y-72050900D01*
X84940905Y-72050900D01*
X84618788Y-72050900D01*
X84574594Y-72032594D01*
X84564662Y-72019650D01*
X84524246Y-71949649D01*
X84511389Y-71927379D01*
X84489669Y-71905659D01*
X84409626Y-71825615D01*
X84409622Y-71825612D01*
X84409621Y-71825611D01*
X84347300Y-71789630D01*
X84284979Y-71753649D01*
X84284976Y-71753648D01*
X84145967Y-71716401D01*
X84145962Y-71716400D01*
X84145961Y-71716400D01*
X84002039Y-71716400D01*
X84002038Y-71716400D01*
X84002032Y-71716401D01*
X83863023Y-71753648D01*
X83863020Y-71753649D01*
X83738377Y-71825612D01*
X83738373Y-71825615D01*
X83636615Y-71927373D01*
X83636612Y-71927377D01*
X83564649Y-72052020D01*
X83564649Y-72052022D01*
X83556434Y-72082680D01*
X83527313Y-72120630D01*
X83479887Y-72126873D01*
X83472146Y-72124246D01*
X83433067Y-72108059D01*
X83331961Y-72066179D01*
X83331958Y-72066178D01*
X83331957Y-72066178D01*
X83331953Y-72066177D01*
X83215905Y-72050900D01*
X82538102Y-72050900D01*
X82538088Y-72050901D01*
X82422046Y-72066177D01*
X82422035Y-72066180D01*
X82277641Y-72125990D01*
X82153639Y-72221139D01*
X82058490Y-72345140D01*
X82026935Y-72421320D01*
X82018144Y-72430110D01*
X82013387Y-72441595D01*
X82001901Y-72446352D01*
X81993110Y-72455144D01*
X81980677Y-72455143D01*
X81969193Y-72459901D01*
X81957706Y-72455143D01*
X81945274Y-72455143D01*
X81924999Y-72441595D01*
X81873332Y-72389928D01*
X81873320Y-72389914D01*
X81791642Y-72308237D01*
X81791641Y-72308236D01*
X81759747Y-72289822D01*
X81695958Y-72252993D01*
X81673407Y-72246951D01*
X81673407Y-72246950D01*
X81589247Y-72224400D01*
X81589242Y-72224399D01*
X81589241Y-72224399D01*
X81478759Y-72224399D01*
X81474934Y-72224399D01*
X81474918Y-72224400D01*
X81342500Y-72224400D01*
X81298306Y-72206094D01*
X81280000Y-72161900D01*
X81280000Y-71264935D01*
X81292914Y-71226889D01*
X81313808Y-71199661D01*
X81373621Y-71055261D01*
X81387832Y-70947315D01*
X81628800Y-70947315D01*
X81635094Y-71005851D01*
X81684483Y-71138270D01*
X81684486Y-71138274D01*
X81769183Y-71251416D01*
X81882325Y-71336113D01*
X81882329Y-71336116D01*
X82014748Y-71385505D01*
X82073284Y-71391799D01*
X82073298Y-71391800D01*
X82243300Y-71391800D01*
X82497300Y-71391800D01*
X82667302Y-71391800D01*
X82667315Y-71391799D01*
X82725851Y-71385505D01*
X82808865Y-71354543D01*
X84400060Y-71354543D01*
X84478843Y-71407184D01*
X84478846Y-71407185D01*
X84616067Y-71464024D01*
X84761737Y-71492999D01*
X84761738Y-71493000D01*
X84910262Y-71493000D01*
X84910262Y-71492999D01*
X85055932Y-71464024D01*
X85055933Y-71464024D01*
X85193153Y-71407185D01*
X85193155Y-71407184D01*
X85271938Y-71354543D01*
X84836000Y-70918605D01*
X84400060Y-71354543D01*
X82808865Y-71354543D01*
X82858270Y-71336116D01*
X82858274Y-71336113D01*
X82931608Y-71281217D01*
X82971416Y-71251416D01*
X83056113Y-71138274D01*
X83056116Y-71138270D01*
X83105505Y-71005851D01*
X83111799Y-70947315D01*
X83111800Y-70947302D01*
X83111800Y-70789800D01*
X82497300Y-70789800D01*
X82497300Y-71391800D01*
X82243300Y-71391800D01*
X82243300Y-70789800D01*
X81628800Y-70789800D01*
X81628800Y-70947315D01*
X81387832Y-70947315D01*
X81388900Y-70939205D01*
X81388900Y-70664737D01*
X84082000Y-70664737D01*
X84082000Y-70813262D01*
X84110975Y-70958932D01*
X84110975Y-70958933D01*
X84167814Y-71096153D01*
X84167815Y-71096156D01*
X84220456Y-71174938D01*
X84656394Y-70739000D01*
X84656394Y-70738999D01*
X85015605Y-70738999D01*
X85015605Y-70739000D01*
X85451543Y-71174938D01*
X85504184Y-71096155D01*
X85504185Y-71096153D01*
X85561024Y-70958933D01*
X85561024Y-70958932D01*
X85589999Y-70813262D01*
X85590000Y-70813262D01*
X85590000Y-70664738D01*
X85589999Y-70664737D01*
X85561024Y-70519067D01*
X85561024Y-70519066D01*
X85504185Y-70381846D01*
X85504184Y-70381843D01*
X85451543Y-70303060D01*
X85015605Y-70738999D01*
X84656394Y-70738999D01*
X84220456Y-70303061D01*
X84167814Y-70381845D01*
X84167813Y-70381848D01*
X84110975Y-70519069D01*
X84082000Y-70664737D01*
X81388900Y-70664737D01*
X81388900Y-70661668D01*
X81388899Y-70386402D01*
X81388898Y-70386395D01*
X81388300Y-70381848D01*
X81387831Y-70378284D01*
X81628800Y-70378284D01*
X81628800Y-70535800D01*
X82243300Y-70535800D01*
X82497300Y-70535800D01*
X83111800Y-70535800D01*
X83111800Y-70378297D01*
X83111799Y-70378284D01*
X83105505Y-70319748D01*
X83056116Y-70187329D01*
X83056113Y-70187325D01*
X83053777Y-70184204D01*
X83053776Y-70184203D01*
X83008301Y-70123456D01*
X84400061Y-70123456D01*
X84835999Y-70559394D01*
X85271938Y-70123456D01*
X85193156Y-70070815D01*
X85193153Y-70070814D01*
X85055932Y-70013975D01*
X84910262Y-69985000D01*
X84761738Y-69985000D01*
X84616069Y-70013975D01*
X84478848Y-70070813D01*
X84478845Y-70070814D01*
X84400061Y-70123456D01*
X83008301Y-70123456D01*
X82971416Y-70074183D01*
X82858274Y-69989486D01*
X82858270Y-69989483D01*
X82725851Y-69940094D01*
X82667315Y-69933800D01*
X82497300Y-69933800D01*
X82497300Y-70535800D01*
X82243300Y-70535800D01*
X82243300Y-69933800D01*
X82073284Y-69933800D01*
X82014748Y-69940094D01*
X81882329Y-69989483D01*
X81882325Y-69989486D01*
X81769183Y-70074183D01*
X81684486Y-70187325D01*
X81684483Y-70187329D01*
X81635094Y-70319748D01*
X81628800Y-70378284D01*
X81387831Y-70378284D01*
X81373622Y-70270346D01*
X81373621Y-70270345D01*
X81373621Y-70270339D01*
X81347546Y-70207389D01*
X81313810Y-70125942D01*
X81313177Y-70124846D01*
X81313093Y-70124212D01*
X81312241Y-70122154D01*
X81312792Y-70121925D01*
X81306928Y-70077420D01*
X81323104Y-70049398D01*
X82006298Y-69366206D01*
X82050492Y-69347900D01*
X82648198Y-69347900D01*
X82648204Y-69347900D01*
X82708485Y-69341419D01*
X82844842Y-69290561D01*
X82961347Y-69203347D01*
X83048561Y-69086842D01*
X83059140Y-69058480D01*
X83099418Y-68950488D01*
X83099418Y-68950487D01*
X83099419Y-68950485D01*
X83105900Y-68890204D01*
X83105900Y-68493396D01*
X83099419Y-68433115D01*
X83099418Y-68433111D01*
X83048563Y-68296762D01*
X83048561Y-68296760D01*
X83048561Y-68296758D01*
X82961347Y-68180253D01*
X82844842Y-68093039D01*
X82844840Y-68093038D01*
X82844837Y-68093036D01*
X82748395Y-68057066D01*
X82748394Y-68057066D01*
X82708486Y-68042181D01*
X82648211Y-68035700D01*
X82648204Y-68035700D01*
X81526396Y-68035700D01*
X81526388Y-68035700D01*
X81466115Y-68042181D01*
X81364341Y-68080140D01*
X81316536Y-68078432D01*
X81283940Y-68043421D01*
X81280000Y-68021580D01*
X81280000Y-68002604D01*
X83836587Y-68002604D01*
X83836587Y-68146523D01*
X83836588Y-68146531D01*
X83873835Y-68285540D01*
X83873836Y-68285543D01*
X83945799Y-68410186D01*
X83945802Y-68410190D01*
X84037394Y-68501781D01*
X84055700Y-68545975D01*
X84055700Y-69070197D01*
X84055701Y-69070211D01*
X84070977Y-69186253D01*
X84070980Y-69186264D01*
X84130790Y-69330658D01*
X84130791Y-69330660D01*
X84130792Y-69330661D01*
X84139046Y-69341418D01*
X84225939Y-69454660D01*
X84261355Y-69481835D01*
X84349939Y-69549808D01*
X84494339Y-69609621D01*
X84494345Y-69609621D01*
X84494346Y-69609622D01*
X84503959Y-69610887D01*
X84610395Y-69624900D01*
X85163204Y-69624899D01*
X85279261Y-69609621D01*
X85307587Y-69597888D01*
X86940700Y-69597888D01*
X86940700Y-70150697D01*
X86940701Y-70150711D01*
X86955977Y-70266753D01*
X86955980Y-70266764D01*
X87015790Y-70411158D01*
X87015791Y-70411160D01*
X87015792Y-70411161D01*
X87018269Y-70414389D01*
X87110939Y-70535160D01*
X87142522Y-70559394D01*
X87234939Y-70630308D01*
X87379339Y-70690121D01*
X87379345Y-70690121D01*
X87379346Y-70690122D01*
X87388959Y-70691387D01*
X87495395Y-70705400D01*
X88073204Y-70705399D01*
X88189261Y-70690121D01*
X88333661Y-70630308D01*
X88457660Y-70535160D01*
X88552808Y-70411161D01*
X88612621Y-70266761D01*
X88627900Y-70150705D01*
X88627899Y-69926658D01*
X88634142Y-69911586D01*
X88636272Y-69895409D01*
X88642973Y-69890267D01*
X88646205Y-69882465D01*
X88674220Y-69866290D01*
X88687026Y-69862859D01*
X88734450Y-69869102D01*
X88763570Y-69907053D01*
X88765700Y-69923229D01*
X88765700Y-70150697D01*
X88765701Y-70150711D01*
X88780977Y-70266753D01*
X88780980Y-70266764D01*
X88840790Y-70411158D01*
X88840791Y-70411160D01*
X88840792Y-70411161D01*
X88843269Y-70414389D01*
X88935939Y-70535160D01*
X88967522Y-70559394D01*
X89059939Y-70630308D01*
X89204339Y-70690121D01*
X89204345Y-70690121D01*
X89204346Y-70690122D01*
X89213959Y-70691387D01*
X89320395Y-70705400D01*
X89898204Y-70705399D01*
X90014261Y-70690121D01*
X90158661Y-70630308D01*
X90251078Y-70559394D01*
X90280895Y-70536515D01*
X90318942Y-70523600D01*
X90368960Y-70523600D01*
X90368961Y-70523600D01*
X90507980Y-70486350D01*
X90632621Y-70414389D01*
X90734389Y-70312621D01*
X90806350Y-70187980D01*
X90843600Y-70048961D01*
X90843600Y-69905039D01*
X90823688Y-69830726D01*
X90806351Y-69766023D01*
X90806350Y-69766020D01*
X90752298Y-69672399D01*
X90734389Y-69641379D01*
X90734387Y-69641377D01*
X90734384Y-69641373D01*
X90632626Y-69539615D01*
X90632622Y-69539612D01*
X90632621Y-69539611D01*
X90570300Y-69503630D01*
X90507979Y-69467649D01*
X90507976Y-69467648D01*
X90451997Y-69452649D01*
X90414046Y-69423529D01*
X90410431Y-69416197D01*
X90377809Y-69337441D01*
X90377807Y-69337438D01*
X90282660Y-69213439D01*
X90182221Y-69136370D01*
X90158661Y-69118292D01*
X90158660Y-69118291D01*
X90158658Y-69118290D01*
X90014264Y-69058480D01*
X90014262Y-69058479D01*
X90014261Y-69058479D01*
X90014259Y-69058478D01*
X90014253Y-69058477D01*
X89898205Y-69043200D01*
X89320402Y-69043200D01*
X89320388Y-69043201D01*
X89204346Y-69058477D01*
X89204339Y-69058479D01*
X89079154Y-69110332D01*
X89031319Y-69110331D01*
X89001110Y-69083839D01*
X88993242Y-69070211D01*
X88956389Y-69006379D01*
X88956387Y-69006377D01*
X88956384Y-69006373D01*
X88854626Y-68904615D01*
X88854622Y-68904612D01*
X88854621Y-68904611D01*
X88763253Y-68851860D01*
X88729979Y-68832649D01*
X88729976Y-68832648D01*
X88590967Y-68795401D01*
X88590962Y-68795400D01*
X88590961Y-68795400D01*
X88447039Y-68795400D01*
X88447038Y-68795400D01*
X88447032Y-68795401D01*
X88308023Y-68832648D01*
X88308020Y-68832649D01*
X88183377Y-68904612D01*
X88183373Y-68904615D01*
X88081615Y-69006373D01*
X88081610Y-69006379D01*
X88078394Y-69011951D01*
X88040443Y-69041071D01*
X88024268Y-69043200D01*
X87495402Y-69043200D01*
X87495388Y-69043201D01*
X87379346Y-69058477D01*
X87379335Y-69058480D01*
X87234941Y-69118290D01*
X87110939Y-69213439D01*
X87015790Y-69337441D01*
X86955980Y-69481835D01*
X86955977Y-69481846D01*
X86940700Y-69597888D01*
X85307587Y-69597888D01*
X85423661Y-69549808D01*
X85547660Y-69454660D01*
X85642808Y-69330661D01*
X85702621Y-69186261D01*
X85717900Y-69070205D01*
X85717899Y-68392396D01*
X85702621Y-68276339D01*
X85642808Y-68131939D01*
X85574886Y-68043421D01*
X85547660Y-68007939D01*
X85423658Y-67912790D01*
X85324516Y-67871724D01*
X85290692Y-67837900D01*
X85290692Y-67790064D01*
X85324516Y-67756240D01*
X85326593Y-67755422D01*
X85362273Y-67742114D01*
X85362274Y-67742113D01*
X85475416Y-67657416D01*
X85560113Y-67544274D01*
X85560116Y-67544270D01*
X85609505Y-67411851D01*
X85615799Y-67353315D01*
X85615800Y-67353302D01*
X85615800Y-67133300D01*
X84157800Y-67133300D01*
X84157800Y-67353315D01*
X84164094Y-67411851D01*
X84194122Y-67492359D01*
X84192415Y-67540164D01*
X84166813Y-67568328D01*
X84047564Y-67637176D01*
X84047560Y-67637179D01*
X83945802Y-67738937D01*
X83945799Y-67738941D01*
X83873836Y-67863584D01*
X83873835Y-67863587D01*
X83836588Y-68002596D01*
X83836587Y-68002604D01*
X81280000Y-68002604D01*
X81280000Y-67347002D01*
X81298306Y-67302808D01*
X81342500Y-67284502D01*
X81370875Y-67291314D01*
X81448402Y-67330816D01*
X81448404Y-67330817D01*
X81542991Y-67345798D01*
X81543007Y-67345799D01*
X81960300Y-67345799D01*
X82214300Y-67345799D01*
X82631591Y-67345799D01*
X82631594Y-67345798D01*
X82726200Y-67330815D01*
X82840224Y-67272717D01*
X82930717Y-67182224D01*
X82988815Y-67068200D01*
X82988817Y-67068195D01*
X83003798Y-66973608D01*
X83003800Y-66973592D01*
X83003800Y-66918800D01*
X82214300Y-66918800D01*
X82214300Y-67345799D01*
X81960300Y-67345799D01*
X81960300Y-66664800D01*
X82214300Y-66664800D01*
X83003799Y-66664800D01*
X83003799Y-66659284D01*
X84157800Y-66659284D01*
X84157800Y-66879300D01*
X84759800Y-66879300D01*
X85013800Y-66879300D01*
X85615800Y-66879300D01*
X85615800Y-66659297D01*
X85615799Y-66659284D01*
X85609505Y-66600748D01*
X85560116Y-66468329D01*
X85560113Y-66468325D01*
X85475416Y-66355183D01*
X85362274Y-66270486D01*
X85362270Y-66270483D01*
X85229851Y-66221094D01*
X85171315Y-66214800D01*
X85013800Y-66214800D01*
X85013800Y-66879300D01*
X84759800Y-66879300D01*
X84759800Y-66214800D01*
X84602284Y-66214800D01*
X84543748Y-66221094D01*
X84411329Y-66270483D01*
X84411325Y-66270486D01*
X84298183Y-66355183D01*
X84213486Y-66468325D01*
X84213483Y-66468329D01*
X84164094Y-66600748D01*
X84157800Y-66659284D01*
X83003799Y-66659284D01*
X83003799Y-66610009D01*
X83003798Y-66610005D01*
X82988815Y-66515399D01*
X82930717Y-66401375D01*
X82840224Y-66310882D01*
X82726200Y-66252784D01*
X82726195Y-66252782D01*
X82631608Y-66237801D01*
X82631593Y-66237800D01*
X82214300Y-66237800D01*
X82214300Y-66664800D01*
X81960300Y-66664800D01*
X81960300Y-66237800D01*
X81543009Y-66237800D01*
X81543005Y-66237801D01*
X81448399Y-66252784D01*
X81370874Y-66292285D01*
X81323186Y-66296038D01*
X81286812Y-66264971D01*
X81280000Y-66236597D01*
X81280000Y-65931340D01*
X85977100Y-65931340D01*
X85977100Y-66075259D01*
X85977101Y-66075267D01*
X86014348Y-66214276D01*
X86014349Y-66214279D01*
X86036579Y-66252782D01*
X86065965Y-66303681D01*
X86086312Y-66338922D01*
X86086315Y-66338926D01*
X86188073Y-66440684D01*
X86188077Y-66440687D01*
X86188079Y-66440689D01*
X86312720Y-66512650D01*
X86312723Y-66512651D01*
X86324905Y-66515915D01*
X86451739Y-66549900D01*
X86451740Y-66549900D01*
X86595660Y-66549900D01*
X86595661Y-66549900D01*
X86734680Y-66512650D01*
X86859321Y-66440689D01*
X86859326Y-66440683D01*
X86862574Y-66438193D01*
X86863419Y-66439294D01*
X86902999Y-66422900D01*
X86964137Y-66422900D01*
X87008331Y-66441206D01*
X87014171Y-66447945D01*
X87064253Y-66514847D01*
X87180758Y-66602061D01*
X87180760Y-66602061D01*
X87180762Y-66602063D01*
X87317112Y-66652918D01*
X87317113Y-66652918D01*
X87317115Y-66652919D01*
X87377396Y-66659400D01*
X87377402Y-66659400D01*
X88649198Y-66659400D01*
X88649204Y-66659400D01*
X88709485Y-66652919D01*
X88712266Y-66651881D01*
X88714880Y-66650907D01*
X88762685Y-66652612D01*
X88795282Y-66687621D01*
X88798866Y-66716146D01*
X88794700Y-66754888D01*
X88794700Y-67151711D01*
X88798866Y-67190453D01*
X88785389Y-67236351D01*
X88743405Y-67259276D01*
X88714886Y-67255695D01*
X88709485Y-67253681D01*
X88649211Y-67247200D01*
X88649204Y-67247200D01*
X87377396Y-67247200D01*
X87377388Y-67247200D01*
X87317111Y-67253681D01*
X87180762Y-67304536D01*
X87180756Y-67304540D01*
X87064253Y-67391753D01*
X86977040Y-67508256D01*
X86977036Y-67508262D01*
X86926181Y-67644611D01*
X86919700Y-67704888D01*
X86919700Y-68101711D01*
X86926181Y-68161988D01*
X86977036Y-68298337D01*
X86977038Y-68298340D01*
X86977039Y-68298342D01*
X87064253Y-68414847D01*
X87180758Y-68502061D01*
X87180760Y-68502061D01*
X87180762Y-68502063D01*
X87317112Y-68552918D01*
X87317113Y-68552918D01*
X87317115Y-68552919D01*
X87377396Y-68559400D01*
X87377402Y-68559400D01*
X88649198Y-68559400D01*
X88649204Y-68559400D01*
X88709485Y-68552919D01*
X88806730Y-68516649D01*
X88845840Y-68502062D01*
X88845840Y-68502061D01*
X88845842Y-68502061D01*
X88860610Y-68491005D01*
X88906957Y-68479174D01*
X88914236Y-68480666D01*
X88955039Y-68491600D01*
X89098960Y-68491600D01*
X89098961Y-68491600D01*
X89237980Y-68454350D01*
X89362621Y-68382389D01*
X89464389Y-68280621D01*
X89536350Y-68155980D01*
X89573600Y-68016961D01*
X89573600Y-67873039D01*
X89536350Y-67734020D01*
X89518526Y-67703149D01*
X89512284Y-67655723D01*
X89541404Y-67617773D01*
X89572654Y-67609400D01*
X90524198Y-67609400D01*
X90524204Y-67609400D01*
X90584485Y-67602919D01*
X90685577Y-67565214D01*
X90720837Y-67552063D01*
X90720837Y-67552062D01*
X90720842Y-67552061D01*
X90811612Y-67484110D01*
X90857960Y-67472281D01*
X90865237Y-67473773D01*
X90900828Y-67483310D01*
X90962733Y-67499899D01*
X90962739Y-67499900D01*
X91106660Y-67499900D01*
X91106661Y-67499900D01*
X91245680Y-67462650D01*
X91370321Y-67390689D01*
X91472089Y-67288921D01*
X91544050Y-67164280D01*
X91581300Y-67025261D01*
X91581300Y-66881339D01*
X91544050Y-66742320D01*
X91472089Y-66617679D01*
X91472087Y-66617677D01*
X91472084Y-66617673D01*
X91370326Y-66515915D01*
X91370322Y-66515912D01*
X91370321Y-66515911D01*
X91252600Y-66447945D01*
X91245679Y-66443949D01*
X91245676Y-66443948D01*
X91106667Y-66406701D01*
X91106662Y-66406700D01*
X91106661Y-66406700D01*
X90962739Y-66406700D01*
X90962738Y-66406700D01*
X90962732Y-66406701D01*
X90865242Y-66432823D01*
X90817816Y-66426579D01*
X90811611Y-66422487D01*
X90720843Y-66354540D01*
X90720842Y-66354539D01*
X90720840Y-66354538D01*
X90720837Y-66354536D01*
X90584487Y-66303681D01*
X90584489Y-66303681D01*
X90524211Y-66297200D01*
X90524204Y-66297200D01*
X89252396Y-66297200D01*
X89252388Y-66297200D01*
X89192110Y-66303681D01*
X89186711Y-66305695D01*
X89138906Y-66303984D01*
X89106314Y-66268970D01*
X89102733Y-66240456D01*
X89106900Y-66201704D01*
X89106900Y-65804896D01*
X89100419Y-65744615D01*
X89094708Y-65729302D01*
X89049563Y-65608262D01*
X89049561Y-65608260D01*
X89049561Y-65608258D01*
X88962347Y-65491753D01*
X88845842Y-65404539D01*
X88845840Y-65404538D01*
X88845837Y-65404536D01*
X88709487Y-65353681D01*
X88709489Y-65353681D01*
X88649211Y-65347200D01*
X88649204Y-65347200D01*
X87377396Y-65347200D01*
X87377388Y-65347200D01*
X87317111Y-65353681D01*
X87180762Y-65404536D01*
X87180756Y-65404540D01*
X87064253Y-65491753D01*
X87014171Y-65558655D01*
X87010129Y-65561053D01*
X87008331Y-65565394D01*
X86990050Y-65572966D01*
X86973031Y-65583064D01*
X86964137Y-65583700D01*
X86902999Y-65583700D01*
X86863419Y-65567305D01*
X86862574Y-65568407D01*
X86859322Y-65565912D01*
X86859321Y-65565911D01*
X86768256Y-65513335D01*
X86734679Y-65493949D01*
X86734676Y-65493948D01*
X86595667Y-65456701D01*
X86595662Y-65456700D01*
X86595661Y-65456700D01*
X86451739Y-65456700D01*
X86451738Y-65456700D01*
X86451732Y-65456701D01*
X86312723Y-65493948D01*
X86312720Y-65493949D01*
X86188077Y-65565912D01*
X86188073Y-65565915D01*
X86086315Y-65667673D01*
X86086312Y-65667677D01*
X86014349Y-65792320D01*
X86014348Y-65792323D01*
X85977101Y-65931332D01*
X85977100Y-65931340D01*
X81280000Y-65931340D01*
X81280000Y-65773496D01*
X81298306Y-65729302D01*
X81323764Y-65714603D01*
X81323676Y-65714389D01*
X81325301Y-65713715D01*
X81326323Y-65713126D01*
X81327453Y-65712821D01*
X81327461Y-65712821D01*
X81471861Y-65653008D01*
X81595860Y-65557860D01*
X81691008Y-65433861D01*
X81716436Y-65372474D01*
X81723599Y-65355182D01*
X81757423Y-65321357D01*
X81781341Y-65316600D01*
X81921659Y-65316600D01*
X81965853Y-65334906D01*
X81979401Y-65355182D01*
X82011990Y-65433858D01*
X82011989Y-65433858D01*
X82107139Y-65557860D01*
X82126826Y-65572966D01*
X82231139Y-65653008D01*
X82231140Y-65653008D01*
X82231141Y-65653009D01*
X82279272Y-65672945D01*
X82375539Y-65712821D01*
X82375545Y-65712821D01*
X82375546Y-65712822D01*
X82385159Y-65714087D01*
X82491595Y-65728100D01*
X83069404Y-65728099D01*
X83185461Y-65712821D01*
X83329861Y-65653008D01*
X83453860Y-65557860D01*
X83549008Y-65433861D01*
X83608821Y-65289461D01*
X83623032Y-65181515D01*
X83864000Y-65181515D01*
X83870294Y-65240051D01*
X83919683Y-65372470D01*
X83919686Y-65372474D01*
X84004383Y-65485616D01*
X84117525Y-65570313D01*
X84117529Y-65570316D01*
X84249948Y-65619705D01*
X84308484Y-65625999D01*
X84308498Y-65626000D01*
X84478500Y-65626000D01*
X84732500Y-65626000D01*
X84902502Y-65626000D01*
X84902515Y-65625999D01*
X84961051Y-65619705D01*
X85093470Y-65570316D01*
X85093474Y-65570313D01*
X85206616Y-65485616D01*
X85291313Y-65372474D01*
X85291316Y-65372470D01*
X85340705Y-65240051D01*
X85346999Y-65181515D01*
X85347000Y-65181502D01*
X85347000Y-65024000D01*
X84732500Y-65024000D01*
X84732500Y-65626000D01*
X84478500Y-65626000D01*
X84478500Y-65024000D01*
X83864000Y-65024000D01*
X83864000Y-65181515D01*
X83623032Y-65181515D01*
X83624100Y-65173405D01*
X83624099Y-64907906D01*
X83624099Y-64672692D01*
X83642405Y-64628498D01*
X83670927Y-64599976D01*
X83763493Y-64507409D01*
X83807685Y-64489105D01*
X83851879Y-64507411D01*
X83870185Y-64551605D01*
X83869827Y-64558285D01*
X83864000Y-64612481D01*
X83864000Y-64770000D01*
X85347000Y-64770000D01*
X85347000Y-64612497D01*
X85346999Y-64612484D01*
X85340705Y-64553948D01*
X85291316Y-64421529D01*
X85291311Y-64421521D01*
X85275616Y-64400555D01*
X85263785Y-64354206D01*
X85288194Y-64313067D01*
X85325649Y-64300600D01*
X86111870Y-64300600D01*
X86156064Y-64318906D01*
X86165997Y-64331850D01*
X86172611Y-64343306D01*
X86274373Y-64445069D01*
X86274377Y-64445072D01*
X86274379Y-64445074D01*
X86382351Y-64507411D01*
X86399020Y-64517035D01*
X86399023Y-64517036D01*
X86468918Y-64535764D01*
X86538039Y-64554285D01*
X86538040Y-64554285D01*
X86681960Y-64554285D01*
X86681961Y-64554285D01*
X86820980Y-64517035D01*
X86945621Y-64445074D01*
X87035339Y-64355355D01*
X87052220Y-64348363D01*
X87067428Y-64338234D01*
X87073336Y-64339616D01*
X87079530Y-64337051D01*
X87114331Y-64347636D01*
X87115992Y-64348749D01*
X87160639Y-64383008D01*
X87177548Y-64390012D01*
X87182700Y-64393465D01*
X87192780Y-64408599D01*
X87205641Y-64421459D01*
X87207470Y-64430654D01*
X87209217Y-64433277D01*
X87208602Y-64436343D01*
X87210400Y-64445380D01*
X87210400Y-64460959D01*
X87210401Y-64460967D01*
X87247648Y-64599976D01*
X87247649Y-64599979D01*
X87319612Y-64724622D01*
X87319615Y-64724626D01*
X87421373Y-64826384D01*
X87421377Y-64826387D01*
X87421379Y-64826389D01*
X87540824Y-64895350D01*
X87546020Y-64898350D01*
X87546023Y-64898351D01*
X87607629Y-64914858D01*
X87685039Y-64935600D01*
X87685040Y-64935600D01*
X87828960Y-64935600D01*
X87828961Y-64935600D01*
X87967980Y-64898350D01*
X88092621Y-64826389D01*
X88194389Y-64724621D01*
X88266350Y-64599980D01*
X88303600Y-64460961D01*
X88303600Y-64379884D01*
X88321906Y-64335690D01*
X88328052Y-64330299D01*
X88383360Y-64287860D01*
X88478508Y-64163861D01*
X88478508Y-64163860D01*
X88481001Y-64160612D01*
X88482739Y-64161945D01*
X88515073Y-64137131D01*
X88531255Y-64135000D01*
X88713745Y-64135000D01*
X88757939Y-64153306D01*
G37*
%TD.AperFunction*%
%TD*%
%TA.AperFunction,Conductor*%
%TO.N,Net-(D1-A)*%
G36*
X67926694Y-58438306D02*
G01*
X67945000Y-58482500D01*
X67945000Y-58674000D01*
X69147500Y-58674000D01*
X69191694Y-58692306D01*
X69210000Y-58736500D01*
X69210000Y-58770698D01*
X69457707Y-59018405D01*
X69457711Y-59018415D01*
X69457723Y-59018420D01*
X69467194Y-59041308D01*
X69476013Y-59062599D01*
X69476008Y-59062609D01*
X69476013Y-59062621D01*
X69466464Y-59085650D01*
X69457707Y-59106793D01*
X69457692Y-59106809D01*
X69457000Y-59107500D01*
X69457707Y-59108207D01*
X69476013Y-59152401D01*
X69457707Y-59196595D01*
X69210000Y-59444302D01*
X69210000Y-59536633D01*
X69247601Y-59627410D01*
X69247605Y-59627415D01*
X69317084Y-59696894D01*
X69317089Y-59696898D01*
X69407866Y-59734499D01*
X69407869Y-59734500D01*
X69506131Y-59734500D01*
X69506133Y-59734499D01*
X69596910Y-59696898D01*
X69596915Y-59696894D01*
X69662806Y-59631004D01*
X69707000Y-59612698D01*
X69751194Y-59631004D01*
X69817084Y-59696894D01*
X69817089Y-59696898D01*
X69907866Y-59734499D01*
X69907869Y-59734500D01*
X70006131Y-59734500D01*
X70006133Y-59734499D01*
X70096910Y-59696898D01*
X70096915Y-59696894D01*
X70124306Y-59669504D01*
X70168500Y-59651198D01*
X70212694Y-59669504D01*
X70231000Y-59713698D01*
X70231000Y-60198000D01*
X70295500Y-60198000D01*
X70339694Y-60216306D01*
X70358000Y-60260500D01*
X70358000Y-61961871D01*
X70339694Y-62006065D01*
X70317417Y-62020402D01*
X70250079Y-62045616D01*
X70198019Y-62075674D01*
X70186650Y-62082520D01*
X70186646Y-62082522D01*
X70097732Y-62161406D01*
X70097729Y-62161409D01*
X70039241Y-62264896D01*
X70039241Y-62264897D01*
X70018668Y-62321420D01*
X70016466Y-62327645D01*
X70016465Y-62327651D01*
X69999087Y-62431788D01*
X69973759Y-62472365D01*
X69937441Y-62484000D01*
X66102500Y-62484000D01*
X66058306Y-62465694D01*
X66040000Y-62421500D01*
X66040000Y-61142300D01*
X66374000Y-61142300D01*
X66374000Y-61916855D01*
X66376687Y-61940021D01*
X66376688Y-61940022D01*
X66418516Y-62034752D01*
X66418517Y-62034754D01*
X66491744Y-62107981D01*
X66586483Y-62149812D01*
X66609644Y-62152499D01*
X67392355Y-62152499D01*
X67415521Y-62149812D01*
X67415522Y-62149811D01*
X67510252Y-62107983D01*
X67510254Y-62107983D01*
X67583481Y-62034755D01*
X67625312Y-61940016D01*
X67627999Y-61916855D01*
X67627999Y-61673007D01*
X68602999Y-61673007D01*
X68610369Y-61710053D01*
X68610369Y-61710054D01*
X68638438Y-61752061D01*
X68680446Y-61780130D01*
X68717493Y-61787500D01*
X69266500Y-61787500D01*
X69393500Y-61787500D01*
X69942507Y-61787500D01*
X69979553Y-61780130D01*
X69979554Y-61780130D01*
X70021561Y-61752061D01*
X70049630Y-61710054D01*
X70049630Y-61710053D01*
X70057000Y-61673007D01*
X70057000Y-61124000D01*
X69393500Y-61124000D01*
X69393500Y-61787500D01*
X69266500Y-61787500D01*
X69266500Y-61124000D01*
X68603000Y-61124000D01*
X68603000Y-61673007D01*
X68602999Y-61673007D01*
X67627999Y-61673007D01*
X67627999Y-61142301D01*
X67001000Y-60515302D01*
X66374000Y-61142300D01*
X66040000Y-61142300D01*
X66040000Y-60962697D01*
X66374000Y-60962697D01*
X66911198Y-60425500D01*
X66911198Y-60425499D01*
X67090802Y-60425499D01*
X67090802Y-60425500D01*
X67627998Y-60962697D01*
X67627999Y-60962697D01*
X67627999Y-60447992D01*
X68603000Y-60447992D01*
X68603000Y-60997000D01*
X69266500Y-60997000D01*
X69393500Y-60997000D01*
X70057000Y-60997000D01*
X70057000Y-60447992D01*
X70049630Y-60410946D01*
X70049630Y-60410945D01*
X70021561Y-60368938D01*
X69979553Y-60340869D01*
X69942507Y-60333500D01*
X69393500Y-60333500D01*
X69393500Y-60997000D01*
X69266500Y-60997000D01*
X69266500Y-60333500D01*
X68717493Y-60333500D01*
X68680446Y-60340869D01*
X68680445Y-60340869D01*
X68638438Y-60368938D01*
X68610369Y-60410945D01*
X68610369Y-60410946D01*
X68603000Y-60447992D01*
X67627999Y-60447992D01*
X67627999Y-59888301D01*
X67627998Y-59888301D01*
X67090802Y-60425499D01*
X66911198Y-60425499D01*
X66374000Y-59888301D01*
X66374000Y-60962697D01*
X66040000Y-60962697D01*
X66040000Y-58934144D01*
X66374000Y-58934144D01*
X66374000Y-59708698D01*
X67000999Y-60335697D01*
X67627999Y-59708698D01*
X67627999Y-59264698D01*
X69210000Y-59264698D01*
X69367198Y-59107499D01*
X69210000Y-58950301D01*
X69210000Y-59264698D01*
X67627999Y-59264698D01*
X67627999Y-58934144D01*
X67625312Y-58910978D01*
X67625311Y-58910977D01*
X67583483Y-58816247D01*
X67583483Y-58816246D01*
X67510255Y-58743018D01*
X67415516Y-58701187D01*
X67392355Y-58698500D01*
X66609644Y-58698500D01*
X66586478Y-58701187D01*
X66586477Y-58701188D01*
X66491747Y-58743016D01*
X66491746Y-58743017D01*
X66418518Y-58816244D01*
X66376687Y-58910983D01*
X66374000Y-58934144D01*
X66040000Y-58934144D01*
X66040000Y-58482500D01*
X66058306Y-58438306D01*
X66102500Y-58420000D01*
X67882500Y-58420000D01*
X67926694Y-58438306D01*
G37*
%TD.AperFunction*%
%TD*%
M02*
