%TF.GenerationSoftware,KiCad,Pcbnew,9.0.2-9.0.2-0~ubuntu24.04.1*%
%TF.CreationDate,2025-07-08T13:32:57-04:00*%
%TF.ProjectId,sipm-hv-splitter,7369706d-2d68-4762-9d73-706c69747465,rev?*%
%TF.SameCoordinates,Original*%
%TF.FileFunction,Copper,L3,Inr*%
%TF.FilePolarity,Positive*%
%FSLAX46Y46*%
G04 Gerber Fmt 4.6, Leading zero omitted, Abs format (unit mm)*
G04 Created by KiCad (PCBNEW 9.0.2-9.0.2-0~ubuntu24.04.1) date 2025-07-08 13:32:57*
%MOMM*%
%LPD*%
G01*
G04 APERTURE LIST*
%TA.AperFunction,HeatsinkPad*%
%ADD10C,0.500000*%
%TD*%
%TA.AperFunction,HeatsinkPad*%
%ADD11C,0.254000*%
%TD*%
%TA.AperFunction,ComponentPad*%
%ADD12R,0.850000X0.850000*%
%TD*%
%TA.AperFunction,ComponentPad*%
%ADD13C,0.850000*%
%TD*%
%TA.AperFunction,ViaPad*%
%ADD14C,0.635000*%
%TD*%
%TA.AperFunction,ViaPad*%
%ADD15C,0.381000*%
%TD*%
%TA.AperFunction,Conductor*%
%ADD16C,0.381000*%
%TD*%
G04 APERTURE END LIST*
D10*
%TO.N,GND*%
%TO.C,U16*%
X77849500Y-80715000D03*
X77849500Y-81815000D03*
%TD*%
D11*
%TO.N,GND*%
%TO.C,U3*%
X70627000Y-58027500D03*
X70627000Y-57187500D03*
X70207000Y-57607500D03*
X69787000Y-58027500D03*
X69787000Y-57187500D03*
%TD*%
D12*
%TO.N,/MISO*%
%TO.C,J3*%
X79931000Y-53213000D03*
D13*
%TO.N,+3.3V*%
X80931000Y-53213000D03*
%TO.N,/SCK*%
X81931000Y-53213000D03*
%TO.N,/MOSI*%
X82931000Y-53213000D03*
%TO.N,/~{RESET}*%
X83931000Y-53213000D03*
%TO.N,GND*%
X84931000Y-53213000D03*
%TD*%
D10*
%TO.N,GND*%
%TO.C,U14*%
X67311500Y-80715000D03*
X67311500Y-81815000D03*
%TD*%
D14*
%TO.N,GND*%
X103629000Y-81550500D03*
X87095500Y-59258200D03*
X98171000Y-53931500D03*
D15*
X83185000Y-81788000D03*
X63119000Y-81026000D03*
D14*
X98171000Y-69088000D03*
X99060000Y-63132500D03*
X98171000Y-76721500D03*
X64897000Y-56642000D03*
D15*
X89027000Y-67945000D03*
D14*
X71500000Y-77600000D03*
X61036200Y-73407000D03*
X63144400Y-60526000D03*
D15*
X80645000Y-75692000D03*
D14*
X103629000Y-69980000D03*
D15*
X78629000Y-58436000D03*
X80899000Y-68453000D03*
D14*
X103629000Y-77613500D03*
D15*
X83312000Y-78613000D03*
X80637000Y-76192000D03*
X90272700Y-75716300D03*
D14*
X75438000Y-60833000D03*
X71601500Y-80925500D03*
X99060000Y-59413000D03*
X103629000Y-66167000D03*
X61010800Y-60960000D03*
X103629000Y-58654000D03*
D15*
X70993000Y-59944000D03*
D14*
X99060000Y-78372500D03*
X113087800Y-70185400D03*
X60985400Y-71145400D03*
X74865000Y-58482000D03*
X113087800Y-65105400D03*
X77824500Y-56795500D03*
X91440000Y-52959000D03*
X98171000Y-72895000D03*
X99060000Y-66926000D03*
X61036200Y-68605400D03*
X86614000Y-56642000D03*
X113087800Y-59898400D03*
D15*
X85140800Y-58293000D03*
D14*
X72390000Y-58420000D03*
X99060000Y-74546000D03*
X76327000Y-76454000D03*
X61976000Y-54102000D03*
X98171000Y-57762000D03*
X98171000Y-61481500D03*
X61036200Y-58420000D03*
X113087800Y-67645400D03*
X103629000Y-62373500D03*
X98171000Y-65275000D03*
X103629000Y-73787000D03*
X61010800Y-76174600D03*
X91567000Y-60325000D03*
X99060000Y-55582500D03*
D15*
X71374000Y-60706000D03*
X84383187Y-68074564D03*
X84074000Y-72263000D03*
X68565000Y-81265000D03*
D14*
X113087800Y-62565400D03*
D15*
X79200000Y-81300000D03*
X89139700Y-79516300D03*
D14*
X63881000Y-73406000D03*
D15*
X82566000Y-76692000D03*
D14*
X69469000Y-54864000D03*
X73686500Y-80925500D03*
X77851000Y-64770000D03*
X99060000Y-82309500D03*
X60985400Y-63474600D03*
D15*
X73533000Y-78994000D03*
D14*
X76073000Y-68707000D03*
D15*
X89154000Y-73787000D03*
D14*
X113087800Y-75138400D03*
X103629000Y-54823500D03*
X98171000Y-80658500D03*
X113087800Y-57358400D03*
X113087800Y-72598400D03*
X61036200Y-66040000D03*
X99060000Y-70739000D03*
X74422000Y-53467000D03*
%TO.N,+12V*%
X57277000Y-59664600D03*
D15*
X79218000Y-80615000D03*
D14*
X75311000Y-55499000D03*
X57251600Y-62204600D03*
D15*
X68580000Y-81915000D03*
D14*
X63989000Y-59544000D03*
X69850000Y-80899000D03*
X57251600Y-69824600D03*
X57277000Y-64795400D03*
X57124600Y-77444600D03*
X57302400Y-72390000D03*
D15*
X80645000Y-81026000D03*
X72771000Y-57150000D03*
D14*
X57277000Y-67310000D03*
D15*
X68580000Y-80645000D03*
D14*
X57175400Y-75185000D03*
D15*
X79248000Y-81915000D03*
D14*
%TO.N,+3.3V*%
X91313000Y-56769000D03*
X76327000Y-74803000D03*
D15*
X82677000Y-61976000D03*
X78486000Y-59055000D03*
D14*
X79248000Y-74041000D03*
D15*
X88519000Y-69342000D03*
D14*
X66294000Y-76962000D03*
D15*
X86892300Y-81431300D03*
D14*
X65000500Y-76096500D03*
D15*
X78503485Y-57908628D03*
X87757000Y-64389000D03*
D14*
X73636500Y-75207500D03*
X91186000Y-61722000D03*
X75311000Y-80899000D03*
D15*
X76454000Y-80645000D03*
D14*
X77700000Y-58500000D03*
%TO.N,/VBIAS*%
X103629000Y-75962500D03*
X103629000Y-64516000D03*
X103629000Y-60722500D03*
X92075000Y-67310000D03*
X92075000Y-64770000D03*
X103629000Y-72136000D03*
X92075000Y-72390000D03*
X103629000Y-79899500D03*
X103629000Y-68329000D03*
X103629000Y-53172500D03*
X103629000Y-57003000D03*
X92075000Y-68580000D03*
X92075000Y-71120000D03*
%TO.N,-24V*%
X53213000Y-69824600D03*
X96124347Y-58004837D03*
X53000000Y-77500000D03*
X96124347Y-80901337D03*
X96124347Y-54174337D03*
X96124347Y-76964337D03*
X53263800Y-74930000D03*
X96124347Y-65517837D03*
X96124347Y-73137837D03*
X53238400Y-59690000D03*
X53213000Y-72339200D03*
X53187600Y-67335400D03*
X53213000Y-62204600D03*
X53213000Y-64770000D03*
X96124347Y-61724337D03*
X96124347Y-69330837D03*
D15*
%TO.N,Net-(C32-Pad2)*%
X94234000Y-53042500D03*
D14*
%TO.N,/TIA_0/SIPM_K*%
X101674491Y-55614959D03*
%TO.N,/TIA_1/SIPM_K*%
X101674491Y-59445459D03*
D15*
%TO.N,Net-(C33-Pad2)*%
X94234000Y-56873000D03*
%TO.N,Net-(C34-Pad2)*%
X94234000Y-60592500D03*
D14*
%TO.N,/TIA_2/SIPM_K*%
X101674491Y-63164959D03*
%TO.N,/TIA_3/SIPM_K*%
X101674491Y-66958459D03*
D15*
%TO.N,Net-(C35-Pad2)*%
X94234000Y-64386000D03*
%TO.N,Net-(C36-Pad2)*%
X94234000Y-68199000D03*
D14*
%TO.N,/TIA_4/SIPM_K*%
X101674491Y-70771459D03*
%TO.N,/TIA_5/SIPM_K*%
X101674491Y-74578459D03*
D15*
%TO.N,Net-(C37-Pad2)*%
X94234000Y-72006000D03*
D14*
%TO.N,/TIA_6/SIPM_K*%
X101674491Y-78404959D03*
D15*
%TO.N,Net-(C38-Pad2)*%
X94234000Y-75832500D03*
%TO.N,Net-(C39-Pad2)*%
X94234000Y-79769500D03*
D14*
%TO.N,/TIA_7/SIPM_K*%
X101674491Y-82341959D03*
D15*
%TO.N,/BOOST/SHDN*%
X91059000Y-63627000D03*
X77978000Y-62992000D03*
X78359000Y-68707000D03*
X91059000Y-72771000D03*
X91034700Y-66953300D03*
%TO.N,/DET_4*%
X96012000Y-66799000D03*
%TO.N,/THERM*%
X87757000Y-57785000D03*
X87376000Y-52324000D03*
X87355500Y-54764500D03*
%TO.N,/DET_1*%
X96012000Y-78245500D03*
%TO.N,/DET_2*%
X96012000Y-74419000D03*
%TO.N,/DET_0*%
X96012000Y-82182500D03*
%TO.N,/DET_5*%
X96012000Y-63005500D03*
%TO.N,/DET_6*%
X96012000Y-59286000D03*
%TO.N,/DET_7*%
X96012000Y-55455500D03*
%TO.N,/DET_3*%
X96012000Y-70612000D03*
D14*
%TO.N,/SIG_3*%
X92076100Y-70003500D03*
X53187600Y-68656200D03*
D15*
%TO.N,+3.3VA*%
X99695000Y-56365000D03*
X99695000Y-52534500D03*
X99695000Y-71498000D03*
X99695000Y-75324500D03*
X99695000Y-60084500D03*
X99695000Y-67691000D03*
X64743500Y-81052500D03*
X99695000Y-63878000D03*
X65943000Y-80615000D03*
X99695000Y-79261500D03*
D14*
%TO.N,/SIG_1*%
X53238400Y-73482200D03*
X92481400Y-77647800D03*
%TO.N,/SIG_2*%
X53213000Y-71145400D03*
X92557600Y-73761600D03*
%TO.N,/SIG_6*%
X53238400Y-60960000D03*
X92202000Y-58699400D03*
D15*
%TO.N,/COMM{slash}TX*%
X55118000Y-56007000D03*
X59944000Y-52578000D03*
D14*
%TO.N,/SIG_7*%
X92227400Y-54838600D03*
X53263800Y-58470800D03*
%TO.N,/SIG_4*%
X53187600Y-66014600D03*
X92049600Y-66014600D03*
%TO.N,/SIG_5*%
X92125800Y-62357000D03*
X53213000Y-63423800D03*
%TO.N,/SIG_0*%
X92506800Y-81559400D03*
X53263800Y-76225400D03*
D15*
%TO.N,Net-(Q1-D)*%
X70739000Y-73533000D03*
X72644000Y-77724000D03*
%TO.N,/VR_RESET*%
X81407000Y-74676000D03*
X81809184Y-61548437D03*
%TO.N,Net-(Q2-G)*%
X74930000Y-77089000D03*
X74930000Y-73279000D03*
X86614000Y-77343000D03*
X86523700Y-66003300D03*
%TO.N,/VR_SHDN*%
X80772000Y-74041000D03*
X78486000Y-59690000D03*
X89002700Y-71779300D03*
X90297000Y-69977000D03*
%TO.N,/ADC_IMON*%
X85344000Y-57785000D03*
X85344000Y-78105000D03*
%TO.N,/ADC_VMON*%
X85471000Y-57160240D03*
X86610000Y-64007685D03*
%TO.N,/MOSI*%
X84066000Y-61956856D03*
X84963000Y-75561000D03*
%TO.N,/~{SYNC}*%
X80926429Y-61611461D03*
X82432422Y-75069000D03*
%TO.N,/SCK*%
X84277200Y-60883800D03*
X82351030Y-75950252D03*
%TO.N,/BOOST_ENA*%
X72745600Y-60731400D03*
X70485000Y-55118000D03*
%TO.N,/~{RESET}*%
X83566000Y-54610000D03*
%TO.N,/MISO*%
X85348000Y-76342014D03*
X85348000Y-61341000D03*
%TO.N,/PGOOD*%
X72898000Y-59563000D03*
X72898000Y-56134000D03*
%TO.N,Net-(U1-PD2)*%
X79633500Y-55748500D03*
X80391000Y-54102000D03*
%TO.N,Net-(U1-AVCC)*%
X85090000Y-59436000D03*
%TD*%
D16*
%TO.N,/SIG_3*%
X59232800Y-68681600D02*
X53213000Y-68681600D01*
X91196349Y-70740000D02*
X83008200Y-70740000D01*
X81889600Y-69621400D02*
X60172600Y-69621400D01*
X60172600Y-69621400D02*
X59232800Y-68681600D01*
X91932849Y-70003500D02*
X91196349Y-70740000D01*
X92076100Y-70003500D02*
X91932849Y-70003500D01*
X83008200Y-70740000D02*
X81889600Y-69621400D01*
X53213000Y-68681600D02*
X53187600Y-68656200D01*
%TO.N,/SIG_1*%
X91413600Y-76580000D02*
X86297955Y-76580000D01*
X58877200Y-73482200D02*
X53238400Y-73482200D01*
X82485045Y-77852000D02*
X73851045Y-77852000D01*
X85772941Y-77105014D02*
X83232031Y-77105014D01*
X83232031Y-77105014D02*
X82485045Y-77852000D01*
X59691000Y-74296000D02*
X58877200Y-73482200D01*
X73851045Y-77852000D02*
X70295045Y-74296000D01*
X86297955Y-76580000D02*
X85772941Y-77105014D01*
X70295045Y-74296000D02*
X59691000Y-74296000D01*
X92481400Y-77647800D02*
X91413600Y-76580000D01*
%TO.N,/SIG_2*%
X59740800Y-72161400D02*
X80603866Y-72161400D01*
X80603866Y-72161400D02*
X82992467Y-74550000D01*
X53213000Y-71145400D02*
X58724800Y-71145400D01*
X58724800Y-71145400D02*
X59740800Y-72161400D01*
X82992467Y-74550000D02*
X91769200Y-74550000D01*
X91769200Y-74550000D02*
X92557600Y-73761600D01*
%TO.N,/SIG_6*%
X77470000Y-61899800D02*
X79349600Y-60020200D01*
X79349600Y-60020200D02*
X84595155Y-60020200D01*
X59207400Y-60934600D02*
X60172600Y-61899800D01*
X60172600Y-61899800D02*
X77470000Y-61899800D01*
X85852000Y-60147200D02*
X85800200Y-60199000D01*
X90232149Y-60147200D02*
X85852000Y-60147200D01*
X53263800Y-60934600D02*
X59207400Y-60934600D01*
X53238400Y-60960000D02*
X53263800Y-60934600D01*
X84773955Y-60199000D02*
X84595155Y-60020200D01*
X85800200Y-60199000D02*
X84773955Y-60199000D01*
X91679949Y-58699400D02*
X90232149Y-60147200D01*
X92202000Y-58699400D02*
X91679949Y-58699400D01*
%TO.N,/SIG_7*%
X65265651Y-55752000D02*
X56452045Y-55752000D01*
X91538500Y-55527500D02*
X80491545Y-55527500D01*
X56452045Y-55752000D02*
X53733245Y-58470800D01*
X70751245Y-55930800D02*
X65444451Y-55930800D01*
X65444451Y-55930800D02*
X65265651Y-55752000D01*
X92227400Y-54838600D02*
X91538500Y-55527500D01*
X53733245Y-58470800D02*
X53263800Y-58470800D01*
X79573045Y-54609000D02*
X72073045Y-54609000D01*
X80491545Y-55527500D02*
X79573045Y-54609000D01*
X72073045Y-54609000D02*
X70751245Y-55930800D01*
%TO.N,/SIG_4*%
X90501000Y-66014600D02*
X89585600Y-66930000D01*
X89585600Y-66930000D02*
X60072000Y-66930000D01*
X59156600Y-66014600D02*
X53187600Y-66014600D01*
X60072000Y-66930000D02*
X59156600Y-66014600D01*
X92049600Y-66014600D02*
X90501000Y-66014600D01*
%TO.N,/SIG_5*%
X61838651Y-63880000D02*
X61354051Y-64364600D01*
X61354051Y-64364600D02*
X60148200Y-64364600D01*
X60148200Y-64364600D02*
X59232800Y-63449200D01*
X85622400Y-62739000D02*
X84481400Y-63880000D01*
X91743800Y-62739000D02*
X85622400Y-62739000D01*
X53238400Y-63449200D02*
X53213000Y-63423800D01*
X92125800Y-62357000D02*
X91743800Y-62739000D01*
X59232800Y-63449200D02*
X53238400Y-63449200D01*
X84481400Y-63880000D02*
X61838651Y-63880000D01*
%TO.N,/SIG_0*%
X56890400Y-79852000D02*
X53263800Y-76225400D01*
X81317645Y-80619600D02*
X80550045Y-79852000D01*
X91567000Y-80619600D02*
X81317645Y-80619600D01*
X92506800Y-81559400D02*
X91567000Y-80619600D01*
X80550045Y-79852000D02*
X56890400Y-79852000D01*
%TD*%
M02*
