%TF.GenerationSoftware,KiCad,Pcbnew,9.0.2-9.0.2-0~ubuntu24.04.1*%
%TF.CreationDate,2025-07-03T09:08:44-04:00*%
%TF.ProjectId,sipm-hv-splitter,7369706d-2d68-4762-9d73-706c69747465,rev?*%
%TF.SameCoordinates,Original*%
%TF.FileFunction,Legend,Top*%
%TF.FilePolarity,Positive*%
%FSLAX46Y46*%
G04 Gerber Fmt 4.6, Leading zero omitted, Abs format (unit mm)*
G04 Created by KiCad (PCBNEW 9.0.2-9.0.2-0~ubuntu24.04.1) date 2025-07-03 09:08:44*
%MOMM*%
%LPD*%
G01*
G04 APERTURE LIST*
%ADD10C,0.100000*%
%ADD11C,0.203200*%
%ADD12C,0.152400*%
%ADD13C,0.150000*%
%ADD14C,0.120000*%
%ADD15C,0.127000*%
%ADD16C,0.200000*%
G04 APERTURE END LIST*
D10*
X112608646Y-78772419D02*
X113227693Y-78772419D01*
X113227693Y-78772419D02*
X112894360Y-79153371D01*
X112894360Y-79153371D02*
X113037217Y-79153371D01*
X113037217Y-79153371D02*
X113132455Y-79200990D01*
X113132455Y-79200990D02*
X113180074Y-79248609D01*
X113180074Y-79248609D02*
X113227693Y-79343847D01*
X113227693Y-79343847D02*
X113227693Y-79581942D01*
X113227693Y-79581942D02*
X113180074Y-79677180D01*
X113180074Y-79677180D02*
X113132455Y-79724800D01*
X113132455Y-79724800D02*
X113037217Y-79772419D01*
X113037217Y-79772419D02*
X112751503Y-79772419D01*
X112751503Y-79772419D02*
X112656265Y-79724800D01*
X112656265Y-79724800D02*
X112608646Y-79677180D01*
X114132455Y-78772419D02*
X113656265Y-78772419D01*
X113656265Y-78772419D02*
X113608646Y-79248609D01*
X113608646Y-79248609D02*
X113656265Y-79200990D01*
X113656265Y-79200990D02*
X113751503Y-79153371D01*
X113751503Y-79153371D02*
X113989598Y-79153371D01*
X113989598Y-79153371D02*
X114084836Y-79200990D01*
X114084836Y-79200990D02*
X114132455Y-79248609D01*
X114132455Y-79248609D02*
X114180074Y-79343847D01*
X114180074Y-79343847D02*
X114180074Y-79581942D01*
X114180074Y-79581942D02*
X114132455Y-79677180D01*
X114132455Y-79677180D02*
X114084836Y-79724800D01*
X114084836Y-79724800D02*
X113989598Y-79772419D01*
X113989598Y-79772419D02*
X113751503Y-79772419D01*
X113751503Y-79772419D02*
X113656265Y-79724800D01*
X113656265Y-79724800D02*
X113608646Y-79677180D01*
D11*
X101108369Y-79120363D02*
X101108369Y-78636554D01*
X102124369Y-78938935D02*
X100818083Y-78938935D01*
X100818083Y-78938935D02*
X100672940Y-78878458D01*
X100672940Y-78878458D02*
X100600369Y-78757506D01*
X100600369Y-78757506D02*
X100600369Y-78636554D01*
X102124369Y-78213221D02*
X100600369Y-78213221D01*
X100600369Y-78213221D02*
X102124369Y-77487506D01*
X102124369Y-77487506D02*
X100600369Y-77487506D01*
X102124369Y-76882745D02*
X100600369Y-76882745D01*
X102124369Y-75552268D02*
X101398655Y-75975602D01*
X102124369Y-76277983D02*
X100600369Y-76277983D01*
X100600369Y-76277983D02*
X100600369Y-75794173D01*
X100600369Y-75794173D02*
X100672940Y-75673221D01*
X100672940Y-75673221D02*
X100745512Y-75612744D01*
X100745512Y-75612744D02*
X100890655Y-75552268D01*
X100890655Y-75552268D02*
X101108369Y-75552268D01*
X101108369Y-75552268D02*
X101253512Y-75612744D01*
X101253512Y-75612744D02*
X101326083Y-75673221D01*
X101326083Y-75673221D02*
X101398655Y-75794173D01*
X101398655Y-75794173D02*
X101398655Y-76277983D01*
X102051798Y-75068459D02*
X102124369Y-74887030D01*
X102124369Y-74887030D02*
X102124369Y-74584649D01*
X102124369Y-74584649D02*
X102051798Y-74463697D01*
X102051798Y-74463697D02*
X101979226Y-74403221D01*
X101979226Y-74403221D02*
X101834083Y-74342744D01*
X101834083Y-74342744D02*
X101688940Y-74342744D01*
X101688940Y-74342744D02*
X101543798Y-74403221D01*
X101543798Y-74403221D02*
X101471226Y-74463697D01*
X101471226Y-74463697D02*
X101398655Y-74584649D01*
X101398655Y-74584649D02*
X101326083Y-74826554D01*
X101326083Y-74826554D02*
X101253512Y-74947506D01*
X101253512Y-74947506D02*
X101180940Y-75007983D01*
X101180940Y-75007983D02*
X101035798Y-75068459D01*
X101035798Y-75068459D02*
X100890655Y-75068459D01*
X100890655Y-75068459D02*
X100745512Y-75007983D01*
X100745512Y-75007983D02*
X100672940Y-74947506D01*
X100672940Y-74947506D02*
X100600369Y-74826554D01*
X100600369Y-74826554D02*
X100600369Y-74524173D01*
X100600369Y-74524173D02*
X100672940Y-74342744D01*
X100600369Y-72830840D02*
X101834083Y-72830840D01*
X101834083Y-72830840D02*
X101979226Y-72770363D01*
X101979226Y-72770363D02*
X102051798Y-72709887D01*
X102051798Y-72709887D02*
X102124369Y-72588935D01*
X102124369Y-72588935D02*
X102124369Y-72347030D01*
X102124369Y-72347030D02*
X102051798Y-72226078D01*
X102051798Y-72226078D02*
X101979226Y-72165601D01*
X101979226Y-72165601D02*
X101834083Y-72105125D01*
X101834083Y-72105125D02*
X100600369Y-72105125D01*
X102124369Y-71500364D02*
X100600369Y-71500364D01*
X101326083Y-71500364D02*
X101326083Y-70774649D01*
X102124369Y-70774649D02*
X100600369Y-70774649D01*
X102124369Y-70169888D02*
X100600369Y-70169888D01*
X100600369Y-70169888D02*
X100600369Y-69867507D01*
X100600369Y-69867507D02*
X100672940Y-69686078D01*
X100672940Y-69686078D02*
X100818083Y-69565126D01*
X100818083Y-69565126D02*
X100963226Y-69504649D01*
X100963226Y-69504649D02*
X101253512Y-69444173D01*
X101253512Y-69444173D02*
X101471226Y-69444173D01*
X101471226Y-69444173D02*
X101761512Y-69504649D01*
X101761512Y-69504649D02*
X101906655Y-69565126D01*
X101906655Y-69565126D02*
X102051798Y-69686078D01*
X102051798Y-69686078D02*
X102124369Y-69867507D01*
X102124369Y-69867507D02*
X102124369Y-70169888D01*
X102051798Y-67992745D02*
X102124369Y-67811316D01*
X102124369Y-67811316D02*
X102124369Y-67508935D01*
X102124369Y-67508935D02*
X102051798Y-67387983D01*
X102051798Y-67387983D02*
X101979226Y-67327507D01*
X101979226Y-67327507D02*
X101834083Y-67267030D01*
X101834083Y-67267030D02*
X101688940Y-67267030D01*
X101688940Y-67267030D02*
X101543798Y-67327507D01*
X101543798Y-67327507D02*
X101471226Y-67387983D01*
X101471226Y-67387983D02*
X101398655Y-67508935D01*
X101398655Y-67508935D02*
X101326083Y-67750840D01*
X101326083Y-67750840D02*
X101253512Y-67871792D01*
X101253512Y-67871792D02*
X101180940Y-67932269D01*
X101180940Y-67932269D02*
X101035798Y-67992745D01*
X101035798Y-67992745D02*
X100890655Y-67992745D01*
X100890655Y-67992745D02*
X100745512Y-67932269D01*
X100745512Y-67932269D02*
X100672940Y-67871792D01*
X100672940Y-67871792D02*
X100600369Y-67750840D01*
X100600369Y-67750840D02*
X100600369Y-67448459D01*
X100600369Y-67448459D02*
X100672940Y-67267030D01*
X102124369Y-66722745D02*
X101108369Y-66722745D01*
X100600369Y-66722745D02*
X100672940Y-66783221D01*
X100672940Y-66783221D02*
X100745512Y-66722745D01*
X100745512Y-66722745D02*
X100672940Y-66662268D01*
X100672940Y-66662268D02*
X100600369Y-66722745D01*
X100600369Y-66722745D02*
X100745512Y-66722745D01*
X102124369Y-66117983D02*
X100600369Y-66117983D01*
X100600369Y-66117983D02*
X100600369Y-65634173D01*
X100600369Y-65634173D02*
X100672940Y-65513221D01*
X100672940Y-65513221D02*
X100745512Y-65452744D01*
X100745512Y-65452744D02*
X100890655Y-65392268D01*
X100890655Y-65392268D02*
X101108369Y-65392268D01*
X101108369Y-65392268D02*
X101253512Y-65452744D01*
X101253512Y-65452744D02*
X101326083Y-65513221D01*
X101326083Y-65513221D02*
X101398655Y-65634173D01*
X101398655Y-65634173D02*
X101398655Y-66117983D01*
X102124369Y-64847983D02*
X100600369Y-64847983D01*
X100600369Y-64847983D02*
X101688940Y-64424649D01*
X101688940Y-64424649D02*
X100600369Y-64001316D01*
X100600369Y-64001316D02*
X102124369Y-64001316D01*
X102051798Y-62489411D02*
X102124369Y-62307982D01*
X102124369Y-62307982D02*
X102124369Y-62005601D01*
X102124369Y-62005601D02*
X102051798Y-61884649D01*
X102051798Y-61884649D02*
X101979226Y-61824173D01*
X101979226Y-61824173D02*
X101834083Y-61763696D01*
X101834083Y-61763696D02*
X101688940Y-61763696D01*
X101688940Y-61763696D02*
X101543798Y-61824173D01*
X101543798Y-61824173D02*
X101471226Y-61884649D01*
X101471226Y-61884649D02*
X101398655Y-62005601D01*
X101398655Y-62005601D02*
X101326083Y-62247506D01*
X101326083Y-62247506D02*
X101253512Y-62368458D01*
X101253512Y-62368458D02*
X101180940Y-62428935D01*
X101180940Y-62428935D02*
X101035798Y-62489411D01*
X101035798Y-62489411D02*
X100890655Y-62489411D01*
X100890655Y-62489411D02*
X100745512Y-62428935D01*
X100745512Y-62428935D02*
X100672940Y-62368458D01*
X100672940Y-62368458D02*
X100600369Y-62247506D01*
X100600369Y-62247506D02*
X100600369Y-61945125D01*
X100600369Y-61945125D02*
X100672940Y-61763696D01*
X101108369Y-61219411D02*
X102632369Y-61219411D01*
X101180940Y-61219411D02*
X101108369Y-61098458D01*
X101108369Y-61098458D02*
X101108369Y-60856553D01*
X101108369Y-60856553D02*
X101180940Y-60735601D01*
X101180940Y-60735601D02*
X101253512Y-60675125D01*
X101253512Y-60675125D02*
X101398655Y-60614649D01*
X101398655Y-60614649D02*
X101834083Y-60614649D01*
X101834083Y-60614649D02*
X101979226Y-60675125D01*
X101979226Y-60675125D02*
X102051798Y-60735601D01*
X102051798Y-60735601D02*
X102124369Y-60856553D01*
X102124369Y-60856553D02*
X102124369Y-61098458D01*
X102124369Y-61098458D02*
X102051798Y-61219411D01*
X102124369Y-59888934D02*
X102051798Y-60009886D01*
X102051798Y-60009886D02*
X101906655Y-60070363D01*
X101906655Y-60070363D02*
X100600369Y-60070363D01*
X102124369Y-59405125D02*
X101108369Y-59405125D01*
X100600369Y-59405125D02*
X100672940Y-59465601D01*
X100672940Y-59465601D02*
X100745512Y-59405125D01*
X100745512Y-59405125D02*
X100672940Y-59344648D01*
X100672940Y-59344648D02*
X100600369Y-59405125D01*
X100600369Y-59405125D02*
X100745512Y-59405125D01*
X101108369Y-58981791D02*
X101108369Y-58497982D01*
X100600369Y-58800363D02*
X101906655Y-58800363D01*
X101906655Y-58800363D02*
X102051798Y-58739886D01*
X102051798Y-58739886D02*
X102124369Y-58618934D01*
X102124369Y-58618934D02*
X102124369Y-58497982D01*
X101108369Y-58256077D02*
X101108369Y-57772268D01*
X100600369Y-58074649D02*
X101906655Y-58074649D01*
X101906655Y-58074649D02*
X102051798Y-58014172D01*
X102051798Y-58014172D02*
X102124369Y-57893220D01*
X102124369Y-57893220D02*
X102124369Y-57772268D01*
X102051798Y-56865125D02*
X102124369Y-56986077D01*
X102124369Y-56986077D02*
X102124369Y-57227982D01*
X102124369Y-57227982D02*
X102051798Y-57348935D01*
X102051798Y-57348935D02*
X101906655Y-57409411D01*
X101906655Y-57409411D02*
X101326083Y-57409411D01*
X101326083Y-57409411D02*
X101180940Y-57348935D01*
X101180940Y-57348935D02*
X101108369Y-57227982D01*
X101108369Y-57227982D02*
X101108369Y-56986077D01*
X101108369Y-56986077D02*
X101180940Y-56865125D01*
X101180940Y-56865125D02*
X101326083Y-56804649D01*
X101326083Y-56804649D02*
X101471226Y-56804649D01*
X101471226Y-56804649D02*
X101616369Y-57409411D01*
X102124369Y-56260364D02*
X101108369Y-56260364D01*
X101398655Y-56260364D02*
X101253512Y-56199887D01*
X101253512Y-56199887D02*
X101180940Y-56139411D01*
X101180940Y-56139411D02*
X101108369Y-56018459D01*
X101108369Y-56018459D02*
X101108369Y-55897506D01*
X103199067Y-78999411D02*
X103126495Y-78938935D01*
X103126495Y-78938935D02*
X103053924Y-78817982D01*
X103053924Y-78817982D02*
X103053924Y-78515601D01*
X103053924Y-78515601D02*
X103126495Y-78394649D01*
X103126495Y-78394649D02*
X103199067Y-78334173D01*
X103199067Y-78334173D02*
X103344210Y-78273696D01*
X103344210Y-78273696D02*
X103489353Y-78273696D01*
X103489353Y-78273696D02*
X103707067Y-78334173D01*
X103707067Y-78334173D02*
X104577924Y-79059887D01*
X104577924Y-79059887D02*
X104577924Y-78273696D01*
X103053924Y-77487506D02*
X103053924Y-77366553D01*
X103053924Y-77366553D02*
X103126495Y-77245601D01*
X103126495Y-77245601D02*
X103199067Y-77185125D01*
X103199067Y-77185125D02*
X103344210Y-77124649D01*
X103344210Y-77124649D02*
X103634495Y-77064172D01*
X103634495Y-77064172D02*
X103997353Y-77064172D01*
X103997353Y-77064172D02*
X104287638Y-77124649D01*
X104287638Y-77124649D02*
X104432781Y-77185125D01*
X104432781Y-77185125D02*
X104505353Y-77245601D01*
X104505353Y-77245601D02*
X104577924Y-77366553D01*
X104577924Y-77366553D02*
X104577924Y-77487506D01*
X104577924Y-77487506D02*
X104505353Y-77608458D01*
X104505353Y-77608458D02*
X104432781Y-77668934D01*
X104432781Y-77668934D02*
X104287638Y-77729411D01*
X104287638Y-77729411D02*
X103997353Y-77789887D01*
X103997353Y-77789887D02*
X103634495Y-77789887D01*
X103634495Y-77789887D02*
X103344210Y-77729411D01*
X103344210Y-77729411D02*
X103199067Y-77668934D01*
X103199067Y-77668934D02*
X103126495Y-77608458D01*
X103126495Y-77608458D02*
X103053924Y-77487506D01*
X103199067Y-76580363D02*
X103126495Y-76519887D01*
X103126495Y-76519887D02*
X103053924Y-76398934D01*
X103053924Y-76398934D02*
X103053924Y-76096553D01*
X103053924Y-76096553D02*
X103126495Y-75975601D01*
X103126495Y-75975601D02*
X103199067Y-75915125D01*
X103199067Y-75915125D02*
X103344210Y-75854648D01*
X103344210Y-75854648D02*
X103489353Y-75854648D01*
X103489353Y-75854648D02*
X103707067Y-75915125D01*
X103707067Y-75915125D02*
X104577924Y-76640839D01*
X104577924Y-76640839D02*
X104577924Y-75854648D01*
X103053924Y-74705601D02*
X103053924Y-75310363D01*
X103053924Y-75310363D02*
X103779638Y-75370839D01*
X103779638Y-75370839D02*
X103707067Y-75310363D01*
X103707067Y-75310363D02*
X103634495Y-75189410D01*
X103634495Y-75189410D02*
X103634495Y-74887029D01*
X103634495Y-74887029D02*
X103707067Y-74766077D01*
X103707067Y-74766077D02*
X103779638Y-74705601D01*
X103779638Y-74705601D02*
X103924781Y-74645124D01*
X103924781Y-74645124D02*
X104287638Y-74645124D01*
X104287638Y-74645124D02*
X104432781Y-74705601D01*
X104432781Y-74705601D02*
X104505353Y-74766077D01*
X104505353Y-74766077D02*
X104577924Y-74887029D01*
X104577924Y-74887029D02*
X104577924Y-75189410D01*
X104577924Y-75189410D02*
X104505353Y-75310363D01*
X104505353Y-75310363D02*
X104432781Y-75370839D01*
X103997353Y-74100839D02*
X103997353Y-73133220D01*
X103053924Y-72286553D02*
X103053924Y-72165600D01*
X103053924Y-72165600D02*
X103126495Y-72044648D01*
X103126495Y-72044648D02*
X103199067Y-71984172D01*
X103199067Y-71984172D02*
X103344210Y-71923696D01*
X103344210Y-71923696D02*
X103634495Y-71863219D01*
X103634495Y-71863219D02*
X103997353Y-71863219D01*
X103997353Y-71863219D02*
X104287638Y-71923696D01*
X104287638Y-71923696D02*
X104432781Y-71984172D01*
X104432781Y-71984172D02*
X104505353Y-72044648D01*
X104505353Y-72044648D02*
X104577924Y-72165600D01*
X104577924Y-72165600D02*
X104577924Y-72286553D01*
X104577924Y-72286553D02*
X104505353Y-72407505D01*
X104505353Y-72407505D02*
X104432781Y-72467981D01*
X104432781Y-72467981D02*
X104287638Y-72528458D01*
X104287638Y-72528458D02*
X103997353Y-72588934D01*
X103997353Y-72588934D02*
X103634495Y-72588934D01*
X103634495Y-72588934D02*
X103344210Y-72528458D01*
X103344210Y-72528458D02*
X103199067Y-72467981D01*
X103199067Y-72467981D02*
X103126495Y-72407505D01*
X103126495Y-72407505D02*
X103053924Y-72286553D01*
X103053924Y-71439886D02*
X103053924Y-70593219D01*
X103053924Y-70593219D02*
X104577924Y-71137505D01*
X103053924Y-68355600D02*
X104577924Y-67932267D01*
X104577924Y-67932267D02*
X103053924Y-67508933D01*
X104577924Y-66420362D02*
X104577924Y-67146077D01*
X104577924Y-66783220D02*
X103053924Y-66783220D01*
X103053924Y-66783220D02*
X103271638Y-66904172D01*
X103271638Y-66904172D02*
X103416781Y-67025124D01*
X103416781Y-67025124D02*
X103489353Y-67146077D01*
X104432781Y-65876077D02*
X104505353Y-65815600D01*
X104505353Y-65815600D02*
X104577924Y-65876077D01*
X104577924Y-65876077D02*
X104505353Y-65936553D01*
X104505353Y-65936553D02*
X104432781Y-65876077D01*
X104432781Y-65876077D02*
X104577924Y-65876077D01*
X103053924Y-65029410D02*
X103053924Y-64908457D01*
X103053924Y-64908457D02*
X103126495Y-64787505D01*
X103126495Y-64787505D02*
X103199067Y-64727029D01*
X103199067Y-64727029D02*
X103344210Y-64666553D01*
X103344210Y-64666553D02*
X103634495Y-64606076D01*
X103634495Y-64606076D02*
X103997353Y-64606076D01*
X103997353Y-64606076D02*
X104287638Y-64666553D01*
X104287638Y-64666553D02*
X104432781Y-64727029D01*
X104432781Y-64727029D02*
X104505353Y-64787505D01*
X104505353Y-64787505D02*
X104577924Y-64908457D01*
X104577924Y-64908457D02*
X104577924Y-65029410D01*
X104577924Y-65029410D02*
X104505353Y-65150362D01*
X104505353Y-65150362D02*
X104432781Y-65210838D01*
X104432781Y-65210838D02*
X104287638Y-65271315D01*
X104287638Y-65271315D02*
X103997353Y-65331791D01*
X103997353Y-65331791D02*
X103634495Y-65331791D01*
X103634495Y-65331791D02*
X103344210Y-65271315D01*
X103344210Y-65271315D02*
X103199067Y-65210838D01*
X103199067Y-65210838D02*
X103126495Y-65150362D01*
X103126495Y-65150362D02*
X103053924Y-65029410D01*
X103779638Y-62126553D02*
X103779638Y-61703219D01*
X104577924Y-61521791D02*
X104577924Y-62126553D01*
X104577924Y-62126553D02*
X103053924Y-62126553D01*
X103053924Y-62126553D02*
X103053924Y-61521791D01*
X104505353Y-61037981D02*
X104577924Y-60856552D01*
X104577924Y-60856552D02*
X104577924Y-60554171D01*
X104577924Y-60554171D02*
X104505353Y-60433219D01*
X104505353Y-60433219D02*
X104432781Y-60372743D01*
X104432781Y-60372743D02*
X104287638Y-60312266D01*
X104287638Y-60312266D02*
X104142495Y-60312266D01*
X104142495Y-60312266D02*
X103997353Y-60372743D01*
X103997353Y-60372743D02*
X103924781Y-60433219D01*
X103924781Y-60433219D02*
X103852210Y-60554171D01*
X103852210Y-60554171D02*
X103779638Y-60796076D01*
X103779638Y-60796076D02*
X103707067Y-60917028D01*
X103707067Y-60917028D02*
X103634495Y-60977505D01*
X103634495Y-60977505D02*
X103489353Y-61037981D01*
X103489353Y-61037981D02*
X103344210Y-61037981D01*
X103344210Y-61037981D02*
X103199067Y-60977505D01*
X103199067Y-60977505D02*
X103126495Y-60917028D01*
X103126495Y-60917028D02*
X103053924Y-60796076D01*
X103053924Y-60796076D02*
X103053924Y-60493695D01*
X103053924Y-60493695D02*
X103126495Y-60312266D01*
X104577924Y-59767981D02*
X103053924Y-59767981D01*
X103779638Y-59767981D02*
X103779638Y-59042266D01*
X104577924Y-59042266D02*
X103053924Y-59042266D01*
D10*
X106508646Y-78772419D02*
X107127693Y-78772419D01*
X107127693Y-78772419D02*
X106794360Y-79153371D01*
X106794360Y-79153371D02*
X106937217Y-79153371D01*
X106937217Y-79153371D02*
X107032455Y-79200990D01*
X107032455Y-79200990D02*
X107080074Y-79248609D01*
X107080074Y-79248609D02*
X107127693Y-79343847D01*
X107127693Y-79343847D02*
X107127693Y-79581942D01*
X107127693Y-79581942D02*
X107080074Y-79677180D01*
X107080074Y-79677180D02*
X107032455Y-79724800D01*
X107032455Y-79724800D02*
X106937217Y-79772419D01*
X106937217Y-79772419D02*
X106651503Y-79772419D01*
X106651503Y-79772419D02*
X106556265Y-79724800D01*
X106556265Y-79724800D02*
X106508646Y-79677180D01*
X107984836Y-78772419D02*
X107794360Y-78772419D01*
X107794360Y-78772419D02*
X107699122Y-78820038D01*
X107699122Y-78820038D02*
X107651503Y-78867657D01*
X107651503Y-78867657D02*
X107556265Y-79010514D01*
X107556265Y-79010514D02*
X107508646Y-79200990D01*
X107508646Y-79200990D02*
X107508646Y-79581942D01*
X107508646Y-79581942D02*
X107556265Y-79677180D01*
X107556265Y-79677180D02*
X107603884Y-79724800D01*
X107603884Y-79724800D02*
X107699122Y-79772419D01*
X107699122Y-79772419D02*
X107889598Y-79772419D01*
X107889598Y-79772419D02*
X107984836Y-79724800D01*
X107984836Y-79724800D02*
X108032455Y-79677180D01*
X108032455Y-79677180D02*
X108080074Y-79581942D01*
X108080074Y-79581942D02*
X108080074Y-79343847D01*
X108080074Y-79343847D02*
X108032455Y-79248609D01*
X108032455Y-79248609D02*
X107984836Y-79200990D01*
X107984836Y-79200990D02*
X107889598Y-79153371D01*
X107889598Y-79153371D02*
X107699122Y-79153371D01*
X107699122Y-79153371D02*
X107603884Y-79200990D01*
X107603884Y-79200990D02*
X107556265Y-79248609D01*
X107556265Y-79248609D02*
X107508646Y-79343847D01*
X115327693Y-56472419D02*
X114756265Y-56472419D01*
X115041979Y-56472419D02*
X115041979Y-55472419D01*
X115041979Y-55472419D02*
X114946741Y-55615276D01*
X114946741Y-55615276D02*
X114851503Y-55710514D01*
X114851503Y-55710514D02*
X114756265Y-55758133D01*
X105656265Y-55567657D02*
X105703884Y-55520038D01*
X105703884Y-55520038D02*
X105799122Y-55472419D01*
X105799122Y-55472419D02*
X106037217Y-55472419D01*
X106037217Y-55472419D02*
X106132455Y-55520038D01*
X106132455Y-55520038D02*
X106180074Y-55567657D01*
X106180074Y-55567657D02*
X106227693Y-55662895D01*
X106227693Y-55662895D02*
X106227693Y-55758133D01*
X106227693Y-55758133D02*
X106180074Y-55900990D01*
X106180074Y-55900990D02*
X105608646Y-56472419D01*
X105608646Y-56472419D02*
X106227693Y-56472419D01*
X51572419Y-57491353D02*
X51572419Y-56872306D01*
X51572419Y-56872306D02*
X51953371Y-57205639D01*
X51953371Y-57205639D02*
X51953371Y-57062782D01*
X51953371Y-57062782D02*
X52000990Y-56967544D01*
X52000990Y-56967544D02*
X52048609Y-56919925D01*
X52048609Y-56919925D02*
X52143847Y-56872306D01*
X52143847Y-56872306D02*
X52381942Y-56872306D01*
X52381942Y-56872306D02*
X52477180Y-56919925D01*
X52477180Y-56919925D02*
X52524800Y-56967544D01*
X52524800Y-56967544D02*
X52572419Y-57062782D01*
X52572419Y-57062782D02*
X52572419Y-57348496D01*
X52572419Y-57348496D02*
X52524800Y-57443734D01*
X52524800Y-57443734D02*
X52477180Y-57491353D01*
X51905752Y-56015163D02*
X52572419Y-56015163D01*
X51524800Y-56253258D02*
X52239085Y-56491353D01*
X52239085Y-56491353D02*
X52239085Y-55872306D01*
D12*
X61918677Y-59948166D02*
X61961011Y-59990499D01*
X61961011Y-59990499D02*
X62003344Y-60117499D01*
X62003344Y-60117499D02*
X62003344Y-60202166D01*
X62003344Y-60202166D02*
X61961011Y-60329166D01*
X61961011Y-60329166D02*
X61876344Y-60413833D01*
X61876344Y-60413833D02*
X61791677Y-60456166D01*
X61791677Y-60456166D02*
X61622344Y-60498499D01*
X61622344Y-60498499D02*
X61495344Y-60498499D01*
X61495344Y-60498499D02*
X61326011Y-60456166D01*
X61326011Y-60456166D02*
X61241344Y-60413833D01*
X61241344Y-60413833D02*
X61156677Y-60329166D01*
X61156677Y-60329166D02*
X61114344Y-60202166D01*
X61114344Y-60202166D02*
X61114344Y-60117499D01*
X61114344Y-60117499D02*
X61156677Y-59990499D01*
X61156677Y-59990499D02*
X61199011Y-59948166D01*
X62003344Y-59101499D02*
X62003344Y-59609499D01*
X62003344Y-59355499D02*
X61114344Y-59355499D01*
X61114344Y-59355499D02*
X61241344Y-59440166D01*
X61241344Y-59440166D02*
X61326011Y-59524833D01*
X61326011Y-59524833D02*
X61368344Y-59609499D01*
X77543833Y-61903344D02*
X77543833Y-61014344D01*
X77543833Y-61014344D02*
X77755500Y-61014344D01*
X77755500Y-61014344D02*
X77882500Y-61056677D01*
X77882500Y-61056677D02*
X77967167Y-61141344D01*
X77967167Y-61141344D02*
X78009500Y-61226011D01*
X78009500Y-61226011D02*
X78051833Y-61395344D01*
X78051833Y-61395344D02*
X78051833Y-61522344D01*
X78051833Y-61522344D02*
X78009500Y-61691677D01*
X78009500Y-61691677D02*
X77967167Y-61776344D01*
X77967167Y-61776344D02*
X77882500Y-61861011D01*
X77882500Y-61861011D02*
X77755500Y-61903344D01*
X77755500Y-61903344D02*
X77543833Y-61903344D01*
X78390500Y-61099011D02*
X78432833Y-61056677D01*
X78432833Y-61056677D02*
X78517500Y-61014344D01*
X78517500Y-61014344D02*
X78729167Y-61014344D01*
X78729167Y-61014344D02*
X78813833Y-61056677D01*
X78813833Y-61056677D02*
X78856167Y-61099011D01*
X78856167Y-61099011D02*
X78898500Y-61183677D01*
X78898500Y-61183677D02*
X78898500Y-61268344D01*
X78898500Y-61268344D02*
X78856167Y-61395344D01*
X78856167Y-61395344D02*
X78348167Y-61903344D01*
X78348167Y-61903344D02*
X78898500Y-61903344D01*
D10*
X77490384Y-63464419D02*
X77490384Y-62464419D01*
X78061812Y-63464419D02*
X77633241Y-62892990D01*
X78061812Y-62464419D02*
X77490384Y-63035847D01*
D12*
X77551833Y-51903344D02*
X77255500Y-51480011D01*
X77043833Y-51903344D02*
X77043833Y-51014344D01*
X77043833Y-51014344D02*
X77382500Y-51014344D01*
X77382500Y-51014344D02*
X77467167Y-51056677D01*
X77467167Y-51056677D02*
X77509500Y-51099011D01*
X77509500Y-51099011D02*
X77551833Y-51183677D01*
X77551833Y-51183677D02*
X77551833Y-51310677D01*
X77551833Y-51310677D02*
X77509500Y-51395344D01*
X77509500Y-51395344D02*
X77467167Y-51437677D01*
X77467167Y-51437677D02*
X77382500Y-51480011D01*
X77382500Y-51480011D02*
X77043833Y-51480011D01*
X78398500Y-51903344D02*
X77890500Y-51903344D01*
X78144500Y-51903344D02*
X78144500Y-51014344D01*
X78144500Y-51014344D02*
X78059833Y-51141344D01*
X78059833Y-51141344D02*
X77975167Y-51226011D01*
X77975167Y-51226011D02*
X77890500Y-51268344D01*
X70128499Y-83518677D02*
X70086166Y-83561011D01*
X70086166Y-83561011D02*
X69959166Y-83603344D01*
X69959166Y-83603344D02*
X69874499Y-83603344D01*
X69874499Y-83603344D02*
X69747499Y-83561011D01*
X69747499Y-83561011D02*
X69662833Y-83476344D01*
X69662833Y-83476344D02*
X69620499Y-83391677D01*
X69620499Y-83391677D02*
X69578166Y-83222344D01*
X69578166Y-83222344D02*
X69578166Y-83095344D01*
X69578166Y-83095344D02*
X69620499Y-82926011D01*
X69620499Y-82926011D02*
X69662833Y-82841344D01*
X69662833Y-82841344D02*
X69747499Y-82756677D01*
X69747499Y-82756677D02*
X69874499Y-82714344D01*
X69874499Y-82714344D02*
X69959166Y-82714344D01*
X69959166Y-82714344D02*
X70086166Y-82756677D01*
X70086166Y-82756677D02*
X70128499Y-82799011D01*
X70932833Y-82714344D02*
X70509499Y-82714344D01*
X70509499Y-82714344D02*
X70467166Y-83137677D01*
X70467166Y-83137677D02*
X70509499Y-83095344D01*
X70509499Y-83095344D02*
X70594166Y-83053011D01*
X70594166Y-83053011D02*
X70805833Y-83053011D01*
X70805833Y-83053011D02*
X70890499Y-83095344D01*
X70890499Y-83095344D02*
X70932833Y-83137677D01*
X70932833Y-83137677D02*
X70975166Y-83222344D01*
X70975166Y-83222344D02*
X70975166Y-83434011D01*
X70975166Y-83434011D02*
X70932833Y-83518677D01*
X70932833Y-83518677D02*
X70890499Y-83561011D01*
X70890499Y-83561011D02*
X70805833Y-83603344D01*
X70805833Y-83603344D02*
X70594166Y-83603344D01*
X70594166Y-83603344D02*
X70509499Y-83561011D01*
X70509499Y-83561011D02*
X70467166Y-83518677D01*
X71525500Y-82714344D02*
X71610166Y-82714344D01*
X71610166Y-82714344D02*
X71694833Y-82756677D01*
X71694833Y-82756677D02*
X71737166Y-82799011D01*
X71737166Y-82799011D02*
X71779500Y-82883677D01*
X71779500Y-82883677D02*
X71821833Y-83053011D01*
X71821833Y-83053011D02*
X71821833Y-83264677D01*
X71821833Y-83264677D02*
X71779500Y-83434011D01*
X71779500Y-83434011D02*
X71737166Y-83518677D01*
X71737166Y-83518677D02*
X71694833Y-83561011D01*
X71694833Y-83561011D02*
X71610166Y-83603344D01*
X71610166Y-83603344D02*
X71525500Y-83603344D01*
X71525500Y-83603344D02*
X71440833Y-83561011D01*
X71440833Y-83561011D02*
X71398500Y-83518677D01*
X71398500Y-83518677D02*
X71356166Y-83434011D01*
X71356166Y-83434011D02*
X71313833Y-83264677D01*
X71313833Y-83264677D02*
X71313833Y-83053011D01*
X71313833Y-83053011D02*
X71356166Y-82883677D01*
X71356166Y-82883677D02*
X71398500Y-82799011D01*
X71398500Y-82799011D02*
X71440833Y-82756677D01*
X71440833Y-82756677D02*
X71525500Y-82714344D01*
X72751833Y-51903344D02*
X72455500Y-51480011D01*
X72243833Y-51903344D02*
X72243833Y-51014344D01*
X72243833Y-51014344D02*
X72582500Y-51014344D01*
X72582500Y-51014344D02*
X72667167Y-51056677D01*
X72667167Y-51056677D02*
X72709500Y-51099011D01*
X72709500Y-51099011D02*
X72751833Y-51183677D01*
X72751833Y-51183677D02*
X72751833Y-51310677D01*
X72751833Y-51310677D02*
X72709500Y-51395344D01*
X72709500Y-51395344D02*
X72667167Y-51437677D01*
X72667167Y-51437677D02*
X72582500Y-51480011D01*
X72582500Y-51480011D02*
X72243833Y-51480011D01*
X73513833Y-51014344D02*
X73344500Y-51014344D01*
X73344500Y-51014344D02*
X73259833Y-51056677D01*
X73259833Y-51056677D02*
X73217500Y-51099011D01*
X73217500Y-51099011D02*
X73132833Y-51226011D01*
X73132833Y-51226011D02*
X73090500Y-51395344D01*
X73090500Y-51395344D02*
X73090500Y-51734011D01*
X73090500Y-51734011D02*
X73132833Y-51818677D01*
X73132833Y-51818677D02*
X73175167Y-51861011D01*
X73175167Y-51861011D02*
X73259833Y-51903344D01*
X73259833Y-51903344D02*
X73429167Y-51903344D01*
X73429167Y-51903344D02*
X73513833Y-51861011D01*
X73513833Y-51861011D02*
X73556167Y-51818677D01*
X73556167Y-51818677D02*
X73598500Y-51734011D01*
X73598500Y-51734011D02*
X73598500Y-51522344D01*
X73598500Y-51522344D02*
X73556167Y-51437677D01*
X73556167Y-51437677D02*
X73513833Y-51395344D01*
X73513833Y-51395344D02*
X73429167Y-51353011D01*
X73429167Y-51353011D02*
X73259833Y-51353011D01*
X73259833Y-51353011D02*
X73175167Y-51395344D01*
X73175167Y-51395344D02*
X73132833Y-51437677D01*
X73132833Y-51437677D02*
X73090500Y-51522344D01*
X79703344Y-71271500D02*
X79280011Y-71567833D01*
X79703344Y-71779500D02*
X78814344Y-71779500D01*
X78814344Y-71779500D02*
X78814344Y-71440833D01*
X78814344Y-71440833D02*
X78856677Y-71356167D01*
X78856677Y-71356167D02*
X78899011Y-71313833D01*
X78899011Y-71313833D02*
X78983677Y-71271500D01*
X78983677Y-71271500D02*
X79110677Y-71271500D01*
X79110677Y-71271500D02*
X79195344Y-71313833D01*
X79195344Y-71313833D02*
X79237677Y-71356167D01*
X79237677Y-71356167D02*
X79280011Y-71440833D01*
X79280011Y-71440833D02*
X79280011Y-71779500D01*
X79703344Y-70424833D02*
X79703344Y-70932833D01*
X79703344Y-70678833D02*
X78814344Y-70678833D01*
X78814344Y-70678833D02*
X78941344Y-70763500D01*
X78941344Y-70763500D02*
X79026011Y-70848167D01*
X79026011Y-70848167D02*
X79068344Y-70932833D01*
X78814344Y-70128500D02*
X78814344Y-69535833D01*
X78814344Y-69535833D02*
X79703344Y-69916833D01*
X76748833Y-78829344D02*
X76748833Y-79549011D01*
X76748833Y-79549011D02*
X76791167Y-79633677D01*
X76791167Y-79633677D02*
X76833500Y-79676011D01*
X76833500Y-79676011D02*
X76918167Y-79718344D01*
X76918167Y-79718344D02*
X77087500Y-79718344D01*
X77087500Y-79718344D02*
X77172167Y-79676011D01*
X77172167Y-79676011D02*
X77214500Y-79633677D01*
X77214500Y-79633677D02*
X77256833Y-79549011D01*
X77256833Y-79549011D02*
X77256833Y-78829344D01*
X78145833Y-79718344D02*
X77637833Y-79718344D01*
X77891833Y-79718344D02*
X77891833Y-78829344D01*
X77891833Y-78829344D02*
X77807166Y-78956344D01*
X77807166Y-78956344D02*
X77722500Y-79041011D01*
X77722500Y-79041011D02*
X77637833Y-79083344D01*
X78907833Y-78829344D02*
X78738500Y-78829344D01*
X78738500Y-78829344D02*
X78653833Y-78871677D01*
X78653833Y-78871677D02*
X78611500Y-78914011D01*
X78611500Y-78914011D02*
X78526833Y-79041011D01*
X78526833Y-79041011D02*
X78484500Y-79210344D01*
X78484500Y-79210344D02*
X78484500Y-79549011D01*
X78484500Y-79549011D02*
X78526833Y-79633677D01*
X78526833Y-79633677D02*
X78569167Y-79676011D01*
X78569167Y-79676011D02*
X78653833Y-79718344D01*
X78653833Y-79718344D02*
X78823167Y-79718344D01*
X78823167Y-79718344D02*
X78907833Y-79676011D01*
X78907833Y-79676011D02*
X78950167Y-79633677D01*
X78950167Y-79633677D02*
X78992500Y-79549011D01*
X78992500Y-79549011D02*
X78992500Y-79337344D01*
X78992500Y-79337344D02*
X78950167Y-79252677D01*
X78950167Y-79252677D02*
X78907833Y-79210344D01*
X78907833Y-79210344D02*
X78823167Y-79168011D01*
X78823167Y-79168011D02*
X78653833Y-79168011D01*
X78653833Y-79168011D02*
X78569167Y-79210344D01*
X78569167Y-79210344D02*
X78526833Y-79252677D01*
X78526833Y-79252677D02*
X78484500Y-79337344D01*
X63278166Y-76914344D02*
X63786166Y-76914344D01*
X63532166Y-77803344D02*
X63532166Y-76914344D01*
X64082499Y-77803344D02*
X64082499Y-76914344D01*
X64082499Y-76914344D02*
X64421166Y-76914344D01*
X64421166Y-76914344D02*
X64505833Y-76956677D01*
X64505833Y-76956677D02*
X64548166Y-76999011D01*
X64548166Y-76999011D02*
X64590499Y-77083677D01*
X64590499Y-77083677D02*
X64590499Y-77210677D01*
X64590499Y-77210677D02*
X64548166Y-77295344D01*
X64548166Y-77295344D02*
X64505833Y-77337677D01*
X64505833Y-77337677D02*
X64421166Y-77380011D01*
X64421166Y-77380011D02*
X64082499Y-77380011D01*
X65437166Y-77803344D02*
X64929166Y-77803344D01*
X65183166Y-77803344D02*
X65183166Y-76914344D01*
X65183166Y-76914344D02*
X65098499Y-77041344D01*
X65098499Y-77041344D02*
X65013833Y-77126011D01*
X65013833Y-77126011D02*
X64929166Y-77168344D01*
X65651833Y-59018677D02*
X65609500Y-59061011D01*
X65609500Y-59061011D02*
X65482500Y-59103344D01*
X65482500Y-59103344D02*
X65397833Y-59103344D01*
X65397833Y-59103344D02*
X65270833Y-59061011D01*
X65270833Y-59061011D02*
X65186167Y-58976344D01*
X65186167Y-58976344D02*
X65143833Y-58891677D01*
X65143833Y-58891677D02*
X65101500Y-58722344D01*
X65101500Y-58722344D02*
X65101500Y-58595344D01*
X65101500Y-58595344D02*
X65143833Y-58426011D01*
X65143833Y-58426011D02*
X65186167Y-58341344D01*
X65186167Y-58341344D02*
X65270833Y-58256677D01*
X65270833Y-58256677D02*
X65397833Y-58214344D01*
X65397833Y-58214344D02*
X65482500Y-58214344D01*
X65482500Y-58214344D02*
X65609500Y-58256677D01*
X65609500Y-58256677D02*
X65651833Y-58299011D01*
X66413833Y-58510677D02*
X66413833Y-59103344D01*
X66202167Y-58172011D02*
X65990500Y-58807011D01*
X65990500Y-58807011D02*
X66540833Y-58807011D01*
X75003344Y-75171500D02*
X74580011Y-75467833D01*
X75003344Y-75679500D02*
X74114344Y-75679500D01*
X74114344Y-75679500D02*
X74114344Y-75340833D01*
X74114344Y-75340833D02*
X74156677Y-75256167D01*
X74156677Y-75256167D02*
X74199011Y-75213833D01*
X74199011Y-75213833D02*
X74283677Y-75171500D01*
X74283677Y-75171500D02*
X74410677Y-75171500D01*
X74410677Y-75171500D02*
X74495344Y-75213833D01*
X74495344Y-75213833D02*
X74537677Y-75256167D01*
X74537677Y-75256167D02*
X74580011Y-75340833D01*
X74580011Y-75340833D02*
X74580011Y-75679500D01*
X75003344Y-74324833D02*
X75003344Y-74832833D01*
X75003344Y-74578833D02*
X74114344Y-74578833D01*
X74114344Y-74578833D02*
X74241344Y-74663500D01*
X74241344Y-74663500D02*
X74326011Y-74748167D01*
X74326011Y-74748167D02*
X74368344Y-74832833D01*
X75003344Y-73478166D02*
X75003344Y-73986166D01*
X75003344Y-73732166D02*
X74114344Y-73732166D01*
X74114344Y-73732166D02*
X74241344Y-73816833D01*
X74241344Y-73816833D02*
X74326011Y-73901500D01*
X74326011Y-73901500D02*
X74368344Y-73986166D01*
X86403344Y-63041000D02*
X85980011Y-63337333D01*
X86403344Y-63549000D02*
X85514344Y-63549000D01*
X85514344Y-63549000D02*
X85514344Y-63210333D01*
X85514344Y-63210333D02*
X85556677Y-63125667D01*
X85556677Y-63125667D02*
X85599011Y-63083333D01*
X85599011Y-63083333D02*
X85683677Y-63041000D01*
X85683677Y-63041000D02*
X85810677Y-63041000D01*
X85810677Y-63041000D02*
X85895344Y-63083333D01*
X85895344Y-63083333D02*
X85937677Y-63125667D01*
X85937677Y-63125667D02*
X85980011Y-63210333D01*
X85980011Y-63210333D02*
X85980011Y-63549000D01*
X86403344Y-62194333D02*
X86403344Y-62702333D01*
X86403344Y-62448333D02*
X85514344Y-62448333D01*
X85514344Y-62448333D02*
X85641344Y-62533000D01*
X85641344Y-62533000D02*
X85726011Y-62617667D01*
X85726011Y-62617667D02*
X85768344Y-62702333D01*
X85514344Y-61390000D02*
X85514344Y-61813333D01*
X85514344Y-61813333D02*
X85937677Y-61855666D01*
X85937677Y-61855666D02*
X85895344Y-61813333D01*
X85895344Y-61813333D02*
X85853011Y-61728666D01*
X85853011Y-61728666D02*
X85853011Y-61517000D01*
X85853011Y-61517000D02*
X85895344Y-61432333D01*
X85895344Y-61432333D02*
X85937677Y-61390000D01*
X85937677Y-61390000D02*
X86022344Y-61347666D01*
X86022344Y-61347666D02*
X86234011Y-61347666D01*
X86234011Y-61347666D02*
X86318677Y-61390000D01*
X86318677Y-61390000D02*
X86361011Y-61432333D01*
X86361011Y-61432333D02*
X86403344Y-61517000D01*
X86403344Y-61517000D02*
X86403344Y-61728666D01*
X86403344Y-61728666D02*
X86361011Y-61813333D01*
X86361011Y-61813333D02*
X86318677Y-61855666D01*
X75718677Y-59148166D02*
X75761011Y-59190499D01*
X75761011Y-59190499D02*
X75803344Y-59317499D01*
X75803344Y-59317499D02*
X75803344Y-59402166D01*
X75803344Y-59402166D02*
X75761011Y-59529166D01*
X75761011Y-59529166D02*
X75676344Y-59613833D01*
X75676344Y-59613833D02*
X75591677Y-59656166D01*
X75591677Y-59656166D02*
X75422344Y-59698499D01*
X75422344Y-59698499D02*
X75295344Y-59698499D01*
X75295344Y-59698499D02*
X75126011Y-59656166D01*
X75126011Y-59656166D02*
X75041344Y-59613833D01*
X75041344Y-59613833D02*
X74956677Y-59529166D01*
X74956677Y-59529166D02*
X74914344Y-59402166D01*
X74914344Y-59402166D02*
X74914344Y-59317499D01*
X74914344Y-59317499D02*
X74956677Y-59190499D01*
X74956677Y-59190499D02*
X74999011Y-59148166D01*
X74999011Y-58809499D02*
X74956677Y-58767166D01*
X74956677Y-58767166D02*
X74914344Y-58682499D01*
X74914344Y-58682499D02*
X74914344Y-58470833D01*
X74914344Y-58470833D02*
X74956677Y-58386166D01*
X74956677Y-58386166D02*
X74999011Y-58343833D01*
X74999011Y-58343833D02*
X75083677Y-58301499D01*
X75083677Y-58301499D02*
X75168344Y-58301499D01*
X75168344Y-58301499D02*
X75295344Y-58343833D01*
X75295344Y-58343833D02*
X75803344Y-58851833D01*
X75803344Y-58851833D02*
X75803344Y-58301499D01*
X90715333Y-71988011D02*
X90630666Y-71945677D01*
X90630666Y-71945677D02*
X90546000Y-71861011D01*
X90546000Y-71861011D02*
X90419000Y-71734011D01*
X90419000Y-71734011D02*
X90334333Y-71691677D01*
X90334333Y-71691677D02*
X90249666Y-71691677D01*
X90292000Y-71903344D02*
X90207333Y-71861011D01*
X90207333Y-71861011D02*
X90122666Y-71776344D01*
X90122666Y-71776344D02*
X90080333Y-71607011D01*
X90080333Y-71607011D02*
X90080333Y-71310677D01*
X90080333Y-71310677D02*
X90122666Y-71141344D01*
X90122666Y-71141344D02*
X90207333Y-71056677D01*
X90207333Y-71056677D02*
X90292000Y-71014344D01*
X90292000Y-71014344D02*
X90461333Y-71014344D01*
X90461333Y-71014344D02*
X90546000Y-71056677D01*
X90546000Y-71056677D02*
X90630666Y-71141344D01*
X90630666Y-71141344D02*
X90673000Y-71310677D01*
X90673000Y-71310677D02*
X90673000Y-71607011D01*
X90673000Y-71607011D02*
X90630666Y-71776344D01*
X90630666Y-71776344D02*
X90546000Y-71861011D01*
X90546000Y-71861011D02*
X90461333Y-71903344D01*
X90461333Y-71903344D02*
X90292000Y-71903344D01*
X90969333Y-71014344D02*
X91519666Y-71014344D01*
X91519666Y-71014344D02*
X91223333Y-71353011D01*
X91223333Y-71353011D02*
X91350333Y-71353011D01*
X91350333Y-71353011D02*
X91434999Y-71395344D01*
X91434999Y-71395344D02*
X91477333Y-71437677D01*
X91477333Y-71437677D02*
X91519666Y-71522344D01*
X91519666Y-71522344D02*
X91519666Y-71734011D01*
X91519666Y-71734011D02*
X91477333Y-71818677D01*
X91477333Y-71818677D02*
X91434999Y-71861011D01*
X91434999Y-71861011D02*
X91350333Y-71903344D01*
X91350333Y-71903344D02*
X91096333Y-71903344D01*
X91096333Y-71903344D02*
X91011666Y-71861011D01*
X91011666Y-71861011D02*
X90969333Y-71818677D01*
X73977499Y-83536677D02*
X73935166Y-83579011D01*
X73935166Y-83579011D02*
X73808166Y-83621344D01*
X73808166Y-83621344D02*
X73723499Y-83621344D01*
X73723499Y-83621344D02*
X73596499Y-83579011D01*
X73596499Y-83579011D02*
X73511833Y-83494344D01*
X73511833Y-83494344D02*
X73469499Y-83409677D01*
X73469499Y-83409677D02*
X73427166Y-83240344D01*
X73427166Y-83240344D02*
X73427166Y-83113344D01*
X73427166Y-83113344D02*
X73469499Y-82944011D01*
X73469499Y-82944011D02*
X73511833Y-82859344D01*
X73511833Y-82859344D02*
X73596499Y-82774677D01*
X73596499Y-82774677D02*
X73723499Y-82732344D01*
X73723499Y-82732344D02*
X73808166Y-82732344D01*
X73808166Y-82732344D02*
X73935166Y-82774677D01*
X73935166Y-82774677D02*
X73977499Y-82817011D01*
X74739499Y-83028677D02*
X74739499Y-83621344D01*
X74527833Y-82690011D02*
X74316166Y-83325011D01*
X74316166Y-83325011D02*
X74866499Y-83325011D01*
X75247500Y-83621344D02*
X75416833Y-83621344D01*
X75416833Y-83621344D02*
X75501500Y-83579011D01*
X75501500Y-83579011D02*
X75543833Y-83536677D01*
X75543833Y-83536677D02*
X75628500Y-83409677D01*
X75628500Y-83409677D02*
X75670833Y-83240344D01*
X75670833Y-83240344D02*
X75670833Y-82901677D01*
X75670833Y-82901677D02*
X75628500Y-82817011D01*
X75628500Y-82817011D02*
X75586166Y-82774677D01*
X75586166Y-82774677D02*
X75501500Y-82732344D01*
X75501500Y-82732344D02*
X75332166Y-82732344D01*
X75332166Y-82732344D02*
X75247500Y-82774677D01*
X75247500Y-82774677D02*
X75205166Y-82817011D01*
X75205166Y-82817011D02*
X75162833Y-82901677D01*
X75162833Y-82901677D02*
X75162833Y-83113344D01*
X75162833Y-83113344D02*
X75205166Y-83198011D01*
X75205166Y-83198011D02*
X75247500Y-83240344D01*
X75247500Y-83240344D02*
X75332166Y-83282677D01*
X75332166Y-83282677D02*
X75501500Y-83282677D01*
X75501500Y-83282677D02*
X75586166Y-83240344D01*
X75586166Y-83240344D02*
X75628500Y-83198011D01*
X75628500Y-83198011D02*
X75670833Y-83113344D01*
X63309499Y-83536677D02*
X63267166Y-83579011D01*
X63267166Y-83579011D02*
X63140166Y-83621344D01*
X63140166Y-83621344D02*
X63055499Y-83621344D01*
X63055499Y-83621344D02*
X62928499Y-83579011D01*
X62928499Y-83579011D02*
X62843833Y-83494344D01*
X62843833Y-83494344D02*
X62801499Y-83409677D01*
X62801499Y-83409677D02*
X62759166Y-83240344D01*
X62759166Y-83240344D02*
X62759166Y-83113344D01*
X62759166Y-83113344D02*
X62801499Y-82944011D01*
X62801499Y-82944011D02*
X62843833Y-82859344D01*
X62843833Y-82859344D02*
X62928499Y-82774677D01*
X62928499Y-82774677D02*
X63055499Y-82732344D01*
X63055499Y-82732344D02*
X63140166Y-82732344D01*
X63140166Y-82732344D02*
X63267166Y-82774677D01*
X63267166Y-82774677D02*
X63309499Y-82817011D01*
X64113833Y-82732344D02*
X63690499Y-82732344D01*
X63690499Y-82732344D02*
X63648166Y-83155677D01*
X63648166Y-83155677D02*
X63690499Y-83113344D01*
X63690499Y-83113344D02*
X63775166Y-83071011D01*
X63775166Y-83071011D02*
X63986833Y-83071011D01*
X63986833Y-83071011D02*
X64071499Y-83113344D01*
X64071499Y-83113344D02*
X64113833Y-83155677D01*
X64113833Y-83155677D02*
X64156166Y-83240344D01*
X64156166Y-83240344D02*
X64156166Y-83452011D01*
X64156166Y-83452011D02*
X64113833Y-83536677D01*
X64113833Y-83536677D02*
X64071499Y-83579011D01*
X64071499Y-83579011D02*
X63986833Y-83621344D01*
X63986833Y-83621344D02*
X63775166Y-83621344D01*
X63775166Y-83621344D02*
X63690499Y-83579011D01*
X63690499Y-83579011D02*
X63648166Y-83536677D01*
X65002833Y-83621344D02*
X64494833Y-83621344D01*
X64748833Y-83621344D02*
X64748833Y-82732344D01*
X64748833Y-82732344D02*
X64664166Y-82859344D01*
X64664166Y-82859344D02*
X64579500Y-82944011D01*
X64579500Y-82944011D02*
X64494833Y-82986344D01*
X71222666Y-59514344D02*
X71222666Y-60234011D01*
X71222666Y-60234011D02*
X71265000Y-60318677D01*
X71265000Y-60318677D02*
X71307333Y-60361011D01*
X71307333Y-60361011D02*
X71392000Y-60403344D01*
X71392000Y-60403344D02*
X71561333Y-60403344D01*
X71561333Y-60403344D02*
X71646000Y-60361011D01*
X71646000Y-60361011D02*
X71688333Y-60318677D01*
X71688333Y-60318677D02*
X71730666Y-60234011D01*
X71730666Y-60234011D02*
X71730666Y-59514344D01*
X72069333Y-59514344D02*
X72619666Y-59514344D01*
X72619666Y-59514344D02*
X72323333Y-59853011D01*
X72323333Y-59853011D02*
X72450333Y-59853011D01*
X72450333Y-59853011D02*
X72534999Y-59895344D01*
X72534999Y-59895344D02*
X72577333Y-59937677D01*
X72577333Y-59937677D02*
X72619666Y-60022344D01*
X72619666Y-60022344D02*
X72619666Y-60234011D01*
X72619666Y-60234011D02*
X72577333Y-60318677D01*
X72577333Y-60318677D02*
X72534999Y-60361011D01*
X72534999Y-60361011D02*
X72450333Y-60403344D01*
X72450333Y-60403344D02*
X72196333Y-60403344D01*
X72196333Y-60403344D02*
X72111666Y-60361011D01*
X72111666Y-60361011D02*
X72069333Y-60318677D01*
D13*
X77954819Y-55861904D02*
X78764342Y-55861904D01*
X78764342Y-55861904D02*
X78859580Y-55814285D01*
X78859580Y-55814285D02*
X78907200Y-55766666D01*
X78907200Y-55766666D02*
X78954819Y-55671428D01*
X78954819Y-55671428D02*
X78954819Y-55480952D01*
X78954819Y-55480952D02*
X78907200Y-55385714D01*
X78907200Y-55385714D02*
X78859580Y-55338095D01*
X78859580Y-55338095D02*
X78764342Y-55290476D01*
X78764342Y-55290476D02*
X77954819Y-55290476D01*
X78954819Y-54290476D02*
X78954819Y-54861904D01*
X78954819Y-54576190D02*
X77954819Y-54576190D01*
X77954819Y-54576190D02*
X78097676Y-54671428D01*
X78097676Y-54671428D02*
X78192914Y-54766666D01*
X78192914Y-54766666D02*
X78240533Y-54861904D01*
D12*
X85914344Y-72321833D02*
X85914344Y-71813833D01*
X86803344Y-72067833D02*
X85914344Y-72067833D01*
X86803344Y-71517500D02*
X85914344Y-71517500D01*
X85914344Y-71517500D02*
X85914344Y-71178833D01*
X85914344Y-71178833D02*
X85956677Y-71094167D01*
X85956677Y-71094167D02*
X85999011Y-71051833D01*
X85999011Y-71051833D02*
X86083677Y-71009500D01*
X86083677Y-71009500D02*
X86210677Y-71009500D01*
X86210677Y-71009500D02*
X86295344Y-71051833D01*
X86295344Y-71051833D02*
X86337677Y-71094167D01*
X86337677Y-71094167D02*
X86380011Y-71178833D01*
X86380011Y-71178833D02*
X86380011Y-71517500D01*
X86295344Y-70501500D02*
X86253011Y-70586167D01*
X86253011Y-70586167D02*
X86210677Y-70628500D01*
X86210677Y-70628500D02*
X86126011Y-70670833D01*
X86126011Y-70670833D02*
X86083677Y-70670833D01*
X86083677Y-70670833D02*
X85999011Y-70628500D01*
X85999011Y-70628500D02*
X85956677Y-70586167D01*
X85956677Y-70586167D02*
X85914344Y-70501500D01*
X85914344Y-70501500D02*
X85914344Y-70332167D01*
X85914344Y-70332167D02*
X85956677Y-70247500D01*
X85956677Y-70247500D02*
X85999011Y-70205167D01*
X85999011Y-70205167D02*
X86083677Y-70162833D01*
X86083677Y-70162833D02*
X86126011Y-70162833D01*
X86126011Y-70162833D02*
X86210677Y-70205167D01*
X86210677Y-70205167D02*
X86253011Y-70247500D01*
X86253011Y-70247500D02*
X86295344Y-70332167D01*
X86295344Y-70332167D02*
X86295344Y-70501500D01*
X86295344Y-70501500D02*
X86337677Y-70586167D01*
X86337677Y-70586167D02*
X86380011Y-70628500D01*
X86380011Y-70628500D02*
X86464677Y-70670833D01*
X86464677Y-70670833D02*
X86634011Y-70670833D01*
X86634011Y-70670833D02*
X86718677Y-70628500D01*
X86718677Y-70628500D02*
X86761011Y-70586167D01*
X86761011Y-70586167D02*
X86803344Y-70501500D01*
X86803344Y-70501500D02*
X86803344Y-70332167D01*
X86803344Y-70332167D02*
X86761011Y-70247500D01*
X86761011Y-70247500D02*
X86718677Y-70205167D01*
X86718677Y-70205167D02*
X86634011Y-70162833D01*
X86634011Y-70162833D02*
X86464677Y-70162833D01*
X86464677Y-70162833D02*
X86380011Y-70205167D01*
X86380011Y-70205167D02*
X86337677Y-70247500D01*
X86337677Y-70247500D02*
X86295344Y-70332167D01*
X76218677Y-76671500D02*
X76261011Y-76713833D01*
X76261011Y-76713833D02*
X76303344Y-76840833D01*
X76303344Y-76840833D02*
X76303344Y-76925500D01*
X76303344Y-76925500D02*
X76261011Y-77052500D01*
X76261011Y-77052500D02*
X76176344Y-77137167D01*
X76176344Y-77137167D02*
X76091677Y-77179500D01*
X76091677Y-77179500D02*
X75922344Y-77221833D01*
X75922344Y-77221833D02*
X75795344Y-77221833D01*
X75795344Y-77221833D02*
X75626011Y-77179500D01*
X75626011Y-77179500D02*
X75541344Y-77137167D01*
X75541344Y-77137167D02*
X75456677Y-77052500D01*
X75456677Y-77052500D02*
X75414344Y-76925500D01*
X75414344Y-76925500D02*
X75414344Y-76840833D01*
X75414344Y-76840833D02*
X75456677Y-76713833D01*
X75456677Y-76713833D02*
X75499011Y-76671500D01*
X76303344Y-75824833D02*
X76303344Y-76332833D01*
X76303344Y-76078833D02*
X75414344Y-76078833D01*
X75414344Y-76078833D02*
X75541344Y-76163500D01*
X75541344Y-76163500D02*
X75626011Y-76248167D01*
X75626011Y-76248167D02*
X75668344Y-76332833D01*
X75414344Y-75528500D02*
X75414344Y-74978166D01*
X75414344Y-74978166D02*
X75753011Y-75274500D01*
X75753011Y-75274500D02*
X75753011Y-75147500D01*
X75753011Y-75147500D02*
X75795344Y-75062833D01*
X75795344Y-75062833D02*
X75837677Y-75020500D01*
X75837677Y-75020500D02*
X75922344Y-74978166D01*
X75922344Y-74978166D02*
X76134011Y-74978166D01*
X76134011Y-74978166D02*
X76218677Y-75020500D01*
X76218677Y-75020500D02*
X76261011Y-75062833D01*
X76261011Y-75062833D02*
X76303344Y-75147500D01*
X76303344Y-75147500D02*
X76303344Y-75401500D01*
X76303344Y-75401500D02*
X76261011Y-75486166D01*
X76261011Y-75486166D02*
X76218677Y-75528500D01*
X90815333Y-77688011D02*
X90730666Y-77645677D01*
X90730666Y-77645677D02*
X90646000Y-77561011D01*
X90646000Y-77561011D02*
X90519000Y-77434011D01*
X90519000Y-77434011D02*
X90434333Y-77391677D01*
X90434333Y-77391677D02*
X90349666Y-77391677D01*
X90392000Y-77603344D02*
X90307333Y-77561011D01*
X90307333Y-77561011D02*
X90222666Y-77476344D01*
X90222666Y-77476344D02*
X90180333Y-77307011D01*
X90180333Y-77307011D02*
X90180333Y-77010677D01*
X90180333Y-77010677D02*
X90222666Y-76841344D01*
X90222666Y-76841344D02*
X90307333Y-76756677D01*
X90307333Y-76756677D02*
X90392000Y-76714344D01*
X90392000Y-76714344D02*
X90561333Y-76714344D01*
X90561333Y-76714344D02*
X90646000Y-76756677D01*
X90646000Y-76756677D02*
X90730666Y-76841344D01*
X90730666Y-76841344D02*
X90773000Y-77010677D01*
X90773000Y-77010677D02*
X90773000Y-77307011D01*
X90773000Y-77307011D02*
X90730666Y-77476344D01*
X90730666Y-77476344D02*
X90646000Y-77561011D01*
X90646000Y-77561011D02*
X90561333Y-77603344D01*
X90561333Y-77603344D02*
X90392000Y-77603344D01*
X91619666Y-77603344D02*
X91111666Y-77603344D01*
X91365666Y-77603344D02*
X91365666Y-76714344D01*
X91365666Y-76714344D02*
X91280999Y-76841344D01*
X91280999Y-76841344D02*
X91196333Y-76926011D01*
X91196333Y-76926011D02*
X91111666Y-76968344D01*
X75814344Y-72121833D02*
X75814344Y-71613833D01*
X76703344Y-71867833D02*
X75814344Y-71867833D01*
X76703344Y-71317500D02*
X75814344Y-71317500D01*
X75814344Y-71317500D02*
X75814344Y-70978833D01*
X75814344Y-70978833D02*
X75856677Y-70894167D01*
X75856677Y-70894167D02*
X75899011Y-70851833D01*
X75899011Y-70851833D02*
X75983677Y-70809500D01*
X75983677Y-70809500D02*
X76110677Y-70809500D01*
X76110677Y-70809500D02*
X76195344Y-70851833D01*
X76195344Y-70851833D02*
X76237677Y-70894167D01*
X76237677Y-70894167D02*
X76280011Y-70978833D01*
X76280011Y-70978833D02*
X76280011Y-71317500D01*
X75814344Y-70047500D02*
X75814344Y-70216833D01*
X75814344Y-70216833D02*
X75856677Y-70301500D01*
X75856677Y-70301500D02*
X75899011Y-70343833D01*
X75899011Y-70343833D02*
X76026011Y-70428500D01*
X76026011Y-70428500D02*
X76195344Y-70470833D01*
X76195344Y-70470833D02*
X76534011Y-70470833D01*
X76534011Y-70470833D02*
X76618677Y-70428500D01*
X76618677Y-70428500D02*
X76661011Y-70386167D01*
X76661011Y-70386167D02*
X76703344Y-70301500D01*
X76703344Y-70301500D02*
X76703344Y-70132167D01*
X76703344Y-70132167D02*
X76661011Y-70047500D01*
X76661011Y-70047500D02*
X76618677Y-70005167D01*
X76618677Y-70005167D02*
X76534011Y-69962833D01*
X76534011Y-69962833D02*
X76322344Y-69962833D01*
X76322344Y-69962833D02*
X76237677Y-70005167D01*
X76237677Y-70005167D02*
X76195344Y-70047500D01*
X76195344Y-70047500D02*
X76153011Y-70132167D01*
X76153011Y-70132167D02*
X76153011Y-70301500D01*
X76153011Y-70301500D02*
X76195344Y-70386167D01*
X76195344Y-70386167D02*
X76237677Y-70428500D01*
X76237677Y-70428500D02*
X76322344Y-70470833D01*
X71128499Y-65018677D02*
X71086166Y-65061011D01*
X71086166Y-65061011D02*
X70959166Y-65103344D01*
X70959166Y-65103344D02*
X70874499Y-65103344D01*
X70874499Y-65103344D02*
X70747499Y-65061011D01*
X70747499Y-65061011D02*
X70662833Y-64976344D01*
X70662833Y-64976344D02*
X70620499Y-64891677D01*
X70620499Y-64891677D02*
X70578166Y-64722344D01*
X70578166Y-64722344D02*
X70578166Y-64595344D01*
X70578166Y-64595344D02*
X70620499Y-64426011D01*
X70620499Y-64426011D02*
X70662833Y-64341344D01*
X70662833Y-64341344D02*
X70747499Y-64256677D01*
X70747499Y-64256677D02*
X70874499Y-64214344D01*
X70874499Y-64214344D02*
X70959166Y-64214344D01*
X70959166Y-64214344D02*
X71086166Y-64256677D01*
X71086166Y-64256677D02*
X71128499Y-64299011D01*
X71975166Y-65103344D02*
X71467166Y-65103344D01*
X71721166Y-65103344D02*
X71721166Y-64214344D01*
X71721166Y-64214344D02*
X71636499Y-64341344D01*
X71636499Y-64341344D02*
X71551833Y-64426011D01*
X71551833Y-64426011D02*
X71467166Y-64468344D01*
X72525500Y-64214344D02*
X72610166Y-64214344D01*
X72610166Y-64214344D02*
X72694833Y-64256677D01*
X72694833Y-64256677D02*
X72737166Y-64299011D01*
X72737166Y-64299011D02*
X72779500Y-64383677D01*
X72779500Y-64383677D02*
X72821833Y-64553011D01*
X72821833Y-64553011D02*
X72821833Y-64764677D01*
X72821833Y-64764677D02*
X72779500Y-64934011D01*
X72779500Y-64934011D02*
X72737166Y-65018677D01*
X72737166Y-65018677D02*
X72694833Y-65061011D01*
X72694833Y-65061011D02*
X72610166Y-65103344D01*
X72610166Y-65103344D02*
X72525500Y-65103344D01*
X72525500Y-65103344D02*
X72440833Y-65061011D01*
X72440833Y-65061011D02*
X72398500Y-65018677D01*
X72398500Y-65018677D02*
X72356166Y-64934011D01*
X72356166Y-64934011D02*
X72313833Y-64764677D01*
X72313833Y-64764677D02*
X72313833Y-64553011D01*
X72313833Y-64553011D02*
X72356166Y-64383677D01*
X72356166Y-64383677D02*
X72398500Y-64299011D01*
X72398500Y-64299011D02*
X72440833Y-64256677D01*
X72440833Y-64256677D02*
X72525500Y-64214344D01*
X76218677Y-62466666D02*
X76261011Y-62508999D01*
X76261011Y-62508999D02*
X76303344Y-62635999D01*
X76303344Y-62635999D02*
X76303344Y-62720666D01*
X76303344Y-62720666D02*
X76261011Y-62847666D01*
X76261011Y-62847666D02*
X76176344Y-62932333D01*
X76176344Y-62932333D02*
X76091677Y-62974666D01*
X76091677Y-62974666D02*
X75922344Y-63016999D01*
X75922344Y-63016999D02*
X75795344Y-63016999D01*
X75795344Y-63016999D02*
X75626011Y-62974666D01*
X75626011Y-62974666D02*
X75541344Y-62932333D01*
X75541344Y-62932333D02*
X75456677Y-62847666D01*
X75456677Y-62847666D02*
X75414344Y-62720666D01*
X75414344Y-62720666D02*
X75414344Y-62635999D01*
X75414344Y-62635999D02*
X75456677Y-62508999D01*
X75456677Y-62508999D02*
X75499011Y-62466666D01*
X76303344Y-62043333D02*
X76303344Y-61873999D01*
X76303344Y-61873999D02*
X76261011Y-61789333D01*
X76261011Y-61789333D02*
X76218677Y-61746999D01*
X76218677Y-61746999D02*
X76091677Y-61662333D01*
X76091677Y-61662333D02*
X75922344Y-61619999D01*
X75922344Y-61619999D02*
X75583677Y-61619999D01*
X75583677Y-61619999D02*
X75499011Y-61662333D01*
X75499011Y-61662333D02*
X75456677Y-61704666D01*
X75456677Y-61704666D02*
X75414344Y-61789333D01*
X75414344Y-61789333D02*
X75414344Y-61958666D01*
X75414344Y-61958666D02*
X75456677Y-62043333D01*
X75456677Y-62043333D02*
X75499011Y-62085666D01*
X75499011Y-62085666D02*
X75583677Y-62127999D01*
X75583677Y-62127999D02*
X75795344Y-62127999D01*
X75795344Y-62127999D02*
X75880011Y-62085666D01*
X75880011Y-62085666D02*
X75922344Y-62043333D01*
X75922344Y-62043333D02*
X75964677Y-61958666D01*
X75964677Y-61958666D02*
X75964677Y-61789333D01*
X75964677Y-61789333D02*
X75922344Y-61704666D01*
X75922344Y-61704666D02*
X75880011Y-61662333D01*
X75880011Y-61662333D02*
X75795344Y-61619999D01*
X78322666Y-77314344D02*
X78322666Y-78034011D01*
X78322666Y-78034011D02*
X78365000Y-78118677D01*
X78365000Y-78118677D02*
X78407333Y-78161011D01*
X78407333Y-78161011D02*
X78492000Y-78203344D01*
X78492000Y-78203344D02*
X78661333Y-78203344D01*
X78661333Y-78203344D02*
X78746000Y-78161011D01*
X78746000Y-78161011D02*
X78788333Y-78118677D01*
X78788333Y-78118677D02*
X78830666Y-78034011D01*
X78830666Y-78034011D02*
X78830666Y-77314344D01*
X79677333Y-77314344D02*
X79253999Y-77314344D01*
X79253999Y-77314344D02*
X79211666Y-77737677D01*
X79211666Y-77737677D02*
X79253999Y-77695344D01*
X79253999Y-77695344D02*
X79338666Y-77653011D01*
X79338666Y-77653011D02*
X79550333Y-77653011D01*
X79550333Y-77653011D02*
X79634999Y-77695344D01*
X79634999Y-77695344D02*
X79677333Y-77737677D01*
X79677333Y-77737677D02*
X79719666Y-77822344D01*
X79719666Y-77822344D02*
X79719666Y-78034011D01*
X79719666Y-78034011D02*
X79677333Y-78118677D01*
X79677333Y-78118677D02*
X79634999Y-78161011D01*
X79634999Y-78161011D02*
X79550333Y-78203344D01*
X79550333Y-78203344D02*
X79338666Y-78203344D01*
X79338666Y-78203344D02*
X79253999Y-78161011D01*
X79253999Y-78161011D02*
X79211666Y-78118677D01*
X74328499Y-69903344D02*
X74032166Y-69480011D01*
X73820499Y-69903344D02*
X73820499Y-69014344D01*
X73820499Y-69014344D02*
X74159166Y-69014344D01*
X74159166Y-69014344D02*
X74243833Y-69056677D01*
X74243833Y-69056677D02*
X74286166Y-69099011D01*
X74286166Y-69099011D02*
X74328499Y-69183677D01*
X74328499Y-69183677D02*
X74328499Y-69310677D01*
X74328499Y-69310677D02*
X74286166Y-69395344D01*
X74286166Y-69395344D02*
X74243833Y-69437677D01*
X74243833Y-69437677D02*
X74159166Y-69480011D01*
X74159166Y-69480011D02*
X73820499Y-69480011D01*
X75175166Y-69903344D02*
X74667166Y-69903344D01*
X74921166Y-69903344D02*
X74921166Y-69014344D01*
X74921166Y-69014344D02*
X74836499Y-69141344D01*
X74836499Y-69141344D02*
X74751833Y-69226011D01*
X74751833Y-69226011D02*
X74667166Y-69268344D01*
X75725500Y-69014344D02*
X75810166Y-69014344D01*
X75810166Y-69014344D02*
X75894833Y-69056677D01*
X75894833Y-69056677D02*
X75937166Y-69099011D01*
X75937166Y-69099011D02*
X75979500Y-69183677D01*
X75979500Y-69183677D02*
X76021833Y-69353011D01*
X76021833Y-69353011D02*
X76021833Y-69564677D01*
X76021833Y-69564677D02*
X75979500Y-69734011D01*
X75979500Y-69734011D02*
X75937166Y-69818677D01*
X75937166Y-69818677D02*
X75894833Y-69861011D01*
X75894833Y-69861011D02*
X75810166Y-69903344D01*
X75810166Y-69903344D02*
X75725500Y-69903344D01*
X75725500Y-69903344D02*
X75640833Y-69861011D01*
X75640833Y-69861011D02*
X75598500Y-69818677D01*
X75598500Y-69818677D02*
X75556166Y-69734011D01*
X75556166Y-69734011D02*
X75513833Y-69564677D01*
X75513833Y-69564677D02*
X75513833Y-69353011D01*
X75513833Y-69353011D02*
X75556166Y-69183677D01*
X75556166Y-69183677D02*
X75598500Y-69099011D01*
X75598500Y-69099011D02*
X75640833Y-69056677D01*
X75640833Y-69056677D02*
X75725500Y-69014344D01*
X65551833Y-63203344D02*
X65128499Y-63203344D01*
X65128499Y-63203344D02*
X65128499Y-62314344D01*
X66313833Y-63203344D02*
X65805833Y-63203344D01*
X66059833Y-63203344D02*
X66059833Y-62314344D01*
X66059833Y-62314344D02*
X65975166Y-62441344D01*
X65975166Y-62441344D02*
X65890500Y-62526011D01*
X65890500Y-62526011D02*
X65805833Y-62568344D01*
X84128499Y-81818677D02*
X84086166Y-81861011D01*
X84086166Y-81861011D02*
X83959166Y-81903344D01*
X83959166Y-81903344D02*
X83874499Y-81903344D01*
X83874499Y-81903344D02*
X83747499Y-81861011D01*
X83747499Y-81861011D02*
X83662833Y-81776344D01*
X83662833Y-81776344D02*
X83620499Y-81691677D01*
X83620499Y-81691677D02*
X83578166Y-81522344D01*
X83578166Y-81522344D02*
X83578166Y-81395344D01*
X83578166Y-81395344D02*
X83620499Y-81226011D01*
X83620499Y-81226011D02*
X83662833Y-81141344D01*
X83662833Y-81141344D02*
X83747499Y-81056677D01*
X83747499Y-81056677D02*
X83874499Y-81014344D01*
X83874499Y-81014344D02*
X83959166Y-81014344D01*
X83959166Y-81014344D02*
X84086166Y-81056677D01*
X84086166Y-81056677D02*
X84128499Y-81099011D01*
X84890499Y-81310677D02*
X84890499Y-81903344D01*
X84678833Y-80972011D02*
X84467166Y-81607011D01*
X84467166Y-81607011D02*
X85017499Y-81607011D01*
X85483166Y-81395344D02*
X85398500Y-81353011D01*
X85398500Y-81353011D02*
X85356166Y-81310677D01*
X85356166Y-81310677D02*
X85313833Y-81226011D01*
X85313833Y-81226011D02*
X85313833Y-81183677D01*
X85313833Y-81183677D02*
X85356166Y-81099011D01*
X85356166Y-81099011D02*
X85398500Y-81056677D01*
X85398500Y-81056677D02*
X85483166Y-81014344D01*
X85483166Y-81014344D02*
X85652500Y-81014344D01*
X85652500Y-81014344D02*
X85737166Y-81056677D01*
X85737166Y-81056677D02*
X85779500Y-81099011D01*
X85779500Y-81099011D02*
X85821833Y-81183677D01*
X85821833Y-81183677D02*
X85821833Y-81226011D01*
X85821833Y-81226011D02*
X85779500Y-81310677D01*
X85779500Y-81310677D02*
X85737166Y-81353011D01*
X85737166Y-81353011D02*
X85652500Y-81395344D01*
X85652500Y-81395344D02*
X85483166Y-81395344D01*
X85483166Y-81395344D02*
X85398500Y-81437677D01*
X85398500Y-81437677D02*
X85356166Y-81480011D01*
X85356166Y-81480011D02*
X85313833Y-81564677D01*
X85313833Y-81564677D02*
X85313833Y-81734011D01*
X85313833Y-81734011D02*
X85356166Y-81818677D01*
X85356166Y-81818677D02*
X85398500Y-81861011D01*
X85398500Y-81861011D02*
X85483166Y-81903344D01*
X85483166Y-81903344D02*
X85652500Y-81903344D01*
X85652500Y-81903344D02*
X85737166Y-81861011D01*
X85737166Y-81861011D02*
X85779500Y-81818677D01*
X85779500Y-81818677D02*
X85821833Y-81734011D01*
X85821833Y-81734011D02*
X85821833Y-81564677D01*
X85821833Y-81564677D02*
X85779500Y-81480011D01*
X85779500Y-81480011D02*
X85737166Y-81437677D01*
X85737166Y-81437677D02*
X85652500Y-81395344D01*
X82922666Y-69214344D02*
X82922666Y-69934011D01*
X82922666Y-69934011D02*
X82965000Y-70018677D01*
X82965000Y-70018677D02*
X83007333Y-70061011D01*
X83007333Y-70061011D02*
X83092000Y-70103344D01*
X83092000Y-70103344D02*
X83261333Y-70103344D01*
X83261333Y-70103344D02*
X83346000Y-70061011D01*
X83346000Y-70061011D02*
X83388333Y-70018677D01*
X83388333Y-70018677D02*
X83430666Y-69934011D01*
X83430666Y-69934011D02*
X83430666Y-69214344D01*
X84234999Y-69510677D02*
X84234999Y-70103344D01*
X84023333Y-69172011D02*
X83811666Y-69807011D01*
X83811666Y-69807011D02*
X84361999Y-69807011D01*
X67903344Y-64456166D02*
X67014344Y-64456166D01*
X67014344Y-64456166D02*
X67014344Y-64244499D01*
X67014344Y-64244499D02*
X67056677Y-64117499D01*
X67056677Y-64117499D02*
X67141344Y-64032833D01*
X67141344Y-64032833D02*
X67226011Y-63990499D01*
X67226011Y-63990499D02*
X67395344Y-63948166D01*
X67395344Y-63948166D02*
X67522344Y-63948166D01*
X67522344Y-63948166D02*
X67691677Y-63990499D01*
X67691677Y-63990499D02*
X67776344Y-64032833D01*
X67776344Y-64032833D02*
X67861011Y-64117499D01*
X67861011Y-64117499D02*
X67903344Y-64244499D01*
X67903344Y-64244499D02*
X67903344Y-64456166D01*
X67903344Y-63101499D02*
X67903344Y-63609499D01*
X67903344Y-63355499D02*
X67014344Y-63355499D01*
X67014344Y-63355499D02*
X67141344Y-63440166D01*
X67141344Y-63440166D02*
X67226011Y-63524833D01*
X67226011Y-63524833D02*
X67268344Y-63609499D01*
X90828499Y-59603344D02*
X90532166Y-59180011D01*
X90320499Y-59603344D02*
X90320499Y-58714344D01*
X90320499Y-58714344D02*
X90659166Y-58714344D01*
X90659166Y-58714344D02*
X90743833Y-58756677D01*
X90743833Y-58756677D02*
X90786166Y-58799011D01*
X90786166Y-58799011D02*
X90828499Y-58883677D01*
X90828499Y-58883677D02*
X90828499Y-59010677D01*
X90828499Y-59010677D02*
X90786166Y-59095344D01*
X90786166Y-59095344D02*
X90743833Y-59137677D01*
X90743833Y-59137677D02*
X90659166Y-59180011D01*
X90659166Y-59180011D02*
X90320499Y-59180011D01*
X91590499Y-59010677D02*
X91590499Y-59603344D01*
X91378833Y-58672011D02*
X91167166Y-59307011D01*
X91167166Y-59307011D02*
X91717499Y-59307011D01*
X92437166Y-58714344D02*
X92267833Y-58714344D01*
X92267833Y-58714344D02*
X92183166Y-58756677D01*
X92183166Y-58756677D02*
X92140833Y-58799011D01*
X92140833Y-58799011D02*
X92056166Y-58926011D01*
X92056166Y-58926011D02*
X92013833Y-59095344D01*
X92013833Y-59095344D02*
X92013833Y-59434011D01*
X92013833Y-59434011D02*
X92056166Y-59518677D01*
X92056166Y-59518677D02*
X92098500Y-59561011D01*
X92098500Y-59561011D02*
X92183166Y-59603344D01*
X92183166Y-59603344D02*
X92352500Y-59603344D01*
X92352500Y-59603344D02*
X92437166Y-59561011D01*
X92437166Y-59561011D02*
X92479500Y-59518677D01*
X92479500Y-59518677D02*
X92521833Y-59434011D01*
X92521833Y-59434011D02*
X92521833Y-59222344D01*
X92521833Y-59222344D02*
X92479500Y-59137677D01*
X92479500Y-59137677D02*
X92437166Y-59095344D01*
X92437166Y-59095344D02*
X92352500Y-59053011D01*
X92352500Y-59053011D02*
X92183166Y-59053011D01*
X92183166Y-59053011D02*
X92098500Y-59095344D01*
X92098500Y-59095344D02*
X92056166Y-59137677D01*
X92056166Y-59137677D02*
X92013833Y-59222344D01*
X67451833Y-66503344D02*
X67155500Y-66080011D01*
X66943833Y-66503344D02*
X66943833Y-65614344D01*
X66943833Y-65614344D02*
X67282500Y-65614344D01*
X67282500Y-65614344D02*
X67367167Y-65656677D01*
X67367167Y-65656677D02*
X67409500Y-65699011D01*
X67409500Y-65699011D02*
X67451833Y-65783677D01*
X67451833Y-65783677D02*
X67451833Y-65910677D01*
X67451833Y-65910677D02*
X67409500Y-65995344D01*
X67409500Y-65995344D02*
X67367167Y-66037677D01*
X67367167Y-66037677D02*
X67282500Y-66080011D01*
X67282500Y-66080011D02*
X66943833Y-66080011D01*
X67875167Y-66503344D02*
X68044500Y-66503344D01*
X68044500Y-66503344D02*
X68129167Y-66461011D01*
X68129167Y-66461011D02*
X68171500Y-66418677D01*
X68171500Y-66418677D02*
X68256167Y-66291677D01*
X68256167Y-66291677D02*
X68298500Y-66122344D01*
X68298500Y-66122344D02*
X68298500Y-65783677D01*
X68298500Y-65783677D02*
X68256167Y-65699011D01*
X68256167Y-65699011D02*
X68213833Y-65656677D01*
X68213833Y-65656677D02*
X68129167Y-65614344D01*
X68129167Y-65614344D02*
X67959833Y-65614344D01*
X67959833Y-65614344D02*
X67875167Y-65656677D01*
X67875167Y-65656677D02*
X67832833Y-65699011D01*
X67832833Y-65699011D02*
X67790500Y-65783677D01*
X67790500Y-65783677D02*
X67790500Y-65995344D01*
X67790500Y-65995344D02*
X67832833Y-66080011D01*
X67832833Y-66080011D02*
X67875167Y-66122344D01*
X67875167Y-66122344D02*
X67959833Y-66164677D01*
X67959833Y-66164677D02*
X68129167Y-66164677D01*
X68129167Y-66164677D02*
X68213833Y-66122344D01*
X68213833Y-66122344D02*
X68256167Y-66080011D01*
X68256167Y-66080011D02*
X68298500Y-65995344D01*
X80203666Y-51014344D02*
X80203666Y-51649344D01*
X80203666Y-51649344D02*
X80161333Y-51776344D01*
X80161333Y-51776344D02*
X80076666Y-51861011D01*
X80076666Y-51861011D02*
X79949666Y-51903344D01*
X79949666Y-51903344D02*
X79865000Y-51903344D01*
X80542333Y-51014344D02*
X81092666Y-51014344D01*
X81092666Y-51014344D02*
X80796333Y-51353011D01*
X80796333Y-51353011D02*
X80923333Y-51353011D01*
X80923333Y-51353011D02*
X81007999Y-51395344D01*
X81007999Y-51395344D02*
X81050333Y-51437677D01*
X81050333Y-51437677D02*
X81092666Y-51522344D01*
X81092666Y-51522344D02*
X81092666Y-51734011D01*
X81092666Y-51734011D02*
X81050333Y-51818677D01*
X81050333Y-51818677D02*
X81007999Y-51861011D01*
X81007999Y-51861011D02*
X80923333Y-51903344D01*
X80923333Y-51903344D02*
X80669333Y-51903344D01*
X80669333Y-51903344D02*
X80584666Y-51861011D01*
X80584666Y-51861011D02*
X80542333Y-51818677D01*
D13*
X90857142Y-61259580D02*
X90809523Y-61307200D01*
X90809523Y-61307200D02*
X90666666Y-61354819D01*
X90666666Y-61354819D02*
X90571428Y-61354819D01*
X90571428Y-61354819D02*
X90428571Y-61307200D01*
X90428571Y-61307200D02*
X90333333Y-61211961D01*
X90333333Y-61211961D02*
X90285714Y-61116723D01*
X90285714Y-61116723D02*
X90238095Y-60926247D01*
X90238095Y-60926247D02*
X90238095Y-60783390D01*
X90238095Y-60783390D02*
X90285714Y-60592914D01*
X90285714Y-60592914D02*
X90333333Y-60497676D01*
X90333333Y-60497676D02*
X90428571Y-60402438D01*
X90428571Y-60402438D02*
X90571428Y-60354819D01*
X90571428Y-60354819D02*
X90666666Y-60354819D01*
X90666666Y-60354819D02*
X90809523Y-60402438D01*
X90809523Y-60402438D02*
X90857142Y-60450057D01*
X91761904Y-60354819D02*
X91285714Y-60354819D01*
X91285714Y-60354819D02*
X91238095Y-60831009D01*
X91238095Y-60831009D02*
X91285714Y-60783390D01*
X91285714Y-60783390D02*
X91380952Y-60735771D01*
X91380952Y-60735771D02*
X91619047Y-60735771D01*
X91619047Y-60735771D02*
X91714285Y-60783390D01*
X91714285Y-60783390D02*
X91761904Y-60831009D01*
X91761904Y-60831009D02*
X91809523Y-60926247D01*
X91809523Y-60926247D02*
X91809523Y-61164342D01*
X91809523Y-61164342D02*
X91761904Y-61259580D01*
X91761904Y-61259580D02*
X91714285Y-61307200D01*
X91714285Y-61307200D02*
X91619047Y-61354819D01*
X91619047Y-61354819D02*
X91380952Y-61354819D01*
X91380952Y-61354819D02*
X91285714Y-61307200D01*
X91285714Y-61307200D02*
X91238095Y-61259580D01*
X92142857Y-60354819D02*
X92761904Y-60354819D01*
X92761904Y-60354819D02*
X92428571Y-60735771D01*
X92428571Y-60735771D02*
X92571428Y-60735771D01*
X92571428Y-60735771D02*
X92666666Y-60783390D01*
X92666666Y-60783390D02*
X92714285Y-60831009D01*
X92714285Y-60831009D02*
X92761904Y-60926247D01*
X92761904Y-60926247D02*
X92761904Y-61164342D01*
X92761904Y-61164342D02*
X92714285Y-61259580D01*
X92714285Y-61259580D02*
X92666666Y-61307200D01*
X92666666Y-61307200D02*
X92571428Y-61354819D01*
X92571428Y-61354819D02*
X92285714Y-61354819D01*
X92285714Y-61354819D02*
X92190476Y-61307200D01*
X92190476Y-61307200D02*
X92142857Y-61259580D01*
D12*
X62092344Y-57429000D02*
X61669011Y-57725333D01*
X62092344Y-57937000D02*
X61203344Y-57937000D01*
X61203344Y-57937000D02*
X61203344Y-57598333D01*
X61203344Y-57598333D02*
X61245677Y-57513667D01*
X61245677Y-57513667D02*
X61288011Y-57471333D01*
X61288011Y-57471333D02*
X61372677Y-57429000D01*
X61372677Y-57429000D02*
X61499677Y-57429000D01*
X61499677Y-57429000D02*
X61584344Y-57471333D01*
X61584344Y-57471333D02*
X61626677Y-57513667D01*
X61626677Y-57513667D02*
X61669011Y-57598333D01*
X61669011Y-57598333D02*
X61669011Y-57937000D01*
X62092344Y-56582333D02*
X62092344Y-57090333D01*
X62092344Y-56836333D02*
X61203344Y-56836333D01*
X61203344Y-56836333D02*
X61330344Y-56921000D01*
X61330344Y-56921000D02*
X61415011Y-57005667D01*
X61415011Y-57005667D02*
X61457344Y-57090333D01*
X61203344Y-56286000D02*
X61203344Y-55735666D01*
X61203344Y-55735666D02*
X61542011Y-56032000D01*
X61542011Y-56032000D02*
X61542011Y-55905000D01*
X61542011Y-55905000D02*
X61584344Y-55820333D01*
X61584344Y-55820333D02*
X61626677Y-55778000D01*
X61626677Y-55778000D02*
X61711344Y-55735666D01*
X61711344Y-55735666D02*
X61923011Y-55735666D01*
X61923011Y-55735666D02*
X62007677Y-55778000D01*
X62007677Y-55778000D02*
X62050011Y-55820333D01*
X62050011Y-55820333D02*
X62092344Y-55905000D01*
X62092344Y-55905000D02*
X62092344Y-56159000D01*
X62092344Y-56159000D02*
X62050011Y-56243666D01*
X62050011Y-56243666D02*
X62007677Y-56286000D01*
X84328499Y-79218677D02*
X84286166Y-79261011D01*
X84286166Y-79261011D02*
X84159166Y-79303344D01*
X84159166Y-79303344D02*
X84074499Y-79303344D01*
X84074499Y-79303344D02*
X83947499Y-79261011D01*
X83947499Y-79261011D02*
X83862833Y-79176344D01*
X83862833Y-79176344D02*
X83820499Y-79091677D01*
X83820499Y-79091677D02*
X83778166Y-78922344D01*
X83778166Y-78922344D02*
X83778166Y-78795344D01*
X83778166Y-78795344D02*
X83820499Y-78626011D01*
X83820499Y-78626011D02*
X83862833Y-78541344D01*
X83862833Y-78541344D02*
X83947499Y-78456677D01*
X83947499Y-78456677D02*
X84074499Y-78414344D01*
X84074499Y-78414344D02*
X84159166Y-78414344D01*
X84159166Y-78414344D02*
X84286166Y-78456677D01*
X84286166Y-78456677D02*
X84328499Y-78499011D01*
X85175166Y-79303344D02*
X84667166Y-79303344D01*
X84921166Y-79303344D02*
X84921166Y-78414344D01*
X84921166Y-78414344D02*
X84836499Y-78541344D01*
X84836499Y-78541344D02*
X84751833Y-78626011D01*
X84751833Y-78626011D02*
X84667166Y-78668344D01*
X85937166Y-78710677D02*
X85937166Y-79303344D01*
X85725500Y-78372011D02*
X85513833Y-79007011D01*
X85513833Y-79007011D02*
X86064166Y-79007011D01*
D13*
X97304089Y-51173319D02*
X97304089Y-51982842D01*
X97304089Y-51982842D02*
X97351708Y-52078080D01*
X97351708Y-52078080D02*
X97399327Y-52125700D01*
X97399327Y-52125700D02*
X97494565Y-52173319D01*
X97494565Y-52173319D02*
X97685041Y-52173319D01*
X97685041Y-52173319D02*
X97780279Y-52125700D01*
X97780279Y-52125700D02*
X97827898Y-52078080D01*
X97827898Y-52078080D02*
X97875517Y-51982842D01*
X97875517Y-51982842D02*
X97875517Y-51173319D01*
X98780279Y-51173319D02*
X98589803Y-51173319D01*
X98589803Y-51173319D02*
X98494565Y-51220938D01*
X98494565Y-51220938D02*
X98446946Y-51268557D01*
X98446946Y-51268557D02*
X98351708Y-51411414D01*
X98351708Y-51411414D02*
X98304089Y-51601890D01*
X98304089Y-51601890D02*
X98304089Y-51982842D01*
X98304089Y-51982842D02*
X98351708Y-52078080D01*
X98351708Y-52078080D02*
X98399327Y-52125700D01*
X98399327Y-52125700D02*
X98494565Y-52173319D01*
X98494565Y-52173319D02*
X98685041Y-52173319D01*
X98685041Y-52173319D02*
X98780279Y-52125700D01*
X98780279Y-52125700D02*
X98827898Y-52078080D01*
X98827898Y-52078080D02*
X98875517Y-51982842D01*
X98875517Y-51982842D02*
X98875517Y-51744747D01*
X98875517Y-51744747D02*
X98827898Y-51649509D01*
X98827898Y-51649509D02*
X98780279Y-51601890D01*
X98780279Y-51601890D02*
X98685041Y-51554271D01*
X98685041Y-51554271D02*
X98494565Y-51554271D01*
X98494565Y-51554271D02*
X98399327Y-51601890D01*
X98399327Y-51601890D02*
X98351708Y-51649509D01*
X98351708Y-51649509D02*
X98304089Y-51744747D01*
D12*
X65528499Y-55403344D02*
X65232166Y-54980011D01*
X65020499Y-55403344D02*
X65020499Y-54514344D01*
X65020499Y-54514344D02*
X65359166Y-54514344D01*
X65359166Y-54514344D02*
X65443833Y-54556677D01*
X65443833Y-54556677D02*
X65486166Y-54599011D01*
X65486166Y-54599011D02*
X65528499Y-54683677D01*
X65528499Y-54683677D02*
X65528499Y-54810677D01*
X65528499Y-54810677D02*
X65486166Y-54895344D01*
X65486166Y-54895344D02*
X65443833Y-54937677D01*
X65443833Y-54937677D02*
X65359166Y-54980011D01*
X65359166Y-54980011D02*
X65020499Y-54980011D01*
X66375166Y-55403344D02*
X65867166Y-55403344D01*
X66121166Y-55403344D02*
X66121166Y-54514344D01*
X66121166Y-54514344D02*
X66036499Y-54641344D01*
X66036499Y-54641344D02*
X65951833Y-54726011D01*
X65951833Y-54726011D02*
X65867166Y-54768344D01*
X67137166Y-54810677D02*
X67137166Y-55403344D01*
X66925500Y-54472011D02*
X66713833Y-55107011D01*
X66713833Y-55107011D02*
X67264166Y-55107011D01*
X53932666Y-51584344D02*
X53932666Y-52219344D01*
X53932666Y-52219344D02*
X53890333Y-52346344D01*
X53890333Y-52346344D02*
X53805666Y-52431011D01*
X53805666Y-52431011D02*
X53678666Y-52473344D01*
X53678666Y-52473344D02*
X53594000Y-52473344D01*
X54313666Y-51669011D02*
X54355999Y-51626677D01*
X54355999Y-51626677D02*
X54440666Y-51584344D01*
X54440666Y-51584344D02*
X54652333Y-51584344D01*
X54652333Y-51584344D02*
X54736999Y-51626677D01*
X54736999Y-51626677D02*
X54779333Y-51669011D01*
X54779333Y-51669011D02*
X54821666Y-51753677D01*
X54821666Y-51753677D02*
X54821666Y-51838344D01*
X54821666Y-51838344D02*
X54779333Y-51965344D01*
X54779333Y-51965344D02*
X54271333Y-52473344D01*
X54271333Y-52473344D02*
X54821666Y-52473344D01*
D13*
X62303953Y-78457502D02*
X62303953Y-79029097D01*
X62303953Y-78743299D02*
X61303662Y-78743299D01*
X61303662Y-78743299D02*
X61446561Y-78838565D01*
X61446561Y-78838565D02*
X61541827Y-78933831D01*
X61541827Y-78933831D02*
X61589460Y-79029097D01*
X52127364Y-79027354D02*
X52079738Y-78979728D01*
X52079738Y-78979728D02*
X52032112Y-78884477D01*
X52032112Y-78884477D02*
X52032112Y-78646348D01*
X52032112Y-78646348D02*
X52079738Y-78551096D01*
X52079738Y-78551096D02*
X52127364Y-78503470D01*
X52127364Y-78503470D02*
X52222616Y-78455845D01*
X52222616Y-78455845D02*
X52317867Y-78455845D01*
X52317867Y-78455845D02*
X52460745Y-78503470D01*
X52460745Y-78503470D02*
X53032254Y-79074980D01*
X53032254Y-79074980D02*
X53032254Y-78455845D01*
D12*
X74014344Y-72721833D02*
X74014344Y-72213833D01*
X74903344Y-72467833D02*
X74014344Y-72467833D01*
X74903344Y-71917500D02*
X74014344Y-71917500D01*
X74014344Y-71917500D02*
X74014344Y-71578833D01*
X74014344Y-71578833D02*
X74056677Y-71494167D01*
X74056677Y-71494167D02*
X74099011Y-71451833D01*
X74099011Y-71451833D02*
X74183677Y-71409500D01*
X74183677Y-71409500D02*
X74310677Y-71409500D01*
X74310677Y-71409500D02*
X74395344Y-71451833D01*
X74395344Y-71451833D02*
X74437677Y-71494167D01*
X74437677Y-71494167D02*
X74480011Y-71578833D01*
X74480011Y-71578833D02*
X74480011Y-71917500D01*
X74014344Y-71113167D02*
X74014344Y-70562833D01*
X74014344Y-70562833D02*
X74353011Y-70859167D01*
X74353011Y-70859167D02*
X74353011Y-70732167D01*
X74353011Y-70732167D02*
X74395344Y-70647500D01*
X74395344Y-70647500D02*
X74437677Y-70605167D01*
X74437677Y-70605167D02*
X74522344Y-70562833D01*
X74522344Y-70562833D02*
X74734011Y-70562833D01*
X74734011Y-70562833D02*
X74818677Y-70605167D01*
X74818677Y-70605167D02*
X74861011Y-70647500D01*
X74861011Y-70647500D02*
X74903344Y-70732167D01*
X74903344Y-70732167D02*
X74903344Y-70986167D01*
X74903344Y-70986167D02*
X74861011Y-71070833D01*
X74861011Y-71070833D02*
X74818677Y-71113167D01*
X67900333Y-77967344D02*
X67604000Y-77544011D01*
X67392333Y-77967344D02*
X67392333Y-77078344D01*
X67392333Y-77078344D02*
X67731000Y-77078344D01*
X67731000Y-77078344D02*
X67815667Y-77120677D01*
X67815667Y-77120677D02*
X67858000Y-77163011D01*
X67858000Y-77163011D02*
X67900333Y-77247677D01*
X67900333Y-77247677D02*
X67900333Y-77374677D01*
X67900333Y-77374677D02*
X67858000Y-77459344D01*
X67858000Y-77459344D02*
X67815667Y-77501677D01*
X67815667Y-77501677D02*
X67731000Y-77544011D01*
X67731000Y-77544011D02*
X67392333Y-77544011D01*
X68239000Y-77163011D02*
X68281333Y-77120677D01*
X68281333Y-77120677D02*
X68366000Y-77078344D01*
X68366000Y-77078344D02*
X68577667Y-77078344D01*
X68577667Y-77078344D02*
X68662333Y-77120677D01*
X68662333Y-77120677D02*
X68704667Y-77163011D01*
X68704667Y-77163011D02*
X68747000Y-77247677D01*
X68747000Y-77247677D02*
X68747000Y-77332344D01*
X68747000Y-77332344D02*
X68704667Y-77459344D01*
X68704667Y-77459344D02*
X68196667Y-77967344D01*
X68196667Y-77967344D02*
X68747000Y-77967344D01*
X78761477Y-68313300D02*
X78803811Y-68355633D01*
X78803811Y-68355633D02*
X78846144Y-68482633D01*
X78846144Y-68482633D02*
X78846144Y-68567300D01*
X78846144Y-68567300D02*
X78803811Y-68694300D01*
X78803811Y-68694300D02*
X78719144Y-68778967D01*
X78719144Y-68778967D02*
X78634477Y-68821300D01*
X78634477Y-68821300D02*
X78465144Y-68863633D01*
X78465144Y-68863633D02*
X78338144Y-68863633D01*
X78338144Y-68863633D02*
X78168811Y-68821300D01*
X78168811Y-68821300D02*
X78084144Y-68778967D01*
X78084144Y-68778967D02*
X77999477Y-68694300D01*
X77999477Y-68694300D02*
X77957144Y-68567300D01*
X77957144Y-68567300D02*
X77957144Y-68482633D01*
X77957144Y-68482633D02*
X77999477Y-68355633D01*
X77999477Y-68355633D02*
X78041811Y-68313300D01*
X78846144Y-67466633D02*
X78846144Y-67974633D01*
X78846144Y-67720633D02*
X77957144Y-67720633D01*
X77957144Y-67720633D02*
X78084144Y-67805300D01*
X78084144Y-67805300D02*
X78168811Y-67889967D01*
X78168811Y-67889967D02*
X78211144Y-67974633D01*
X78846144Y-66619966D02*
X78846144Y-67127966D01*
X78846144Y-66873966D02*
X77957144Y-66873966D01*
X77957144Y-66873966D02*
X78084144Y-66958633D01*
X78084144Y-66958633D02*
X78168811Y-67043300D01*
X78168811Y-67043300D02*
X78211144Y-67127966D01*
X86418677Y-74471500D02*
X86461011Y-74513833D01*
X86461011Y-74513833D02*
X86503344Y-74640833D01*
X86503344Y-74640833D02*
X86503344Y-74725500D01*
X86503344Y-74725500D02*
X86461011Y-74852500D01*
X86461011Y-74852500D02*
X86376344Y-74937167D01*
X86376344Y-74937167D02*
X86291677Y-74979500D01*
X86291677Y-74979500D02*
X86122344Y-75021833D01*
X86122344Y-75021833D02*
X85995344Y-75021833D01*
X85995344Y-75021833D02*
X85826011Y-74979500D01*
X85826011Y-74979500D02*
X85741344Y-74937167D01*
X85741344Y-74937167D02*
X85656677Y-74852500D01*
X85656677Y-74852500D02*
X85614344Y-74725500D01*
X85614344Y-74725500D02*
X85614344Y-74640833D01*
X85614344Y-74640833D02*
X85656677Y-74513833D01*
X85656677Y-74513833D02*
X85699011Y-74471500D01*
X86503344Y-73624833D02*
X86503344Y-74132833D01*
X86503344Y-73878833D02*
X85614344Y-73878833D01*
X85614344Y-73878833D02*
X85741344Y-73963500D01*
X85741344Y-73963500D02*
X85826011Y-74048167D01*
X85826011Y-74048167D02*
X85868344Y-74132833D01*
X85614344Y-72820500D02*
X85614344Y-73243833D01*
X85614344Y-73243833D02*
X86037677Y-73286166D01*
X86037677Y-73286166D02*
X85995344Y-73243833D01*
X85995344Y-73243833D02*
X85953011Y-73159166D01*
X85953011Y-73159166D02*
X85953011Y-72947500D01*
X85953011Y-72947500D02*
X85995344Y-72862833D01*
X85995344Y-72862833D02*
X86037677Y-72820500D01*
X86037677Y-72820500D02*
X86122344Y-72778166D01*
X86122344Y-72778166D02*
X86334011Y-72778166D01*
X86334011Y-72778166D02*
X86418677Y-72820500D01*
X86418677Y-72820500D02*
X86461011Y-72862833D01*
X86461011Y-72862833D02*
X86503344Y-72947500D01*
X86503344Y-72947500D02*
X86503344Y-73159166D01*
X86503344Y-73159166D02*
X86461011Y-73243833D01*
X86461011Y-73243833D02*
X86418677Y-73286166D01*
X69951833Y-53018677D02*
X69909500Y-53061011D01*
X69909500Y-53061011D02*
X69782500Y-53103344D01*
X69782500Y-53103344D02*
X69697833Y-53103344D01*
X69697833Y-53103344D02*
X69570833Y-53061011D01*
X69570833Y-53061011D02*
X69486167Y-52976344D01*
X69486167Y-52976344D02*
X69443833Y-52891677D01*
X69443833Y-52891677D02*
X69401500Y-52722344D01*
X69401500Y-52722344D02*
X69401500Y-52595344D01*
X69401500Y-52595344D02*
X69443833Y-52426011D01*
X69443833Y-52426011D02*
X69486167Y-52341344D01*
X69486167Y-52341344D02*
X69570833Y-52256677D01*
X69570833Y-52256677D02*
X69697833Y-52214344D01*
X69697833Y-52214344D02*
X69782500Y-52214344D01*
X69782500Y-52214344D02*
X69909500Y-52256677D01*
X69909500Y-52256677D02*
X69951833Y-52299011D01*
X70459833Y-52595344D02*
X70375167Y-52553011D01*
X70375167Y-52553011D02*
X70332833Y-52510677D01*
X70332833Y-52510677D02*
X70290500Y-52426011D01*
X70290500Y-52426011D02*
X70290500Y-52383677D01*
X70290500Y-52383677D02*
X70332833Y-52299011D01*
X70332833Y-52299011D02*
X70375167Y-52256677D01*
X70375167Y-52256677D02*
X70459833Y-52214344D01*
X70459833Y-52214344D02*
X70629167Y-52214344D01*
X70629167Y-52214344D02*
X70713833Y-52256677D01*
X70713833Y-52256677D02*
X70756167Y-52299011D01*
X70756167Y-52299011D02*
X70798500Y-52383677D01*
X70798500Y-52383677D02*
X70798500Y-52426011D01*
X70798500Y-52426011D02*
X70756167Y-52510677D01*
X70756167Y-52510677D02*
X70713833Y-52553011D01*
X70713833Y-52553011D02*
X70629167Y-52595344D01*
X70629167Y-52595344D02*
X70459833Y-52595344D01*
X70459833Y-52595344D02*
X70375167Y-52637677D01*
X70375167Y-52637677D02*
X70332833Y-52680011D01*
X70332833Y-52680011D02*
X70290500Y-52764677D01*
X70290500Y-52764677D02*
X70290500Y-52934011D01*
X70290500Y-52934011D02*
X70332833Y-53018677D01*
X70332833Y-53018677D02*
X70375167Y-53061011D01*
X70375167Y-53061011D02*
X70459833Y-53103344D01*
X70459833Y-53103344D02*
X70629167Y-53103344D01*
X70629167Y-53103344D02*
X70713833Y-53061011D01*
X70713833Y-53061011D02*
X70756167Y-53018677D01*
X70756167Y-53018677D02*
X70798500Y-52934011D01*
X70798500Y-52934011D02*
X70798500Y-52764677D01*
X70798500Y-52764677D02*
X70756167Y-52680011D01*
X70756167Y-52680011D02*
X70713833Y-52637677D01*
X70713833Y-52637677D02*
X70629167Y-52595344D01*
X84857166Y-53438344D02*
X85365166Y-53438344D01*
X85111166Y-54327344D02*
X85111166Y-53438344D01*
X85661499Y-54327344D02*
X85661499Y-53438344D01*
X85661499Y-53438344D02*
X86000166Y-53438344D01*
X86000166Y-53438344D02*
X86084833Y-53480677D01*
X86084833Y-53480677D02*
X86127166Y-53523011D01*
X86127166Y-53523011D02*
X86169499Y-53607677D01*
X86169499Y-53607677D02*
X86169499Y-53734677D01*
X86169499Y-53734677D02*
X86127166Y-53819344D01*
X86127166Y-53819344D02*
X86084833Y-53861677D01*
X86084833Y-53861677D02*
X86000166Y-53904011D01*
X86000166Y-53904011D02*
X85661499Y-53904011D01*
X86465833Y-53438344D02*
X87058499Y-53438344D01*
X87058499Y-53438344D02*
X86677499Y-54327344D01*
X88343833Y-52403344D02*
X88343833Y-51514344D01*
X88343833Y-51514344D02*
X88555500Y-51514344D01*
X88555500Y-51514344D02*
X88682500Y-51556677D01*
X88682500Y-51556677D02*
X88767167Y-51641344D01*
X88767167Y-51641344D02*
X88809500Y-51726011D01*
X88809500Y-51726011D02*
X88851833Y-51895344D01*
X88851833Y-51895344D02*
X88851833Y-52022344D01*
X88851833Y-52022344D02*
X88809500Y-52191677D01*
X88809500Y-52191677D02*
X88767167Y-52276344D01*
X88767167Y-52276344D02*
X88682500Y-52361011D01*
X88682500Y-52361011D02*
X88555500Y-52403344D01*
X88555500Y-52403344D02*
X88343833Y-52403344D01*
X89148167Y-51514344D02*
X89698500Y-51514344D01*
X89698500Y-51514344D02*
X89402167Y-51853011D01*
X89402167Y-51853011D02*
X89529167Y-51853011D01*
X89529167Y-51853011D02*
X89613833Y-51895344D01*
X89613833Y-51895344D02*
X89656167Y-51937677D01*
X89656167Y-51937677D02*
X89698500Y-52022344D01*
X89698500Y-52022344D02*
X89698500Y-52234011D01*
X89698500Y-52234011D02*
X89656167Y-52318677D01*
X89656167Y-52318677D02*
X89613833Y-52361011D01*
X89613833Y-52361011D02*
X89529167Y-52403344D01*
X89529167Y-52403344D02*
X89275167Y-52403344D01*
X89275167Y-52403344D02*
X89190500Y-52361011D01*
X89190500Y-52361011D02*
X89148167Y-52318677D01*
D10*
X91142115Y-52994580D02*
X91142115Y-53994580D01*
X90570687Y-52994580D02*
X90999258Y-53566009D01*
X90570687Y-53994580D02*
X91142115Y-53423152D01*
D12*
X72322666Y-76414344D02*
X72322666Y-77134011D01*
X72322666Y-77134011D02*
X72365000Y-77218677D01*
X72365000Y-77218677D02*
X72407333Y-77261011D01*
X72407333Y-77261011D02*
X72492000Y-77303344D01*
X72492000Y-77303344D02*
X72661333Y-77303344D01*
X72661333Y-77303344D02*
X72746000Y-77261011D01*
X72746000Y-77261011D02*
X72788333Y-77218677D01*
X72788333Y-77218677D02*
X72830666Y-77134011D01*
X72830666Y-77134011D02*
X72830666Y-76414344D01*
X73211666Y-76499011D02*
X73253999Y-76456677D01*
X73253999Y-76456677D02*
X73338666Y-76414344D01*
X73338666Y-76414344D02*
X73550333Y-76414344D01*
X73550333Y-76414344D02*
X73634999Y-76456677D01*
X73634999Y-76456677D02*
X73677333Y-76499011D01*
X73677333Y-76499011D02*
X73719666Y-76583677D01*
X73719666Y-76583677D02*
X73719666Y-76668344D01*
X73719666Y-76668344D02*
X73677333Y-76795344D01*
X73677333Y-76795344D02*
X73169333Y-77303344D01*
X73169333Y-77303344D02*
X73719666Y-77303344D01*
X90828499Y-64003344D02*
X90532166Y-63580011D01*
X90320499Y-64003344D02*
X90320499Y-63114344D01*
X90320499Y-63114344D02*
X90659166Y-63114344D01*
X90659166Y-63114344D02*
X90743833Y-63156677D01*
X90743833Y-63156677D02*
X90786166Y-63199011D01*
X90786166Y-63199011D02*
X90828499Y-63283677D01*
X90828499Y-63283677D02*
X90828499Y-63410677D01*
X90828499Y-63410677D02*
X90786166Y-63495344D01*
X90786166Y-63495344D02*
X90743833Y-63537677D01*
X90743833Y-63537677D02*
X90659166Y-63580011D01*
X90659166Y-63580011D02*
X90320499Y-63580011D01*
X91675166Y-64003344D02*
X91167166Y-64003344D01*
X91421166Y-64003344D02*
X91421166Y-63114344D01*
X91421166Y-63114344D02*
X91336499Y-63241344D01*
X91336499Y-63241344D02*
X91251833Y-63326011D01*
X91251833Y-63326011D02*
X91167166Y-63368344D01*
X92437166Y-63114344D02*
X92267833Y-63114344D01*
X92267833Y-63114344D02*
X92183166Y-63156677D01*
X92183166Y-63156677D02*
X92140833Y-63199011D01*
X92140833Y-63199011D02*
X92056166Y-63326011D01*
X92056166Y-63326011D02*
X92013833Y-63495344D01*
X92013833Y-63495344D02*
X92013833Y-63834011D01*
X92013833Y-63834011D02*
X92056166Y-63918677D01*
X92056166Y-63918677D02*
X92098500Y-63961011D01*
X92098500Y-63961011D02*
X92183166Y-64003344D01*
X92183166Y-64003344D02*
X92352500Y-64003344D01*
X92352500Y-64003344D02*
X92437166Y-63961011D01*
X92437166Y-63961011D02*
X92479500Y-63918677D01*
X92479500Y-63918677D02*
X92521833Y-63834011D01*
X92521833Y-63834011D02*
X92521833Y-63622344D01*
X92521833Y-63622344D02*
X92479500Y-63537677D01*
X92479500Y-63537677D02*
X92437166Y-63495344D01*
X92437166Y-63495344D02*
X92352500Y-63453011D01*
X92352500Y-63453011D02*
X92183166Y-63453011D01*
X92183166Y-63453011D02*
X92098500Y-63495344D01*
X92098500Y-63495344D02*
X92056166Y-63537677D01*
X92056166Y-63537677D02*
X92013833Y-63622344D01*
X76303344Y-73971500D02*
X75880011Y-74267833D01*
X76303344Y-74479500D02*
X75414344Y-74479500D01*
X75414344Y-74479500D02*
X75414344Y-74140833D01*
X75414344Y-74140833D02*
X75456677Y-74056167D01*
X75456677Y-74056167D02*
X75499011Y-74013833D01*
X75499011Y-74013833D02*
X75583677Y-73971500D01*
X75583677Y-73971500D02*
X75710677Y-73971500D01*
X75710677Y-73971500D02*
X75795344Y-74013833D01*
X75795344Y-74013833D02*
X75837677Y-74056167D01*
X75837677Y-74056167D02*
X75880011Y-74140833D01*
X75880011Y-74140833D02*
X75880011Y-74479500D01*
X75499011Y-73632833D02*
X75456677Y-73590500D01*
X75456677Y-73590500D02*
X75414344Y-73505833D01*
X75414344Y-73505833D02*
X75414344Y-73294167D01*
X75414344Y-73294167D02*
X75456677Y-73209500D01*
X75456677Y-73209500D02*
X75499011Y-73167167D01*
X75499011Y-73167167D02*
X75583677Y-73124833D01*
X75583677Y-73124833D02*
X75668344Y-73124833D01*
X75668344Y-73124833D02*
X75795344Y-73167167D01*
X75795344Y-73167167D02*
X76303344Y-73675167D01*
X76303344Y-73675167D02*
X76303344Y-73124833D01*
X75414344Y-72574500D02*
X75414344Y-72489833D01*
X75414344Y-72489833D02*
X75456677Y-72405166D01*
X75456677Y-72405166D02*
X75499011Y-72362833D01*
X75499011Y-72362833D02*
X75583677Y-72320500D01*
X75583677Y-72320500D02*
X75753011Y-72278166D01*
X75753011Y-72278166D02*
X75964677Y-72278166D01*
X75964677Y-72278166D02*
X76134011Y-72320500D01*
X76134011Y-72320500D02*
X76218677Y-72362833D01*
X76218677Y-72362833D02*
X76261011Y-72405166D01*
X76261011Y-72405166D02*
X76303344Y-72489833D01*
X76303344Y-72489833D02*
X76303344Y-72574500D01*
X76303344Y-72574500D02*
X76261011Y-72659166D01*
X76261011Y-72659166D02*
X76218677Y-72701500D01*
X76218677Y-72701500D02*
X76134011Y-72743833D01*
X76134011Y-72743833D02*
X75964677Y-72786166D01*
X75964677Y-72786166D02*
X75753011Y-72786166D01*
X75753011Y-72786166D02*
X75583677Y-72743833D01*
X75583677Y-72743833D02*
X75499011Y-72701500D01*
X75499011Y-72701500D02*
X75456677Y-72659166D01*
X75456677Y-72659166D02*
X75414344Y-72574500D01*
X66610775Y-53103344D02*
X66314442Y-52680011D01*
X66102775Y-53103344D02*
X66102775Y-52214344D01*
X66102775Y-52214344D02*
X66441442Y-52214344D01*
X66441442Y-52214344D02*
X66526109Y-52256677D01*
X66526109Y-52256677D02*
X66568442Y-52299011D01*
X66568442Y-52299011D02*
X66610775Y-52383677D01*
X66610775Y-52383677D02*
X66610775Y-52510677D01*
X66610775Y-52510677D02*
X66568442Y-52595344D01*
X66568442Y-52595344D02*
X66526109Y-52637677D01*
X66526109Y-52637677D02*
X66441442Y-52680011D01*
X66441442Y-52680011D02*
X66102775Y-52680011D01*
X67457442Y-53103344D02*
X66949442Y-53103344D01*
X67203442Y-53103344D02*
X67203442Y-52214344D01*
X67203442Y-52214344D02*
X67118775Y-52341344D01*
X67118775Y-52341344D02*
X67034109Y-52426011D01*
X67034109Y-52426011D02*
X66949442Y-52468344D01*
X67796109Y-52299011D02*
X67838442Y-52256677D01*
X67838442Y-52256677D02*
X67923109Y-52214344D01*
X67923109Y-52214344D02*
X68134776Y-52214344D01*
X68134776Y-52214344D02*
X68219442Y-52256677D01*
X68219442Y-52256677D02*
X68261776Y-52299011D01*
X68261776Y-52299011D02*
X68304109Y-52383677D01*
X68304109Y-52383677D02*
X68304109Y-52468344D01*
X68304109Y-52468344D02*
X68261776Y-52595344D01*
X68261776Y-52595344D02*
X67753776Y-53103344D01*
X67753776Y-53103344D02*
X68304109Y-53103344D01*
X76018677Y-57371500D02*
X76061011Y-57413833D01*
X76061011Y-57413833D02*
X76103344Y-57540833D01*
X76103344Y-57540833D02*
X76103344Y-57625500D01*
X76103344Y-57625500D02*
X76061011Y-57752500D01*
X76061011Y-57752500D02*
X75976344Y-57837167D01*
X75976344Y-57837167D02*
X75891677Y-57879500D01*
X75891677Y-57879500D02*
X75722344Y-57921833D01*
X75722344Y-57921833D02*
X75595344Y-57921833D01*
X75595344Y-57921833D02*
X75426011Y-57879500D01*
X75426011Y-57879500D02*
X75341344Y-57837167D01*
X75341344Y-57837167D02*
X75256677Y-57752500D01*
X75256677Y-57752500D02*
X75214344Y-57625500D01*
X75214344Y-57625500D02*
X75214344Y-57540833D01*
X75214344Y-57540833D02*
X75256677Y-57413833D01*
X75256677Y-57413833D02*
X75299011Y-57371500D01*
X75214344Y-56567167D02*
X75214344Y-56990500D01*
X75214344Y-56990500D02*
X75637677Y-57032833D01*
X75637677Y-57032833D02*
X75595344Y-56990500D01*
X75595344Y-56990500D02*
X75553011Y-56905833D01*
X75553011Y-56905833D02*
X75553011Y-56694167D01*
X75553011Y-56694167D02*
X75595344Y-56609500D01*
X75595344Y-56609500D02*
X75637677Y-56567167D01*
X75637677Y-56567167D02*
X75722344Y-56524833D01*
X75722344Y-56524833D02*
X75934011Y-56524833D01*
X75934011Y-56524833D02*
X76018677Y-56567167D01*
X76018677Y-56567167D02*
X76061011Y-56609500D01*
X76061011Y-56609500D02*
X76103344Y-56694167D01*
X76103344Y-56694167D02*
X76103344Y-56905833D01*
X76103344Y-56905833D02*
X76061011Y-56990500D01*
X76061011Y-56990500D02*
X76018677Y-57032833D01*
X75299011Y-56186166D02*
X75256677Y-56143833D01*
X75256677Y-56143833D02*
X75214344Y-56059166D01*
X75214344Y-56059166D02*
X75214344Y-55847500D01*
X75214344Y-55847500D02*
X75256677Y-55762833D01*
X75256677Y-55762833D02*
X75299011Y-55720500D01*
X75299011Y-55720500D02*
X75383677Y-55678166D01*
X75383677Y-55678166D02*
X75468344Y-55678166D01*
X75468344Y-55678166D02*
X75595344Y-55720500D01*
X75595344Y-55720500D02*
X76103344Y-56228500D01*
X76103344Y-56228500D02*
X76103344Y-55678166D01*
X75151833Y-51818677D02*
X75109500Y-51861011D01*
X75109500Y-51861011D02*
X74982500Y-51903344D01*
X74982500Y-51903344D02*
X74897833Y-51903344D01*
X74897833Y-51903344D02*
X74770833Y-51861011D01*
X74770833Y-51861011D02*
X74686167Y-51776344D01*
X74686167Y-51776344D02*
X74643833Y-51691677D01*
X74643833Y-51691677D02*
X74601500Y-51522344D01*
X74601500Y-51522344D02*
X74601500Y-51395344D01*
X74601500Y-51395344D02*
X74643833Y-51226011D01*
X74643833Y-51226011D02*
X74686167Y-51141344D01*
X74686167Y-51141344D02*
X74770833Y-51056677D01*
X74770833Y-51056677D02*
X74897833Y-51014344D01*
X74897833Y-51014344D02*
X74982500Y-51014344D01*
X74982500Y-51014344D02*
X75109500Y-51056677D01*
X75109500Y-51056677D02*
X75151833Y-51099011D01*
X75448167Y-51014344D02*
X75998500Y-51014344D01*
X75998500Y-51014344D02*
X75702167Y-51353011D01*
X75702167Y-51353011D02*
X75829167Y-51353011D01*
X75829167Y-51353011D02*
X75913833Y-51395344D01*
X75913833Y-51395344D02*
X75956167Y-51437677D01*
X75956167Y-51437677D02*
X75998500Y-51522344D01*
X75998500Y-51522344D02*
X75998500Y-51734011D01*
X75998500Y-51734011D02*
X75956167Y-51818677D01*
X75956167Y-51818677D02*
X75913833Y-51861011D01*
X75913833Y-51861011D02*
X75829167Y-51903344D01*
X75829167Y-51903344D02*
X75575167Y-51903344D01*
X75575167Y-51903344D02*
X75490500Y-51861011D01*
X75490500Y-51861011D02*
X75448167Y-51818677D01*
X63889177Y-74443166D02*
X63931511Y-74485499D01*
X63931511Y-74485499D02*
X63973844Y-74612499D01*
X63973844Y-74612499D02*
X63973844Y-74697166D01*
X63973844Y-74697166D02*
X63931511Y-74824166D01*
X63931511Y-74824166D02*
X63846844Y-74908833D01*
X63846844Y-74908833D02*
X63762177Y-74951166D01*
X63762177Y-74951166D02*
X63592844Y-74993499D01*
X63592844Y-74993499D02*
X63465844Y-74993499D01*
X63465844Y-74993499D02*
X63296511Y-74951166D01*
X63296511Y-74951166D02*
X63211844Y-74908833D01*
X63211844Y-74908833D02*
X63127177Y-74824166D01*
X63127177Y-74824166D02*
X63084844Y-74697166D01*
X63084844Y-74697166D02*
X63084844Y-74612499D01*
X63084844Y-74612499D02*
X63127177Y-74485499D01*
X63127177Y-74485499D02*
X63169511Y-74443166D01*
X63084844Y-73638833D02*
X63084844Y-74062166D01*
X63084844Y-74062166D02*
X63508177Y-74104499D01*
X63508177Y-74104499D02*
X63465844Y-74062166D01*
X63465844Y-74062166D02*
X63423511Y-73977499D01*
X63423511Y-73977499D02*
X63423511Y-73765833D01*
X63423511Y-73765833D02*
X63465844Y-73681166D01*
X63465844Y-73681166D02*
X63508177Y-73638833D01*
X63508177Y-73638833D02*
X63592844Y-73596499D01*
X63592844Y-73596499D02*
X63804511Y-73596499D01*
X63804511Y-73596499D02*
X63889177Y-73638833D01*
X63889177Y-73638833D02*
X63931511Y-73681166D01*
X63931511Y-73681166D02*
X63973844Y-73765833D01*
X63973844Y-73765833D02*
X63973844Y-73977499D01*
X63973844Y-73977499D02*
X63931511Y-74062166D01*
X63931511Y-74062166D02*
X63889177Y-74104499D01*
X63973844Y-70506166D02*
X63550511Y-70802499D01*
X63973844Y-71014166D02*
X63084844Y-71014166D01*
X63084844Y-71014166D02*
X63084844Y-70675499D01*
X63084844Y-70675499D02*
X63127177Y-70590833D01*
X63127177Y-70590833D02*
X63169511Y-70548499D01*
X63169511Y-70548499D02*
X63254177Y-70506166D01*
X63254177Y-70506166D02*
X63381177Y-70506166D01*
X63381177Y-70506166D02*
X63465844Y-70548499D01*
X63465844Y-70548499D02*
X63508177Y-70590833D01*
X63508177Y-70590833D02*
X63550511Y-70675499D01*
X63550511Y-70675499D02*
X63550511Y-71014166D01*
X63465844Y-69998166D02*
X63423511Y-70082833D01*
X63423511Y-70082833D02*
X63381177Y-70125166D01*
X63381177Y-70125166D02*
X63296511Y-70167499D01*
X63296511Y-70167499D02*
X63254177Y-70167499D01*
X63254177Y-70167499D02*
X63169511Y-70125166D01*
X63169511Y-70125166D02*
X63127177Y-70082833D01*
X63127177Y-70082833D02*
X63084844Y-69998166D01*
X63084844Y-69998166D02*
X63084844Y-69828833D01*
X63084844Y-69828833D02*
X63127177Y-69744166D01*
X63127177Y-69744166D02*
X63169511Y-69701833D01*
X63169511Y-69701833D02*
X63254177Y-69659499D01*
X63254177Y-69659499D02*
X63296511Y-69659499D01*
X63296511Y-69659499D02*
X63381177Y-69701833D01*
X63381177Y-69701833D02*
X63423511Y-69744166D01*
X63423511Y-69744166D02*
X63465844Y-69828833D01*
X63465844Y-69828833D02*
X63465844Y-69998166D01*
X63465844Y-69998166D02*
X63508177Y-70082833D01*
X63508177Y-70082833D02*
X63550511Y-70125166D01*
X63550511Y-70125166D02*
X63635177Y-70167499D01*
X63635177Y-70167499D02*
X63804511Y-70167499D01*
X63804511Y-70167499D02*
X63889177Y-70125166D01*
X63889177Y-70125166D02*
X63931511Y-70082833D01*
X63931511Y-70082833D02*
X63973844Y-69998166D01*
X63973844Y-69998166D02*
X63973844Y-69828833D01*
X63973844Y-69828833D02*
X63931511Y-69744166D01*
X63931511Y-69744166D02*
X63889177Y-69701833D01*
X63889177Y-69701833D02*
X63804511Y-69659499D01*
X63804511Y-69659499D02*
X63635177Y-69659499D01*
X63635177Y-69659499D02*
X63550511Y-69701833D01*
X63550511Y-69701833D02*
X63508177Y-69744166D01*
X63508177Y-69744166D02*
X63465844Y-69828833D01*
X74351833Y-78903344D02*
X74055500Y-78480011D01*
X73843833Y-78903344D02*
X73843833Y-78014344D01*
X73843833Y-78014344D02*
X74182500Y-78014344D01*
X74182500Y-78014344D02*
X74267167Y-78056677D01*
X74267167Y-78056677D02*
X74309500Y-78099011D01*
X74309500Y-78099011D02*
X74351833Y-78183677D01*
X74351833Y-78183677D02*
X74351833Y-78310677D01*
X74351833Y-78310677D02*
X74309500Y-78395344D01*
X74309500Y-78395344D02*
X74267167Y-78437677D01*
X74267167Y-78437677D02*
X74182500Y-78480011D01*
X74182500Y-78480011D02*
X73843833Y-78480011D01*
X74648167Y-78014344D02*
X75198500Y-78014344D01*
X75198500Y-78014344D02*
X74902167Y-78353011D01*
X74902167Y-78353011D02*
X75029167Y-78353011D01*
X75029167Y-78353011D02*
X75113833Y-78395344D01*
X75113833Y-78395344D02*
X75156167Y-78437677D01*
X75156167Y-78437677D02*
X75198500Y-78522344D01*
X75198500Y-78522344D02*
X75198500Y-78734011D01*
X75198500Y-78734011D02*
X75156167Y-78818677D01*
X75156167Y-78818677D02*
X75113833Y-78861011D01*
X75113833Y-78861011D02*
X75029167Y-78903344D01*
X75029167Y-78903344D02*
X74775167Y-78903344D01*
X74775167Y-78903344D02*
X74690500Y-78861011D01*
X74690500Y-78861011D02*
X74648167Y-78818677D01*
X67051833Y-68518677D02*
X67009500Y-68561011D01*
X67009500Y-68561011D02*
X66882500Y-68603344D01*
X66882500Y-68603344D02*
X66797833Y-68603344D01*
X66797833Y-68603344D02*
X66670833Y-68561011D01*
X66670833Y-68561011D02*
X66586167Y-68476344D01*
X66586167Y-68476344D02*
X66543833Y-68391677D01*
X66543833Y-68391677D02*
X66501500Y-68222344D01*
X66501500Y-68222344D02*
X66501500Y-68095344D01*
X66501500Y-68095344D02*
X66543833Y-67926011D01*
X66543833Y-67926011D02*
X66586167Y-67841344D01*
X66586167Y-67841344D02*
X66670833Y-67756677D01*
X66670833Y-67756677D02*
X66797833Y-67714344D01*
X66797833Y-67714344D02*
X66882500Y-67714344D01*
X66882500Y-67714344D02*
X67009500Y-67756677D01*
X67009500Y-67756677D02*
X67051833Y-67799011D01*
X67813833Y-67714344D02*
X67644500Y-67714344D01*
X67644500Y-67714344D02*
X67559833Y-67756677D01*
X67559833Y-67756677D02*
X67517500Y-67799011D01*
X67517500Y-67799011D02*
X67432833Y-67926011D01*
X67432833Y-67926011D02*
X67390500Y-68095344D01*
X67390500Y-68095344D02*
X67390500Y-68434011D01*
X67390500Y-68434011D02*
X67432833Y-68518677D01*
X67432833Y-68518677D02*
X67475167Y-68561011D01*
X67475167Y-68561011D02*
X67559833Y-68603344D01*
X67559833Y-68603344D02*
X67729167Y-68603344D01*
X67729167Y-68603344D02*
X67813833Y-68561011D01*
X67813833Y-68561011D02*
X67856167Y-68518677D01*
X67856167Y-68518677D02*
X67898500Y-68434011D01*
X67898500Y-68434011D02*
X67898500Y-68222344D01*
X67898500Y-68222344D02*
X67856167Y-68137677D01*
X67856167Y-68137677D02*
X67813833Y-68095344D01*
X67813833Y-68095344D02*
X67729167Y-68053011D01*
X67729167Y-68053011D02*
X67559833Y-68053011D01*
X67559833Y-68053011D02*
X67475167Y-68095344D01*
X67475167Y-68095344D02*
X67432833Y-68137677D01*
X67432833Y-68137677D02*
X67390500Y-68222344D01*
X91828499Y-52018677D02*
X91786166Y-52061011D01*
X91786166Y-52061011D02*
X91659166Y-52103344D01*
X91659166Y-52103344D02*
X91574499Y-52103344D01*
X91574499Y-52103344D02*
X91447499Y-52061011D01*
X91447499Y-52061011D02*
X91362833Y-51976344D01*
X91362833Y-51976344D02*
X91320499Y-51891677D01*
X91320499Y-51891677D02*
X91278166Y-51722344D01*
X91278166Y-51722344D02*
X91278166Y-51595344D01*
X91278166Y-51595344D02*
X91320499Y-51426011D01*
X91320499Y-51426011D02*
X91362833Y-51341344D01*
X91362833Y-51341344D02*
X91447499Y-51256677D01*
X91447499Y-51256677D02*
X91574499Y-51214344D01*
X91574499Y-51214344D02*
X91659166Y-51214344D01*
X91659166Y-51214344D02*
X91786166Y-51256677D01*
X91786166Y-51256677D02*
X91828499Y-51299011D01*
X92124833Y-51214344D02*
X92675166Y-51214344D01*
X92675166Y-51214344D02*
X92378833Y-51553011D01*
X92378833Y-51553011D02*
X92505833Y-51553011D01*
X92505833Y-51553011D02*
X92590499Y-51595344D01*
X92590499Y-51595344D02*
X92632833Y-51637677D01*
X92632833Y-51637677D02*
X92675166Y-51722344D01*
X92675166Y-51722344D02*
X92675166Y-51934011D01*
X92675166Y-51934011D02*
X92632833Y-52018677D01*
X92632833Y-52018677D02*
X92590499Y-52061011D01*
X92590499Y-52061011D02*
X92505833Y-52103344D01*
X92505833Y-52103344D02*
X92251833Y-52103344D01*
X92251833Y-52103344D02*
X92167166Y-52061011D01*
X92167166Y-52061011D02*
X92124833Y-52018677D01*
X93013833Y-51299011D02*
X93056166Y-51256677D01*
X93056166Y-51256677D02*
X93140833Y-51214344D01*
X93140833Y-51214344D02*
X93352500Y-51214344D01*
X93352500Y-51214344D02*
X93437166Y-51256677D01*
X93437166Y-51256677D02*
X93479500Y-51299011D01*
X93479500Y-51299011D02*
X93521833Y-51383677D01*
X93521833Y-51383677D02*
X93521833Y-51468344D01*
X93521833Y-51468344D02*
X93479500Y-51595344D01*
X93479500Y-51595344D02*
X92971500Y-52103344D01*
X92971500Y-52103344D02*
X93521833Y-52103344D01*
X86503344Y-65671500D02*
X86080011Y-65967833D01*
X86503344Y-66179500D02*
X85614344Y-66179500D01*
X85614344Y-66179500D02*
X85614344Y-65840833D01*
X85614344Y-65840833D02*
X85656677Y-65756167D01*
X85656677Y-65756167D02*
X85699011Y-65713833D01*
X85699011Y-65713833D02*
X85783677Y-65671500D01*
X85783677Y-65671500D02*
X85910677Y-65671500D01*
X85910677Y-65671500D02*
X85995344Y-65713833D01*
X85995344Y-65713833D02*
X86037677Y-65756167D01*
X86037677Y-65756167D02*
X86080011Y-65840833D01*
X86080011Y-65840833D02*
X86080011Y-66179500D01*
X86503344Y-64824833D02*
X86503344Y-65332833D01*
X86503344Y-65078833D02*
X85614344Y-65078833D01*
X85614344Y-65078833D02*
X85741344Y-65163500D01*
X85741344Y-65163500D02*
X85826011Y-65248167D01*
X85826011Y-65248167D02*
X85868344Y-65332833D01*
X85995344Y-64316833D02*
X85953011Y-64401500D01*
X85953011Y-64401500D02*
X85910677Y-64443833D01*
X85910677Y-64443833D02*
X85826011Y-64486166D01*
X85826011Y-64486166D02*
X85783677Y-64486166D01*
X85783677Y-64486166D02*
X85699011Y-64443833D01*
X85699011Y-64443833D02*
X85656677Y-64401500D01*
X85656677Y-64401500D02*
X85614344Y-64316833D01*
X85614344Y-64316833D02*
X85614344Y-64147500D01*
X85614344Y-64147500D02*
X85656677Y-64062833D01*
X85656677Y-64062833D02*
X85699011Y-64020500D01*
X85699011Y-64020500D02*
X85783677Y-63978166D01*
X85783677Y-63978166D02*
X85826011Y-63978166D01*
X85826011Y-63978166D02*
X85910677Y-64020500D01*
X85910677Y-64020500D02*
X85953011Y-64062833D01*
X85953011Y-64062833D02*
X85995344Y-64147500D01*
X85995344Y-64147500D02*
X85995344Y-64316833D01*
X85995344Y-64316833D02*
X86037677Y-64401500D01*
X86037677Y-64401500D02*
X86080011Y-64443833D01*
X86080011Y-64443833D02*
X86164677Y-64486166D01*
X86164677Y-64486166D02*
X86334011Y-64486166D01*
X86334011Y-64486166D02*
X86418677Y-64443833D01*
X86418677Y-64443833D02*
X86461011Y-64401500D01*
X86461011Y-64401500D02*
X86503344Y-64316833D01*
X86503344Y-64316833D02*
X86503344Y-64147500D01*
X86503344Y-64147500D02*
X86461011Y-64062833D01*
X86461011Y-64062833D02*
X86418677Y-64020500D01*
X86418677Y-64020500D02*
X86334011Y-63978166D01*
X86334011Y-63978166D02*
X86164677Y-63978166D01*
X86164677Y-63978166D02*
X86080011Y-64020500D01*
X86080011Y-64020500D02*
X86037677Y-64062833D01*
X86037677Y-64062833D02*
X85995344Y-64147500D01*
X90815333Y-66188011D02*
X90730666Y-66145677D01*
X90730666Y-66145677D02*
X90646000Y-66061011D01*
X90646000Y-66061011D02*
X90519000Y-65934011D01*
X90519000Y-65934011D02*
X90434333Y-65891677D01*
X90434333Y-65891677D02*
X90349666Y-65891677D01*
X90392000Y-66103344D02*
X90307333Y-66061011D01*
X90307333Y-66061011D02*
X90222666Y-65976344D01*
X90222666Y-65976344D02*
X90180333Y-65807011D01*
X90180333Y-65807011D02*
X90180333Y-65510677D01*
X90180333Y-65510677D02*
X90222666Y-65341344D01*
X90222666Y-65341344D02*
X90307333Y-65256677D01*
X90307333Y-65256677D02*
X90392000Y-65214344D01*
X90392000Y-65214344D02*
X90561333Y-65214344D01*
X90561333Y-65214344D02*
X90646000Y-65256677D01*
X90646000Y-65256677D02*
X90730666Y-65341344D01*
X90730666Y-65341344D02*
X90773000Y-65510677D01*
X90773000Y-65510677D02*
X90773000Y-65807011D01*
X90773000Y-65807011D02*
X90730666Y-65976344D01*
X90730666Y-65976344D02*
X90646000Y-66061011D01*
X90646000Y-66061011D02*
X90561333Y-66103344D01*
X90561333Y-66103344D02*
X90392000Y-66103344D01*
X91111666Y-65299011D02*
X91153999Y-65256677D01*
X91153999Y-65256677D02*
X91238666Y-65214344D01*
X91238666Y-65214344D02*
X91450333Y-65214344D01*
X91450333Y-65214344D02*
X91534999Y-65256677D01*
X91534999Y-65256677D02*
X91577333Y-65299011D01*
X91577333Y-65299011D02*
X91619666Y-65383677D01*
X91619666Y-65383677D02*
X91619666Y-65468344D01*
X91619666Y-65468344D02*
X91577333Y-65595344D01*
X91577333Y-65595344D02*
X91069333Y-66103344D01*
X91069333Y-66103344D02*
X91619666Y-66103344D01*
X68999333Y-79914344D02*
X68999333Y-80634011D01*
X68999333Y-80634011D02*
X69041667Y-80718677D01*
X69041667Y-80718677D02*
X69084000Y-80761011D01*
X69084000Y-80761011D02*
X69168667Y-80803344D01*
X69168667Y-80803344D02*
X69338000Y-80803344D01*
X69338000Y-80803344D02*
X69422667Y-80761011D01*
X69422667Y-80761011D02*
X69465000Y-80718677D01*
X69465000Y-80718677D02*
X69507333Y-80634011D01*
X69507333Y-80634011D02*
X69507333Y-79914344D01*
X70396333Y-80803344D02*
X69888333Y-80803344D01*
X70142333Y-80803344D02*
X70142333Y-79914344D01*
X70142333Y-79914344D02*
X70057666Y-80041344D01*
X70057666Y-80041344D02*
X69973000Y-80126011D01*
X69973000Y-80126011D02*
X69888333Y-80168344D01*
X71158333Y-80210677D02*
X71158333Y-80803344D01*
X70946667Y-79872011D02*
X70735000Y-80507011D01*
X70735000Y-80507011D02*
X71285333Y-80507011D01*
X86635477Y-68440300D02*
X86677811Y-68482633D01*
X86677811Y-68482633D02*
X86720144Y-68609633D01*
X86720144Y-68609633D02*
X86720144Y-68694300D01*
X86720144Y-68694300D02*
X86677811Y-68821300D01*
X86677811Y-68821300D02*
X86593144Y-68905967D01*
X86593144Y-68905967D02*
X86508477Y-68948300D01*
X86508477Y-68948300D02*
X86339144Y-68990633D01*
X86339144Y-68990633D02*
X86212144Y-68990633D01*
X86212144Y-68990633D02*
X86042811Y-68948300D01*
X86042811Y-68948300D02*
X85958144Y-68905967D01*
X85958144Y-68905967D02*
X85873477Y-68821300D01*
X85873477Y-68821300D02*
X85831144Y-68694300D01*
X85831144Y-68694300D02*
X85831144Y-68609633D01*
X85831144Y-68609633D02*
X85873477Y-68482633D01*
X85873477Y-68482633D02*
X85915811Y-68440300D01*
X86720144Y-67593633D02*
X86720144Y-68101633D01*
X86720144Y-67847633D02*
X85831144Y-67847633D01*
X85831144Y-67847633D02*
X85958144Y-67932300D01*
X85958144Y-67932300D02*
X86042811Y-68016967D01*
X86042811Y-68016967D02*
X86085144Y-68101633D01*
X85915811Y-67254966D02*
X85873477Y-67212633D01*
X85873477Y-67212633D02*
X85831144Y-67127966D01*
X85831144Y-67127966D02*
X85831144Y-66916300D01*
X85831144Y-66916300D02*
X85873477Y-66831633D01*
X85873477Y-66831633D02*
X85915811Y-66789300D01*
X85915811Y-66789300D02*
X86000477Y-66746966D01*
X86000477Y-66746966D02*
X86085144Y-66746966D01*
X86085144Y-66746966D02*
X86212144Y-66789300D01*
X86212144Y-66789300D02*
X86720144Y-67297300D01*
X86720144Y-67297300D02*
X86720144Y-66746966D01*
X94828499Y-52103344D02*
X94532166Y-51680011D01*
X94320499Y-52103344D02*
X94320499Y-51214344D01*
X94320499Y-51214344D02*
X94659166Y-51214344D01*
X94659166Y-51214344D02*
X94743833Y-51256677D01*
X94743833Y-51256677D02*
X94786166Y-51299011D01*
X94786166Y-51299011D02*
X94828499Y-51383677D01*
X94828499Y-51383677D02*
X94828499Y-51510677D01*
X94828499Y-51510677D02*
X94786166Y-51595344D01*
X94786166Y-51595344D02*
X94743833Y-51637677D01*
X94743833Y-51637677D02*
X94659166Y-51680011D01*
X94659166Y-51680011D02*
X94320499Y-51680011D01*
X95167166Y-51299011D02*
X95209499Y-51256677D01*
X95209499Y-51256677D02*
X95294166Y-51214344D01*
X95294166Y-51214344D02*
X95505833Y-51214344D01*
X95505833Y-51214344D02*
X95590499Y-51256677D01*
X95590499Y-51256677D02*
X95632833Y-51299011D01*
X95632833Y-51299011D02*
X95675166Y-51383677D01*
X95675166Y-51383677D02*
X95675166Y-51468344D01*
X95675166Y-51468344D02*
X95632833Y-51595344D01*
X95632833Y-51595344D02*
X95124833Y-52103344D01*
X95124833Y-52103344D02*
X95675166Y-52103344D01*
X96098500Y-52103344D02*
X96267833Y-52103344D01*
X96267833Y-52103344D02*
X96352500Y-52061011D01*
X96352500Y-52061011D02*
X96394833Y-52018677D01*
X96394833Y-52018677D02*
X96479500Y-51891677D01*
X96479500Y-51891677D02*
X96521833Y-51722344D01*
X96521833Y-51722344D02*
X96521833Y-51383677D01*
X96521833Y-51383677D02*
X96479500Y-51299011D01*
X96479500Y-51299011D02*
X96437166Y-51256677D01*
X96437166Y-51256677D02*
X96352500Y-51214344D01*
X96352500Y-51214344D02*
X96183166Y-51214344D01*
X96183166Y-51214344D02*
X96098500Y-51256677D01*
X96098500Y-51256677D02*
X96056166Y-51299011D01*
X96056166Y-51299011D02*
X96013833Y-51383677D01*
X96013833Y-51383677D02*
X96013833Y-51595344D01*
X96013833Y-51595344D02*
X96056166Y-51680011D01*
X96056166Y-51680011D02*
X96098500Y-51722344D01*
X96098500Y-51722344D02*
X96183166Y-51764677D01*
X96183166Y-51764677D02*
X96352500Y-51764677D01*
X96352500Y-51764677D02*
X96437166Y-51722344D01*
X96437166Y-51722344D02*
X96479500Y-51680011D01*
X96479500Y-51680011D02*
X96521833Y-51595344D01*
X63902166Y-64741344D02*
X64410166Y-64741344D01*
X64156166Y-65630344D02*
X64156166Y-64741344D01*
X64706499Y-65630344D02*
X64706499Y-64741344D01*
X64706499Y-64741344D02*
X65045166Y-64741344D01*
X65045166Y-64741344D02*
X65129833Y-64783677D01*
X65129833Y-64783677D02*
X65172166Y-64826011D01*
X65172166Y-64826011D02*
X65214499Y-64910677D01*
X65214499Y-64910677D02*
X65214499Y-65037677D01*
X65214499Y-65037677D02*
X65172166Y-65122344D01*
X65172166Y-65122344D02*
X65129833Y-65164677D01*
X65129833Y-65164677D02*
X65045166Y-65207011D01*
X65045166Y-65207011D02*
X64706499Y-65207011D01*
X65553166Y-64826011D02*
X65595499Y-64783677D01*
X65595499Y-64783677D02*
X65680166Y-64741344D01*
X65680166Y-64741344D02*
X65891833Y-64741344D01*
X65891833Y-64741344D02*
X65976499Y-64783677D01*
X65976499Y-64783677D02*
X66018833Y-64826011D01*
X66018833Y-64826011D02*
X66061166Y-64910677D01*
X66061166Y-64910677D02*
X66061166Y-64995344D01*
X66061166Y-64995344D02*
X66018833Y-65122344D01*
X66018833Y-65122344D02*
X65510833Y-65630344D01*
X65510833Y-65630344D02*
X66061166Y-65630344D01*
X76528499Y-64603344D02*
X76232166Y-64180011D01*
X76020499Y-64603344D02*
X76020499Y-63714344D01*
X76020499Y-63714344D02*
X76359166Y-63714344D01*
X76359166Y-63714344D02*
X76443833Y-63756677D01*
X76443833Y-63756677D02*
X76486166Y-63799011D01*
X76486166Y-63799011D02*
X76528499Y-63883677D01*
X76528499Y-63883677D02*
X76528499Y-64010677D01*
X76528499Y-64010677D02*
X76486166Y-64095344D01*
X76486166Y-64095344D02*
X76443833Y-64137677D01*
X76443833Y-64137677D02*
X76359166Y-64180011D01*
X76359166Y-64180011D02*
X76020499Y-64180011D01*
X77375166Y-64603344D02*
X76867166Y-64603344D01*
X77121166Y-64603344D02*
X77121166Y-63714344D01*
X77121166Y-63714344D02*
X77036499Y-63841344D01*
X77036499Y-63841344D02*
X76951833Y-63926011D01*
X76951833Y-63926011D02*
X76867166Y-63968344D01*
X77798500Y-64603344D02*
X77967833Y-64603344D01*
X77967833Y-64603344D02*
X78052500Y-64561011D01*
X78052500Y-64561011D02*
X78094833Y-64518677D01*
X78094833Y-64518677D02*
X78179500Y-64391677D01*
X78179500Y-64391677D02*
X78221833Y-64222344D01*
X78221833Y-64222344D02*
X78221833Y-63883677D01*
X78221833Y-63883677D02*
X78179500Y-63799011D01*
X78179500Y-63799011D02*
X78137166Y-63756677D01*
X78137166Y-63756677D02*
X78052500Y-63714344D01*
X78052500Y-63714344D02*
X77883166Y-63714344D01*
X77883166Y-63714344D02*
X77798500Y-63756677D01*
X77798500Y-63756677D02*
X77756166Y-63799011D01*
X77756166Y-63799011D02*
X77713833Y-63883677D01*
X77713833Y-63883677D02*
X77713833Y-64095344D01*
X77713833Y-64095344D02*
X77756166Y-64180011D01*
X77756166Y-64180011D02*
X77798500Y-64222344D01*
X77798500Y-64222344D02*
X77883166Y-64264677D01*
X77883166Y-64264677D02*
X78052500Y-64264677D01*
X78052500Y-64264677D02*
X78137166Y-64222344D01*
X78137166Y-64222344D02*
X78179500Y-64180011D01*
X78179500Y-64180011D02*
X78221833Y-64095344D01*
X91151833Y-69903344D02*
X90855500Y-69480011D01*
X90643833Y-69903344D02*
X90643833Y-69014344D01*
X90643833Y-69014344D02*
X90982500Y-69014344D01*
X90982500Y-69014344D02*
X91067167Y-69056677D01*
X91067167Y-69056677D02*
X91109500Y-69099011D01*
X91109500Y-69099011D02*
X91151833Y-69183677D01*
X91151833Y-69183677D02*
X91151833Y-69310677D01*
X91151833Y-69310677D02*
X91109500Y-69395344D01*
X91109500Y-69395344D02*
X91067167Y-69437677D01*
X91067167Y-69437677D02*
X90982500Y-69480011D01*
X90982500Y-69480011D02*
X90643833Y-69480011D01*
X91448167Y-69014344D02*
X92040833Y-69014344D01*
X92040833Y-69014344D02*
X91659833Y-69903344D01*
X91051833Y-76103344D02*
X90755500Y-75680011D01*
X90543833Y-76103344D02*
X90543833Y-75214344D01*
X90543833Y-75214344D02*
X90882500Y-75214344D01*
X90882500Y-75214344D02*
X90967167Y-75256677D01*
X90967167Y-75256677D02*
X91009500Y-75299011D01*
X91009500Y-75299011D02*
X91051833Y-75383677D01*
X91051833Y-75383677D02*
X91051833Y-75510677D01*
X91051833Y-75510677D02*
X91009500Y-75595344D01*
X91009500Y-75595344D02*
X90967167Y-75637677D01*
X90967167Y-75637677D02*
X90882500Y-75680011D01*
X90882500Y-75680011D02*
X90543833Y-75680011D01*
X91813833Y-75510677D02*
X91813833Y-76103344D01*
X91602167Y-75172011D02*
X91390500Y-75807011D01*
X91390500Y-75807011D02*
X91940833Y-75807011D01*
X63682833Y-53118677D02*
X63640500Y-53161011D01*
X63640500Y-53161011D02*
X63513500Y-53203344D01*
X63513500Y-53203344D02*
X63428833Y-53203344D01*
X63428833Y-53203344D02*
X63301833Y-53161011D01*
X63301833Y-53161011D02*
X63217167Y-53076344D01*
X63217167Y-53076344D02*
X63174833Y-52991677D01*
X63174833Y-52991677D02*
X63132500Y-52822344D01*
X63132500Y-52822344D02*
X63132500Y-52695344D01*
X63132500Y-52695344D02*
X63174833Y-52526011D01*
X63174833Y-52526011D02*
X63217167Y-52441344D01*
X63217167Y-52441344D02*
X63301833Y-52356677D01*
X63301833Y-52356677D02*
X63428833Y-52314344D01*
X63428833Y-52314344D02*
X63513500Y-52314344D01*
X63513500Y-52314344D02*
X63640500Y-52356677D01*
X63640500Y-52356677D02*
X63682833Y-52399011D01*
X63979167Y-52314344D02*
X64571833Y-52314344D01*
X64571833Y-52314344D02*
X64190833Y-53203344D01*
X75078166Y-64914344D02*
X75586166Y-64914344D01*
X75332166Y-65803344D02*
X75332166Y-64914344D01*
X75882499Y-65803344D02*
X75882499Y-64914344D01*
X75882499Y-64914344D02*
X76221166Y-64914344D01*
X76221166Y-64914344D02*
X76305833Y-64956677D01*
X76305833Y-64956677D02*
X76348166Y-64999011D01*
X76348166Y-64999011D02*
X76390499Y-65083677D01*
X76390499Y-65083677D02*
X76390499Y-65210677D01*
X76390499Y-65210677D02*
X76348166Y-65295344D01*
X76348166Y-65295344D02*
X76305833Y-65337677D01*
X76305833Y-65337677D02*
X76221166Y-65380011D01*
X76221166Y-65380011D02*
X75882499Y-65380011D01*
X77152499Y-65210677D02*
X77152499Y-65803344D01*
X76940833Y-64872011D02*
X76729166Y-65507011D01*
X76729166Y-65507011D02*
X77279499Y-65507011D01*
X90828499Y-56103344D02*
X90532166Y-55680011D01*
X90320499Y-56103344D02*
X90320499Y-55214344D01*
X90320499Y-55214344D02*
X90659166Y-55214344D01*
X90659166Y-55214344D02*
X90743833Y-55256677D01*
X90743833Y-55256677D02*
X90786166Y-55299011D01*
X90786166Y-55299011D02*
X90828499Y-55383677D01*
X90828499Y-55383677D02*
X90828499Y-55510677D01*
X90828499Y-55510677D02*
X90786166Y-55595344D01*
X90786166Y-55595344D02*
X90743833Y-55637677D01*
X90743833Y-55637677D02*
X90659166Y-55680011D01*
X90659166Y-55680011D02*
X90320499Y-55680011D01*
X91590499Y-55510677D02*
X91590499Y-56103344D01*
X91378833Y-55172011D02*
X91167166Y-55807011D01*
X91167166Y-55807011D02*
X91717499Y-55807011D01*
X91971500Y-55214344D02*
X92564166Y-55214344D01*
X92564166Y-55214344D02*
X92183166Y-56103344D01*
X90928499Y-57803344D02*
X90632166Y-57380011D01*
X90420499Y-57803344D02*
X90420499Y-56914344D01*
X90420499Y-56914344D02*
X90759166Y-56914344D01*
X90759166Y-56914344D02*
X90843833Y-56956677D01*
X90843833Y-56956677D02*
X90886166Y-56999011D01*
X90886166Y-56999011D02*
X90928499Y-57083677D01*
X90928499Y-57083677D02*
X90928499Y-57210677D01*
X90928499Y-57210677D02*
X90886166Y-57295344D01*
X90886166Y-57295344D02*
X90843833Y-57337677D01*
X90843833Y-57337677D02*
X90759166Y-57380011D01*
X90759166Y-57380011D02*
X90420499Y-57380011D01*
X91690499Y-57210677D02*
X91690499Y-57803344D01*
X91478833Y-56872011D02*
X91267166Y-57507011D01*
X91267166Y-57507011D02*
X91817499Y-57507011D01*
X92579500Y-56914344D02*
X92156166Y-56914344D01*
X92156166Y-56914344D02*
X92113833Y-57337677D01*
X92113833Y-57337677D02*
X92156166Y-57295344D01*
X92156166Y-57295344D02*
X92240833Y-57253011D01*
X92240833Y-57253011D02*
X92452500Y-57253011D01*
X92452500Y-57253011D02*
X92537166Y-57295344D01*
X92537166Y-57295344D02*
X92579500Y-57337677D01*
X92579500Y-57337677D02*
X92621833Y-57422344D01*
X92621833Y-57422344D02*
X92621833Y-57634011D01*
X92621833Y-57634011D02*
X92579500Y-57718677D01*
X92579500Y-57718677D02*
X92537166Y-57761011D01*
X92537166Y-57761011D02*
X92452500Y-57803344D01*
X92452500Y-57803344D02*
X92240833Y-57803344D01*
X92240833Y-57803344D02*
X92156166Y-57761011D01*
X92156166Y-57761011D02*
X92113833Y-57718677D01*
X109703666Y-53014344D02*
X109703666Y-53649344D01*
X109703666Y-53649344D02*
X109661333Y-53776344D01*
X109661333Y-53776344D02*
X109576666Y-53861011D01*
X109576666Y-53861011D02*
X109449666Y-53903344D01*
X109449666Y-53903344D02*
X109365000Y-53903344D01*
X110592666Y-53903344D02*
X110084666Y-53903344D01*
X110338666Y-53903344D02*
X110338666Y-53014344D01*
X110338666Y-53014344D02*
X110253999Y-53141344D01*
X110253999Y-53141344D02*
X110169333Y-53226011D01*
X110169333Y-53226011D02*
X110084666Y-53268344D01*
X91151833Y-81403344D02*
X90855500Y-80980011D01*
X90643833Y-81403344D02*
X90643833Y-80514344D01*
X90643833Y-80514344D02*
X90982500Y-80514344D01*
X90982500Y-80514344D02*
X91067167Y-80556677D01*
X91067167Y-80556677D02*
X91109500Y-80599011D01*
X91109500Y-80599011D02*
X91151833Y-80683677D01*
X91151833Y-80683677D02*
X91151833Y-80810677D01*
X91151833Y-80810677D02*
X91109500Y-80895344D01*
X91109500Y-80895344D02*
X91067167Y-80937677D01*
X91067167Y-80937677D02*
X90982500Y-80980011D01*
X90982500Y-80980011D02*
X90643833Y-80980011D01*
X91956167Y-80514344D02*
X91532833Y-80514344D01*
X91532833Y-80514344D02*
X91490500Y-80937677D01*
X91490500Y-80937677D02*
X91532833Y-80895344D01*
X91532833Y-80895344D02*
X91617500Y-80853011D01*
X91617500Y-80853011D02*
X91829167Y-80853011D01*
X91829167Y-80853011D02*
X91913833Y-80895344D01*
X91913833Y-80895344D02*
X91956167Y-80937677D01*
X91956167Y-80937677D02*
X91998500Y-81022344D01*
X91998500Y-81022344D02*
X91998500Y-81234011D01*
X91998500Y-81234011D02*
X91956167Y-81318677D01*
X91956167Y-81318677D02*
X91913833Y-81361011D01*
X91913833Y-81361011D02*
X91829167Y-81403344D01*
X91829167Y-81403344D02*
X91617500Y-81403344D01*
X91617500Y-81403344D02*
X91532833Y-81361011D01*
X91532833Y-81361011D02*
X91490500Y-81318677D01*
D14*
%TO.C,C39*%
X94578994Y-80834267D02*
X94578994Y-80541733D01*
X95598994Y-80834267D02*
X95598994Y-80541733D01*
%TO.C,C1*%
X62629000Y-60260233D02*
X62629000Y-60552767D01*
X63649000Y-60260233D02*
X63649000Y-60552767D01*
%TO.C,D2*%
X78326500Y-62257000D02*
X78326500Y-63727000D01*
X78326500Y-63727000D02*
X80786500Y-63727000D01*
X80786500Y-62257000D02*
X78326500Y-62257000D01*
%TO.C,R1*%
X76566500Y-53593276D02*
X76566500Y-54102724D01*
X77611500Y-53593276D02*
X77611500Y-54102724D01*
%TO.C,U11*%
X97365994Y-71822000D02*
X98765994Y-71822000D01*
X97365994Y-74042000D02*
X98765994Y-74042000D01*
X96965994Y-71822000D02*
X96725994Y-71492000D01*
X97205994Y-71492000D01*
X96965994Y-71822000D01*
G36*
X96965994Y-71822000D02*
G01*
X96725994Y-71492000D01*
X97205994Y-71492000D01*
X96965994Y-71822000D01*
G37*
%TO.C,U9*%
X97365994Y-64202000D02*
X98765994Y-64202000D01*
X97365994Y-66422000D02*
X98765994Y-66422000D01*
X96965994Y-64202000D02*
X96725994Y-63872000D01*
X97205994Y-63872000D01*
X96965994Y-64202000D01*
G36*
X96965994Y-64202000D02*
G01*
X96725994Y-63872000D01*
X97205994Y-63872000D01*
X96965994Y-64202000D01*
G37*
%TO.C,C50*%
X70592733Y-81278000D02*
X70885267Y-81278000D01*
X70592733Y-82298000D02*
X70885267Y-82298000D01*
%TO.C,R6*%
X73010500Y-54102724D02*
X73010500Y-53593276D01*
X74055500Y-54102724D02*
X74055500Y-53593276D01*
%TO.C,R17*%
X81712524Y-70140300D02*
X81203076Y-70140300D01*
X81712524Y-71185300D02*
X81203076Y-71185300D01*
%TO.C,U16*%
X76849500Y-80155000D02*
X78849500Y-80155000D01*
X76849500Y-82375000D02*
X78849500Y-82375000D01*
X76609500Y-80255000D02*
X76329500Y-80255000D01*
X76609500Y-79975000D01*
X76609500Y-80255000D01*
G36*
X76609500Y-80255000D02*
G01*
X76329500Y-80255000D01*
X76609500Y-79975000D01*
X76609500Y-80255000D01*
G37*
%TO.C,TP1*%
X65470000Y-79121000D02*
G75*
G02*
X64070000Y-79121000I-700000J0D01*
G01*
X64070000Y-79121000D02*
G75*
G02*
X65470000Y-79121000I700000J0D01*
G01*
%TO.C,C4*%
X65932267Y-57109500D02*
X65639733Y-57109500D01*
X65932267Y-58129500D02*
X65639733Y-58129500D01*
%TO.C,R11*%
X72352000Y-74549724D02*
X72352000Y-74040276D01*
X73397000Y-74549724D02*
X73397000Y-74040276D01*
%TO.C,R15*%
X83414776Y-62469500D02*
X83924224Y-62469500D01*
X83414776Y-63514500D02*
X83924224Y-63514500D01*
%TO.C,C2*%
X73531000Y-57473233D02*
X73531000Y-57765767D01*
X74551000Y-57473233D02*
X74551000Y-57765767D01*
%TO.C,Q3*%
X88999300Y-71169300D02*
X88349300Y-71169300D01*
X88999300Y-71169300D02*
X89649300Y-71169300D01*
X88999300Y-74289300D02*
X88349300Y-74289300D01*
X88999300Y-74289300D02*
X89649300Y-74289300D01*
X87836800Y-71219300D02*
X87596800Y-70889300D01*
X88076800Y-70889300D01*
X87836800Y-71219300D01*
G36*
X87836800Y-71219300D02*
G01*
X87596800Y-70889300D01*
X88076800Y-70889300D01*
X87836800Y-71219300D01*
G37*
%TO.C,C49*%
X74695267Y-81278000D02*
X74402733Y-81278000D01*
X74695267Y-82298000D02*
X74402733Y-82298000D01*
%TO.C,C51*%
X64027267Y-81278000D02*
X63734733Y-81278000D01*
X64027267Y-82298000D02*
X63734733Y-82298000D01*
%TO.C,U3*%
X68557000Y-55957500D02*
X68557000Y-56357500D01*
X68557000Y-59257500D02*
X68557000Y-58857500D01*
X68957000Y-55957500D02*
X68557000Y-55957500D01*
X68957000Y-59257500D02*
X68557000Y-59257500D01*
X71457000Y-55957500D02*
X71857000Y-55957500D01*
X71457000Y-59257500D02*
X72207000Y-59257500D01*
X71857000Y-55957500D02*
X71857000Y-56357500D01*
%TO.C,U1*%
X79280500Y-56051000D02*
X79280500Y-55816000D01*
X79280500Y-60796000D02*
X79280500Y-60321000D01*
X79755500Y-55576000D02*
X79580500Y-55576000D01*
X79755500Y-60796000D02*
X79280500Y-60796000D01*
X84025500Y-55576000D02*
X84500500Y-55576000D01*
X84025500Y-60796000D02*
X84500500Y-60796000D01*
X84500500Y-55576000D02*
X84500500Y-56051000D01*
X84500500Y-60796000D02*
X84500500Y-60321000D01*
X79280500Y-55576000D02*
X79040500Y-55246000D01*
X79520500Y-55246000D01*
X79280500Y-55576000D01*
G36*
X79280500Y-55576000D02*
G01*
X79040500Y-55246000D01*
X79520500Y-55246000D01*
X79280500Y-55576000D01*
G37*
%TO.C,TP8*%
X85536000Y-70739000D02*
G75*
G02*
X84136000Y-70739000I-700000J0D01*
G01*
X84136000Y-70739000D02*
G75*
G02*
X85536000Y-70739000I700000J0D01*
G01*
%TO.C,C13*%
X76752500Y-75529733D02*
X76752500Y-75822267D01*
X77772500Y-75529733D02*
X77772500Y-75822267D01*
%TO.C,Q1*%
X89004300Y-77006300D02*
X88354300Y-77006300D01*
X89004300Y-77006300D02*
X89654300Y-77006300D01*
X89004300Y-80126300D02*
X88354300Y-80126300D01*
X89004300Y-80126300D02*
X89654300Y-80126300D01*
X87841800Y-77056300D02*
X87601800Y-76726300D01*
X88081800Y-76726300D01*
X87841800Y-77056300D01*
G36*
X87841800Y-77056300D02*
G01*
X87601800Y-76726300D01*
X88081800Y-76726300D01*
X87841800Y-77056300D01*
G37*
%TO.C,C34*%
X94578994Y-61657267D02*
X94578994Y-61364733D01*
X95598994Y-61657267D02*
X95598994Y-61364733D01*
%TO.C,TP6*%
X78551000Y-70866000D02*
G75*
G02*
X77151000Y-70866000I-700000J0D01*
G01*
X77151000Y-70866000D02*
G75*
G02*
X78551000Y-70866000I700000J0D01*
G01*
%TO.C,C10*%
X71118000Y-62464767D02*
X71118000Y-62172233D01*
X72138000Y-62464767D02*
X72138000Y-62172233D01*
%TO.C,C9*%
X73258000Y-63029752D02*
X73258000Y-61607248D01*
X75078000Y-63029752D02*
X75078000Y-61607248D01*
%TO.C,U5*%
X81661000Y-74082000D02*
X80161000Y-74082000D01*
X81661000Y-74082000D02*
X83161000Y-74082000D01*
X81661000Y-77302000D02*
X80161000Y-77302000D01*
X81661000Y-77302000D02*
X83161000Y-77302000D01*
X79448500Y-74257000D02*
X79208500Y-73927000D01*
X79688500Y-73927000D01*
X79448500Y-74257000D01*
G36*
X79448500Y-74257000D02*
G01*
X79208500Y-73927000D01*
X79688500Y-73927000D01*
X79448500Y-74257000D01*
G37*
%TO.C,R10*%
X71603776Y-68946500D02*
X72113224Y-68946500D01*
X71603776Y-69991500D02*
X72113224Y-69991500D01*
%TO.C,C37*%
X94578994Y-73070767D02*
X94578994Y-72778233D01*
X95598994Y-73070767D02*
X95598994Y-72778233D01*
D10*
%TO.C,L1*%
X64001000Y-59425500D02*
X64001000Y-61325500D01*
X64001000Y-61325500D02*
X64201000Y-61625500D01*
X64201000Y-59125500D02*
X64001000Y-59425500D01*
X65401000Y-59025500D02*
X66401000Y-59025500D01*
X65401000Y-61825500D02*
X66401000Y-61825500D01*
X67601000Y-59025500D02*
X67801000Y-59325500D01*
X67801000Y-59325500D02*
X67801000Y-61425500D01*
X67801000Y-61425500D02*
X67601000Y-61725500D01*
D14*
%TO.C,C48*%
X81260733Y-81278000D02*
X81553267Y-81278000D01*
X81260733Y-82298000D02*
X81553267Y-82298000D01*
%TO.C,U4*%
X80949800Y-66181800D02*
X80149800Y-66181800D01*
X80949800Y-66181800D02*
X81749800Y-66181800D01*
X80949800Y-69301800D02*
X80149800Y-69301800D01*
X80949800Y-69301800D02*
X81749800Y-69301800D01*
X79649800Y-66231800D02*
X79409800Y-65901800D01*
X79889800Y-65901800D01*
X79649800Y-66231800D01*
G36*
X79649800Y-66231800D02*
G01*
X79409800Y-65901800D01*
X79889800Y-65901800D01*
X79649800Y-66231800D01*
G37*
%TO.C,D1*%
X68380000Y-64720500D02*
X68380000Y-61060500D01*
X68380000Y-64720500D02*
X70280000Y-64720500D01*
X70280000Y-64720500D02*
X70280000Y-61060500D01*
%TO.C,R46*%
X88391276Y-58532500D02*
X88900724Y-58532500D01*
X88391276Y-59577500D02*
X88900724Y-59577500D01*
%TO.C,R9*%
X70265936Y-65765000D02*
X71720064Y-65765000D01*
X70265936Y-67585000D02*
X71720064Y-67585000D01*
%TO.C,J3*%
X79196000Y-53958000D02*
X79196000Y-53213000D01*
X79931000Y-53958000D02*
X79196000Y-53958000D01*
X80666000Y-52468000D02*
X85541000Y-52468000D01*
X80666000Y-52527435D02*
X80666000Y-52468000D01*
X80666000Y-53958000D02*
X80666000Y-53898565D01*
X80666000Y-53958000D02*
X85541000Y-53958000D01*
X85541000Y-52802970D02*
X85541000Y-52468000D01*
X85541000Y-53958000D02*
X85541000Y-53623030D01*
%TO.C,U7*%
X97365994Y-56689000D02*
X98765994Y-56689000D01*
X97365994Y-58909000D02*
X98765994Y-58909000D01*
X96965994Y-56689000D02*
X96725994Y-56359000D01*
X97205994Y-56359000D01*
X96965994Y-56689000D01*
G36*
X96965994Y-56689000D02*
G01*
X96725994Y-56359000D01*
X97205994Y-56359000D01*
X96965994Y-56689000D01*
G37*
%TO.C,C33*%
X94578994Y-57937767D02*
X94578994Y-57645233D01*
X95598994Y-57937767D02*
X95598994Y-57645233D01*
%TO.C,C53*%
X88499733Y-60323000D02*
X88792267Y-60323000D01*
X88499733Y-61343000D02*
X88792267Y-61343000D01*
%TO.C,R32*%
X92788494Y-65023276D02*
X92788494Y-65532724D01*
X93833494Y-65023276D02*
X93833494Y-65532724D01*
%TO.C,R13*%
X62596500Y-57112224D02*
X62596500Y-56602776D01*
X63641500Y-57112224D02*
X63641500Y-56602776D01*
%TO.C,C14*%
X81561233Y-77849000D02*
X81853767Y-77849000D01*
X81561233Y-78869000D02*
X81853767Y-78869000D01*
%TO.C,U6*%
X97365994Y-52858500D02*
X98765994Y-52858500D01*
X97365994Y-55078500D02*
X98765994Y-55078500D01*
X96965994Y-52858500D02*
X96725994Y-52528500D01*
X97205994Y-52528500D01*
X96965994Y-52858500D01*
G36*
X96965994Y-52858500D02*
G01*
X96725994Y-52528500D01*
X97205994Y-52528500D01*
X96965994Y-52858500D01*
G37*
%TO.C,R14*%
X66040724Y-55446000D02*
X65531276Y-55446000D01*
X66040724Y-56491000D02*
X65531276Y-56491000D01*
%TO.C,U10*%
X97365994Y-68015000D02*
X98765994Y-68015000D01*
X97365994Y-70235000D02*
X98765994Y-70235000D01*
X96965994Y-68015000D02*
X96725994Y-67685000D01*
X97205994Y-67685000D01*
X96965994Y-68015000D01*
G36*
X96965994Y-68015000D02*
G01*
X96725994Y-67685000D01*
X97205994Y-67685000D01*
X96965994Y-68015000D01*
G37*
D15*
%TO.C,J2*%
X53340000Y-54787800D02*
X53594000Y-54787800D01*
X53340000Y-79832200D02*
X53340000Y-54787800D01*
X53594000Y-52832000D02*
X60960000Y-52832000D01*
X53594000Y-54787800D02*
X53594000Y-52832000D01*
X53594000Y-79832200D02*
X53340000Y-79832200D01*
X53594000Y-81788000D02*
X53594000Y-79832200D01*
X60960000Y-52832000D02*
X60960000Y-81788000D01*
X60960000Y-81788000D02*
X53594000Y-81788000D01*
D14*
%TO.C,TP3*%
X73574500Y-71501000D02*
G75*
G02*
X72174500Y-71501000I-700000J0D01*
G01*
X72174500Y-71501000D02*
G75*
G02*
X73574500Y-71501000I700000J0D01*
G01*
%TO.C,R36*%
X92788494Y-80406776D02*
X92788494Y-80916224D01*
X93833494Y-80406776D02*
X93833494Y-80916224D01*
%TO.C,R2*%
X67793776Y-78471500D02*
X68303224Y-78471500D01*
X67793776Y-79516500D02*
X68303224Y-79516500D01*
%TO.C,C11*%
X76502800Y-67595533D02*
X76502800Y-67888067D01*
X77522800Y-67595533D02*
X77522800Y-67888067D01*
%TO.C,C35*%
X94578994Y-65450767D02*
X94578994Y-65158233D01*
X95598994Y-65450767D02*
X95598994Y-65158233D01*
%TO.C,C15*%
X83593233Y-72372000D02*
X83885767Y-72372000D01*
X83593233Y-73392000D02*
X83885767Y-73392000D01*
%TO.C,TP5*%
X81726000Y-72644000D02*
G75*
G02*
X80326000Y-72644000I-700000J0D01*
G01*
X80326000Y-72644000D02*
G75*
G02*
X81726000Y-72644000I700000J0D01*
G01*
%TO.C,C8*%
X71139267Y-53592000D02*
X70846733Y-53592000D01*
X71139267Y-54612000D02*
X70846733Y-54612000D01*
%TO.C,R31*%
X92788494Y-61229776D02*
X92788494Y-61739224D01*
X93833494Y-61229776D02*
X93833494Y-61739224D01*
%TO.C,R33*%
X92788494Y-68836276D02*
X92788494Y-69345724D01*
X93833494Y-68836276D02*
X93833494Y-69345724D01*
%TO.C,TP7*%
X86679000Y-55372000D02*
G75*
G02*
X85279000Y-55372000I-700000J0D01*
G01*
X85279000Y-55372000D02*
G75*
G02*
X86679000Y-55372000I700000J0D01*
G01*
%TO.C,D3*%
X87846000Y-54202000D02*
X90306000Y-54202000D01*
X90306000Y-52732000D02*
X87846000Y-52732000D01*
X90306000Y-54202000D02*
X90306000Y-52732000D01*
%TO.C,U2*%
X66377500Y-74230000D02*
X66377500Y-72280000D01*
X66377500Y-74230000D02*
X66377500Y-76180000D01*
X71497500Y-74230000D02*
X71497500Y-72280000D01*
X71497500Y-74230000D02*
X71497500Y-76180000D01*
X66472500Y-76930000D02*
X66142500Y-77170000D01*
X66142500Y-76690000D01*
X66472500Y-76930000D01*
G36*
X66472500Y-76930000D02*
G01*
X66142500Y-77170000D01*
X66142500Y-76690000D01*
X66472500Y-76930000D01*
G37*
%TO.C,R16*%
X88367776Y-63104500D02*
X88877224Y-63104500D01*
X88367776Y-64149500D02*
X88877224Y-64149500D01*
%TO.C,R20*%
X78533224Y-72359500D02*
X78023776Y-72359500D01*
X78533224Y-73404500D02*
X78023776Y-73404500D01*
%TO.C,R12*%
X67691724Y-53668000D02*
X67182276Y-53668000D01*
X67691724Y-54713000D02*
X67182276Y-54713000D01*
%TO.C,C52*%
X76452000Y-57804267D02*
X76452000Y-57511733D01*
X77472000Y-57804267D02*
X77472000Y-57511733D01*
%TO.C,C3*%
X74801000Y-53994267D02*
X74801000Y-53701733D01*
X75821000Y-53994267D02*
X75821000Y-53701733D01*
%TO.C,C5*%
X64490500Y-74441267D02*
X64490500Y-74148733D01*
X65510500Y-74441267D02*
X65510500Y-74148733D01*
%TO.C,R8*%
X64478000Y-70612724D02*
X64478000Y-70103276D01*
X65523000Y-70612724D02*
X65523000Y-70103276D01*
%TO.C,R3*%
X71603776Y-78471500D02*
X72113224Y-78471500D01*
X71603776Y-79516500D02*
X72113224Y-79516500D01*
%TO.C,C6*%
X67902233Y-68959000D02*
X68194767Y-68959000D01*
X67902233Y-69979000D02*
X68194767Y-69979000D01*
%TO.C,R34*%
X92788494Y-72643276D02*
X92788494Y-73152724D01*
X93833494Y-72643276D02*
X93833494Y-73152724D01*
%TO.C,C32*%
X94578994Y-54107267D02*
X94578994Y-53814733D01*
X95598994Y-54107267D02*
X95598994Y-53814733D01*
%TO.C,R18*%
X83947724Y-64374500D02*
X83438276Y-64374500D01*
X83947724Y-65419500D02*
X83438276Y-65419500D01*
%TO.C,Q2*%
X88950800Y-65393300D02*
X88300800Y-65393300D01*
X88950800Y-65393300D02*
X89600800Y-65393300D01*
X88950800Y-68513300D02*
X88300800Y-68513300D01*
X88950800Y-68513300D02*
X89600800Y-68513300D01*
X87788300Y-65443300D02*
X87548300Y-65113300D01*
X88028300Y-65113300D01*
X87788300Y-65443300D01*
G36*
X87788300Y-65443300D02*
G01*
X87548300Y-65113300D01*
X88028300Y-65113300D01*
X87788300Y-65443300D01*
G37*
%TO.C,U14*%
X66311500Y-80155000D02*
X68311500Y-80155000D01*
X66311500Y-82375000D02*
X68311500Y-82375000D01*
X66071500Y-80255000D02*
X65791500Y-80255000D01*
X66071500Y-79975000D01*
X66071500Y-80255000D01*
G36*
X66071500Y-80255000D02*
G01*
X65791500Y-80255000D01*
X66071500Y-79975000D01*
X66071500Y-80255000D01*
G37*
%TO.C,C12*%
X84376800Y-67722533D02*
X84376800Y-68015067D01*
X85396800Y-67722533D02*
X85396800Y-68015067D01*
%TO.C,C38*%
X94578994Y-76897267D02*
X94578994Y-76604733D01*
X95598994Y-76897267D02*
X95598994Y-76604733D01*
%TO.C,R29*%
X92788494Y-53679776D02*
X92788494Y-54189224D01*
X93833494Y-53679776D02*
X93833494Y-54189224D01*
%TO.C,C36*%
X94578994Y-69263767D02*
X94578994Y-68971233D01*
X95598994Y-69263767D02*
X95598994Y-68971233D01*
%TO.C,U8*%
X97365994Y-60408500D02*
X98765994Y-60408500D01*
X97365994Y-62628500D02*
X98765994Y-62628500D01*
X96965994Y-60408500D02*
X96725994Y-60078500D01*
X97205994Y-60078500D01*
X96965994Y-60408500D01*
G36*
X96965994Y-60408500D02*
G01*
X96725994Y-60078500D01*
X97205994Y-60078500D01*
X96965994Y-60408500D01*
G37*
%TO.C,TP2*%
X65724000Y-66675000D02*
G75*
G02*
X64324000Y-66675000I-700000J0D01*
G01*
X64324000Y-66675000D02*
G75*
G02*
X65724000Y-66675000I700000J0D01*
G01*
%TO.C,U13*%
X97365994Y-79585500D02*
X98765994Y-79585500D01*
X97365994Y-81805500D02*
X98765994Y-81805500D01*
X96965994Y-79585500D02*
X96725994Y-79255500D01*
X97205994Y-79255500D01*
X96965994Y-79585500D01*
G36*
X96965994Y-79585500D02*
G01*
X96725994Y-79255500D01*
X97205994Y-79255500D01*
X96965994Y-79585500D01*
G37*
%TO.C,R19*%
X80264724Y-64374500D02*
X79755276Y-64374500D01*
X80264724Y-65419500D02*
X79755276Y-65419500D01*
%TO.C,R7*%
X88442076Y-69351800D02*
X88951524Y-69351800D01*
X88442076Y-70396800D02*
X88951524Y-70396800D01*
%TO.C,R4*%
X88291576Y-75193800D02*
X88801024Y-75193800D01*
X88291576Y-76238800D02*
X88801024Y-76238800D01*
%TO.C,R35*%
X92788494Y-76469776D02*
X92788494Y-76979224D01*
X93833494Y-76469776D02*
X93833494Y-76979224D01*
%TO.C,C7*%
X63977267Y-53680500D02*
X63684733Y-53680500D01*
X63977267Y-54700500D02*
X63684733Y-54700500D01*
%TO.C,R30*%
X92788494Y-57510276D02*
X92788494Y-58019724D01*
X93833494Y-57510276D02*
X93833494Y-58019724D01*
%TO.C,TP4*%
X75503000Y-66675000D02*
G75*
G02*
X74103000Y-66675000I-700000J0D01*
G01*
X74103000Y-66675000D02*
G75*
G02*
X75503000Y-66675000I700000J0D01*
G01*
%TO.C,R47*%
X88391276Y-54976500D02*
X88900724Y-54976500D01*
X88391276Y-56021500D02*
X88900724Y-56021500D01*
%TO.C,R45*%
X88391276Y-56754500D02*
X88900724Y-56754500D01*
X88391276Y-57799500D02*
X88900724Y-57799500D01*
%TO.C,U12*%
X97365994Y-75648500D02*
X98765994Y-75648500D01*
X97365994Y-77868500D02*
X98765994Y-77868500D01*
X96965994Y-75648500D02*
X96725994Y-75318500D01*
X97205994Y-75318500D01*
X96965994Y-75648500D01*
G36*
X96965994Y-75648500D02*
G01*
X96725994Y-75318500D01*
X97205994Y-75318500D01*
X96965994Y-75648500D01*
G37*
D16*
%TO.C,J1*%
X108666800Y-55334400D02*
X111716800Y-55334400D01*
X108666800Y-55439400D02*
X108666800Y-55334400D01*
X108666800Y-78574400D02*
X108666800Y-78469400D01*
X111716800Y-55439400D02*
X111716800Y-55334400D01*
X111716800Y-78469400D02*
X111716800Y-78574400D01*
X111716800Y-78574400D02*
X108666800Y-78574400D01*
X111656800Y-54684400D02*
G75*
G02*
X111456800Y-54684400I-100000J0D01*
G01*
X111456800Y-54684400D02*
G75*
G02*
X111656800Y-54684400I100000J0D01*
G01*
D14*
%TO.C,R5*%
X88442076Y-80908800D02*
X88951524Y-80908800D01*
X88442076Y-81953800D02*
X88951524Y-81953800D01*
%TD*%
M02*
