%TF.GenerationSoftware,KiCad,Pcbnew,9.0.3-9.0.3-0~ubuntu24.04.1*%
%TF.CreationDate,2025-07-10T15:37:18-04:00*%
%TF.ProjectId,sipm-hv-splitter,7369706d-2d68-4762-9d73-706c69747465,rev?*%
%TF.SameCoordinates,Original*%
%TF.FileFunction,Legend,Top*%
%TF.FilePolarity,Positive*%
%FSLAX46Y46*%
G04 Gerber Fmt 4.6, Leading zero omitted, Abs format (unit mm)*
G04 Created by KiCad (PCBNEW 9.0.3-9.0.3-0~ubuntu24.04.1) date 2025-07-10 15:37:18*
%MOMM*%
%LPD*%
G01*
G04 APERTURE LIST*
%ADD10C,0.100000*%
%ADD11C,0.203200*%
%ADD12C,0.150000*%
%ADD13C,0.120000*%
%ADD14C,0.127000*%
%ADD15C,0.200000*%
G04 APERTURE END LIST*
D10*
X112608646Y-78772419D02*
X113227693Y-78772419D01*
X113227693Y-78772419D02*
X112894360Y-79153371D01*
X112894360Y-79153371D02*
X113037217Y-79153371D01*
X113037217Y-79153371D02*
X113132455Y-79200990D01*
X113132455Y-79200990D02*
X113180074Y-79248609D01*
X113180074Y-79248609D02*
X113227693Y-79343847D01*
X113227693Y-79343847D02*
X113227693Y-79581942D01*
X113227693Y-79581942D02*
X113180074Y-79677180D01*
X113180074Y-79677180D02*
X113132455Y-79724800D01*
X113132455Y-79724800D02*
X113037217Y-79772419D01*
X113037217Y-79772419D02*
X112751503Y-79772419D01*
X112751503Y-79772419D02*
X112656265Y-79724800D01*
X112656265Y-79724800D02*
X112608646Y-79677180D01*
X114132455Y-78772419D02*
X113656265Y-78772419D01*
X113656265Y-78772419D02*
X113608646Y-79248609D01*
X113608646Y-79248609D02*
X113656265Y-79200990D01*
X113656265Y-79200990D02*
X113751503Y-79153371D01*
X113751503Y-79153371D02*
X113989598Y-79153371D01*
X113989598Y-79153371D02*
X114084836Y-79200990D01*
X114084836Y-79200990D02*
X114132455Y-79248609D01*
X114132455Y-79248609D02*
X114180074Y-79343847D01*
X114180074Y-79343847D02*
X114180074Y-79581942D01*
X114180074Y-79581942D02*
X114132455Y-79677180D01*
X114132455Y-79677180D02*
X114084836Y-79724800D01*
X114084836Y-79724800D02*
X113989598Y-79772419D01*
X113989598Y-79772419D02*
X113751503Y-79772419D01*
X113751503Y-79772419D02*
X113656265Y-79724800D01*
X113656265Y-79724800D02*
X113608646Y-79677180D01*
D11*
X101108369Y-79120363D02*
X101108369Y-78636554D01*
X102124369Y-78938935D02*
X100818083Y-78938935D01*
X100818083Y-78938935D02*
X100672940Y-78878458D01*
X100672940Y-78878458D02*
X100600369Y-78757506D01*
X100600369Y-78757506D02*
X100600369Y-78636554D01*
X102124369Y-78213221D02*
X100600369Y-78213221D01*
X100600369Y-78213221D02*
X102124369Y-77487506D01*
X102124369Y-77487506D02*
X100600369Y-77487506D01*
X102124369Y-76882745D02*
X100600369Y-76882745D01*
X102124369Y-75552268D02*
X101398655Y-75975602D01*
X102124369Y-76277983D02*
X100600369Y-76277983D01*
X100600369Y-76277983D02*
X100600369Y-75794173D01*
X100600369Y-75794173D02*
X100672940Y-75673221D01*
X100672940Y-75673221D02*
X100745512Y-75612744D01*
X100745512Y-75612744D02*
X100890655Y-75552268D01*
X100890655Y-75552268D02*
X101108369Y-75552268D01*
X101108369Y-75552268D02*
X101253512Y-75612744D01*
X101253512Y-75612744D02*
X101326083Y-75673221D01*
X101326083Y-75673221D02*
X101398655Y-75794173D01*
X101398655Y-75794173D02*
X101398655Y-76277983D01*
X102051798Y-75068459D02*
X102124369Y-74887030D01*
X102124369Y-74887030D02*
X102124369Y-74584649D01*
X102124369Y-74584649D02*
X102051798Y-74463697D01*
X102051798Y-74463697D02*
X101979226Y-74403221D01*
X101979226Y-74403221D02*
X101834083Y-74342744D01*
X101834083Y-74342744D02*
X101688940Y-74342744D01*
X101688940Y-74342744D02*
X101543798Y-74403221D01*
X101543798Y-74403221D02*
X101471226Y-74463697D01*
X101471226Y-74463697D02*
X101398655Y-74584649D01*
X101398655Y-74584649D02*
X101326083Y-74826554D01*
X101326083Y-74826554D02*
X101253512Y-74947506D01*
X101253512Y-74947506D02*
X101180940Y-75007983D01*
X101180940Y-75007983D02*
X101035798Y-75068459D01*
X101035798Y-75068459D02*
X100890655Y-75068459D01*
X100890655Y-75068459D02*
X100745512Y-75007983D01*
X100745512Y-75007983D02*
X100672940Y-74947506D01*
X100672940Y-74947506D02*
X100600369Y-74826554D01*
X100600369Y-74826554D02*
X100600369Y-74524173D01*
X100600369Y-74524173D02*
X100672940Y-74342744D01*
X100600369Y-72830840D02*
X101834083Y-72830840D01*
X101834083Y-72830840D02*
X101979226Y-72770363D01*
X101979226Y-72770363D02*
X102051798Y-72709887D01*
X102051798Y-72709887D02*
X102124369Y-72588935D01*
X102124369Y-72588935D02*
X102124369Y-72347030D01*
X102124369Y-72347030D02*
X102051798Y-72226078D01*
X102051798Y-72226078D02*
X101979226Y-72165601D01*
X101979226Y-72165601D02*
X101834083Y-72105125D01*
X101834083Y-72105125D02*
X100600369Y-72105125D01*
X102124369Y-71500364D02*
X100600369Y-71500364D01*
X101326083Y-71500364D02*
X101326083Y-70774649D01*
X102124369Y-70774649D02*
X100600369Y-70774649D01*
X102124369Y-70169888D02*
X100600369Y-70169888D01*
X100600369Y-70169888D02*
X100600369Y-69867507D01*
X100600369Y-69867507D02*
X100672940Y-69686078D01*
X100672940Y-69686078D02*
X100818083Y-69565126D01*
X100818083Y-69565126D02*
X100963226Y-69504649D01*
X100963226Y-69504649D02*
X101253512Y-69444173D01*
X101253512Y-69444173D02*
X101471226Y-69444173D01*
X101471226Y-69444173D02*
X101761512Y-69504649D01*
X101761512Y-69504649D02*
X101906655Y-69565126D01*
X101906655Y-69565126D02*
X102051798Y-69686078D01*
X102051798Y-69686078D02*
X102124369Y-69867507D01*
X102124369Y-69867507D02*
X102124369Y-70169888D01*
X102051798Y-67992745D02*
X102124369Y-67811316D01*
X102124369Y-67811316D02*
X102124369Y-67508935D01*
X102124369Y-67508935D02*
X102051798Y-67387983D01*
X102051798Y-67387983D02*
X101979226Y-67327507D01*
X101979226Y-67327507D02*
X101834083Y-67267030D01*
X101834083Y-67267030D02*
X101688940Y-67267030D01*
X101688940Y-67267030D02*
X101543798Y-67327507D01*
X101543798Y-67327507D02*
X101471226Y-67387983D01*
X101471226Y-67387983D02*
X101398655Y-67508935D01*
X101398655Y-67508935D02*
X101326083Y-67750840D01*
X101326083Y-67750840D02*
X101253512Y-67871792D01*
X101253512Y-67871792D02*
X101180940Y-67932269D01*
X101180940Y-67932269D02*
X101035798Y-67992745D01*
X101035798Y-67992745D02*
X100890655Y-67992745D01*
X100890655Y-67992745D02*
X100745512Y-67932269D01*
X100745512Y-67932269D02*
X100672940Y-67871792D01*
X100672940Y-67871792D02*
X100600369Y-67750840D01*
X100600369Y-67750840D02*
X100600369Y-67448459D01*
X100600369Y-67448459D02*
X100672940Y-67267030D01*
X102124369Y-66722745D02*
X101108369Y-66722745D01*
X100600369Y-66722745D02*
X100672940Y-66783221D01*
X100672940Y-66783221D02*
X100745512Y-66722745D01*
X100745512Y-66722745D02*
X100672940Y-66662268D01*
X100672940Y-66662268D02*
X100600369Y-66722745D01*
X100600369Y-66722745D02*
X100745512Y-66722745D01*
X102124369Y-66117983D02*
X100600369Y-66117983D01*
X100600369Y-66117983D02*
X100600369Y-65634173D01*
X100600369Y-65634173D02*
X100672940Y-65513221D01*
X100672940Y-65513221D02*
X100745512Y-65452744D01*
X100745512Y-65452744D02*
X100890655Y-65392268D01*
X100890655Y-65392268D02*
X101108369Y-65392268D01*
X101108369Y-65392268D02*
X101253512Y-65452744D01*
X101253512Y-65452744D02*
X101326083Y-65513221D01*
X101326083Y-65513221D02*
X101398655Y-65634173D01*
X101398655Y-65634173D02*
X101398655Y-66117983D01*
X102124369Y-64847983D02*
X100600369Y-64847983D01*
X100600369Y-64847983D02*
X101688940Y-64424649D01*
X101688940Y-64424649D02*
X100600369Y-64001316D01*
X100600369Y-64001316D02*
X102124369Y-64001316D01*
X102051798Y-62489411D02*
X102124369Y-62307982D01*
X102124369Y-62307982D02*
X102124369Y-62005601D01*
X102124369Y-62005601D02*
X102051798Y-61884649D01*
X102051798Y-61884649D02*
X101979226Y-61824173D01*
X101979226Y-61824173D02*
X101834083Y-61763696D01*
X101834083Y-61763696D02*
X101688940Y-61763696D01*
X101688940Y-61763696D02*
X101543798Y-61824173D01*
X101543798Y-61824173D02*
X101471226Y-61884649D01*
X101471226Y-61884649D02*
X101398655Y-62005601D01*
X101398655Y-62005601D02*
X101326083Y-62247506D01*
X101326083Y-62247506D02*
X101253512Y-62368458D01*
X101253512Y-62368458D02*
X101180940Y-62428935D01*
X101180940Y-62428935D02*
X101035798Y-62489411D01*
X101035798Y-62489411D02*
X100890655Y-62489411D01*
X100890655Y-62489411D02*
X100745512Y-62428935D01*
X100745512Y-62428935D02*
X100672940Y-62368458D01*
X100672940Y-62368458D02*
X100600369Y-62247506D01*
X100600369Y-62247506D02*
X100600369Y-61945125D01*
X100600369Y-61945125D02*
X100672940Y-61763696D01*
X101108369Y-61219411D02*
X102632369Y-61219411D01*
X101180940Y-61219411D02*
X101108369Y-61098458D01*
X101108369Y-61098458D02*
X101108369Y-60856553D01*
X101108369Y-60856553D02*
X101180940Y-60735601D01*
X101180940Y-60735601D02*
X101253512Y-60675125D01*
X101253512Y-60675125D02*
X101398655Y-60614649D01*
X101398655Y-60614649D02*
X101834083Y-60614649D01*
X101834083Y-60614649D02*
X101979226Y-60675125D01*
X101979226Y-60675125D02*
X102051798Y-60735601D01*
X102051798Y-60735601D02*
X102124369Y-60856553D01*
X102124369Y-60856553D02*
X102124369Y-61098458D01*
X102124369Y-61098458D02*
X102051798Y-61219411D01*
X102124369Y-59888934D02*
X102051798Y-60009886D01*
X102051798Y-60009886D02*
X101906655Y-60070363D01*
X101906655Y-60070363D02*
X100600369Y-60070363D01*
X102124369Y-59405125D02*
X101108369Y-59405125D01*
X100600369Y-59405125D02*
X100672940Y-59465601D01*
X100672940Y-59465601D02*
X100745512Y-59405125D01*
X100745512Y-59405125D02*
X100672940Y-59344648D01*
X100672940Y-59344648D02*
X100600369Y-59405125D01*
X100600369Y-59405125D02*
X100745512Y-59405125D01*
X101108369Y-58981791D02*
X101108369Y-58497982D01*
X100600369Y-58800363D02*
X101906655Y-58800363D01*
X101906655Y-58800363D02*
X102051798Y-58739886D01*
X102051798Y-58739886D02*
X102124369Y-58618934D01*
X102124369Y-58618934D02*
X102124369Y-58497982D01*
X101108369Y-58256077D02*
X101108369Y-57772268D01*
X100600369Y-58074649D02*
X101906655Y-58074649D01*
X101906655Y-58074649D02*
X102051798Y-58014172D01*
X102051798Y-58014172D02*
X102124369Y-57893220D01*
X102124369Y-57893220D02*
X102124369Y-57772268D01*
X102051798Y-56865125D02*
X102124369Y-56986077D01*
X102124369Y-56986077D02*
X102124369Y-57227982D01*
X102124369Y-57227982D02*
X102051798Y-57348935D01*
X102051798Y-57348935D02*
X101906655Y-57409411D01*
X101906655Y-57409411D02*
X101326083Y-57409411D01*
X101326083Y-57409411D02*
X101180940Y-57348935D01*
X101180940Y-57348935D02*
X101108369Y-57227982D01*
X101108369Y-57227982D02*
X101108369Y-56986077D01*
X101108369Y-56986077D02*
X101180940Y-56865125D01*
X101180940Y-56865125D02*
X101326083Y-56804649D01*
X101326083Y-56804649D02*
X101471226Y-56804649D01*
X101471226Y-56804649D02*
X101616369Y-57409411D01*
X102124369Y-56260364D02*
X101108369Y-56260364D01*
X101398655Y-56260364D02*
X101253512Y-56199887D01*
X101253512Y-56199887D02*
X101180940Y-56139411D01*
X101180940Y-56139411D02*
X101108369Y-56018459D01*
X101108369Y-56018459D02*
X101108369Y-55897506D01*
X103199067Y-78999411D02*
X103126495Y-78938935D01*
X103126495Y-78938935D02*
X103053924Y-78817982D01*
X103053924Y-78817982D02*
X103053924Y-78515601D01*
X103053924Y-78515601D02*
X103126495Y-78394649D01*
X103126495Y-78394649D02*
X103199067Y-78334173D01*
X103199067Y-78334173D02*
X103344210Y-78273696D01*
X103344210Y-78273696D02*
X103489353Y-78273696D01*
X103489353Y-78273696D02*
X103707067Y-78334173D01*
X103707067Y-78334173D02*
X104577924Y-79059887D01*
X104577924Y-79059887D02*
X104577924Y-78273696D01*
X103053924Y-77487506D02*
X103053924Y-77366553D01*
X103053924Y-77366553D02*
X103126495Y-77245601D01*
X103126495Y-77245601D02*
X103199067Y-77185125D01*
X103199067Y-77185125D02*
X103344210Y-77124649D01*
X103344210Y-77124649D02*
X103634495Y-77064172D01*
X103634495Y-77064172D02*
X103997353Y-77064172D01*
X103997353Y-77064172D02*
X104287638Y-77124649D01*
X104287638Y-77124649D02*
X104432781Y-77185125D01*
X104432781Y-77185125D02*
X104505353Y-77245601D01*
X104505353Y-77245601D02*
X104577924Y-77366553D01*
X104577924Y-77366553D02*
X104577924Y-77487506D01*
X104577924Y-77487506D02*
X104505353Y-77608458D01*
X104505353Y-77608458D02*
X104432781Y-77668934D01*
X104432781Y-77668934D02*
X104287638Y-77729411D01*
X104287638Y-77729411D02*
X103997353Y-77789887D01*
X103997353Y-77789887D02*
X103634495Y-77789887D01*
X103634495Y-77789887D02*
X103344210Y-77729411D01*
X103344210Y-77729411D02*
X103199067Y-77668934D01*
X103199067Y-77668934D02*
X103126495Y-77608458D01*
X103126495Y-77608458D02*
X103053924Y-77487506D01*
X103199067Y-76580363D02*
X103126495Y-76519887D01*
X103126495Y-76519887D02*
X103053924Y-76398934D01*
X103053924Y-76398934D02*
X103053924Y-76096553D01*
X103053924Y-76096553D02*
X103126495Y-75975601D01*
X103126495Y-75975601D02*
X103199067Y-75915125D01*
X103199067Y-75915125D02*
X103344210Y-75854648D01*
X103344210Y-75854648D02*
X103489353Y-75854648D01*
X103489353Y-75854648D02*
X103707067Y-75915125D01*
X103707067Y-75915125D02*
X104577924Y-76640839D01*
X104577924Y-76640839D02*
X104577924Y-75854648D01*
X103053924Y-74705601D02*
X103053924Y-75310363D01*
X103053924Y-75310363D02*
X103779638Y-75370839D01*
X103779638Y-75370839D02*
X103707067Y-75310363D01*
X103707067Y-75310363D02*
X103634495Y-75189410D01*
X103634495Y-75189410D02*
X103634495Y-74887029D01*
X103634495Y-74887029D02*
X103707067Y-74766077D01*
X103707067Y-74766077D02*
X103779638Y-74705601D01*
X103779638Y-74705601D02*
X103924781Y-74645124D01*
X103924781Y-74645124D02*
X104287638Y-74645124D01*
X104287638Y-74645124D02*
X104432781Y-74705601D01*
X104432781Y-74705601D02*
X104505353Y-74766077D01*
X104505353Y-74766077D02*
X104577924Y-74887029D01*
X104577924Y-74887029D02*
X104577924Y-75189410D01*
X104577924Y-75189410D02*
X104505353Y-75310363D01*
X104505353Y-75310363D02*
X104432781Y-75370839D01*
X103997353Y-74100839D02*
X103997353Y-73133220D01*
X103053924Y-72286553D02*
X103053924Y-72165600D01*
X103053924Y-72165600D02*
X103126495Y-72044648D01*
X103126495Y-72044648D02*
X103199067Y-71984172D01*
X103199067Y-71984172D02*
X103344210Y-71923696D01*
X103344210Y-71923696D02*
X103634495Y-71863219D01*
X103634495Y-71863219D02*
X103997353Y-71863219D01*
X103997353Y-71863219D02*
X104287638Y-71923696D01*
X104287638Y-71923696D02*
X104432781Y-71984172D01*
X104432781Y-71984172D02*
X104505353Y-72044648D01*
X104505353Y-72044648D02*
X104577924Y-72165600D01*
X104577924Y-72165600D02*
X104577924Y-72286553D01*
X104577924Y-72286553D02*
X104505353Y-72407505D01*
X104505353Y-72407505D02*
X104432781Y-72467981D01*
X104432781Y-72467981D02*
X104287638Y-72528458D01*
X104287638Y-72528458D02*
X103997353Y-72588934D01*
X103997353Y-72588934D02*
X103634495Y-72588934D01*
X103634495Y-72588934D02*
X103344210Y-72528458D01*
X103344210Y-72528458D02*
X103199067Y-72467981D01*
X103199067Y-72467981D02*
X103126495Y-72407505D01*
X103126495Y-72407505D02*
X103053924Y-72286553D01*
X103053924Y-71439886D02*
X103053924Y-70593219D01*
X103053924Y-70593219D02*
X104577924Y-71137505D01*
X103053924Y-68355600D02*
X104577924Y-67932267D01*
X104577924Y-67932267D02*
X103053924Y-67508933D01*
X104577924Y-66420362D02*
X104577924Y-67146077D01*
X104577924Y-66783220D02*
X103053924Y-66783220D01*
X103053924Y-66783220D02*
X103271638Y-66904172D01*
X103271638Y-66904172D02*
X103416781Y-67025124D01*
X103416781Y-67025124D02*
X103489353Y-67146077D01*
X104432781Y-65876077D02*
X104505353Y-65815600D01*
X104505353Y-65815600D02*
X104577924Y-65876077D01*
X104577924Y-65876077D02*
X104505353Y-65936553D01*
X104505353Y-65936553D02*
X104432781Y-65876077D01*
X104432781Y-65876077D02*
X104577924Y-65876077D01*
X103053924Y-65029410D02*
X103053924Y-64908457D01*
X103053924Y-64908457D02*
X103126495Y-64787505D01*
X103126495Y-64787505D02*
X103199067Y-64727029D01*
X103199067Y-64727029D02*
X103344210Y-64666553D01*
X103344210Y-64666553D02*
X103634495Y-64606076D01*
X103634495Y-64606076D02*
X103997353Y-64606076D01*
X103997353Y-64606076D02*
X104287638Y-64666553D01*
X104287638Y-64666553D02*
X104432781Y-64727029D01*
X104432781Y-64727029D02*
X104505353Y-64787505D01*
X104505353Y-64787505D02*
X104577924Y-64908457D01*
X104577924Y-64908457D02*
X104577924Y-65029410D01*
X104577924Y-65029410D02*
X104505353Y-65150362D01*
X104505353Y-65150362D02*
X104432781Y-65210838D01*
X104432781Y-65210838D02*
X104287638Y-65271315D01*
X104287638Y-65271315D02*
X103997353Y-65331791D01*
X103997353Y-65331791D02*
X103634495Y-65331791D01*
X103634495Y-65331791D02*
X103344210Y-65271315D01*
X103344210Y-65271315D02*
X103199067Y-65210838D01*
X103199067Y-65210838D02*
X103126495Y-65150362D01*
X103126495Y-65150362D02*
X103053924Y-65029410D01*
X103779638Y-62126553D02*
X103779638Y-61703219D01*
X104577924Y-61521791D02*
X104577924Y-62126553D01*
X104577924Y-62126553D02*
X103053924Y-62126553D01*
X103053924Y-62126553D02*
X103053924Y-61521791D01*
X104505353Y-61037981D02*
X104577924Y-60856552D01*
X104577924Y-60856552D02*
X104577924Y-60554171D01*
X104577924Y-60554171D02*
X104505353Y-60433219D01*
X104505353Y-60433219D02*
X104432781Y-60372743D01*
X104432781Y-60372743D02*
X104287638Y-60312266D01*
X104287638Y-60312266D02*
X104142495Y-60312266D01*
X104142495Y-60312266D02*
X103997353Y-60372743D01*
X103997353Y-60372743D02*
X103924781Y-60433219D01*
X103924781Y-60433219D02*
X103852210Y-60554171D01*
X103852210Y-60554171D02*
X103779638Y-60796076D01*
X103779638Y-60796076D02*
X103707067Y-60917028D01*
X103707067Y-60917028D02*
X103634495Y-60977505D01*
X103634495Y-60977505D02*
X103489353Y-61037981D01*
X103489353Y-61037981D02*
X103344210Y-61037981D01*
X103344210Y-61037981D02*
X103199067Y-60977505D01*
X103199067Y-60977505D02*
X103126495Y-60917028D01*
X103126495Y-60917028D02*
X103053924Y-60796076D01*
X103053924Y-60796076D02*
X103053924Y-60493695D01*
X103053924Y-60493695D02*
X103126495Y-60312266D01*
X104577924Y-59767981D02*
X103053924Y-59767981D01*
X103779638Y-59767981D02*
X103779638Y-59042266D01*
X104577924Y-59042266D02*
X103053924Y-59042266D01*
D10*
X106508646Y-78772419D02*
X107127693Y-78772419D01*
X107127693Y-78772419D02*
X106794360Y-79153371D01*
X106794360Y-79153371D02*
X106937217Y-79153371D01*
X106937217Y-79153371D02*
X107032455Y-79200990D01*
X107032455Y-79200990D02*
X107080074Y-79248609D01*
X107080074Y-79248609D02*
X107127693Y-79343847D01*
X107127693Y-79343847D02*
X107127693Y-79581942D01*
X107127693Y-79581942D02*
X107080074Y-79677180D01*
X107080074Y-79677180D02*
X107032455Y-79724800D01*
X107032455Y-79724800D02*
X106937217Y-79772419D01*
X106937217Y-79772419D02*
X106651503Y-79772419D01*
X106651503Y-79772419D02*
X106556265Y-79724800D01*
X106556265Y-79724800D02*
X106508646Y-79677180D01*
X107984836Y-78772419D02*
X107794360Y-78772419D01*
X107794360Y-78772419D02*
X107699122Y-78820038D01*
X107699122Y-78820038D02*
X107651503Y-78867657D01*
X107651503Y-78867657D02*
X107556265Y-79010514D01*
X107556265Y-79010514D02*
X107508646Y-79200990D01*
X107508646Y-79200990D02*
X107508646Y-79581942D01*
X107508646Y-79581942D02*
X107556265Y-79677180D01*
X107556265Y-79677180D02*
X107603884Y-79724800D01*
X107603884Y-79724800D02*
X107699122Y-79772419D01*
X107699122Y-79772419D02*
X107889598Y-79772419D01*
X107889598Y-79772419D02*
X107984836Y-79724800D01*
X107984836Y-79724800D02*
X108032455Y-79677180D01*
X108032455Y-79677180D02*
X108080074Y-79581942D01*
X108080074Y-79581942D02*
X108080074Y-79343847D01*
X108080074Y-79343847D02*
X108032455Y-79248609D01*
X108032455Y-79248609D02*
X107984836Y-79200990D01*
X107984836Y-79200990D02*
X107889598Y-79153371D01*
X107889598Y-79153371D02*
X107699122Y-79153371D01*
X107699122Y-79153371D02*
X107603884Y-79200990D01*
X107603884Y-79200990D02*
X107556265Y-79248609D01*
X107556265Y-79248609D02*
X107508646Y-79343847D01*
X113349693Y-54609419D02*
X112778265Y-54609419D01*
X113063979Y-54609419D02*
X113063979Y-53609419D01*
X113063979Y-53609419D02*
X112968741Y-53752276D01*
X112968741Y-53752276D02*
X112873503Y-53847514D01*
X112873503Y-53847514D02*
X112778265Y-53895133D01*
X107444265Y-53704657D02*
X107491884Y-53657038D01*
X107491884Y-53657038D02*
X107587122Y-53609419D01*
X107587122Y-53609419D02*
X107825217Y-53609419D01*
X107825217Y-53609419D02*
X107920455Y-53657038D01*
X107920455Y-53657038D02*
X107968074Y-53704657D01*
X107968074Y-53704657D02*
X108015693Y-53799895D01*
X108015693Y-53799895D02*
X108015693Y-53895133D01*
X108015693Y-53895133D02*
X107968074Y-54037990D01*
X107968074Y-54037990D02*
X107396646Y-54609419D01*
X107396646Y-54609419D02*
X108015693Y-54609419D01*
X51572419Y-57491353D02*
X51572419Y-56872306D01*
X51572419Y-56872306D02*
X51953371Y-57205639D01*
X51953371Y-57205639D02*
X51953371Y-57062782D01*
X51953371Y-57062782D02*
X52000990Y-56967544D01*
X52000990Y-56967544D02*
X52048609Y-56919925D01*
X52048609Y-56919925D02*
X52143847Y-56872306D01*
X52143847Y-56872306D02*
X52381942Y-56872306D01*
X52381942Y-56872306D02*
X52477180Y-56919925D01*
X52477180Y-56919925D02*
X52524800Y-56967544D01*
X52524800Y-56967544D02*
X52572419Y-57062782D01*
X52572419Y-57062782D02*
X52572419Y-57348496D01*
X52572419Y-57348496D02*
X52524800Y-57443734D01*
X52524800Y-57443734D02*
X52477180Y-57491353D01*
X51905752Y-56015163D02*
X52572419Y-56015163D01*
X51524800Y-56253258D02*
X52239085Y-56491353D01*
X52239085Y-56491353D02*
X52239085Y-55872306D01*
X77490384Y-63464419D02*
X77490384Y-62464419D01*
X78061812Y-63464419D02*
X77633241Y-62892990D01*
X78061812Y-62464419D02*
X77490384Y-63035847D01*
D12*
X62303953Y-78457502D02*
X62303953Y-79029097D01*
X62303953Y-78743299D02*
X61303662Y-78743299D01*
X61303662Y-78743299D02*
X61446561Y-78838565D01*
X61446561Y-78838565D02*
X61541827Y-78933831D01*
X61541827Y-78933831D02*
X61589460Y-79029097D01*
X52127364Y-79027354D02*
X52079738Y-78979728D01*
X52079738Y-78979728D02*
X52032112Y-78884477D01*
X52032112Y-78884477D02*
X52032112Y-78646348D01*
X52032112Y-78646348D02*
X52079738Y-78551096D01*
X52079738Y-78551096D02*
X52127364Y-78503470D01*
X52127364Y-78503470D02*
X52222616Y-78455845D01*
X52222616Y-78455845D02*
X52317867Y-78455845D01*
X52317867Y-78455845D02*
X52460745Y-78503470D01*
X52460745Y-78503470D02*
X53032254Y-79074980D01*
X53032254Y-79074980D02*
X53032254Y-78455845D01*
D10*
X91904115Y-52486580D02*
X91904115Y-53486580D01*
X91332687Y-52486580D02*
X91761258Y-53058009D01*
X91332687Y-53486580D02*
X91904115Y-52915152D01*
D13*
%TO.C,U3*%
X71857000Y-55957500D02*
X71857000Y-56357500D01*
X71457000Y-59257500D02*
X72207000Y-59257500D01*
X71457000Y-55957500D02*
X71857000Y-55957500D01*
X68957000Y-59257500D02*
X68557000Y-59257500D01*
X68957000Y-55957500D02*
X68557000Y-55957500D01*
X68557000Y-59257500D02*
X68557000Y-58857500D01*
X68557000Y-55957500D02*
X68557000Y-56357500D01*
%TO.C,L2*%
X89579267Y-61466000D02*
X89236733Y-61466000D01*
X89579267Y-62486000D02*
X89236733Y-62486000D01*
%TO.C,C39*%
X94578994Y-80834267D02*
X94578994Y-80541733D01*
X95598994Y-80834267D02*
X95598994Y-80541733D01*
%TO.C,C1*%
X62629000Y-60260233D02*
X62629000Y-60552767D01*
X63649000Y-60260233D02*
X63649000Y-60552767D01*
%TO.C,D2*%
X78326500Y-62257000D02*
X78326500Y-63727000D01*
X78326500Y-63727000D02*
X80786500Y-63727000D01*
X80786500Y-62257000D02*
X78326500Y-62257000D01*
%TO.C,R1*%
X76566500Y-53593276D02*
X76566500Y-54102724D01*
X77611500Y-53593276D02*
X77611500Y-54102724D01*
%TO.C,U11*%
X97365994Y-71822000D02*
X98765994Y-71822000D01*
X97365994Y-74042000D02*
X98765994Y-74042000D01*
X96965994Y-71822000D02*
X96725994Y-71492000D01*
X97205994Y-71492000D01*
X96965994Y-71822000D01*
G36*
X96965994Y-71822000D02*
G01*
X96725994Y-71492000D01*
X97205994Y-71492000D01*
X96965994Y-71822000D01*
G37*
%TO.C,U9*%
X97365994Y-64202000D02*
X98765994Y-64202000D01*
X97365994Y-66422000D02*
X98765994Y-66422000D01*
X96965994Y-64202000D02*
X96725994Y-63872000D01*
X97205994Y-63872000D01*
X96965994Y-64202000D01*
G36*
X96965994Y-64202000D02*
G01*
X96725994Y-63872000D01*
X97205994Y-63872000D01*
X96965994Y-64202000D01*
G37*
%TO.C,C50*%
X70592733Y-81278000D02*
X70885267Y-81278000D01*
X70592733Y-82298000D02*
X70885267Y-82298000D01*
%TO.C,R6*%
X73010500Y-54102724D02*
X73010500Y-53593276D01*
X74055500Y-54102724D02*
X74055500Y-53593276D01*
%TO.C,R17*%
X81712524Y-70140300D02*
X81203076Y-70140300D01*
X81712524Y-71185300D02*
X81203076Y-71185300D01*
%TO.C,U16*%
X76849500Y-80155000D02*
X78849500Y-80155000D01*
X76849500Y-82375000D02*
X78849500Y-82375000D01*
X76609500Y-80255000D02*
X76329500Y-80255000D01*
X76609500Y-79975000D01*
X76609500Y-80255000D01*
G36*
X76609500Y-80255000D02*
G01*
X76329500Y-80255000D01*
X76609500Y-79975000D01*
X76609500Y-80255000D01*
G37*
%TO.C,C4*%
X65932267Y-57109500D02*
X65639733Y-57109500D01*
X65932267Y-58129500D02*
X65639733Y-58129500D01*
%TO.C,R11*%
X72352000Y-74549724D02*
X72352000Y-74040276D01*
X73397000Y-74549724D02*
X73397000Y-74040276D01*
%TO.C,C54*%
X85977000Y-60598267D02*
X85977000Y-60305733D01*
X86997000Y-60598267D02*
X86997000Y-60305733D01*
%TO.C,R15*%
X83414776Y-62469500D02*
X83924224Y-62469500D01*
X83414776Y-63514500D02*
X83924224Y-63514500D01*
%TO.C,C2*%
X73531000Y-57473233D02*
X73531000Y-57765767D01*
X74551000Y-57473233D02*
X74551000Y-57765767D01*
%TO.C,Q3*%
X88999300Y-71169300D02*
X88349300Y-71169300D01*
X88999300Y-71169300D02*
X89649300Y-71169300D01*
X88999300Y-74289300D02*
X88349300Y-74289300D01*
X88999300Y-74289300D02*
X89649300Y-74289300D01*
X87836800Y-71219300D02*
X87596800Y-70889300D01*
X88076800Y-70889300D01*
X87836800Y-71219300D01*
G36*
X87836800Y-71219300D02*
G01*
X87596800Y-70889300D01*
X88076800Y-70889300D01*
X87836800Y-71219300D01*
G37*
%TO.C,C49*%
X74695267Y-81278000D02*
X74402733Y-81278000D01*
X74695267Y-82298000D02*
X74402733Y-82298000D01*
%TO.C,C51*%
X64027267Y-81278000D02*
X63734733Y-81278000D01*
X64027267Y-82298000D02*
X63734733Y-82298000D01*
%TO.C,U1*%
X79280500Y-56051000D02*
X79280500Y-55816000D01*
X79280500Y-60796000D02*
X79280500Y-60321000D01*
X79755500Y-55576000D02*
X79580500Y-55576000D01*
X79755500Y-60796000D02*
X79280500Y-60796000D01*
X84025500Y-55576000D02*
X84500500Y-55576000D01*
X84025500Y-60796000D02*
X84500500Y-60796000D01*
X84500500Y-55576000D02*
X84500500Y-56051000D01*
X84500500Y-60796000D02*
X84500500Y-60321000D01*
X79280500Y-55576000D02*
X79040500Y-55246000D01*
X79520500Y-55246000D01*
X79280500Y-55576000D01*
G36*
X79280500Y-55576000D02*
G01*
X79040500Y-55246000D01*
X79520500Y-55246000D01*
X79280500Y-55576000D01*
G37*
%TO.C,TP8*%
X85536000Y-70739000D02*
G75*
G02*
X84136000Y-70739000I-700000J0D01*
G01*
X84136000Y-70739000D02*
G75*
G02*
X85536000Y-70739000I700000J0D01*
G01*
%TO.C,C13*%
X76752500Y-75529733D02*
X76752500Y-75822267D01*
X77772500Y-75529733D02*
X77772500Y-75822267D01*
%TO.C,Q1*%
X89004300Y-77006300D02*
X88354300Y-77006300D01*
X89004300Y-77006300D02*
X89654300Y-77006300D01*
X89004300Y-80126300D02*
X88354300Y-80126300D01*
X89004300Y-80126300D02*
X89654300Y-80126300D01*
X87841800Y-77056300D02*
X87601800Y-76726300D01*
X88081800Y-76726300D01*
X87841800Y-77056300D01*
G36*
X87841800Y-77056300D02*
G01*
X87601800Y-76726300D01*
X88081800Y-76726300D01*
X87841800Y-77056300D01*
G37*
%TO.C,C34*%
X94578994Y-61657267D02*
X94578994Y-61364733D01*
X95598994Y-61657267D02*
X95598994Y-61364733D01*
%TO.C,C10*%
X71118000Y-62464767D02*
X71118000Y-62172233D01*
X72138000Y-62464767D02*
X72138000Y-62172233D01*
%TO.C,C9*%
X73258000Y-63029752D02*
X73258000Y-61607248D01*
X75078000Y-63029752D02*
X75078000Y-61607248D01*
%TO.C,U5*%
X81661000Y-74082000D02*
X80161000Y-74082000D01*
X81661000Y-74082000D02*
X83161000Y-74082000D01*
X81661000Y-77302000D02*
X80161000Y-77302000D01*
X81661000Y-77302000D02*
X83161000Y-77302000D01*
X79448500Y-74257000D02*
X79208500Y-73927000D01*
X79688500Y-73927000D01*
X79448500Y-74257000D01*
G36*
X79448500Y-74257000D02*
G01*
X79208500Y-73927000D01*
X79688500Y-73927000D01*
X79448500Y-74257000D01*
G37*
%TO.C,R10*%
X71603776Y-68946500D02*
X72113224Y-68946500D01*
X71603776Y-69991500D02*
X72113224Y-69991500D01*
%TO.C,C37*%
X94578994Y-73070767D02*
X94578994Y-72778233D01*
X95598994Y-73070767D02*
X95598994Y-72778233D01*
D10*
%TO.C,L1*%
X64001000Y-59425500D02*
X64001000Y-61325500D01*
X64001000Y-61325500D02*
X64201000Y-61625500D01*
X64201000Y-59125500D02*
X64001000Y-59425500D01*
X65401000Y-59025500D02*
X66401000Y-59025500D01*
X65401000Y-61825500D02*
X66401000Y-61825500D01*
X67601000Y-59025500D02*
X67801000Y-59325500D01*
X67801000Y-59325500D02*
X67801000Y-61425500D01*
X67801000Y-61425500D02*
X67601000Y-61725500D01*
D13*
%TO.C,C48*%
X81260733Y-81278000D02*
X81553267Y-81278000D01*
X81260733Y-82298000D02*
X81553267Y-82298000D01*
%TO.C,U4*%
X80949800Y-66181800D02*
X80149800Y-66181800D01*
X80949800Y-66181800D02*
X81749800Y-66181800D01*
X80949800Y-69301800D02*
X80149800Y-69301800D01*
X80949800Y-69301800D02*
X81749800Y-69301800D01*
X79649800Y-66231800D02*
X79409800Y-65901800D01*
X79889800Y-65901800D01*
X79649800Y-66231800D01*
G36*
X79649800Y-66231800D02*
G01*
X79409800Y-65901800D01*
X79889800Y-65901800D01*
X79649800Y-66231800D01*
G37*
%TO.C,D1*%
X68380000Y-64720500D02*
X68380000Y-61060500D01*
X68380000Y-64720500D02*
X70280000Y-64720500D01*
X70280000Y-64720500D02*
X70280000Y-61060500D01*
%TO.C,R46*%
X89153276Y-58024500D02*
X89662724Y-58024500D01*
X89153276Y-59069500D02*
X89662724Y-59069500D01*
%TO.C,R9*%
X70265936Y-65765000D02*
X71720064Y-65765000D01*
X70265936Y-67585000D02*
X71720064Y-67585000D01*
%TO.C,C55*%
X85977000Y-56915267D02*
X85977000Y-56622733D01*
X86997000Y-56915267D02*
X86997000Y-56622733D01*
%TO.C,J3*%
X79196000Y-53958000D02*
X79196000Y-53213000D01*
X79931000Y-53958000D02*
X79196000Y-53958000D01*
X80666000Y-52468000D02*
X85541000Y-52468000D01*
X80666000Y-52527435D02*
X80666000Y-52468000D01*
X80666000Y-53958000D02*
X80666000Y-53898565D01*
X80666000Y-53958000D02*
X85541000Y-53958000D01*
X85541000Y-52802970D02*
X85541000Y-52468000D01*
X85541000Y-53958000D02*
X85541000Y-53623030D01*
%TO.C,U7*%
X97365994Y-56689000D02*
X98765994Y-56689000D01*
X97365994Y-58909000D02*
X98765994Y-58909000D01*
X96965994Y-56689000D02*
X96725994Y-56359000D01*
X97205994Y-56359000D01*
X96965994Y-56689000D01*
G36*
X96965994Y-56689000D02*
G01*
X96725994Y-56359000D01*
X97205994Y-56359000D01*
X96965994Y-56689000D01*
G37*
%TO.C,C33*%
X94578994Y-57937767D02*
X94578994Y-57645233D01*
X95598994Y-57937767D02*
X95598994Y-57645233D01*
%TO.C,C53*%
X89261733Y-59815000D02*
X89554267Y-59815000D01*
X89261733Y-60835000D02*
X89554267Y-60835000D01*
%TO.C,R32*%
X92788494Y-65023276D02*
X92788494Y-65532724D01*
X93833494Y-65023276D02*
X93833494Y-65532724D01*
%TO.C,R13*%
X62596500Y-57112224D02*
X62596500Y-56602776D01*
X63641500Y-57112224D02*
X63641500Y-56602776D01*
%TO.C,C14*%
X81561233Y-77849000D02*
X81853767Y-77849000D01*
X81561233Y-78869000D02*
X81853767Y-78869000D01*
%TO.C,U6*%
X97365994Y-52858500D02*
X98765994Y-52858500D01*
X97365994Y-55078500D02*
X98765994Y-55078500D01*
X96965994Y-52858500D02*
X96725994Y-52528500D01*
X97205994Y-52528500D01*
X96965994Y-52858500D01*
G36*
X96965994Y-52858500D02*
G01*
X96725994Y-52528500D01*
X97205994Y-52528500D01*
X96965994Y-52858500D01*
G37*
%TO.C,R14*%
X66040724Y-55446000D02*
X65531276Y-55446000D01*
X66040724Y-56491000D02*
X65531276Y-56491000D01*
%TO.C,U10*%
X97365994Y-68015000D02*
X98765994Y-68015000D01*
X97365994Y-70235000D02*
X98765994Y-70235000D01*
X96965994Y-68015000D02*
X96725994Y-67685000D01*
X97205994Y-67685000D01*
X96965994Y-68015000D01*
G36*
X96965994Y-68015000D02*
G01*
X96725994Y-67685000D01*
X97205994Y-67685000D01*
X96965994Y-68015000D01*
G37*
D14*
%TO.C,J2*%
X53340000Y-54787800D02*
X53594000Y-54787800D01*
X53340000Y-79832200D02*
X53340000Y-54787800D01*
X53594000Y-52832000D02*
X60960000Y-52832000D01*
X53594000Y-54787800D02*
X53594000Y-52832000D01*
X53594000Y-79832200D02*
X53340000Y-79832200D01*
X53594000Y-81788000D02*
X53594000Y-79832200D01*
X60960000Y-52832000D02*
X60960000Y-81788000D01*
X60960000Y-81788000D02*
X53594000Y-81788000D01*
D13*
%TO.C,R36*%
X92788494Y-80406776D02*
X92788494Y-80916224D01*
X93833494Y-80406776D02*
X93833494Y-80916224D01*
%TO.C,R2*%
X67793776Y-78471500D02*
X68303224Y-78471500D01*
X67793776Y-79516500D02*
X68303224Y-79516500D01*
%TO.C,C11*%
X76502800Y-67595533D02*
X76502800Y-67888067D01*
X77522800Y-67595533D02*
X77522800Y-67888067D01*
%TO.C,C35*%
X94578994Y-65450767D02*
X94578994Y-65158233D01*
X95598994Y-65450767D02*
X95598994Y-65158233D01*
%TO.C,C15*%
X83593233Y-72372000D02*
X83885767Y-72372000D01*
X83593233Y-73392000D02*
X83885767Y-73392000D01*
%TO.C,C8*%
X71139267Y-53592000D02*
X70846733Y-53592000D01*
X71139267Y-54612000D02*
X70846733Y-54612000D01*
%TO.C,R31*%
X92788494Y-61229776D02*
X92788494Y-61739224D01*
X93833494Y-61229776D02*
X93833494Y-61739224D01*
%TO.C,R33*%
X92788494Y-68836276D02*
X92788494Y-69345724D01*
X93833494Y-68836276D02*
X93833494Y-69345724D01*
%TO.C,D3*%
X88608000Y-53694000D02*
X91068000Y-53694000D01*
X91068000Y-52224000D02*
X88608000Y-52224000D01*
X91068000Y-53694000D02*
X91068000Y-52224000D01*
%TO.C,U2*%
X66377500Y-74230000D02*
X66377500Y-72280000D01*
X66377500Y-74230000D02*
X66377500Y-76180000D01*
X71497500Y-74230000D02*
X71497500Y-72280000D01*
X71497500Y-74230000D02*
X71497500Y-76180000D01*
X66472500Y-76930000D02*
X66142500Y-77170000D01*
X66142500Y-76690000D01*
X66472500Y-76930000D01*
G36*
X66472500Y-76930000D02*
G01*
X66142500Y-77170000D01*
X66142500Y-76690000D01*
X66472500Y-76930000D01*
G37*
%TO.C,R16*%
X88367776Y-63104500D02*
X88877224Y-63104500D01*
X88367776Y-64149500D02*
X88877224Y-64149500D01*
%TO.C,R20*%
X78533224Y-72359500D02*
X78023776Y-72359500D01*
X78533224Y-73404500D02*
X78023776Y-73404500D01*
%TO.C,R12*%
X67691724Y-53668000D02*
X67182276Y-53668000D01*
X67691724Y-54713000D02*
X67182276Y-54713000D01*
%TO.C,C52*%
X76452000Y-57804267D02*
X76452000Y-57511733D01*
X77472000Y-57804267D02*
X77472000Y-57511733D01*
%TO.C,C3*%
X74801000Y-53994267D02*
X74801000Y-53701733D01*
X75821000Y-53994267D02*
X75821000Y-53701733D01*
%TO.C,C5*%
X64490500Y-74441267D02*
X64490500Y-74148733D01*
X65510500Y-74441267D02*
X65510500Y-74148733D01*
%TO.C,R8*%
X64478000Y-70612724D02*
X64478000Y-70103276D01*
X65523000Y-70612724D02*
X65523000Y-70103276D01*
%TO.C,R3*%
X71603776Y-78471500D02*
X72113224Y-78471500D01*
X71603776Y-79516500D02*
X72113224Y-79516500D01*
%TO.C,C6*%
X67902233Y-68959000D02*
X68194767Y-68959000D01*
X67902233Y-69979000D02*
X68194767Y-69979000D01*
%TO.C,R34*%
X92788494Y-72643276D02*
X92788494Y-73152724D01*
X93833494Y-72643276D02*
X93833494Y-73152724D01*
%TO.C,C32*%
X94578994Y-54107267D02*
X94578994Y-53814733D01*
X95598994Y-54107267D02*
X95598994Y-53814733D01*
%TO.C,R18*%
X83947724Y-64374500D02*
X83438276Y-64374500D01*
X83947724Y-65419500D02*
X83438276Y-65419500D01*
%TO.C,Q2*%
X88950800Y-65393300D02*
X88300800Y-65393300D01*
X88950800Y-65393300D02*
X89600800Y-65393300D01*
X88950800Y-68513300D02*
X88300800Y-68513300D01*
X88950800Y-68513300D02*
X89600800Y-68513300D01*
X87788300Y-65443300D02*
X87548300Y-65113300D01*
X88028300Y-65113300D01*
X87788300Y-65443300D01*
G36*
X87788300Y-65443300D02*
G01*
X87548300Y-65113300D01*
X88028300Y-65113300D01*
X87788300Y-65443300D01*
G37*
%TO.C,U14*%
X66311500Y-80155000D02*
X68311500Y-80155000D01*
X66311500Y-82375000D02*
X68311500Y-82375000D01*
X66071500Y-80255000D02*
X65791500Y-80255000D01*
X66071500Y-79975000D01*
X66071500Y-80255000D01*
G36*
X66071500Y-80255000D02*
G01*
X65791500Y-80255000D01*
X66071500Y-79975000D01*
X66071500Y-80255000D01*
G37*
%TO.C,C12*%
X84376800Y-67722533D02*
X84376800Y-68015067D01*
X85396800Y-67722533D02*
X85396800Y-68015067D01*
%TO.C,C38*%
X94578994Y-76897267D02*
X94578994Y-76604733D01*
X95598994Y-76897267D02*
X95598994Y-76604733D01*
%TO.C,R29*%
X92788494Y-53679776D02*
X92788494Y-54189224D01*
X93833494Y-53679776D02*
X93833494Y-54189224D01*
%TO.C,C36*%
X94578994Y-69263767D02*
X94578994Y-68971233D01*
X95598994Y-69263767D02*
X95598994Y-68971233D01*
%TO.C,U8*%
X97365994Y-60408500D02*
X98765994Y-60408500D01*
X97365994Y-62628500D02*
X98765994Y-62628500D01*
X96965994Y-60408500D02*
X96725994Y-60078500D01*
X97205994Y-60078500D01*
X96965994Y-60408500D01*
G36*
X96965994Y-60408500D02*
G01*
X96725994Y-60078500D01*
X97205994Y-60078500D01*
X96965994Y-60408500D01*
G37*
%TO.C,U13*%
X97365994Y-79585500D02*
X98765994Y-79585500D01*
X97365994Y-81805500D02*
X98765994Y-81805500D01*
X96965994Y-79585500D02*
X96725994Y-79255500D01*
X97205994Y-79255500D01*
X96965994Y-79585500D01*
G36*
X96965994Y-79585500D02*
G01*
X96725994Y-79255500D01*
X97205994Y-79255500D01*
X96965994Y-79585500D01*
G37*
%TO.C,R19*%
X80264724Y-64374500D02*
X79755276Y-64374500D01*
X80264724Y-65419500D02*
X79755276Y-65419500D01*
%TO.C,R7*%
X88442076Y-69351800D02*
X88951524Y-69351800D01*
X88442076Y-70396800D02*
X88951524Y-70396800D01*
%TO.C,R4*%
X88291576Y-75193800D02*
X88801024Y-75193800D01*
X88291576Y-76238800D02*
X88801024Y-76238800D01*
%TO.C,R35*%
X92788494Y-76469776D02*
X92788494Y-76979224D01*
X93833494Y-76469776D02*
X93833494Y-76979224D01*
%TO.C,C7*%
X63977267Y-53680500D02*
X63684733Y-53680500D01*
X63977267Y-54700500D02*
X63684733Y-54700500D01*
%TO.C,R30*%
X92788494Y-57510276D02*
X92788494Y-58019724D01*
X93833494Y-57510276D02*
X93833494Y-58019724D01*
%TO.C,R47*%
X89153276Y-54468500D02*
X89662724Y-54468500D01*
X89153276Y-55513500D02*
X89662724Y-55513500D01*
%TO.C,R45*%
X89153276Y-56246500D02*
X89662724Y-56246500D01*
X89153276Y-57291500D02*
X89662724Y-57291500D01*
%TO.C,U12*%
X97365994Y-75648500D02*
X98765994Y-75648500D01*
X97365994Y-77868500D02*
X98765994Y-77868500D01*
X96965994Y-75648500D02*
X96725994Y-75318500D01*
X97205994Y-75318500D01*
X96965994Y-75648500D01*
G36*
X96965994Y-75648500D02*
G01*
X96725994Y-75318500D01*
X97205994Y-75318500D01*
X96965994Y-75648500D01*
G37*
D15*
%TO.C,J1*%
X108666800Y-55334400D02*
X111716800Y-55334400D01*
X108666800Y-55439400D02*
X108666800Y-55334400D01*
X108666800Y-78574400D02*
X108666800Y-78469400D01*
X111716800Y-55439400D02*
X111716800Y-55334400D01*
X111716800Y-78469400D02*
X111716800Y-78574400D01*
X111716800Y-78574400D02*
X108666800Y-78574400D01*
X111656800Y-54684400D02*
G75*
G02*
X111456800Y-54684400I-100000J0D01*
G01*
X111456800Y-54684400D02*
G75*
G02*
X111656800Y-54684400I100000J0D01*
G01*
D13*
%TO.C,R5*%
X88442076Y-80908800D02*
X88951524Y-80908800D01*
X88442076Y-81953800D02*
X88951524Y-81953800D01*
%TD*%
M02*
