%TF.GenerationSoftware,KiCad,Pcbnew,9.0.2-9.0.2-0~ubuntu24.04.1*%
%TF.CreationDate,2025-07-03T09:08:44-04:00*%
%TF.ProjectId,sipm-hv-splitter,7369706d-2d68-4762-9d73-706c69747465,rev?*%
%TF.SameCoordinates,Original*%
%TF.FileFunction,Legend,Bot*%
%TF.FilePolarity,Positive*%
%FSLAX46Y46*%
G04 Gerber Fmt 4.6, Leading zero omitted, Abs format (unit mm)*
G04 Created by KiCad (PCBNEW 9.0.2-9.0.2-0~ubuntu24.04.1) date 2025-07-03 09:08:44*
%MOMM*%
%LPD*%
G01*
G04 APERTURE LIST*
%ADD10C,0.100000*%
%ADD11C,0.152400*%
%ADD12C,0.120000*%
G04 APERTURE END LIST*
D10*
X96900000Y-55800000D02*
X97500000Y-55600000D01*
X94400000Y-55800000D02*
X96900000Y-55800000D01*
D11*
X106171500Y-55218677D02*
X106213833Y-55261011D01*
X106213833Y-55261011D02*
X106340833Y-55303344D01*
X106340833Y-55303344D02*
X106425500Y-55303344D01*
X106425500Y-55303344D02*
X106552500Y-55261011D01*
X106552500Y-55261011D02*
X106637167Y-55176344D01*
X106637167Y-55176344D02*
X106679500Y-55091677D01*
X106679500Y-55091677D02*
X106721833Y-54922344D01*
X106721833Y-54922344D02*
X106721833Y-54795344D01*
X106721833Y-54795344D02*
X106679500Y-54626011D01*
X106679500Y-54626011D02*
X106637167Y-54541344D01*
X106637167Y-54541344D02*
X106552500Y-54456677D01*
X106552500Y-54456677D02*
X106425500Y-54414344D01*
X106425500Y-54414344D02*
X106340833Y-54414344D01*
X106340833Y-54414344D02*
X106213833Y-54456677D01*
X106213833Y-54456677D02*
X106171500Y-54499011D01*
X105409500Y-54710677D02*
X105409500Y-55303344D01*
X105621167Y-54372011D02*
X105832833Y-55007011D01*
X105832833Y-55007011D02*
X105282500Y-55007011D01*
X104774500Y-54414344D02*
X104689833Y-54414344D01*
X104689833Y-54414344D02*
X104605166Y-54456677D01*
X104605166Y-54456677D02*
X104562833Y-54499011D01*
X104562833Y-54499011D02*
X104520500Y-54583677D01*
X104520500Y-54583677D02*
X104478166Y-54753011D01*
X104478166Y-54753011D02*
X104478166Y-54964677D01*
X104478166Y-54964677D02*
X104520500Y-55134011D01*
X104520500Y-55134011D02*
X104562833Y-55218677D01*
X104562833Y-55218677D02*
X104605166Y-55261011D01*
X104605166Y-55261011D02*
X104689833Y-55303344D01*
X104689833Y-55303344D02*
X104774500Y-55303344D01*
X104774500Y-55303344D02*
X104859166Y-55261011D01*
X104859166Y-55261011D02*
X104901500Y-55218677D01*
X104901500Y-55218677D02*
X104943833Y-55134011D01*
X104943833Y-55134011D02*
X104986166Y-54964677D01*
X104986166Y-54964677D02*
X104986166Y-54753011D01*
X104986166Y-54753011D02*
X104943833Y-54583677D01*
X104943833Y-54583677D02*
X104901500Y-54499011D01*
X104901500Y-54499011D02*
X104859166Y-54456677D01*
X104859166Y-54456677D02*
X104774500Y-54414344D01*
X93571500Y-55718677D02*
X93613833Y-55761011D01*
X93613833Y-55761011D02*
X93740833Y-55803344D01*
X93740833Y-55803344D02*
X93825500Y-55803344D01*
X93825500Y-55803344D02*
X93952500Y-55761011D01*
X93952500Y-55761011D02*
X94037167Y-55676344D01*
X94037167Y-55676344D02*
X94079500Y-55591677D01*
X94079500Y-55591677D02*
X94121833Y-55422344D01*
X94121833Y-55422344D02*
X94121833Y-55295344D01*
X94121833Y-55295344D02*
X94079500Y-55126011D01*
X94079500Y-55126011D02*
X94037167Y-55041344D01*
X94037167Y-55041344D02*
X93952500Y-54956677D01*
X93952500Y-54956677D02*
X93825500Y-54914344D01*
X93825500Y-54914344D02*
X93740833Y-54914344D01*
X93740833Y-54914344D02*
X93613833Y-54956677D01*
X93613833Y-54956677D02*
X93571500Y-54999011D01*
X93232833Y-54999011D02*
X93190500Y-54956677D01*
X93190500Y-54956677D02*
X93105833Y-54914344D01*
X93105833Y-54914344D02*
X92894167Y-54914344D01*
X92894167Y-54914344D02*
X92809500Y-54956677D01*
X92809500Y-54956677D02*
X92767167Y-54999011D01*
X92767167Y-54999011D02*
X92724833Y-55083677D01*
X92724833Y-55083677D02*
X92724833Y-55168344D01*
X92724833Y-55168344D02*
X92767167Y-55295344D01*
X92767167Y-55295344D02*
X93275167Y-55803344D01*
X93275167Y-55803344D02*
X92724833Y-55803344D01*
X91962833Y-55210677D02*
X91962833Y-55803344D01*
X92174500Y-54872011D02*
X92386166Y-55507011D01*
X92386166Y-55507011D02*
X91835833Y-55507011D01*
X106171500Y-53803344D02*
X106467833Y-53380011D01*
X106679500Y-53803344D02*
X106679500Y-52914344D01*
X106679500Y-52914344D02*
X106340833Y-52914344D01*
X106340833Y-52914344D02*
X106256167Y-52956677D01*
X106256167Y-52956677D02*
X106213833Y-52999011D01*
X106213833Y-52999011D02*
X106171500Y-53083677D01*
X106171500Y-53083677D02*
X106171500Y-53210677D01*
X106171500Y-53210677D02*
X106213833Y-53295344D01*
X106213833Y-53295344D02*
X106256167Y-53337677D01*
X106256167Y-53337677D02*
X106340833Y-53380011D01*
X106340833Y-53380011D02*
X106679500Y-53380011D01*
X105875167Y-52914344D02*
X105324833Y-52914344D01*
X105324833Y-52914344D02*
X105621167Y-53253011D01*
X105621167Y-53253011D02*
X105494167Y-53253011D01*
X105494167Y-53253011D02*
X105409500Y-53295344D01*
X105409500Y-53295344D02*
X105367167Y-53337677D01*
X105367167Y-53337677D02*
X105324833Y-53422344D01*
X105324833Y-53422344D02*
X105324833Y-53634011D01*
X105324833Y-53634011D02*
X105367167Y-53718677D01*
X105367167Y-53718677D02*
X105409500Y-53761011D01*
X105409500Y-53761011D02*
X105494167Y-53803344D01*
X105494167Y-53803344D02*
X105748167Y-53803344D01*
X105748167Y-53803344D02*
X105832833Y-53761011D01*
X105832833Y-53761011D02*
X105875167Y-53718677D01*
X105028500Y-52914344D02*
X104435833Y-52914344D01*
X104435833Y-52914344D02*
X104816833Y-53803344D01*
X93571500Y-53403344D02*
X93867833Y-52980011D01*
X94079500Y-53403344D02*
X94079500Y-52514344D01*
X94079500Y-52514344D02*
X93740833Y-52514344D01*
X93740833Y-52514344D02*
X93656167Y-52556677D01*
X93656167Y-52556677D02*
X93613833Y-52599011D01*
X93613833Y-52599011D02*
X93571500Y-52683677D01*
X93571500Y-52683677D02*
X93571500Y-52810677D01*
X93571500Y-52810677D02*
X93613833Y-52895344D01*
X93613833Y-52895344D02*
X93656167Y-52937677D01*
X93656167Y-52937677D02*
X93740833Y-52980011D01*
X93740833Y-52980011D02*
X94079500Y-52980011D01*
X93232833Y-52599011D02*
X93190500Y-52556677D01*
X93190500Y-52556677D02*
X93105833Y-52514344D01*
X93105833Y-52514344D02*
X92894167Y-52514344D01*
X92894167Y-52514344D02*
X92809500Y-52556677D01*
X92809500Y-52556677D02*
X92767167Y-52599011D01*
X92767167Y-52599011D02*
X92724833Y-52683677D01*
X92724833Y-52683677D02*
X92724833Y-52768344D01*
X92724833Y-52768344D02*
X92767167Y-52895344D01*
X92767167Y-52895344D02*
X93275167Y-53403344D01*
X93275167Y-53403344D02*
X92724833Y-53403344D01*
X91878166Y-53403344D02*
X92386166Y-53403344D01*
X92132166Y-53403344D02*
X92132166Y-52514344D01*
X92132166Y-52514344D02*
X92216833Y-52641344D01*
X92216833Y-52641344D02*
X92301500Y-52726011D01*
X92301500Y-52726011D02*
X92386166Y-52768344D01*
X98771500Y-51934177D02*
X98813833Y-51976511D01*
X98813833Y-51976511D02*
X98940833Y-52018844D01*
X98940833Y-52018844D02*
X99025500Y-52018844D01*
X99025500Y-52018844D02*
X99152500Y-51976511D01*
X99152500Y-51976511D02*
X99237167Y-51891844D01*
X99237167Y-51891844D02*
X99279500Y-51807177D01*
X99279500Y-51807177D02*
X99321833Y-51637844D01*
X99321833Y-51637844D02*
X99321833Y-51510844D01*
X99321833Y-51510844D02*
X99279500Y-51341511D01*
X99279500Y-51341511D02*
X99237167Y-51256844D01*
X99237167Y-51256844D02*
X99152500Y-51172177D01*
X99152500Y-51172177D02*
X99025500Y-51129844D01*
X99025500Y-51129844D02*
X98940833Y-51129844D01*
X98940833Y-51129844D02*
X98813833Y-51172177D01*
X98813833Y-51172177D02*
X98771500Y-51214511D01*
X97924833Y-52018844D02*
X98432833Y-52018844D01*
X98178833Y-52018844D02*
X98178833Y-51129844D01*
X98178833Y-51129844D02*
X98263500Y-51256844D01*
X98263500Y-51256844D02*
X98348167Y-51341511D01*
X98348167Y-51341511D02*
X98432833Y-51383844D01*
X97162833Y-51129844D02*
X97332166Y-51129844D01*
X97332166Y-51129844D02*
X97416833Y-51172177D01*
X97416833Y-51172177D02*
X97459166Y-51214511D01*
X97459166Y-51214511D02*
X97543833Y-51341511D01*
X97543833Y-51341511D02*
X97586166Y-51510844D01*
X97586166Y-51510844D02*
X97586166Y-51849511D01*
X97586166Y-51849511D02*
X97543833Y-51934177D01*
X97543833Y-51934177D02*
X97501500Y-51976511D01*
X97501500Y-51976511D02*
X97416833Y-52018844D01*
X97416833Y-52018844D02*
X97247500Y-52018844D01*
X97247500Y-52018844D02*
X97162833Y-51976511D01*
X97162833Y-51976511D02*
X97120500Y-51934177D01*
X97120500Y-51934177D02*
X97078166Y-51849511D01*
X97078166Y-51849511D02*
X97078166Y-51637844D01*
X97078166Y-51637844D02*
X97120500Y-51553177D01*
X97120500Y-51553177D02*
X97162833Y-51510844D01*
X97162833Y-51510844D02*
X97247500Y-51468511D01*
X97247500Y-51468511D02*
X97416833Y-51468511D01*
X97416833Y-51468511D02*
X97501500Y-51510844D01*
X97501500Y-51510844D02*
X97543833Y-51553177D01*
X97543833Y-51553177D02*
X97586166Y-51637844D01*
D12*
%TO.C,C21*%
X98309761Y-71499000D02*
X98017227Y-71499000D01*
X98309761Y-72519000D02*
X98017227Y-72519000D01*
%TO.C,R43*%
X102098218Y-75440000D02*
X101588770Y-75440000D01*
X102098218Y-76485000D02*
X101588770Y-76485000D01*
%TO.C,R28*%
X94693494Y-80942724D02*
X94693494Y-80433276D01*
X95738494Y-80942724D02*
X95738494Y-80433276D01*
%TO.C,C22*%
X98309761Y-75325500D02*
X98017227Y-75325500D01*
X98309761Y-76345500D02*
X98017227Y-76345500D01*
%TO.C,R42*%
X102098218Y-71613500D02*
X101588770Y-71613500D01*
X102098218Y-72658500D02*
X101588770Y-72658500D01*
%TO.C,C20*%
X98309761Y-67692000D02*
X98017227Y-67692000D01*
X98309761Y-68712000D02*
X98017227Y-68712000D01*
%TO.C,C40*%
X101700227Y-54313500D02*
X101992761Y-54313500D01*
X101700227Y-55333500D02*
X101992761Y-55333500D01*
%TO.C,R44*%
X102098218Y-79377000D02*
X101588770Y-79377000D01*
X102098218Y-80422000D02*
X101588770Y-80422000D01*
%TO.C,R25*%
X94693494Y-69372224D02*
X94693494Y-68862776D01*
X95738494Y-69372224D02*
X95738494Y-68862776D01*
%TO.C,C41*%
X101700227Y-58144000D02*
X101992761Y-58144000D01*
X101700227Y-59164000D02*
X101992761Y-59164000D01*
%TO.C,R24*%
X94693494Y-65559224D02*
X94693494Y-65049776D01*
X95738494Y-65559224D02*
X95738494Y-65049776D01*
%TO.C,C45*%
X101700227Y-73277000D02*
X101992761Y-73277000D01*
X101700227Y-74297000D02*
X101992761Y-74297000D01*
%TO.C,C18*%
X98309761Y-60085500D02*
X98017227Y-60085500D01*
X98309761Y-61105500D02*
X98017227Y-61105500D01*
%TO.C,C28*%
X98017227Y-69470000D02*
X98309761Y-69470000D01*
X98017227Y-70490000D02*
X98309761Y-70490000D01*
%TO.C,R41*%
X102098218Y-67806500D02*
X101588770Y-67806500D01*
X102098218Y-68851500D02*
X101588770Y-68851500D01*
%TO.C,R39*%
X102098218Y-60200000D02*
X101588770Y-60200000D01*
X102098218Y-61245000D02*
X101588770Y-61245000D01*
%TO.C,C46*%
X101700227Y-77103500D02*
X101992761Y-77103500D01*
X101700227Y-78123500D02*
X101992761Y-78123500D01*
%TO.C,R27*%
X94693494Y-77005724D02*
X94693494Y-76496276D01*
X95738494Y-77005724D02*
X95738494Y-76496276D01*
%TO.C,C29*%
X98017227Y-73277000D02*
X98309761Y-73277000D01*
X98017227Y-74297000D02*
X98309761Y-74297000D01*
%TO.C,C25*%
X98017227Y-58144000D02*
X98309761Y-58144000D01*
X98017227Y-59164000D02*
X98309761Y-59164000D01*
%TO.C,C17*%
X98309761Y-56366000D02*
X98017227Y-56366000D01*
X98309761Y-57386000D02*
X98017227Y-57386000D01*
%TO.C,C43*%
X101700227Y-65657000D02*
X101992761Y-65657000D01*
X101700227Y-66677000D02*
X101992761Y-66677000D01*
%TO.C,C44*%
X101700227Y-69470000D02*
X101992761Y-69470000D01*
X101700227Y-70490000D02*
X101992761Y-70490000D01*
%TO.C,C24*%
X98017227Y-54313500D02*
X98309761Y-54313500D01*
X98017227Y-55333500D02*
X98309761Y-55333500D01*
%TO.C,R37*%
X102098218Y-52650000D02*
X101588770Y-52650000D01*
X102098218Y-53695000D02*
X101588770Y-53695000D01*
%TO.C,R21*%
X94693494Y-54215724D02*
X94693494Y-53706276D01*
X95738494Y-54215724D02*
X95738494Y-53706276D01*
%TO.C,C30*%
X98017227Y-77103500D02*
X98309761Y-77103500D01*
X98017227Y-78123500D02*
X98309761Y-78123500D01*
%TO.C,R22*%
X94693494Y-58046224D02*
X94693494Y-57536776D01*
X95738494Y-58046224D02*
X95738494Y-57536776D01*
%TO.C,C26*%
X98017227Y-61863500D02*
X98309761Y-61863500D01*
X98017227Y-62883500D02*
X98309761Y-62883500D01*
%TO.C,C19*%
X98309761Y-63879000D02*
X98017227Y-63879000D01*
X98309761Y-64899000D02*
X98017227Y-64899000D01*
%TO.C,C16*%
X98309761Y-52535500D02*
X98017227Y-52535500D01*
X98309761Y-53555500D02*
X98017227Y-53555500D01*
%TO.C,R38*%
X102098218Y-56480500D02*
X101588770Y-56480500D01*
X102098218Y-57525500D02*
X101588770Y-57525500D01*
%TO.C,C31*%
X98017227Y-81040500D02*
X98309761Y-81040500D01*
X98017227Y-82060500D02*
X98309761Y-82060500D01*
%TO.C,C27*%
X98017227Y-65657000D02*
X98309761Y-65657000D01*
X98017227Y-66677000D02*
X98309761Y-66677000D01*
%TO.C,R26*%
X94693494Y-73179224D02*
X94693494Y-72669776D01*
X95738494Y-73179224D02*
X95738494Y-72669776D01*
%TO.C,R40*%
X102098218Y-63993500D02*
X101588770Y-63993500D01*
X102098218Y-65038500D02*
X101588770Y-65038500D01*
%TO.C,C23*%
X98309761Y-79262500D02*
X98017227Y-79262500D01*
X98309761Y-80282500D02*
X98017227Y-80282500D01*
%TO.C,C47*%
X101700227Y-81040500D02*
X101992761Y-81040500D01*
X101700227Y-82060500D02*
X101992761Y-82060500D01*
%TO.C,R23*%
X94693494Y-61765724D02*
X94693494Y-61256276D01*
X95738494Y-61765724D02*
X95738494Y-61256276D01*
%TO.C,C42*%
X101700227Y-61863500D02*
X101992761Y-61863500D01*
X101700227Y-62883500D02*
X101992761Y-62883500D01*
%TD*%
M02*
