%TF.GenerationSoftware,KiCad,Pcbnew,9.0.2-9.0.2-0~ubuntu24.04.1*%
%TF.CreationDate,2025-07-08T13:32:57-04:00*%
%TF.ProjectId,sipm-hv-splitter,7369706d-2d68-4762-9d73-706c69747465,rev?*%
%TF.SameCoordinates,Original*%
%TF.FileFunction,Copper,L6,Bot*%
%TF.FilePolarity,Positive*%
%FSLAX46Y46*%
G04 Gerber Fmt 4.6, Leading zero omitted, Abs format (unit mm)*
G04 Created by KiCad (PCBNEW 9.0.2-9.0.2-0~ubuntu24.04.1) date 2025-07-08 13:32:57*
%MOMM*%
%LPD*%
G01*
G04 APERTURE LIST*
G04 Aperture macros list*
%AMRoundRect*
0 Rectangle with rounded corners*
0 $1 Rounding radius*
0 $2 $3 $4 $5 $6 $7 $8 $9 X,Y pos of 4 corners*
0 Add a 4 corners polygon primitive as box body*
4,1,4,$2,$3,$4,$5,$6,$7,$8,$9,$2,$3,0*
0 Add four circle primitives for the rounded corners*
1,1,$1+$1,$2,$3*
1,1,$1+$1,$4,$5*
1,1,$1+$1,$6,$7*
1,1,$1+$1,$8,$9*
0 Add four rect primitives between the rounded corners*
20,1,$1+$1,$2,$3,$4,$5,0*
20,1,$1+$1,$4,$5,$6,$7,0*
20,1,$1+$1,$6,$7,$8,$9,0*
20,1,$1+$1,$8,$9,$2,$3,0*%
G04 Aperture macros list end*
%TA.AperFunction,HeatsinkPad*%
%ADD10C,0.500000*%
%TD*%
%TA.AperFunction,HeatsinkPad*%
%ADD11R,0.500000X1.600000*%
%TD*%
%TA.AperFunction,HeatsinkPad*%
%ADD12C,0.254000*%
%TD*%
%TA.AperFunction,ComponentPad*%
%ADD13R,0.850000X0.850000*%
%TD*%
%TA.AperFunction,ComponentPad*%
%ADD14C,0.850000*%
%TD*%
%TA.AperFunction,SMDPad,CuDef*%
%ADD15RoundRect,0.237500X0.300000X0.237500X-0.300000X0.237500X-0.300000X-0.237500X0.300000X-0.237500X0*%
%TD*%
%TA.AperFunction,SMDPad,CuDef*%
%ADD16RoundRect,0.237500X0.250000X0.237500X-0.250000X0.237500X-0.250000X-0.237500X0.250000X-0.237500X0*%
%TD*%
%TA.AperFunction,SMDPad,CuDef*%
%ADD17RoundRect,0.237500X0.237500X-0.250000X0.237500X0.250000X-0.237500X0.250000X-0.237500X-0.250000X0*%
%TD*%
%TA.AperFunction,SMDPad,CuDef*%
%ADD18RoundRect,0.237500X-0.300000X-0.237500X0.300000X-0.237500X0.300000X0.237500X-0.300000X0.237500X0*%
%TD*%
%TA.AperFunction,ViaPad*%
%ADD19C,0.635000*%
%TD*%
%TA.AperFunction,ViaPad*%
%ADD20C,0.381000*%
%TD*%
%TA.AperFunction,Conductor*%
%ADD21C,0.381000*%
%TD*%
%TA.AperFunction,Conductor*%
%ADD22C,0.127000*%
%TD*%
G04 APERTURE END LIST*
D10*
%TO.P,U16,7,Pad*%
%TO.N,GND*%
X77849500Y-80715000D03*
D11*
X77849500Y-81265000D03*
D10*
X77849500Y-81815000D03*
%TD*%
D12*
%TO.P,U3,17,EP/GND*%
%TO.N,GND*%
X70627000Y-58027500D03*
X70627000Y-57187500D03*
X70207000Y-57607500D03*
X69787000Y-58027500D03*
X69787000Y-57187500D03*
%TD*%
D13*
%TO.P,J3,1,MISO*%
%TO.N,/MISO*%
X79931000Y-53213000D03*
D14*
%TO.P,J3,2,VCC*%
%TO.N,+3.3V*%
X80931000Y-53213000D03*
%TO.P,J3,3,SCK*%
%TO.N,/SCK*%
X81931000Y-53213000D03*
%TO.P,J3,4,MOSI*%
%TO.N,/MOSI*%
X82931000Y-53213000D03*
%TO.P,J3,5,~{RST}*%
%TO.N,/~{RESET}*%
X83931000Y-53213000D03*
%TO.P,J3,6,GND*%
%TO.N,GND*%
X84931000Y-53213000D03*
%TD*%
D10*
%TO.P,U14,7,Pad*%
%TO.N,GND*%
X67311500Y-80715000D03*
D11*
X67311500Y-81265000D03*
D10*
X67311500Y-81815000D03*
%TD*%
D15*
%TO.P,C21,1*%
%TO.N,+3.3VA*%
X99025994Y-72009000D03*
%TO.P,C21,2*%
%TO.N,GND*%
X97300994Y-72009000D03*
%TD*%
D16*
%TO.P,R43,1*%
%TO.N,/VBIAS*%
X102755994Y-75962500D03*
%TO.P,R43,2*%
%TO.N,/TIA_6/SIPM_K*%
X100930994Y-75962500D03*
%TD*%
D17*
%TO.P,R28,1*%
%TO.N,/DET_0*%
X95215994Y-81600500D03*
%TO.P,R28,2*%
%TO.N,Net-(C39-Pad2)*%
X95215994Y-79775500D03*
%TD*%
D15*
%TO.P,C22,1*%
%TO.N,+3.3VA*%
X99025994Y-75835500D03*
%TO.P,C22,2*%
%TO.N,GND*%
X97300994Y-75835500D03*
%TD*%
D16*
%TO.P,R42,1*%
%TO.N,/VBIAS*%
X102755994Y-72136000D03*
%TO.P,R42,2*%
%TO.N,/TIA_5/SIPM_K*%
X100930994Y-72136000D03*
%TD*%
D15*
%TO.P,C20,1*%
%TO.N,+3.3VA*%
X99025994Y-68202000D03*
%TO.P,C20,2*%
%TO.N,GND*%
X97300994Y-68202000D03*
%TD*%
D18*
%TO.P,C40,1*%
%TO.N,/TIA_0/SIPM_K*%
X100983994Y-54823500D03*
%TO.P,C40,2*%
%TO.N,GND*%
X102708994Y-54823500D03*
%TD*%
D16*
%TO.P,R44,1*%
%TO.N,/VBIAS*%
X102755994Y-79899500D03*
%TO.P,R44,2*%
%TO.N,/TIA_7/SIPM_K*%
X100930994Y-79899500D03*
%TD*%
D17*
%TO.P,R25,1*%
%TO.N,/DET_3*%
X95215994Y-70030000D03*
%TO.P,R25,2*%
%TO.N,Net-(C36-Pad2)*%
X95215994Y-68205000D03*
%TD*%
D18*
%TO.P,C41,1*%
%TO.N,/TIA_1/SIPM_K*%
X100983994Y-58654000D03*
%TO.P,C41,2*%
%TO.N,GND*%
X102708994Y-58654000D03*
%TD*%
D17*
%TO.P,R24,1*%
%TO.N,/DET_4*%
X95215994Y-66217000D03*
%TO.P,R24,2*%
%TO.N,Net-(C35-Pad2)*%
X95215994Y-64392000D03*
%TD*%
D18*
%TO.P,C45,1*%
%TO.N,/TIA_5/SIPM_K*%
X100983994Y-73787000D03*
%TO.P,C45,2*%
%TO.N,GND*%
X102708994Y-73787000D03*
%TD*%
D15*
%TO.P,C18,1*%
%TO.N,+3.3VA*%
X99025994Y-60595500D03*
%TO.P,C18,2*%
%TO.N,GND*%
X97300994Y-60595500D03*
%TD*%
D18*
%TO.P,C28,1*%
%TO.N,-24V*%
X97300994Y-69980000D03*
%TO.P,C28,2*%
%TO.N,GND*%
X99025994Y-69980000D03*
%TD*%
D16*
%TO.P,R41,1*%
%TO.N,/VBIAS*%
X102755994Y-68329000D03*
%TO.P,R41,2*%
%TO.N,/TIA_4/SIPM_K*%
X100930994Y-68329000D03*
%TD*%
%TO.P,R39,1*%
%TO.N,/VBIAS*%
X102755994Y-60722500D03*
%TO.P,R39,2*%
%TO.N,/TIA_2/SIPM_K*%
X100930994Y-60722500D03*
%TD*%
D18*
%TO.P,C46,1*%
%TO.N,/TIA_6/SIPM_K*%
X100983994Y-77613500D03*
%TO.P,C46,2*%
%TO.N,GND*%
X102708994Y-77613500D03*
%TD*%
D17*
%TO.P,R27,1*%
%TO.N,/DET_1*%
X95215994Y-77663500D03*
%TO.P,R27,2*%
%TO.N,Net-(C38-Pad2)*%
X95215994Y-75838500D03*
%TD*%
D18*
%TO.P,C29,1*%
%TO.N,-24V*%
X97300994Y-73787000D03*
%TO.P,C29,2*%
%TO.N,GND*%
X99025994Y-73787000D03*
%TD*%
%TO.P,C25,1*%
%TO.N,-24V*%
X97300994Y-58654000D03*
%TO.P,C25,2*%
%TO.N,GND*%
X99025994Y-58654000D03*
%TD*%
D15*
%TO.P,C17,1*%
%TO.N,+3.3VA*%
X99025994Y-56876000D03*
%TO.P,C17,2*%
%TO.N,GND*%
X97300994Y-56876000D03*
%TD*%
D18*
%TO.P,C43,1*%
%TO.N,/TIA_3/SIPM_K*%
X100983994Y-66167000D03*
%TO.P,C43,2*%
%TO.N,GND*%
X102708994Y-66167000D03*
%TD*%
%TO.P,C44,1*%
%TO.N,/TIA_4/SIPM_K*%
X100983994Y-69980000D03*
%TO.P,C44,2*%
%TO.N,GND*%
X102708994Y-69980000D03*
%TD*%
%TO.P,C24,1*%
%TO.N,-24V*%
X97300994Y-54823500D03*
%TO.P,C24,2*%
%TO.N,GND*%
X99025994Y-54823500D03*
%TD*%
D16*
%TO.P,R37,1*%
%TO.N,/VBIAS*%
X102755994Y-53172500D03*
%TO.P,R37,2*%
%TO.N,/TIA_0/SIPM_K*%
X100930994Y-53172500D03*
%TD*%
D17*
%TO.P,R21,1*%
%TO.N,/DET_7*%
X95215994Y-54873500D03*
%TO.P,R21,2*%
%TO.N,Net-(C32-Pad2)*%
X95215994Y-53048500D03*
%TD*%
D18*
%TO.P,C30,1*%
%TO.N,-24V*%
X97300994Y-77613500D03*
%TO.P,C30,2*%
%TO.N,GND*%
X99025994Y-77613500D03*
%TD*%
D17*
%TO.P,R22,1*%
%TO.N,/DET_6*%
X95215994Y-58704000D03*
%TO.P,R22,2*%
%TO.N,Net-(C33-Pad2)*%
X95215994Y-56879000D03*
%TD*%
D18*
%TO.P,C26,1*%
%TO.N,-24V*%
X97300994Y-62373500D03*
%TO.P,C26,2*%
%TO.N,GND*%
X99025994Y-62373500D03*
%TD*%
D15*
%TO.P,C19,1*%
%TO.N,+3.3VA*%
X99025994Y-64389000D03*
%TO.P,C19,2*%
%TO.N,GND*%
X97300994Y-64389000D03*
%TD*%
%TO.P,C16,1*%
%TO.N,+3.3VA*%
X99025994Y-53045500D03*
%TO.P,C16,2*%
%TO.N,GND*%
X97300994Y-53045500D03*
%TD*%
D16*
%TO.P,R38,1*%
%TO.N,/VBIAS*%
X102755994Y-57003000D03*
%TO.P,R38,2*%
%TO.N,/TIA_1/SIPM_K*%
X100930994Y-57003000D03*
%TD*%
D18*
%TO.P,C31,1*%
%TO.N,-24V*%
X97300994Y-81550500D03*
%TO.P,C31,2*%
%TO.N,GND*%
X99025994Y-81550500D03*
%TD*%
%TO.P,C27,1*%
%TO.N,-24V*%
X97300994Y-66167000D03*
%TO.P,C27,2*%
%TO.N,GND*%
X99025994Y-66167000D03*
%TD*%
D17*
%TO.P,R26,1*%
%TO.N,/DET_2*%
X95215994Y-73837000D03*
%TO.P,R26,2*%
%TO.N,Net-(C37-Pad2)*%
X95215994Y-72012000D03*
%TD*%
D16*
%TO.P,R40,1*%
%TO.N,/VBIAS*%
X102755994Y-64516000D03*
%TO.P,R40,2*%
%TO.N,/TIA_3/SIPM_K*%
X100930994Y-64516000D03*
%TD*%
D15*
%TO.P,C23,1*%
%TO.N,+3.3VA*%
X99025994Y-79772500D03*
%TO.P,C23,2*%
%TO.N,GND*%
X97300994Y-79772500D03*
%TD*%
D18*
%TO.P,C47,1*%
%TO.N,/TIA_7/SIPM_K*%
X100983994Y-81550500D03*
%TO.P,C47,2*%
%TO.N,GND*%
X102708994Y-81550500D03*
%TD*%
D17*
%TO.P,R23,1*%
%TO.N,/DET_5*%
X95215994Y-62423500D03*
%TO.P,R23,2*%
%TO.N,Net-(C34-Pad2)*%
X95215994Y-60598500D03*
%TD*%
D18*
%TO.P,C42,1*%
%TO.N,/TIA_2/SIPM_K*%
X100983994Y-62373500D03*
%TO.P,C42,2*%
%TO.N,GND*%
X102708994Y-62373500D03*
%TD*%
D19*
%TO.N,GND*%
X103629000Y-81550500D03*
X87095500Y-59258200D03*
X98171000Y-53931500D03*
D20*
X83185000Y-81788000D03*
X63119000Y-81026000D03*
D19*
X98171000Y-69088000D03*
X99060000Y-63132500D03*
X98171000Y-76721500D03*
X64897000Y-56642000D03*
D20*
X89027000Y-67945000D03*
D19*
X71500000Y-77600000D03*
X61036200Y-73407000D03*
X63144400Y-60526000D03*
D20*
X80645000Y-75692000D03*
D19*
X103629000Y-69980000D03*
D20*
X78629000Y-58436000D03*
X80899000Y-68453000D03*
D19*
X103629000Y-77613500D03*
D20*
X83312000Y-78613000D03*
X80637000Y-76192000D03*
X90272700Y-75716300D03*
D19*
X75438000Y-60833000D03*
X71601500Y-80925500D03*
X99060000Y-59413000D03*
X103629000Y-66167000D03*
X61010800Y-60960000D03*
X103629000Y-58654000D03*
D20*
X70993000Y-59944000D03*
D19*
X99060000Y-78372500D03*
X113087800Y-70185400D03*
X60985400Y-71145400D03*
X74865000Y-58482000D03*
X113087800Y-65105400D03*
X77824500Y-56795500D03*
X91440000Y-52959000D03*
X98171000Y-72895000D03*
X99060000Y-66926000D03*
X61036200Y-68605400D03*
X86614000Y-56642000D03*
X113087800Y-59898400D03*
D20*
X85140800Y-58293000D03*
D19*
X72390000Y-58420000D03*
X99060000Y-74546000D03*
X76327000Y-76454000D03*
X61976000Y-54102000D03*
X98171000Y-57762000D03*
X98171000Y-61481500D03*
X61036200Y-58420000D03*
X113087800Y-67645400D03*
X103629000Y-62373500D03*
X98171000Y-65275000D03*
X103629000Y-73787000D03*
X61010800Y-76174600D03*
X91567000Y-60325000D03*
X99060000Y-55582500D03*
D20*
X71374000Y-60706000D03*
X84383187Y-68074564D03*
X84074000Y-72263000D03*
X68565000Y-81265000D03*
D19*
X113087800Y-62565400D03*
D20*
X79200000Y-81300000D03*
X89139700Y-79516300D03*
D19*
X63881000Y-73406000D03*
D20*
X82566000Y-76692000D03*
D19*
X69469000Y-54864000D03*
X73686500Y-80925500D03*
X77851000Y-64770000D03*
X99060000Y-82309500D03*
X60985400Y-63474600D03*
D20*
X73533000Y-78994000D03*
D19*
X76073000Y-68707000D03*
D20*
X89154000Y-73787000D03*
D19*
X113087800Y-75138400D03*
X103629000Y-54823500D03*
X98171000Y-80658500D03*
X113087800Y-57358400D03*
X113087800Y-72598400D03*
X61036200Y-66040000D03*
X99060000Y-70739000D03*
X74422000Y-53467000D03*
%TO.N,+12V*%
X57277000Y-59664600D03*
D20*
X79218000Y-80615000D03*
D19*
X75311000Y-55499000D03*
X57251600Y-62204600D03*
D20*
X68580000Y-81915000D03*
D19*
X63989000Y-59544000D03*
X69850000Y-80899000D03*
X57251600Y-69824600D03*
X57277000Y-64795400D03*
X57124600Y-77444600D03*
X57302400Y-72390000D03*
D20*
X80645000Y-81026000D03*
X72771000Y-57150000D03*
D19*
X57277000Y-67310000D03*
D20*
X68580000Y-80645000D03*
D19*
X57175400Y-75185000D03*
D20*
X79248000Y-81915000D03*
D19*
%TO.N,+3.3V*%
X91313000Y-56769000D03*
X76327000Y-74803000D03*
D20*
X82677000Y-61976000D03*
X78486000Y-59055000D03*
D19*
X79248000Y-74041000D03*
D20*
X88519000Y-69342000D03*
D19*
X66294000Y-76962000D03*
D20*
X86892300Y-81431300D03*
D19*
X65000500Y-76096500D03*
D20*
X78503485Y-57908628D03*
X87757000Y-64389000D03*
D19*
X73636500Y-75207500D03*
X91186000Y-61722000D03*
X75311000Y-80899000D03*
D20*
X76454000Y-80645000D03*
D19*
X77700000Y-58500000D03*
%TO.N,/VBIAS*%
X103629000Y-75962500D03*
X103629000Y-64516000D03*
X103629000Y-60722500D03*
X92075000Y-67310000D03*
X92075000Y-64770000D03*
X103629000Y-72136000D03*
X92075000Y-72390000D03*
X103629000Y-79899500D03*
X103629000Y-68329000D03*
X103629000Y-53172500D03*
X103629000Y-57003000D03*
X92075000Y-68580000D03*
X92075000Y-71120000D03*
%TO.N,-24V*%
X53213000Y-69824600D03*
X96124347Y-58004837D03*
X53000000Y-77500000D03*
X96124347Y-80901337D03*
X96124347Y-54174337D03*
X96124347Y-76964337D03*
X53263800Y-74930000D03*
X96124347Y-65517837D03*
X96124347Y-73137837D03*
X53238400Y-59690000D03*
X53213000Y-72339200D03*
X53187600Y-67335400D03*
X53213000Y-62204600D03*
X53213000Y-64770000D03*
X96124347Y-61724337D03*
X96124347Y-69330837D03*
D20*
%TO.N,Net-(C32-Pad2)*%
X94234000Y-53042500D03*
D19*
%TO.N,/TIA_0/SIPM_K*%
X101674491Y-55614959D03*
%TO.N,/TIA_1/SIPM_K*%
X101674491Y-59445459D03*
D20*
%TO.N,Net-(C33-Pad2)*%
X94234000Y-56873000D03*
%TO.N,Net-(C34-Pad2)*%
X94234000Y-60592500D03*
D19*
%TO.N,/TIA_2/SIPM_K*%
X101674491Y-63164959D03*
%TO.N,/TIA_3/SIPM_K*%
X101674491Y-66958459D03*
D20*
%TO.N,Net-(C35-Pad2)*%
X94234000Y-64386000D03*
%TO.N,Net-(C36-Pad2)*%
X94234000Y-68199000D03*
D19*
%TO.N,/TIA_4/SIPM_K*%
X101674491Y-70771459D03*
%TO.N,/TIA_5/SIPM_K*%
X101674491Y-74578459D03*
D20*
%TO.N,Net-(C37-Pad2)*%
X94234000Y-72006000D03*
D19*
%TO.N,/TIA_6/SIPM_K*%
X101674491Y-78404959D03*
D20*
%TO.N,Net-(C38-Pad2)*%
X94234000Y-75832500D03*
%TO.N,Net-(C39-Pad2)*%
X94234000Y-79769500D03*
D19*
%TO.N,/TIA_7/SIPM_K*%
X101674491Y-82341959D03*
D20*
%TO.N,/BOOST/SHDN*%
X91059000Y-63627000D03*
X77978000Y-62992000D03*
X78359000Y-68707000D03*
X91059000Y-72771000D03*
X91034700Y-66953300D03*
%TO.N,/DET_4*%
X96012000Y-66799000D03*
%TO.N,/THERM*%
X87757000Y-57785000D03*
X87376000Y-52324000D03*
X87355500Y-54764500D03*
%TO.N,/DET_1*%
X96012000Y-78245500D03*
%TO.N,/DET_2*%
X96012000Y-74419000D03*
%TO.N,/DET_0*%
X96012000Y-82182500D03*
%TO.N,/DET_5*%
X96012000Y-63005500D03*
%TO.N,/DET_6*%
X96012000Y-59286000D03*
%TO.N,/DET_7*%
X96012000Y-55455500D03*
%TO.N,/DET_3*%
X96012000Y-70612000D03*
D19*
%TO.N,/SIG_3*%
X92076100Y-70003500D03*
X53187600Y-68656200D03*
D20*
%TO.N,+3.3VA*%
X99695000Y-56365000D03*
X99695000Y-52534500D03*
X99695000Y-71498000D03*
X99695000Y-75324500D03*
X99695000Y-60084500D03*
X99695000Y-67691000D03*
X64743500Y-81052500D03*
X99695000Y-63878000D03*
X65943000Y-80615000D03*
X99695000Y-79261500D03*
D19*
%TO.N,/SIG_1*%
X53238400Y-73482200D03*
X92481400Y-77647800D03*
%TO.N,/SIG_2*%
X53213000Y-71145400D03*
X92557600Y-73761600D03*
%TO.N,/SIG_6*%
X53238400Y-60960000D03*
X92202000Y-58699400D03*
D20*
%TO.N,/COMM{slash}TX*%
X55118000Y-56007000D03*
X59944000Y-52578000D03*
D19*
%TO.N,/SIG_7*%
X92227400Y-54838600D03*
X53263800Y-58470800D03*
%TO.N,/SIG_4*%
X53187600Y-66014600D03*
X92049600Y-66014600D03*
%TO.N,/SIG_5*%
X92125800Y-62357000D03*
X53213000Y-63423800D03*
%TO.N,/SIG_0*%
X92506800Y-81559400D03*
X53263800Y-76225400D03*
D20*
%TO.N,Net-(Q1-D)*%
X70739000Y-73533000D03*
X72644000Y-77724000D03*
%TO.N,/VR_RESET*%
X81407000Y-74676000D03*
X81809184Y-61548437D03*
%TO.N,Net-(Q2-G)*%
X74930000Y-77089000D03*
X74930000Y-73279000D03*
X86614000Y-77343000D03*
X86523700Y-66003300D03*
%TO.N,/VR_SHDN*%
X80772000Y-74041000D03*
X78486000Y-59690000D03*
X89002700Y-71779300D03*
X90297000Y-69977000D03*
%TO.N,/ADC_IMON*%
X85344000Y-57785000D03*
X85344000Y-78105000D03*
%TO.N,/ADC_VMON*%
X85471000Y-57160240D03*
X86610000Y-64007685D03*
%TO.N,/MOSI*%
X84066000Y-61956856D03*
X84963000Y-75561000D03*
%TO.N,/~{SYNC}*%
X80926429Y-61611461D03*
X82432422Y-75069000D03*
%TO.N,/SCK*%
X84277200Y-60883800D03*
X82351030Y-75950252D03*
%TO.N,/BOOST_ENA*%
X72745600Y-60731400D03*
X70485000Y-55118000D03*
%TO.N,/~{RESET}*%
X83566000Y-54610000D03*
%TO.N,/MISO*%
X85348000Y-76342014D03*
X85348000Y-61341000D03*
%TO.N,/PGOOD*%
X72898000Y-59563000D03*
X72898000Y-56134000D03*
%TO.N,Net-(U1-PD2)*%
X79633500Y-55748500D03*
X80391000Y-54102000D03*
%TO.N,Net-(U1-AVCC)*%
X85090000Y-59436000D03*
%TD*%
D21*
%TO.N,GND*%
X102708994Y-73787000D02*
X103629000Y-73787000D01*
X97301000Y-64405000D02*
X98171000Y-65275000D01*
X102708994Y-77613500D02*
X103629000Y-77613500D01*
X97301000Y-56892000D02*
X98171000Y-57762000D01*
X99026000Y-73787000D02*
X99026000Y-74512000D01*
X102708994Y-81550500D02*
X103629000Y-81550500D01*
X102708994Y-54823500D02*
X103629000Y-54823500D01*
X103632000Y-54820500D02*
X103629000Y-54823500D01*
X99026000Y-62373500D02*
X99026000Y-63098500D01*
X99026000Y-78338500D02*
X99060000Y-78372500D01*
X97301000Y-72025000D02*
X98171000Y-72895000D01*
X97301000Y-53045500D02*
X97301000Y-53061500D01*
X103632000Y-58651000D02*
X103629000Y-58654000D01*
X97301000Y-75835500D02*
X97301000Y-75851500D01*
X97301000Y-68202000D02*
X97301000Y-68218000D01*
X97301000Y-64389000D02*
X97301000Y-64405000D01*
X99026000Y-69980000D02*
X99026000Y-70705000D01*
X97301000Y-56876000D02*
X97301000Y-56892000D01*
X99026000Y-74512000D02*
X99060000Y-74546000D01*
X103632000Y-69977000D02*
X103629000Y-69980000D01*
X99026000Y-54823500D02*
X99026000Y-55548500D01*
X102708994Y-58654000D02*
X103629000Y-58654000D01*
X97301000Y-79788500D02*
X98171000Y-80658500D01*
X99026000Y-63098500D02*
X99060000Y-63132500D01*
X97301000Y-60611500D02*
X98171000Y-61481500D01*
X102708994Y-69980000D02*
X103629000Y-69980000D01*
X99026000Y-66167000D02*
X99026000Y-66892000D01*
X99026000Y-66892000D02*
X99060000Y-66926000D01*
X97301000Y-72009000D02*
X97301000Y-72025000D01*
X99026000Y-81550500D02*
X99026000Y-82275500D01*
X102708994Y-62373500D02*
X103629000Y-62373500D01*
X99026000Y-77613500D02*
X99026000Y-78338500D01*
X103632000Y-73784000D02*
X103629000Y-73787000D01*
X99026000Y-70705000D02*
X99060000Y-70739000D01*
X103632000Y-77610500D02*
X103629000Y-77613500D01*
X97301000Y-75851500D02*
X98171000Y-76721500D01*
X103632000Y-66164000D02*
X103629000Y-66167000D01*
X99026000Y-58654000D02*
X99026000Y-59379000D01*
X97301000Y-60595500D02*
X97301000Y-60611500D01*
X99026000Y-82275500D02*
X99060000Y-82309500D01*
X99026000Y-55548500D02*
X99060000Y-55582500D01*
X97301000Y-79772500D02*
X97301000Y-79788500D01*
X99026000Y-59379000D02*
X99060000Y-59413000D01*
X103632000Y-62370500D02*
X103629000Y-62373500D01*
X103632000Y-81547500D02*
X103629000Y-81550500D01*
X102708994Y-66167000D02*
X103629000Y-66167000D01*
X97301000Y-53061500D02*
X98171000Y-53931500D01*
X97301000Y-68218000D02*
X98171000Y-69088000D01*
%TO.N,/VBIAS*%
X102755994Y-75962500D02*
X103629000Y-75962500D01*
X103632000Y-68326000D02*
X103629000Y-68329000D01*
X103632000Y-64513000D02*
X103629000Y-64516000D01*
X102755994Y-57003000D02*
X103629000Y-57003000D01*
X103632000Y-75959500D02*
X103629000Y-75962500D01*
X102755994Y-64516000D02*
X103629000Y-64516000D01*
X102755994Y-53172500D02*
X103629000Y-53172500D01*
X103632000Y-72133000D02*
X103629000Y-72136000D01*
X102755994Y-79899500D02*
X103629000Y-79899500D01*
X102755994Y-68329000D02*
X103629000Y-68329000D01*
X103632000Y-53169500D02*
X103629000Y-53172500D01*
X103632000Y-60719500D02*
X103629000Y-60722500D01*
X102755994Y-72136000D02*
X103629000Y-72136000D01*
X103632000Y-57000000D02*
X103629000Y-57003000D01*
X103632000Y-79896500D02*
X103629000Y-79899500D01*
X102755994Y-60722500D02*
X103629000Y-60722500D01*
%TO.N,-24V*%
X96651837Y-65517837D02*
X97301000Y-66167000D01*
X96124347Y-76964337D02*
X96651837Y-76964337D01*
X96124347Y-73137837D02*
X96651837Y-73137837D01*
X96651837Y-58004837D02*
X97301000Y-58654000D01*
X96651837Y-54174337D02*
X97301000Y-54823500D01*
X96651837Y-76964337D02*
X97301000Y-77613500D01*
X96124347Y-69330837D02*
X96651837Y-69330837D01*
X96124347Y-80901337D02*
X96651837Y-80901337D01*
X96124347Y-61724337D02*
X96651837Y-61724337D01*
X96651837Y-73137837D02*
X97301000Y-73787000D01*
X96124347Y-65517837D02*
X96651837Y-65517837D01*
X96651837Y-61724337D02*
X97301000Y-62373500D01*
X96124347Y-58004837D02*
X96651837Y-58004837D01*
X96124347Y-54174337D02*
X96651837Y-54174337D01*
X96651837Y-80901337D02*
X97301000Y-81550500D01*
X96651837Y-69330837D02*
X97301000Y-69980000D01*
D22*
%TO.N,Net-(C32-Pad2)*%
X95216000Y-53048500D02*
X94240000Y-53048500D01*
X94240000Y-53048500D02*
X94234000Y-53042500D01*
D21*
%TO.N,/TIA_0/SIPM_K*%
X100983994Y-54839494D02*
X101727000Y-55582500D01*
X100983994Y-54823500D02*
X100983994Y-54839494D01*
X101674491Y-55594909D02*
X101674491Y-55614959D01*
X100930994Y-54770500D02*
X100983994Y-54823500D01*
X101727000Y-55582500D02*
X101686900Y-55582500D01*
X101686900Y-55582500D02*
X101674491Y-55594909D01*
X100930994Y-53172500D02*
X100930994Y-54770500D01*
%TO.N,/TIA_1/SIPM_K*%
X100983994Y-58654000D02*
X100983994Y-58669994D01*
X101686900Y-59413000D02*
X101674491Y-59425409D01*
X100983994Y-58669994D02*
X101727000Y-59413000D01*
X100930994Y-58601000D02*
X100983994Y-58654000D01*
X100930994Y-57003000D02*
X100930994Y-58601000D01*
X101727000Y-59413000D02*
X101686900Y-59413000D01*
X101674491Y-59425409D02*
X101674491Y-59445459D01*
D22*
%TO.N,Net-(C33-Pad2)*%
X95216000Y-56879000D02*
X94240000Y-56879000D01*
X94240000Y-56879000D02*
X94234000Y-56873000D01*
%TO.N,Net-(C34-Pad2)*%
X95216000Y-60598500D02*
X94240000Y-60598500D01*
X94240000Y-60598500D02*
X94234000Y-60592500D01*
D21*
%TO.N,/TIA_2/SIPM_K*%
X101727000Y-63132500D02*
X101686900Y-63132500D01*
X100983994Y-62389494D02*
X101727000Y-63132500D01*
X101686900Y-63132500D02*
X101674491Y-63144909D01*
X100930994Y-62320500D02*
X100983994Y-62373500D01*
X101674491Y-63144909D02*
X101674491Y-63164959D01*
X100983994Y-62373500D02*
X100983994Y-62389494D01*
X100930994Y-60722500D02*
X100930994Y-62320500D01*
%TO.N,/TIA_3/SIPM_K*%
X100930994Y-64516000D02*
X100930994Y-66114000D01*
X100983994Y-66182994D02*
X101727000Y-66926000D01*
X100983994Y-66167000D02*
X100983994Y-66182994D01*
X101686900Y-66926000D02*
X101674491Y-66938409D01*
X100930994Y-66114000D02*
X100983994Y-66167000D01*
X101674491Y-66938409D02*
X101674491Y-66958459D01*
X101727000Y-66926000D02*
X101686900Y-66926000D01*
D22*
%TO.N,Net-(C35-Pad2)*%
X95216000Y-64392000D02*
X94240000Y-64392000D01*
X94240000Y-64392000D02*
X94234000Y-64386000D01*
%TO.N,Net-(C36-Pad2)*%
X95216000Y-68205000D02*
X94240000Y-68205000D01*
X94240000Y-68205000D02*
X94234000Y-68199000D01*
D21*
%TO.N,/TIA_4/SIPM_K*%
X100930994Y-68329000D02*
X100930994Y-69927000D01*
X101686900Y-70739000D02*
X101674491Y-70751409D01*
X101727000Y-70739000D02*
X101686900Y-70739000D01*
X100983994Y-69980000D02*
X100983994Y-69995994D01*
X100930994Y-69927000D02*
X100983994Y-69980000D01*
X100983994Y-69995994D02*
X101727000Y-70739000D01*
X101674491Y-70751409D02*
X101674491Y-70771459D01*
%TO.N,/TIA_5/SIPM_K*%
X101727000Y-74546000D02*
X101686900Y-74546000D01*
X101686900Y-74546000D02*
X101674491Y-74558409D01*
X100983994Y-73787000D02*
X100983994Y-73802994D01*
X100983994Y-73802994D02*
X101727000Y-74546000D01*
X100930994Y-73734000D02*
X100983994Y-73787000D01*
X101674491Y-74558409D02*
X101674491Y-74578459D01*
X100930994Y-72136000D02*
X100930994Y-73734000D01*
D22*
%TO.N,Net-(C37-Pad2)*%
X95216000Y-72012000D02*
X94240000Y-72012000D01*
X94240000Y-72012000D02*
X94234000Y-72006000D01*
D21*
%TO.N,/TIA_6/SIPM_K*%
X101727000Y-78372500D02*
X101686900Y-78372500D01*
X101674491Y-78384909D02*
X101674491Y-78404959D01*
X100930994Y-75962500D02*
X100930994Y-77560500D01*
X101686900Y-78372500D02*
X101674491Y-78384909D01*
X100930994Y-77560500D02*
X100983994Y-77613500D01*
X100983994Y-77613500D02*
X100983994Y-77629494D01*
X100983994Y-77629494D02*
X101727000Y-78372500D01*
D22*
%TO.N,Net-(C38-Pad2)*%
X94240000Y-75838500D02*
X94234000Y-75832500D01*
X95216000Y-75838500D02*
X94240000Y-75838500D01*
%TO.N,Net-(C39-Pad2)*%
X94240000Y-79775500D02*
X94234000Y-79769500D01*
X95216000Y-79775500D02*
X94240000Y-79775500D01*
D21*
%TO.N,/TIA_7/SIPM_K*%
X101686900Y-82309500D02*
X101674491Y-82321909D01*
X100983994Y-81550500D02*
X100983994Y-81566494D01*
X101727000Y-82309500D02*
X101686900Y-82309500D01*
X100983994Y-81566494D02*
X101727000Y-82309500D01*
X101674491Y-82321909D02*
X101674491Y-82341959D01*
X100930994Y-81497500D02*
X100983994Y-81550500D01*
X100930994Y-79899500D02*
X100930994Y-81497500D01*
D22*
%TO.N,/BOOST/SHDN*%
X91059000Y-63627000D02*
X91059000Y-66929000D01*
X78359000Y-63373000D02*
X77978000Y-62992000D01*
X91034700Y-72746700D02*
X91059000Y-72771000D01*
X91059000Y-66929000D02*
X91034700Y-66953300D01*
X91034700Y-66953300D02*
X91034700Y-72746700D01*
X78359000Y-68707000D02*
X78359000Y-63373000D01*
%TO.N,/DET_4*%
X95430000Y-66217000D02*
X96012000Y-66799000D01*
X95216000Y-66217000D02*
X95430000Y-66217000D01*
%TO.N,/THERM*%
X87757000Y-57785000D02*
X87757000Y-55166000D01*
X87355500Y-52324000D02*
X87355500Y-54764500D01*
X87757000Y-55166000D02*
X87355500Y-54764500D01*
%TO.N,/DET_1*%
X95430000Y-77663500D02*
X96012000Y-78245500D01*
X95216000Y-77663500D02*
X95430000Y-77663500D01*
%TO.N,/DET_2*%
X95216000Y-73837000D02*
X95430000Y-73837000D01*
X95430000Y-73837000D02*
X96012000Y-74419000D01*
%TO.N,/DET_0*%
X95216000Y-81600500D02*
X95430000Y-81600500D01*
X95430000Y-81600500D02*
X96012000Y-82182500D01*
%TO.N,/DET_5*%
X95216000Y-62423500D02*
X95430000Y-62423500D01*
X95430000Y-62423500D02*
X96012000Y-63005500D01*
%TO.N,/DET_6*%
X95216000Y-58704000D02*
X95430000Y-58704000D01*
X95430000Y-58704000D02*
X96012000Y-59286000D01*
%TO.N,/DET_7*%
X95216000Y-54873500D02*
X95430000Y-54873500D01*
X95430000Y-54873500D02*
X96012000Y-55455500D01*
%TO.N,/DET_3*%
X95430000Y-70030000D02*
X96012000Y-70612000D01*
X95216000Y-70030000D02*
X95430000Y-70030000D01*
%TO.N,+3.3VA*%
X99184000Y-72009000D02*
X99695000Y-71498000D01*
X99184000Y-79772500D02*
X99695000Y-79261500D01*
X99025994Y-68202000D02*
X99184000Y-68202000D01*
X99184000Y-64389000D02*
X99695000Y-63878000D01*
X99184000Y-68202000D02*
X99695000Y-67691000D01*
X99025994Y-56876000D02*
X99184000Y-56876000D01*
X99184000Y-53045500D02*
X99695000Y-52534500D01*
X99025994Y-75835500D02*
X99184000Y-75835500D01*
X99184000Y-75835500D02*
X99695000Y-75324500D01*
X99184000Y-60595500D02*
X99695000Y-60084500D01*
X99025994Y-79772500D02*
X99184000Y-79772500D01*
X99025994Y-53045500D02*
X99184000Y-53045500D01*
X99184000Y-56876000D02*
X99695000Y-56365000D01*
X99025994Y-72009000D02*
X99184000Y-72009000D01*
X99025994Y-64389000D02*
X99184000Y-64389000D01*
X99025994Y-60595500D02*
X99184000Y-60595500D01*
%TO.N,/COMM{slash}TX*%
X58547000Y-52578000D02*
X55118000Y-56007000D01*
X59944000Y-52578000D02*
X58547000Y-52578000D01*
%TO.N,Net-(Q1-D)*%
X72644000Y-77724000D02*
X72644000Y-75438000D01*
X72644000Y-75438000D02*
X70739000Y-73533000D01*
%TO.N,/VR_RESET*%
X81407000Y-67945000D02*
X80417429Y-66955429D01*
X80645000Y-60960000D02*
X81220747Y-60960000D01*
X80417429Y-61187571D02*
X80645000Y-60960000D01*
X81407000Y-74676000D02*
X81407000Y-67945000D01*
X81220747Y-60960000D02*
X81809184Y-61548437D01*
X80417429Y-66955429D02*
X80417429Y-61187571D01*
%TO.N,Net-(Q2-G)*%
X74930000Y-77089000D02*
X74930000Y-73279000D01*
X86523700Y-66003300D02*
X86523700Y-77252700D01*
X86523700Y-77252700D02*
X86614000Y-77343000D01*
%TO.N,/VR_SHDN*%
X79121000Y-60706000D02*
X79121000Y-72390000D01*
X89002700Y-71271300D02*
X90297000Y-69977000D01*
X89002700Y-71779300D02*
X89002700Y-71271300D01*
X79121000Y-72390000D02*
X80772000Y-74041000D01*
X78486000Y-59690000D02*
X78486000Y-60071000D01*
X78486000Y-60071000D02*
X79121000Y-60706000D01*
%TO.N,/ADC_IMON*%
X86106000Y-77343000D02*
X85344000Y-78105000D01*
X85536628Y-58485628D02*
X86106000Y-59055000D01*
X86106000Y-59055000D02*
X86106000Y-77343000D01*
X85344000Y-57907745D02*
X85556900Y-58120645D01*
X85344000Y-57785000D02*
X85344000Y-57907745D01*
X85556900Y-58120645D02*
X85556900Y-58465355D01*
X85556900Y-58465355D02*
X85536628Y-58485628D01*
%TO.N,/ADC_VMON*%
X86610000Y-62501790D02*
X86610000Y-64007685D01*
X85471000Y-57160240D02*
X85795056Y-57484296D01*
X85795056Y-57998177D02*
X85811900Y-58015021D01*
X85811900Y-58379900D02*
X86360000Y-58928000D01*
X85795056Y-57484296D02*
X85795056Y-57998177D01*
X85811900Y-58015021D02*
X85811900Y-58379900D01*
X86360000Y-58928000D02*
X86360000Y-58948376D01*
X86360000Y-58948376D02*
X86361000Y-58949376D01*
X86361000Y-58949376D02*
X86361000Y-62252790D01*
X86361000Y-62252790D02*
X86610000Y-62501790D01*
%TO.N,/MOSI*%
X85597000Y-59562000D02*
X85597000Y-60630800D01*
X83403900Y-59019900D02*
X85262355Y-59019900D01*
X85506100Y-59471100D02*
X85597000Y-59562000D01*
X85175645Y-60924900D02*
X84931900Y-61168645D01*
X85302900Y-60924900D02*
X85175645Y-60924900D01*
X82931000Y-53213000D02*
X82931000Y-58547000D01*
X85262355Y-59019900D02*
X85506100Y-59263645D01*
X85506100Y-59263645D02*
X85506100Y-59471100D01*
X84270944Y-61956856D02*
X84066000Y-61956856D01*
X84931900Y-61168645D02*
X84931900Y-61295900D01*
X85597000Y-60630800D02*
X85302900Y-60924900D01*
X84963000Y-62865000D02*
X84066000Y-61968000D01*
X84066000Y-61968000D02*
X84066000Y-61956856D01*
X84963000Y-75561000D02*
X84963000Y-62865000D01*
X84931900Y-61295900D02*
X84270944Y-61956856D01*
X82931000Y-58547000D02*
X83403900Y-59019900D01*
%TO.N,/~{SYNC}*%
X82423000Y-62607003D02*
X82423000Y-75059578D01*
X80926429Y-61611461D02*
X81540968Y-62226000D01*
X82041997Y-62226000D02*
X82423000Y-62607003D01*
X82423000Y-75059578D02*
X82432422Y-75069000D01*
X81540968Y-62226000D02*
X82041997Y-62226000D01*
%TO.N,/SCK*%
X83185000Y-75116282D02*
X82351030Y-75950252D01*
X84277200Y-60883800D02*
X84277200Y-60528200D01*
X84277200Y-60528200D02*
X81931000Y-58182000D01*
X83185000Y-62233369D02*
X83185000Y-75116282D01*
X84023200Y-60883800D02*
X83435000Y-61472000D01*
X83435000Y-61472000D02*
X83435000Y-61983369D01*
X84277200Y-60883800D02*
X84023200Y-60883800D01*
X81931000Y-58182000D02*
X81931000Y-53213000D01*
X83435000Y-61983369D02*
X83185000Y-62233369D01*
%TO.N,/BOOST_ENA*%
X72745600Y-60731400D02*
X72034400Y-60731400D01*
X72034400Y-60731400D02*
X71882000Y-60579000D01*
X71882000Y-55753000D02*
X71247000Y-55118000D01*
X71247000Y-55118000D02*
X70485000Y-55118000D01*
X71882000Y-60579000D02*
X71882000Y-55753000D01*
%TO.N,/~{RESET}*%
X83931000Y-54245000D02*
X83566000Y-54610000D01*
X83931000Y-53213000D02*
X83931000Y-54245000D01*
%TO.N,/MISO*%
X85348000Y-61341000D02*
X85598000Y-61591000D01*
X84998100Y-58709100D02*
X85053900Y-58764900D01*
X85367980Y-58764901D02*
X85761099Y-59158020D01*
X85852000Y-60837000D02*
X85348000Y-61341000D01*
X85598000Y-61591000D02*
X85598000Y-76092014D01*
X85598000Y-52959000D02*
X85598000Y-53975000D01*
X79931000Y-53213000D02*
X80566000Y-52578000D01*
X85053900Y-58764900D02*
X85367980Y-58764901D01*
X85217000Y-52578000D02*
X85598000Y-52959000D01*
X85761100Y-59365476D02*
X85852000Y-59456376D01*
X85598000Y-53975000D02*
X84074000Y-55499000D01*
X84724700Y-58435700D02*
X84724700Y-58465355D01*
X85598000Y-76092014D02*
X85348000Y-76342014D01*
X84074000Y-57785000D02*
X84724700Y-58435700D01*
X84724700Y-58465355D02*
X84968445Y-58709100D01*
X85852000Y-59456376D02*
X85852000Y-60837000D01*
X84074000Y-55499000D02*
X84074000Y-57785000D01*
X80566000Y-52578000D02*
X85217000Y-52578000D01*
X85761099Y-59158020D02*
X85761100Y-59365476D01*
X84968445Y-58709100D02*
X84998100Y-58709100D01*
%TO.N,/PGOOD*%
X73279000Y-59182000D02*
X73279000Y-56515000D01*
X72898000Y-59563000D02*
X73279000Y-59182000D01*
X73279000Y-56515000D02*
X72898000Y-56134000D01*
%TO.N,Net-(U1-PD2)*%
X79633500Y-55748500D02*
X79633500Y-54859500D01*
X79633500Y-54859500D02*
X80391000Y-54102000D01*
%TD*%
M02*
