%TF.GenerationSoftware,KiCad,Pcbnew,9.0.2-9.0.2-0~ubuntu24.04.1*%
%TF.CreationDate,2025-07-08T13:32:57-04:00*%
%TF.ProjectId,sipm-hv-splitter,7369706d-2d68-4762-9d73-706c69747465,rev?*%
%TF.SameCoordinates,Original*%
%TF.FileFunction,Copper,L4,Inr*%
%TF.FilePolarity,Positive*%
%FSLAX46Y46*%
G04 Gerber Fmt 4.6, Leading zero omitted, Abs format (unit mm)*
G04 Created by KiCad (PCBNEW 9.0.2-9.0.2-0~ubuntu24.04.1) date 2025-07-08 13:32:57*
%MOMM*%
%LPD*%
G01*
G04 APERTURE LIST*
%TA.AperFunction,HeatsinkPad*%
%ADD10C,0.500000*%
%TD*%
%TA.AperFunction,HeatsinkPad*%
%ADD11C,0.254000*%
%TD*%
%TA.AperFunction,ComponentPad*%
%ADD12R,0.850000X0.850000*%
%TD*%
%TA.AperFunction,ComponentPad*%
%ADD13C,0.850000*%
%TD*%
%TA.AperFunction,ViaPad*%
%ADD14C,0.635000*%
%TD*%
%TA.AperFunction,ViaPad*%
%ADD15C,0.381000*%
%TD*%
G04 APERTURE END LIST*
D10*
%TO.N,GND*%
%TO.C,U16*%
X77849500Y-80715000D03*
X77849500Y-81815000D03*
%TD*%
D11*
%TO.N,GND*%
%TO.C,U3*%
X70627000Y-58027500D03*
X70627000Y-57187500D03*
X70207000Y-57607500D03*
X69787000Y-58027500D03*
X69787000Y-57187500D03*
%TD*%
D12*
%TO.N,/MISO*%
%TO.C,J3*%
X79931000Y-53213000D03*
D13*
%TO.N,+3.3V*%
X80931000Y-53213000D03*
%TO.N,/SCK*%
X81931000Y-53213000D03*
%TO.N,/MOSI*%
X82931000Y-53213000D03*
%TO.N,/~{RESET}*%
X83931000Y-53213000D03*
%TO.N,GND*%
X84931000Y-53213000D03*
%TD*%
D10*
%TO.N,GND*%
%TO.C,U14*%
X67311500Y-80715000D03*
X67311500Y-81815000D03*
%TD*%
D14*
%TO.N,GND*%
X103629000Y-81550500D03*
X87095500Y-59258200D03*
X98171000Y-53931500D03*
D15*
X83185000Y-81788000D03*
X63119000Y-81026000D03*
D14*
X98171000Y-69088000D03*
X99060000Y-63132500D03*
X98171000Y-76721500D03*
X64897000Y-56642000D03*
D15*
X89027000Y-67945000D03*
D14*
X71500000Y-77600000D03*
X61036200Y-73407000D03*
X63144400Y-60526000D03*
D15*
X80645000Y-75692000D03*
D14*
X103629000Y-69980000D03*
D15*
X78629000Y-58436000D03*
X80899000Y-68453000D03*
D14*
X103629000Y-77613500D03*
D15*
X83312000Y-78613000D03*
X80637000Y-76192000D03*
X90272700Y-75716300D03*
D14*
X75438000Y-60833000D03*
X71601500Y-80925500D03*
X99060000Y-59413000D03*
X103629000Y-66167000D03*
X61010800Y-60960000D03*
X103629000Y-58654000D03*
D15*
X70993000Y-59944000D03*
D14*
X99060000Y-78372500D03*
X113087800Y-70185400D03*
X60985400Y-71145400D03*
X74865000Y-58482000D03*
X113087800Y-65105400D03*
X77824500Y-56795500D03*
X91440000Y-52959000D03*
X98171000Y-72895000D03*
X99060000Y-66926000D03*
X61036200Y-68605400D03*
X86614000Y-56642000D03*
X113087800Y-59898400D03*
D15*
X85140800Y-58293000D03*
D14*
X72390000Y-58420000D03*
X99060000Y-74546000D03*
X76327000Y-76454000D03*
X61976000Y-54102000D03*
X98171000Y-57762000D03*
X98171000Y-61481500D03*
X61036200Y-58420000D03*
X113087800Y-67645400D03*
X103629000Y-62373500D03*
X98171000Y-65275000D03*
X103629000Y-73787000D03*
X61010800Y-76174600D03*
X91567000Y-60325000D03*
X99060000Y-55582500D03*
D15*
X71374000Y-60706000D03*
X84383187Y-68074564D03*
X84074000Y-72263000D03*
X68565000Y-81265000D03*
D14*
X113087800Y-62565400D03*
D15*
X79200000Y-81300000D03*
X89139700Y-79516300D03*
D14*
X63881000Y-73406000D03*
D15*
X82566000Y-76692000D03*
D14*
X69469000Y-54864000D03*
X73686500Y-80925500D03*
X77851000Y-64770000D03*
X99060000Y-82309500D03*
X60985400Y-63474600D03*
D15*
X73533000Y-78994000D03*
D14*
X76073000Y-68707000D03*
D15*
X89154000Y-73787000D03*
D14*
X113087800Y-75138400D03*
X103629000Y-54823500D03*
X98171000Y-80658500D03*
X113087800Y-57358400D03*
X113087800Y-72598400D03*
X61036200Y-66040000D03*
X99060000Y-70739000D03*
X74422000Y-53467000D03*
%TO.N,+12V*%
X57277000Y-59664600D03*
D15*
X79218000Y-80615000D03*
D14*
X75311000Y-55499000D03*
X57251600Y-62204600D03*
D15*
X68580000Y-81915000D03*
D14*
X63989000Y-59544000D03*
X69850000Y-80899000D03*
X57251600Y-69824600D03*
X57277000Y-64795400D03*
X57124600Y-77444600D03*
X57302400Y-72390000D03*
D15*
X80645000Y-81026000D03*
X72771000Y-57150000D03*
D14*
X57277000Y-67310000D03*
D15*
X68580000Y-80645000D03*
D14*
X57175400Y-75185000D03*
D15*
X79248000Y-81915000D03*
D14*
%TO.N,+3.3V*%
X91313000Y-56769000D03*
X76327000Y-74803000D03*
D15*
X82677000Y-61976000D03*
X78486000Y-59055000D03*
D14*
X79248000Y-74041000D03*
D15*
X88519000Y-69342000D03*
D14*
X66294000Y-76962000D03*
D15*
X86892300Y-81431300D03*
D14*
X65000500Y-76096500D03*
D15*
X78503485Y-57908628D03*
X87757000Y-64389000D03*
D14*
X73636500Y-75207500D03*
X91186000Y-61722000D03*
X75311000Y-80899000D03*
D15*
X76454000Y-80645000D03*
D14*
X77700000Y-58500000D03*
%TO.N,/VBIAS*%
X103629000Y-75962500D03*
X103629000Y-64516000D03*
X103629000Y-60722500D03*
X92075000Y-67310000D03*
X92075000Y-64770000D03*
X103629000Y-72136000D03*
X92075000Y-72390000D03*
X103629000Y-79899500D03*
X103629000Y-68329000D03*
X103629000Y-53172500D03*
X103629000Y-57003000D03*
X92075000Y-68580000D03*
X92075000Y-71120000D03*
%TO.N,-24V*%
X53213000Y-69824600D03*
X96124347Y-58004837D03*
X53000000Y-77500000D03*
X96124347Y-80901337D03*
X96124347Y-54174337D03*
X96124347Y-76964337D03*
X53263800Y-74930000D03*
X96124347Y-65517837D03*
X96124347Y-73137837D03*
X53238400Y-59690000D03*
X53213000Y-72339200D03*
X53187600Y-67335400D03*
X53213000Y-62204600D03*
X53213000Y-64770000D03*
X96124347Y-61724337D03*
X96124347Y-69330837D03*
D15*
%TO.N,Net-(C32-Pad2)*%
X94234000Y-53042500D03*
D14*
%TO.N,/TIA_0/SIPM_K*%
X101674491Y-55614959D03*
%TO.N,/TIA_1/SIPM_K*%
X101674491Y-59445459D03*
D15*
%TO.N,Net-(C33-Pad2)*%
X94234000Y-56873000D03*
%TO.N,Net-(C34-Pad2)*%
X94234000Y-60592500D03*
D14*
%TO.N,/TIA_2/SIPM_K*%
X101674491Y-63164959D03*
%TO.N,/TIA_3/SIPM_K*%
X101674491Y-66958459D03*
D15*
%TO.N,Net-(C35-Pad2)*%
X94234000Y-64386000D03*
%TO.N,Net-(C36-Pad2)*%
X94234000Y-68199000D03*
D14*
%TO.N,/TIA_4/SIPM_K*%
X101674491Y-70771459D03*
%TO.N,/TIA_5/SIPM_K*%
X101674491Y-74578459D03*
D15*
%TO.N,Net-(C37-Pad2)*%
X94234000Y-72006000D03*
D14*
%TO.N,/TIA_6/SIPM_K*%
X101674491Y-78404959D03*
D15*
%TO.N,Net-(C38-Pad2)*%
X94234000Y-75832500D03*
%TO.N,Net-(C39-Pad2)*%
X94234000Y-79769500D03*
D14*
%TO.N,/TIA_7/SIPM_K*%
X101674491Y-82341959D03*
D15*
%TO.N,/BOOST/SHDN*%
X91059000Y-63627000D03*
X77978000Y-62992000D03*
X78359000Y-68707000D03*
X91059000Y-72771000D03*
X91034700Y-66953300D03*
%TO.N,/DET_4*%
X96012000Y-66799000D03*
%TO.N,/THERM*%
X87757000Y-57785000D03*
X87376000Y-52324000D03*
X87355500Y-54764500D03*
%TO.N,/DET_1*%
X96012000Y-78245500D03*
%TO.N,/DET_2*%
X96012000Y-74419000D03*
%TO.N,/DET_0*%
X96012000Y-82182500D03*
%TO.N,/DET_5*%
X96012000Y-63005500D03*
%TO.N,/DET_6*%
X96012000Y-59286000D03*
%TO.N,/DET_7*%
X96012000Y-55455500D03*
%TO.N,/DET_3*%
X96012000Y-70612000D03*
D14*
%TO.N,/SIG_3*%
X92076100Y-70003500D03*
X53187600Y-68656200D03*
D15*
%TO.N,+3.3VA*%
X99695000Y-56365000D03*
X99695000Y-52534500D03*
X99695000Y-71498000D03*
X99695000Y-75324500D03*
X99695000Y-60084500D03*
X99695000Y-67691000D03*
X64743500Y-81052500D03*
X99695000Y-63878000D03*
X65943000Y-80615000D03*
X99695000Y-79261500D03*
D14*
%TO.N,/SIG_1*%
X53238400Y-73482200D03*
X92481400Y-77647800D03*
%TO.N,/SIG_2*%
X53213000Y-71145400D03*
X92557600Y-73761600D03*
%TO.N,/SIG_6*%
X53238400Y-60960000D03*
X92202000Y-58699400D03*
D15*
%TO.N,/COMM{slash}TX*%
X55118000Y-56007000D03*
X59944000Y-52578000D03*
D14*
%TO.N,/SIG_7*%
X92227400Y-54838600D03*
X53263800Y-58470800D03*
%TO.N,/SIG_4*%
X53187600Y-66014600D03*
X92049600Y-66014600D03*
%TO.N,/SIG_5*%
X92125800Y-62357000D03*
X53213000Y-63423800D03*
%TO.N,/SIG_0*%
X92506800Y-81559400D03*
X53263800Y-76225400D03*
D15*
%TO.N,Net-(Q1-D)*%
X70739000Y-73533000D03*
X72644000Y-77724000D03*
%TO.N,/VR_RESET*%
X81407000Y-74676000D03*
X81809184Y-61548437D03*
%TO.N,Net-(Q2-G)*%
X74930000Y-77089000D03*
X74930000Y-73279000D03*
X86614000Y-77343000D03*
X86523700Y-66003300D03*
%TO.N,/VR_SHDN*%
X80772000Y-74041000D03*
X78486000Y-59690000D03*
X89002700Y-71779300D03*
X90297000Y-69977000D03*
%TO.N,/ADC_IMON*%
X85344000Y-57785000D03*
X85344000Y-78105000D03*
%TO.N,/ADC_VMON*%
X85471000Y-57160240D03*
X86610000Y-64007685D03*
%TO.N,/MOSI*%
X84066000Y-61956856D03*
X84963000Y-75561000D03*
%TO.N,/~{SYNC}*%
X80926429Y-61611461D03*
X82432422Y-75069000D03*
%TO.N,/SCK*%
X84277200Y-60883800D03*
X82351030Y-75950252D03*
%TO.N,/BOOST_ENA*%
X72745600Y-60731400D03*
X70485000Y-55118000D03*
%TO.N,/~{RESET}*%
X83566000Y-54610000D03*
%TO.N,/MISO*%
X85348000Y-76342014D03*
X85348000Y-61341000D03*
%TO.N,/PGOOD*%
X72898000Y-59563000D03*
X72898000Y-56134000D03*
%TO.N,Net-(U1-PD2)*%
X79633500Y-55748500D03*
X80391000Y-54102000D03*
%TO.N,Net-(U1-AVCC)*%
X85090000Y-59436000D03*
%TD*%
%TA.AperFunction,Conductor*%
%TO.N,+3.3VA*%
G36*
X104235601Y-50998865D02*
G01*
X104265665Y-51050936D01*
X104267000Y-51066200D01*
X104267000Y-52645677D01*
X104246435Y-52702178D01*
X104194364Y-52732242D01*
X104135150Y-52721801D01*
X104116949Y-52707835D01*
X104058395Y-52649281D01*
X104058391Y-52649278D01*
X104058390Y-52649277D01*
X103948071Y-52575565D01*
X103894993Y-52553579D01*
X103825482Y-52524786D01*
X103825479Y-52524785D01*
X103825473Y-52524783D01*
X103727544Y-52505305D01*
X103695344Y-52498900D01*
X103562656Y-52498900D01*
X103534001Y-52504599D01*
X103432526Y-52524783D01*
X103432518Y-52524786D01*
X103363012Y-52553577D01*
X103309929Y-52575565D01*
X103309928Y-52575565D01*
X103199609Y-52649277D01*
X103105777Y-52743109D01*
X103032065Y-52853428D01*
X103032065Y-52853429D01*
X102981286Y-52976018D01*
X102981283Y-52976026D01*
X102955400Y-53106157D01*
X102955400Y-53238842D01*
X102981283Y-53368973D01*
X102981285Y-53368979D01*
X102981286Y-53368982D01*
X103032064Y-53491569D01*
X103032065Y-53491570D01*
X103032065Y-53491571D01*
X103105777Y-53601890D01*
X103105778Y-53601891D01*
X103105781Y-53601895D01*
X103199605Y-53695719D01*
X103199608Y-53695721D01*
X103199609Y-53695722D01*
X103232108Y-53717437D01*
X103309931Y-53769436D01*
X103432518Y-53820214D01*
X103432523Y-53820215D01*
X103432526Y-53820216D01*
X103498469Y-53833332D01*
X103562656Y-53846100D01*
X103562658Y-53846100D01*
X103695342Y-53846100D01*
X103695344Y-53846100D01*
X103780542Y-53829153D01*
X103825473Y-53820216D01*
X103825474Y-53820215D01*
X103825482Y-53820214D01*
X103948069Y-53769436D01*
X104058395Y-53695719D01*
X104116946Y-53637167D01*
X104171439Y-53611757D01*
X104229517Y-53627320D01*
X104264005Y-53676573D01*
X104267000Y-53699323D01*
X104267000Y-54621256D01*
X104246435Y-54677757D01*
X104194364Y-54707821D01*
X104135150Y-54697380D01*
X104096501Y-54651320D01*
X104094195Y-54644007D01*
X104091012Y-54632129D01*
X104091012Y-54632128D01*
X104025739Y-54519072D01*
X103933428Y-54426761D01*
X103820372Y-54361488D01*
X103820371Y-54361487D01*
X103820370Y-54361487D01*
X103694273Y-54327700D01*
X103563727Y-54327700D01*
X103437629Y-54361487D01*
X103324570Y-54426762D01*
X103232262Y-54519070D01*
X103166987Y-54632129D01*
X103133200Y-54758227D01*
X103133200Y-54888772D01*
X103154225Y-54967242D01*
X103166988Y-55014872D01*
X103232261Y-55127928D01*
X103324572Y-55220239D01*
X103437628Y-55285512D01*
X103563727Y-55319300D01*
X103694272Y-55319300D01*
X103694273Y-55319300D01*
X103820372Y-55285512D01*
X103933428Y-55220239D01*
X104025739Y-55127928D01*
X104091012Y-55014872D01*
X104094195Y-55002993D01*
X104128682Y-54953740D01*
X104186760Y-54938177D01*
X104241254Y-54963588D01*
X104266665Y-55018082D01*
X104267000Y-55025743D01*
X104267000Y-56476177D01*
X104246435Y-56532678D01*
X104194364Y-56562742D01*
X104135150Y-56552301D01*
X104116949Y-56538335D01*
X104058395Y-56479781D01*
X104058391Y-56479778D01*
X104058390Y-56479777D01*
X103948071Y-56406065D01*
X103948069Y-56406064D01*
X103825482Y-56355286D01*
X103825479Y-56355285D01*
X103825473Y-56355283D01*
X103727544Y-56335805D01*
X103695344Y-56329400D01*
X103562656Y-56329400D01*
X103534001Y-56335099D01*
X103432526Y-56355283D01*
X103432518Y-56355286D01*
X103309929Y-56406065D01*
X103309928Y-56406065D01*
X103199609Y-56479777D01*
X103105777Y-56573609D01*
X103032065Y-56683928D01*
X103032065Y-56683929D01*
X102981286Y-56806518D01*
X102981283Y-56806526D01*
X102955400Y-56936657D01*
X102955400Y-57069342D01*
X102981283Y-57199473D01*
X102981285Y-57199479D01*
X102981286Y-57199482D01*
X103032064Y-57322069D01*
X103032065Y-57322070D01*
X103032065Y-57322071D01*
X103105777Y-57432390D01*
X103105778Y-57432391D01*
X103105781Y-57432395D01*
X103199605Y-57526219D01*
X103199608Y-57526221D01*
X103199609Y-57526222D01*
X103266068Y-57570628D01*
X103309931Y-57599936D01*
X103432518Y-57650714D01*
X103432523Y-57650715D01*
X103432526Y-57650716D01*
X103498469Y-57663832D01*
X103562656Y-57676600D01*
X103562658Y-57676600D01*
X103695342Y-57676600D01*
X103695344Y-57676600D01*
X103780542Y-57659653D01*
X103825473Y-57650716D01*
X103825474Y-57650715D01*
X103825482Y-57650714D01*
X103948069Y-57599936D01*
X104058395Y-57526219D01*
X104116946Y-57467667D01*
X104171439Y-57442257D01*
X104229517Y-57457820D01*
X104264005Y-57507073D01*
X104267000Y-57529823D01*
X104267000Y-58451756D01*
X104246435Y-58508257D01*
X104194364Y-58538321D01*
X104135150Y-58527880D01*
X104096501Y-58481820D01*
X104094195Y-58474507D01*
X104091012Y-58462629D01*
X104091012Y-58462628D01*
X104025739Y-58349572D01*
X103933428Y-58257261D01*
X103820372Y-58191988D01*
X103820371Y-58191987D01*
X103820370Y-58191987D01*
X103694273Y-58158200D01*
X103563727Y-58158200D01*
X103437629Y-58191987D01*
X103324570Y-58257262D01*
X103232262Y-58349570D01*
X103166987Y-58462629D01*
X103133200Y-58588727D01*
X103133200Y-58719272D01*
X103154706Y-58799537D01*
X103166988Y-58845372D01*
X103232261Y-58958428D01*
X103324572Y-59050739D01*
X103437628Y-59116012D01*
X103563727Y-59149800D01*
X103694272Y-59149800D01*
X103694273Y-59149800D01*
X103820372Y-59116012D01*
X103933428Y-59050739D01*
X104025739Y-58958428D01*
X104091012Y-58845372D01*
X104094195Y-58833493D01*
X104128682Y-58784240D01*
X104186760Y-58768677D01*
X104241254Y-58794088D01*
X104266665Y-58848582D01*
X104267000Y-58856243D01*
X104267000Y-60195677D01*
X104246435Y-60252178D01*
X104194364Y-60282242D01*
X104135150Y-60271801D01*
X104116949Y-60257835D01*
X104058395Y-60199281D01*
X104058391Y-60199278D01*
X104058390Y-60199277D01*
X103948071Y-60125565D01*
X103948069Y-60125564D01*
X103825482Y-60074786D01*
X103825479Y-60074785D01*
X103825473Y-60074783D01*
X103727544Y-60055305D01*
X103695344Y-60048900D01*
X103562656Y-60048900D01*
X103534001Y-60054599D01*
X103432526Y-60074783D01*
X103432518Y-60074786D01*
X103325636Y-60119059D01*
X103309929Y-60125565D01*
X103309928Y-60125565D01*
X103199609Y-60199277D01*
X103105777Y-60293109D01*
X103032065Y-60403428D01*
X103032065Y-60403429D01*
X103032064Y-60403431D01*
X103006927Y-60464116D01*
X102981286Y-60526018D01*
X102981283Y-60526026D01*
X102955400Y-60656157D01*
X102955400Y-60788842D01*
X102981283Y-60918973D01*
X102981285Y-60918979D01*
X102981286Y-60918982D01*
X103032064Y-61041569D01*
X103032065Y-61041570D01*
X103032065Y-61041571D01*
X103105777Y-61151890D01*
X103105778Y-61151891D01*
X103105781Y-61151895D01*
X103199605Y-61245719D01*
X103199608Y-61245721D01*
X103199609Y-61245722D01*
X103207812Y-61251203D01*
X103309931Y-61319436D01*
X103432518Y-61370214D01*
X103432523Y-61370215D01*
X103432526Y-61370216D01*
X103498469Y-61383332D01*
X103562656Y-61396100D01*
X103562658Y-61396100D01*
X103695342Y-61396100D01*
X103695344Y-61396100D01*
X103780542Y-61379153D01*
X103825473Y-61370216D01*
X103825474Y-61370215D01*
X103825482Y-61370214D01*
X103948069Y-61319436D01*
X104058395Y-61245719D01*
X104116946Y-61187167D01*
X104171439Y-61161757D01*
X104229517Y-61177320D01*
X104264005Y-61226573D01*
X104267000Y-61249323D01*
X104267000Y-62171256D01*
X104246435Y-62227757D01*
X104194364Y-62257821D01*
X104135150Y-62247380D01*
X104096501Y-62201320D01*
X104094195Y-62194007D01*
X104091012Y-62182129D01*
X104091012Y-62182128D01*
X104025739Y-62069072D01*
X103933428Y-61976761D01*
X103820372Y-61911488D01*
X103820371Y-61911487D01*
X103820370Y-61911487D01*
X103694273Y-61877700D01*
X103563727Y-61877700D01*
X103437629Y-61911487D01*
X103324570Y-61976762D01*
X103232262Y-62069070D01*
X103166987Y-62182129D01*
X103133200Y-62308227D01*
X103133200Y-62438772D01*
X103154225Y-62517242D01*
X103166988Y-62564872D01*
X103232261Y-62677928D01*
X103324572Y-62770239D01*
X103437628Y-62835512D01*
X103563727Y-62869300D01*
X103694272Y-62869300D01*
X103694273Y-62869300D01*
X103820372Y-62835512D01*
X103933428Y-62770239D01*
X104025739Y-62677928D01*
X104091012Y-62564872D01*
X104094195Y-62552993D01*
X104128682Y-62503740D01*
X104186760Y-62488177D01*
X104241254Y-62513588D01*
X104266665Y-62568082D01*
X104267000Y-62575743D01*
X104267000Y-63989177D01*
X104246435Y-64045678D01*
X104194364Y-64075742D01*
X104135150Y-64065301D01*
X104116949Y-64051335D01*
X104058395Y-63992781D01*
X104058391Y-63992778D01*
X104058390Y-63992777D01*
X103948071Y-63919065D01*
X103948069Y-63919064D01*
X103825482Y-63868286D01*
X103825479Y-63868285D01*
X103825473Y-63868283D01*
X103727544Y-63848805D01*
X103695344Y-63842400D01*
X103562656Y-63842400D01*
X103534001Y-63848099D01*
X103432526Y-63868283D01*
X103432518Y-63868286D01*
X103318106Y-63915678D01*
X103309929Y-63919065D01*
X103309928Y-63919065D01*
X103199609Y-63992777D01*
X103105777Y-64086609D01*
X103032065Y-64196928D01*
X103032065Y-64196929D01*
X102981286Y-64319518D01*
X102981283Y-64319526D01*
X102955400Y-64449657D01*
X102955400Y-64582342D01*
X102981283Y-64712473D01*
X102981285Y-64712479D01*
X102981286Y-64712482D01*
X103032064Y-64835069D01*
X103032065Y-64835070D01*
X103032065Y-64835071D01*
X103105777Y-64945390D01*
X103105778Y-64945391D01*
X103105781Y-64945395D01*
X103199605Y-65039219D01*
X103199608Y-65039221D01*
X103199609Y-65039222D01*
X103302394Y-65107900D01*
X103309931Y-65112936D01*
X103432518Y-65163714D01*
X103432523Y-65163715D01*
X103432526Y-65163716D01*
X103498469Y-65176832D01*
X103562656Y-65189600D01*
X103562658Y-65189600D01*
X103695342Y-65189600D01*
X103695344Y-65189600D01*
X103780542Y-65172653D01*
X103825473Y-65163716D01*
X103825474Y-65163715D01*
X103825482Y-65163714D01*
X103948069Y-65112936D01*
X104058395Y-65039219D01*
X104116946Y-64980667D01*
X104171439Y-64955257D01*
X104229517Y-64970820D01*
X104264005Y-65020073D01*
X104267000Y-65042823D01*
X104267000Y-65964756D01*
X104246435Y-66021257D01*
X104194364Y-66051321D01*
X104135150Y-66040880D01*
X104096501Y-65994820D01*
X104094195Y-65987507D01*
X104091012Y-65975629D01*
X104091012Y-65975628D01*
X104025739Y-65862572D01*
X103933428Y-65770261D01*
X103820372Y-65704988D01*
X103820371Y-65704987D01*
X103820370Y-65704987D01*
X103694273Y-65671200D01*
X103563727Y-65671200D01*
X103437629Y-65704987D01*
X103324570Y-65770262D01*
X103232262Y-65862570D01*
X103166987Y-65975629D01*
X103133200Y-66101727D01*
X103133200Y-66232272D01*
X103165414Y-66352500D01*
X103166988Y-66358372D01*
X103232261Y-66471428D01*
X103324572Y-66563739D01*
X103437628Y-66629012D01*
X103563727Y-66662800D01*
X103694272Y-66662800D01*
X103694273Y-66662800D01*
X103820372Y-66629012D01*
X103933428Y-66563739D01*
X104025739Y-66471428D01*
X104091012Y-66358372D01*
X104094195Y-66346493D01*
X104128682Y-66297240D01*
X104186760Y-66281677D01*
X104241254Y-66307088D01*
X104266665Y-66361582D01*
X104267000Y-66369243D01*
X104267000Y-67802177D01*
X104246435Y-67858678D01*
X104194364Y-67888742D01*
X104135150Y-67878301D01*
X104116949Y-67864335D01*
X104058395Y-67805781D01*
X104058391Y-67805778D01*
X104058390Y-67805777D01*
X103948071Y-67732065D01*
X103948069Y-67732064D01*
X103825482Y-67681286D01*
X103825479Y-67681285D01*
X103825473Y-67681283D01*
X103727544Y-67661805D01*
X103695344Y-67655400D01*
X103562656Y-67655400D01*
X103534001Y-67661099D01*
X103432526Y-67681283D01*
X103432518Y-67681286D01*
X103309929Y-67732065D01*
X103309928Y-67732065D01*
X103199609Y-67805777D01*
X103105777Y-67899609D01*
X103032065Y-68009928D01*
X103032065Y-68009929D01*
X102981286Y-68132518D01*
X102981283Y-68132526D01*
X102958602Y-68246555D01*
X102955400Y-68262656D01*
X102955400Y-68395344D01*
X102958698Y-68411925D01*
X102981283Y-68525473D01*
X102981285Y-68525479D01*
X102981286Y-68525482D01*
X103032064Y-68648069D01*
X103032065Y-68648070D01*
X103032065Y-68648071D01*
X103105777Y-68758390D01*
X103105778Y-68758391D01*
X103105781Y-68758395D01*
X103199605Y-68852219D01*
X103199608Y-68852221D01*
X103199609Y-68852222D01*
X103266031Y-68896603D01*
X103309931Y-68925936D01*
X103432518Y-68976714D01*
X103432523Y-68976715D01*
X103432526Y-68976716D01*
X103498469Y-68989832D01*
X103562656Y-69002600D01*
X103562658Y-69002600D01*
X103695342Y-69002600D01*
X103695344Y-69002600D01*
X103784142Y-68984937D01*
X103825473Y-68976716D01*
X103825474Y-68976715D01*
X103825482Y-68976714D01*
X103948069Y-68925936D01*
X104058395Y-68852219D01*
X104116946Y-68793667D01*
X104171439Y-68768257D01*
X104229517Y-68783820D01*
X104264005Y-68833073D01*
X104267000Y-68855823D01*
X104267000Y-69777756D01*
X104246435Y-69834257D01*
X104194364Y-69864321D01*
X104135150Y-69853880D01*
X104096501Y-69807820D01*
X104094195Y-69800507D01*
X104091012Y-69788629D01*
X104091012Y-69788628D01*
X104025739Y-69675572D01*
X103933428Y-69583261D01*
X103820372Y-69517988D01*
X103820371Y-69517987D01*
X103820370Y-69517987D01*
X103694273Y-69484200D01*
X103563727Y-69484200D01*
X103437629Y-69517987D01*
X103324570Y-69583262D01*
X103232262Y-69675570D01*
X103166987Y-69788629D01*
X103133200Y-69914727D01*
X103133200Y-70045272D01*
X103154225Y-70123742D01*
X103166988Y-70171372D01*
X103232261Y-70284428D01*
X103324572Y-70376739D01*
X103437628Y-70442012D01*
X103563727Y-70475800D01*
X103694272Y-70475800D01*
X103694273Y-70475800D01*
X103820372Y-70442012D01*
X103933428Y-70376739D01*
X104025739Y-70284428D01*
X104091012Y-70171372D01*
X104094195Y-70159493D01*
X104128682Y-70110240D01*
X104186760Y-70094677D01*
X104241254Y-70120088D01*
X104266665Y-70174582D01*
X104267000Y-70182243D01*
X104267000Y-71609177D01*
X104246435Y-71665678D01*
X104194364Y-71695742D01*
X104135150Y-71685301D01*
X104116949Y-71671335D01*
X104058395Y-71612781D01*
X104058391Y-71612778D01*
X104058390Y-71612777D01*
X103948071Y-71539065D01*
X103948069Y-71539064D01*
X103825482Y-71488286D01*
X103825479Y-71488285D01*
X103825473Y-71488283D01*
X103727544Y-71468805D01*
X103695344Y-71462400D01*
X103562656Y-71462400D01*
X103534001Y-71468099D01*
X103432526Y-71488283D01*
X103432518Y-71488286D01*
X103309929Y-71539065D01*
X103309928Y-71539065D01*
X103199609Y-71612777D01*
X103105777Y-71706609D01*
X103032065Y-71816928D01*
X103032065Y-71816929D01*
X102981286Y-71939518D01*
X102981283Y-71939526D01*
X102955400Y-72069657D01*
X102955400Y-72202342D01*
X102981283Y-72332473D01*
X102981285Y-72332479D01*
X102981286Y-72332482D01*
X103032064Y-72455069D01*
X103032065Y-72455070D01*
X103032065Y-72455071D01*
X103105777Y-72565390D01*
X103105778Y-72565391D01*
X103105781Y-72565395D01*
X103199605Y-72659219D01*
X103199608Y-72659221D01*
X103199609Y-72659222D01*
X103264380Y-72702500D01*
X103309931Y-72732936D01*
X103432518Y-72783714D01*
X103432523Y-72783715D01*
X103432526Y-72783716D01*
X103498469Y-72796832D01*
X103562656Y-72809600D01*
X103562658Y-72809600D01*
X103695342Y-72809600D01*
X103695344Y-72809600D01*
X103780542Y-72792653D01*
X103825473Y-72783716D01*
X103825474Y-72783715D01*
X103825482Y-72783714D01*
X103948069Y-72732936D01*
X104058395Y-72659219D01*
X104116946Y-72600667D01*
X104171439Y-72575257D01*
X104229517Y-72590820D01*
X104264005Y-72640073D01*
X104267000Y-72662823D01*
X104267000Y-73584756D01*
X104246435Y-73641257D01*
X104194364Y-73671321D01*
X104135150Y-73660880D01*
X104096501Y-73614820D01*
X104094195Y-73607507D01*
X104091012Y-73595629D01*
X104091012Y-73595628D01*
X104025739Y-73482572D01*
X103933428Y-73390261D01*
X103820372Y-73324988D01*
X103820371Y-73324987D01*
X103820370Y-73324987D01*
X103694273Y-73291200D01*
X103563727Y-73291200D01*
X103437629Y-73324987D01*
X103324570Y-73390262D01*
X103232262Y-73482570D01*
X103166987Y-73595629D01*
X103133200Y-73721727D01*
X103133200Y-73852272D01*
X103166909Y-73978080D01*
X103166988Y-73978372D01*
X103232261Y-74091428D01*
X103324572Y-74183739D01*
X103437628Y-74249012D01*
X103563727Y-74282800D01*
X103694272Y-74282800D01*
X103694273Y-74282800D01*
X103820372Y-74249012D01*
X103933428Y-74183739D01*
X104025739Y-74091428D01*
X104091012Y-73978372D01*
X104094195Y-73966493D01*
X104128682Y-73917240D01*
X104186760Y-73901677D01*
X104241254Y-73927088D01*
X104266665Y-73981582D01*
X104267000Y-73989243D01*
X104267000Y-75435677D01*
X104246435Y-75492178D01*
X104194364Y-75522242D01*
X104135150Y-75511801D01*
X104116949Y-75497835D01*
X104058395Y-75439281D01*
X104058391Y-75439278D01*
X104058390Y-75439277D01*
X103948071Y-75365565D01*
X103948069Y-75365564D01*
X103825482Y-75314786D01*
X103825479Y-75314785D01*
X103825473Y-75314783D01*
X103727544Y-75295305D01*
X103695344Y-75288900D01*
X103562656Y-75288900D01*
X103534001Y-75294599D01*
X103432526Y-75314783D01*
X103432518Y-75314786D01*
X103309929Y-75365565D01*
X103309928Y-75365565D01*
X103199609Y-75439277D01*
X103105777Y-75533109D01*
X103032065Y-75643428D01*
X103032065Y-75643429D01*
X102981286Y-75766018D01*
X102981283Y-75766026D01*
X102962174Y-75862100D01*
X102955400Y-75896156D01*
X102955400Y-76028844D01*
X102960674Y-76055359D01*
X102981283Y-76158973D01*
X102981285Y-76158979D01*
X102981286Y-76158982D01*
X103032064Y-76281569D01*
X103032065Y-76281570D01*
X103032065Y-76281571D01*
X103105777Y-76391890D01*
X103105778Y-76391891D01*
X103105781Y-76391895D01*
X103199605Y-76485719D01*
X103199608Y-76485721D01*
X103199609Y-76485722D01*
X103266068Y-76530128D01*
X103309931Y-76559436D01*
X103432518Y-76610214D01*
X103432523Y-76610215D01*
X103432526Y-76610216D01*
X103498469Y-76623332D01*
X103562656Y-76636100D01*
X103562658Y-76636100D01*
X103695342Y-76636100D01*
X103695344Y-76636100D01*
X103780542Y-76619153D01*
X103825473Y-76610216D01*
X103825474Y-76610215D01*
X103825482Y-76610214D01*
X103948069Y-76559436D01*
X104058395Y-76485719D01*
X104116946Y-76427167D01*
X104171439Y-76401757D01*
X104229517Y-76417320D01*
X104264005Y-76466573D01*
X104267000Y-76489323D01*
X104267000Y-77411256D01*
X104246435Y-77467757D01*
X104194364Y-77497821D01*
X104135150Y-77487380D01*
X104096501Y-77441320D01*
X104094195Y-77434007D01*
X104091012Y-77422129D01*
X104091012Y-77422128D01*
X104025739Y-77309072D01*
X103933428Y-77216761D01*
X103820372Y-77151488D01*
X103820371Y-77151487D01*
X103820370Y-77151487D01*
X103694273Y-77117700D01*
X103563727Y-77117700D01*
X103437629Y-77151487D01*
X103324570Y-77216762D01*
X103232262Y-77309070D01*
X103166987Y-77422129D01*
X103133200Y-77548227D01*
X103133200Y-77678772D01*
X103154225Y-77757242D01*
X103166988Y-77804872D01*
X103232261Y-77917928D01*
X103324572Y-78010239D01*
X103437628Y-78075512D01*
X103563727Y-78109300D01*
X103694272Y-78109300D01*
X103694273Y-78109300D01*
X103820372Y-78075512D01*
X103933428Y-78010239D01*
X104025739Y-77917928D01*
X104091012Y-77804872D01*
X104094195Y-77792993D01*
X104128682Y-77743740D01*
X104186760Y-77728177D01*
X104241254Y-77753588D01*
X104266665Y-77808082D01*
X104267000Y-77815743D01*
X104267000Y-79372677D01*
X104246435Y-79429178D01*
X104194364Y-79459242D01*
X104135150Y-79448801D01*
X104116949Y-79434835D01*
X104058395Y-79376281D01*
X104058391Y-79376278D01*
X104058390Y-79376277D01*
X103948071Y-79302565D01*
X103948069Y-79302564D01*
X103825482Y-79251786D01*
X103825479Y-79251785D01*
X103825473Y-79251783D01*
X103727544Y-79232305D01*
X103695344Y-79225900D01*
X103562656Y-79225900D01*
X103534001Y-79231599D01*
X103432526Y-79251783D01*
X103432518Y-79251786D01*
X103309929Y-79302565D01*
X103309928Y-79302565D01*
X103199609Y-79376277D01*
X103105777Y-79470109D01*
X103032065Y-79580428D01*
X103032065Y-79580429D01*
X102981286Y-79703018D01*
X102981283Y-79703026D01*
X102955400Y-79833157D01*
X102955400Y-79965842D01*
X102981283Y-80095973D01*
X102981285Y-80095979D01*
X102981286Y-80095982D01*
X103032064Y-80218569D01*
X103032065Y-80218570D01*
X103032065Y-80218571D01*
X103105777Y-80328890D01*
X103105778Y-80328891D01*
X103105781Y-80328895D01*
X103199605Y-80422719D01*
X103199608Y-80422721D01*
X103199609Y-80422722D01*
X103265221Y-80466562D01*
X103309931Y-80496436D01*
X103432518Y-80547214D01*
X103432523Y-80547215D01*
X103432526Y-80547216D01*
X103498469Y-80560332D01*
X103562656Y-80573100D01*
X103562658Y-80573100D01*
X103695342Y-80573100D01*
X103695344Y-80573100D01*
X103780542Y-80556153D01*
X103825473Y-80547216D01*
X103825474Y-80547215D01*
X103825482Y-80547214D01*
X103948069Y-80496436D01*
X104058395Y-80422719D01*
X104116946Y-80364167D01*
X104171439Y-80338757D01*
X104229517Y-80354320D01*
X104264005Y-80403573D01*
X104267000Y-80426323D01*
X104267000Y-81348256D01*
X104246435Y-81404757D01*
X104194364Y-81434821D01*
X104135150Y-81424380D01*
X104096501Y-81378320D01*
X104094195Y-81371007D01*
X104091012Y-81359129D01*
X104091012Y-81359128D01*
X104025739Y-81246072D01*
X103933428Y-81153761D01*
X103820372Y-81088488D01*
X103820371Y-81088487D01*
X103820370Y-81088487D01*
X103694273Y-81054700D01*
X103563727Y-81054700D01*
X103437629Y-81088487D01*
X103324570Y-81153762D01*
X103232262Y-81246070D01*
X103166987Y-81359129D01*
X103146706Y-81434821D01*
X103133200Y-81485227D01*
X103133200Y-81615773D01*
X103142286Y-81649682D01*
X103154225Y-81694242D01*
X103166988Y-81741872D01*
X103232261Y-81854928D01*
X103324572Y-81947239D01*
X103437628Y-82012512D01*
X103563727Y-82046300D01*
X103694272Y-82046300D01*
X103694273Y-82046300D01*
X103820372Y-82012512D01*
X103933428Y-81947239D01*
X104025739Y-81854928D01*
X104091012Y-81741872D01*
X104094195Y-81729993D01*
X104128682Y-81680740D01*
X104186760Y-81665177D01*
X104241254Y-81690588D01*
X104266665Y-81745082D01*
X104267000Y-81752743D01*
X104267000Y-83553800D01*
X104246435Y-83610301D01*
X104194364Y-83640365D01*
X104179100Y-83641700D01*
X63206900Y-83641700D01*
X63150399Y-83621135D01*
X63120335Y-83569064D01*
X63119000Y-83553800D01*
X63119000Y-81475257D01*
X63139565Y-81418756D01*
X63184149Y-81390353D01*
X63261351Y-81369667D01*
X63345448Y-81321113D01*
X63414113Y-81252448D01*
X63462667Y-81168351D01*
X63487800Y-81074553D01*
X63487800Y-80977447D01*
X63462667Y-80883649D01*
X63414113Y-80799552D01*
X63409614Y-80795053D01*
X63384204Y-80740561D01*
X63399767Y-80682483D01*
X63449020Y-80647995D01*
X63471770Y-80645000D01*
X66795300Y-80645000D01*
X66851801Y-80665565D01*
X66881865Y-80717636D01*
X66883200Y-80732900D01*
X66883200Y-80771387D01*
X66912388Y-80880318D01*
X66968775Y-80977983D01*
X67048517Y-81057725D01*
X67146182Y-81114112D01*
X67255113Y-81143300D01*
X67367886Y-81143300D01*
X67367887Y-81143300D01*
X67453350Y-81120400D01*
X67457354Y-81120750D01*
X67460836Y-81118740D01*
X67486891Y-81123334D01*
X67513248Y-81125640D01*
X67516090Y-81128482D01*
X67520050Y-81129181D01*
X67537059Y-81149451D01*
X67555764Y-81168157D01*
X67556844Y-81173031D01*
X67558699Y-81175241D01*
X67564000Y-81205305D01*
X67564000Y-81324694D01*
X67543435Y-81381195D01*
X67491364Y-81411259D01*
X67453351Y-81409599D01*
X67367888Y-81386700D01*
X67367887Y-81386700D01*
X67255113Y-81386700D01*
X67146183Y-81415887D01*
X67048515Y-81472276D01*
X66968776Y-81552015D01*
X66912387Y-81649683D01*
X66883200Y-81758613D01*
X66883200Y-81871386D01*
X66907895Y-81963553D01*
X66912388Y-81980318D01*
X66968775Y-82077983D01*
X67048517Y-82157725D01*
X67146182Y-82214112D01*
X67255113Y-82243300D01*
X67367886Y-82243300D01*
X67367887Y-82243300D01*
X67453350Y-82220400D01*
X67513248Y-82225640D01*
X67555764Y-82268157D01*
X67564000Y-82305305D01*
X67564000Y-82804000D01*
X98805998Y-82804000D01*
X98806000Y-82804000D01*
X98806000Y-82803998D01*
X98808970Y-82801028D01*
X98863463Y-82775617D01*
X98893875Y-82778276D01*
X98994727Y-82805300D01*
X99125272Y-82805300D01*
X99125273Y-82805300D01*
X99251372Y-82771512D01*
X99364428Y-82706239D01*
X99456739Y-82613928D01*
X99522012Y-82500872D01*
X99555800Y-82374773D01*
X99555800Y-82275616D01*
X101000891Y-82275616D01*
X101000891Y-82408301D01*
X101026774Y-82538432D01*
X101026776Y-82538438D01*
X101026777Y-82538441D01*
X101077555Y-82661028D01*
X101077556Y-82661029D01*
X101077556Y-82661030D01*
X101151268Y-82771349D01*
X101151269Y-82771350D01*
X101151272Y-82771354D01*
X101245096Y-82865178D01*
X101355422Y-82938895D01*
X101478009Y-82989673D01*
X101478014Y-82989674D01*
X101478017Y-82989675D01*
X101543960Y-83002791D01*
X101608147Y-83015559D01*
X101608149Y-83015559D01*
X101740833Y-83015559D01*
X101740835Y-83015559D01*
X101826033Y-82998612D01*
X101870964Y-82989675D01*
X101870965Y-82989674D01*
X101870973Y-82989673D01*
X101993560Y-82938895D01*
X102103886Y-82865178D01*
X102197710Y-82771354D01*
X102271427Y-82661028D01*
X102322205Y-82538441D01*
X102348091Y-82408303D01*
X102348091Y-82275615D01*
X102335062Y-82210113D01*
X102322207Y-82145485D01*
X102322206Y-82145482D01*
X102322205Y-82145477D01*
X102271427Y-82022890D01*
X102264493Y-82012512D01*
X102197713Y-81912568D01*
X102197712Y-81912567D01*
X102197710Y-81912564D01*
X102103886Y-81818740D01*
X102103882Y-81818737D01*
X102103881Y-81818736D01*
X101993562Y-81745024D01*
X101993560Y-81745023D01*
X101870973Y-81694245D01*
X101870970Y-81694244D01*
X101870964Y-81694242D01*
X101773035Y-81674764D01*
X101740835Y-81668359D01*
X101608147Y-81668359D01*
X101579492Y-81674058D01*
X101478017Y-81694242D01*
X101478009Y-81694245D01*
X101355420Y-81745024D01*
X101355419Y-81745024D01*
X101245100Y-81818736D01*
X101151268Y-81912568D01*
X101077556Y-82022887D01*
X101077556Y-82022888D01*
X101026777Y-82145477D01*
X101026774Y-82145485D01*
X101007319Y-82243300D01*
X101002375Y-82268157D01*
X101000891Y-82275616D01*
X99555800Y-82275616D01*
X99555800Y-82244227D01*
X99522012Y-82118128D01*
X99456739Y-82005072D01*
X99364428Y-81912761D01*
X99251372Y-81847488D01*
X99251371Y-81847487D01*
X99251370Y-81847487D01*
X99125273Y-81813700D01*
X98994727Y-81813700D01*
X98994725Y-81813700D01*
X98916649Y-81834620D01*
X98856751Y-81829379D01*
X98814235Y-81786862D01*
X98806000Y-81749715D01*
X98806000Y-78932284D01*
X98826565Y-78875783D01*
X98878636Y-78845719D01*
X98916648Y-78847378D01*
X98994727Y-78868300D01*
X98994728Y-78868300D01*
X99125272Y-78868300D01*
X99125273Y-78868300D01*
X99251372Y-78834512D01*
X99364428Y-78769239D01*
X99456739Y-78676928D01*
X99522012Y-78563872D01*
X99555800Y-78437773D01*
X99555800Y-78338616D01*
X101000891Y-78338616D01*
X101000891Y-78471301D01*
X101026774Y-78601432D01*
X101026776Y-78601438D01*
X101026777Y-78601441D01*
X101077555Y-78724028D01*
X101077556Y-78724029D01*
X101077556Y-78724030D01*
X101151268Y-78834349D01*
X101151269Y-78834350D01*
X101151272Y-78834354D01*
X101245096Y-78928178D01*
X101355422Y-79001895D01*
X101478009Y-79052673D01*
X101478014Y-79052674D01*
X101478017Y-79052675D01*
X101543960Y-79065791D01*
X101608147Y-79078559D01*
X101608149Y-79078559D01*
X101740833Y-79078559D01*
X101740835Y-79078559D01*
X101826033Y-79061612D01*
X101870964Y-79052675D01*
X101870965Y-79052674D01*
X101870973Y-79052673D01*
X101993560Y-79001895D01*
X102103886Y-78928178D01*
X102197710Y-78834354D01*
X102271427Y-78724028D01*
X102322205Y-78601441D01*
X102324764Y-78588579D01*
X102348091Y-78471301D01*
X102348091Y-78338616D01*
X102322207Y-78208485D01*
X102322206Y-78208482D01*
X102322205Y-78208477D01*
X102271427Y-78085890D01*
X102264493Y-78075512D01*
X102197713Y-77975568D01*
X102197712Y-77975567D01*
X102197710Y-77975564D01*
X102103886Y-77881740D01*
X102103882Y-77881737D01*
X102103881Y-77881736D01*
X101993562Y-77808024D01*
X101993560Y-77808023D01*
X101870973Y-77757245D01*
X101870970Y-77757244D01*
X101870964Y-77757242D01*
X101773035Y-77737764D01*
X101740835Y-77731359D01*
X101608147Y-77731359D01*
X101579492Y-77737058D01*
X101478017Y-77757242D01*
X101478009Y-77757245D01*
X101355420Y-77808024D01*
X101355419Y-77808024D01*
X101245100Y-77881736D01*
X101151268Y-77975568D01*
X101077556Y-78085887D01*
X101077556Y-78085888D01*
X101026777Y-78208477D01*
X101026774Y-78208485D01*
X101000891Y-78338616D01*
X99555800Y-78338616D01*
X99555800Y-78307227D01*
X99522012Y-78181128D01*
X99456739Y-78068072D01*
X99364428Y-77975761D01*
X99251372Y-77910488D01*
X99251371Y-77910487D01*
X99251370Y-77910487D01*
X99125273Y-77876700D01*
X98994727Y-77876700D01*
X98994725Y-77876700D01*
X98916649Y-77897620D01*
X98856751Y-77892379D01*
X98814235Y-77849862D01*
X98806000Y-77812715D01*
X98806000Y-75105784D01*
X98826565Y-75049283D01*
X98878636Y-75019219D01*
X98916648Y-75020878D01*
X98994727Y-75041800D01*
X98994728Y-75041800D01*
X99125272Y-75041800D01*
X99125273Y-75041800D01*
X99251372Y-75008012D01*
X99364428Y-74942739D01*
X99456739Y-74850428D01*
X99522012Y-74737372D01*
X99555800Y-74611273D01*
X99555800Y-74512116D01*
X101000891Y-74512116D01*
X101000891Y-74644801D01*
X101026774Y-74774932D01*
X101026776Y-74774938D01*
X101026777Y-74774941D01*
X101077555Y-74897528D01*
X101077556Y-74897529D01*
X101077556Y-74897530D01*
X101151268Y-75007849D01*
X101151269Y-75007850D01*
X101151272Y-75007854D01*
X101245096Y-75101678D01*
X101355422Y-75175395D01*
X101478009Y-75226173D01*
X101478014Y-75226174D01*
X101478017Y-75226175D01*
X101543960Y-75239291D01*
X101608147Y-75252059D01*
X101608149Y-75252059D01*
X101740833Y-75252059D01*
X101740835Y-75252059D01*
X101826033Y-75235112D01*
X101870964Y-75226175D01*
X101870965Y-75226174D01*
X101870973Y-75226173D01*
X101993560Y-75175395D01*
X102103886Y-75101678D01*
X102197710Y-75007854D01*
X102271427Y-74897528D01*
X102322205Y-74774941D01*
X102348091Y-74644803D01*
X102348091Y-74512115D01*
X102322205Y-74381977D01*
X102271427Y-74259390D01*
X102264493Y-74249012D01*
X102197713Y-74149068D01*
X102197712Y-74149067D01*
X102197710Y-74149064D01*
X102103886Y-74055240D01*
X102103882Y-74055237D01*
X102103881Y-74055236D01*
X101993562Y-73981524D01*
X101993560Y-73981523D01*
X101870973Y-73930745D01*
X101870970Y-73930744D01*
X101870964Y-73930742D01*
X101773035Y-73911264D01*
X101740835Y-73904859D01*
X101608147Y-73904859D01*
X101579492Y-73910558D01*
X101478017Y-73930742D01*
X101478009Y-73930745D01*
X101373401Y-73974076D01*
X101355420Y-73981524D01*
X101355419Y-73981524D01*
X101245100Y-74055236D01*
X101151268Y-74149068D01*
X101077556Y-74259387D01*
X101077556Y-74259388D01*
X101026777Y-74381977D01*
X101026774Y-74381985D01*
X101000891Y-74512116D01*
X99555800Y-74512116D01*
X99555800Y-74480727D01*
X99522012Y-74354628D01*
X99456739Y-74241572D01*
X99364428Y-74149261D01*
X99251372Y-74083988D01*
X99251371Y-74083987D01*
X99251370Y-74083987D01*
X99125273Y-74050200D01*
X98994727Y-74050200D01*
X98994725Y-74050200D01*
X98916649Y-74071120D01*
X98856751Y-74065879D01*
X98814235Y-74023362D01*
X98806000Y-73986215D01*
X98806000Y-71298784D01*
X98826565Y-71242283D01*
X98878636Y-71212219D01*
X98916648Y-71213878D01*
X98994727Y-71234800D01*
X98994728Y-71234800D01*
X99125272Y-71234800D01*
X99125273Y-71234800D01*
X99251372Y-71201012D01*
X99364428Y-71135739D01*
X99456739Y-71043428D01*
X99522012Y-70930372D01*
X99555800Y-70804273D01*
X99555800Y-70705116D01*
X101000891Y-70705116D01*
X101000891Y-70837801D01*
X101026774Y-70967932D01*
X101026776Y-70967938D01*
X101026777Y-70967941D01*
X101077555Y-71090528D01*
X101077556Y-71090529D01*
X101077556Y-71090530D01*
X101151268Y-71200849D01*
X101151269Y-71200850D01*
X101151272Y-71200854D01*
X101245096Y-71294678D01*
X101245099Y-71294680D01*
X101245100Y-71294681D01*
X101251241Y-71298784D01*
X101355422Y-71368395D01*
X101478009Y-71419173D01*
X101478014Y-71419174D01*
X101478017Y-71419175D01*
X101543960Y-71432291D01*
X101608147Y-71445059D01*
X101608149Y-71445059D01*
X101740833Y-71445059D01*
X101740835Y-71445059D01*
X101826033Y-71428112D01*
X101870964Y-71419175D01*
X101870965Y-71419174D01*
X101870973Y-71419173D01*
X101993560Y-71368395D01*
X102103886Y-71294678D01*
X102197710Y-71200854D01*
X102271427Y-71090528D01*
X102322205Y-70967941D01*
X102348091Y-70837803D01*
X102348091Y-70705115D01*
X102337032Y-70649516D01*
X102322207Y-70574985D01*
X102322206Y-70574982D01*
X102322205Y-70574977D01*
X102271427Y-70452390D01*
X102264493Y-70442012D01*
X102197713Y-70342068D01*
X102197712Y-70342067D01*
X102197710Y-70342064D01*
X102103886Y-70248240D01*
X102103882Y-70248237D01*
X102103881Y-70248236D01*
X101993562Y-70174524D01*
X101993560Y-70174523D01*
X101870973Y-70123745D01*
X101870970Y-70123744D01*
X101870964Y-70123742D01*
X101773035Y-70104264D01*
X101740835Y-70097859D01*
X101608147Y-70097859D01*
X101579492Y-70103558D01*
X101478017Y-70123742D01*
X101478009Y-70123745D01*
X101355420Y-70174524D01*
X101355419Y-70174524D01*
X101245100Y-70248236D01*
X101151268Y-70342068D01*
X101077556Y-70452387D01*
X101077556Y-70452388D01*
X101026777Y-70574977D01*
X101026774Y-70574985D01*
X101000891Y-70705116D01*
X99555800Y-70705116D01*
X99555800Y-70673727D01*
X99522012Y-70547628D01*
X99456739Y-70434572D01*
X99364428Y-70342261D01*
X99251372Y-70276988D01*
X99251371Y-70276987D01*
X99251370Y-70276987D01*
X99125273Y-70243200D01*
X98994727Y-70243200D01*
X98994725Y-70243200D01*
X98916649Y-70264120D01*
X98856751Y-70258879D01*
X98814235Y-70216362D01*
X98806000Y-70179215D01*
X98806000Y-67485784D01*
X98826565Y-67429283D01*
X98878636Y-67399219D01*
X98916648Y-67400878D01*
X98994727Y-67421800D01*
X98994728Y-67421800D01*
X99125272Y-67421800D01*
X99125273Y-67421800D01*
X99251372Y-67388012D01*
X99364428Y-67322739D01*
X99456739Y-67230428D01*
X99522012Y-67117372D01*
X99555800Y-66991273D01*
X99555800Y-66892116D01*
X101000891Y-66892116D01*
X101000891Y-67024801D01*
X101026774Y-67154932D01*
X101026776Y-67154938D01*
X101026777Y-67154941D01*
X101077555Y-67277528D01*
X101077556Y-67277529D01*
X101077556Y-67277530D01*
X101151268Y-67387849D01*
X101151269Y-67387850D01*
X101151272Y-67387854D01*
X101245096Y-67481678D01*
X101245099Y-67481680D01*
X101245100Y-67481681D01*
X101355419Y-67555393D01*
X101355422Y-67555395D01*
X101478009Y-67606173D01*
X101478014Y-67606174D01*
X101478017Y-67606175D01*
X101543960Y-67619291D01*
X101608147Y-67632059D01*
X101608149Y-67632059D01*
X101740833Y-67632059D01*
X101740835Y-67632059D01*
X101826033Y-67615112D01*
X101870964Y-67606175D01*
X101870965Y-67606174D01*
X101870973Y-67606173D01*
X101993560Y-67555395D01*
X102103886Y-67481678D01*
X102197710Y-67387854D01*
X102271427Y-67277528D01*
X102322205Y-67154941D01*
X102348091Y-67024803D01*
X102348091Y-66892115D01*
X102322205Y-66761977D01*
X102271427Y-66639390D01*
X102264493Y-66629012D01*
X102197713Y-66529068D01*
X102197712Y-66529067D01*
X102197710Y-66529064D01*
X102103886Y-66435240D01*
X102103882Y-66435237D01*
X102103881Y-66435236D01*
X101993562Y-66361524D01*
X101993560Y-66361523D01*
X101870973Y-66310745D01*
X101870970Y-66310744D01*
X101870964Y-66310742D01*
X101767002Y-66290064D01*
X101740835Y-66284859D01*
X101608147Y-66284859D01*
X101581980Y-66290064D01*
X101478017Y-66310742D01*
X101478009Y-66310745D01*
X101355420Y-66361524D01*
X101355419Y-66361524D01*
X101245100Y-66435236D01*
X101151268Y-66529068D01*
X101077556Y-66639387D01*
X101077556Y-66639388D01*
X101026777Y-66761977D01*
X101026774Y-66761985D01*
X101000891Y-66892116D01*
X99555800Y-66892116D01*
X99555800Y-66860727D01*
X99522012Y-66734628D01*
X99456739Y-66621572D01*
X99364428Y-66529261D01*
X99251372Y-66463988D01*
X99251371Y-66463987D01*
X99251370Y-66463987D01*
X99125273Y-66430200D01*
X98994727Y-66430200D01*
X98994725Y-66430200D01*
X98916649Y-66451120D01*
X98856751Y-66445879D01*
X98814235Y-66403362D01*
X98806000Y-66366215D01*
X98806000Y-63692284D01*
X98826565Y-63635783D01*
X98878636Y-63605719D01*
X98916648Y-63607378D01*
X98994727Y-63628300D01*
X98994728Y-63628300D01*
X99125272Y-63628300D01*
X99125273Y-63628300D01*
X99251372Y-63594512D01*
X99364428Y-63529239D01*
X99456739Y-63436928D01*
X99522012Y-63323872D01*
X99555800Y-63197773D01*
X99555800Y-63098616D01*
X101000891Y-63098616D01*
X101000891Y-63231301D01*
X101026774Y-63361432D01*
X101026776Y-63361438D01*
X101026777Y-63361441D01*
X101077555Y-63484028D01*
X101077556Y-63484029D01*
X101077556Y-63484030D01*
X101151268Y-63594349D01*
X101151269Y-63594350D01*
X101151272Y-63594354D01*
X101245096Y-63688178D01*
X101245099Y-63688180D01*
X101245100Y-63688181D01*
X101341417Y-63752537D01*
X101355422Y-63761895D01*
X101478009Y-63812673D01*
X101478014Y-63812674D01*
X101478017Y-63812675D01*
X101536819Y-63824371D01*
X101608147Y-63838559D01*
X101608149Y-63838559D01*
X101740833Y-63838559D01*
X101740835Y-63838559D01*
X101826033Y-63821612D01*
X101870964Y-63812675D01*
X101870965Y-63812674D01*
X101870973Y-63812673D01*
X101993560Y-63761895D01*
X102103886Y-63688178D01*
X102197710Y-63594354D01*
X102271427Y-63484028D01*
X102322205Y-63361441D01*
X102323690Y-63353978D01*
X102339721Y-63273381D01*
X102348091Y-63231303D01*
X102348091Y-63098615D01*
X102322205Y-62968477D01*
X102271427Y-62845890D01*
X102264493Y-62835512D01*
X102197713Y-62735568D01*
X102197712Y-62735567D01*
X102197710Y-62735564D01*
X102103886Y-62641740D01*
X102103882Y-62641737D01*
X102103881Y-62641736D01*
X101993562Y-62568024D01*
X101993560Y-62568023D01*
X101870973Y-62517245D01*
X101870970Y-62517244D01*
X101870964Y-62517242D01*
X101773035Y-62497764D01*
X101740835Y-62491359D01*
X101608147Y-62491359D01*
X101579492Y-62497058D01*
X101478017Y-62517242D01*
X101478009Y-62517245D01*
X101355420Y-62568024D01*
X101355419Y-62568024D01*
X101245100Y-62641736D01*
X101151268Y-62735568D01*
X101077556Y-62845887D01*
X101077556Y-62845888D01*
X101026777Y-62968477D01*
X101026774Y-62968485D01*
X101000891Y-63098616D01*
X99555800Y-63098616D01*
X99555800Y-63067227D01*
X99522012Y-62941128D01*
X99456739Y-62828072D01*
X99364428Y-62735761D01*
X99251372Y-62670488D01*
X99251371Y-62670487D01*
X99251370Y-62670487D01*
X99125273Y-62636700D01*
X98994727Y-62636700D01*
X98994725Y-62636700D01*
X98916649Y-62657620D01*
X98856751Y-62652379D01*
X98814235Y-62609862D01*
X98806000Y-62572715D01*
X98806000Y-59972784D01*
X98826565Y-59916283D01*
X98878636Y-59886219D01*
X98916648Y-59887878D01*
X98994727Y-59908800D01*
X98994728Y-59908800D01*
X99125272Y-59908800D01*
X99125273Y-59908800D01*
X99251372Y-59875012D01*
X99364428Y-59809739D01*
X99456739Y-59717428D01*
X99522012Y-59604372D01*
X99555800Y-59478273D01*
X99555800Y-59379116D01*
X101000891Y-59379116D01*
X101000891Y-59511801D01*
X101026774Y-59641932D01*
X101026776Y-59641938D01*
X101026777Y-59641941D01*
X101077555Y-59764528D01*
X101077556Y-59764529D01*
X101077556Y-59764530D01*
X101151268Y-59874849D01*
X101151269Y-59874850D01*
X101151272Y-59874854D01*
X101245096Y-59968678D01*
X101355422Y-60042395D01*
X101478009Y-60093173D01*
X101478014Y-60093174D01*
X101478017Y-60093175D01*
X101543960Y-60106291D01*
X101608147Y-60119059D01*
X101608149Y-60119059D01*
X101740833Y-60119059D01*
X101740835Y-60119059D01*
X101826033Y-60102112D01*
X101870964Y-60093175D01*
X101870965Y-60093174D01*
X101870973Y-60093173D01*
X101993560Y-60042395D01*
X102103886Y-59968678D01*
X102197710Y-59874854D01*
X102271427Y-59764528D01*
X102322205Y-59641941D01*
X102325882Y-59623458D01*
X102348091Y-59511801D01*
X102348091Y-59379116D01*
X102322207Y-59248985D01*
X102322206Y-59248982D01*
X102322205Y-59248977D01*
X102271427Y-59126390D01*
X102264493Y-59116012D01*
X102197713Y-59016068D01*
X102197712Y-59016067D01*
X102197710Y-59016064D01*
X102103886Y-58922240D01*
X102103882Y-58922237D01*
X102103881Y-58922236D01*
X101993562Y-58848524D01*
X101993560Y-58848523D01*
X101870973Y-58797745D01*
X101870970Y-58797744D01*
X101870964Y-58797742D01*
X101773035Y-58778264D01*
X101740835Y-58771859D01*
X101608147Y-58771859D01*
X101579492Y-58777558D01*
X101478017Y-58797742D01*
X101478009Y-58797745D01*
X101355420Y-58848524D01*
X101355419Y-58848524D01*
X101245100Y-58922236D01*
X101151268Y-59016068D01*
X101077556Y-59126387D01*
X101077556Y-59126388D01*
X101026777Y-59248977D01*
X101026774Y-59248985D01*
X101000891Y-59379116D01*
X99555800Y-59379116D01*
X99555800Y-59347727D01*
X99522012Y-59221628D01*
X99456739Y-59108572D01*
X99364428Y-59016261D01*
X99251372Y-58950988D01*
X99251371Y-58950987D01*
X99251370Y-58950987D01*
X99125273Y-58917200D01*
X98994727Y-58917200D01*
X98994725Y-58917200D01*
X98916649Y-58938120D01*
X98856751Y-58932879D01*
X98814235Y-58890362D01*
X98806000Y-58853215D01*
X98806000Y-56142284D01*
X98826565Y-56085783D01*
X98878636Y-56055719D01*
X98916648Y-56057378D01*
X98994727Y-56078300D01*
X98994728Y-56078300D01*
X99125272Y-56078300D01*
X99125273Y-56078300D01*
X99251372Y-56044512D01*
X99364428Y-55979239D01*
X99456739Y-55886928D01*
X99522012Y-55773872D01*
X99555800Y-55647773D01*
X99555800Y-55548616D01*
X101000891Y-55548616D01*
X101000891Y-55681301D01*
X101026774Y-55811432D01*
X101026776Y-55811438D01*
X101026777Y-55811441D01*
X101077555Y-55934028D01*
X101077556Y-55934029D01*
X101077556Y-55934030D01*
X101151268Y-56044349D01*
X101151269Y-56044350D01*
X101151272Y-56044354D01*
X101245096Y-56138178D01*
X101355422Y-56211895D01*
X101478009Y-56262673D01*
X101478014Y-56262674D01*
X101478017Y-56262675D01*
X101543960Y-56275791D01*
X101608147Y-56288559D01*
X101608149Y-56288559D01*
X101740833Y-56288559D01*
X101740835Y-56288559D01*
X101826033Y-56271612D01*
X101870964Y-56262675D01*
X101870965Y-56262674D01*
X101870973Y-56262673D01*
X101993560Y-56211895D01*
X102103886Y-56138178D01*
X102197710Y-56044354D01*
X102271427Y-55934028D01*
X102322205Y-55811441D01*
X102348091Y-55681303D01*
X102348091Y-55548615D01*
X102322205Y-55418477D01*
X102271427Y-55295890D01*
X102264493Y-55285512D01*
X102197713Y-55185568D01*
X102197712Y-55185567D01*
X102197710Y-55185564D01*
X102103886Y-55091740D01*
X102103882Y-55091737D01*
X102103881Y-55091736D01*
X101993562Y-55018024D01*
X101993560Y-55018023D01*
X101870973Y-54967245D01*
X101870970Y-54967244D01*
X101870964Y-54967242D01*
X101773035Y-54947764D01*
X101740835Y-54941359D01*
X101608147Y-54941359D01*
X101579492Y-54947058D01*
X101478017Y-54967242D01*
X101478009Y-54967245D01*
X101355420Y-55018024D01*
X101355419Y-55018024D01*
X101245100Y-55091736D01*
X101151268Y-55185568D01*
X101077556Y-55295887D01*
X101077556Y-55295888D01*
X101026777Y-55418477D01*
X101026774Y-55418485D01*
X101000891Y-55548616D01*
X99555800Y-55548616D01*
X99555800Y-55517227D01*
X99522012Y-55391128D01*
X99456739Y-55278072D01*
X99364428Y-55185761D01*
X99251372Y-55120488D01*
X99251371Y-55120487D01*
X99251370Y-55120487D01*
X99125273Y-55086700D01*
X98994727Y-55086700D01*
X98994725Y-55086700D01*
X98916649Y-55107620D01*
X98856751Y-55102379D01*
X98814235Y-55059862D01*
X98806000Y-55022715D01*
X98806000Y-51066200D01*
X98826565Y-51009699D01*
X98878636Y-50979635D01*
X98893900Y-50978300D01*
X104179100Y-50978300D01*
X104235601Y-50998865D01*
G37*
%TD.AperFunction*%
%TD*%
%TA.AperFunction,Conductor*%
%TO.N,-24V*%
G36*
X98519536Y-50998865D02*
G01*
X98549600Y-51050936D01*
X98550934Y-51066552D01*
X98541515Y-53421022D01*
X98520725Y-53477440D01*
X98468533Y-53507295D01*
X98409666Y-53496793D01*
X98362374Y-53469488D01*
X98362372Y-53469487D01*
X98236273Y-53435700D01*
X98105727Y-53435700D01*
X97979629Y-53469487D01*
X97866570Y-53534762D01*
X97774262Y-53627070D01*
X97708987Y-53740129D01*
X97683068Y-53836864D01*
X97675200Y-53866227D01*
X97675200Y-53996773D01*
X97708988Y-54122872D01*
X97774261Y-54235928D01*
X97866572Y-54328239D01*
X97979628Y-54393512D01*
X98105727Y-54427300D01*
X98236272Y-54427300D01*
X98236273Y-54427300D01*
X98362372Y-54393512D01*
X98405569Y-54368571D01*
X98464782Y-54358130D01*
X98516854Y-54388193D01*
X98537419Y-54444694D01*
X98537418Y-54445047D01*
X98526228Y-57242696D01*
X98505438Y-57299114D01*
X98453246Y-57328969D01*
X98394378Y-57318467D01*
X98362372Y-57299988D01*
X98362371Y-57299987D01*
X98362372Y-57299987D01*
X98236273Y-57266200D01*
X98105727Y-57266200D01*
X97979629Y-57299987D01*
X97866570Y-57365262D01*
X97774262Y-57457570D01*
X97708987Y-57570629D01*
X97687583Y-57650511D01*
X97675200Y-57696727D01*
X97675200Y-57827273D01*
X97681653Y-57851355D01*
X97707905Y-57949333D01*
X97708988Y-57953372D01*
X97774261Y-58066428D01*
X97866572Y-58158739D01*
X97979628Y-58224012D01*
X98105727Y-58257800D01*
X98236272Y-58257800D01*
X98236273Y-58257800D01*
X98362372Y-58224012D01*
X98390211Y-58207938D01*
X98449423Y-58197496D01*
X98501496Y-58227558D01*
X98522062Y-58284059D01*
X98522061Y-58284413D01*
X98511384Y-60953625D01*
X98490594Y-61010043D01*
X98438402Y-61039898D01*
X98379536Y-61029397D01*
X98362372Y-61019488D01*
X98362372Y-61019487D01*
X98236273Y-60985700D01*
X98105727Y-60985700D01*
X97979629Y-61019487D01*
X97866570Y-61084762D01*
X97774262Y-61177070D01*
X97708987Y-61290129D01*
X97682347Y-61389553D01*
X97675200Y-61416227D01*
X97675200Y-61546773D01*
X97680739Y-61567445D01*
X97705542Y-61660014D01*
X97708988Y-61672872D01*
X97774261Y-61785928D01*
X97866572Y-61878239D01*
X97979628Y-61943512D01*
X98105727Y-61977300D01*
X98236272Y-61977300D01*
X98236273Y-61977300D01*
X98362372Y-61943512D01*
X98375300Y-61936047D01*
X98434511Y-61925606D01*
X98486584Y-61955668D01*
X98507150Y-62012169D01*
X98507149Y-62012523D01*
X98496246Y-64738385D01*
X98475456Y-64794803D01*
X98423264Y-64824658D01*
X98367864Y-64814776D01*
X98367693Y-64815192D01*
X98365802Y-64814409D01*
X98364401Y-64814159D01*
X98362372Y-64812988D01*
X98362372Y-64812987D01*
X98236273Y-64779200D01*
X98105727Y-64779200D01*
X97979629Y-64812987D01*
X97866570Y-64878262D01*
X97774262Y-64970570D01*
X97708987Y-65083629D01*
X97679913Y-65192137D01*
X97675200Y-65209727D01*
X97675200Y-65340273D01*
X97675787Y-65342462D01*
X97702356Y-65441624D01*
X97708988Y-65466372D01*
X97774261Y-65579428D01*
X97866572Y-65671739D01*
X97979628Y-65737012D01*
X98105727Y-65770800D01*
X98236272Y-65770800D01*
X98236273Y-65770800D01*
X98362372Y-65737012D01*
X98367693Y-65734808D01*
X98368535Y-65736842D01*
X98419292Y-65727885D01*
X98471368Y-65757941D01*
X98491941Y-65814439D01*
X98491940Y-65814804D01*
X98481024Y-68543936D01*
X98460234Y-68600354D01*
X98408042Y-68630209D01*
X98368390Y-68625784D01*
X98367937Y-68627479D01*
X98236273Y-68592200D01*
X98105727Y-68592200D01*
X97979629Y-68625987D01*
X97866570Y-68691262D01*
X97774262Y-68783570D01*
X97708987Y-68896629D01*
X97678227Y-69011429D01*
X97675200Y-69022727D01*
X97675200Y-69153273D01*
X97686800Y-69196566D01*
X97707989Y-69275646D01*
X97708988Y-69279372D01*
X97774261Y-69392428D01*
X97866572Y-69484739D01*
X97979628Y-69550012D01*
X98105727Y-69583800D01*
X98236272Y-69583800D01*
X98236273Y-69583800D01*
X98362372Y-69550012D01*
X98362373Y-69550011D01*
X98366013Y-69549036D01*
X98425911Y-69554277D01*
X98468427Y-69596793D01*
X98476662Y-69634293D01*
X98465813Y-72346503D01*
X98445023Y-72402921D01*
X98392831Y-72432776D01*
X98355164Y-72431056D01*
X98236273Y-72399200D01*
X98105727Y-72399200D01*
X97979629Y-72432987D01*
X97866570Y-72498262D01*
X97774262Y-72590570D01*
X97708987Y-72703629D01*
X97675200Y-72829727D01*
X97675200Y-72960272D01*
X97708396Y-73084165D01*
X97708988Y-73086372D01*
X97774261Y-73199428D01*
X97866572Y-73291739D01*
X97979628Y-73357012D01*
X98105727Y-73390800D01*
X98236271Y-73390800D01*
X98236273Y-73390800D01*
X98350771Y-73360120D01*
X98410667Y-73365360D01*
X98453183Y-73407876D01*
X98461418Y-73445377D01*
X98450523Y-76168906D01*
X98429733Y-76225324D01*
X98377541Y-76255179D01*
X98339874Y-76253459D01*
X98236273Y-76225700D01*
X98105727Y-76225700D01*
X97979629Y-76259487D01*
X97866570Y-76324762D01*
X97774262Y-76417070D01*
X97708987Y-76530129D01*
X97675200Y-76656227D01*
X97675200Y-76786772D01*
X97704879Y-76897539D01*
X97708988Y-76912872D01*
X97774261Y-77025928D01*
X97866572Y-77118239D01*
X97979628Y-77183512D01*
X98105727Y-77217300D01*
X98236271Y-77217300D01*
X98236273Y-77217300D01*
X98335447Y-77190726D01*
X98395344Y-77195966D01*
X98437860Y-77238482D01*
X98446095Y-77275983D01*
X98434793Y-80101691D01*
X98414003Y-80158109D01*
X98361811Y-80187964D01*
X98324145Y-80186244D01*
X98236274Y-80162700D01*
X98236273Y-80162700D01*
X98105727Y-80162700D01*
X97979629Y-80196487D01*
X97866570Y-80261762D01*
X97774262Y-80354070D01*
X97708987Y-80467129D01*
X97675200Y-80593227D01*
X97675200Y-80723772D01*
X97706730Y-80841448D01*
X97708988Y-80849872D01*
X97774261Y-80962928D01*
X97866572Y-81055239D01*
X97979628Y-81120512D01*
X98105727Y-81154300D01*
X98236271Y-81154300D01*
X98236273Y-81154300D01*
X98319683Y-81131950D01*
X98379580Y-81137190D01*
X98422096Y-81179706D01*
X98430331Y-81217207D01*
X98425350Y-82462452D01*
X98404560Y-82518870D01*
X98352368Y-82548725D01*
X98337451Y-82550000D01*
X96377124Y-82550000D01*
X96320623Y-82529435D01*
X96290559Y-82477364D01*
X96301000Y-82418150D01*
X96306885Y-82409342D01*
X96307111Y-82408949D01*
X96307113Y-82408948D01*
X96355667Y-82324851D01*
X96380800Y-82231053D01*
X96380800Y-82133947D01*
X96355667Y-82040149D01*
X96307113Y-81956052D01*
X96238448Y-81887387D01*
X96154351Y-81838833D01*
X96154350Y-81838832D01*
X96154349Y-81838832D01*
X96060553Y-81813700D01*
X95963447Y-81813700D01*
X95869650Y-81838832D01*
X95785554Y-81887385D01*
X95716885Y-81956054D01*
X95668332Y-82040150D01*
X95643200Y-82133947D01*
X95643200Y-82231052D01*
X95668332Y-82324849D01*
X95719768Y-82413938D01*
X95718524Y-82414655D01*
X95734692Y-82465934D01*
X95711683Y-82521484D01*
X95658349Y-82549248D01*
X95646876Y-82550000D01*
X69048900Y-82550000D01*
X68992399Y-82529435D01*
X68962335Y-82477364D01*
X68961000Y-82462100D01*
X68961000Y-81758613D01*
X77421200Y-81758613D01*
X77421200Y-81871386D01*
X77445895Y-81963553D01*
X77450388Y-81980318D01*
X77506775Y-82077983D01*
X77586517Y-82157725D01*
X77684182Y-82214112D01*
X77793113Y-82243300D01*
X77905886Y-82243300D01*
X77905887Y-82243300D01*
X78014818Y-82214112D01*
X78112483Y-82157725D01*
X78192225Y-82077983D01*
X78248612Y-81980318D01*
X78277800Y-81871387D01*
X78277800Y-81758613D01*
X78248612Y-81649682D01*
X78192225Y-81552017D01*
X78112483Y-81472275D01*
X78014818Y-81415888D01*
X78014817Y-81415887D01*
X78014816Y-81415887D01*
X77905887Y-81386700D01*
X77793113Y-81386700D01*
X77684183Y-81415887D01*
X77586515Y-81472276D01*
X77506776Y-81552015D01*
X77450387Y-81649683D01*
X77421200Y-81758613D01*
X68961000Y-81758613D01*
X68961000Y-80833727D01*
X69354200Y-80833727D01*
X69354200Y-80964273D01*
X69357730Y-80977447D01*
X69387253Y-81087632D01*
X69387988Y-81090372D01*
X69453261Y-81203428D01*
X69545572Y-81295739D01*
X69658628Y-81361012D01*
X69784727Y-81394800D01*
X69915272Y-81394800D01*
X69915273Y-81394800D01*
X70041372Y-81361012D01*
X70154428Y-81295739D01*
X70246739Y-81203428D01*
X70312012Y-81090372D01*
X70345800Y-80964273D01*
X70345800Y-80860227D01*
X71105700Y-80860227D01*
X71105700Y-80990773D01*
X71109230Y-81003947D01*
X71138668Y-81113814D01*
X71139488Y-81116872D01*
X71204761Y-81229928D01*
X71297072Y-81322239D01*
X71410128Y-81387512D01*
X71536227Y-81421300D01*
X71666772Y-81421300D01*
X71666773Y-81421300D01*
X71792872Y-81387512D01*
X71905928Y-81322239D01*
X71998239Y-81229928D01*
X72063512Y-81116872D01*
X72097300Y-80990773D01*
X72097300Y-80860227D01*
X73190700Y-80860227D01*
X73190700Y-80990773D01*
X73194230Y-81003947D01*
X73223668Y-81113814D01*
X73224488Y-81116872D01*
X73289761Y-81229928D01*
X73382072Y-81322239D01*
X73495128Y-81387512D01*
X73621227Y-81421300D01*
X73751772Y-81421300D01*
X73751773Y-81421300D01*
X73877872Y-81387512D01*
X73990928Y-81322239D01*
X74083239Y-81229928D01*
X74148512Y-81116872D01*
X74182300Y-80990773D01*
X74182300Y-80860227D01*
X74175199Y-80833727D01*
X74815200Y-80833727D01*
X74815200Y-80964273D01*
X74818730Y-80977447D01*
X74848253Y-81087632D01*
X74848988Y-81090372D01*
X74914261Y-81203428D01*
X75006572Y-81295739D01*
X75119628Y-81361012D01*
X75245727Y-81394800D01*
X75376272Y-81394800D01*
X75376273Y-81394800D01*
X75502372Y-81361012D01*
X75615428Y-81295739D01*
X75659720Y-81251447D01*
X78831200Y-81251447D01*
X78831200Y-81348553D01*
X78840362Y-81382747D01*
X78856332Y-81442349D01*
X78884679Y-81491448D01*
X78904887Y-81526448D01*
X78947919Y-81569480D01*
X78973330Y-81623973D01*
X78957767Y-81682051D01*
X78955507Y-81685135D01*
X78952890Y-81688545D01*
X78904332Y-81772650D01*
X78879200Y-81866447D01*
X78879200Y-81963552D01*
X78899723Y-82040149D01*
X78904333Y-82057351D01*
X78952887Y-82141448D01*
X79021552Y-82210113D01*
X79105649Y-82258667D01*
X79199447Y-82283800D01*
X79296552Y-82283800D01*
X79296553Y-82283800D01*
X79390351Y-82258667D01*
X79474448Y-82210113D01*
X79543113Y-82141448D01*
X79591667Y-82057351D01*
X79616800Y-81963553D01*
X79616800Y-81866447D01*
X79591667Y-81772649D01*
X79572498Y-81739447D01*
X82816200Y-81739447D01*
X82816200Y-81836552D01*
X82841332Y-81930349D01*
X82884473Y-82005072D01*
X82889887Y-82014448D01*
X82958552Y-82083113D01*
X83042649Y-82131667D01*
X83136447Y-82156800D01*
X83233552Y-82156800D01*
X83233553Y-82156800D01*
X83327351Y-82131667D01*
X83411448Y-82083113D01*
X83480113Y-82014448D01*
X83528667Y-81930351D01*
X83553800Y-81836553D01*
X83553800Y-81739447D01*
X83528667Y-81645649D01*
X83480113Y-81561552D01*
X83411448Y-81492887D01*
X83327351Y-81444333D01*
X83327350Y-81444332D01*
X83327351Y-81444332D01*
X83233553Y-81419200D01*
X83136447Y-81419200D01*
X83042650Y-81444332D01*
X82958554Y-81492885D01*
X82889885Y-81561554D01*
X82841332Y-81645650D01*
X82816200Y-81739447D01*
X79572498Y-81739447D01*
X79543113Y-81688552D01*
X79500078Y-81645517D01*
X79474668Y-81591025D01*
X79490231Y-81532947D01*
X79492506Y-81529844D01*
X79495110Y-81526450D01*
X79495113Y-81526448D01*
X79543667Y-81442351D01*
X79568800Y-81348553D01*
X79568800Y-81251447D01*
X79543667Y-81157649D01*
X79495113Y-81073552D01*
X79450214Y-81028653D01*
X79426336Y-80977447D01*
X80276200Y-80977447D01*
X80276200Y-81074553D01*
X80279705Y-81087633D01*
X80301332Y-81168349D01*
X80329101Y-81216447D01*
X80349887Y-81252448D01*
X80418552Y-81321113D01*
X80502649Y-81369667D01*
X80596447Y-81394800D01*
X80693552Y-81394800D01*
X80693553Y-81394800D01*
X80738536Y-81382747D01*
X86523500Y-81382747D01*
X86523500Y-81479853D01*
X86532698Y-81514183D01*
X86548632Y-81573649D01*
X86592530Y-81649683D01*
X86597187Y-81657748D01*
X86665852Y-81726413D01*
X86749949Y-81774967D01*
X86843747Y-81800100D01*
X86940852Y-81800100D01*
X86940853Y-81800100D01*
X87034651Y-81774967D01*
X87118748Y-81726413D01*
X87187413Y-81657748D01*
X87235967Y-81573651D01*
X87258232Y-81490556D01*
X91807800Y-81490556D01*
X91807800Y-81628243D01*
X91834660Y-81763287D01*
X91834661Y-81763291D01*
X91855542Y-81813700D01*
X91887354Y-81890501D01*
X91963851Y-82004986D01*
X92061214Y-82102349D01*
X92175699Y-82178846D01*
X92260839Y-82214112D01*
X92302908Y-82231538D01*
X92302912Y-82231539D01*
X92362041Y-82243300D01*
X92437955Y-82258400D01*
X92437957Y-82258400D01*
X92575643Y-82258400D01*
X92575645Y-82258400D01*
X92664857Y-82240654D01*
X92710687Y-82231539D01*
X92710691Y-82231538D01*
X92711864Y-82231052D01*
X92837901Y-82178846D01*
X92952386Y-82102349D01*
X93049749Y-82004986D01*
X93126246Y-81890501D01*
X93178938Y-81763291D01*
X93205800Y-81628245D01*
X93205800Y-81490555D01*
X93196211Y-81442349D01*
X93178939Y-81355512D01*
X93178938Y-81355508D01*
X93161559Y-81313553D01*
X93126246Y-81228299D01*
X93049749Y-81113814D01*
X92952386Y-81016451D01*
X92837901Y-80939954D01*
X92774296Y-80913608D01*
X92710691Y-80887261D01*
X92710687Y-80887260D01*
X92609174Y-80867069D01*
X92575645Y-80860400D01*
X92437955Y-80860400D01*
X92408128Y-80866332D01*
X92302912Y-80887260D01*
X92302908Y-80887261D01*
X92212957Y-80924521D01*
X92175699Y-80939954D01*
X92175460Y-80940114D01*
X92061216Y-81016449D01*
X91963849Y-81113816D01*
X91927410Y-81168351D01*
X91887354Y-81228299D01*
X91877351Y-81252448D01*
X91834661Y-81355508D01*
X91834660Y-81355512D01*
X91807800Y-81490556D01*
X87258232Y-81490556D01*
X87261100Y-81479853D01*
X87261100Y-81382747D01*
X87235967Y-81288949D01*
X87187413Y-81204852D01*
X87118748Y-81136187D01*
X87111409Y-81131950D01*
X87039395Y-81090372D01*
X87034651Y-81087633D01*
X87034650Y-81087632D01*
X87034649Y-81087632D01*
X86940853Y-81062500D01*
X86843747Y-81062500D01*
X86749950Y-81087632D01*
X86665854Y-81136185D01*
X86597185Y-81204854D01*
X86548632Y-81288950D01*
X86529324Y-81361012D01*
X86523500Y-81382747D01*
X80738536Y-81382747D01*
X80787351Y-81369667D01*
X80871448Y-81321113D01*
X80940113Y-81252448D01*
X80988667Y-81168351D01*
X81013800Y-81074553D01*
X81013800Y-80977447D01*
X80988667Y-80883649D01*
X80940113Y-80799552D01*
X80871448Y-80730887D01*
X80859126Y-80723773D01*
X80806783Y-80693552D01*
X80787351Y-80682333D01*
X80787350Y-80682332D01*
X80787349Y-80682332D01*
X80693553Y-80657200D01*
X80596447Y-80657200D01*
X80502650Y-80682332D01*
X80418554Y-80730885D01*
X80349885Y-80799554D01*
X80301332Y-80883650D01*
X80283375Y-80950669D01*
X80276200Y-80977447D01*
X79426336Y-80977447D01*
X79424804Y-80974161D01*
X79440367Y-80916083D01*
X79450209Y-80904351D01*
X79513113Y-80841448D01*
X79561667Y-80757351D01*
X79586800Y-80663553D01*
X79586800Y-80566447D01*
X79561667Y-80472649D01*
X79513113Y-80388552D01*
X79444448Y-80319887D01*
X79360351Y-80271333D01*
X79360350Y-80271332D01*
X79360349Y-80271332D01*
X79266553Y-80246200D01*
X79169447Y-80246200D01*
X79075650Y-80271332D01*
X78991554Y-80319885D01*
X78922885Y-80388554D01*
X78874332Y-80472650D01*
X78849200Y-80566447D01*
X78849200Y-80663552D01*
X78874332Y-80757349D01*
X78922886Y-80841447D01*
X78922888Y-80841449D01*
X78967784Y-80886346D01*
X78993195Y-80940840D01*
X78977632Y-80998918D01*
X78967784Y-81010654D01*
X78904886Y-81073552D01*
X78856332Y-81157650D01*
X78837403Y-81228298D01*
X78831200Y-81251447D01*
X75659720Y-81251447D01*
X75707739Y-81203428D01*
X75773012Y-81090372D01*
X75806800Y-80964273D01*
X75806800Y-80833727D01*
X75773012Y-80707627D01*
X75773011Y-80707625D01*
X75730872Y-80634639D01*
X75730871Y-80634638D01*
X75708822Y-80596447D01*
X76085200Y-80596447D01*
X76085200Y-80693553D01*
X76088972Y-80707629D01*
X76102294Y-80757351D01*
X76110333Y-80787351D01*
X76128105Y-80818133D01*
X76141564Y-80841445D01*
X76158887Y-80871448D01*
X76227552Y-80940113D01*
X76311649Y-80988667D01*
X76405447Y-81013800D01*
X76502552Y-81013800D01*
X76502553Y-81013800D01*
X76596351Y-80988667D01*
X76680448Y-80940113D01*
X76749113Y-80871448D01*
X76797667Y-80787351D01*
X76822800Y-80693553D01*
X76822800Y-80658613D01*
X77421200Y-80658613D01*
X77421200Y-80771386D01*
X77445004Y-80860227D01*
X77450388Y-80880318D01*
X77506775Y-80977983D01*
X77586517Y-81057725D01*
X77684182Y-81114112D01*
X77793113Y-81143300D01*
X77905886Y-81143300D01*
X77905887Y-81143300D01*
X78014818Y-81114112D01*
X78112483Y-81057725D01*
X78192225Y-80977983D01*
X78248612Y-80880318D01*
X78277800Y-80771387D01*
X78277800Y-80658613D01*
X78248612Y-80549682D01*
X78192225Y-80452017D01*
X78112483Y-80372275D01*
X78014818Y-80315888D01*
X78014817Y-80315887D01*
X78014816Y-80315887D01*
X77905887Y-80286700D01*
X77793113Y-80286700D01*
X77684183Y-80315887D01*
X77586515Y-80372276D01*
X77506776Y-80452015D01*
X77450387Y-80549683D01*
X77421200Y-80658613D01*
X76822800Y-80658613D01*
X76822800Y-80596447D01*
X76797667Y-80502649D01*
X76749113Y-80418552D01*
X76680448Y-80349887D01*
X76596351Y-80301333D01*
X76596350Y-80301332D01*
X76596349Y-80301332D01*
X76502553Y-80276200D01*
X76405447Y-80276200D01*
X76311650Y-80301332D01*
X76227554Y-80349885D01*
X76158885Y-80418554D01*
X76110332Y-80502650D01*
X76097730Y-80549683D01*
X76085200Y-80596447D01*
X75708822Y-80596447D01*
X75707739Y-80594572D01*
X75615428Y-80502261D01*
X75502372Y-80436988D01*
X75502371Y-80436987D01*
X75502370Y-80436987D01*
X75376273Y-80403200D01*
X75245727Y-80403200D01*
X75119629Y-80436987D01*
X75006570Y-80502262D01*
X74914262Y-80594570D01*
X74848987Y-80707629D01*
X74815200Y-80833727D01*
X74175199Y-80833727D01*
X74148512Y-80734128D01*
X74083239Y-80621072D01*
X73990928Y-80528761D01*
X73877872Y-80463488D01*
X73877871Y-80463487D01*
X73877870Y-80463487D01*
X73751773Y-80429700D01*
X73621227Y-80429700D01*
X73495129Y-80463487D01*
X73382070Y-80528762D01*
X73289762Y-80621070D01*
X73224487Y-80734129D01*
X73193475Y-80849870D01*
X73190700Y-80860227D01*
X72097300Y-80860227D01*
X72063512Y-80734128D01*
X71998239Y-80621072D01*
X71905928Y-80528761D01*
X71792872Y-80463488D01*
X71792871Y-80463487D01*
X71792870Y-80463487D01*
X71666773Y-80429700D01*
X71536227Y-80429700D01*
X71410129Y-80463487D01*
X71297070Y-80528762D01*
X71204762Y-80621070D01*
X71139487Y-80734129D01*
X71108475Y-80849870D01*
X71105700Y-80860227D01*
X70345800Y-80860227D01*
X70345800Y-80833727D01*
X70312012Y-80707628D01*
X70246739Y-80594572D01*
X70154428Y-80502261D01*
X70041372Y-80436988D01*
X70041371Y-80436987D01*
X70041370Y-80436987D01*
X69915273Y-80403200D01*
X69784727Y-80403200D01*
X69658629Y-80436987D01*
X69545570Y-80502262D01*
X69453262Y-80594570D01*
X69387987Y-80707629D01*
X69354200Y-80833727D01*
X68961000Y-80833727D01*
X68961000Y-80391001D01*
X68961000Y-80391000D01*
X68960999Y-80391000D01*
X68883970Y-80391000D01*
X68827469Y-80370435D01*
X68821826Y-80365265D01*
X68806448Y-80349887D01*
X68722351Y-80301333D01*
X68722350Y-80301332D01*
X68722349Y-80301332D01*
X68628553Y-80276200D01*
X68531447Y-80276200D01*
X68437650Y-80301332D01*
X68353554Y-80349885D01*
X68353552Y-80349886D01*
X68353552Y-80349887D01*
X68338183Y-80365255D01*
X68283691Y-80390666D01*
X68276030Y-80391000D01*
X67628724Y-80391000D01*
X67579893Y-80374425D01*
X67579472Y-80375156D01*
X67575799Y-80373035D01*
X67575217Y-80372838D01*
X67574486Y-80372277D01*
X67542954Y-80354072D01*
X67476818Y-80315888D01*
X67476817Y-80315887D01*
X67476816Y-80315887D01*
X67367887Y-80286700D01*
X67255113Y-80286700D01*
X67146183Y-80315887D01*
X67048513Y-80372277D01*
X67047783Y-80372838D01*
X67047200Y-80373035D01*
X67043528Y-80375156D01*
X67043106Y-80374425D01*
X66994276Y-80391000D01*
X66276970Y-80391000D01*
X66220469Y-80370435D01*
X66214826Y-80365265D01*
X66169448Y-80319887D01*
X66085351Y-80271333D01*
X66085350Y-80271332D01*
X66085349Y-80271332D01*
X65991553Y-80246200D01*
X65894447Y-80246200D01*
X65800650Y-80271332D01*
X65716554Y-80319885D01*
X65716552Y-80319886D01*
X65716552Y-80319887D01*
X65671183Y-80365255D01*
X65616691Y-80390666D01*
X65609030Y-80391000D01*
X62738001Y-80391000D01*
X62738000Y-80391000D01*
X62738000Y-80391001D01*
X62738000Y-83553800D01*
X62717435Y-83610301D01*
X62665364Y-83640365D01*
X62650100Y-83641700D01*
X51440761Y-83641700D01*
X51429289Y-83640948D01*
X51399480Y-83637023D01*
X51328269Y-83627648D01*
X51306105Y-83621709D01*
X51217341Y-83584942D01*
X51197469Y-83573469D01*
X51121245Y-83514980D01*
X51105019Y-83498754D01*
X51046530Y-83422530D01*
X51035057Y-83402658D01*
X50998290Y-83313894D01*
X50992351Y-83291729D01*
X50979052Y-83190711D01*
X50978300Y-83179238D01*
X50978300Y-79467747D01*
X88770900Y-79467747D01*
X88770900Y-79564852D01*
X88796032Y-79658649D01*
X88844584Y-79742744D01*
X88844587Y-79742748D01*
X88913252Y-79811413D01*
X88997349Y-79859967D01*
X89091147Y-79885100D01*
X89188252Y-79885100D01*
X89188253Y-79885100D01*
X89282051Y-79859967D01*
X89366148Y-79811413D01*
X89434813Y-79742748D01*
X89447400Y-79720947D01*
X93865200Y-79720947D01*
X93865200Y-79818053D01*
X93890333Y-79911851D01*
X93938887Y-79995948D01*
X94007552Y-80064613D01*
X94091649Y-80113167D01*
X94185447Y-80138300D01*
X94282552Y-80138300D01*
X94282553Y-80138300D01*
X94376351Y-80113167D01*
X94460448Y-80064613D01*
X94529113Y-79995948D01*
X94577667Y-79911851D01*
X94602800Y-79818053D01*
X94602800Y-79720947D01*
X94577667Y-79627149D01*
X94529113Y-79543052D01*
X94460448Y-79474387D01*
X94448947Y-79467747D01*
X94376349Y-79425832D01*
X94282553Y-79400700D01*
X94185447Y-79400700D01*
X94091650Y-79425832D01*
X94007554Y-79474385D01*
X93938885Y-79543054D01*
X93890332Y-79627150D01*
X93881892Y-79658651D01*
X93865200Y-79720947D01*
X89447400Y-79720947D01*
X89476102Y-79671236D01*
X89479803Y-79664822D01*
X89483367Y-79658651D01*
X89508500Y-79564853D01*
X89508500Y-79467747D01*
X89483367Y-79373949D01*
X89434813Y-79289852D01*
X89366148Y-79221187D01*
X89282051Y-79172633D01*
X89282050Y-79172632D01*
X89282049Y-79172632D01*
X89188253Y-79147500D01*
X89091147Y-79147500D01*
X88997350Y-79172632D01*
X88913254Y-79221185D01*
X88844585Y-79289854D01*
X88796032Y-79373950D01*
X88770900Y-79467747D01*
X50978300Y-79467747D01*
X50978300Y-78945447D01*
X73164200Y-78945447D01*
X73164200Y-79042553D01*
X73189333Y-79136351D01*
X73237887Y-79220448D01*
X73306552Y-79289113D01*
X73390649Y-79337667D01*
X73484447Y-79362800D01*
X73581552Y-79362800D01*
X73581553Y-79362800D01*
X73675351Y-79337667D01*
X73759448Y-79289113D01*
X73828113Y-79220448D01*
X73876667Y-79136351D01*
X73901800Y-79042553D01*
X73901800Y-78945447D01*
X73876667Y-78851649D01*
X73828113Y-78767552D01*
X73759448Y-78698887D01*
X73675351Y-78650333D01*
X73675350Y-78650332D01*
X73675349Y-78650332D01*
X73650190Y-78643591D01*
X73581553Y-78625200D01*
X73484447Y-78625200D01*
X73390650Y-78650332D01*
X73306554Y-78698885D01*
X73237885Y-78767554D01*
X73189332Y-78851650D01*
X73174203Y-78908114D01*
X73164200Y-78945447D01*
X50978300Y-78945447D01*
X50978300Y-78564447D01*
X82943200Y-78564447D01*
X82943200Y-78661553D01*
X82968333Y-78755351D01*
X83016887Y-78839448D01*
X83085552Y-78908113D01*
X83169649Y-78956667D01*
X83263447Y-78981800D01*
X83360552Y-78981800D01*
X83360553Y-78981800D01*
X83454351Y-78956667D01*
X83538448Y-78908113D01*
X83607113Y-78839448D01*
X83655667Y-78755351D01*
X83680800Y-78661553D01*
X83680800Y-78564447D01*
X83655667Y-78470649D01*
X83607113Y-78386552D01*
X83538448Y-78317887D01*
X83454351Y-78269333D01*
X83454350Y-78269332D01*
X83454349Y-78269332D01*
X83360553Y-78244200D01*
X83263447Y-78244200D01*
X83169650Y-78269332D01*
X83085554Y-78317885D01*
X83016885Y-78386554D01*
X82968332Y-78470650D01*
X82949586Y-78540613D01*
X82943200Y-78564447D01*
X50978300Y-78564447D01*
X50978300Y-77379327D01*
X56628800Y-77379327D01*
X56628800Y-77509872D01*
X56648032Y-77581650D01*
X56662588Y-77635972D01*
X56727861Y-77749028D01*
X56820172Y-77841339D01*
X56933228Y-77906612D01*
X57059327Y-77940400D01*
X57189872Y-77940400D01*
X57189873Y-77940400D01*
X57315972Y-77906612D01*
X57429028Y-77841339D01*
X57521339Y-77749028D01*
X57586612Y-77635972D01*
X57613740Y-77534727D01*
X71004200Y-77534727D01*
X71004200Y-77665273D01*
X71037988Y-77791372D01*
X71103261Y-77904428D01*
X71195572Y-77996739D01*
X71308628Y-78062012D01*
X71434727Y-78095800D01*
X71565272Y-78095800D01*
X71565273Y-78095800D01*
X71691372Y-78062012D01*
X71804428Y-77996739D01*
X71896739Y-77904428D01*
X71962012Y-77791372D01*
X71993074Y-77675447D01*
X72275200Y-77675447D01*
X72275200Y-77772552D01*
X72296403Y-77851687D01*
X72300333Y-77866351D01*
X72318105Y-77897133D01*
X72348850Y-77950385D01*
X72348887Y-77950448D01*
X72417552Y-78019113D01*
X72501649Y-78067667D01*
X72595447Y-78092800D01*
X72692552Y-78092800D01*
X72692553Y-78092800D01*
X72786351Y-78067667D01*
X72805784Y-78056447D01*
X84975200Y-78056447D01*
X84975200Y-78153552D01*
X84999488Y-78244200D01*
X85000333Y-78247351D01*
X85018105Y-78278133D01*
X85042241Y-78319938D01*
X85048887Y-78331448D01*
X85117552Y-78400113D01*
X85201649Y-78448667D01*
X85295447Y-78473800D01*
X85392552Y-78473800D01*
X85392553Y-78473800D01*
X85486351Y-78448667D01*
X85570448Y-78400113D01*
X85639113Y-78331448D01*
X85687667Y-78247351D01*
X85712800Y-78153553D01*
X85712800Y-78056447D01*
X85687667Y-77962649D01*
X85639113Y-77878552D01*
X85570448Y-77809887D01*
X85538379Y-77791372D01*
X85486349Y-77761332D01*
X85392553Y-77736200D01*
X85295447Y-77736200D01*
X85201650Y-77761332D01*
X85117554Y-77809885D01*
X85048885Y-77878554D01*
X85000332Y-77962650D01*
X84975200Y-78056447D01*
X72805784Y-78056447D01*
X72870448Y-78019113D01*
X72939113Y-77950448D01*
X72987667Y-77866351D01*
X73012800Y-77772553D01*
X73012800Y-77675447D01*
X72987667Y-77581649D01*
X72939113Y-77497552D01*
X72870448Y-77428887D01*
X72862004Y-77424012D01*
X72786349Y-77380332D01*
X72692553Y-77355200D01*
X72595447Y-77355200D01*
X72501650Y-77380332D01*
X72417554Y-77428885D01*
X72348885Y-77497554D01*
X72300332Y-77581650D01*
X72275200Y-77675447D01*
X71993074Y-77675447D01*
X71995800Y-77665273D01*
X71995800Y-77534727D01*
X71962012Y-77408628D01*
X71896739Y-77295572D01*
X71804428Y-77203261D01*
X71691372Y-77137988D01*
X71691371Y-77137987D01*
X71691370Y-77137987D01*
X71622713Y-77119591D01*
X71565273Y-77104200D01*
X71434727Y-77104200D01*
X71308629Y-77137987D01*
X71195570Y-77203262D01*
X71103262Y-77295570D01*
X71037987Y-77408629D01*
X71005282Y-77530689D01*
X71004200Y-77534727D01*
X57613740Y-77534727D01*
X57620400Y-77509873D01*
X57620400Y-77379327D01*
X57586612Y-77253228D01*
X57521339Y-77140172D01*
X57429028Y-77047861D01*
X57315972Y-76982588D01*
X57315971Y-76982587D01*
X57315970Y-76982587D01*
X57290904Y-76975871D01*
X57189873Y-76948800D01*
X57059327Y-76948800D01*
X56933229Y-76982587D01*
X56820170Y-77047862D01*
X56727862Y-77140170D01*
X56662587Y-77253229D01*
X56628800Y-77379327D01*
X50978300Y-77379327D01*
X50978300Y-76156555D01*
X52564800Y-76156555D01*
X52564800Y-76294245D01*
X52569734Y-76319052D01*
X52591660Y-76429287D01*
X52591661Y-76429291D01*
X52614474Y-76484365D01*
X52644354Y-76556501D01*
X52720851Y-76670986D01*
X52818214Y-76768349D01*
X52932699Y-76844846D01*
X53033562Y-76886624D01*
X53059908Y-76897538D01*
X53059912Y-76897539D01*
X53127893Y-76911060D01*
X53194955Y-76924400D01*
X53194957Y-76924400D01*
X53332643Y-76924400D01*
X53332645Y-76924400D01*
X53421857Y-76906654D01*
X53467687Y-76897539D01*
X53467691Y-76897538D01*
X53469649Y-76896727D01*
X65798200Y-76896727D01*
X65798200Y-77027273D01*
X65810566Y-77073426D01*
X65828450Y-77140170D01*
X65831988Y-77153372D01*
X65897261Y-77266428D01*
X65989572Y-77358739D01*
X66102628Y-77424012D01*
X66228727Y-77457800D01*
X66359272Y-77457800D01*
X66359273Y-77457800D01*
X66485372Y-77424012D01*
X66598428Y-77358739D01*
X66690739Y-77266428D01*
X66756012Y-77153372D01*
X66786270Y-77040447D01*
X74561200Y-77040447D01*
X74561200Y-77137553D01*
X74561317Y-77137988D01*
X74586332Y-77231349D01*
X74634884Y-77315444D01*
X74634887Y-77315448D01*
X74703552Y-77384113D01*
X74787649Y-77432667D01*
X74881447Y-77457800D01*
X74978552Y-77457800D01*
X74978553Y-77457800D01*
X75072351Y-77432667D01*
X75156448Y-77384113D01*
X75225113Y-77315448D01*
X75237238Y-77294447D01*
X86245200Y-77294447D01*
X86245200Y-77391553D01*
X86270333Y-77485351D01*
X86284490Y-77509872D01*
X86318884Y-77569444D01*
X86318887Y-77569448D01*
X86387552Y-77638113D01*
X86471649Y-77686667D01*
X86565447Y-77711800D01*
X86662552Y-77711800D01*
X86662553Y-77711800D01*
X86756351Y-77686667D01*
X86840448Y-77638113D01*
X86899605Y-77578956D01*
X91782400Y-77578956D01*
X91782400Y-77716643D01*
X91809260Y-77851687D01*
X91809261Y-77851691D01*
X91830031Y-77901832D01*
X91861954Y-77978901D01*
X91938451Y-78093386D01*
X92035814Y-78190749D01*
X92150299Y-78267246D01*
X92246822Y-78307227D01*
X92277508Y-78319938D01*
X92277512Y-78319939D01*
X92335359Y-78331445D01*
X92412555Y-78346800D01*
X92412557Y-78346800D01*
X92550243Y-78346800D01*
X92550245Y-78346800D01*
X92639457Y-78329054D01*
X92685287Y-78319939D01*
X92685291Y-78319938D01*
X92812501Y-78267246D01*
X92917710Y-78196947D01*
X95643200Y-78196947D01*
X95643200Y-78294052D01*
X95668332Y-78387849D01*
X95716137Y-78470650D01*
X95716887Y-78471948D01*
X95785552Y-78540613D01*
X95869649Y-78589167D01*
X95963447Y-78614300D01*
X96060552Y-78614300D01*
X96060553Y-78614300D01*
X96154351Y-78589167D01*
X96238448Y-78540613D01*
X96307113Y-78471948D01*
X96355667Y-78387851D01*
X96380800Y-78294053D01*
X96380800Y-78196947D01*
X96355667Y-78103149D01*
X96307113Y-78019052D01*
X96238448Y-77950387D01*
X96221150Y-77940400D01*
X96158847Y-77904429D01*
X96154351Y-77901833D01*
X96154350Y-77901832D01*
X96154349Y-77901832D01*
X96060553Y-77876700D01*
X95963447Y-77876700D01*
X95869650Y-77901832D01*
X95785554Y-77950385D01*
X95716885Y-78019054D01*
X95668332Y-78103150D01*
X95643200Y-78196947D01*
X92917710Y-78196947D01*
X92926986Y-78190749D01*
X93024349Y-78093386D01*
X93100846Y-77978901D01*
X93153538Y-77851691D01*
X93180400Y-77716645D01*
X93180400Y-77578955D01*
X93156301Y-77457800D01*
X93153539Y-77443912D01*
X93153538Y-77443908D01*
X93142624Y-77417562D01*
X93100846Y-77316699D01*
X93024349Y-77202214D01*
X92926986Y-77104851D01*
X92812501Y-77028354D01*
X92742436Y-76999332D01*
X92685291Y-76975661D01*
X92685287Y-76975660D01*
X92583774Y-76955469D01*
X92550245Y-76948800D01*
X92412555Y-76948800D01*
X92382728Y-76954732D01*
X92277512Y-76975660D01*
X92277508Y-76975661D01*
X92187557Y-77012921D01*
X92150299Y-77028354D01*
X92121069Y-77047885D01*
X92035816Y-77104849D01*
X91938449Y-77202216D01*
X91889160Y-77275983D01*
X91861954Y-77316699D01*
X91846521Y-77353957D01*
X91809261Y-77443908D01*
X91809260Y-77443912D01*
X91791197Y-77534727D01*
X91784293Y-77569441D01*
X91782400Y-77578956D01*
X86899605Y-77578956D01*
X86909113Y-77569448D01*
X86912720Y-77563199D01*
X86931491Y-77530689D01*
X86931492Y-77530687D01*
X86943509Y-77509873D01*
X86957667Y-77485351D01*
X86982800Y-77391553D01*
X86982800Y-77294447D01*
X86957667Y-77200649D01*
X86909113Y-77116552D01*
X86840448Y-77047887D01*
X86756351Y-76999333D01*
X86756350Y-76999332D01*
X86756349Y-76999332D01*
X86662553Y-76974200D01*
X86565447Y-76974200D01*
X86471650Y-76999332D01*
X86387554Y-77047885D01*
X86318885Y-77116554D01*
X86270332Y-77200650D01*
X86252707Y-77266429D01*
X86245200Y-77294447D01*
X75237238Y-77294447D01*
X75265940Y-77244736D01*
X75269652Y-77238305D01*
X75273667Y-77231351D01*
X75298800Y-77137553D01*
X75298800Y-77040447D01*
X75273667Y-76946649D01*
X75225113Y-76862552D01*
X75156448Y-76793887D01*
X75144126Y-76786773D01*
X75072349Y-76745332D01*
X74978553Y-76720200D01*
X74881447Y-76720200D01*
X74787650Y-76745332D01*
X74703554Y-76793885D01*
X74634885Y-76862554D01*
X74586332Y-76946650D01*
X74572216Y-76999333D01*
X74561200Y-77040447D01*
X66786270Y-77040447D01*
X66789800Y-77027273D01*
X66789800Y-76896727D01*
X66756012Y-76770628D01*
X66690739Y-76657572D01*
X66598428Y-76565261D01*
X66485372Y-76499988D01*
X66485371Y-76499987D01*
X66485370Y-76499987D01*
X66365509Y-76467871D01*
X66359273Y-76466200D01*
X66228727Y-76466200D01*
X66102629Y-76499987D01*
X65989570Y-76565262D01*
X65897262Y-76657570D01*
X65831987Y-76770629D01*
X65798200Y-76896727D01*
X53469649Y-76896727D01*
X53594901Y-76844846D01*
X53709386Y-76768349D01*
X53806749Y-76670986D01*
X53883246Y-76556501D01*
X53935938Y-76429291D01*
X53938096Y-76418445D01*
X53952041Y-76348333D01*
X53962800Y-76294245D01*
X53962800Y-76156555D01*
X53960193Y-76143447D01*
X53955671Y-76120713D01*
X53953406Y-76109327D01*
X60515000Y-76109327D01*
X60515000Y-76239873D01*
X60527366Y-76286026D01*
X60544061Y-76348333D01*
X60548788Y-76365972D01*
X60614061Y-76479028D01*
X60706372Y-76571339D01*
X60819428Y-76636612D01*
X60945527Y-76670400D01*
X61076072Y-76670400D01*
X61076073Y-76670400D01*
X61202172Y-76636612D01*
X61315228Y-76571339D01*
X61407539Y-76479028D01*
X61472812Y-76365972D01*
X61506600Y-76239873D01*
X61506600Y-76109327D01*
X61485673Y-76031227D01*
X64504700Y-76031227D01*
X64504700Y-76161773D01*
X64508700Y-76176700D01*
X64530882Y-76259488D01*
X64538488Y-76287872D01*
X64603761Y-76400928D01*
X64696072Y-76493239D01*
X64809128Y-76558512D01*
X64935227Y-76592300D01*
X65065772Y-76592300D01*
X65065773Y-76592300D01*
X65191872Y-76558512D01*
X65304928Y-76493239D01*
X65397239Y-76400928D01*
X65404283Y-76388727D01*
X75831200Y-76388727D01*
X75831200Y-76519273D01*
X75841175Y-76556501D01*
X75862778Y-76637127D01*
X75864988Y-76645372D01*
X75930261Y-76758428D01*
X76022572Y-76850739D01*
X76135628Y-76916012D01*
X76261727Y-76949800D01*
X76392272Y-76949800D01*
X76392273Y-76949800D01*
X76518372Y-76916012D01*
X76631428Y-76850739D01*
X76723739Y-76758428D01*
X76789012Y-76645372D01*
X76822800Y-76519273D01*
X76822800Y-76388727D01*
X76789012Y-76262628D01*
X76723739Y-76149572D01*
X76717614Y-76143447D01*
X80268200Y-76143447D01*
X80268200Y-76240553D01*
X80269490Y-76245366D01*
X80293332Y-76334349D01*
X80341092Y-76417072D01*
X80341887Y-76418448D01*
X80410552Y-76487113D01*
X80494649Y-76535667D01*
X80588447Y-76560800D01*
X80685552Y-76560800D01*
X80685553Y-76560800D01*
X80779351Y-76535667D01*
X80863448Y-76487113D01*
X80932113Y-76418448D01*
X80980667Y-76334351D01*
X81005800Y-76240553D01*
X81005800Y-76143447D01*
X80980667Y-76049649D01*
X80947888Y-75992876D01*
X80943772Y-75969526D01*
X80937448Y-75933665D01*
X80947889Y-75904979D01*
X80949783Y-75901699D01*
X81982230Y-75901699D01*
X81982230Y-75998805D01*
X81988314Y-76021512D01*
X82005352Y-76085100D01*
X82007363Y-76092603D01*
X82055917Y-76176700D01*
X82124582Y-76245365D01*
X82208679Y-76293919D01*
X82208681Y-76293919D01*
X82208682Y-76293920D01*
X82208681Y-76293920D01*
X82230071Y-76299651D01*
X82246042Y-76303930D01*
X82295296Y-76338416D01*
X82310860Y-76396494D01*
X82285450Y-76450988D01*
X82270886Y-76465552D01*
X82222332Y-76549650D01*
X82197200Y-76643447D01*
X82197200Y-76740552D01*
X82222332Y-76834349D01*
X82269480Y-76916012D01*
X82270887Y-76918448D01*
X82339552Y-76987113D01*
X82423649Y-77035667D01*
X82517447Y-77060800D01*
X82614552Y-77060800D01*
X82614553Y-77060800D01*
X82708351Y-77035667D01*
X82792448Y-76987113D01*
X82861113Y-76918448D01*
X82909667Y-76834351D01*
X82934800Y-76740553D01*
X82934800Y-76643447D01*
X82909667Y-76549649D01*
X82861113Y-76465552D01*
X82792448Y-76396887D01*
X82791767Y-76396494D01*
X82708349Y-76348332D01*
X82671340Y-76338416D01*
X82670984Y-76338320D01*
X82621732Y-76303834D01*
X82606169Y-76245756D01*
X82631579Y-76191263D01*
X82646143Y-76176700D01*
X82694697Y-76092603D01*
X82719830Y-75998805D01*
X82719830Y-75901699D01*
X82694697Y-75807901D01*
X82646143Y-75723804D01*
X82577478Y-75655139D01*
X82493381Y-75606585D01*
X82493380Y-75606584D01*
X82493379Y-75606584D01*
X82489089Y-75605435D01*
X82482591Y-75600885D01*
X82474691Y-75600194D01*
X82458543Y-75584046D01*
X82439836Y-75570947D01*
X82437783Y-75563286D01*
X82432175Y-75557678D01*
X82430184Y-75534924D01*
X82424275Y-75512868D01*
X82424471Y-75512447D01*
X84594200Y-75512447D01*
X84594200Y-75609552D01*
X84615795Y-75690150D01*
X84619333Y-75703351D01*
X84624666Y-75712588D01*
X84665865Y-75783947D01*
X84667887Y-75787448D01*
X84736552Y-75856113D01*
X84820649Y-75904667D01*
X84914447Y-75929800D01*
X85011550Y-75929800D01*
X85011553Y-75929800D01*
X85011555Y-75929799D01*
X85016348Y-75929168D01*
X85075051Y-75942177D01*
X85111658Y-75989877D01*
X85109040Y-76049947D01*
X85089983Y-76078469D01*
X85052886Y-76115566D01*
X85004332Y-76199664D01*
X84987461Y-76262629D01*
X84979200Y-76293461D01*
X84979200Y-76390567D01*
X84986301Y-76417070D01*
X84999465Y-76466200D01*
X85004333Y-76484365D01*
X85013353Y-76499988D01*
X85033952Y-76535667D01*
X85052887Y-76568462D01*
X85121552Y-76637127D01*
X85205649Y-76685681D01*
X85299447Y-76710814D01*
X85396552Y-76710814D01*
X85396553Y-76710814D01*
X85490351Y-76685681D01*
X85574448Y-76637127D01*
X85643113Y-76568462D01*
X85691667Y-76484365D01*
X85716800Y-76390567D01*
X85716800Y-76293461D01*
X85691667Y-76199663D01*
X85643113Y-76115566D01*
X85574448Y-76046901D01*
X85530473Y-76021512D01*
X85491144Y-75998805D01*
X85490351Y-75998347D01*
X85490350Y-75998346D01*
X85490349Y-75998346D01*
X85396553Y-75973214D01*
X85299447Y-75973214D01*
X85299444Y-75973214D01*
X85294642Y-75973846D01*
X85235940Y-75960831D01*
X85199338Y-75913127D01*
X85201963Y-75853058D01*
X85221014Y-75824546D01*
X85258113Y-75787448D01*
X85306667Y-75703351D01*
X85310205Y-75690149D01*
X85316207Y-75667747D01*
X89903900Y-75667747D01*
X89903900Y-75764853D01*
X89909954Y-75787447D01*
X89929032Y-75858649D01*
X89974845Y-75938000D01*
X89977587Y-75942748D01*
X90046252Y-76011413D01*
X90130349Y-76059967D01*
X90224147Y-76085100D01*
X90321252Y-76085100D01*
X90321253Y-76085100D01*
X90415051Y-76059967D01*
X90499148Y-76011413D01*
X90567813Y-75942748D01*
X90616367Y-75858651D01*
X90636384Y-75783947D01*
X93865200Y-75783947D01*
X93865200Y-75881052D01*
X93890063Y-75973846D01*
X93890333Y-75974851D01*
X93900742Y-75992879D01*
X93937913Y-76057262D01*
X93938887Y-76058948D01*
X94007552Y-76127613D01*
X94091649Y-76176167D01*
X94185447Y-76201300D01*
X94282552Y-76201300D01*
X94282553Y-76201300D01*
X94376351Y-76176167D01*
X94460448Y-76127613D01*
X94529113Y-76058948D01*
X94577667Y-75974851D01*
X94602800Y-75881053D01*
X94602800Y-75783947D01*
X94577667Y-75690149D01*
X94529113Y-75606052D01*
X94460448Y-75537387D01*
X94376351Y-75488833D01*
X94376350Y-75488832D01*
X94376349Y-75488832D01*
X94282553Y-75463700D01*
X94185447Y-75463700D01*
X94091650Y-75488832D01*
X94007554Y-75537385D01*
X93938885Y-75606054D01*
X93890332Y-75690150D01*
X93865200Y-75783947D01*
X90636384Y-75783947D01*
X90641500Y-75764853D01*
X90641500Y-75667747D01*
X90616367Y-75573949D01*
X90567813Y-75489852D01*
X90499148Y-75421187D01*
X90494752Y-75418649D01*
X90421527Y-75376372D01*
X90415051Y-75372633D01*
X90415050Y-75372632D01*
X90415049Y-75372632D01*
X90321253Y-75347500D01*
X90224147Y-75347500D01*
X90130350Y-75372632D01*
X90046254Y-75421185D01*
X89977585Y-75489854D01*
X89929032Y-75573950D01*
X89911540Y-75639235D01*
X89903900Y-75667747D01*
X85316207Y-75667747D01*
X85323846Y-75639237D01*
X85331800Y-75609553D01*
X85331800Y-75512447D01*
X85306667Y-75418649D01*
X85258113Y-75334552D01*
X85189448Y-75265887D01*
X85187932Y-75265012D01*
X85105349Y-75217332D01*
X85011553Y-75192200D01*
X84914447Y-75192200D01*
X84820650Y-75217332D01*
X84736554Y-75265885D01*
X84667885Y-75334554D01*
X84619332Y-75418650D01*
X84594200Y-75512447D01*
X82424471Y-75512447D01*
X82427626Y-75505681D01*
X82426935Y-75497779D01*
X82440035Y-75479069D01*
X82449686Y-75458375D01*
X82457811Y-75453683D01*
X82461423Y-75448526D01*
X82489086Y-75435626D01*
X82574773Y-75412667D01*
X82658870Y-75364113D01*
X82727535Y-75295448D01*
X82776089Y-75211351D01*
X82801222Y-75117553D01*
X82801222Y-75020447D01*
X82776089Y-74926649D01*
X82727535Y-74842552D01*
X82658870Y-74773887D01*
X82574773Y-74725333D01*
X82574772Y-74725332D01*
X82574771Y-74725332D01*
X82480975Y-74700200D01*
X82383869Y-74700200D01*
X82290072Y-74725332D01*
X82205976Y-74773885D01*
X82137307Y-74842554D01*
X82088754Y-74926650D01*
X82063622Y-75020447D01*
X82063622Y-75117552D01*
X82088754Y-75211349D01*
X82120240Y-75265885D01*
X82137309Y-75295448D01*
X82205974Y-75364113D01*
X82290071Y-75412667D01*
X82294356Y-75413815D01*
X82343611Y-75448299D01*
X82359177Y-75506377D01*
X82333769Y-75560872D01*
X82294362Y-75583626D01*
X82208679Y-75606584D01*
X82124584Y-75655137D01*
X82055915Y-75723806D01*
X82007362Y-75807902D01*
X81987762Y-75881052D01*
X81982230Y-75901699D01*
X80949783Y-75901699D01*
X80974637Y-75858651D01*
X80978485Y-75851987D01*
X80980413Y-75848646D01*
X80988667Y-75834351D01*
X81013800Y-75740553D01*
X81013800Y-75643447D01*
X80988667Y-75549649D01*
X80940113Y-75465552D01*
X80871448Y-75396887D01*
X80835915Y-75376372D01*
X80787349Y-75348332D01*
X80693553Y-75323200D01*
X80596447Y-75323200D01*
X80502650Y-75348332D01*
X80418554Y-75396885D01*
X80349885Y-75465554D01*
X80301332Y-75549650D01*
X80276200Y-75643447D01*
X80276200Y-75740552D01*
X80301332Y-75834351D01*
X80301333Y-75834353D01*
X80334109Y-75891121D01*
X80344551Y-75950334D01*
X80334110Y-75979021D01*
X80293332Y-76049650D01*
X80272443Y-76127613D01*
X80268200Y-76143447D01*
X76717614Y-76143447D01*
X76631428Y-76057261D01*
X76518372Y-75991988D01*
X76518371Y-75991987D01*
X76518370Y-75991987D01*
X76392273Y-75958200D01*
X76261727Y-75958200D01*
X76135629Y-75991987D01*
X76022570Y-76057262D01*
X75930262Y-76149570D01*
X75864987Y-76262629D01*
X75842024Y-76348332D01*
X75831200Y-76388727D01*
X65404283Y-76388727D01*
X65462512Y-76287872D01*
X65496300Y-76161773D01*
X65496300Y-76031227D01*
X65462512Y-75905128D01*
X65397239Y-75792072D01*
X65304928Y-75699761D01*
X65191872Y-75634488D01*
X65191871Y-75634487D01*
X65191870Y-75634487D01*
X65065773Y-75600700D01*
X64935227Y-75600700D01*
X64809129Y-75634487D01*
X64696070Y-75699762D01*
X64603762Y-75792070D01*
X64538487Y-75905129D01*
X64513387Y-75998805D01*
X64504700Y-76031227D01*
X61485673Y-76031227D01*
X61483069Y-76021508D01*
X61472813Y-75983230D01*
X61470383Y-75979021D01*
X61407539Y-75870172D01*
X61315228Y-75777861D01*
X61202172Y-75712588D01*
X61202171Y-75712587D01*
X61202170Y-75712587D01*
X61076073Y-75678800D01*
X60945527Y-75678800D01*
X60819429Y-75712587D01*
X60706370Y-75777862D01*
X60614062Y-75870170D01*
X60548787Y-75983229D01*
X60519482Y-76092601D01*
X60515000Y-76109327D01*
X53953406Y-76109327D01*
X53935939Y-76021512D01*
X53935938Y-76021508D01*
X53920082Y-75983229D01*
X53883246Y-75894299D01*
X53806749Y-75779814D01*
X53709386Y-75682451D01*
X53594901Y-75605954D01*
X53531296Y-75579608D01*
X53467691Y-75553261D01*
X53467687Y-75553260D01*
X53366174Y-75533069D01*
X53332645Y-75526400D01*
X53194955Y-75526400D01*
X53165128Y-75532332D01*
X53059912Y-75553260D01*
X53059908Y-75553261D01*
X52969957Y-75590521D01*
X52932699Y-75605954D01*
X52927313Y-75609553D01*
X52818216Y-75682449D01*
X52720849Y-75779816D01*
X52684410Y-75834351D01*
X52644354Y-75894299D01*
X52639868Y-75905129D01*
X52591661Y-76021508D01*
X52591660Y-76021512D01*
X52571929Y-76120713D01*
X52564800Y-76156555D01*
X50978300Y-76156555D01*
X50978300Y-75119727D01*
X56679600Y-75119727D01*
X56679600Y-75250272D01*
X56712385Y-75372632D01*
X56713388Y-75376372D01*
X56778661Y-75489428D01*
X56870972Y-75581739D01*
X56984028Y-75647012D01*
X57110127Y-75680800D01*
X57240672Y-75680800D01*
X57240673Y-75680800D01*
X57366772Y-75647012D01*
X57479828Y-75581739D01*
X57572139Y-75489428D01*
X57637412Y-75376372D01*
X57671200Y-75250273D01*
X57671200Y-75142227D01*
X73140700Y-75142227D01*
X73140700Y-75272772D01*
X73173955Y-75396885D01*
X73174488Y-75398872D01*
X73239761Y-75511928D01*
X73332072Y-75604239D01*
X73445128Y-75669512D01*
X73571227Y-75703300D01*
X73701772Y-75703300D01*
X73701773Y-75703300D01*
X73827872Y-75669512D01*
X73940928Y-75604239D01*
X74033239Y-75511928D01*
X74098512Y-75398872D01*
X74132300Y-75272773D01*
X74132300Y-75142227D01*
X74098512Y-75016128D01*
X74033239Y-74903072D01*
X73940928Y-74810761D01*
X73827872Y-74745488D01*
X73827871Y-74745487D01*
X73827870Y-74745487D01*
X73798909Y-74737727D01*
X75831200Y-74737727D01*
X75831200Y-74868273D01*
X75840356Y-74902445D01*
X75864788Y-74993629D01*
X75864988Y-74994372D01*
X75930261Y-75107428D01*
X76022572Y-75199739D01*
X76135628Y-75265012D01*
X76261727Y-75298800D01*
X76392272Y-75298800D01*
X76392273Y-75298800D01*
X76518372Y-75265012D01*
X76631428Y-75199739D01*
X76723739Y-75107428D01*
X76789012Y-74994372D01*
X76822800Y-74868273D01*
X76822800Y-74737727D01*
X76793251Y-74627447D01*
X81038200Y-74627447D01*
X81038200Y-74724553D01*
X81047398Y-74758883D01*
X81063332Y-74818349D01*
X81099255Y-74880570D01*
X81111887Y-74902448D01*
X81180552Y-74971113D01*
X81264649Y-75019667D01*
X81358447Y-75044800D01*
X81455552Y-75044800D01*
X81455553Y-75044800D01*
X81549351Y-75019667D01*
X81633448Y-74971113D01*
X81702113Y-74902448D01*
X81750667Y-74818351D01*
X81775800Y-74724553D01*
X81775800Y-74627447D01*
X81750667Y-74533649D01*
X81702113Y-74449552D01*
X81633448Y-74380887D01*
X81549351Y-74332333D01*
X81549350Y-74332332D01*
X81549349Y-74332332D01*
X81455553Y-74307200D01*
X81358447Y-74307200D01*
X81264650Y-74332332D01*
X81206272Y-74366036D01*
X81206268Y-74366039D01*
X81180552Y-74380887D01*
X81111887Y-74449552D01*
X81097039Y-74475268D01*
X81097036Y-74475272D01*
X81063332Y-74533650D01*
X81055910Y-74561351D01*
X81038200Y-74627447D01*
X76793251Y-74627447D01*
X76789012Y-74611628D01*
X76723739Y-74498572D01*
X76631428Y-74406261D01*
X76518372Y-74340988D01*
X76518371Y-74340987D01*
X76518370Y-74340987D01*
X76392273Y-74307200D01*
X76261727Y-74307200D01*
X76135629Y-74340987D01*
X76022570Y-74406262D01*
X75930262Y-74498570D01*
X75864987Y-74611629D01*
X75835149Y-74722988D01*
X75831200Y-74737727D01*
X73798909Y-74737727D01*
X73701773Y-74711700D01*
X73571227Y-74711700D01*
X73445129Y-74745487D01*
X73332070Y-74810762D01*
X73239762Y-74903070D01*
X73174487Y-75016129D01*
X73140700Y-75142227D01*
X57671200Y-75142227D01*
X57671200Y-75119727D01*
X57637412Y-74993628D01*
X57572139Y-74880572D01*
X57479828Y-74788261D01*
X57366772Y-74722988D01*
X57366771Y-74722987D01*
X57366770Y-74722987D01*
X57240673Y-74689200D01*
X57110127Y-74689200D01*
X56984029Y-74722987D01*
X56870970Y-74788262D01*
X56778662Y-74880570D01*
X56713387Y-74993629D01*
X56679600Y-75119727D01*
X50978300Y-75119727D01*
X50978300Y-73413355D01*
X52539400Y-73413355D01*
X52539400Y-73551045D01*
X52543989Y-73574114D01*
X52566260Y-73686087D01*
X52566261Y-73686091D01*
X52591029Y-73745885D01*
X52618954Y-73813301D01*
X52695451Y-73927786D01*
X52792814Y-74025149D01*
X52907299Y-74101646D01*
X53008162Y-74143424D01*
X53034508Y-74154338D01*
X53034512Y-74154339D01*
X53102493Y-74167860D01*
X53169555Y-74181200D01*
X53169557Y-74181200D01*
X53307243Y-74181200D01*
X53307245Y-74181200D01*
X53396457Y-74163454D01*
X53442287Y-74154339D01*
X53442291Y-74154338D01*
X53454548Y-74149261D01*
X53569501Y-74101646D01*
X53683986Y-74025149D01*
X53733408Y-73975727D01*
X78752200Y-73975727D01*
X78752200Y-74106272D01*
X78779238Y-74207183D01*
X78785988Y-74232372D01*
X78851261Y-74345428D01*
X78943572Y-74437739D01*
X79056628Y-74503012D01*
X79182727Y-74536800D01*
X79313272Y-74536800D01*
X79313273Y-74536800D01*
X79439372Y-74503012D01*
X79552428Y-74437739D01*
X79644739Y-74345428D01*
X79710012Y-74232372D01*
X79743800Y-74106273D01*
X79743800Y-73992447D01*
X80403200Y-73992447D01*
X80403200Y-74089552D01*
X80427756Y-74181200D01*
X80428333Y-74183351D01*
X80476887Y-74267448D01*
X80545552Y-74336113D01*
X80629649Y-74384667D01*
X80723447Y-74409800D01*
X80820552Y-74409800D01*
X80820553Y-74409800D01*
X80914351Y-74384667D01*
X80998448Y-74336113D01*
X81067113Y-74267448D01*
X81115667Y-74183351D01*
X81140800Y-74089553D01*
X81140800Y-73992447D01*
X81115667Y-73898649D01*
X81067113Y-73814552D01*
X80998448Y-73745887D01*
X80985562Y-73738447D01*
X88785200Y-73738447D01*
X88785200Y-73835553D01*
X88788972Y-73849629D01*
X88810332Y-73929349D01*
X88837108Y-73975727D01*
X88858887Y-74013448D01*
X88927552Y-74082113D01*
X89011649Y-74130667D01*
X89105447Y-74155800D01*
X89202552Y-74155800D01*
X89202553Y-74155800D01*
X89296351Y-74130667D01*
X89380448Y-74082113D01*
X89449113Y-74013448D01*
X89497667Y-73929351D01*
X89522800Y-73835553D01*
X89522800Y-73738447D01*
X89497667Y-73644649D01*
X89449113Y-73560552D01*
X89380448Y-73491887D01*
X89296351Y-73443333D01*
X89296350Y-73443332D01*
X89296349Y-73443332D01*
X89202553Y-73418200D01*
X89105447Y-73418200D01*
X89011650Y-73443332D01*
X88927554Y-73491885D01*
X88858885Y-73560554D01*
X88810332Y-73644650D01*
X88792439Y-73711429D01*
X88785200Y-73738447D01*
X80985562Y-73738447D01*
X80914351Y-73697333D01*
X80914350Y-73697332D01*
X80914349Y-73697332D01*
X80820553Y-73672200D01*
X80723447Y-73672200D01*
X80629650Y-73697332D01*
X80545554Y-73745885D01*
X80476885Y-73814554D01*
X80428332Y-73898650D01*
X80403200Y-73992447D01*
X79743800Y-73992447D01*
X79743800Y-73975727D01*
X79710012Y-73849628D01*
X79644739Y-73736572D01*
X79552428Y-73644261D01*
X79439372Y-73578988D01*
X79439371Y-73578987D01*
X79439370Y-73578987D01*
X79313273Y-73545200D01*
X79182727Y-73545200D01*
X79056629Y-73578987D01*
X78943570Y-73644262D01*
X78851262Y-73736570D01*
X78785987Y-73849629D01*
X78752200Y-73975727D01*
X53733408Y-73975727D01*
X53781349Y-73927786D01*
X53857846Y-73813301D01*
X53910538Y-73686091D01*
X53937400Y-73551045D01*
X53937400Y-73413355D01*
X53932884Y-73390649D01*
X53925418Y-73353113D01*
X53923153Y-73341727D01*
X60540400Y-73341727D01*
X60540400Y-73472272D01*
X60573919Y-73597370D01*
X60574188Y-73598372D01*
X60639461Y-73711428D01*
X60731772Y-73803739D01*
X60844828Y-73869012D01*
X60970927Y-73902800D01*
X61101472Y-73902800D01*
X61101473Y-73902800D01*
X61227572Y-73869012D01*
X61340628Y-73803739D01*
X61432939Y-73711428D01*
X61498212Y-73598372D01*
X61532000Y-73472273D01*
X61532000Y-73341727D01*
X61531732Y-73340727D01*
X63385200Y-73340727D01*
X63385200Y-73471273D01*
X63394356Y-73505445D01*
X63414061Y-73578987D01*
X63418988Y-73597372D01*
X63484261Y-73710428D01*
X63576572Y-73802739D01*
X63689628Y-73868012D01*
X63815727Y-73901800D01*
X63946272Y-73901800D01*
X63946273Y-73901800D01*
X64072372Y-73868012D01*
X64185428Y-73802739D01*
X64277739Y-73710428D01*
X64343012Y-73597372D01*
X64373270Y-73484447D01*
X70370200Y-73484447D01*
X70370200Y-73581552D01*
X70394488Y-73672200D01*
X70395333Y-73675351D01*
X70443887Y-73759448D01*
X70512552Y-73828113D01*
X70596649Y-73876667D01*
X70690447Y-73901800D01*
X70787552Y-73901800D01*
X70787553Y-73901800D01*
X70881351Y-73876667D01*
X70965448Y-73828113D01*
X71034113Y-73759448D01*
X71082667Y-73675351D01*
X71107800Y-73581553D01*
X71107800Y-73484447D01*
X71082667Y-73390649D01*
X71034113Y-73306552D01*
X70965448Y-73237887D01*
X70952562Y-73230447D01*
X74561200Y-73230447D01*
X74561200Y-73327553D01*
X74569926Y-73360120D01*
X74585488Y-73418200D01*
X74586333Y-73421351D01*
X74600205Y-73445377D01*
X74615732Y-73472272D01*
X74634887Y-73505448D01*
X74703552Y-73574113D01*
X74787649Y-73622667D01*
X74881447Y-73647800D01*
X74978552Y-73647800D01*
X74978553Y-73647800D01*
X75072351Y-73622667D01*
X75156448Y-73574113D01*
X75225113Y-73505448D01*
X75273667Y-73421351D01*
X75298800Y-73327553D01*
X75298800Y-73230447D01*
X75273667Y-73136649D01*
X75225113Y-73052552D01*
X75156448Y-72983887D01*
X75072351Y-72935333D01*
X75072350Y-72935332D01*
X75072349Y-72935332D01*
X74978553Y-72910200D01*
X74881447Y-72910200D01*
X74787650Y-72935332D01*
X74703554Y-72983885D01*
X74634885Y-73052554D01*
X74586332Y-73136650D01*
X74572216Y-73189333D01*
X74561200Y-73230447D01*
X70952562Y-73230447D01*
X70926896Y-73215629D01*
X70912133Y-73207105D01*
X70881351Y-73189333D01*
X70881350Y-73189332D01*
X70881349Y-73189332D01*
X70787553Y-73164200D01*
X70690447Y-73164200D01*
X70596650Y-73189332D01*
X70512554Y-73237885D01*
X70443885Y-73306554D01*
X70395332Y-73390650D01*
X70370200Y-73484447D01*
X64373270Y-73484447D01*
X64376800Y-73471273D01*
X64376800Y-73340727D01*
X64343012Y-73214628D01*
X64277739Y-73101572D01*
X64185428Y-73009261D01*
X64072372Y-72943988D01*
X64072371Y-72943987D01*
X64072370Y-72943987D01*
X63946273Y-72910200D01*
X63815727Y-72910200D01*
X63689629Y-72943987D01*
X63576570Y-73009262D01*
X63484262Y-73101570D01*
X63418987Y-73214629D01*
X63391822Y-73316014D01*
X63385200Y-73340727D01*
X61531732Y-73340727D01*
X61498212Y-73215628D01*
X61432939Y-73102572D01*
X61340628Y-73010261D01*
X61227572Y-72944988D01*
X61227571Y-72944987D01*
X61227570Y-72944987D01*
X61101473Y-72911200D01*
X60970927Y-72911200D01*
X60844829Y-72944987D01*
X60731770Y-73010262D01*
X60639462Y-73102570D01*
X60574187Y-73215629D01*
X60540400Y-73341727D01*
X53923153Y-73341727D01*
X53910539Y-73278312D01*
X53910538Y-73278308D01*
X53899624Y-73251962D01*
X53857846Y-73151099D01*
X53781349Y-73036614D01*
X53683986Y-72939251D01*
X53569501Y-72862754D01*
X53488741Y-72829302D01*
X53442291Y-72810061D01*
X53442287Y-72810060D01*
X53340774Y-72789869D01*
X53307245Y-72783200D01*
X53169555Y-72783200D01*
X53139728Y-72789132D01*
X53034512Y-72810060D01*
X53034508Y-72810061D01*
X52944557Y-72847321D01*
X52907299Y-72862754D01*
X52869137Y-72888253D01*
X52792816Y-72939249D01*
X52695449Y-73036616D01*
X52660139Y-73089462D01*
X52618954Y-73151099D01*
X52603521Y-73188357D01*
X52566261Y-73278308D01*
X52566260Y-73278312D01*
X52543916Y-73390649D01*
X52539400Y-73413355D01*
X50978300Y-73413355D01*
X50978300Y-72324727D01*
X56806600Y-72324727D01*
X56806600Y-72455273D01*
X56812462Y-72477149D01*
X56834155Y-72558113D01*
X56840388Y-72581372D01*
X56905661Y-72694428D01*
X56997972Y-72786739D01*
X57111028Y-72852012D01*
X57237127Y-72885800D01*
X57367672Y-72885800D01*
X57367673Y-72885800D01*
X57493772Y-72852012D01*
X57606828Y-72786739D01*
X57699139Y-72694428D01*
X57764412Y-72581372D01*
X57798200Y-72455273D01*
X57798200Y-72324727D01*
X57768651Y-72214447D01*
X83705200Y-72214447D01*
X83705200Y-72311552D01*
X83729681Y-72402921D01*
X83730333Y-72405351D01*
X83778887Y-72489448D01*
X83847552Y-72558113D01*
X83931649Y-72606667D01*
X84025447Y-72631800D01*
X84122552Y-72631800D01*
X84122553Y-72631800D01*
X84216351Y-72606667D01*
X84300448Y-72558113D01*
X84369113Y-72489448D01*
X84417667Y-72405351D01*
X84442800Y-72311553D01*
X84442800Y-72214447D01*
X84417667Y-72120649D01*
X84369113Y-72036552D01*
X84300448Y-71967887D01*
X84287842Y-71960609D01*
X84216349Y-71919332D01*
X84122553Y-71894200D01*
X84025447Y-71894200D01*
X83931650Y-71919332D01*
X83847554Y-71967885D01*
X83778885Y-72036554D01*
X83730332Y-72120650D01*
X83705200Y-72214447D01*
X57768651Y-72214447D01*
X57764412Y-72198628D01*
X57699139Y-72085572D01*
X57606828Y-71993261D01*
X57493772Y-71927988D01*
X57493771Y-71927987D01*
X57493770Y-71927987D01*
X57367673Y-71894200D01*
X57237127Y-71894200D01*
X57111029Y-71927987D01*
X56997970Y-71993262D01*
X56905662Y-72085570D01*
X56840387Y-72198629D01*
X56812927Y-72301113D01*
X56806600Y-72324727D01*
X50978300Y-72324727D01*
X50978300Y-71076556D01*
X52514000Y-71076556D01*
X52514000Y-71214243D01*
X52540860Y-71349287D01*
X52540861Y-71349291D01*
X52566216Y-71410500D01*
X52593554Y-71476501D01*
X52670051Y-71590986D01*
X52767414Y-71688349D01*
X52881899Y-71764846D01*
X52982762Y-71806624D01*
X53009108Y-71817538D01*
X53009112Y-71817539D01*
X53062138Y-71828086D01*
X53144155Y-71844400D01*
X53144157Y-71844400D01*
X53281843Y-71844400D01*
X53281845Y-71844400D01*
X53371057Y-71826654D01*
X53416887Y-71817539D01*
X53416891Y-71817538D01*
X53544101Y-71764846D01*
X53595133Y-71730747D01*
X88633900Y-71730747D01*
X88633900Y-71827853D01*
X88633963Y-71828087D01*
X88659032Y-71921649D01*
X88704568Y-72000520D01*
X88707587Y-72005748D01*
X88776252Y-72074413D01*
X88860349Y-72122967D01*
X88954147Y-72148100D01*
X89051252Y-72148100D01*
X89051253Y-72148100D01*
X89145051Y-72122967D01*
X89229148Y-72074413D01*
X89297813Y-72005748D01*
X89346367Y-71921651D01*
X89371500Y-71827853D01*
X89371500Y-71730747D01*
X89346367Y-71636949D01*
X89297813Y-71552852D01*
X89229148Y-71484187D01*
X89145051Y-71435633D01*
X89145050Y-71435632D01*
X89145049Y-71435632D01*
X89051253Y-71410500D01*
X88954147Y-71410500D01*
X88860350Y-71435632D01*
X88776254Y-71484185D01*
X88707585Y-71552854D01*
X88659032Y-71636950D01*
X88645260Y-71688349D01*
X88633900Y-71730747D01*
X53595133Y-71730747D01*
X53658586Y-71688349D01*
X53755949Y-71590986D01*
X53832446Y-71476501D01*
X53885138Y-71349291D01*
X53912000Y-71214245D01*
X53912000Y-71080127D01*
X60489600Y-71080127D01*
X60489600Y-71210673D01*
X60523388Y-71336772D01*
X60588661Y-71449828D01*
X60680972Y-71542139D01*
X60794028Y-71607412D01*
X60920127Y-71641200D01*
X61050673Y-71641200D01*
X61176772Y-71607412D01*
X61289828Y-71542139D01*
X61382139Y-71449828D01*
X61447412Y-71336772D01*
X61481200Y-71210673D01*
X61481200Y-71080127D01*
X61447412Y-70954028D01*
X61382139Y-70840972D01*
X61289828Y-70748661D01*
X61176772Y-70683388D01*
X61176771Y-70683387D01*
X61176770Y-70683387D01*
X61050673Y-70649600D01*
X60920127Y-70649600D01*
X60794029Y-70683387D01*
X60680970Y-70748662D01*
X60588662Y-70840970D01*
X60523387Y-70954029D01*
X60490557Y-71076555D01*
X60489600Y-71080127D01*
X53912000Y-71080127D01*
X53912000Y-71076555D01*
X53903127Y-71031948D01*
X53885139Y-70941512D01*
X53885138Y-70941508D01*
X53870891Y-70907113D01*
X53832446Y-70814299D01*
X53755949Y-70699814D01*
X53658586Y-70602451D01*
X53544101Y-70525954D01*
X53470651Y-70495530D01*
X53416891Y-70473261D01*
X53416887Y-70473260D01*
X53315374Y-70453069D01*
X53281845Y-70446400D01*
X53144155Y-70446400D01*
X53114328Y-70452332D01*
X53009112Y-70473260D01*
X53009108Y-70473261D01*
X52919157Y-70510521D01*
X52881899Y-70525954D01*
X52851226Y-70546449D01*
X52767416Y-70602449D01*
X52670049Y-70699816D01*
X52633610Y-70754351D01*
X52593554Y-70814299D01*
X52583551Y-70838448D01*
X52540861Y-70941508D01*
X52540860Y-70941512D01*
X52514000Y-71076556D01*
X50978300Y-71076556D01*
X50978300Y-69759327D01*
X56755800Y-69759327D01*
X56755800Y-69889873D01*
X56789588Y-70015972D01*
X56854861Y-70129028D01*
X56947172Y-70221339D01*
X57060228Y-70286612D01*
X57186327Y-70320400D01*
X57316872Y-70320400D01*
X57316873Y-70320400D01*
X57442972Y-70286612D01*
X57556028Y-70221339D01*
X57648339Y-70129028D01*
X57713612Y-70015972D01*
X57732153Y-69946773D01*
X57737064Y-69928447D01*
X89928200Y-69928447D01*
X89928200Y-70025553D01*
X89953333Y-70119351D01*
X90001887Y-70203448D01*
X90070552Y-70272113D01*
X90154649Y-70320667D01*
X90248447Y-70345800D01*
X90345552Y-70345800D01*
X90345553Y-70345800D01*
X90439351Y-70320667D01*
X90523448Y-70272113D01*
X90592113Y-70203448D01*
X90640667Y-70119351D01*
X90665800Y-70025553D01*
X90665800Y-69928447D01*
X90640667Y-69834649D01*
X90592113Y-69750552D01*
X90523448Y-69681887D01*
X90507014Y-69672399D01*
X90445898Y-69637113D01*
X90439351Y-69633333D01*
X90439350Y-69633332D01*
X90439349Y-69633332D01*
X90345553Y-69608200D01*
X90248447Y-69608200D01*
X90154650Y-69633332D01*
X90070554Y-69681885D01*
X90001885Y-69750554D01*
X89953332Y-69834650D01*
X89938536Y-69889871D01*
X89928200Y-69928447D01*
X57737064Y-69928447D01*
X57744704Y-69899936D01*
X57745792Y-69895873D01*
X57747400Y-69889873D01*
X57747400Y-69759327D01*
X57713612Y-69633228D01*
X57648339Y-69520172D01*
X57556028Y-69427861D01*
X57442972Y-69362588D01*
X57442971Y-69362587D01*
X57442970Y-69362587D01*
X57316873Y-69328800D01*
X57186327Y-69328800D01*
X57060229Y-69362587D01*
X56947170Y-69427862D01*
X56854862Y-69520170D01*
X56789587Y-69633229D01*
X56758151Y-69750552D01*
X56755800Y-69759327D01*
X50978300Y-69759327D01*
X50978300Y-68587355D01*
X52488600Y-68587355D01*
X52488600Y-68725045D01*
X52493189Y-68748114D01*
X52515460Y-68860087D01*
X52515461Y-68860091D01*
X52536064Y-68909829D01*
X52568154Y-68987301D01*
X52644651Y-69101786D01*
X52742014Y-69199149D01*
X52856499Y-69275646D01*
X52957362Y-69317424D01*
X52983708Y-69328338D01*
X52983712Y-69328339D01*
X53051693Y-69341860D01*
X53118755Y-69355200D01*
X53118757Y-69355200D01*
X53256443Y-69355200D01*
X53256445Y-69355200D01*
X53345657Y-69337454D01*
X53391487Y-69328339D01*
X53391491Y-69328338D01*
X53475725Y-69293447D01*
X88150200Y-69293447D01*
X88150200Y-69390553D01*
X88150703Y-69392429D01*
X88175332Y-69484349D01*
X88196014Y-69520172D01*
X88223887Y-69568448D01*
X88292552Y-69637113D01*
X88376649Y-69685667D01*
X88470447Y-69710800D01*
X88567552Y-69710800D01*
X88567553Y-69710800D01*
X88661351Y-69685667D01*
X88745448Y-69637113D01*
X88814113Y-69568448D01*
X88862667Y-69484351D01*
X88887800Y-69390553D01*
X88887800Y-69293447D01*
X88862667Y-69199649D01*
X88814113Y-69115552D01*
X88745448Y-69046887D01*
X88661351Y-68998333D01*
X88661350Y-68998332D01*
X88661349Y-68998332D01*
X88567553Y-68973200D01*
X88470447Y-68973200D01*
X88376650Y-68998332D01*
X88292554Y-69046885D01*
X88223885Y-69115554D01*
X88175332Y-69199650D01*
X88167813Y-69227714D01*
X88150200Y-69293447D01*
X53475725Y-69293447D01*
X53518701Y-69275646D01*
X53633186Y-69199149D01*
X53730549Y-69101786D01*
X53807046Y-68987301D01*
X53859738Y-68860091D01*
X53886600Y-68725045D01*
X53886600Y-68587355D01*
X53877206Y-68540127D01*
X60540400Y-68540127D01*
X60540400Y-68670673D01*
X60542751Y-68679448D01*
X60574159Y-68796667D01*
X60574188Y-68796772D01*
X60639461Y-68909828D01*
X60731772Y-69002139D01*
X60844828Y-69067412D01*
X60970927Y-69101200D01*
X61101472Y-69101200D01*
X61101473Y-69101200D01*
X61227572Y-69067412D01*
X61340628Y-69002139D01*
X61432939Y-68909828D01*
X61498212Y-68796772D01*
X61532000Y-68670673D01*
X61532000Y-68641727D01*
X75577200Y-68641727D01*
X75577200Y-68772273D01*
X75589566Y-68818426D01*
X75610520Y-68896628D01*
X75610988Y-68898372D01*
X75676261Y-69011428D01*
X75768572Y-69103739D01*
X75881628Y-69169012D01*
X76007727Y-69202800D01*
X76138273Y-69202800D01*
X76264372Y-69169012D01*
X76377428Y-69103739D01*
X76469739Y-69011428D01*
X76535012Y-68898372D01*
X76568800Y-68772273D01*
X76568800Y-68658447D01*
X77990200Y-68658447D01*
X77990200Y-68755553D01*
X78015333Y-68849351D01*
X78063887Y-68933448D01*
X78132552Y-69002113D01*
X78216649Y-69050667D01*
X78310447Y-69075800D01*
X78407552Y-69075800D01*
X78407553Y-69075800D01*
X78501351Y-69050667D01*
X78585448Y-69002113D01*
X78654113Y-68933448D01*
X78702667Y-68849351D01*
X78727800Y-68755553D01*
X78727800Y-68658447D01*
X78702667Y-68564649D01*
X78654113Y-68480552D01*
X78585448Y-68411887D01*
X78572562Y-68404447D01*
X80530200Y-68404447D01*
X80530200Y-68501553D01*
X80533972Y-68515629D01*
X80555332Y-68595349D01*
X80598820Y-68670673D01*
X80603887Y-68679448D01*
X80672552Y-68748113D01*
X80756649Y-68796667D01*
X80850447Y-68821800D01*
X80947552Y-68821800D01*
X80947553Y-68821800D01*
X81041351Y-68796667D01*
X81125448Y-68748113D01*
X81194113Y-68679448D01*
X81242667Y-68595351D01*
X81267800Y-68501553D01*
X81267800Y-68404447D01*
X81242667Y-68310649D01*
X81194113Y-68226552D01*
X81125448Y-68157887D01*
X81112842Y-68150609D01*
X81048137Y-68113251D01*
X81041351Y-68109333D01*
X81041350Y-68109332D01*
X81041349Y-68109332D01*
X81025759Y-68105155D01*
X80947553Y-68084200D01*
X80850447Y-68084200D01*
X80756650Y-68109332D01*
X80672554Y-68157885D01*
X80603885Y-68226554D01*
X80555332Y-68310650D01*
X80539516Y-68369678D01*
X80530200Y-68404447D01*
X78572562Y-68404447D01*
X78501351Y-68363333D01*
X78501350Y-68363332D01*
X78501349Y-68363332D01*
X78407553Y-68338200D01*
X78310447Y-68338200D01*
X78216650Y-68363332D01*
X78132554Y-68411885D01*
X78063885Y-68480554D01*
X78015332Y-68564650D01*
X77993443Y-68646344D01*
X77990200Y-68658447D01*
X76568800Y-68658447D01*
X76568800Y-68641727D01*
X76535012Y-68515628D01*
X76469739Y-68402572D01*
X76377428Y-68310261D01*
X76264372Y-68244988D01*
X76264371Y-68244987D01*
X76264370Y-68244987D01*
X76138273Y-68211200D01*
X76007727Y-68211200D01*
X75881629Y-68244987D01*
X75768570Y-68310262D01*
X75676262Y-68402570D01*
X75610987Y-68515629D01*
X75581417Y-68625988D01*
X75577200Y-68641727D01*
X61532000Y-68641727D01*
X61532000Y-68540127D01*
X61498212Y-68414028D01*
X61432939Y-68300972D01*
X61340628Y-68208661D01*
X61227572Y-68143388D01*
X61227571Y-68143387D01*
X61227570Y-68143387D01*
X61101473Y-68109600D01*
X60970927Y-68109600D01*
X60844829Y-68143387D01*
X60731770Y-68208662D01*
X60639462Y-68300970D01*
X60574187Y-68414029D01*
X60546964Y-68515628D01*
X60540400Y-68540127D01*
X53877206Y-68540127D01*
X53869533Y-68501552D01*
X53859739Y-68452312D01*
X53859738Y-68452308D01*
X53843882Y-68414029D01*
X53807046Y-68325099D01*
X53730549Y-68210614D01*
X53633186Y-68113251D01*
X53518701Y-68036754D01*
X53492765Y-68026011D01*
X84014387Y-68026011D01*
X84014387Y-68123116D01*
X84039519Y-68216913D01*
X84088049Y-68300970D01*
X84088074Y-68301012D01*
X84156739Y-68369677D01*
X84240836Y-68418231D01*
X84334634Y-68443364D01*
X84431739Y-68443364D01*
X84431740Y-68443364D01*
X84525538Y-68418231D01*
X84609635Y-68369677D01*
X84678300Y-68301012D01*
X84726854Y-68216915D01*
X84751987Y-68123117D01*
X84751987Y-68026011D01*
X84740746Y-67984060D01*
X84726854Y-67932212D01*
X84726851Y-67932207D01*
X84706205Y-67896447D01*
X88658200Y-67896447D01*
X88658200Y-67993552D01*
X88682488Y-68084200D01*
X88683333Y-68087351D01*
X88731887Y-68171448D01*
X88800552Y-68240113D01*
X88884649Y-68288667D01*
X88978447Y-68313800D01*
X89075552Y-68313800D01*
X89075553Y-68313800D01*
X89169351Y-68288667D01*
X89253448Y-68240113D01*
X89322113Y-68171448D01*
X89370667Y-68087351D01*
X89395800Y-67993553D01*
X89395800Y-67896447D01*
X89370667Y-67802649D01*
X89322113Y-67718552D01*
X89253448Y-67649887D01*
X89169351Y-67601333D01*
X89169350Y-67601332D01*
X89169349Y-67601332D01*
X89075553Y-67576200D01*
X88978447Y-67576200D01*
X88884650Y-67601332D01*
X88800554Y-67649885D01*
X88731885Y-67718554D01*
X88683332Y-67802650D01*
X88658200Y-67896447D01*
X84706205Y-67896447D01*
X84678304Y-67848122D01*
X84678302Y-67848119D01*
X84678301Y-67848118D01*
X84678300Y-67848116D01*
X84609635Y-67779451D01*
X84596750Y-67772012D01*
X84525536Y-67730896D01*
X84431740Y-67705764D01*
X84334634Y-67705764D01*
X84240837Y-67730896D01*
X84156741Y-67779449D01*
X84088072Y-67848118D01*
X84039519Y-67932214D01*
X84014387Y-68026011D01*
X53492765Y-68026011D01*
X53455096Y-68010408D01*
X53391491Y-67984061D01*
X53391487Y-67984060D01*
X53289974Y-67963869D01*
X53256445Y-67957200D01*
X53118755Y-67957200D01*
X53088928Y-67963132D01*
X52983712Y-67984060D01*
X52983708Y-67984061D01*
X52901565Y-68018087D01*
X52856499Y-68036754D01*
X52856498Y-68036755D01*
X52742016Y-68113249D01*
X52644649Y-68210616D01*
X52619969Y-68247553D01*
X52568154Y-68325099D01*
X52552721Y-68362357D01*
X52515461Y-68452308D01*
X52515460Y-68452312D01*
X52497994Y-68540127D01*
X52488600Y-68587355D01*
X50978300Y-68587355D01*
X50978300Y-67244727D01*
X56781200Y-67244727D01*
X56781200Y-67375273D01*
X56814988Y-67501372D01*
X56880261Y-67614428D01*
X56972572Y-67706739D01*
X57085628Y-67772012D01*
X57211727Y-67805800D01*
X57342272Y-67805800D01*
X57342273Y-67805800D01*
X57468372Y-67772012D01*
X57581428Y-67706739D01*
X57673739Y-67614428D01*
X57739012Y-67501372D01*
X57772800Y-67375273D01*
X57772800Y-67244727D01*
X57739012Y-67118628D01*
X57673739Y-67005572D01*
X57581428Y-66913261D01*
X57566681Y-66904747D01*
X90665900Y-66904747D01*
X90665900Y-67001853D01*
X90672222Y-67025448D01*
X90690620Y-67094113D01*
X90691033Y-67095651D01*
X90739587Y-67179748D01*
X90808252Y-67248413D01*
X90892349Y-67296967D01*
X90986147Y-67322100D01*
X91083252Y-67322100D01*
X91083253Y-67322100D01*
X91177051Y-67296967D01*
X91261148Y-67248413D01*
X91261148Y-67248412D01*
X91266138Y-67245532D01*
X91267034Y-67247084D01*
X91317320Y-67231220D01*
X91372874Y-67254221D01*
X91400646Y-67307550D01*
X91401400Y-67319037D01*
X91401400Y-67376342D01*
X91427283Y-67506473D01*
X91427285Y-67506479D01*
X91427286Y-67506482D01*
X91478064Y-67629069D01*
X91478065Y-67629070D01*
X91478065Y-67629071D01*
X91551777Y-67739390D01*
X91551778Y-67739391D01*
X91551781Y-67739395D01*
X91645605Y-67833219D01*
X91645608Y-67833221D01*
X91645609Y-67833222D01*
X91703516Y-67871914D01*
X91739070Y-67920403D01*
X91735138Y-67980401D01*
X91703516Y-68018086D01*
X91645609Y-68056777D01*
X91551777Y-68150609D01*
X91478065Y-68260928D01*
X91478065Y-68260929D01*
X91427286Y-68383518D01*
X91427283Y-68383526D01*
X91407985Y-68480552D01*
X91401400Y-68513656D01*
X91401400Y-68646344D01*
X91406239Y-68670672D01*
X91427283Y-68776473D01*
X91427285Y-68776479D01*
X91427286Y-68776482D01*
X91478064Y-68899069D01*
X91478065Y-68899070D01*
X91478065Y-68899071D01*
X91551777Y-69009390D01*
X91551778Y-69009391D01*
X91551781Y-69009395D01*
X91645605Y-69103219D01*
X91645608Y-69103221D01*
X91645609Y-69103222D01*
X91700768Y-69140077D01*
X91755931Y-69176936D01*
X91804423Y-69197022D01*
X91848753Y-69237644D01*
X91856600Y-69297257D01*
X91824293Y-69347967D01*
X91804424Y-69359439D01*
X91744999Y-69384054D01*
X91744996Y-69384055D01*
X91744996Y-69384056D01*
X91630516Y-69460549D01*
X91533149Y-69557916D01*
X91482827Y-69633228D01*
X91456654Y-69672399D01*
X91441221Y-69709657D01*
X91403961Y-69799608D01*
X91403960Y-69799612D01*
X91377100Y-69934656D01*
X91377100Y-70072343D01*
X91403960Y-70207387D01*
X91403961Y-70207391D01*
X91429205Y-70268333D01*
X91456654Y-70334601D01*
X91533151Y-70449086D01*
X91601071Y-70517006D01*
X91626482Y-70571499D01*
X91610919Y-70629577D01*
X91601071Y-70641314D01*
X91551783Y-70690602D01*
X91551777Y-70690609D01*
X91478065Y-70800928D01*
X91478065Y-70800929D01*
X91427286Y-70923518D01*
X91427283Y-70923526D01*
X91404602Y-71037555D01*
X91403435Y-71043428D01*
X91401400Y-71053657D01*
X91401400Y-71186342D01*
X91427283Y-71316473D01*
X91427285Y-71316479D01*
X91427286Y-71316482D01*
X91478064Y-71439069D01*
X91478065Y-71439070D01*
X91478065Y-71439071D01*
X91551777Y-71549390D01*
X91551778Y-71549391D01*
X91551781Y-71549395D01*
X91645605Y-71643219D01*
X91645608Y-71643221D01*
X91645609Y-71643222D01*
X91703516Y-71681914D01*
X91739070Y-71730403D01*
X91735138Y-71790401D01*
X91703516Y-71828086D01*
X91645609Y-71866777D01*
X91551777Y-71960609D01*
X91478065Y-72070928D01*
X91478065Y-72070929D01*
X91478064Y-72070931D01*
X91457470Y-72120649D01*
X91427286Y-72193518D01*
X91427283Y-72193526D01*
X91401400Y-72323657D01*
X91401400Y-72390584D01*
X91380835Y-72447085D01*
X91328764Y-72477149D01*
X91269550Y-72466708D01*
X91233174Y-72445706D01*
X91201351Y-72427333D01*
X91201350Y-72427332D01*
X91201349Y-72427332D01*
X91107553Y-72402200D01*
X91010447Y-72402200D01*
X90916650Y-72427332D01*
X90832554Y-72475885D01*
X90763885Y-72544554D01*
X90715332Y-72628650D01*
X90690200Y-72722447D01*
X90690200Y-72819552D01*
X90715297Y-72913219D01*
X90715333Y-72913351D01*
X90730285Y-72939249D01*
X90757816Y-72986934D01*
X90763887Y-72997448D01*
X90832552Y-73066113D01*
X90916649Y-73114667D01*
X91010447Y-73139800D01*
X91107552Y-73139800D01*
X91107553Y-73139800D01*
X91201351Y-73114667D01*
X91285448Y-73066113D01*
X91354113Y-72997448D01*
X91402667Y-72913351D01*
X91402703Y-72913219D01*
X91414629Y-72868708D01*
X91449116Y-72819454D01*
X91507194Y-72803891D01*
X91561688Y-72829302D01*
X91645605Y-72913219D01*
X91645608Y-72913221D01*
X91645609Y-72913222D01*
X91678701Y-72935333D01*
X91755931Y-72986936D01*
X91878518Y-73037714D01*
X91878523Y-73037715D01*
X91878526Y-73037716D01*
X91944469Y-73050832D01*
X92008656Y-73063600D01*
X92008658Y-73063600D01*
X92055280Y-73063600D01*
X92111781Y-73084165D01*
X92141845Y-73136236D01*
X92131404Y-73195450D01*
X92114658Y-73215188D01*
X92115068Y-73215598D01*
X92112016Y-73218649D01*
X92112014Y-73218651D01*
X92052357Y-73278308D01*
X92014649Y-73316016D01*
X91998138Y-73340727D01*
X91938154Y-73430499D01*
X91922721Y-73467757D01*
X91885461Y-73557708D01*
X91885460Y-73557712D01*
X91858600Y-73692756D01*
X91858600Y-73830443D01*
X91885460Y-73965487D01*
X91885461Y-73965491D01*
X91911808Y-74029096D01*
X91938154Y-74092701D01*
X92014651Y-74207186D01*
X92112014Y-74304549D01*
X92226499Y-74381046D01*
X92327362Y-74422824D01*
X92353708Y-74433738D01*
X92353712Y-74433739D01*
X92421693Y-74447260D01*
X92488755Y-74460600D01*
X92488757Y-74460600D01*
X92626443Y-74460600D01*
X92626445Y-74460600D01*
X92715657Y-74442854D01*
X92761487Y-74433739D01*
X92761491Y-74433738D01*
X92888701Y-74381046D01*
X92904563Y-74370447D01*
X95643200Y-74370447D01*
X95643200Y-74467553D01*
X95652398Y-74501883D01*
X95661754Y-74536800D01*
X95668333Y-74561351D01*
X95716887Y-74645448D01*
X95785552Y-74714113D01*
X95869649Y-74762667D01*
X95963447Y-74787800D01*
X96060552Y-74787800D01*
X96060553Y-74787800D01*
X96154351Y-74762667D01*
X96238448Y-74714113D01*
X96307113Y-74645448D01*
X96355667Y-74561351D01*
X96380800Y-74467553D01*
X96380800Y-74370447D01*
X96355667Y-74276649D01*
X96307113Y-74192552D01*
X96238448Y-74123887D01*
X96199922Y-74101644D01*
X96154349Y-74075332D01*
X96060553Y-74050200D01*
X95963447Y-74050200D01*
X95869650Y-74075332D01*
X95785554Y-74123885D01*
X95716885Y-74192554D01*
X95668332Y-74276650D01*
X95648421Y-74350963D01*
X95643200Y-74370447D01*
X92904563Y-74370447D01*
X93003186Y-74304549D01*
X93100549Y-74207186D01*
X93177046Y-74092701D01*
X93229738Y-73965491D01*
X93237239Y-73927783D01*
X93243033Y-73898650D01*
X93256600Y-73830445D01*
X93256600Y-73692755D01*
X93237826Y-73598370D01*
X93229739Y-73557712D01*
X93229738Y-73557708D01*
X93218824Y-73531362D01*
X93177046Y-73430499D01*
X93100549Y-73316014D01*
X93003186Y-73218651D01*
X92888701Y-73142154D01*
X92822341Y-73114667D01*
X92761491Y-73089461D01*
X92761487Y-73089460D01*
X92659974Y-73069269D01*
X92626445Y-73062600D01*
X92567223Y-73062600D01*
X92510722Y-73042035D01*
X92480658Y-72989964D01*
X92491099Y-72930750D01*
X92505064Y-72912549D01*
X92598219Y-72819395D01*
X92671936Y-72709069D01*
X92722714Y-72586482D01*
X92723731Y-72581372D01*
X92742016Y-72489445D01*
X92748600Y-72456344D01*
X92748600Y-72323656D01*
X92730457Y-72232445D01*
X92722716Y-72193526D01*
X92722715Y-72193523D01*
X92722714Y-72193518D01*
X92671936Y-72070931D01*
X92598219Y-71960605D01*
X92595061Y-71957447D01*
X93865200Y-71957447D01*
X93865200Y-72054553D01*
X93874398Y-72088883D01*
X93890332Y-72148349D01*
X93938302Y-72231436D01*
X93938887Y-72232448D01*
X94007552Y-72301113D01*
X94091649Y-72349667D01*
X94185447Y-72374800D01*
X94282552Y-72374800D01*
X94282553Y-72374800D01*
X94376351Y-72349667D01*
X94460448Y-72301113D01*
X94529113Y-72232448D01*
X94577667Y-72148351D01*
X94602800Y-72054553D01*
X94602800Y-71957447D01*
X94577667Y-71863649D01*
X94529113Y-71779552D01*
X94460448Y-71710887D01*
X94376351Y-71662333D01*
X94376350Y-71662332D01*
X94376349Y-71662332D01*
X94282553Y-71637200D01*
X94185447Y-71637200D01*
X94091650Y-71662332D01*
X94007554Y-71710885D01*
X93938885Y-71779554D01*
X93890332Y-71863650D01*
X93874792Y-71921649D01*
X93865200Y-71957447D01*
X92595061Y-71957447D01*
X92504395Y-71866781D01*
X92446481Y-71828084D01*
X92410929Y-71779598D01*
X92414861Y-71719599D01*
X92446480Y-71681915D01*
X92504395Y-71643219D01*
X92598219Y-71549395D01*
X92671936Y-71439069D01*
X92722714Y-71316482D01*
X92748600Y-71186344D01*
X92748600Y-71053656D01*
X92728783Y-70954028D01*
X92722716Y-70923526D01*
X92722715Y-70923523D01*
X92722714Y-70923518D01*
X92671936Y-70800931D01*
X92671934Y-70800928D01*
X92598222Y-70690609D01*
X92598221Y-70690608D01*
X92598219Y-70690605D01*
X92550027Y-70642413D01*
X92540374Y-70621714D01*
X92527278Y-70603010D01*
X92527969Y-70595109D01*
X92524617Y-70587921D01*
X92530528Y-70565860D01*
X92530739Y-70563447D01*
X95643200Y-70563447D01*
X95643200Y-70660552D01*
X95668332Y-70754349D01*
X95695224Y-70800928D01*
X95716887Y-70838448D01*
X95785552Y-70907113D01*
X95869649Y-70955667D01*
X95963447Y-70980800D01*
X96060552Y-70980800D01*
X96060553Y-70980800D01*
X96154351Y-70955667D01*
X96238448Y-70907113D01*
X96307113Y-70838448D01*
X96355667Y-70754351D01*
X96380800Y-70660553D01*
X96380800Y-70563447D01*
X96355667Y-70469649D01*
X96307113Y-70385552D01*
X96238448Y-70316887D01*
X96154351Y-70268333D01*
X96154350Y-70268332D01*
X96154349Y-70268332D01*
X96060553Y-70243200D01*
X95963447Y-70243200D01*
X95869650Y-70268332D01*
X95785554Y-70316885D01*
X95716885Y-70385554D01*
X95668332Y-70469650D01*
X95643200Y-70563447D01*
X92530739Y-70563447D01*
X92532519Y-70543112D01*
X92539169Y-70533613D01*
X92540180Y-70529843D01*
X92550017Y-70518117D01*
X92619049Y-70449086D01*
X92695546Y-70334601D01*
X92748238Y-70207391D01*
X92775100Y-70072345D01*
X92775100Y-69934655D01*
X92748238Y-69799609D01*
X92695546Y-69672399D01*
X92619049Y-69557914D01*
X92521686Y-69460551D01*
X92407201Y-69384054D01*
X92346675Y-69358983D01*
X92302346Y-69318362D01*
X92294499Y-69258749D01*
X92326806Y-69208039D01*
X92346672Y-69196568D01*
X92394069Y-69176936D01*
X92504395Y-69103219D01*
X92598219Y-69009395D01*
X92671936Y-68899069D01*
X92722714Y-68776482D01*
X92723552Y-68772272D01*
X92742016Y-68679445D01*
X92748600Y-68646344D01*
X92748600Y-68513656D01*
X92734618Y-68443364D01*
X92722716Y-68383526D01*
X92722715Y-68383523D01*
X92722714Y-68383518D01*
X92671936Y-68260931D01*
X92662997Y-68247553D01*
X92626894Y-68193520D01*
X92598222Y-68150609D01*
X92598221Y-68150608D01*
X92598219Y-68150605D01*
X92598061Y-68150447D01*
X93865200Y-68150447D01*
X93865200Y-68247552D01*
X93889488Y-68338200D01*
X93890333Y-68341351D01*
X93906687Y-68369677D01*
X93932293Y-68414028D01*
X93938887Y-68425448D01*
X94007552Y-68494113D01*
X94091649Y-68542667D01*
X94185447Y-68567800D01*
X94282552Y-68567800D01*
X94282553Y-68567800D01*
X94376351Y-68542667D01*
X94460448Y-68494113D01*
X94529113Y-68425448D01*
X94577667Y-68341351D01*
X94602800Y-68247553D01*
X94602800Y-68150447D01*
X94577667Y-68056649D01*
X94529113Y-67972552D01*
X94460448Y-67903887D01*
X94376351Y-67855333D01*
X94376350Y-67855332D01*
X94376349Y-67855332D01*
X94282553Y-67830200D01*
X94185447Y-67830200D01*
X94091650Y-67855332D01*
X94007554Y-67903885D01*
X93938885Y-67972554D01*
X93890332Y-68056650D01*
X93865200Y-68150447D01*
X92598061Y-68150447D01*
X92504395Y-68056781D01*
X92446481Y-68018084D01*
X92410929Y-67969598D01*
X92414861Y-67909599D01*
X92446480Y-67871915D01*
X92504395Y-67833219D01*
X92598219Y-67739395D01*
X92671936Y-67629069D01*
X92722714Y-67506482D01*
X92723731Y-67501372D01*
X92748600Y-67376342D01*
X92748600Y-67243657D01*
X92722716Y-67113526D01*
X92722715Y-67113523D01*
X92722714Y-67113518D01*
X92671936Y-66990931D01*
X92638807Y-66941349D01*
X92598222Y-66880609D01*
X92598221Y-66880608D01*
X92598219Y-66880605D01*
X92504395Y-66786781D01*
X92450016Y-66750447D01*
X95643200Y-66750447D01*
X95643200Y-66847553D01*
X95646730Y-66860727D01*
X95660806Y-66913262D01*
X95668333Y-66941351D01*
X95716887Y-67025448D01*
X95785552Y-67094113D01*
X95869649Y-67142667D01*
X95963447Y-67167800D01*
X96060552Y-67167800D01*
X96060553Y-67167800D01*
X96154351Y-67142667D01*
X96238448Y-67094113D01*
X96307113Y-67025448D01*
X96355667Y-66941351D01*
X96380800Y-66847553D01*
X96380800Y-66750447D01*
X96355667Y-66656649D01*
X96307113Y-66572552D01*
X96238448Y-66503887D01*
X96235200Y-66502012D01*
X96169342Y-66463988D01*
X96154351Y-66455333D01*
X96154350Y-66455332D01*
X96154349Y-66455332D01*
X96060553Y-66430200D01*
X95963447Y-66430200D01*
X95869650Y-66455332D01*
X95785554Y-66503885D01*
X95716885Y-66572554D01*
X95668332Y-66656650D01*
X95650966Y-66721462D01*
X95643200Y-66750447D01*
X92450016Y-66750447D01*
X92435523Y-66740763D01*
X92433509Y-66739242D01*
X92418448Y-66716005D01*
X92402082Y-66693685D01*
X92402256Y-66691023D01*
X92400806Y-66688786D01*
X92404203Y-66661317D01*
X92406014Y-66633687D01*
X92407898Y-66631441D01*
X92408186Y-66629114D01*
X92415792Y-66622033D01*
X92437632Y-66596005D01*
X92495186Y-66557549D01*
X92592549Y-66460186D01*
X92669046Y-66345701D01*
X92721738Y-66218491D01*
X92748600Y-66083445D01*
X92748600Y-65945755D01*
X92739727Y-65901148D01*
X92721739Y-65810712D01*
X92721738Y-65810708D01*
X92705207Y-65770800D01*
X92669046Y-65683499D01*
X92592549Y-65569014D01*
X92495186Y-65471651D01*
X92495182Y-65471648D01*
X92475649Y-65458596D01*
X92440096Y-65410106D01*
X92444030Y-65350108D01*
X92475649Y-65312426D01*
X92504395Y-65293219D01*
X92598219Y-65199395D01*
X92671936Y-65089069D01*
X92722714Y-64966482D01*
X92723731Y-64961372D01*
X92740262Y-64878261D01*
X92748600Y-64836344D01*
X92748600Y-64703656D01*
X92740126Y-64661056D01*
X92722716Y-64573526D01*
X92722715Y-64573523D01*
X92722714Y-64573518D01*
X92671936Y-64450931D01*
X92598219Y-64340605D01*
X92595061Y-64337447D01*
X93865200Y-64337447D01*
X93865200Y-64434553D01*
X93874398Y-64468883D01*
X93890332Y-64528349D01*
X93934025Y-64604028D01*
X93938887Y-64612448D01*
X94007552Y-64681113D01*
X94091649Y-64729667D01*
X94185447Y-64754800D01*
X94282552Y-64754800D01*
X94282553Y-64754800D01*
X94376351Y-64729667D01*
X94460448Y-64681113D01*
X94529113Y-64612448D01*
X94577667Y-64528351D01*
X94602800Y-64434553D01*
X94602800Y-64337447D01*
X94577667Y-64243649D01*
X94529113Y-64159552D01*
X94460448Y-64090887D01*
X94376351Y-64042333D01*
X94376350Y-64042332D01*
X94376349Y-64042332D01*
X94282553Y-64017200D01*
X94185447Y-64017200D01*
X94091650Y-64042332D01*
X94007554Y-64090885D01*
X93938885Y-64159554D01*
X93890332Y-64243650D01*
X93875341Y-64299600D01*
X93865200Y-64337447D01*
X92595061Y-64337447D01*
X92504395Y-64246781D01*
X92504391Y-64246778D01*
X92504390Y-64246777D01*
X92394071Y-64173065D01*
X92394069Y-64173064D01*
X92271482Y-64122286D01*
X92271479Y-64122285D01*
X92271473Y-64122283D01*
X92173544Y-64102805D01*
X92141344Y-64096400D01*
X92008656Y-64096400D01*
X91980001Y-64102099D01*
X91878526Y-64122283D01*
X91878518Y-64122286D01*
X91788552Y-64159552D01*
X91755929Y-64173065D01*
X91755928Y-64173065D01*
X91645609Y-64246777D01*
X91551777Y-64340609D01*
X91478065Y-64450928D01*
X91478065Y-64450929D01*
X91478064Y-64450931D01*
X91461479Y-64490970D01*
X91427286Y-64573518D01*
X91427283Y-64573526D01*
X91401400Y-64703657D01*
X91401400Y-64836342D01*
X91427283Y-64966473D01*
X91427285Y-64966479D01*
X91427286Y-64966482D01*
X91478064Y-65089069D01*
X91478065Y-65089070D01*
X91478065Y-65089071D01*
X91551777Y-65199390D01*
X91551778Y-65199391D01*
X91551781Y-65199395D01*
X91645605Y-65293219D01*
X91648949Y-65295453D01*
X91684502Y-65343941D01*
X91680570Y-65403939D01*
X91648950Y-65441624D01*
X91604017Y-65471648D01*
X91506649Y-65569016D01*
X91462894Y-65634500D01*
X91430154Y-65683499D01*
X91419929Y-65708185D01*
X91377461Y-65810708D01*
X91377460Y-65810712D01*
X91350600Y-65945756D01*
X91350600Y-66083443D01*
X91377460Y-66218487D01*
X91377461Y-66218491D01*
X91382797Y-66231372D01*
X91430154Y-66345701D01*
X91506651Y-66460186D01*
X91604014Y-66557549D01*
X91644349Y-66584500D01*
X91686963Y-66612974D01*
X91722516Y-66661463D01*
X91718584Y-66721462D01*
X91686963Y-66759146D01*
X91645607Y-66786779D01*
X91551778Y-66880608D01*
X91551775Y-66880612D01*
X91549101Y-66884614D01*
X91500609Y-66920164D01*
X91440611Y-66916227D01*
X91397181Y-66874645D01*
X91391114Y-66858523D01*
X91378367Y-66810949D01*
X91329813Y-66726852D01*
X91261148Y-66658187D01*
X91258484Y-66656649D01*
X91197730Y-66621572D01*
X91177051Y-66609633D01*
X91177050Y-66609632D01*
X91177049Y-66609632D01*
X91083253Y-66584500D01*
X90986147Y-66584500D01*
X90892350Y-66609632D01*
X90808254Y-66658185D01*
X90739585Y-66726854D01*
X90691032Y-66810950D01*
X90665900Y-66904747D01*
X57566681Y-66904747D01*
X57468372Y-66847988D01*
X57468371Y-66847987D01*
X57468370Y-66847987D01*
X57342273Y-66814200D01*
X57211727Y-66814200D01*
X57085629Y-66847987D01*
X56972570Y-66913262D01*
X56880262Y-67005570D01*
X56814987Y-67118629D01*
X56798611Y-67179748D01*
X56781200Y-67244727D01*
X50978300Y-67244727D01*
X50978300Y-65945756D01*
X52488600Y-65945756D01*
X52488600Y-66083443D01*
X52515460Y-66218487D01*
X52515461Y-66218491D01*
X52520797Y-66231372D01*
X52568154Y-66345701D01*
X52644651Y-66460186D01*
X52742014Y-66557549D01*
X52856499Y-66634046D01*
X52957362Y-66675824D01*
X52983708Y-66686738D01*
X52983712Y-66686739D01*
X53051693Y-66700260D01*
X53118755Y-66713600D01*
X53118757Y-66713600D01*
X53256443Y-66713600D01*
X53256445Y-66713600D01*
X53369949Y-66691023D01*
X53391487Y-66686739D01*
X53391491Y-66686738D01*
X53518701Y-66634046D01*
X53633186Y-66557549D01*
X53730549Y-66460186D01*
X53807046Y-66345701D01*
X53859738Y-66218491D01*
X53886600Y-66083445D01*
X53886600Y-65974727D01*
X60540400Y-65974727D01*
X60540400Y-66105272D01*
X60573752Y-66229748D01*
X60574188Y-66231372D01*
X60639461Y-66344428D01*
X60731772Y-66436739D01*
X60844828Y-66502012D01*
X60970927Y-66535800D01*
X61101472Y-66535800D01*
X61101473Y-66535800D01*
X61227572Y-66502012D01*
X61340628Y-66436739D01*
X61432939Y-66344428D01*
X61498212Y-66231372D01*
X61532000Y-66105273D01*
X61532000Y-65974727D01*
X61526646Y-65954747D01*
X86154900Y-65954747D01*
X86154900Y-66051853D01*
X86163365Y-66083445D01*
X86180032Y-66145649D01*
X86222087Y-66218491D01*
X86228587Y-66229748D01*
X86297252Y-66298413D01*
X86381349Y-66346967D01*
X86475147Y-66372100D01*
X86572252Y-66372100D01*
X86572253Y-66372100D01*
X86666051Y-66346967D01*
X86750148Y-66298413D01*
X86818813Y-66229748D01*
X86867367Y-66145651D01*
X86892500Y-66051853D01*
X86892500Y-65954747D01*
X86867367Y-65860949D01*
X86818813Y-65776852D01*
X86750148Y-65708187D01*
X86666051Y-65659633D01*
X86666050Y-65659632D01*
X86666049Y-65659632D01*
X86572253Y-65634500D01*
X86475147Y-65634500D01*
X86381350Y-65659632D01*
X86297254Y-65708185D01*
X86228585Y-65776854D01*
X86180032Y-65860950D01*
X86157309Y-65945755D01*
X86154900Y-65954747D01*
X61526646Y-65954747D01*
X61498212Y-65848628D01*
X61432939Y-65735572D01*
X61340628Y-65643261D01*
X61227572Y-65577988D01*
X61227571Y-65577987D01*
X61227570Y-65577987D01*
X61101473Y-65544200D01*
X60970927Y-65544200D01*
X60844829Y-65577987D01*
X60731770Y-65643262D01*
X60639462Y-65735570D01*
X60574187Y-65848629D01*
X60540400Y-65974727D01*
X53886600Y-65974727D01*
X53886600Y-65945755D01*
X53877727Y-65901148D01*
X53859739Y-65810712D01*
X53859738Y-65810708D01*
X53843207Y-65770800D01*
X53807046Y-65683499D01*
X53730549Y-65569014D01*
X53633186Y-65471651D01*
X53518701Y-65395154D01*
X53450577Y-65366936D01*
X53391491Y-65342461D01*
X53391487Y-65342460D01*
X53289974Y-65322269D01*
X53256445Y-65315600D01*
X53118755Y-65315600D01*
X53088928Y-65321532D01*
X52983712Y-65342460D01*
X52983708Y-65342461D01*
X52893757Y-65379721D01*
X52856499Y-65395154D01*
X52834122Y-65410106D01*
X52742016Y-65471649D01*
X52644649Y-65569016D01*
X52600894Y-65634500D01*
X52568154Y-65683499D01*
X52557929Y-65708185D01*
X52515461Y-65810708D01*
X52515460Y-65810712D01*
X52488600Y-65945756D01*
X50978300Y-65945756D01*
X50978300Y-64730127D01*
X56781200Y-64730127D01*
X56781200Y-64860672D01*
X56810646Y-64970570D01*
X56814988Y-64986772D01*
X56880261Y-65099828D01*
X56972572Y-65192139D01*
X57085628Y-65257412D01*
X57211727Y-65291200D01*
X57342272Y-65291200D01*
X57342273Y-65291200D01*
X57468372Y-65257412D01*
X57581428Y-65192139D01*
X57673739Y-65099828D01*
X57739012Y-64986772D01*
X57772800Y-64860673D01*
X57772800Y-64730127D01*
X57765994Y-64704727D01*
X77355200Y-64704727D01*
X77355200Y-64835273D01*
X77388988Y-64961372D01*
X77454261Y-65074428D01*
X77546572Y-65166739D01*
X77659628Y-65232012D01*
X77785727Y-65265800D01*
X77916272Y-65265800D01*
X77916273Y-65265800D01*
X78042372Y-65232012D01*
X78155428Y-65166739D01*
X78247739Y-65074428D01*
X78313012Y-64961372D01*
X78346800Y-64835273D01*
X78346800Y-64704727D01*
X78313012Y-64578628D01*
X78247739Y-64465572D01*
X78155428Y-64373261D01*
X78042372Y-64307988D01*
X78042371Y-64307987D01*
X78042370Y-64307987D01*
X77916273Y-64274200D01*
X77785727Y-64274200D01*
X77659629Y-64307987D01*
X77546570Y-64373262D01*
X77454262Y-64465570D01*
X77388987Y-64578629D01*
X77379122Y-64615448D01*
X77355200Y-64704727D01*
X57765994Y-64704727D01*
X57739012Y-64604028D01*
X57673739Y-64490972D01*
X57581428Y-64398661D01*
X57468372Y-64333388D01*
X57468371Y-64333387D01*
X57468370Y-64333387D01*
X57342273Y-64299600D01*
X57211727Y-64299600D01*
X57085629Y-64333387D01*
X56972570Y-64398662D01*
X56880262Y-64490970D01*
X56814987Y-64604029D01*
X56781200Y-64730127D01*
X50978300Y-64730127D01*
X50978300Y-63354956D01*
X52514000Y-63354956D01*
X52514000Y-63492643D01*
X52540860Y-63627687D01*
X52540861Y-63627691D01*
X52560687Y-63675553D01*
X52593554Y-63754901D01*
X52670051Y-63869386D01*
X52767414Y-63966749D01*
X52881899Y-64043246D01*
X52982762Y-64085024D01*
X53009108Y-64095938D01*
X53009112Y-64095939D01*
X53077093Y-64109460D01*
X53144155Y-64122800D01*
X53144157Y-64122800D01*
X53281843Y-64122800D01*
X53281845Y-64122800D01*
X53371057Y-64105054D01*
X53416887Y-64095939D01*
X53416891Y-64095938D01*
X53544101Y-64043246D01*
X53658586Y-63966749D01*
X53755949Y-63869386D01*
X53832446Y-63754901D01*
X53885138Y-63627691D01*
X53912000Y-63492645D01*
X53912000Y-63409327D01*
X60489600Y-63409327D01*
X60489600Y-63539872D01*
X60513130Y-63627691D01*
X60523388Y-63665972D01*
X60588661Y-63779028D01*
X60680972Y-63871339D01*
X60794028Y-63936612D01*
X60920127Y-63970400D01*
X61050672Y-63970400D01*
X61050673Y-63970400D01*
X61092726Y-63959132D01*
X86241200Y-63959132D01*
X86241200Y-64056237D01*
X86258896Y-64122283D01*
X86266333Y-64150036D01*
X86314887Y-64234133D01*
X86383552Y-64302798D01*
X86467649Y-64351352D01*
X86561447Y-64376485D01*
X86658552Y-64376485D01*
X86658553Y-64376485D01*
X86752351Y-64351352D01*
X86771239Y-64340447D01*
X87388200Y-64340447D01*
X87388200Y-64437552D01*
X87413332Y-64531349D01*
X87455293Y-64604028D01*
X87461887Y-64615448D01*
X87530552Y-64684113D01*
X87614649Y-64732667D01*
X87708447Y-64757800D01*
X87805552Y-64757800D01*
X87805553Y-64757800D01*
X87899351Y-64732667D01*
X87983448Y-64684113D01*
X88052113Y-64615448D01*
X88100667Y-64531351D01*
X88125800Y-64437553D01*
X88125800Y-64340447D01*
X88100667Y-64246649D01*
X88052113Y-64162552D01*
X87983448Y-64093887D01*
X87978248Y-64090885D01*
X87899349Y-64045332D01*
X87805553Y-64020200D01*
X87708447Y-64020200D01*
X87614650Y-64045332D01*
X87530554Y-64093885D01*
X87461885Y-64162554D01*
X87413332Y-64246650D01*
X87388200Y-64340447D01*
X86771239Y-64340447D01*
X86836448Y-64302798D01*
X86905113Y-64234133D01*
X86953667Y-64150036D01*
X86978800Y-64056238D01*
X86978800Y-63959132D01*
X86953667Y-63865334D01*
X86905113Y-63781237D01*
X86836448Y-63712572D01*
X86752351Y-63664018D01*
X86752350Y-63664017D01*
X86752349Y-63664017D01*
X86728365Y-63657591D01*
X86658553Y-63638885D01*
X86561447Y-63638885D01*
X86467650Y-63664017D01*
X86383554Y-63712570D01*
X86314885Y-63781239D01*
X86266332Y-63865335D01*
X86241200Y-63959132D01*
X61092726Y-63959132D01*
X61176772Y-63936612D01*
X61289828Y-63871339D01*
X61382139Y-63779028D01*
X61447412Y-63665972D01*
X61470864Y-63578447D01*
X90690200Y-63578447D01*
X90690200Y-63675553D01*
X90715333Y-63769351D01*
X90763887Y-63853448D01*
X90832552Y-63922113D01*
X90916649Y-63970667D01*
X91010447Y-63995800D01*
X91107552Y-63995800D01*
X91107553Y-63995800D01*
X91201351Y-63970667D01*
X91285448Y-63922113D01*
X91354113Y-63853448D01*
X91402667Y-63769351D01*
X91427800Y-63675553D01*
X91427800Y-63578447D01*
X91402667Y-63484649D01*
X91354113Y-63400552D01*
X91285448Y-63331887D01*
X91201351Y-63283333D01*
X91201350Y-63283332D01*
X91201349Y-63283332D01*
X91107553Y-63258200D01*
X91010447Y-63258200D01*
X90916650Y-63283332D01*
X90832554Y-63331885D01*
X90763885Y-63400554D01*
X90715332Y-63484650D01*
X90713190Y-63492645D01*
X90690200Y-63578447D01*
X61470864Y-63578447D01*
X61481200Y-63539873D01*
X61481200Y-63409327D01*
X61447412Y-63283228D01*
X61382139Y-63170172D01*
X61289828Y-63077861D01*
X61178887Y-63013809D01*
X61178887Y-63013808D01*
X61176772Y-63012587D01*
X61050673Y-62978800D01*
X60920127Y-62978800D01*
X60794029Y-63012587D01*
X60680970Y-63077862D01*
X60588662Y-63170170D01*
X60523387Y-63283229D01*
X60489600Y-63409327D01*
X53912000Y-63409327D01*
X53912000Y-63354955D01*
X53897754Y-63283333D01*
X53885139Y-63219912D01*
X53885138Y-63219908D01*
X53864535Y-63170170D01*
X53832446Y-63092699D01*
X53755949Y-62978214D01*
X53721182Y-62943447D01*
X77609200Y-62943447D01*
X77609200Y-63040552D01*
X77634332Y-63134349D01*
X77655014Y-63170172D01*
X77682887Y-63218448D01*
X77751552Y-63287113D01*
X77835649Y-63335667D01*
X77929447Y-63360800D01*
X78026552Y-63360800D01*
X78026553Y-63360800D01*
X78120351Y-63335667D01*
X78204448Y-63287113D01*
X78273113Y-63218448D01*
X78321667Y-63134351D01*
X78346800Y-63040553D01*
X78346800Y-62943447D01*
X78321667Y-62849649D01*
X78273113Y-62765552D01*
X78204448Y-62696887D01*
X78189230Y-62688101D01*
X78120349Y-62648332D01*
X78026553Y-62623200D01*
X77929447Y-62623200D01*
X77835650Y-62648332D01*
X77751554Y-62696885D01*
X77682885Y-62765554D01*
X77634332Y-62849650D01*
X77609200Y-62943447D01*
X53721182Y-62943447D01*
X53658586Y-62880851D01*
X53544101Y-62804354D01*
X53480496Y-62778008D01*
X53416891Y-62751661D01*
X53416887Y-62751660D01*
X53315374Y-62731469D01*
X53281845Y-62724800D01*
X53144155Y-62724800D01*
X53114328Y-62730732D01*
X53009112Y-62751660D01*
X53009108Y-62751661D01*
X52919157Y-62788921D01*
X52881899Y-62804354D01*
X52881898Y-62804355D01*
X52767416Y-62880849D01*
X52670049Y-62978216D01*
X52646266Y-63013810D01*
X52593554Y-63092699D01*
X52578121Y-63129957D01*
X52540861Y-63219908D01*
X52540860Y-63219912D01*
X52514000Y-63354956D01*
X50978300Y-63354956D01*
X50978300Y-62139327D01*
X56755800Y-62139327D01*
X56755800Y-62269873D01*
X56756133Y-62271114D01*
X56775876Y-62344800D01*
X56789588Y-62395972D01*
X56854861Y-62509028D01*
X56947172Y-62601339D01*
X57060228Y-62666612D01*
X57186327Y-62700400D01*
X57316872Y-62700400D01*
X57316873Y-62700400D01*
X57442972Y-62666612D01*
X57556028Y-62601339D01*
X57648339Y-62509028D01*
X57713612Y-62395972D01*
X57747400Y-62269873D01*
X57747400Y-62139327D01*
X57713612Y-62013228D01*
X57648339Y-61900172D01*
X57556028Y-61807861D01*
X57442972Y-61742588D01*
X57442971Y-61742587D01*
X57442970Y-61742587D01*
X57316873Y-61708800D01*
X57186327Y-61708800D01*
X57060229Y-61742587D01*
X56947170Y-61807862D01*
X56854862Y-61900170D01*
X56789587Y-62013229D01*
X56756736Y-62135834D01*
X56755800Y-62139327D01*
X50978300Y-62139327D01*
X50978300Y-60891155D01*
X52539400Y-60891155D01*
X52539400Y-61028845D01*
X52542790Y-61045887D01*
X52566260Y-61163887D01*
X52566261Y-61163891D01*
X52592071Y-61226200D01*
X52618954Y-61291101D01*
X52695451Y-61405586D01*
X52792814Y-61502949D01*
X52907299Y-61579446D01*
X53008162Y-61621224D01*
X53034508Y-61632138D01*
X53034512Y-61632139D01*
X53102493Y-61645660D01*
X53169555Y-61659000D01*
X53169557Y-61659000D01*
X53307243Y-61659000D01*
X53307245Y-61659000D01*
X53396457Y-61641254D01*
X53442287Y-61632139D01*
X53442291Y-61632138D01*
X53569501Y-61579446D01*
X53594252Y-61562908D01*
X80557629Y-61562908D01*
X80557629Y-61660014D01*
X80564287Y-61684861D01*
X80582761Y-61753810D01*
X80617803Y-61814505D01*
X80631316Y-61837909D01*
X80699981Y-61906574D01*
X80784078Y-61955128D01*
X80877876Y-61980261D01*
X80974981Y-61980261D01*
X80974982Y-61980261D01*
X81068780Y-61955128D01*
X81116724Y-61927447D01*
X82308200Y-61927447D01*
X82308200Y-62024553D01*
X82308703Y-62026429D01*
X82333332Y-62118349D01*
X82353402Y-62153112D01*
X82381887Y-62202448D01*
X82450552Y-62271113D01*
X82534649Y-62319667D01*
X82628447Y-62344800D01*
X82725552Y-62344800D01*
X82725553Y-62344800D01*
X82819351Y-62319667D01*
X82903448Y-62271113D01*
X82972113Y-62202448D01*
X83020667Y-62118351D01*
X83045800Y-62024553D01*
X83045800Y-61927447D01*
X83040670Y-61908303D01*
X83697200Y-61908303D01*
X83697200Y-62005409D01*
X83722333Y-62099207D01*
X83770887Y-62183304D01*
X83839552Y-62251969D01*
X83923649Y-62300523D01*
X84017447Y-62325656D01*
X84114552Y-62325656D01*
X84114553Y-62325656D01*
X84208351Y-62300523D01*
X84292448Y-62251969D01*
X84361113Y-62183304D01*
X84409667Y-62099207D01*
X84434800Y-62005409D01*
X84434800Y-61908303D01*
X84409667Y-61814505D01*
X84361113Y-61730408D01*
X84292448Y-61661743D01*
X84289453Y-61660014D01*
X84208349Y-61613188D01*
X84114553Y-61588056D01*
X84017447Y-61588056D01*
X83923650Y-61613188D01*
X83839554Y-61661741D01*
X83770885Y-61730410D01*
X83722332Y-61814506D01*
X83701540Y-61892104D01*
X83697200Y-61908303D01*
X83040670Y-61908303D01*
X83020667Y-61833649D01*
X82972113Y-61749552D01*
X82903448Y-61680887D01*
X82889562Y-61672870D01*
X82819349Y-61632332D01*
X82725553Y-61607200D01*
X82628447Y-61607200D01*
X82534650Y-61632332D01*
X82450554Y-61680885D01*
X82381885Y-61749554D01*
X82333332Y-61833650D01*
X82312496Y-61911414D01*
X82308200Y-61927447D01*
X81116724Y-61927447D01*
X81152877Y-61906574D01*
X81221542Y-61837909D01*
X81270096Y-61753812D01*
X81291345Y-61674508D01*
X81325832Y-61625256D01*
X81383911Y-61609693D01*
X81438404Y-61635104D01*
X81461155Y-61674509D01*
X81465516Y-61690786D01*
X81495423Y-61742587D01*
X81514071Y-61774885D01*
X81582736Y-61843550D01*
X81666833Y-61892104D01*
X81760631Y-61917237D01*
X81857736Y-61917237D01*
X81857737Y-61917237D01*
X81951535Y-61892104D01*
X82035632Y-61843550D01*
X82104297Y-61774885D01*
X82152851Y-61690788D01*
X82177984Y-61596990D01*
X82177984Y-61499884D01*
X82152851Y-61406086D01*
X82104297Y-61321989D01*
X82074755Y-61292447D01*
X84979200Y-61292447D01*
X84979200Y-61389553D01*
X85004333Y-61483351D01*
X85015648Y-61502949D01*
X85040949Y-61546772D01*
X85052887Y-61567448D01*
X85121552Y-61636113D01*
X85205649Y-61684667D01*
X85299447Y-61709800D01*
X85396552Y-61709800D01*
X85396553Y-61709800D01*
X85490351Y-61684667D01*
X85538744Y-61656727D01*
X90690200Y-61656727D01*
X90690200Y-61787272D01*
X90723463Y-61911416D01*
X90723988Y-61913372D01*
X90789261Y-62026428D01*
X90881572Y-62118739D01*
X90994628Y-62184012D01*
X91120727Y-62217800D01*
X91251272Y-62217800D01*
X91251273Y-62217800D01*
X91316150Y-62200416D01*
X91376048Y-62205656D01*
X91418564Y-62248173D01*
X91426800Y-62285321D01*
X91426800Y-62425843D01*
X91453660Y-62560887D01*
X91453661Y-62560891D01*
X91470415Y-62601337D01*
X91506354Y-62688101D01*
X91582851Y-62802586D01*
X91680214Y-62899949D01*
X91794699Y-62976446D01*
X91881954Y-63012588D01*
X91921908Y-63029138D01*
X91921912Y-63029139D01*
X91989893Y-63042660D01*
X92056955Y-63056000D01*
X92056957Y-63056000D01*
X92194643Y-63056000D01*
X92194645Y-63056000D01*
X92283857Y-63038254D01*
X92329687Y-63029139D01*
X92329691Y-63029138D01*
X92456901Y-62976446D01*
X92486083Y-62956947D01*
X95643200Y-62956947D01*
X95643200Y-63054052D01*
X95668332Y-63147849D01*
X95709935Y-63219908D01*
X95716887Y-63231948D01*
X95785552Y-63300613D01*
X95869649Y-63349167D01*
X95963447Y-63374300D01*
X96060552Y-63374300D01*
X96060553Y-63374300D01*
X96154351Y-63349167D01*
X96238448Y-63300613D01*
X96307113Y-63231948D01*
X96355667Y-63147851D01*
X96380800Y-63054053D01*
X96380800Y-62956947D01*
X96355667Y-62863149D01*
X96307113Y-62779052D01*
X96238448Y-62710387D01*
X96221150Y-62700400D01*
X96154349Y-62661832D01*
X96060553Y-62636700D01*
X95963447Y-62636700D01*
X95869650Y-62661832D01*
X95785554Y-62710385D01*
X95716885Y-62779054D01*
X95668332Y-62863150D01*
X95643200Y-62956947D01*
X92486083Y-62956947D01*
X92571386Y-62899949D01*
X92668749Y-62802586D01*
X92745246Y-62688101D01*
X92797938Y-62560891D01*
X92824800Y-62425845D01*
X92824800Y-62288155D01*
X92807752Y-62202448D01*
X92797939Y-62153112D01*
X92797938Y-62153108D01*
X92787024Y-62126762D01*
X92745246Y-62025899D01*
X92668749Y-61911414D01*
X92571386Y-61814051D01*
X92456901Y-61737554D01*
X92387483Y-61708800D01*
X92329691Y-61684861D01*
X92329687Y-61684860D01*
X92228174Y-61664669D01*
X92194645Y-61658000D01*
X92056955Y-61658000D01*
X92027128Y-61663932D01*
X91921912Y-61684860D01*
X91921908Y-61684862D01*
X91907602Y-61690788D01*
X91803336Y-61733976D01*
X91743268Y-61736599D01*
X91695566Y-61699996D01*
X91684542Y-61662176D01*
X91682552Y-61662439D01*
X91681800Y-61656727D01*
X91676277Y-61636114D01*
X91648012Y-61530628D01*
X91582739Y-61417572D01*
X91490428Y-61325261D01*
X91377372Y-61259988D01*
X91377371Y-61259987D01*
X91377370Y-61259987D01*
X91251273Y-61226200D01*
X91120727Y-61226200D01*
X90994629Y-61259987D01*
X90881570Y-61325262D01*
X90789262Y-61417570D01*
X90723987Y-61530629D01*
X90690200Y-61656727D01*
X85538744Y-61656727D01*
X85574448Y-61636113D01*
X85643113Y-61567448D01*
X85691667Y-61483351D01*
X85716800Y-61389553D01*
X85716800Y-61292447D01*
X85691667Y-61198649D01*
X85643113Y-61114552D01*
X85574448Y-61045887D01*
X85540893Y-61026514D01*
X85490349Y-60997332D01*
X85396553Y-60972200D01*
X85299447Y-60972200D01*
X85205650Y-60997332D01*
X85121554Y-61045885D01*
X85052885Y-61114554D01*
X85004332Y-61198650D01*
X84986707Y-61264429D01*
X84979200Y-61292447D01*
X82074755Y-61292447D01*
X82035632Y-61253324D01*
X82017163Y-61242661D01*
X81951533Y-61204769D01*
X81857737Y-61179637D01*
X81760631Y-61179637D01*
X81666834Y-61204769D01*
X81582738Y-61253322D01*
X81514069Y-61321991D01*
X81465516Y-61406087D01*
X81444267Y-61485389D01*
X81409779Y-61534642D01*
X81351700Y-61550203D01*
X81297207Y-61524792D01*
X81274457Y-61485387D01*
X81270096Y-61469110D01*
X81221542Y-61385013D01*
X81152877Y-61316348D01*
X81115922Y-61295012D01*
X81068778Y-61267793D01*
X80974982Y-61242661D01*
X80877876Y-61242661D01*
X80784079Y-61267793D01*
X80699983Y-61316346D01*
X80631314Y-61385015D01*
X80582761Y-61469111D01*
X80561952Y-61546773D01*
X80557629Y-61562908D01*
X53594252Y-61562908D01*
X53683986Y-61502949D01*
X53781349Y-61405586D01*
X53857846Y-61291101D01*
X53910538Y-61163891D01*
X53937400Y-61028845D01*
X53937400Y-60894727D01*
X60515000Y-60894727D01*
X60515000Y-61025273D01*
X60521536Y-61049667D01*
X60545051Y-61137428D01*
X60548788Y-61151372D01*
X60614061Y-61264428D01*
X60706372Y-61356739D01*
X60819428Y-61422012D01*
X60945527Y-61455800D01*
X61076072Y-61455800D01*
X61076073Y-61455800D01*
X61202172Y-61422012D01*
X61315228Y-61356739D01*
X61407539Y-61264428D01*
X61472812Y-61151372D01*
X61506600Y-61025273D01*
X61506600Y-60894727D01*
X61472812Y-60768628D01*
X61407539Y-60655572D01*
X61343239Y-60591272D01*
X62648599Y-60591272D01*
X62666306Y-60657354D01*
X62682388Y-60717372D01*
X62747661Y-60830428D01*
X62839972Y-60922739D01*
X62953028Y-60988012D01*
X63079127Y-61021800D01*
X63209672Y-61021800D01*
X63209673Y-61021800D01*
X63335772Y-60988012D01*
X63448828Y-60922739D01*
X63541139Y-60830428D01*
X63606412Y-60717372D01*
X63640200Y-60591273D01*
X63640200Y-60460727D01*
X63606412Y-60334628D01*
X63541139Y-60221572D01*
X63448828Y-60129261D01*
X63335772Y-60063988D01*
X63335771Y-60063987D01*
X63335770Y-60063987D01*
X63209673Y-60030200D01*
X63079127Y-60030200D01*
X62953029Y-60063987D01*
X62839970Y-60129262D01*
X62747662Y-60221570D01*
X62682387Y-60334629D01*
X62648600Y-60460727D01*
X62648600Y-60591272D01*
X62648599Y-60591272D01*
X61343239Y-60591272D01*
X61315228Y-60563261D01*
X61255142Y-60528570D01*
X61202174Y-60497988D01*
X61202172Y-60497987D01*
X61076073Y-60464200D01*
X60945527Y-60464200D01*
X60819429Y-60497987D01*
X60706370Y-60563262D01*
X60614062Y-60655570D01*
X60548787Y-60768629D01*
X60527427Y-60848349D01*
X60515000Y-60894727D01*
X53937400Y-60894727D01*
X53937400Y-60891155D01*
X53915281Y-60779952D01*
X53910539Y-60756112D01*
X53910538Y-60756108D01*
X53899624Y-60729762D01*
X53857846Y-60628899D01*
X53781349Y-60514414D01*
X53683986Y-60417051D01*
X53569501Y-60340554D01*
X53502497Y-60312800D01*
X53442291Y-60287861D01*
X53442287Y-60287860D01*
X53340774Y-60267669D01*
X53307245Y-60261000D01*
X53169555Y-60261000D01*
X53139728Y-60266932D01*
X53034512Y-60287860D01*
X53034508Y-60287861D01*
X52944557Y-60325121D01*
X52907299Y-60340554D01*
X52907298Y-60340555D01*
X52792816Y-60417049D01*
X52695449Y-60514416D01*
X52662553Y-60563649D01*
X52618954Y-60628899D01*
X52607168Y-60657354D01*
X52566261Y-60756108D01*
X52566260Y-60756112D01*
X52547914Y-60848351D01*
X52539400Y-60891155D01*
X50978300Y-60891155D01*
X50978300Y-59599327D01*
X56781200Y-59599327D01*
X56781200Y-59729873D01*
X56783526Y-59738552D01*
X56812966Y-59848429D01*
X56814988Y-59855972D01*
X56880261Y-59969028D01*
X56972572Y-60061339D01*
X57085628Y-60126612D01*
X57211727Y-60160400D01*
X57342272Y-60160400D01*
X57342273Y-60160400D01*
X57468372Y-60126612D01*
X57581428Y-60061339D01*
X57673739Y-59969028D01*
X57739012Y-59855972D01*
X57772800Y-59729873D01*
X57772800Y-59599327D01*
X57740485Y-59478727D01*
X63493200Y-59478727D01*
X63493200Y-59609273D01*
X63505399Y-59654800D01*
X63525846Y-59731113D01*
X63526988Y-59735372D01*
X63592261Y-59848428D01*
X63684572Y-59940739D01*
X63797628Y-60006012D01*
X63923727Y-60039800D01*
X64054272Y-60039800D01*
X64054273Y-60039800D01*
X64180372Y-60006012D01*
X64293428Y-59940739D01*
X64338720Y-59895447D01*
X70624200Y-59895447D01*
X70624200Y-59992552D01*
X70649332Y-60086349D01*
X70692085Y-60160400D01*
X70697887Y-60170448D01*
X70766552Y-60239113D01*
X70850649Y-60287667D01*
X70944447Y-60312800D01*
X71033430Y-60312800D01*
X71089931Y-60333365D01*
X71119995Y-60385436D01*
X71109554Y-60444650D01*
X71095588Y-60462850D01*
X71078887Y-60479552D01*
X71078885Y-60479554D01*
X71030332Y-60563650D01*
X71012707Y-60629429D01*
X71005200Y-60657447D01*
X71005200Y-60754553D01*
X71008972Y-60768629D01*
X71030332Y-60848349D01*
X71078831Y-60932352D01*
X71078887Y-60932448D01*
X71147552Y-61001113D01*
X71231649Y-61049667D01*
X71325447Y-61074800D01*
X71422552Y-61074800D01*
X71422553Y-61074800D01*
X71516351Y-61049667D01*
X71600448Y-61001113D01*
X71669113Y-60932448D01*
X71717667Y-60848351D01*
X71742800Y-60754553D01*
X71742800Y-60682847D01*
X72376800Y-60682847D01*
X72376800Y-60779953D01*
X72385998Y-60814283D01*
X72401932Y-60873749D01*
X72430216Y-60922739D01*
X72450487Y-60957848D01*
X72519152Y-61026513D01*
X72603249Y-61075067D01*
X72697047Y-61100200D01*
X72794152Y-61100200D01*
X72794153Y-61100200D01*
X72887951Y-61075067D01*
X72972048Y-61026513D01*
X73040713Y-60957848D01*
X73089267Y-60873751D01*
X73114400Y-60779953D01*
X73114400Y-60767727D01*
X74942200Y-60767727D01*
X74942200Y-60898272D01*
X74975298Y-61021800D01*
X74975988Y-61024372D01*
X75041261Y-61137428D01*
X75133572Y-61229739D01*
X75246628Y-61295012D01*
X75372727Y-61328800D01*
X75503272Y-61328800D01*
X75503273Y-61328800D01*
X75629372Y-61295012D01*
X75742428Y-61229739D01*
X75834739Y-61137428D01*
X75900012Y-61024372D01*
X75933800Y-60898273D01*
X75933800Y-60835247D01*
X83908400Y-60835247D01*
X83908400Y-60932353D01*
X83909422Y-60936167D01*
X83933297Y-61025273D01*
X83933533Y-61026151D01*
X83935407Y-61029397D01*
X83976285Y-61100200D01*
X83982087Y-61110248D01*
X84050752Y-61178913D01*
X84134849Y-61227467D01*
X84228647Y-61252600D01*
X84325752Y-61252600D01*
X84325753Y-61252600D01*
X84419551Y-61227467D01*
X84448831Y-61210562D01*
X84448834Y-61210561D01*
X84503641Y-61178917D01*
X84503640Y-61178917D01*
X84503648Y-61178913D01*
X84572313Y-61110248D01*
X84620867Y-61026151D01*
X84646000Y-60932353D01*
X84646000Y-60835247D01*
X84620867Y-60741449D01*
X84572313Y-60657352D01*
X84503648Y-60588687D01*
X84460281Y-60563649D01*
X84419549Y-60540132D01*
X84325753Y-60515000D01*
X84228647Y-60515000D01*
X84134850Y-60540132D01*
X84050754Y-60588685D01*
X83982085Y-60657354D01*
X83933532Y-60741450D01*
X83921324Y-60787012D01*
X83908400Y-60835247D01*
X75933800Y-60835247D01*
X75933800Y-60767727D01*
X75900012Y-60641628D01*
X75834739Y-60528572D01*
X75742428Y-60436261D01*
X75629372Y-60370988D01*
X75629371Y-60370987D01*
X75629370Y-60370987D01*
X75509509Y-60338871D01*
X75503273Y-60337200D01*
X75372727Y-60337200D01*
X75246629Y-60370987D01*
X75133570Y-60436262D01*
X75041262Y-60528570D01*
X74975987Y-60641629D01*
X74942200Y-60767727D01*
X73114400Y-60767727D01*
X73114400Y-60682847D01*
X73089267Y-60589049D01*
X73040713Y-60504952D01*
X72972048Y-60436287D01*
X72928054Y-60410887D01*
X72892350Y-60390273D01*
X72887951Y-60387733D01*
X72887950Y-60387732D01*
X72887949Y-60387732D01*
X72794153Y-60362600D01*
X72697047Y-60362600D01*
X72603250Y-60387732D01*
X72519154Y-60436285D01*
X72450485Y-60504954D01*
X72401932Y-60589050D01*
X72387844Y-60641629D01*
X72376800Y-60682847D01*
X71742800Y-60682847D01*
X71742800Y-60657447D01*
X71717667Y-60563649D01*
X71669113Y-60479552D01*
X71600448Y-60410887D01*
X71516351Y-60362333D01*
X71516350Y-60362332D01*
X71516349Y-60362332D01*
X71422553Y-60337200D01*
X71333570Y-60337200D01*
X71277069Y-60316635D01*
X71247005Y-60264564D01*
X71247858Y-60259727D01*
X91071200Y-60259727D01*
X91071200Y-60390273D01*
X91078375Y-60417049D01*
X91104736Y-60515435D01*
X91104988Y-60516372D01*
X91170261Y-60629428D01*
X91262572Y-60721739D01*
X91375628Y-60787012D01*
X91501727Y-60820800D01*
X91632272Y-60820800D01*
X91632273Y-60820800D01*
X91758372Y-60787012D01*
X91871428Y-60721739D01*
X91963739Y-60629428D01*
X92013092Y-60543947D01*
X93865200Y-60543947D01*
X93865200Y-60641053D01*
X93869090Y-60655570D01*
X93886819Y-60721739D01*
X93890333Y-60734851D01*
X93902608Y-60756112D01*
X93920448Y-60787012D01*
X93938887Y-60818948D01*
X94007552Y-60887613D01*
X94091649Y-60936167D01*
X94185447Y-60961300D01*
X94282552Y-60961300D01*
X94282553Y-60961300D01*
X94376351Y-60936167D01*
X94460448Y-60887613D01*
X94529113Y-60818948D01*
X94577667Y-60734851D01*
X94602800Y-60641053D01*
X94602800Y-60543947D01*
X94577667Y-60450149D01*
X94529113Y-60366052D01*
X94460448Y-60297387D01*
X94443950Y-60287862D01*
X94376349Y-60248832D01*
X94282553Y-60223700D01*
X94185447Y-60223700D01*
X94091650Y-60248832D01*
X94007554Y-60297385D01*
X93938885Y-60366054D01*
X93890332Y-60450150D01*
X93868645Y-60531090D01*
X93865200Y-60543947D01*
X92013092Y-60543947D01*
X92029012Y-60516372D01*
X92062800Y-60390273D01*
X92062800Y-60259727D01*
X92029012Y-60133628D01*
X91963739Y-60020572D01*
X91871428Y-59928261D01*
X91758372Y-59862988D01*
X91758371Y-59862987D01*
X91758370Y-59862987D01*
X91632273Y-59829200D01*
X91501727Y-59829200D01*
X91375629Y-59862987D01*
X91262570Y-59928262D01*
X91170262Y-60020570D01*
X91104987Y-60133629D01*
X91080853Y-60223700D01*
X91071200Y-60259727D01*
X71247858Y-60259727D01*
X71257446Y-60205350D01*
X71271411Y-60187149D01*
X71288113Y-60170448D01*
X71336667Y-60086351D01*
X71361800Y-59992553D01*
X71361800Y-59895447D01*
X71336667Y-59801649D01*
X71288113Y-59717552D01*
X71219448Y-59648887D01*
X71186158Y-59629667D01*
X71150835Y-59609273D01*
X71135351Y-59600333D01*
X71135350Y-59600332D01*
X71135349Y-59600332D01*
X71110190Y-59593591D01*
X71041553Y-59575200D01*
X70944447Y-59575200D01*
X70850650Y-59600332D01*
X70766554Y-59648885D01*
X70697885Y-59717554D01*
X70649332Y-59801650D01*
X70624200Y-59895447D01*
X64338720Y-59895447D01*
X64385739Y-59848428D01*
X64451012Y-59735372D01*
X64484800Y-59609273D01*
X64484800Y-59514447D01*
X72529200Y-59514447D01*
X72529200Y-59611553D01*
X72554333Y-59705351D01*
X72602887Y-59789448D01*
X72671552Y-59858113D01*
X72755649Y-59906667D01*
X72849447Y-59931800D01*
X72946552Y-59931800D01*
X72946553Y-59931800D01*
X73040351Y-59906667D01*
X73124448Y-59858113D01*
X73193113Y-59789448D01*
X73241667Y-59705351D01*
X73266800Y-59611553D01*
X73266800Y-59514447D01*
X73241667Y-59420649D01*
X73193113Y-59336552D01*
X73124448Y-59267887D01*
X73040351Y-59219333D01*
X73040350Y-59219332D01*
X73040349Y-59219332D01*
X72946553Y-59194200D01*
X72849447Y-59194200D01*
X72755650Y-59219332D01*
X72671554Y-59267885D01*
X72602885Y-59336554D01*
X72554332Y-59420650D01*
X72538771Y-59478727D01*
X72529200Y-59514447D01*
X64484800Y-59514447D01*
X64484800Y-59478727D01*
X64451012Y-59352628D01*
X64385739Y-59239572D01*
X64293428Y-59147261D01*
X64180372Y-59081988D01*
X64180371Y-59081987D01*
X64180370Y-59081987D01*
X64054273Y-59048200D01*
X63923727Y-59048200D01*
X63797629Y-59081987D01*
X63684570Y-59147262D01*
X63592262Y-59239570D01*
X63526987Y-59352629D01*
X63494673Y-59473228D01*
X63493200Y-59478727D01*
X57740485Y-59478727D01*
X57739012Y-59473228D01*
X57673739Y-59360172D01*
X57581428Y-59267861D01*
X57468372Y-59202588D01*
X57468371Y-59202587D01*
X57468370Y-59202587D01*
X57342273Y-59168800D01*
X57211727Y-59168800D01*
X57085629Y-59202587D01*
X56972570Y-59267862D01*
X56880262Y-59360170D01*
X56814987Y-59473229D01*
X56791033Y-59562628D01*
X56781200Y-59599327D01*
X50978300Y-59599327D01*
X50978300Y-58401955D01*
X52564800Y-58401955D01*
X52564800Y-58539645D01*
X52569898Y-58565273D01*
X52591660Y-58674687D01*
X52591661Y-58674691D01*
X52612264Y-58724429D01*
X52644354Y-58801901D01*
X52720851Y-58916386D01*
X52818214Y-59013749D01*
X52932699Y-59090246D01*
X53033562Y-59132024D01*
X53059908Y-59142938D01*
X53059912Y-59142939D01*
X53127893Y-59156460D01*
X53194955Y-59169800D01*
X53194957Y-59169800D01*
X53332643Y-59169800D01*
X53332645Y-59169800D01*
X53445958Y-59147261D01*
X53467687Y-59142939D01*
X53467691Y-59142938D01*
X53594901Y-59090246D01*
X53709386Y-59013749D01*
X53806749Y-58916386D01*
X53883246Y-58801901D01*
X53935938Y-58674691D01*
X53936201Y-58673372D01*
X53957702Y-58565273D01*
X53962800Y-58539645D01*
X53962800Y-58401955D01*
X53959914Y-58387447D01*
X53955671Y-58366113D01*
X53953406Y-58354727D01*
X60540400Y-58354727D01*
X60540400Y-58485273D01*
X60543143Y-58495509D01*
X60567955Y-58588113D01*
X60574188Y-58611372D01*
X60639461Y-58724428D01*
X60731772Y-58816739D01*
X60844828Y-58882012D01*
X60970927Y-58915800D01*
X61101472Y-58915800D01*
X61101473Y-58915800D01*
X61227572Y-58882012D01*
X61340628Y-58816739D01*
X61432939Y-58724428D01*
X61498212Y-58611372D01*
X61532000Y-58485273D01*
X61532000Y-58354727D01*
X71894200Y-58354727D01*
X71894200Y-58485273D01*
X71896943Y-58495509D01*
X71921755Y-58588113D01*
X71927988Y-58611372D01*
X71993261Y-58724428D01*
X72085572Y-58816739D01*
X72198628Y-58882012D01*
X72324727Y-58915800D01*
X72455272Y-58915800D01*
X72455273Y-58915800D01*
X72581372Y-58882012D01*
X72694428Y-58816739D01*
X72786739Y-58724428D01*
X72852012Y-58611372D01*
X72885800Y-58485273D01*
X72885800Y-58416727D01*
X74369200Y-58416727D01*
X74369200Y-58547272D01*
X74391515Y-58630556D01*
X74402988Y-58673372D01*
X74468261Y-58786428D01*
X74560572Y-58878739D01*
X74673628Y-58944012D01*
X74799727Y-58977800D01*
X74930272Y-58977800D01*
X74930273Y-58977800D01*
X75056372Y-58944012D01*
X75169428Y-58878739D01*
X75261739Y-58786428D01*
X75327012Y-58673372D01*
X75360800Y-58547273D01*
X75360800Y-58434727D01*
X77204200Y-58434727D01*
X77204200Y-58565273D01*
X77237988Y-58691372D01*
X77303261Y-58804428D01*
X77395572Y-58896739D01*
X77508628Y-58962012D01*
X77634727Y-58995800D01*
X77765272Y-58995800D01*
X77765273Y-58995800D01*
X77891372Y-58962012D01*
X77988836Y-58905740D01*
X78048049Y-58895299D01*
X78100121Y-58925363D01*
X78120686Y-58981864D01*
X78117692Y-59004611D01*
X78117200Y-59006447D01*
X78117200Y-59103552D01*
X78141488Y-59194200D01*
X78142333Y-59197351D01*
X78190887Y-59281448D01*
X78219785Y-59310346D01*
X78245196Y-59364839D01*
X78229633Y-59422917D01*
X78219790Y-59434648D01*
X78204869Y-59449570D01*
X78190885Y-59463554D01*
X78142332Y-59547650D01*
X78117200Y-59641447D01*
X78117200Y-59738552D01*
X78141488Y-59829200D01*
X78142333Y-59832351D01*
X78190887Y-59916448D01*
X78259552Y-59985113D01*
X78343649Y-60033667D01*
X78437447Y-60058800D01*
X78534552Y-60058800D01*
X78534553Y-60058800D01*
X78628351Y-60033667D01*
X78712448Y-59985113D01*
X78781113Y-59916448D01*
X78829667Y-59832351D01*
X78854800Y-59738553D01*
X78854800Y-59641447D01*
X78829667Y-59547649D01*
X78781113Y-59463552D01*
X78752214Y-59434653D01*
X78730202Y-59387447D01*
X84721200Y-59387447D01*
X84721200Y-59484552D01*
X84745488Y-59575200D01*
X84746333Y-59578351D01*
X84761356Y-59604372D01*
X84790551Y-59654939D01*
X84794887Y-59662448D01*
X84863552Y-59731113D01*
X84947649Y-59779667D01*
X85041447Y-59804800D01*
X85138552Y-59804800D01*
X85138553Y-59804800D01*
X85232351Y-59779667D01*
X85316448Y-59731113D01*
X85385113Y-59662448D01*
X85433667Y-59578351D01*
X85458800Y-59484553D01*
X85458800Y-59387447D01*
X85433667Y-59293649D01*
X85385113Y-59209552D01*
X85368488Y-59192927D01*
X86599700Y-59192927D01*
X86599700Y-59323473D01*
X86603205Y-59336554D01*
X86619776Y-59398400D01*
X86633488Y-59449572D01*
X86698761Y-59562628D01*
X86791072Y-59654939D01*
X86904128Y-59720212D01*
X87030227Y-59754000D01*
X87160772Y-59754000D01*
X87160773Y-59754000D01*
X87286872Y-59720212D01*
X87399928Y-59654939D01*
X87492239Y-59562628D01*
X87557512Y-59449572D01*
X87591300Y-59323473D01*
X87591300Y-59192927D01*
X87557512Y-59066828D01*
X87492239Y-58953772D01*
X87399928Y-58861461D01*
X87286872Y-58796188D01*
X87286871Y-58796187D01*
X87286870Y-58796187D01*
X87160773Y-58762400D01*
X87030227Y-58762400D01*
X86904129Y-58796187D01*
X86791070Y-58861462D01*
X86698762Y-58953770D01*
X86633487Y-59066829D01*
X86611936Y-59147261D01*
X86599700Y-59192927D01*
X85368488Y-59192927D01*
X85316448Y-59140887D01*
X85232351Y-59092333D01*
X85232350Y-59092332D01*
X85232349Y-59092332D01*
X85138553Y-59067200D01*
X85041447Y-59067200D01*
X84947650Y-59092332D01*
X84863554Y-59140885D01*
X84794885Y-59209554D01*
X84746332Y-59293650D01*
X84721200Y-59387447D01*
X78730202Y-59387447D01*
X78726804Y-59380161D01*
X78742367Y-59322083D01*
X78752209Y-59310351D01*
X78781113Y-59281448D01*
X78829667Y-59197351D01*
X78854800Y-59103553D01*
X78854800Y-59006447D01*
X78842894Y-58962012D01*
X78829667Y-58912648D01*
X78829666Y-58912646D01*
X78801455Y-58863784D01*
X78791013Y-58804571D01*
X78821077Y-58752499D01*
X78833623Y-58743713D01*
X78855448Y-58731113D01*
X78924113Y-58662448D01*
X78972667Y-58578351D01*
X78997800Y-58484553D01*
X78997800Y-58387447D01*
X78972667Y-58293649D01*
X78944260Y-58244447D01*
X84772000Y-58244447D01*
X84772000Y-58341552D01*
X84797132Y-58435349D01*
X84825539Y-58484552D01*
X84845687Y-58519448D01*
X84914352Y-58588113D01*
X84998449Y-58636667D01*
X85092247Y-58661800D01*
X85189352Y-58661800D01*
X85189353Y-58661800D01*
X85283151Y-58636667D01*
X85293737Y-58630555D01*
X91503000Y-58630555D01*
X91503000Y-58768245D01*
X91508558Y-58796187D01*
X91529860Y-58903287D01*
X91529861Y-58903291D01*
X91554185Y-58962012D01*
X91582554Y-59030501D01*
X91659051Y-59144986D01*
X91756414Y-59242349D01*
X91870899Y-59318846D01*
X91952459Y-59352629D01*
X91998108Y-59371538D01*
X91998112Y-59371539D01*
X92041460Y-59380161D01*
X92133155Y-59398400D01*
X92133157Y-59398400D01*
X92270843Y-59398400D01*
X92270845Y-59398400D01*
X92362540Y-59380161D01*
X92405887Y-59371539D01*
X92405891Y-59371538D01*
X92533101Y-59318846D01*
X92647586Y-59242349D01*
X92652488Y-59237447D01*
X95643200Y-59237447D01*
X95643200Y-59334553D01*
X95650064Y-59360170D01*
X95668332Y-59428349D01*
X95707226Y-59495716D01*
X95716887Y-59512448D01*
X95785552Y-59581113D01*
X95869649Y-59629667D01*
X95963447Y-59654800D01*
X96060552Y-59654800D01*
X96060553Y-59654800D01*
X96154351Y-59629667D01*
X96238448Y-59581113D01*
X96307113Y-59512448D01*
X96355667Y-59428351D01*
X96380800Y-59334553D01*
X96380800Y-59237447D01*
X96355667Y-59143649D01*
X96307113Y-59059552D01*
X96238448Y-58990887D01*
X96154351Y-58942333D01*
X96154350Y-58942332D01*
X96154349Y-58942332D01*
X96060553Y-58917200D01*
X95963447Y-58917200D01*
X95869650Y-58942332D01*
X95785554Y-58990885D01*
X95716885Y-59059554D01*
X95668332Y-59143650D01*
X95647439Y-59221628D01*
X95643200Y-59237447D01*
X92652488Y-59237447D01*
X92744949Y-59144986D01*
X92821446Y-59030501D01*
X92874138Y-58903291D01*
X92901000Y-58768245D01*
X92901000Y-58630555D01*
X92887778Y-58564082D01*
X92874139Y-58495512D01*
X92874138Y-58495508D01*
X92863224Y-58469162D01*
X92821446Y-58368299D01*
X92744949Y-58253814D01*
X92647586Y-58156451D01*
X92533101Y-58079954D01*
X92463132Y-58050972D01*
X92405891Y-58027261D01*
X92405887Y-58027260D01*
X92303201Y-58006836D01*
X92270845Y-58000400D01*
X92133155Y-58000400D01*
X92103328Y-58006332D01*
X91998112Y-58027260D01*
X91998108Y-58027261D01*
X91908157Y-58064521D01*
X91870899Y-58079954D01*
X91862957Y-58085261D01*
X91756416Y-58156449D01*
X91659049Y-58253816D01*
X91608053Y-58330137D01*
X91582554Y-58368299D01*
X91574623Y-58387447D01*
X91529861Y-58495508D01*
X91529860Y-58495512D01*
X91511442Y-58588113D01*
X91503000Y-58630555D01*
X85293737Y-58630555D01*
X85367248Y-58588113D01*
X85435913Y-58519448D01*
X85484467Y-58435351D01*
X85509600Y-58341553D01*
X85509600Y-58244447D01*
X85497075Y-58197702D01*
X85502316Y-58137805D01*
X85538031Y-58098829D01*
X85543409Y-58095724D01*
X85570448Y-58080113D01*
X85639113Y-58011448D01*
X85687667Y-57927351D01*
X85712800Y-57833553D01*
X85712800Y-57736447D01*
X87388200Y-57736447D01*
X87388200Y-57833553D01*
X87392970Y-57851354D01*
X87412488Y-57924200D01*
X87413333Y-57927351D01*
X87461887Y-58011448D01*
X87530552Y-58080113D01*
X87614649Y-58128667D01*
X87708447Y-58153800D01*
X87805552Y-58153800D01*
X87805553Y-58153800D01*
X87899351Y-58128667D01*
X87983448Y-58080113D01*
X88052113Y-58011448D01*
X88100667Y-57927351D01*
X88125800Y-57833553D01*
X88125800Y-57736447D01*
X88100667Y-57642649D01*
X88052113Y-57558552D01*
X87983448Y-57489887D01*
X87955910Y-57473988D01*
X87923634Y-57455353D01*
X87899351Y-57441333D01*
X87899350Y-57441332D01*
X87899349Y-57441332D01*
X87805553Y-57416200D01*
X87708447Y-57416200D01*
X87614650Y-57441332D01*
X87530554Y-57489885D01*
X87461885Y-57558554D01*
X87413332Y-57642650D01*
X87392819Y-57719207D01*
X87388200Y-57736447D01*
X85712800Y-57736447D01*
X85708181Y-57719207D01*
X85687667Y-57642648D01*
X85687666Y-57642646D01*
X85652961Y-57582536D01*
X85642519Y-57523323D01*
X85672583Y-57471251D01*
X85685132Y-57462463D01*
X85697448Y-57455353D01*
X85766113Y-57386688D01*
X85814667Y-57302591D01*
X85839800Y-57208793D01*
X85839800Y-57111687D01*
X85814667Y-57017889D01*
X85766113Y-56933792D01*
X85697448Y-56865127D01*
X85613351Y-56816573D01*
X85613350Y-56816572D01*
X85613349Y-56816572D01*
X85519553Y-56791440D01*
X85422447Y-56791440D01*
X85328650Y-56816572D01*
X85244554Y-56865125D01*
X85175885Y-56933794D01*
X85127332Y-57017890D01*
X85102200Y-57111687D01*
X85102200Y-57208792D01*
X85127332Y-57302589D01*
X85162039Y-57362703D01*
X85172480Y-57421917D01*
X85142416Y-57473988D01*
X85129869Y-57482775D01*
X85117554Y-57489885D01*
X85048885Y-57558554D01*
X85000332Y-57642650D01*
X84975200Y-57736447D01*
X84975200Y-57833554D01*
X84987724Y-57880297D01*
X84982483Y-57940195D01*
X84946771Y-57979169D01*
X84914354Y-57997885D01*
X84845685Y-58066554D01*
X84797132Y-58150650D01*
X84772000Y-58244447D01*
X78944260Y-58244447D01*
X78924113Y-58209552D01*
X78864777Y-58150216D01*
X78839367Y-58095724D01*
X78845726Y-58054419D01*
X78847145Y-58050990D01*
X78847152Y-58050979D01*
X78872285Y-57957181D01*
X78872285Y-57860075D01*
X78847152Y-57766277D01*
X78798598Y-57682180D01*
X78729933Y-57613515D01*
X78645836Y-57564961D01*
X78645835Y-57564960D01*
X78645834Y-57564960D01*
X78552038Y-57539828D01*
X78454932Y-57539828D01*
X78361135Y-57564960D01*
X78277039Y-57613513D01*
X78208370Y-57682182D01*
X78159817Y-57766278D01*
X78134685Y-57860075D01*
X78134685Y-57957180D01*
X78150926Y-58017794D01*
X78145685Y-58077693D01*
X78103169Y-58120209D01*
X78043270Y-58125449D01*
X78009591Y-58106004D01*
X78009003Y-58106771D01*
X78004431Y-58103263D01*
X77996751Y-58098829D01*
X77891372Y-58037988D01*
X77891371Y-58037987D01*
X77891370Y-58037987D01*
X77765273Y-58004200D01*
X77634727Y-58004200D01*
X77508629Y-58037987D01*
X77395570Y-58103262D01*
X77303262Y-58195570D01*
X77237987Y-58308629D01*
X77212981Y-58401955D01*
X77204200Y-58434727D01*
X75360800Y-58434727D01*
X75360800Y-58416727D01*
X75327012Y-58290628D01*
X75261739Y-58177572D01*
X75169428Y-58085261D01*
X75056372Y-58019988D01*
X75056371Y-58019987D01*
X75056370Y-58019987D01*
X74930273Y-57986200D01*
X74799727Y-57986200D01*
X74673629Y-58019987D01*
X74560570Y-58085262D01*
X74468262Y-58177570D01*
X74402987Y-58290629D01*
X74369200Y-58416727D01*
X72885800Y-58416727D01*
X72885800Y-58354727D01*
X72852012Y-58228628D01*
X72786739Y-58115572D01*
X72694428Y-58023261D01*
X72581372Y-57957988D01*
X72581371Y-57957987D01*
X72581370Y-57957987D01*
X72455273Y-57924200D01*
X72324727Y-57924200D01*
X72198629Y-57957987D01*
X72085570Y-58023262D01*
X71993262Y-58115570D01*
X71927987Y-58228629D01*
X71906552Y-58308628D01*
X71894200Y-58354727D01*
X61532000Y-58354727D01*
X61498212Y-58228628D01*
X61432939Y-58115572D01*
X61340628Y-58023261D01*
X61227572Y-57957988D01*
X61227571Y-57957987D01*
X61227570Y-57957987D01*
X61101473Y-57924200D01*
X60970927Y-57924200D01*
X60844829Y-57957987D01*
X60731770Y-58023262D01*
X60639462Y-58115570D01*
X60574187Y-58228629D01*
X60552752Y-58308628D01*
X60540400Y-58354727D01*
X53953406Y-58354727D01*
X53935939Y-58266912D01*
X53935938Y-58266908D01*
X53920082Y-58228629D01*
X53883246Y-58139699D01*
X53806749Y-58025214D01*
X53709386Y-57927851D01*
X53594901Y-57851354D01*
X53531296Y-57825008D01*
X53467691Y-57798661D01*
X53467687Y-57798660D01*
X53366174Y-57778469D01*
X53332645Y-57771800D01*
X53194955Y-57771800D01*
X53165128Y-57777732D01*
X53059912Y-57798660D01*
X53059908Y-57798661D01*
X52975672Y-57833554D01*
X52932699Y-57851354D01*
X52894537Y-57876853D01*
X52818216Y-57927849D01*
X52720849Y-58025216D01*
X52680728Y-58085262D01*
X52644354Y-58139699D01*
X52628921Y-58176957D01*
X52591661Y-58266908D01*
X52591660Y-58266912D01*
X52568134Y-58385190D01*
X52564800Y-58401955D01*
X50978300Y-58401955D01*
X50978300Y-57144489D01*
X69460300Y-57144489D01*
X69460300Y-57230511D01*
X69461999Y-57236850D01*
X69479613Y-57302591D01*
X69482564Y-57313601D01*
X69525575Y-57388098D01*
X69586402Y-57448925D01*
X69660899Y-57491936D01*
X69743989Y-57514200D01*
X69792400Y-57514200D01*
X69813857Y-57522009D01*
X69836350Y-57525976D01*
X69841448Y-57532052D01*
X69848901Y-57534765D01*
X69860319Y-57554541D01*
X69874999Y-57572036D01*
X69877012Y-57583453D01*
X69878965Y-57586836D01*
X69880300Y-57602100D01*
X69880300Y-57612900D01*
X69859735Y-57669401D01*
X69807664Y-57699465D01*
X69792400Y-57700800D01*
X69743989Y-57700800D01*
X69660900Y-57723063D01*
X69586402Y-57766075D01*
X69525575Y-57826902D01*
X69482563Y-57901400D01*
X69461725Y-57979169D01*
X69460300Y-57984489D01*
X69460300Y-58070511D01*
X69464252Y-58085261D01*
X69481657Y-58150218D01*
X69482564Y-58153601D01*
X69525575Y-58228098D01*
X69586402Y-58288925D01*
X69660899Y-58331936D01*
X69743989Y-58354200D01*
X69830010Y-58354200D01*
X69830011Y-58354200D01*
X69913101Y-58331936D01*
X69987598Y-58288925D01*
X70048425Y-58228098D01*
X70091436Y-58153601D01*
X70113700Y-58070511D01*
X70113700Y-58022100D01*
X70121509Y-58000642D01*
X70125476Y-57978150D01*
X70131552Y-57973051D01*
X70134265Y-57965599D01*
X70154041Y-57954180D01*
X70171536Y-57939501D01*
X70182953Y-57937487D01*
X70186336Y-57935535D01*
X70201600Y-57934200D01*
X70212400Y-57934200D01*
X70268901Y-57954765D01*
X70298965Y-58006836D01*
X70300300Y-58022100D01*
X70300300Y-58070511D01*
X70304252Y-58085261D01*
X70321657Y-58150218D01*
X70322564Y-58153601D01*
X70365575Y-58228098D01*
X70426402Y-58288925D01*
X70500899Y-58331936D01*
X70583989Y-58354200D01*
X70670010Y-58354200D01*
X70670011Y-58354200D01*
X70753101Y-58331936D01*
X70827598Y-58288925D01*
X70888425Y-58228098D01*
X70931436Y-58153601D01*
X70953700Y-58070511D01*
X70953700Y-57984489D01*
X70931436Y-57901399D01*
X70888425Y-57826902D01*
X70827598Y-57766075D01*
X70753101Y-57723064D01*
X70753100Y-57723063D01*
X70753099Y-57723063D01*
X70670011Y-57700800D01*
X70621600Y-57700800D01*
X70600142Y-57692990D01*
X70577650Y-57689024D01*
X70572551Y-57682947D01*
X70565099Y-57680235D01*
X70553680Y-57660458D01*
X70539001Y-57642964D01*
X70536987Y-57631546D01*
X70535035Y-57628164D01*
X70533700Y-57612900D01*
X70533700Y-57602100D01*
X70554265Y-57545599D01*
X70606336Y-57515535D01*
X70621600Y-57514200D01*
X70670010Y-57514200D01*
X70670011Y-57514200D01*
X70753101Y-57491936D01*
X70827598Y-57448925D01*
X70888425Y-57388098D01*
X70931436Y-57313601D01*
X70953700Y-57230511D01*
X70953700Y-57144489D01*
X70942167Y-57101447D01*
X72402200Y-57101447D01*
X72402200Y-57198552D01*
X72427332Y-57292349D01*
X72469428Y-57365262D01*
X72475887Y-57376448D01*
X72544552Y-57445113D01*
X72628649Y-57493667D01*
X72722447Y-57518800D01*
X72819552Y-57518800D01*
X72819553Y-57518800D01*
X72913351Y-57493667D01*
X72997448Y-57445113D01*
X73066113Y-57376448D01*
X73114667Y-57292351D01*
X73139800Y-57198553D01*
X73139800Y-57101447D01*
X73114667Y-57007649D01*
X73066113Y-56923552D01*
X72997448Y-56854887D01*
X72960183Y-56833372D01*
X72913349Y-56806332D01*
X72819553Y-56781200D01*
X72722447Y-56781200D01*
X72628650Y-56806332D01*
X72544554Y-56854885D01*
X72475885Y-56923554D01*
X72427332Y-57007650D01*
X72402200Y-57101447D01*
X70942167Y-57101447D01*
X70931436Y-57061399D01*
X70888425Y-56986902D01*
X70827598Y-56926075D01*
X70753101Y-56883064D01*
X70753100Y-56883063D01*
X70753099Y-56883063D01*
X70670011Y-56860800D01*
X70583989Y-56860800D01*
X70500900Y-56883063D01*
X70426402Y-56926075D01*
X70365575Y-56986902D01*
X70322563Y-57061400D01*
X70300300Y-57144489D01*
X70300300Y-57192900D01*
X70292490Y-57214357D01*
X70288524Y-57236850D01*
X70282447Y-57241948D01*
X70279735Y-57249401D01*
X70259958Y-57260819D01*
X70242464Y-57275499D01*
X70231046Y-57277512D01*
X70227664Y-57279465D01*
X70212400Y-57280800D01*
X70201600Y-57280800D01*
X70145099Y-57260235D01*
X70115035Y-57208164D01*
X70113700Y-57192900D01*
X70113700Y-57144489D01*
X70091759Y-57062604D01*
X70091436Y-57061399D01*
X70048425Y-56986902D01*
X69987598Y-56926075D01*
X69913101Y-56883064D01*
X69913100Y-56883063D01*
X69913099Y-56883063D01*
X69830011Y-56860800D01*
X69743989Y-56860800D01*
X69660900Y-56883063D01*
X69586402Y-56926075D01*
X69525575Y-56986902D01*
X69482563Y-57061400D01*
X69469089Y-57111687D01*
X69460300Y-57144489D01*
X50978300Y-57144489D01*
X50978300Y-56576727D01*
X64401200Y-56576727D01*
X64401200Y-56707273D01*
X64407464Y-56730649D01*
X64432596Y-56824447D01*
X64434988Y-56833372D01*
X64500261Y-56946428D01*
X64592572Y-57038739D01*
X64705628Y-57104012D01*
X64831727Y-57137800D01*
X64962272Y-57137800D01*
X64962273Y-57137800D01*
X65088372Y-57104012D01*
X65160093Y-57062603D01*
X65160095Y-57062603D01*
X65201426Y-57038740D01*
X65201425Y-57038740D01*
X65201428Y-57038739D01*
X65293739Y-56946428D01*
X65359012Y-56833372D01*
X65386650Y-56730227D01*
X77328700Y-56730227D01*
X77328700Y-56860773D01*
X77329866Y-56865125D01*
X77346197Y-56926075D01*
X77362488Y-56986872D01*
X77427761Y-57099928D01*
X77520072Y-57192239D01*
X77633128Y-57257512D01*
X77759227Y-57291300D01*
X77889772Y-57291300D01*
X77889773Y-57291300D01*
X78015872Y-57257512D01*
X78128928Y-57192239D01*
X78221239Y-57099928D01*
X78286512Y-56986872D01*
X78320300Y-56860773D01*
X78320300Y-56730227D01*
X78286512Y-56604128D01*
X78270692Y-56576727D01*
X86118200Y-56576727D01*
X86118200Y-56707273D01*
X86124464Y-56730649D01*
X86149596Y-56824447D01*
X86151988Y-56833372D01*
X86217261Y-56946428D01*
X86309572Y-57038739D01*
X86422628Y-57104012D01*
X86548727Y-57137800D01*
X86679272Y-57137800D01*
X86679273Y-57137800D01*
X86805372Y-57104012D01*
X86918428Y-57038739D01*
X87010739Y-56946428D01*
X87076012Y-56833372D01*
X87109800Y-56707273D01*
X87109800Y-56703727D01*
X90817200Y-56703727D01*
X90817200Y-56834273D01*
X90824300Y-56860772D01*
X90847251Y-56946428D01*
X90850988Y-56960372D01*
X90916261Y-57073428D01*
X91008572Y-57165739D01*
X91121628Y-57231012D01*
X91247727Y-57264800D01*
X91378272Y-57264800D01*
X91378273Y-57264800D01*
X91504372Y-57231012D01*
X91617428Y-57165739D01*
X91709739Y-57073428D01*
X91775012Y-56960372D01*
X91808800Y-56834273D01*
X91808800Y-56824447D01*
X93865200Y-56824447D01*
X93865200Y-56921553D01*
X93874398Y-56955883D01*
X93888269Y-57007650D01*
X93890333Y-57015351D01*
X93938887Y-57099448D01*
X94007552Y-57168113D01*
X94091649Y-57216667D01*
X94185447Y-57241800D01*
X94282552Y-57241800D01*
X94282553Y-57241800D01*
X94376351Y-57216667D01*
X94460448Y-57168113D01*
X94529113Y-57099448D01*
X94577667Y-57015351D01*
X94602800Y-56921553D01*
X94602800Y-56824447D01*
X94577667Y-56730649D01*
X94529113Y-56646552D01*
X94460448Y-56577887D01*
X94460001Y-56577629D01*
X94376349Y-56529332D01*
X94282553Y-56504200D01*
X94185447Y-56504200D01*
X94091650Y-56529332D01*
X94007554Y-56577885D01*
X93938885Y-56646554D01*
X93890332Y-56730650D01*
X93867310Y-56816572D01*
X93865200Y-56824447D01*
X91808800Y-56824447D01*
X91808800Y-56703727D01*
X91775012Y-56577628D01*
X91709739Y-56464572D01*
X91617428Y-56372261D01*
X91504372Y-56306988D01*
X91504371Y-56306987D01*
X91504370Y-56306987D01*
X91378273Y-56273200D01*
X91247727Y-56273200D01*
X91121629Y-56306987D01*
X91008570Y-56372262D01*
X90916262Y-56464570D01*
X90850987Y-56577629D01*
X90843887Y-56604128D01*
X90817200Y-56703727D01*
X87109800Y-56703727D01*
X87109800Y-56576727D01*
X87076012Y-56450628D01*
X87010739Y-56337572D01*
X86918428Y-56245261D01*
X86805372Y-56179988D01*
X86805371Y-56179987D01*
X86805370Y-56179987D01*
X86679273Y-56146200D01*
X86548727Y-56146200D01*
X86422629Y-56179987D01*
X86309570Y-56245262D01*
X86217262Y-56337570D01*
X86151987Y-56450629D01*
X86137633Y-56504200D01*
X86118200Y-56576727D01*
X78270692Y-56576727D01*
X78221239Y-56491072D01*
X78128928Y-56398761D01*
X78015872Y-56333488D01*
X78015871Y-56333487D01*
X78015870Y-56333487D01*
X77889773Y-56299700D01*
X77759227Y-56299700D01*
X77633129Y-56333487D01*
X77520070Y-56398762D01*
X77427762Y-56491070D01*
X77362487Y-56604129D01*
X77334851Y-56707272D01*
X77328700Y-56730227D01*
X65386650Y-56730227D01*
X65392800Y-56707273D01*
X65392800Y-56576727D01*
X65359012Y-56450628D01*
X65293739Y-56337572D01*
X65201428Y-56245261D01*
X65088372Y-56179988D01*
X65088371Y-56179987D01*
X65088370Y-56179987D01*
X65030909Y-56164591D01*
X64962273Y-56146200D01*
X64831727Y-56146200D01*
X64705629Y-56179987D01*
X64592570Y-56245262D01*
X64500262Y-56337570D01*
X64434987Y-56450629D01*
X64420633Y-56504200D01*
X64401200Y-56576727D01*
X50978300Y-56576727D01*
X50978300Y-55958447D01*
X54749200Y-55958447D01*
X54749200Y-56055552D01*
X54773488Y-56146200D01*
X54774333Y-56149351D01*
X54822887Y-56233448D01*
X54891552Y-56302113D01*
X54975649Y-56350667D01*
X55069447Y-56375800D01*
X55166552Y-56375800D01*
X55166553Y-56375800D01*
X55260351Y-56350667D01*
X55344448Y-56302113D01*
X55413113Y-56233448D01*
X55461667Y-56149351D01*
X55478790Y-56085447D01*
X72529200Y-56085447D01*
X72529200Y-56182552D01*
X72553488Y-56273200D01*
X72554333Y-56276351D01*
X72602887Y-56360448D01*
X72671552Y-56429113D01*
X72755649Y-56477667D01*
X72849447Y-56502800D01*
X72946552Y-56502800D01*
X72946553Y-56502800D01*
X73040351Y-56477667D01*
X73124448Y-56429113D01*
X73193113Y-56360448D01*
X73241667Y-56276351D01*
X73266800Y-56182553D01*
X73266800Y-56085447D01*
X73241667Y-55991649D01*
X73193113Y-55907552D01*
X73124448Y-55838887D01*
X73040351Y-55790333D01*
X73040350Y-55790332D01*
X73040349Y-55790332D01*
X72946553Y-55765200D01*
X72849447Y-55765200D01*
X72755650Y-55790332D01*
X72671554Y-55838885D01*
X72602885Y-55907554D01*
X72554332Y-55991650D01*
X72529200Y-56085447D01*
X55478790Y-56085447D01*
X55486800Y-56055553D01*
X55486800Y-55958447D01*
X55461667Y-55864649D01*
X55413113Y-55780552D01*
X55344448Y-55711887D01*
X55307183Y-55690372D01*
X55291133Y-55681105D01*
X55260351Y-55663333D01*
X55260350Y-55663332D01*
X55260349Y-55663332D01*
X55166553Y-55638200D01*
X55069447Y-55638200D01*
X54975650Y-55663332D01*
X54891554Y-55711885D01*
X54822885Y-55780554D01*
X54774332Y-55864650D01*
X54749200Y-55958447D01*
X50978300Y-55958447D01*
X50978300Y-54798727D01*
X68973200Y-54798727D01*
X68973200Y-54929272D01*
X69003536Y-55042491D01*
X69006988Y-55055372D01*
X69072261Y-55168428D01*
X69164572Y-55260739D01*
X69277628Y-55326012D01*
X69403727Y-55359800D01*
X69534272Y-55359800D01*
X69534273Y-55359800D01*
X69660372Y-55326012D01*
X69773428Y-55260739D01*
X69865739Y-55168428D01*
X69922886Y-55069447D01*
X70116200Y-55069447D01*
X70116200Y-55166553D01*
X70141333Y-55260351D01*
X70189887Y-55344448D01*
X70258552Y-55413113D01*
X70342649Y-55461667D01*
X70436447Y-55486800D01*
X70533552Y-55486800D01*
X70533553Y-55486800D01*
X70627351Y-55461667D01*
X70675744Y-55433727D01*
X74815200Y-55433727D01*
X74815200Y-55564272D01*
X74846730Y-55681948D01*
X74848988Y-55690372D01*
X74914261Y-55803428D01*
X75006572Y-55895739D01*
X75119628Y-55961012D01*
X75245727Y-55994800D01*
X75376272Y-55994800D01*
X75376273Y-55994800D01*
X75502372Y-55961012D01*
X75615428Y-55895739D01*
X75707739Y-55803428D01*
X75767484Y-55699947D01*
X79264700Y-55699947D01*
X79264700Y-55797053D01*
X79272001Y-55824300D01*
X79288781Y-55886928D01*
X79289833Y-55890851D01*
X79338387Y-55974948D01*
X79407052Y-56043613D01*
X79491149Y-56092167D01*
X79584947Y-56117300D01*
X79682052Y-56117300D01*
X79682053Y-56117300D01*
X79775851Y-56092167D01*
X79859948Y-56043613D01*
X79928613Y-55974948D01*
X79977167Y-55890851D01*
X80002300Y-55797053D01*
X80002300Y-55699947D01*
X79977167Y-55606149D01*
X79928613Y-55522052D01*
X79859948Y-55453387D01*
X79775851Y-55404833D01*
X79775850Y-55404832D01*
X79775849Y-55404832D01*
X79682053Y-55379700D01*
X79584947Y-55379700D01*
X79491150Y-55404832D01*
X79407054Y-55453385D01*
X79338385Y-55522054D01*
X79289832Y-55606150D01*
X79269523Y-55681948D01*
X79264700Y-55699947D01*
X75767484Y-55699947D01*
X75773012Y-55690372D01*
X75806800Y-55564273D01*
X75806800Y-55433727D01*
X75773012Y-55307628D01*
X75707739Y-55194572D01*
X75615428Y-55102261D01*
X75502372Y-55036988D01*
X75502371Y-55036987D01*
X75502370Y-55036987D01*
X75376273Y-55003200D01*
X75245727Y-55003200D01*
X75119629Y-55036987D01*
X75006570Y-55102262D01*
X74914262Y-55194570D01*
X74848987Y-55307629D01*
X74815200Y-55433727D01*
X70675744Y-55433727D01*
X70711448Y-55413113D01*
X70780113Y-55344448D01*
X70828667Y-55260351D01*
X70853800Y-55166553D01*
X70853800Y-55069447D01*
X70828667Y-54975649D01*
X70780113Y-54891552D01*
X70711448Y-54822887D01*
X70694415Y-54813053D01*
X70627349Y-54774332D01*
X70533553Y-54749200D01*
X70436447Y-54749200D01*
X70342650Y-54774332D01*
X70258554Y-54822885D01*
X70189885Y-54891554D01*
X70141332Y-54975650D01*
X70124897Y-55036988D01*
X70116200Y-55069447D01*
X69922886Y-55069447D01*
X69931012Y-55055372D01*
X69934212Y-55043428D01*
X69934880Y-55040937D01*
X69934880Y-55040936D01*
X69952373Y-54975650D01*
X69964800Y-54929273D01*
X69964800Y-54798727D01*
X69931012Y-54672628D01*
X69866822Y-54561447D01*
X83197200Y-54561447D01*
X83197200Y-54658553D01*
X83200972Y-54672629D01*
X83221488Y-54749200D01*
X83222333Y-54752351D01*
X83240105Y-54783133D01*
X83249108Y-54798727D01*
X83270887Y-54836448D01*
X83339552Y-54905113D01*
X83423649Y-54953667D01*
X83517447Y-54978800D01*
X83614552Y-54978800D01*
X83614553Y-54978800D01*
X83708351Y-54953667D01*
X83792448Y-54905113D01*
X83861113Y-54836448D01*
X83909667Y-54752351D01*
X83919421Y-54715947D01*
X86986700Y-54715947D01*
X86986700Y-54813053D01*
X86989335Y-54822887D01*
X87011832Y-54906849D01*
X87051554Y-54975650D01*
X87060387Y-54990948D01*
X87129052Y-55059613D01*
X87213149Y-55108167D01*
X87306947Y-55133300D01*
X87404052Y-55133300D01*
X87404053Y-55133300D01*
X87497851Y-55108167D01*
X87581948Y-55059613D01*
X87650613Y-54990948D01*
X87699167Y-54906851D01*
X87724300Y-54813053D01*
X87724300Y-54769756D01*
X91528400Y-54769756D01*
X91528400Y-54907443D01*
X91555260Y-55042487D01*
X91555261Y-55042491D01*
X91573574Y-55086700D01*
X91607954Y-55169701D01*
X91684451Y-55284186D01*
X91781814Y-55381549D01*
X91896299Y-55458046D01*
X91997162Y-55499824D01*
X92023508Y-55510738D01*
X92023512Y-55510739D01*
X92080389Y-55522052D01*
X92158555Y-55537600D01*
X92158557Y-55537600D01*
X92296243Y-55537600D01*
X92296245Y-55537600D01*
X92385457Y-55519854D01*
X92431287Y-55510739D01*
X92431291Y-55510738D01*
X92558501Y-55458046D01*
X92634975Y-55406947D01*
X95643200Y-55406947D01*
X95643200Y-55504052D01*
X95659335Y-55564272D01*
X95668333Y-55597851D01*
X95716887Y-55681948D01*
X95785552Y-55750613D01*
X95869649Y-55799167D01*
X95963447Y-55824300D01*
X96060552Y-55824300D01*
X96060553Y-55824300D01*
X96154351Y-55799167D01*
X96238448Y-55750613D01*
X96307113Y-55681948D01*
X96355667Y-55597851D01*
X96380800Y-55504053D01*
X96380800Y-55406947D01*
X96355667Y-55313149D01*
X96307113Y-55229052D01*
X96238448Y-55160387D01*
X96191532Y-55133300D01*
X96154349Y-55111832D01*
X96060553Y-55086700D01*
X95963447Y-55086700D01*
X95869650Y-55111832D01*
X95785554Y-55160385D01*
X95716885Y-55229054D01*
X95668332Y-55313150D01*
X95643200Y-55406947D01*
X92634975Y-55406947D01*
X92672986Y-55381549D01*
X92770349Y-55284186D01*
X92846846Y-55169701D01*
X92899538Y-55042491D01*
X92899848Y-55040936D01*
X92912833Y-54975650D01*
X92926400Y-54907445D01*
X92926400Y-54769755D01*
X92907081Y-54672629D01*
X92899539Y-54634712D01*
X92899538Y-54634708D01*
X92870254Y-54564012D01*
X92846846Y-54507499D01*
X92770349Y-54393014D01*
X92672986Y-54295651D01*
X92558501Y-54219154D01*
X92494896Y-54192808D01*
X92431291Y-54166461D01*
X92431287Y-54166460D01*
X92329774Y-54146269D01*
X92296245Y-54139600D01*
X92158555Y-54139600D01*
X92128728Y-54145532D01*
X92023512Y-54166460D01*
X92023508Y-54166461D01*
X91933557Y-54203721D01*
X91896299Y-54219154D01*
X91896298Y-54219155D01*
X91781816Y-54295649D01*
X91684449Y-54393016D01*
X91649919Y-54444694D01*
X91607954Y-54507499D01*
X91595299Y-54538052D01*
X91555261Y-54634708D01*
X91555260Y-54634712D01*
X91528400Y-54769756D01*
X87724300Y-54769756D01*
X87724300Y-54715947D01*
X87699167Y-54622149D01*
X87650613Y-54538052D01*
X87581948Y-54469387D01*
X87578939Y-54467650D01*
X87497849Y-54420832D01*
X87404053Y-54395700D01*
X87306947Y-54395700D01*
X87213150Y-54420832D01*
X87129054Y-54469385D01*
X87060385Y-54538054D01*
X87011832Y-54622150D01*
X87002078Y-54658554D01*
X86986700Y-54715947D01*
X83919421Y-54715947D01*
X83934800Y-54658553D01*
X83934800Y-54561447D01*
X83909667Y-54467649D01*
X83861113Y-54383552D01*
X83792448Y-54314887D01*
X83755183Y-54293372D01*
X83708349Y-54266332D01*
X83614553Y-54241200D01*
X83517447Y-54241200D01*
X83423650Y-54266332D01*
X83339554Y-54314885D01*
X83270885Y-54383554D01*
X83222332Y-54467650D01*
X83203468Y-54538054D01*
X83197200Y-54561447D01*
X69866822Y-54561447D01*
X69865739Y-54559572D01*
X69773428Y-54467261D01*
X69660372Y-54401988D01*
X69660371Y-54401987D01*
X69660370Y-54401987D01*
X69534273Y-54368200D01*
X69403727Y-54368200D01*
X69277629Y-54401987D01*
X69164570Y-54467262D01*
X69072262Y-54559570D01*
X69006987Y-54672629D01*
X68973200Y-54798727D01*
X50978300Y-54798727D01*
X50978300Y-54036727D01*
X61480200Y-54036727D01*
X61480200Y-54167272D01*
X61506742Y-54266332D01*
X61513988Y-54293372D01*
X61579261Y-54406428D01*
X61671572Y-54498739D01*
X61784628Y-54564012D01*
X61910727Y-54597800D01*
X62041272Y-54597800D01*
X62041273Y-54597800D01*
X62167372Y-54564012D01*
X62280428Y-54498739D01*
X62372739Y-54406428D01*
X62438012Y-54293372D01*
X62471800Y-54167273D01*
X62471800Y-54036727D01*
X62438012Y-53910628D01*
X62372739Y-53797572D01*
X62280428Y-53705261D01*
X62167372Y-53639988D01*
X62167371Y-53639987D01*
X62167370Y-53639987D01*
X62041273Y-53606200D01*
X61910727Y-53606200D01*
X61784629Y-53639987D01*
X61671570Y-53705262D01*
X61579262Y-53797570D01*
X61513987Y-53910629D01*
X61480200Y-54036727D01*
X50978300Y-54036727D01*
X50978300Y-53401727D01*
X73926200Y-53401727D01*
X73926200Y-53532272D01*
X73959235Y-53655565D01*
X73959988Y-53658372D01*
X74025261Y-53771428D01*
X74117572Y-53863739D01*
X74230628Y-53929012D01*
X74356727Y-53962800D01*
X74487272Y-53962800D01*
X74487273Y-53962800D01*
X74613372Y-53929012D01*
X74726428Y-53863739D01*
X74818739Y-53771428D01*
X74884012Y-53658372D01*
X74917800Y-53532273D01*
X74917800Y-53401727D01*
X74884012Y-53275628D01*
X74818739Y-53162572D01*
X74726428Y-53070261D01*
X74613372Y-53004988D01*
X74613371Y-53004987D01*
X74613370Y-53004987D01*
X74487273Y-52971200D01*
X74356727Y-52971200D01*
X74230629Y-53004987D01*
X74117570Y-53070262D01*
X74025262Y-53162570D01*
X73959987Y-53275629D01*
X73926200Y-53401727D01*
X50978300Y-53401727D01*
X50978300Y-52529447D01*
X59575200Y-52529447D01*
X59575200Y-52626553D01*
X59584016Y-52659454D01*
X59599818Y-52718431D01*
X59600333Y-52720351D01*
X59606043Y-52730241D01*
X59648884Y-52804444D01*
X59648887Y-52804448D01*
X59717552Y-52873113D01*
X59801649Y-52921667D01*
X59895447Y-52946800D01*
X59992552Y-52946800D01*
X59992553Y-52946800D01*
X60086351Y-52921667D01*
X60170448Y-52873113D01*
X60239113Y-52804448D01*
X60258748Y-52770440D01*
X79327700Y-52770440D01*
X79327700Y-53655563D01*
X79327701Y-53655565D01*
X79338043Y-53707565D01*
X79338043Y-53707566D01*
X79338044Y-53707568D01*
X79338045Y-53707569D01*
X79377453Y-53766547D01*
X79436431Y-53805955D01*
X79488439Y-53816300D01*
X79977848Y-53816299D01*
X80034349Y-53836864D01*
X80064413Y-53888935D01*
X80053973Y-53948146D01*
X80047333Y-53959646D01*
X80047332Y-53959648D01*
X80022200Y-54053447D01*
X80022200Y-54150552D01*
X80046488Y-54241200D01*
X80047333Y-54244351D01*
X80095887Y-54328448D01*
X80164552Y-54397113D01*
X80248649Y-54445667D01*
X80342447Y-54470800D01*
X80439553Y-54470800D01*
X80533351Y-54445667D01*
X80617448Y-54397113D01*
X80686113Y-54328448D01*
X80734667Y-54244351D01*
X80759800Y-54150553D01*
X80759800Y-54053447D01*
X80734667Y-53959649D01*
X80721465Y-53936784D01*
X80711025Y-53877571D01*
X80741089Y-53825500D01*
X80797590Y-53804935D01*
X80820339Y-53807930D01*
X80851574Y-53816300D01*
X81010425Y-53816300D01*
X81010426Y-53816300D01*
X81163865Y-53775186D01*
X81301435Y-53695760D01*
X81368845Y-53628350D01*
X81423339Y-53602939D01*
X81481417Y-53618502D01*
X81493155Y-53628350D01*
X81560565Y-53695760D01*
X81698135Y-53775186D01*
X81851574Y-53816300D01*
X82010425Y-53816300D01*
X82010426Y-53816300D01*
X82163865Y-53775186D01*
X82301435Y-53695760D01*
X82368845Y-53628350D01*
X82423339Y-53602939D01*
X82481417Y-53618502D01*
X82493155Y-53628350D01*
X82560565Y-53695760D01*
X82698135Y-53775186D01*
X82851574Y-53816300D01*
X83010425Y-53816300D01*
X83010426Y-53816300D01*
X83163865Y-53775186D01*
X83301435Y-53695760D01*
X83368845Y-53628350D01*
X83423339Y-53602939D01*
X83481417Y-53618502D01*
X83493155Y-53628350D01*
X83560565Y-53695760D01*
X83698135Y-53775186D01*
X83851574Y-53816300D01*
X84010425Y-53816300D01*
X84010426Y-53816300D01*
X84163865Y-53775186D01*
X84301435Y-53695760D01*
X84368845Y-53628350D01*
X84423339Y-53602939D01*
X84481417Y-53618502D01*
X84493155Y-53628350D01*
X84560565Y-53695760D01*
X84698135Y-53775186D01*
X84851574Y-53816300D01*
X85010425Y-53816300D01*
X85010426Y-53816300D01*
X85163865Y-53775186D01*
X85301435Y-53695760D01*
X85413760Y-53583435D01*
X85493186Y-53445865D01*
X85534300Y-53292426D01*
X85534300Y-53133574D01*
X85493186Y-52980134D01*
X85493185Y-52980132D01*
X85465349Y-52931919D01*
X85465347Y-52931917D01*
X85443298Y-52893727D01*
X90944200Y-52893727D01*
X90944200Y-53024272D01*
X90962093Y-53091053D01*
X90977988Y-53150372D01*
X91043261Y-53263428D01*
X91135572Y-53355739D01*
X91248628Y-53421012D01*
X91374727Y-53454800D01*
X91505272Y-53454800D01*
X91505273Y-53454800D01*
X91631372Y-53421012D01*
X91744428Y-53355739D01*
X91836739Y-53263428D01*
X91902012Y-53150372D01*
X91935800Y-53024273D01*
X91935800Y-52993947D01*
X93865200Y-52993947D01*
X93865200Y-53091052D01*
X93890332Y-53184849D01*
X93935700Y-53263429D01*
X93938887Y-53268948D01*
X94007552Y-53337613D01*
X94091649Y-53386167D01*
X94185447Y-53411300D01*
X94282552Y-53411300D01*
X94282553Y-53411300D01*
X94376351Y-53386167D01*
X94460448Y-53337613D01*
X94529113Y-53268948D01*
X94577667Y-53184851D01*
X94602800Y-53091053D01*
X94602800Y-52993947D01*
X94577667Y-52900149D01*
X94529113Y-52816052D01*
X94460448Y-52747387D01*
X94376351Y-52698833D01*
X94376350Y-52698832D01*
X94376349Y-52698832D01*
X94282553Y-52673700D01*
X94185447Y-52673700D01*
X94091650Y-52698832D01*
X94007554Y-52747385D01*
X93938885Y-52816054D01*
X93890332Y-52900150D01*
X93865200Y-52993947D01*
X91935800Y-52993947D01*
X91935800Y-52893727D01*
X91902012Y-52767628D01*
X91836739Y-52654572D01*
X91744428Y-52562261D01*
X91631372Y-52496988D01*
X91631371Y-52496987D01*
X91631370Y-52496987D01*
X91505273Y-52463200D01*
X91374727Y-52463200D01*
X91248629Y-52496987D01*
X91135570Y-52562262D01*
X91043262Y-52654570D01*
X90977987Y-52767629D01*
X90944200Y-52893727D01*
X85443298Y-52893727D01*
X85413760Y-52842565D01*
X85301435Y-52730240D01*
X85163865Y-52650814D01*
X85163864Y-52650813D01*
X85163863Y-52650813D01*
X85010426Y-52609700D01*
X84851574Y-52609700D01*
X84698136Y-52650813D01*
X84560563Y-52730241D01*
X84493155Y-52797650D01*
X84438661Y-52823061D01*
X84380583Y-52807498D01*
X84368845Y-52797650D01*
X84301436Y-52730241D01*
X84301435Y-52730240D01*
X84163865Y-52650814D01*
X84163864Y-52650813D01*
X84163863Y-52650813D01*
X84010426Y-52609700D01*
X83851574Y-52609700D01*
X83698136Y-52650813D01*
X83560563Y-52730241D01*
X83493155Y-52797650D01*
X83438661Y-52823061D01*
X83380583Y-52807498D01*
X83368845Y-52797650D01*
X83301436Y-52730241D01*
X83301435Y-52730240D01*
X83163865Y-52650814D01*
X83163864Y-52650813D01*
X83163863Y-52650813D01*
X83010426Y-52609700D01*
X82851574Y-52609700D01*
X82698136Y-52650813D01*
X82560563Y-52730241D01*
X82493155Y-52797650D01*
X82438661Y-52823061D01*
X82380583Y-52807498D01*
X82368845Y-52797650D01*
X82301436Y-52730241D01*
X82301435Y-52730240D01*
X82163865Y-52650814D01*
X82163864Y-52650813D01*
X82163863Y-52650813D01*
X82010426Y-52609700D01*
X81851574Y-52609700D01*
X81698136Y-52650813D01*
X81560563Y-52730241D01*
X81493155Y-52797650D01*
X81438661Y-52823061D01*
X81380583Y-52807498D01*
X81368845Y-52797650D01*
X81301436Y-52730241D01*
X81301435Y-52730240D01*
X81163865Y-52650814D01*
X81163864Y-52650813D01*
X81163863Y-52650813D01*
X81010426Y-52609700D01*
X80851574Y-52609700D01*
X80698136Y-52650813D01*
X80611137Y-52701042D01*
X80551923Y-52711483D01*
X80499851Y-52681419D01*
X80494106Y-52673759D01*
X80484547Y-52659453D01*
X80425569Y-52620045D01*
X80373561Y-52609700D01*
X80373559Y-52609700D01*
X79488436Y-52609700D01*
X79488434Y-52609701D01*
X79436434Y-52620043D01*
X79436433Y-52620043D01*
X79377454Y-52659452D01*
X79377452Y-52659454D01*
X79338045Y-52718431D01*
X79327700Y-52770440D01*
X60258748Y-52770440D01*
X60286617Y-52722171D01*
X60287079Y-52721367D01*
X60287667Y-52720351D01*
X60312800Y-52626553D01*
X60312800Y-52529447D01*
X60287667Y-52435649D01*
X60239113Y-52351552D01*
X60170448Y-52282887D01*
X60157562Y-52275447D01*
X87007200Y-52275447D01*
X87007200Y-52372552D01*
X87031488Y-52463200D01*
X87032333Y-52466351D01*
X87080887Y-52550448D01*
X87149552Y-52619113D01*
X87233649Y-52667667D01*
X87327447Y-52692800D01*
X87424552Y-52692800D01*
X87424553Y-52692800D01*
X87518351Y-52667667D01*
X87602448Y-52619113D01*
X87671113Y-52550448D01*
X87719667Y-52466351D01*
X87744800Y-52372553D01*
X87744800Y-52275447D01*
X87719667Y-52181649D01*
X87671113Y-52097552D01*
X87602448Y-52028887D01*
X87518351Y-51980333D01*
X87518350Y-51980332D01*
X87518349Y-51980332D01*
X87424553Y-51955200D01*
X87327447Y-51955200D01*
X87233650Y-51980332D01*
X87149554Y-52028885D01*
X87080885Y-52097554D01*
X87032332Y-52181650D01*
X87007200Y-52275447D01*
X60157562Y-52275447D01*
X60086351Y-52234333D01*
X60086350Y-52234332D01*
X60086349Y-52234332D01*
X59992553Y-52209200D01*
X59895447Y-52209200D01*
X59801650Y-52234332D01*
X59717554Y-52282885D01*
X59648885Y-52351554D01*
X59600332Y-52435650D01*
X59583897Y-52496988D01*
X59575200Y-52529447D01*
X50978300Y-52529447D01*
X50978300Y-51440761D01*
X50979052Y-51429288D01*
X50988846Y-51354897D01*
X50992352Y-51328266D01*
X50998288Y-51306110D01*
X51035059Y-51217336D01*
X51046527Y-51197473D01*
X51105019Y-51121244D01*
X51121245Y-51105019D01*
X51197473Y-51046527D01*
X51217336Y-51035059D01*
X51306110Y-50998288D01*
X51328266Y-50992352D01*
X51429288Y-50979051D01*
X51440761Y-50978300D01*
X98463035Y-50978300D01*
X98519536Y-50998865D01*
G37*
%TD.AperFunction*%
%TD*%
M02*
