M48
; DRILL file {KiCad 9.0.2-9.0.2-0~ubuntu24.04.1} date 2025-07-08T13:33:00-0400
; FORMAT={-:-/ absolute / metric / decimal}
; #@! TF.CreationDate,2025-07-08T13:33:00-04:00
; #@! TF.GenerationSoftware,Kicad,Pcbnew,9.0.2-9.0.2-0~ubuntu24.04.1
; #@! TF.FileFunction,Plated,1,6,PTH
FMAT,2
METRIC
; #@! TA.AperFunction,Plated,PTH,ComponentDrill
T1C0.152
; #@! TA.AperFunction,Plated,PTH,ComponentDrill
T2C0.200
; #@! TA.AperFunction,Plated,PTH,ViaDrill
T3C0.203
; #@! TA.AperFunction,Plated,PTH,ViaDrill
T4C0.254
; #@! TA.AperFunction,Plated,PTH,ComponentDrill
T5C0.500
%
G90
G05
T1
X69.787Y-57.188
X69.787Y-58.027
X70.207Y-57.607
X70.627Y-57.188
X70.627Y-58.027
T2
X67.311Y-80.715
X67.311Y-81.815
X77.849Y-80.715
X77.849Y-81.815
T3
X55.118Y-56.007
X59.944Y-52.578
X63.119Y-81.026
X64.743Y-81.052
X65.943Y-80.615
X68.565Y-81.265
X68.58Y-80.645
X68.58Y-81.915
X70.485Y-55.118
X70.739Y-73.533
X70.993Y-59.944
X71.374Y-60.706
X72.644Y-77.724
X72.746Y-60.731
X72.771Y-57.15
X72.898Y-56.134
X72.898Y-59.563
X73.533Y-78.994
X74.93Y-73.279
X74.93Y-77.089
X76.454Y-80.645
X77.978Y-62.992
X78.359Y-68.707
X78.486Y-59.055
X78.486Y-59.69
X78.503Y-57.909
X78.629Y-58.436
X79.2Y-81.3
X79.218Y-80.615
X79.248Y-81.915
X79.633Y-55.748
X80.391Y-54.102
X80.637Y-76.192
X80.645Y-75.692
X80.645Y-81.026
X80.772Y-74.041
X80.899Y-68.453
X80.926Y-61.611
X81.407Y-74.676
X81.809Y-61.548
X82.351Y-75.95
X82.432Y-75.069
X82.566Y-76.692
X82.677Y-61.976
X83.185Y-81.788
X83.312Y-78.613
X83.566Y-54.61
X84.066Y-61.957
X84.074Y-72.263
X84.277Y-60.884
X84.383Y-68.075
X84.963Y-75.561
X85.09Y-59.436
X85.141Y-58.293
X85.344Y-57.785
X85.344Y-78.105
X85.348Y-61.341
X85.348Y-76.342
X85.471Y-57.16
X86.524Y-66.003
X86.61Y-64.008
X86.614Y-77.343
X86.892Y-81.431
X87.355Y-54.764
X87.376Y-52.324
X87.757Y-57.785
X87.757Y-64.389
X88.519Y-69.342
X89.003Y-71.779
X89.027Y-67.945
X89.14Y-79.516
X89.154Y-73.787
X90.273Y-75.716
X90.297Y-69.977
X91.035Y-66.953
X91.059Y-63.627
X91.059Y-72.771
X94.234Y-53.042
X94.234Y-56.873
X94.234Y-60.592
X94.234Y-64.386
X94.234Y-68.199
X94.234Y-72.006
X94.234Y-75.832
X94.234Y-79.769
X96.012Y-55.456
X96.012Y-59.286
X96.012Y-63.005
X96.012Y-66.799
X96.012Y-70.612
X96.012Y-74.419
X96.012Y-78.245
X96.012Y-82.182
X99.695Y-52.534
X99.695Y-56.365
X99.695Y-60.084
X99.695Y-63.878
X99.695Y-67.691
X99.695Y-71.498
X99.695Y-75.325
X99.695Y-79.261
T4
X53.0Y-77.5
X53.188Y-66.015
X53.188Y-67.335
X53.188Y-68.656
X53.213Y-62.205
X53.213Y-63.424
X53.213Y-64.77
X53.213Y-69.825
X53.213Y-71.145
X53.213Y-72.339
X53.238Y-59.69
X53.238Y-60.96
X53.238Y-73.482
X53.264Y-58.471
X53.264Y-74.93
X53.264Y-76.225
X57.125Y-77.445
X57.175Y-75.185
X57.252Y-62.205
X57.252Y-69.825
X57.277Y-59.665
X57.277Y-64.795
X57.277Y-67.31
X57.302Y-72.39
X60.985Y-63.475
X60.985Y-71.145
X61.011Y-60.96
X61.011Y-76.175
X61.036Y-58.42
X61.036Y-66.04
X61.036Y-68.605
X61.036Y-73.407
X61.976Y-54.102
X63.144Y-60.526
X63.881Y-73.406
X63.989Y-59.544
X64.897Y-56.642
X65.001Y-76.096
X66.294Y-76.962
X69.469Y-54.864
X69.85Y-80.899
X71.5Y-77.6
X71.602Y-80.925
X72.39Y-58.42
X73.636Y-75.207
X73.686Y-80.925
X74.422Y-53.467
X74.865Y-58.482
X75.311Y-55.499
X75.311Y-80.899
X75.438Y-60.833
X76.073Y-68.707
X76.327Y-74.803
X76.327Y-76.454
X77.7Y-58.5
X77.825Y-56.795
X77.851Y-64.77
X79.248Y-74.041
X86.614Y-56.642
X87.096Y-59.258
X91.186Y-61.722
X91.313Y-56.769
X91.44Y-52.959
X91.567Y-60.325
X92.05Y-66.015
X92.075Y-64.77
X92.075Y-67.31
X92.075Y-68.58
X92.075Y-71.12
X92.075Y-72.39
X92.076Y-70.004
X92.126Y-62.357
X92.202Y-58.699
X92.227Y-54.839
X92.481Y-77.648
X92.507Y-81.559
X92.558Y-73.762
X96.124Y-54.174
X96.124Y-58.005
X96.124Y-61.724
X96.124Y-65.518
X96.124Y-69.331
X96.124Y-73.138
X96.124Y-76.964
X96.124Y-80.901
X98.171Y-53.931
X98.171Y-57.762
X98.171Y-61.481
X98.171Y-65.275
X98.171Y-69.088
X98.171Y-72.895
X98.171Y-76.721
X98.171Y-80.658
X99.06Y-55.582
X99.06Y-59.413
X99.06Y-63.133
X99.06Y-66.926
X99.06Y-70.739
X99.06Y-74.546
X99.06Y-78.373
X99.06Y-82.309
X101.674Y-55.615
X101.674Y-59.445
X101.674Y-63.165
X101.674Y-66.958
X101.674Y-70.771
X101.674Y-74.578
X101.674Y-78.405
X101.674Y-82.342
X103.629Y-53.172
X103.629Y-54.823
X103.629Y-57.003
X103.629Y-58.654
X103.629Y-60.722
X103.629Y-62.373
X103.629Y-64.516
X103.629Y-66.167
X103.629Y-68.329
X103.629Y-69.98
X103.629Y-72.136
X103.629Y-73.787
X103.629Y-75.962
X103.629Y-77.614
X103.629Y-79.9
X103.629Y-81.55
X113.088Y-57.358
X113.088Y-59.898
X113.088Y-62.565
X113.088Y-65.105
X113.088Y-67.645
X113.088Y-70.185
X113.088Y-72.598
X113.088Y-75.138
T5
X79.931Y-53.213
X80.931Y-53.213
X81.931Y-53.213
X82.931Y-53.213
X83.931Y-53.213
X84.931Y-53.213
M30
