G75*
%MOIN*%
%OFA0B0*%
%FSLAX25Y25*%
%IPPOS*%
%LPD*%
%AMOC8*
5,1,8,0,0,1.08239X$1,22.5*
%
%ADD10C,0.06496*%
%ADD11C,0.07087*%
%ADD12C,0.05315*%
%ADD13C,0.01800*%
%ADD14C,0.00800*%
%ADD15C,0.01600*%
%ADD16C,0.01200*%
%ADD17C,0.00500*%
D10*
X0156500Y0029550D03*
D11*
X0167220Y0018050D03*
X0194780Y0018050D03*
D12*
X0190843Y0028680D03*
X0171157Y0028680D03*
D13*
X0173000Y0035050D03*
X0172000Y0038050D03*
X0168000Y0038050D03*
X0163000Y0047050D03*
X0174000Y0048550D03*
X0176500Y0049550D03*
X0182000Y0049550D03*
X0184500Y0049050D03*
X0188000Y0057050D03*
X0188000Y0063050D03*
X0184000Y0067050D03*
X0180000Y0071050D03*
X0188000Y0071050D03*
X0180000Y0063050D03*
X0166500Y0056550D03*
X0164000Y0056050D03*
X0158500Y0063550D03*
X0158000Y0066550D03*
X0155000Y0067050D03*
X0159500Y0068550D03*
X0162000Y0070050D03*
X0166500Y0071050D03*
X0164000Y0065050D03*
X0150000Y0057050D03*
X0148500Y0053550D03*
X0143500Y0048550D03*
X0135500Y0051050D03*
X0130500Y0049550D03*
X0126500Y0053050D03*
X0116000Y0058050D03*
X0108000Y0064050D03*
X0111000Y0068050D03*
X0118000Y0071050D03*
X0122000Y0073550D03*
X0116000Y0078550D03*
X0127000Y0080550D03*
X0131500Y0085050D03*
X0135000Y0082550D03*
X0144000Y0085550D03*
X0150000Y0081050D03*
X0152000Y0083550D03*
X0164000Y0083550D03*
X0181000Y0084550D03*
X0183500Y0084550D03*
X0191500Y0087050D03*
X0192000Y0084550D03*
X0188500Y0089550D03*
X0192500Y0092050D03*
X0185000Y0099550D03*
X0194000Y0103050D03*
X0190000Y0110050D03*
X0187000Y0110050D03*
X0190500Y0113550D03*
X0190500Y0116550D03*
X0186000Y0121550D03*
X0178000Y0118050D03*
X0178000Y0115050D03*
X0174000Y0115050D03*
X0174000Y0118050D03*
X0170500Y0121550D03*
X0165000Y0121550D03*
X0169000Y0129050D03*
X0144000Y0129050D03*
X0134000Y0124050D03*
X0131000Y0124050D03*
X0119000Y0129050D03*
X0116000Y0124050D03*
X0108500Y0117550D03*
X0100500Y0113050D03*
X0101500Y0110550D03*
X0098500Y0116050D03*
X0096000Y0117550D03*
X0093500Y0116050D03*
X0082000Y0112050D03*
X0091000Y0097050D03*
X0094000Y0094050D03*
X0091000Y0091050D03*
X0097000Y0091050D03*
X0097000Y0097050D03*
X0106000Y0097050D03*
X0106000Y0094050D03*
X0106000Y0091550D03*
X0116000Y0093050D03*
X0116000Y0089550D03*
X0116000Y0097050D03*
X0116000Y0101050D03*
X0127000Y0106050D03*
X0130500Y0103550D03*
X0135000Y0105550D03*
X0143500Y0103050D03*
X0148500Y0107550D03*
X0150000Y0111050D03*
X0155500Y0114050D03*
X0140500Y0114550D03*
X0137000Y0114550D03*
X0116000Y0112050D03*
X0094000Y0129050D03*
X0069000Y0129050D03*
X0044000Y0129050D03*
X0019000Y0129050D03*
X0007000Y0117050D03*
X0029000Y0107050D03*
X0029000Y0102050D03*
X0029000Y0097050D03*
X0029000Y0092050D03*
X0029000Y0087050D03*
X0029000Y0082050D03*
X0029000Y0077050D03*
X0029000Y0072050D03*
X0029000Y0067050D03*
X0029000Y0062050D03*
X0029000Y0057050D03*
X0029000Y0052050D03*
X0029000Y0047050D03*
X0029000Y0042050D03*
X0029000Y0037050D03*
X0029000Y0032050D03*
X0033500Y0023050D03*
X0036500Y0023050D03*
X0045000Y0029050D03*
X0056500Y0032050D03*
X0045000Y0037050D03*
X0056500Y0042050D03*
X0045000Y0047050D03*
X0045000Y0057050D03*
X0045000Y0067050D03*
X0045000Y0077050D03*
X0056500Y0084550D03*
X0066500Y0080050D03*
X0079000Y0083050D03*
X0069000Y0090050D03*
X0071500Y0094050D03*
X0069000Y0098050D03*
X0081500Y0094050D03*
X0100500Y0075050D03*
X0098500Y0072050D03*
X0096000Y0070550D03*
X0093500Y0072050D03*
X0090000Y0070050D03*
X0090000Y0065050D03*
X0093500Y0062550D03*
X0096000Y0062550D03*
X0098500Y0062550D03*
X0100500Y0060550D03*
X0102000Y0058050D03*
X0119000Y0066550D03*
X0129500Y0068050D03*
X0137500Y0074050D03*
X0140500Y0074050D03*
X0146500Y0070050D03*
X0140500Y0060550D03*
X0137500Y0060050D03*
X0116000Y0047050D03*
X0116000Y0043050D03*
X0116000Y0039550D03*
X0116000Y0035550D03*
X0106000Y0037050D03*
X0106000Y0040050D03*
X0106000Y0043050D03*
X0097000Y0043050D03*
X0094000Y0040050D03*
X0091000Y0037050D03*
X0097000Y0037050D03*
X0091000Y0043050D03*
X0081500Y0040050D03*
X0071500Y0040050D03*
X0068500Y0036050D03*
X0069500Y0044050D03*
X0079000Y0029050D03*
X0070000Y0020550D03*
X0062500Y0022550D03*
X0051500Y0017550D03*
X0044500Y0014550D03*
X0056500Y0007550D03*
X0060500Y0007550D03*
X0066500Y0008050D03*
X0074000Y0010550D03*
X0082000Y0018050D03*
X0090500Y0016550D03*
X0093500Y0018050D03*
X0096000Y0018050D03*
X0098500Y0018050D03*
X0100500Y0021050D03*
X0108000Y0017550D03*
X0111500Y0020050D03*
X0116000Y0024550D03*
X0127000Y0027050D03*
X0131000Y0030550D03*
X0135000Y0028550D03*
X0144000Y0031550D03*
X0146500Y0026550D03*
X0138500Y0019550D03*
X0146500Y0015550D03*
X0142500Y0012550D03*
X0150000Y0005050D03*
X0127500Y0010550D03*
X0127500Y0013050D03*
X0119000Y0005050D03*
X0107500Y0012050D03*
X0105000Y0012050D03*
X0099500Y0014050D03*
X0087500Y0013050D03*
X0087500Y0010050D03*
X0094000Y0005050D03*
X0044000Y0005050D03*
X0019000Y0005050D03*
X0007000Y0017050D03*
X0021000Y0023050D03*
X0007000Y0042050D03*
X0007000Y0067050D03*
X0045000Y0087050D03*
X0045000Y0097050D03*
X0045000Y0107050D03*
X0007000Y0092050D03*
X0081000Y0058050D03*
X0138000Y0040050D03*
X0191000Y0038050D03*
X0200000Y0033050D03*
X0202500Y0031050D03*
X0204000Y0028050D03*
X0207000Y0019550D03*
X0220500Y0019550D03*
X0221000Y0024550D03*
X0221000Y0029550D03*
X0232500Y0034550D03*
X0232500Y0039550D03*
X0232500Y0044550D03*
X0232500Y0049550D03*
X0232500Y0054550D03*
X0232500Y0059550D03*
X0232500Y0064550D03*
X0232500Y0069550D03*
X0232500Y0074550D03*
X0232500Y0079550D03*
X0232500Y0084550D03*
X0232500Y0089550D03*
X0232500Y0094550D03*
X0232500Y0099550D03*
X0221000Y0099550D03*
X0221000Y0094550D03*
X0221000Y0089550D03*
X0221000Y0084550D03*
X0221000Y0079550D03*
X0219000Y0075050D03*
X0208500Y0071550D03*
X0206500Y0073550D03*
X0204500Y0075550D03*
X0202000Y0076550D03*
X0208000Y0080050D03*
X0208000Y0085050D03*
X0207000Y0087550D03*
X0208000Y0090050D03*
X0208000Y0094050D03*
X0208000Y0100050D03*
X0208000Y0105050D03*
X0213000Y0110050D03*
X0216000Y0110050D03*
X0221000Y0109550D03*
X0232500Y0109550D03*
X0251000Y0117050D03*
X0248000Y0129050D03*
X0219000Y0129050D03*
X0217000Y0121550D03*
X0207000Y0118050D03*
X0207000Y0115050D03*
X0203000Y0115050D03*
X0203000Y0118050D03*
X0199500Y0121550D03*
X0195000Y0121550D03*
X0194000Y0129050D03*
X0179000Y0108050D03*
X0166500Y0105550D03*
X0159500Y0105550D03*
X0162000Y0097550D03*
X0154500Y0097550D03*
X0138000Y0094050D03*
X0172000Y0094550D03*
X0202000Y0071550D03*
X0201500Y0056550D03*
X0201500Y0053550D03*
X0208500Y0052050D03*
X0211500Y0051050D03*
X0198500Y0046550D03*
X0215000Y0043050D03*
X0221000Y0039550D03*
X0217000Y0037050D03*
X0232500Y0024550D03*
X0232500Y0019550D03*
X0251000Y0017050D03*
X0248000Y0005050D03*
X0211000Y0005050D03*
X0251000Y0042050D03*
X0251000Y0067050D03*
X0251000Y0092050D03*
D14*
X0008787Y0003950D02*
X0005900Y0006837D01*
X0005900Y0127263D01*
X0008787Y0130150D01*
X0249213Y0130150D01*
X0252100Y0127263D01*
X0252100Y0006837D01*
X0249213Y0003950D01*
X0210787Y0003950D01*
X0201900Y0012837D01*
X0200787Y0013950D01*
X0161213Y0013950D01*
X0160100Y0012837D01*
X0151213Y0003950D01*
X0008787Y0003950D01*
X0008291Y0004446D02*
X0151709Y0004446D01*
X0152507Y0005244D02*
X0007493Y0005244D01*
X0006694Y0006043D02*
X0065538Y0006043D01*
X0065630Y0005950D02*
X0067370Y0005950D01*
X0068600Y0007180D01*
X0068600Y0008920D01*
X0067370Y0010150D01*
X0065630Y0010150D01*
X0064400Y0008920D01*
X0064400Y0007180D01*
X0065630Y0005950D01*
X0064739Y0006841D02*
X0005900Y0006841D01*
X0005900Y0007640D02*
X0064400Y0007640D01*
X0064400Y0008438D02*
X0005900Y0008438D01*
X0005900Y0009237D02*
X0064717Y0009237D01*
X0065515Y0010035D02*
X0005900Y0010035D01*
X0005900Y0010834D02*
X0071900Y0010834D01*
X0071900Y0011420D02*
X0071900Y0009680D01*
X0073130Y0008450D01*
X0074870Y0008450D01*
X0076100Y0009680D01*
X0076100Y0011420D01*
X0074870Y0012650D01*
X0073130Y0012650D01*
X0071900Y0011420D01*
X0072112Y0011632D02*
X0005900Y0011632D01*
X0005900Y0012431D02*
X0072911Y0012431D01*
X0075089Y0012431D02*
X0094400Y0012431D01*
X0094400Y0013229D02*
X0005900Y0013229D01*
X0005900Y0014028D02*
X0094400Y0014028D01*
X0094400Y0014826D02*
X0005900Y0014826D01*
X0005900Y0015625D02*
X0094400Y0015625D01*
X0094400Y0016423D02*
X0083343Y0016423D01*
X0082870Y0015950D02*
X0084100Y0017180D01*
X0084100Y0018920D01*
X0082870Y0020150D01*
X0081130Y0020150D01*
X0079900Y0018920D01*
X0079900Y0017180D01*
X0081130Y0015950D01*
X0082870Y0015950D01*
X0084100Y0017222D02*
X0093900Y0017222D01*
X0093900Y0017180D02*
X0094400Y0016680D01*
X0094400Y0009550D01*
X0090546Y0009550D01*
X0089600Y0010496D01*
X0089600Y0010920D01*
X0088370Y0012150D01*
X0086630Y0012150D01*
X0085400Y0010920D01*
X0085400Y0009180D01*
X0086630Y0007950D01*
X0087054Y0007950D01*
X0088000Y0007004D01*
X0088000Y0006722D01*
X0089172Y0005550D01*
X0095237Y0005550D01*
X0095337Y0005450D01*
X0135663Y0005450D01*
X0135763Y0005550D01*
X0144828Y0005550D01*
X0145328Y0006050D01*
X0147828Y0006050D01*
X0162228Y0020450D01*
X0216772Y0020450D01*
X0218400Y0018822D01*
X0218400Y0018680D01*
X0219630Y0017450D01*
X0221370Y0017450D01*
X0222600Y0018680D01*
X0222600Y0020420D01*
X0222570Y0020450D01*
X0225163Y0020450D01*
X0226100Y0021387D01*
X0226100Y0125713D01*
X0225163Y0126650D01*
X0144337Y0126650D01*
X0143400Y0125713D01*
X0143400Y0021387D01*
X0144337Y0020450D01*
X0156572Y0020450D01*
X0146172Y0010050D01*
X0143672Y0010050D01*
X0143172Y0009550D01*
X0136600Y0009550D01*
X0136600Y0125713D01*
X0135663Y0126650D01*
X0095337Y0126650D01*
X0094400Y0125713D01*
X0094400Y0118920D01*
X0093900Y0118420D01*
X0093900Y0116680D01*
X0094400Y0116180D01*
X0094400Y0071920D01*
X0093900Y0071420D01*
X0093900Y0069680D01*
X0094400Y0069180D01*
X0094400Y0063920D01*
X0093900Y0063420D01*
X0093900Y0061680D01*
X0094400Y0061180D01*
X0094400Y0019420D01*
X0093900Y0018920D01*
X0093900Y0017180D01*
X0093900Y0018020D02*
X0084100Y0018020D01*
X0084100Y0018819D02*
X0093900Y0018819D01*
X0094400Y0019617D02*
X0083403Y0019617D01*
X0080597Y0019617D02*
X0005900Y0019617D01*
X0005900Y0018819D02*
X0079900Y0018819D01*
X0079900Y0018020D02*
X0005900Y0018020D01*
X0005900Y0017222D02*
X0079900Y0017222D01*
X0080657Y0016423D02*
X0005900Y0016423D01*
X0005900Y0020416D02*
X0094400Y0020416D01*
X0094400Y0021214D02*
X0037634Y0021214D01*
X0037370Y0020950D02*
X0038600Y0022180D01*
X0038600Y0023920D01*
X0037370Y0025150D01*
X0035630Y0025150D01*
X0035000Y0024520D01*
X0034370Y0025150D01*
X0032630Y0025150D01*
X0031400Y0023920D01*
X0031400Y0022180D01*
X0032630Y0020950D01*
X0034370Y0020950D01*
X0035000Y0021580D01*
X0035630Y0020950D01*
X0037370Y0020950D01*
X0038433Y0022013D02*
X0094400Y0022013D01*
X0094400Y0022811D02*
X0038600Y0022811D01*
X0038600Y0023610D02*
X0094400Y0023610D01*
X0094400Y0024408D02*
X0038112Y0024408D01*
X0035366Y0021214D02*
X0034634Y0021214D01*
X0032366Y0021214D02*
X0022134Y0021214D01*
X0021870Y0020950D02*
X0023100Y0022180D01*
X0023100Y0023920D01*
X0021870Y0025150D01*
X0020130Y0025150D01*
X0018900Y0023920D01*
X0018900Y0022180D01*
X0020130Y0020950D01*
X0021870Y0020950D01*
X0022933Y0022013D02*
X0031567Y0022013D01*
X0031400Y0022811D02*
X0023100Y0022811D01*
X0023100Y0023610D02*
X0031400Y0023610D01*
X0031888Y0024408D02*
X0022612Y0024408D01*
X0019388Y0024408D02*
X0005900Y0024408D01*
X0005900Y0023610D02*
X0018900Y0023610D01*
X0018900Y0022811D02*
X0005900Y0022811D01*
X0005900Y0022013D02*
X0019067Y0022013D01*
X0019866Y0021214D02*
X0005900Y0021214D01*
X0005900Y0025207D02*
X0094400Y0025207D01*
X0094400Y0026005D02*
X0005900Y0026005D01*
X0005900Y0026804D02*
X0094400Y0026804D01*
X0094400Y0027602D02*
X0005900Y0027602D01*
X0005900Y0028401D02*
X0094400Y0028401D01*
X0094400Y0029199D02*
X0005900Y0029199D01*
X0005900Y0029998D02*
X0055582Y0029998D01*
X0055630Y0029950D02*
X0057370Y0029950D01*
X0058600Y0031180D01*
X0058600Y0032920D01*
X0057370Y0034150D01*
X0055630Y0034150D01*
X0054400Y0032920D01*
X0054400Y0031180D01*
X0055630Y0029950D01*
X0054784Y0030796D02*
X0005900Y0030796D01*
X0005900Y0031595D02*
X0054400Y0031595D01*
X0054400Y0032393D02*
X0005900Y0032393D01*
X0005900Y0033192D02*
X0054672Y0033192D01*
X0055471Y0033990D02*
X0005900Y0033990D01*
X0005900Y0034789D02*
X0094400Y0034789D01*
X0094400Y0035587D02*
X0030507Y0035587D01*
X0031100Y0036180D02*
X0029870Y0034950D01*
X0028130Y0034950D01*
X0026900Y0036180D01*
X0026900Y0037920D01*
X0028130Y0039150D01*
X0029870Y0039150D01*
X0031100Y0037920D01*
X0031100Y0036180D01*
X0031100Y0036386D02*
X0094400Y0036386D01*
X0094400Y0037184D02*
X0031100Y0037184D01*
X0031037Y0037983D02*
X0080597Y0037983D01*
X0080630Y0037950D02*
X0082370Y0037950D01*
X0083600Y0039180D01*
X0083600Y0040920D01*
X0082370Y0042150D01*
X0080630Y0042150D01*
X0079400Y0040920D01*
X0079400Y0039180D01*
X0080630Y0037950D01*
X0079799Y0038782D02*
X0030238Y0038782D01*
X0027762Y0038782D02*
X0005900Y0038782D01*
X0005900Y0039580D02*
X0079400Y0039580D01*
X0079400Y0040379D02*
X0057798Y0040379D01*
X0057370Y0039950D02*
X0058600Y0041180D01*
X0058600Y0042920D01*
X0057370Y0044150D01*
X0055630Y0044150D01*
X0054400Y0042920D01*
X0054400Y0041180D01*
X0055630Y0039950D01*
X0057370Y0039950D01*
X0058597Y0041177D02*
X0079657Y0041177D01*
X0080456Y0041976D02*
X0058600Y0041976D01*
X0058600Y0042774D02*
X0094400Y0042774D01*
X0094400Y0041976D02*
X0082544Y0041976D01*
X0083343Y0041177D02*
X0094400Y0041177D01*
X0094400Y0040379D02*
X0083600Y0040379D01*
X0083600Y0039580D02*
X0094400Y0039580D01*
X0094400Y0038782D02*
X0083201Y0038782D01*
X0082403Y0037983D02*
X0094400Y0037983D01*
X0096000Y0039020D02*
X0096000Y0039080D01*
X0096100Y0039180D01*
X0096100Y0040920D01*
X0096000Y0041020D01*
X0096000Y0041080D01*
X0096130Y0040950D01*
X0097870Y0040950D01*
X0099100Y0042180D01*
X0099100Y0043920D01*
X0097870Y0045150D01*
X0096130Y0045150D01*
X0096000Y0045020D01*
X0096000Y0060450D01*
X0096870Y0060450D01*
X0098100Y0061680D01*
X0098100Y0063420D01*
X0096870Y0064650D01*
X0096000Y0064650D01*
X0096000Y0068450D01*
X0096870Y0068450D01*
X0098100Y0069680D01*
X0098100Y0071420D01*
X0096870Y0072650D01*
X0096000Y0072650D01*
X0096000Y0089080D01*
X0096130Y0088950D01*
X0097870Y0088950D01*
X0099100Y0090180D01*
X0099100Y0091920D01*
X0097870Y0093150D01*
X0096130Y0093150D01*
X0096000Y0093020D01*
X0096000Y0093080D01*
X0096100Y0093180D01*
X0096100Y0094920D01*
X0096000Y0095020D01*
X0096000Y0095080D01*
X0096130Y0094950D01*
X0097870Y0094950D01*
X0099100Y0096180D01*
X0099100Y0097920D01*
X0097870Y0099150D01*
X0096130Y0099150D01*
X0096000Y0099020D01*
X0096000Y0115450D01*
X0096870Y0115450D01*
X0098100Y0116680D01*
X0098100Y0118420D01*
X0096870Y0119650D01*
X0096000Y0119650D01*
X0096000Y0125050D01*
X0129030Y0125050D01*
X0128900Y0124920D01*
X0128900Y0123180D01*
X0130130Y0121950D01*
X0131870Y0121950D01*
X0132500Y0122580D01*
X0133130Y0121950D01*
X0134870Y0121950D01*
X0135000Y0122080D01*
X0135000Y0115520D01*
X0134900Y0115420D01*
X0134900Y0113680D01*
X0135000Y0113580D01*
X0135000Y0107650D01*
X0134130Y0107650D01*
X0132900Y0106420D01*
X0132900Y0104680D01*
X0134130Y0103450D01*
X0135000Y0103450D01*
X0135000Y0084650D01*
X0134130Y0084650D01*
X0132900Y0083420D01*
X0132900Y0081680D01*
X0134130Y0080450D01*
X0135000Y0080450D01*
X0135000Y0053150D01*
X0134630Y0053150D01*
X0133400Y0051920D01*
X0133400Y0050180D01*
X0134630Y0048950D01*
X0135000Y0048950D01*
X0135000Y0030650D01*
X0134130Y0030650D01*
X0132900Y0029420D01*
X0132900Y0027680D01*
X0134130Y0026450D01*
X0135000Y0026450D01*
X0135000Y0009550D01*
X0129470Y0009550D01*
X0129600Y0009680D01*
X0129600Y0011420D01*
X0129220Y0011800D01*
X0129600Y0012180D01*
X0129600Y0013920D01*
X0128370Y0015150D01*
X0126630Y0015150D01*
X0125400Y0013920D01*
X0125400Y0012180D01*
X0125780Y0011800D01*
X0125400Y0011420D01*
X0125400Y0009680D01*
X0125530Y0009550D01*
X0096000Y0009550D01*
X0096000Y0015950D01*
X0096870Y0015950D01*
X0098100Y0017180D01*
X0098100Y0018920D01*
X0096870Y0020150D01*
X0096000Y0020150D01*
X0096000Y0035080D01*
X0096130Y0034950D01*
X0097870Y0034950D01*
X0099100Y0036180D01*
X0099100Y0037920D01*
X0097870Y0039150D01*
X0096130Y0039150D01*
X0096000Y0039020D01*
X0096100Y0039580D02*
X0113900Y0039580D01*
X0113900Y0038782D02*
X0107238Y0038782D01*
X0106870Y0039150D02*
X0105130Y0039150D01*
X0103900Y0037920D01*
X0103900Y0036180D01*
X0105130Y0034950D01*
X0106870Y0034950D01*
X0108100Y0036180D01*
X0108100Y0037920D01*
X0106870Y0039150D01*
X0108037Y0037983D02*
X0114597Y0037983D01*
X0115030Y0037550D02*
X0113900Y0036420D01*
X0113900Y0034680D01*
X0115130Y0033450D01*
X0116870Y0033450D01*
X0118100Y0034680D01*
X0118100Y0036420D01*
X0116970Y0037550D01*
X0118100Y0038680D01*
X0118100Y0040420D01*
X0117220Y0041300D01*
X0118100Y0042180D01*
X0118100Y0043920D01*
X0116970Y0045050D01*
X0118100Y0046180D01*
X0118100Y0047920D01*
X0116870Y0049150D01*
X0115130Y0049150D01*
X0113900Y0047920D01*
X0113900Y0046180D01*
X0115030Y0045050D01*
X0113900Y0043920D01*
X0113900Y0042180D01*
X0114780Y0041300D01*
X0113900Y0040420D01*
X0113900Y0038680D01*
X0115030Y0037550D01*
X0114665Y0037184D02*
X0108100Y0037184D01*
X0108100Y0036386D02*
X0113900Y0036386D01*
X0113900Y0035587D02*
X0107507Y0035587D01*
X0104493Y0035587D02*
X0098507Y0035587D01*
X0099100Y0036386D02*
X0103900Y0036386D01*
X0103900Y0037184D02*
X0099100Y0037184D01*
X0099037Y0037983D02*
X0103963Y0037983D01*
X0104762Y0038782D02*
X0098238Y0038782D01*
X0098097Y0041177D02*
X0104903Y0041177D01*
X0105130Y0040950D02*
X0106870Y0040950D01*
X0108100Y0042180D01*
X0108100Y0043920D01*
X0106870Y0045150D01*
X0105130Y0045150D01*
X0103900Y0043920D01*
X0103900Y0042180D01*
X0105130Y0040950D01*
X0104105Y0041976D02*
X0098895Y0041976D01*
X0099100Y0042774D02*
X0103900Y0042774D01*
X0103900Y0043573D02*
X0099100Y0043573D01*
X0098649Y0044371D02*
X0104351Y0044371D01*
X0107649Y0044371D02*
X0114351Y0044371D01*
X0113900Y0043573D02*
X0108100Y0043573D01*
X0108100Y0042774D02*
X0113900Y0042774D01*
X0114105Y0041976D02*
X0107895Y0041976D01*
X0107097Y0041177D02*
X0114657Y0041177D01*
X0113900Y0040379D02*
X0096100Y0040379D01*
X0094400Y0043573D02*
X0057947Y0043573D01*
X0055053Y0043573D02*
X0005900Y0043573D01*
X0005900Y0044371D02*
X0094400Y0044371D01*
X0094400Y0045170D02*
X0030089Y0045170D01*
X0029870Y0044950D02*
X0031100Y0046180D01*
X0031100Y0047920D01*
X0029870Y0049150D01*
X0028130Y0049150D01*
X0026900Y0047920D01*
X0026900Y0046180D01*
X0028130Y0044950D01*
X0029870Y0044950D01*
X0030888Y0045968D02*
X0094400Y0045968D01*
X0094400Y0046767D02*
X0031100Y0046767D01*
X0031100Y0047565D02*
X0094400Y0047565D01*
X0094400Y0048364D02*
X0030656Y0048364D01*
X0027344Y0048364D02*
X0005900Y0048364D01*
X0005900Y0049162D02*
X0094400Y0049162D01*
X0094400Y0049961D02*
X0005900Y0049961D01*
X0005900Y0050759D02*
X0094400Y0050759D01*
X0094400Y0051558D02*
X0005900Y0051558D01*
X0005900Y0052356D02*
X0094400Y0052356D01*
X0094400Y0053155D02*
X0005900Y0053155D01*
X0005900Y0053953D02*
X0094400Y0053953D01*
X0094400Y0054752D02*
X0005900Y0054752D01*
X0005900Y0055550D02*
X0027530Y0055550D01*
X0028130Y0054950D02*
X0026900Y0056180D01*
X0026900Y0057920D01*
X0028130Y0059150D01*
X0029870Y0059150D01*
X0031100Y0057920D01*
X0031100Y0056180D01*
X0029870Y0054950D01*
X0028130Y0054950D01*
X0026900Y0056349D02*
X0005900Y0056349D01*
X0005900Y0057147D02*
X0026900Y0057147D01*
X0026926Y0057946D02*
X0005900Y0057946D01*
X0005900Y0058744D02*
X0027724Y0058744D01*
X0030276Y0058744D02*
X0094400Y0058744D01*
X0094400Y0057946D02*
X0031074Y0057946D01*
X0031100Y0057147D02*
X0094400Y0057147D01*
X0094400Y0056349D02*
X0031100Y0056349D01*
X0030470Y0055550D02*
X0094400Y0055550D01*
X0096000Y0055550D02*
X0135000Y0055550D01*
X0135000Y0054752D02*
X0127768Y0054752D01*
X0127370Y0055150D02*
X0128600Y0053920D01*
X0128600Y0052180D01*
X0127370Y0050950D01*
X0125630Y0050950D01*
X0124400Y0052180D01*
X0124400Y0053920D01*
X0125630Y0055150D01*
X0127370Y0055150D01*
X0128567Y0053953D02*
X0135000Y0053953D01*
X0135000Y0053155D02*
X0128600Y0053155D01*
X0128600Y0052356D02*
X0133836Y0052356D01*
X0133400Y0051558D02*
X0131462Y0051558D01*
X0131370Y0051650D02*
X0129630Y0051650D01*
X0128400Y0050420D01*
X0128400Y0048680D01*
X0129630Y0047450D01*
X0131370Y0047450D01*
X0132600Y0048680D01*
X0132600Y0050420D01*
X0131370Y0051650D01*
X0132261Y0050759D02*
X0133400Y0050759D01*
X0133619Y0049961D02*
X0132600Y0049961D01*
X0132600Y0049162D02*
X0134418Y0049162D01*
X0135000Y0048364D02*
X0132284Y0048364D01*
X0131485Y0047565D02*
X0135000Y0047565D01*
X0135000Y0046767D02*
X0118100Y0046767D01*
X0118100Y0047565D02*
X0129515Y0047565D01*
X0128716Y0048364D02*
X0117656Y0048364D01*
X0114344Y0048364D02*
X0096000Y0048364D01*
X0096000Y0049162D02*
X0128400Y0049162D01*
X0128400Y0049961D02*
X0096000Y0049961D01*
X0096000Y0050759D02*
X0128739Y0050759D01*
X0127978Y0051558D02*
X0129538Y0051558D01*
X0125022Y0051558D02*
X0096000Y0051558D01*
X0096000Y0052356D02*
X0124400Y0052356D01*
X0124400Y0053155D02*
X0096000Y0053155D01*
X0096000Y0053953D02*
X0124433Y0053953D01*
X0125232Y0054752D02*
X0096000Y0054752D01*
X0096000Y0056349D02*
X0100731Y0056349D01*
X0101130Y0055950D02*
X0102870Y0055950D01*
X0104100Y0057180D01*
X0104100Y0058920D01*
X0102870Y0060150D01*
X0102600Y0060150D01*
X0102600Y0061420D01*
X0101370Y0062650D01*
X0099630Y0062650D01*
X0098400Y0061420D01*
X0098400Y0059680D01*
X0099630Y0058450D01*
X0099900Y0058450D01*
X0099900Y0057180D01*
X0101130Y0055950D01*
X0099933Y0057147D02*
X0096000Y0057147D01*
X0096000Y0057946D02*
X0099900Y0057946D01*
X0099336Y0058744D02*
X0096000Y0058744D01*
X0096000Y0059543D02*
X0098537Y0059543D01*
X0098400Y0060341D02*
X0096000Y0060341D01*
X0094400Y0060341D02*
X0005900Y0060341D01*
X0005900Y0059543D02*
X0094400Y0059543D01*
X0094400Y0061140D02*
X0005900Y0061140D01*
X0005900Y0061938D02*
X0093900Y0061938D01*
X0093900Y0062737D02*
X0005900Y0062737D01*
X0005900Y0063535D02*
X0094016Y0063535D01*
X0094400Y0064334D02*
X0005900Y0064334D01*
X0005900Y0065132D02*
X0027948Y0065132D01*
X0028130Y0064950D02*
X0029870Y0064950D01*
X0031100Y0066180D01*
X0031100Y0067920D01*
X0029870Y0069150D01*
X0028130Y0069150D01*
X0026900Y0067920D01*
X0026900Y0066180D01*
X0028130Y0064950D01*
X0027149Y0065931D02*
X0005900Y0065931D01*
X0005900Y0066729D02*
X0026900Y0066729D01*
X0026900Y0067528D02*
X0005900Y0067528D01*
X0005900Y0068326D02*
X0027307Y0068326D01*
X0028105Y0069125D02*
X0005900Y0069125D01*
X0005900Y0069923D02*
X0093900Y0069923D01*
X0093900Y0070722D02*
X0005900Y0070722D01*
X0005900Y0071520D02*
X0094001Y0071520D01*
X0094400Y0072319D02*
X0005900Y0072319D01*
X0005900Y0073118D02*
X0094400Y0073118D01*
X0094400Y0073916D02*
X0005900Y0073916D01*
X0005900Y0074715D02*
X0094400Y0074715D01*
X0094400Y0075513D02*
X0030433Y0075513D01*
X0029870Y0074950D02*
X0031100Y0076180D01*
X0031100Y0077920D01*
X0029870Y0079150D01*
X0028130Y0079150D01*
X0026900Y0077920D01*
X0026900Y0076180D01*
X0028130Y0074950D01*
X0029870Y0074950D01*
X0031100Y0076312D02*
X0094400Y0076312D01*
X0094400Y0077110D02*
X0031100Y0077110D01*
X0031100Y0077909D02*
X0094400Y0077909D01*
X0094400Y0078707D02*
X0068127Y0078707D01*
X0068600Y0079180D02*
X0067370Y0077950D01*
X0065630Y0077950D01*
X0064400Y0079180D01*
X0064400Y0080920D01*
X0065630Y0082150D01*
X0067370Y0082150D01*
X0068600Y0080920D01*
X0068600Y0079180D01*
X0068600Y0079506D02*
X0094400Y0079506D01*
X0094400Y0080304D02*
X0068600Y0080304D01*
X0068417Y0081103D02*
X0094400Y0081103D01*
X0094400Y0081901D02*
X0067619Y0081901D01*
X0065381Y0081901D02*
X0005900Y0081901D01*
X0005900Y0081103D02*
X0064583Y0081103D01*
X0064400Y0080304D02*
X0005900Y0080304D01*
X0005900Y0079506D02*
X0064400Y0079506D01*
X0064873Y0078707D02*
X0030313Y0078707D01*
X0027687Y0078707D02*
X0005900Y0078707D01*
X0005900Y0077909D02*
X0026900Y0077909D01*
X0026900Y0077110D02*
X0005900Y0077110D01*
X0005900Y0076312D02*
X0026900Y0076312D01*
X0027567Y0075513D02*
X0005900Y0075513D01*
X0005900Y0082700D02*
X0055380Y0082700D01*
X0055630Y0082450D02*
X0054400Y0083680D01*
X0054400Y0085420D01*
X0055630Y0086650D01*
X0057370Y0086650D01*
X0058600Y0085420D01*
X0058600Y0083680D01*
X0057370Y0082450D01*
X0055630Y0082450D01*
X0054582Y0083498D02*
X0005900Y0083498D01*
X0005900Y0084297D02*
X0054400Y0084297D01*
X0054400Y0085095D02*
X0030015Y0085095D01*
X0029870Y0084950D02*
X0031100Y0086180D01*
X0031100Y0087920D01*
X0029870Y0089150D01*
X0028130Y0089150D01*
X0026900Y0087920D01*
X0026900Y0086180D01*
X0028130Y0084950D01*
X0029870Y0084950D01*
X0030814Y0085894D02*
X0054874Y0085894D01*
X0058126Y0085894D02*
X0094400Y0085894D01*
X0094400Y0086692D02*
X0031100Y0086692D01*
X0031100Y0087491D02*
X0094400Y0087491D01*
X0094400Y0088289D02*
X0030731Y0088289D01*
X0029932Y0089088D02*
X0094400Y0089088D01*
X0094400Y0089886D02*
X0005900Y0089886D01*
X0005900Y0089088D02*
X0028068Y0089088D01*
X0027269Y0088289D02*
X0005900Y0088289D01*
X0005900Y0087491D02*
X0026900Y0087491D01*
X0026900Y0086692D02*
X0005900Y0086692D01*
X0005900Y0085894D02*
X0027186Y0085894D01*
X0027985Y0085095D02*
X0005900Y0085095D01*
X0005900Y0090685D02*
X0094400Y0090685D01*
X0094400Y0091483D02*
X0005900Y0091483D01*
X0005900Y0092282D02*
X0080298Y0092282D01*
X0080630Y0091950D02*
X0079400Y0093180D01*
X0079400Y0094920D01*
X0080630Y0096150D01*
X0082370Y0096150D01*
X0083600Y0094920D01*
X0083600Y0093180D01*
X0082370Y0091950D01*
X0080630Y0091950D01*
X0079500Y0093080D02*
X0005900Y0093080D01*
X0005900Y0093879D02*
X0079400Y0093879D01*
X0079400Y0094677D02*
X0005900Y0094677D01*
X0005900Y0095476D02*
X0027604Y0095476D01*
X0028130Y0094950D02*
X0026900Y0096180D01*
X0026900Y0097920D01*
X0028130Y0099150D01*
X0029870Y0099150D01*
X0031100Y0097920D01*
X0031100Y0096180D01*
X0029870Y0094950D01*
X0028130Y0094950D01*
X0026900Y0096274D02*
X0005900Y0096274D01*
X0005900Y0097073D02*
X0026900Y0097073D01*
X0026900Y0097871D02*
X0005900Y0097871D01*
X0005900Y0098670D02*
X0027650Y0098670D01*
X0030350Y0098670D02*
X0094400Y0098670D01*
X0094400Y0099468D02*
X0005900Y0099468D01*
X0005900Y0100267D02*
X0094400Y0100267D01*
X0094400Y0101065D02*
X0005900Y0101065D01*
X0005900Y0101864D02*
X0094400Y0101864D01*
X0094400Y0102662D02*
X0005900Y0102662D01*
X0005900Y0103461D02*
X0094400Y0103461D01*
X0094400Y0104259D02*
X0005900Y0104259D01*
X0005900Y0105058D02*
X0028022Y0105058D01*
X0028130Y0104950D02*
X0029870Y0104950D01*
X0031100Y0106180D01*
X0031100Y0107920D01*
X0029870Y0109150D01*
X0028130Y0109150D01*
X0026900Y0107920D01*
X0026900Y0106180D01*
X0028130Y0104950D01*
X0027224Y0105856D02*
X0005900Y0105856D01*
X0005900Y0106655D02*
X0026900Y0106655D01*
X0026900Y0107453D02*
X0005900Y0107453D01*
X0005900Y0108252D02*
X0027232Y0108252D01*
X0028031Y0109051D02*
X0005900Y0109051D01*
X0005900Y0109849D02*
X0094400Y0109849D01*
X0094400Y0109051D02*
X0029969Y0109051D01*
X0030768Y0108252D02*
X0094400Y0108252D01*
X0094400Y0107453D02*
X0031100Y0107453D01*
X0031100Y0106655D02*
X0094400Y0106655D01*
X0094400Y0105856D02*
X0030776Y0105856D01*
X0029978Y0105058D02*
X0094400Y0105058D01*
X0096000Y0105058D02*
X0125022Y0105058D01*
X0124900Y0105180D02*
X0126130Y0103950D01*
X0127870Y0103950D01*
X0129100Y0105180D01*
X0129100Y0106920D01*
X0127870Y0108150D01*
X0126130Y0108150D01*
X0124900Y0106920D01*
X0124900Y0105180D01*
X0124900Y0105856D02*
X0096000Y0105856D01*
X0096000Y0106655D02*
X0124900Y0106655D01*
X0125434Y0107453D02*
X0096000Y0107453D01*
X0096000Y0108252D02*
X0135000Y0108252D01*
X0135000Y0109051D02*
X0102970Y0109051D01*
X0102370Y0108450D02*
X0103600Y0109680D01*
X0103600Y0111420D01*
X0102600Y0112420D01*
X0102600Y0113920D01*
X0101370Y0115150D01*
X0099630Y0115150D01*
X0098400Y0113920D01*
X0098400Y0112180D01*
X0099400Y0111180D01*
X0099400Y0109680D01*
X0100630Y0108450D01*
X0102370Y0108450D01*
X0103600Y0109849D02*
X0135000Y0109849D01*
X0135000Y0110648D02*
X0117567Y0110648D01*
X0118100Y0111180D02*
X0116870Y0109950D01*
X0115130Y0109950D01*
X0113900Y0111180D01*
X0113900Y0112920D01*
X0115130Y0114150D01*
X0116870Y0114150D01*
X0118100Y0112920D01*
X0118100Y0111180D01*
X0118100Y0111446D02*
X0135000Y0111446D01*
X0135000Y0112245D02*
X0118100Y0112245D01*
X0117977Y0113043D02*
X0135000Y0113043D01*
X0134900Y0113842D02*
X0117178Y0113842D01*
X0114822Y0113842D02*
X0102600Y0113842D01*
X0102600Y0113043D02*
X0114023Y0113043D01*
X0113900Y0112245D02*
X0102775Y0112245D01*
X0103574Y0111446D02*
X0113900Y0111446D01*
X0114433Y0110648D02*
X0103600Y0110648D01*
X0100030Y0109051D02*
X0096000Y0109051D01*
X0096000Y0109849D02*
X0099400Y0109849D01*
X0099400Y0110648D02*
X0096000Y0110648D01*
X0096000Y0111446D02*
X0099134Y0111446D01*
X0098400Y0112245D02*
X0096000Y0112245D01*
X0096000Y0113043D02*
X0098400Y0113043D01*
X0098400Y0113842D02*
X0096000Y0113842D01*
X0096000Y0114640D02*
X0099120Y0114640D01*
X0097657Y0116237D02*
X0106843Y0116237D01*
X0106400Y0116680D02*
X0107630Y0115450D01*
X0109370Y0115450D01*
X0110600Y0116680D01*
X0110600Y0118420D01*
X0109370Y0119650D01*
X0107630Y0119650D01*
X0106400Y0118420D01*
X0106400Y0116680D01*
X0106400Y0117036D02*
X0098100Y0117036D01*
X0098100Y0117834D02*
X0106400Y0117834D01*
X0106613Y0118633D02*
X0097887Y0118633D01*
X0097089Y0119431D02*
X0107411Y0119431D01*
X0109589Y0119431D02*
X0135000Y0119431D01*
X0135000Y0118633D02*
X0110387Y0118633D01*
X0110600Y0117834D02*
X0135000Y0117834D01*
X0135000Y0117036D02*
X0110600Y0117036D01*
X0110157Y0116237D02*
X0135000Y0116237D01*
X0134919Y0115439D02*
X0096000Y0115439D01*
X0094400Y0115439D02*
X0005900Y0115439D01*
X0005900Y0116237D02*
X0094343Y0116237D01*
X0093900Y0117036D02*
X0005900Y0117036D01*
X0005900Y0117834D02*
X0093900Y0117834D01*
X0094113Y0118633D02*
X0005900Y0118633D01*
X0005900Y0119431D02*
X0094400Y0119431D01*
X0094400Y0120230D02*
X0005900Y0120230D01*
X0005900Y0121028D02*
X0094400Y0121028D01*
X0094400Y0121827D02*
X0005900Y0121827D01*
X0005900Y0122625D02*
X0094400Y0122625D01*
X0094400Y0123424D02*
X0005900Y0123424D01*
X0005900Y0124222D02*
X0094400Y0124222D01*
X0094400Y0125021D02*
X0005900Y0125021D01*
X0005900Y0125819D02*
X0094507Y0125819D01*
X0095305Y0126618D02*
X0005900Y0126618D01*
X0006053Y0127416D02*
X0234024Y0127416D01*
X0234140Y0127532D02*
X0232719Y0126111D01*
X0231950Y0124255D01*
X0231950Y0122246D01*
X0232719Y0120390D01*
X0234140Y0118970D01*
X0235996Y0118201D01*
X0238004Y0118201D01*
X0239860Y0118970D01*
X0241281Y0120390D01*
X0242050Y0122246D01*
X0242050Y0124255D01*
X0241281Y0126111D01*
X0239860Y0127532D01*
X0238004Y0128300D01*
X0235996Y0128300D01*
X0234140Y0127532D01*
X0233226Y0126618D02*
X0225195Y0126618D01*
X0225993Y0125819D02*
X0232598Y0125819D01*
X0232267Y0125021D02*
X0226100Y0125021D01*
X0226100Y0124222D02*
X0231950Y0124222D01*
X0231950Y0123424D02*
X0226100Y0123424D01*
X0226100Y0122625D02*
X0231950Y0122625D01*
X0232124Y0121827D02*
X0226100Y0121827D01*
X0226100Y0121028D02*
X0232455Y0121028D01*
X0232880Y0120230D02*
X0226100Y0120230D01*
X0226100Y0119431D02*
X0233678Y0119431D01*
X0234954Y0118633D02*
X0226100Y0118633D01*
X0226100Y0117834D02*
X0252100Y0117834D01*
X0252100Y0117036D02*
X0226100Y0117036D01*
X0226100Y0116237D02*
X0252100Y0116237D01*
X0252100Y0115439D02*
X0226100Y0115439D01*
X0226100Y0114640D02*
X0252100Y0114640D01*
X0252100Y0113842D02*
X0226100Y0113842D01*
X0226100Y0113043D02*
X0252100Y0113043D01*
X0252100Y0112245D02*
X0226100Y0112245D01*
X0226100Y0111446D02*
X0252100Y0111446D01*
X0252100Y0110648D02*
X0226100Y0110648D01*
X0226100Y0109849D02*
X0252100Y0109849D01*
X0252100Y0109051D02*
X0226100Y0109051D01*
X0226100Y0108252D02*
X0252100Y0108252D01*
X0252100Y0107453D02*
X0226100Y0107453D01*
X0226100Y0106655D02*
X0252100Y0106655D01*
X0252100Y0105856D02*
X0226100Y0105856D01*
X0226100Y0105058D02*
X0252100Y0105058D01*
X0252100Y0104259D02*
X0226100Y0104259D01*
X0226100Y0103461D02*
X0252100Y0103461D01*
X0252100Y0102662D02*
X0226100Y0102662D01*
X0226100Y0101864D02*
X0252100Y0101864D01*
X0252100Y0101065D02*
X0226100Y0101065D01*
X0226100Y0100267D02*
X0252100Y0100267D01*
X0252100Y0099468D02*
X0226100Y0099468D01*
X0226100Y0098670D02*
X0252100Y0098670D01*
X0252100Y0097871D02*
X0226100Y0097871D01*
X0226100Y0097073D02*
X0252100Y0097073D01*
X0252100Y0096274D02*
X0226100Y0096274D01*
X0226100Y0095476D02*
X0252100Y0095476D01*
X0252100Y0094677D02*
X0226100Y0094677D01*
X0226100Y0093879D02*
X0252100Y0093879D01*
X0252100Y0093080D02*
X0226100Y0093080D01*
X0226100Y0092282D02*
X0252100Y0092282D01*
X0252100Y0091483D02*
X0226100Y0091483D01*
X0226100Y0090685D02*
X0252100Y0090685D01*
X0252100Y0089886D02*
X0226100Y0089886D01*
X0226100Y0089088D02*
X0252100Y0089088D01*
X0252100Y0088289D02*
X0226100Y0088289D01*
X0226100Y0087491D02*
X0252100Y0087491D01*
X0252100Y0086692D02*
X0226100Y0086692D01*
X0226100Y0085894D02*
X0252100Y0085894D01*
X0252100Y0085095D02*
X0226100Y0085095D01*
X0226100Y0084297D02*
X0252100Y0084297D01*
X0252100Y0083498D02*
X0226100Y0083498D01*
X0226100Y0082700D02*
X0252100Y0082700D01*
X0252100Y0081901D02*
X0226100Y0081901D01*
X0226100Y0081103D02*
X0252100Y0081103D01*
X0252100Y0080304D02*
X0226100Y0080304D01*
X0226100Y0079506D02*
X0252100Y0079506D01*
X0252100Y0078707D02*
X0226100Y0078707D01*
X0226100Y0077909D02*
X0252100Y0077909D01*
X0252100Y0077110D02*
X0226100Y0077110D01*
X0226100Y0076312D02*
X0252100Y0076312D01*
X0252100Y0075513D02*
X0226100Y0075513D01*
X0226100Y0074715D02*
X0252100Y0074715D01*
X0252100Y0073916D02*
X0226100Y0073916D01*
X0226100Y0073118D02*
X0252100Y0073118D01*
X0252100Y0072319D02*
X0226100Y0072319D01*
X0226100Y0071520D02*
X0252100Y0071520D01*
X0252100Y0070722D02*
X0226100Y0070722D01*
X0226100Y0069923D02*
X0252100Y0069923D01*
X0252100Y0069125D02*
X0226100Y0069125D01*
X0226100Y0068326D02*
X0252100Y0068326D01*
X0252100Y0067528D02*
X0226100Y0067528D01*
X0226100Y0066729D02*
X0252100Y0066729D01*
X0252100Y0065931D02*
X0226100Y0065931D01*
X0226100Y0065132D02*
X0252100Y0065132D01*
X0252100Y0064334D02*
X0226100Y0064334D01*
X0226100Y0063535D02*
X0252100Y0063535D01*
X0252100Y0062737D02*
X0226100Y0062737D01*
X0226100Y0061938D02*
X0252100Y0061938D01*
X0252100Y0061140D02*
X0226100Y0061140D01*
X0226100Y0060341D02*
X0252100Y0060341D01*
X0252100Y0059543D02*
X0226100Y0059543D01*
X0226100Y0058744D02*
X0252100Y0058744D01*
X0252100Y0057946D02*
X0226100Y0057946D01*
X0226100Y0057147D02*
X0252100Y0057147D01*
X0252100Y0056349D02*
X0226100Y0056349D01*
X0226100Y0055550D02*
X0252100Y0055550D01*
X0252100Y0054752D02*
X0226100Y0054752D01*
X0226100Y0053953D02*
X0252100Y0053953D01*
X0252100Y0053155D02*
X0226100Y0053155D01*
X0226100Y0052356D02*
X0252100Y0052356D01*
X0252100Y0051558D02*
X0226100Y0051558D01*
X0226100Y0050759D02*
X0252100Y0050759D01*
X0252100Y0049961D02*
X0226100Y0049961D01*
X0226100Y0049162D02*
X0252100Y0049162D01*
X0252100Y0048364D02*
X0226100Y0048364D01*
X0226100Y0047565D02*
X0252100Y0047565D01*
X0252100Y0046767D02*
X0226100Y0046767D01*
X0226100Y0045968D02*
X0252100Y0045968D01*
X0252100Y0045170D02*
X0226100Y0045170D01*
X0226100Y0044371D02*
X0252100Y0044371D01*
X0252100Y0043573D02*
X0226100Y0043573D01*
X0226100Y0042774D02*
X0252100Y0042774D01*
X0252100Y0041976D02*
X0226100Y0041976D01*
X0226100Y0041177D02*
X0252100Y0041177D01*
X0252100Y0040379D02*
X0226100Y0040379D01*
X0226100Y0039580D02*
X0252100Y0039580D01*
X0252100Y0038782D02*
X0226100Y0038782D01*
X0226100Y0037983D02*
X0252100Y0037983D01*
X0252100Y0037184D02*
X0226100Y0037184D01*
X0226100Y0036386D02*
X0252100Y0036386D01*
X0252100Y0035587D02*
X0226100Y0035587D01*
X0226100Y0034789D02*
X0252100Y0034789D01*
X0252100Y0033990D02*
X0226100Y0033990D01*
X0226100Y0033192D02*
X0252100Y0033192D01*
X0252100Y0032393D02*
X0226100Y0032393D01*
X0226100Y0031595D02*
X0252100Y0031595D01*
X0252100Y0030796D02*
X0226100Y0030796D01*
X0226100Y0029998D02*
X0252100Y0029998D01*
X0252100Y0029199D02*
X0226100Y0029199D01*
X0226100Y0028401D02*
X0252100Y0028401D01*
X0252100Y0027602D02*
X0226100Y0027602D01*
X0226100Y0026804D02*
X0252100Y0026804D01*
X0252100Y0026005D02*
X0234014Y0026005D01*
X0234600Y0025420D02*
X0233370Y0026650D01*
X0231630Y0026650D01*
X0230400Y0025420D01*
X0230400Y0023680D01*
X0231630Y0022450D01*
X0233370Y0022450D01*
X0234600Y0023680D01*
X0234600Y0025420D01*
X0234600Y0025207D02*
X0252100Y0025207D01*
X0252100Y0024408D02*
X0234600Y0024408D01*
X0234530Y0023610D02*
X0252100Y0023610D01*
X0252100Y0022811D02*
X0233731Y0022811D01*
X0231269Y0022811D02*
X0226100Y0022811D01*
X0226100Y0022013D02*
X0252100Y0022013D01*
X0252100Y0021214D02*
X0225927Y0021214D01*
X0224500Y0022050D02*
X0220828Y0022050D01*
X0220428Y0022450D01*
X0221870Y0022450D01*
X0223100Y0023680D01*
X0223100Y0025420D01*
X0221870Y0026650D01*
X0220130Y0026650D01*
X0218900Y0025420D01*
X0218900Y0023978D01*
X0217328Y0025550D01*
X0193168Y0025550D01*
X0194113Y0026495D01*
X0194700Y0027913D01*
X0194700Y0029447D01*
X0194113Y0030865D01*
X0193028Y0031950D01*
X0191610Y0032537D01*
X0190075Y0032537D01*
X0188657Y0031950D01*
X0187572Y0030865D01*
X0186985Y0029447D01*
X0186985Y0027913D01*
X0187572Y0026495D01*
X0188517Y0025550D01*
X0173483Y0025550D01*
X0174428Y0026495D01*
X0175015Y0027913D01*
X0175015Y0029447D01*
X0174428Y0030865D01*
X0173343Y0031950D01*
X0171925Y0032537D01*
X0170390Y0032537D01*
X0168972Y0031950D01*
X0167887Y0030865D01*
X0167300Y0029447D01*
X0167300Y0027913D01*
X0167887Y0026495D01*
X0168832Y0025550D01*
X0161672Y0025550D01*
X0160500Y0024378D01*
X0158172Y0022050D01*
X0145000Y0022050D01*
X0145000Y0029580D01*
X0146100Y0030680D01*
X0146100Y0032420D01*
X0145000Y0033520D01*
X0145000Y0047080D01*
X0145600Y0047680D01*
X0145600Y0049420D01*
X0145000Y0050020D01*
X0145000Y0068580D01*
X0145630Y0067950D01*
X0147370Y0067950D01*
X0148600Y0069180D01*
X0148600Y0070920D01*
X0147370Y0072150D01*
X0145630Y0072150D01*
X0145000Y0071520D01*
X0145000Y0083580D01*
X0146100Y0084680D01*
X0146100Y0086420D01*
X0145000Y0087520D01*
X0145000Y0101580D01*
X0145600Y0102180D01*
X0145600Y0103920D01*
X0145000Y0104520D01*
X0145000Y0125050D01*
X0224500Y0125050D01*
X0224500Y0022050D01*
X0224500Y0022811D02*
X0222231Y0022811D01*
X0223030Y0023610D02*
X0224500Y0023610D01*
X0224500Y0024408D02*
X0223100Y0024408D01*
X0223100Y0025207D02*
X0224500Y0025207D01*
X0224500Y0026005D02*
X0222514Y0026005D01*
X0221870Y0027450D02*
X0223100Y0028680D01*
X0223100Y0030420D01*
X0221870Y0031650D01*
X0220130Y0031650D01*
X0218900Y0030420D01*
X0218900Y0028680D01*
X0220130Y0027450D01*
X0221870Y0027450D01*
X0222022Y0027602D02*
X0224500Y0027602D01*
X0224500Y0026804D02*
X0205724Y0026804D01*
X0206100Y0027180D02*
X0204870Y0025950D01*
X0203130Y0025950D01*
X0201900Y0027180D01*
X0201900Y0028920D01*
X0201930Y0028950D01*
X0201630Y0028950D01*
X0200400Y0030180D01*
X0200400Y0030950D01*
X0199130Y0030950D01*
X0197900Y0032180D01*
X0197900Y0033920D01*
X0199130Y0035150D01*
X0200870Y0035150D01*
X0202100Y0033920D01*
X0202100Y0033150D01*
X0203370Y0033150D01*
X0204600Y0031920D01*
X0204600Y0030180D01*
X0204570Y0030150D01*
X0204870Y0030150D01*
X0206100Y0028920D01*
X0206100Y0027180D01*
X0206100Y0027602D02*
X0219978Y0027602D01*
X0219179Y0028401D02*
X0206100Y0028401D01*
X0205820Y0029199D02*
X0218900Y0029199D01*
X0218900Y0029998D02*
X0205022Y0029998D01*
X0204600Y0030796D02*
X0219277Y0030796D01*
X0220075Y0031595D02*
X0204600Y0031595D01*
X0204126Y0032393D02*
X0224500Y0032393D01*
X0224500Y0031595D02*
X0221925Y0031595D01*
X0222723Y0030796D02*
X0224500Y0030796D01*
X0224500Y0029998D02*
X0223100Y0029998D01*
X0223100Y0029199D02*
X0224500Y0029199D01*
X0224500Y0028401D02*
X0222821Y0028401D01*
X0226100Y0026005D02*
X0230985Y0026005D01*
X0230400Y0025207D02*
X0226100Y0025207D01*
X0226100Y0024408D02*
X0230400Y0024408D01*
X0230470Y0023610D02*
X0226100Y0023610D01*
X0222600Y0020416D02*
X0252100Y0020416D01*
X0252100Y0019617D02*
X0222600Y0019617D01*
X0222600Y0018819D02*
X0252100Y0018819D01*
X0252100Y0018020D02*
X0221940Y0018020D01*
X0219060Y0018020D02*
X0159799Y0018020D01*
X0160597Y0018819D02*
X0218400Y0018819D01*
X0217604Y0019617D02*
X0161396Y0019617D01*
X0162194Y0020416D02*
X0216806Y0020416D01*
X0218470Y0024408D02*
X0218900Y0024408D01*
X0218900Y0025207D02*
X0217672Y0025207D01*
X0219485Y0026005D02*
X0204925Y0026005D01*
X0203075Y0026005D02*
X0193623Y0026005D01*
X0194241Y0026804D02*
X0202276Y0026804D01*
X0201900Y0027602D02*
X0194571Y0027602D01*
X0194700Y0028401D02*
X0201900Y0028401D01*
X0201381Y0029199D02*
X0194700Y0029199D01*
X0194472Y0029998D02*
X0200582Y0029998D01*
X0200400Y0030796D02*
X0194141Y0030796D01*
X0193383Y0031595D02*
X0198485Y0031595D01*
X0197900Y0032393D02*
X0191957Y0032393D01*
X0189728Y0032393D02*
X0172272Y0032393D01*
X0172130Y0032950D02*
X0170900Y0034180D01*
X0170900Y0035920D01*
X0171030Y0036050D01*
X0169900Y0037180D01*
X0169900Y0038920D01*
X0171130Y0040150D01*
X0172870Y0040150D01*
X0174100Y0038920D01*
X0174100Y0037180D01*
X0173970Y0037050D01*
X0175100Y0035920D01*
X0175100Y0034180D01*
X0173870Y0032950D01*
X0172130Y0032950D01*
X0171888Y0033192D02*
X0159149Y0033192D01*
X0159020Y0033321D02*
X0157385Y0033998D01*
X0155615Y0033998D01*
X0153980Y0033321D01*
X0152729Y0032070D01*
X0152052Y0030435D01*
X0152052Y0028665D01*
X0152729Y0027030D01*
X0153980Y0025779D01*
X0155615Y0025102D01*
X0157385Y0025102D01*
X0159020Y0025779D01*
X0160271Y0027030D01*
X0160948Y0028665D01*
X0160948Y0030435D01*
X0160271Y0032070D01*
X0159020Y0033321D01*
X0159947Y0032393D02*
X0170043Y0032393D01*
X0168617Y0031595D02*
X0160467Y0031595D01*
X0160798Y0030796D02*
X0167859Y0030796D01*
X0167528Y0029998D02*
X0160948Y0029998D01*
X0160948Y0029199D02*
X0167300Y0029199D01*
X0167300Y0028401D02*
X0160839Y0028401D01*
X0160508Y0027602D02*
X0167429Y0027602D01*
X0167759Y0026804D02*
X0160044Y0026804D01*
X0159246Y0026005D02*
X0168377Y0026005D01*
X0173938Y0026005D02*
X0188062Y0026005D01*
X0187444Y0026804D02*
X0174556Y0026804D01*
X0174886Y0027602D02*
X0187114Y0027602D01*
X0186985Y0028401D02*
X0175015Y0028401D01*
X0175015Y0029199D02*
X0186985Y0029199D01*
X0187213Y0029998D02*
X0174787Y0029998D01*
X0174456Y0030796D02*
X0187544Y0030796D01*
X0188302Y0031595D02*
X0173698Y0031595D01*
X0174112Y0033192D02*
X0197900Y0033192D01*
X0197971Y0033990D02*
X0174910Y0033990D01*
X0175100Y0034789D02*
X0198769Y0034789D01*
X0201231Y0034789D02*
X0224500Y0034789D01*
X0224500Y0035587D02*
X0218507Y0035587D01*
X0219100Y0036180D02*
X0217870Y0034950D01*
X0216130Y0034950D01*
X0214900Y0036180D01*
X0214900Y0037920D01*
X0216130Y0039150D01*
X0217870Y0039150D01*
X0219100Y0037920D01*
X0219100Y0036180D01*
X0219100Y0036386D02*
X0224500Y0036386D01*
X0224500Y0037184D02*
X0219100Y0037184D01*
X0219037Y0037983D02*
X0224500Y0037983D01*
X0224500Y0038782D02*
X0218238Y0038782D01*
X0215762Y0038782D02*
X0174100Y0038782D01*
X0174100Y0037983D02*
X0214963Y0037983D01*
X0214900Y0037184D02*
X0174100Y0037184D01*
X0174634Y0036386D02*
X0214900Y0036386D01*
X0215493Y0035587D02*
X0175100Y0035587D01*
X0170900Y0035587D02*
X0145000Y0035587D01*
X0145000Y0034789D02*
X0170900Y0034789D01*
X0171090Y0033990D02*
X0157403Y0033990D01*
X0155597Y0033990D02*
X0145000Y0033990D01*
X0145328Y0033192D02*
X0153851Y0033192D01*
X0153053Y0032393D02*
X0146100Y0032393D01*
X0146100Y0031595D02*
X0152533Y0031595D01*
X0152202Y0030796D02*
X0146100Y0030796D01*
X0145418Y0029998D02*
X0152052Y0029998D01*
X0152052Y0029199D02*
X0145000Y0029199D01*
X0145000Y0028401D02*
X0152161Y0028401D01*
X0152492Y0027602D02*
X0145000Y0027602D01*
X0145000Y0026804D02*
X0152956Y0026804D01*
X0153754Y0026005D02*
X0145000Y0026005D01*
X0145000Y0025207D02*
X0155362Y0025207D01*
X0157638Y0025207D02*
X0161328Y0025207D01*
X0160530Y0024408D02*
X0145000Y0024408D01*
X0145000Y0023610D02*
X0159731Y0023610D01*
X0160500Y0024378D02*
X0160500Y0024378D01*
X0158933Y0022811D02*
X0145000Y0022811D01*
X0143400Y0022811D02*
X0136600Y0022811D01*
X0136600Y0022013D02*
X0143400Y0022013D01*
X0143573Y0021214D02*
X0136600Y0021214D01*
X0136600Y0020416D02*
X0156537Y0020416D01*
X0155739Y0019617D02*
X0136600Y0019617D01*
X0136600Y0018819D02*
X0154940Y0018819D01*
X0154142Y0018020D02*
X0136600Y0018020D01*
X0136600Y0017222D02*
X0153343Y0017222D01*
X0152545Y0016423D02*
X0136600Y0016423D01*
X0136600Y0015625D02*
X0151746Y0015625D01*
X0150948Y0014826D02*
X0136600Y0014826D01*
X0136600Y0014028D02*
X0150149Y0014028D01*
X0149351Y0013229D02*
X0136600Y0013229D01*
X0136600Y0012431D02*
X0148552Y0012431D01*
X0147754Y0011632D02*
X0136600Y0011632D01*
X0136600Y0010834D02*
X0146955Y0010834D01*
X0143657Y0010035D02*
X0136600Y0010035D01*
X0135000Y0010035D02*
X0129600Y0010035D01*
X0129600Y0010834D02*
X0135000Y0010834D01*
X0135000Y0011632D02*
X0129388Y0011632D01*
X0129600Y0012431D02*
X0135000Y0012431D01*
X0135000Y0013229D02*
X0129600Y0013229D01*
X0129492Y0014028D02*
X0135000Y0014028D01*
X0135000Y0014826D02*
X0128694Y0014826D01*
X0126306Y0014826D02*
X0101600Y0014826D01*
X0101600Y0014920D02*
X0100370Y0016150D01*
X0098630Y0016150D01*
X0097400Y0014920D01*
X0097400Y0013180D01*
X0098630Y0011950D01*
X0100370Y0011950D01*
X0101600Y0013180D01*
X0101600Y0014920D01*
X0101600Y0014028D02*
X0125508Y0014028D01*
X0125400Y0013229D02*
X0101600Y0013229D01*
X0100850Y0012431D02*
X0125400Y0012431D01*
X0125612Y0011632D02*
X0096000Y0011632D01*
X0096000Y0010834D02*
X0125400Y0010834D01*
X0125400Y0010035D02*
X0096000Y0010035D01*
X0094400Y0010035D02*
X0090060Y0010035D01*
X0089600Y0010834D02*
X0094400Y0010834D01*
X0094400Y0011632D02*
X0088888Y0011632D01*
X0086112Y0011632D02*
X0075888Y0011632D01*
X0076100Y0010834D02*
X0085400Y0010834D01*
X0085400Y0010035D02*
X0076100Y0010035D01*
X0075656Y0009237D02*
X0085400Y0009237D01*
X0086142Y0008438D02*
X0068600Y0008438D01*
X0068600Y0007640D02*
X0087365Y0007640D01*
X0088000Y0006841D02*
X0068261Y0006841D01*
X0067462Y0006043D02*
X0088679Y0006043D01*
X0096000Y0012431D02*
X0098149Y0012431D01*
X0097400Y0013229D02*
X0096000Y0013229D01*
X0096000Y0014028D02*
X0097400Y0014028D01*
X0097400Y0014826D02*
X0096000Y0014826D01*
X0096000Y0015625D02*
X0098105Y0015625D01*
X0097343Y0016423D02*
X0106157Y0016423D01*
X0105900Y0016680D02*
X0107130Y0015450D01*
X0108870Y0015450D01*
X0110100Y0016680D01*
X0110100Y0018420D01*
X0108870Y0019650D01*
X0107130Y0019650D01*
X0105900Y0018420D01*
X0105900Y0016680D01*
X0105900Y0017222D02*
X0098100Y0017222D01*
X0098100Y0018020D02*
X0105900Y0018020D01*
X0106299Y0018819D02*
X0098100Y0018819D01*
X0097403Y0019617D02*
X0098963Y0019617D01*
X0098400Y0020180D02*
X0099630Y0018950D01*
X0101370Y0018950D01*
X0102600Y0020180D01*
X0102600Y0021920D01*
X0101370Y0023150D01*
X0099630Y0023150D01*
X0098400Y0021920D01*
X0098400Y0020180D01*
X0098400Y0020416D02*
X0096000Y0020416D01*
X0096000Y0021214D02*
X0098400Y0021214D01*
X0098493Y0022013D02*
X0096000Y0022013D01*
X0096000Y0022811D02*
X0099291Y0022811D01*
X0101709Y0022811D02*
X0114769Y0022811D01*
X0115130Y0022450D02*
X0116870Y0022450D01*
X0118100Y0023680D01*
X0118100Y0025420D01*
X0116870Y0026650D01*
X0115130Y0026650D01*
X0113900Y0025420D01*
X0113900Y0023680D01*
X0115130Y0022450D01*
X0113970Y0023610D02*
X0096000Y0023610D01*
X0096000Y0024408D02*
X0113900Y0024408D01*
X0113900Y0025207D02*
X0096000Y0025207D01*
X0096000Y0026005D02*
X0114485Y0026005D01*
X0117514Y0026005D02*
X0125075Y0026005D01*
X0124900Y0026180D02*
X0126130Y0024950D01*
X0127870Y0024950D01*
X0129100Y0026180D01*
X0129100Y0027920D01*
X0127870Y0029150D01*
X0126130Y0029150D01*
X0124900Y0027920D01*
X0124900Y0026180D01*
X0124900Y0026804D02*
X0096000Y0026804D01*
X0096000Y0027602D02*
X0124900Y0027602D01*
X0125381Y0028401D02*
X0096000Y0028401D01*
X0096000Y0029199D02*
X0129381Y0029199D01*
X0128900Y0029680D02*
X0130130Y0028450D01*
X0131870Y0028450D01*
X0133100Y0029680D01*
X0133100Y0031420D01*
X0131870Y0032650D01*
X0130130Y0032650D01*
X0128900Y0031420D01*
X0128900Y0029680D01*
X0128900Y0029998D02*
X0096000Y0029998D01*
X0096000Y0030796D02*
X0128900Y0030796D01*
X0129075Y0031595D02*
X0096000Y0031595D01*
X0096000Y0032393D02*
X0129874Y0032393D01*
X0132126Y0032393D02*
X0135000Y0032393D01*
X0135000Y0031595D02*
X0132925Y0031595D01*
X0133100Y0030796D02*
X0135000Y0030796D01*
X0136600Y0030796D02*
X0143400Y0030796D01*
X0143400Y0029998D02*
X0136600Y0029998D01*
X0136600Y0029199D02*
X0143400Y0029199D01*
X0143400Y0028401D02*
X0136600Y0028401D01*
X0136600Y0027602D02*
X0143400Y0027602D01*
X0143400Y0026804D02*
X0136600Y0026804D01*
X0136600Y0026005D02*
X0143400Y0026005D01*
X0143400Y0025207D02*
X0136600Y0025207D01*
X0136600Y0024408D02*
X0143400Y0024408D01*
X0143400Y0023610D02*
X0136600Y0023610D01*
X0135000Y0023610D02*
X0118030Y0023610D01*
X0118100Y0024408D02*
X0135000Y0024408D01*
X0135000Y0025207D02*
X0128127Y0025207D01*
X0128925Y0026005D02*
X0135000Y0026005D01*
X0133776Y0026804D02*
X0129100Y0026804D01*
X0129100Y0027602D02*
X0132978Y0027602D01*
X0132900Y0028401D02*
X0128619Y0028401D01*
X0132619Y0029199D02*
X0132900Y0029199D01*
X0133100Y0029998D02*
X0133478Y0029998D01*
X0136600Y0031595D02*
X0143400Y0031595D01*
X0143400Y0032393D02*
X0136600Y0032393D01*
X0136600Y0033192D02*
X0143400Y0033192D01*
X0143400Y0033990D02*
X0136600Y0033990D01*
X0136600Y0034789D02*
X0143400Y0034789D01*
X0143400Y0035587D02*
X0136600Y0035587D01*
X0136600Y0036386D02*
X0143400Y0036386D01*
X0143400Y0037184D02*
X0136600Y0037184D01*
X0136600Y0037983D02*
X0143400Y0037983D01*
X0143400Y0038782D02*
X0136600Y0038782D01*
X0136600Y0039580D02*
X0143400Y0039580D01*
X0143400Y0040379D02*
X0136600Y0040379D01*
X0136600Y0041177D02*
X0143400Y0041177D01*
X0143400Y0041976D02*
X0136600Y0041976D01*
X0136600Y0042774D02*
X0143400Y0042774D01*
X0143400Y0043573D02*
X0136600Y0043573D01*
X0136600Y0044371D02*
X0143400Y0044371D01*
X0143400Y0045170D02*
X0136600Y0045170D01*
X0136600Y0045968D02*
X0143400Y0045968D01*
X0143400Y0046767D02*
X0136600Y0046767D01*
X0136600Y0047565D02*
X0143400Y0047565D01*
X0143400Y0048364D02*
X0136600Y0048364D01*
X0136600Y0049162D02*
X0143400Y0049162D01*
X0143400Y0049961D02*
X0136600Y0049961D01*
X0136600Y0050759D02*
X0143400Y0050759D01*
X0143400Y0051558D02*
X0136600Y0051558D01*
X0136600Y0052356D02*
X0143400Y0052356D01*
X0143400Y0053155D02*
X0136600Y0053155D01*
X0136600Y0053953D02*
X0143400Y0053953D01*
X0143400Y0054752D02*
X0136600Y0054752D01*
X0136600Y0055550D02*
X0143400Y0055550D01*
X0143400Y0056349D02*
X0136600Y0056349D01*
X0136600Y0057147D02*
X0143400Y0057147D01*
X0143400Y0057946D02*
X0136600Y0057946D01*
X0136600Y0058744D02*
X0143400Y0058744D01*
X0143400Y0059543D02*
X0136600Y0059543D01*
X0136600Y0060341D02*
X0143400Y0060341D01*
X0143400Y0061140D02*
X0136600Y0061140D01*
X0136600Y0061938D02*
X0143400Y0061938D01*
X0143400Y0062737D02*
X0136600Y0062737D01*
X0136600Y0063535D02*
X0143400Y0063535D01*
X0143400Y0064334D02*
X0136600Y0064334D01*
X0136600Y0065132D02*
X0143400Y0065132D01*
X0143400Y0065931D02*
X0136600Y0065931D01*
X0136600Y0066729D02*
X0143400Y0066729D01*
X0143400Y0067528D02*
X0136600Y0067528D01*
X0136600Y0068326D02*
X0143400Y0068326D01*
X0143400Y0069125D02*
X0136600Y0069125D01*
X0136600Y0069923D02*
X0143400Y0069923D01*
X0143400Y0070722D02*
X0136600Y0070722D01*
X0136600Y0071520D02*
X0143400Y0071520D01*
X0143400Y0072319D02*
X0136600Y0072319D01*
X0136600Y0073118D02*
X0143400Y0073118D01*
X0143400Y0073916D02*
X0136600Y0073916D01*
X0136600Y0074715D02*
X0143400Y0074715D01*
X0143400Y0075513D02*
X0136600Y0075513D01*
X0136600Y0076312D02*
X0143400Y0076312D01*
X0143400Y0077110D02*
X0136600Y0077110D01*
X0136600Y0077909D02*
X0143400Y0077909D01*
X0143400Y0078707D02*
X0136600Y0078707D01*
X0136600Y0079506D02*
X0143400Y0079506D01*
X0143400Y0080304D02*
X0136600Y0080304D01*
X0136600Y0081103D02*
X0143400Y0081103D01*
X0143400Y0081901D02*
X0136600Y0081901D01*
X0136600Y0082700D02*
X0143400Y0082700D01*
X0143400Y0083498D02*
X0136600Y0083498D01*
X0136600Y0084297D02*
X0143400Y0084297D01*
X0143400Y0085095D02*
X0136600Y0085095D01*
X0136600Y0085894D02*
X0143400Y0085894D01*
X0143400Y0086692D02*
X0136600Y0086692D01*
X0136600Y0087491D02*
X0143400Y0087491D01*
X0143400Y0088289D02*
X0136600Y0088289D01*
X0136600Y0089088D02*
X0143400Y0089088D01*
X0143400Y0089886D02*
X0136600Y0089886D01*
X0136600Y0090685D02*
X0143400Y0090685D01*
X0143400Y0091483D02*
X0136600Y0091483D01*
X0136600Y0092282D02*
X0143400Y0092282D01*
X0143400Y0093080D02*
X0136600Y0093080D01*
X0136600Y0093879D02*
X0143400Y0093879D01*
X0143400Y0094677D02*
X0136600Y0094677D01*
X0136600Y0095476D02*
X0143400Y0095476D01*
X0143400Y0096274D02*
X0136600Y0096274D01*
X0136600Y0097073D02*
X0143400Y0097073D01*
X0143400Y0097871D02*
X0136600Y0097871D01*
X0136600Y0098670D02*
X0143400Y0098670D01*
X0143400Y0099468D02*
X0136600Y0099468D01*
X0136600Y0100267D02*
X0143400Y0100267D01*
X0143400Y0101065D02*
X0136600Y0101065D01*
X0136600Y0101864D02*
X0143400Y0101864D01*
X0143400Y0102662D02*
X0136600Y0102662D01*
X0136600Y0103461D02*
X0143400Y0103461D01*
X0143400Y0104259D02*
X0136600Y0104259D01*
X0136600Y0105058D02*
X0143400Y0105058D01*
X0143400Y0105856D02*
X0136600Y0105856D01*
X0136600Y0106655D02*
X0143400Y0106655D01*
X0143400Y0107453D02*
X0136600Y0107453D01*
X0136600Y0108252D02*
X0143400Y0108252D01*
X0143400Y0109051D02*
X0136600Y0109051D01*
X0136600Y0109849D02*
X0143400Y0109849D01*
X0143400Y0110648D02*
X0136600Y0110648D01*
X0136600Y0111446D02*
X0143400Y0111446D01*
X0143400Y0112245D02*
X0136600Y0112245D01*
X0136600Y0113043D02*
X0143400Y0113043D01*
X0143400Y0113842D02*
X0136600Y0113842D01*
X0136600Y0114640D02*
X0143400Y0114640D01*
X0143400Y0115439D02*
X0136600Y0115439D01*
X0136600Y0116237D02*
X0143400Y0116237D01*
X0143400Y0117036D02*
X0136600Y0117036D01*
X0136600Y0117834D02*
X0143400Y0117834D01*
X0143400Y0118633D02*
X0136600Y0118633D01*
X0136600Y0119431D02*
X0143400Y0119431D01*
X0143400Y0120230D02*
X0136600Y0120230D01*
X0136600Y0121028D02*
X0143400Y0121028D01*
X0143400Y0121827D02*
X0136600Y0121827D01*
X0136600Y0122625D02*
X0143400Y0122625D01*
X0143400Y0123424D02*
X0136600Y0123424D01*
X0136600Y0124222D02*
X0143400Y0124222D01*
X0143400Y0125021D02*
X0136600Y0125021D01*
X0136493Y0125819D02*
X0143507Y0125819D01*
X0144305Y0126618D02*
X0135695Y0126618D01*
X0129001Y0125021D02*
X0096000Y0125021D01*
X0096000Y0124222D02*
X0128900Y0124222D01*
X0128900Y0123424D02*
X0096000Y0123424D01*
X0096000Y0122625D02*
X0129455Y0122625D01*
X0135000Y0121827D02*
X0096000Y0121827D01*
X0096000Y0121028D02*
X0135000Y0121028D01*
X0135000Y0120230D02*
X0096000Y0120230D01*
X0094400Y0114640D02*
X0005900Y0114640D01*
X0005900Y0113842D02*
X0094400Y0113842D01*
X0094400Y0113043D02*
X0005900Y0113043D01*
X0005900Y0112245D02*
X0094400Y0112245D01*
X0094400Y0111446D02*
X0005900Y0111446D01*
X0005900Y0110648D02*
X0094400Y0110648D01*
X0101880Y0114640D02*
X0134900Y0114640D01*
X0145000Y0114640D02*
X0153400Y0114640D01*
X0153400Y0114920D02*
X0153400Y0113180D01*
X0154630Y0111950D01*
X0156370Y0111950D01*
X0157600Y0113180D01*
X0157600Y0114920D01*
X0156370Y0116150D01*
X0154630Y0116150D01*
X0153400Y0114920D01*
X0153919Y0115439D02*
X0145000Y0115439D01*
X0145000Y0116237D02*
X0172217Y0116237D01*
X0172530Y0116550D02*
X0171900Y0115920D01*
X0171900Y0114180D01*
X0173130Y0112950D01*
X0174870Y0112950D01*
X0176000Y0114080D01*
X0177130Y0112950D01*
X0178870Y0112950D01*
X0180100Y0114180D01*
X0180100Y0115920D01*
X0179470Y0116550D01*
X0180100Y0117180D01*
X0180100Y0118920D01*
X0178870Y0120150D01*
X0177130Y0120150D01*
X0176000Y0119020D01*
X0174870Y0120150D01*
X0173130Y0120150D01*
X0171900Y0118920D01*
X0171900Y0117180D01*
X0172530Y0116550D01*
X0172045Y0117036D02*
X0145000Y0117036D01*
X0145000Y0117834D02*
X0171900Y0117834D01*
X0171900Y0118633D02*
X0145000Y0118633D01*
X0145000Y0119431D02*
X0172411Y0119431D01*
X0172150Y0120230D02*
X0184350Y0120230D01*
X0183900Y0120680D02*
X0185130Y0119450D01*
X0186870Y0119450D01*
X0188100Y0120680D01*
X0188100Y0122420D01*
X0186870Y0123650D01*
X0185130Y0123650D01*
X0183900Y0122420D01*
X0183900Y0120680D01*
X0183900Y0121028D02*
X0172600Y0121028D01*
X0172600Y0120680D02*
X0171370Y0119450D01*
X0169630Y0119450D01*
X0168400Y0120680D01*
X0168400Y0122420D01*
X0169630Y0123650D01*
X0171370Y0123650D01*
X0172600Y0122420D01*
X0172600Y0120680D01*
X0172600Y0121827D02*
X0183900Y0121827D01*
X0184105Y0122625D02*
X0172395Y0122625D01*
X0171596Y0123424D02*
X0184904Y0123424D01*
X0187096Y0123424D02*
X0193904Y0123424D01*
X0194130Y0123650D02*
X0192900Y0122420D01*
X0192900Y0120680D01*
X0194130Y0119450D01*
X0195870Y0119450D01*
X0197100Y0120680D01*
X0197100Y0122420D01*
X0195870Y0123650D01*
X0194130Y0123650D01*
X0193105Y0122625D02*
X0187895Y0122625D01*
X0188100Y0121827D02*
X0192900Y0121827D01*
X0192900Y0121028D02*
X0188100Y0121028D01*
X0187650Y0120230D02*
X0193350Y0120230D01*
X0196650Y0120230D02*
X0197850Y0120230D01*
X0197400Y0120680D02*
X0198630Y0119450D01*
X0200370Y0119450D01*
X0201600Y0120680D01*
X0201600Y0122420D01*
X0200370Y0123650D01*
X0198630Y0123650D01*
X0197400Y0122420D01*
X0197400Y0120680D01*
X0197400Y0121028D02*
X0197100Y0121028D01*
X0197100Y0121827D02*
X0197400Y0121827D01*
X0197605Y0122625D02*
X0196895Y0122625D01*
X0196096Y0123424D02*
X0198404Y0123424D01*
X0200596Y0123424D02*
X0215904Y0123424D01*
X0216130Y0123650D02*
X0214900Y0122420D01*
X0214900Y0120680D01*
X0216130Y0119450D01*
X0217870Y0119450D01*
X0219100Y0120680D01*
X0219100Y0122420D01*
X0217870Y0123650D01*
X0216130Y0123650D01*
X0215105Y0122625D02*
X0201395Y0122625D01*
X0201600Y0121827D02*
X0214900Y0121827D01*
X0214900Y0121028D02*
X0201600Y0121028D01*
X0201150Y0120230D02*
X0215350Y0120230D01*
X0218650Y0120230D02*
X0224500Y0120230D01*
X0224500Y0121028D02*
X0219100Y0121028D01*
X0219100Y0121827D02*
X0224500Y0121827D01*
X0224500Y0122625D02*
X0218895Y0122625D01*
X0218096Y0123424D02*
X0224500Y0123424D01*
X0224500Y0124222D02*
X0145000Y0124222D01*
X0145000Y0123424D02*
X0163904Y0123424D01*
X0164130Y0123650D02*
X0162900Y0122420D01*
X0162900Y0120680D01*
X0164130Y0119450D01*
X0165870Y0119450D01*
X0167100Y0120680D01*
X0167100Y0122420D01*
X0165870Y0123650D01*
X0164130Y0123650D01*
X0163105Y0122625D02*
X0145000Y0122625D01*
X0145000Y0121827D02*
X0162900Y0121827D01*
X0162900Y0121028D02*
X0145000Y0121028D01*
X0145000Y0120230D02*
X0163350Y0120230D01*
X0166650Y0120230D02*
X0168850Y0120230D01*
X0168400Y0121028D02*
X0167100Y0121028D01*
X0167100Y0121827D02*
X0168400Y0121827D01*
X0168605Y0122625D02*
X0166895Y0122625D01*
X0166096Y0123424D02*
X0169404Y0123424D01*
X0175589Y0119431D02*
X0176411Y0119431D01*
X0179589Y0119431D02*
X0201411Y0119431D01*
X0200900Y0118920D02*
X0202130Y0120150D01*
X0203870Y0120150D01*
X0205000Y0119020D01*
X0206130Y0120150D01*
X0207870Y0120150D01*
X0209100Y0118920D01*
X0209100Y0117180D01*
X0208470Y0116550D01*
X0209100Y0115920D01*
X0209100Y0114180D01*
X0207870Y0112950D01*
X0206130Y0112950D01*
X0205000Y0114080D01*
X0203870Y0112950D01*
X0202130Y0112950D01*
X0200900Y0114180D01*
X0200900Y0115920D01*
X0201530Y0116550D01*
X0200900Y0117180D01*
X0200900Y0118920D01*
X0200900Y0118633D02*
X0180100Y0118633D01*
X0180100Y0117834D02*
X0200900Y0117834D01*
X0201045Y0117036D02*
X0179955Y0117036D01*
X0179783Y0116237D02*
X0201217Y0116237D01*
X0200900Y0115439D02*
X0180100Y0115439D01*
X0180100Y0114640D02*
X0200900Y0114640D01*
X0201239Y0113842D02*
X0179761Y0113842D01*
X0178963Y0113043D02*
X0202037Y0113043D01*
X0203963Y0113043D02*
X0206037Y0113043D01*
X0205239Y0113842D02*
X0204761Y0113842D01*
X0207963Y0113043D02*
X0224500Y0113043D01*
X0224500Y0112245D02*
X0156664Y0112245D01*
X0157463Y0113043D02*
X0173037Y0113043D01*
X0172239Y0113842D02*
X0157600Y0113842D01*
X0157600Y0114640D02*
X0171900Y0114640D01*
X0171900Y0115439D02*
X0157081Y0115439D01*
X0153400Y0113842D02*
X0145000Y0113842D01*
X0145000Y0113043D02*
X0153537Y0113043D01*
X0154336Y0112245D02*
X0145000Y0112245D01*
X0145000Y0111446D02*
X0185426Y0111446D01*
X0184900Y0110920D02*
X0184900Y0109180D01*
X0186130Y0107950D01*
X0187870Y0107950D01*
X0188500Y0108580D01*
X0189130Y0107950D01*
X0190870Y0107950D01*
X0192100Y0109180D01*
X0192100Y0110920D01*
X0190870Y0112150D01*
X0189130Y0112150D01*
X0188500Y0111520D01*
X0187870Y0112150D01*
X0186130Y0112150D01*
X0184900Y0110920D01*
X0184900Y0110648D02*
X0145000Y0110648D01*
X0145000Y0109849D02*
X0177829Y0109849D01*
X0178130Y0110150D02*
X0176900Y0108920D01*
X0176900Y0107180D01*
X0178130Y0105950D01*
X0179870Y0105950D01*
X0181100Y0107180D01*
X0181100Y0108920D01*
X0179870Y0110150D01*
X0178130Y0110150D01*
X0177031Y0109051D02*
X0149969Y0109051D01*
X0149370Y0109650D02*
X0147630Y0109650D01*
X0146400Y0108420D01*
X0146400Y0106680D01*
X0147630Y0105450D01*
X0149370Y0105450D01*
X0150600Y0106680D01*
X0150600Y0108420D01*
X0149370Y0109650D01*
X0150600Y0108252D02*
X0176900Y0108252D01*
X0176900Y0107453D02*
X0167566Y0107453D01*
X0167370Y0107650D02*
X0165630Y0107650D01*
X0164400Y0106420D01*
X0164400Y0104680D01*
X0165630Y0103450D01*
X0167370Y0103450D01*
X0168600Y0104680D01*
X0168600Y0106420D01*
X0167370Y0107650D01*
X0168365Y0106655D02*
X0177425Y0106655D01*
X0180575Y0106655D02*
X0206635Y0106655D01*
X0207130Y0107150D02*
X0205900Y0105920D01*
X0205900Y0104180D01*
X0207130Y0102950D01*
X0208870Y0102950D01*
X0210100Y0104180D01*
X0210100Y0105920D01*
X0208870Y0107150D01*
X0207130Y0107150D01*
X0205900Y0105856D02*
X0168600Y0105856D01*
X0168600Y0105058D02*
X0193038Y0105058D01*
X0193130Y0105150D02*
X0191900Y0103920D01*
X0191900Y0102180D01*
X0193130Y0100950D01*
X0194870Y0100950D01*
X0196100Y0102180D01*
X0196100Y0103920D01*
X0194870Y0105150D01*
X0193130Y0105150D01*
X0192240Y0104259D02*
X0168179Y0104259D01*
X0167381Y0103461D02*
X0191900Y0103461D01*
X0191900Y0102662D02*
X0145600Y0102662D01*
X0145600Y0103461D02*
X0158619Y0103461D01*
X0158630Y0103450D02*
X0160370Y0103450D01*
X0161600Y0104680D01*
X0161600Y0106420D01*
X0160370Y0107650D01*
X0158630Y0107650D01*
X0157400Y0106420D01*
X0157400Y0104680D01*
X0158630Y0103450D01*
X0157821Y0104259D02*
X0145260Y0104259D01*
X0145000Y0105058D02*
X0157400Y0105058D01*
X0157400Y0105856D02*
X0149776Y0105856D01*
X0150575Y0106655D02*
X0157635Y0106655D01*
X0158434Y0107453D02*
X0150600Y0107453D01*
X0147224Y0105856D02*
X0145000Y0105856D01*
X0145000Y0106655D02*
X0146425Y0106655D01*
X0146400Y0107453D02*
X0145000Y0107453D01*
X0145000Y0108252D02*
X0146400Y0108252D01*
X0147031Y0109051D02*
X0145000Y0109051D01*
X0133934Y0107453D02*
X0128566Y0107453D01*
X0129100Y0106655D02*
X0133135Y0106655D01*
X0132900Y0105856D02*
X0129100Y0105856D01*
X0129630Y0105650D02*
X0128400Y0104420D01*
X0128400Y0102680D01*
X0129630Y0101450D01*
X0131370Y0101450D01*
X0132600Y0102680D01*
X0132600Y0104420D01*
X0131370Y0105650D01*
X0129630Y0105650D01*
X0129038Y0105058D02*
X0128978Y0105058D01*
X0128400Y0104259D02*
X0128179Y0104259D01*
X0128400Y0103461D02*
X0096000Y0103461D01*
X0096000Y0104259D02*
X0125821Y0104259D01*
X0128418Y0102662D02*
X0117357Y0102662D01*
X0116870Y0103150D02*
X0115130Y0103150D01*
X0113900Y0101920D01*
X0113900Y0100180D01*
X0115030Y0099050D01*
X0113900Y0097920D01*
X0113900Y0096180D01*
X0115030Y0095050D01*
X0113900Y0093920D01*
X0113900Y0092180D01*
X0114780Y0091300D01*
X0113900Y0090420D01*
X0113900Y0088680D01*
X0115130Y0087450D01*
X0116870Y0087450D01*
X0118100Y0088680D01*
X0118100Y0090420D01*
X0117220Y0091300D01*
X0118100Y0092180D01*
X0118100Y0093920D01*
X0116970Y0095050D01*
X0118100Y0096180D01*
X0118100Y0097920D01*
X0116970Y0099050D01*
X0118100Y0100180D01*
X0118100Y0101920D01*
X0116870Y0103150D01*
X0118100Y0101864D02*
X0129216Y0101864D01*
X0131784Y0101864D02*
X0135000Y0101864D01*
X0135000Y0102662D02*
X0132582Y0102662D01*
X0132600Y0103461D02*
X0134119Y0103461D01*
X0133321Y0104259D02*
X0132600Y0104259D01*
X0132900Y0105058D02*
X0131962Y0105058D01*
X0135000Y0101065D02*
X0118100Y0101065D01*
X0118100Y0100267D02*
X0135000Y0100267D01*
X0135000Y0099468D02*
X0117388Y0099468D01*
X0117350Y0098670D02*
X0135000Y0098670D01*
X0135000Y0097871D02*
X0118100Y0097871D01*
X0118100Y0097073D02*
X0135000Y0097073D01*
X0135000Y0096274D02*
X0118100Y0096274D01*
X0117396Y0095476D02*
X0135000Y0095476D01*
X0135000Y0094677D02*
X0117343Y0094677D01*
X0118100Y0093879D02*
X0135000Y0093879D01*
X0135000Y0093080D02*
X0118100Y0093080D01*
X0118100Y0092282D02*
X0135000Y0092282D01*
X0135000Y0091483D02*
X0117403Y0091483D01*
X0117835Y0090685D02*
X0135000Y0090685D01*
X0135000Y0089886D02*
X0118100Y0089886D01*
X0118100Y0089088D02*
X0135000Y0089088D01*
X0135000Y0088289D02*
X0117709Y0088289D01*
X0116911Y0087491D02*
X0135000Y0087491D01*
X0135000Y0086692D02*
X0132828Y0086692D01*
X0132370Y0087150D02*
X0130630Y0087150D01*
X0129400Y0085920D01*
X0129400Y0084180D01*
X0130630Y0082950D01*
X0132370Y0082950D01*
X0133600Y0084180D01*
X0133600Y0085920D01*
X0132370Y0087150D01*
X0133600Y0085894D02*
X0135000Y0085894D01*
X0135000Y0085095D02*
X0133600Y0085095D01*
X0133600Y0084297D02*
X0133777Y0084297D01*
X0132978Y0083498D02*
X0132918Y0083498D01*
X0132900Y0082700D02*
X0096000Y0082700D01*
X0096000Y0083498D02*
X0130082Y0083498D01*
X0129400Y0084297D02*
X0096000Y0084297D01*
X0096000Y0085095D02*
X0129400Y0085095D01*
X0129400Y0085894D02*
X0096000Y0085894D01*
X0096000Y0086692D02*
X0130172Y0086692D01*
X0127870Y0082650D02*
X0126130Y0082650D01*
X0124900Y0081420D01*
X0124900Y0079680D01*
X0126130Y0078450D01*
X0127870Y0078450D01*
X0129100Y0079680D01*
X0129100Y0081420D01*
X0127870Y0082650D01*
X0128619Y0081901D02*
X0132900Y0081901D01*
X0133478Y0081103D02*
X0129100Y0081103D01*
X0129100Y0080304D02*
X0135000Y0080304D01*
X0135000Y0079506D02*
X0128925Y0079506D01*
X0128127Y0078707D02*
X0135000Y0078707D01*
X0135000Y0077909D02*
X0118100Y0077909D01*
X0118100Y0077680D02*
X0116870Y0076450D01*
X0115130Y0076450D01*
X0113900Y0077680D01*
X0113900Y0079420D01*
X0115130Y0080650D01*
X0116870Y0080650D01*
X0118100Y0079420D01*
X0118100Y0077680D01*
X0117530Y0077110D02*
X0135000Y0077110D01*
X0135000Y0076312D02*
X0102208Y0076312D01*
X0102600Y0075920D02*
X0101370Y0077150D01*
X0099630Y0077150D01*
X0098400Y0075920D01*
X0098400Y0074180D01*
X0099630Y0072950D01*
X0101370Y0072950D01*
X0102600Y0074180D01*
X0102600Y0075920D01*
X0102600Y0075513D02*
X0120993Y0075513D01*
X0121130Y0075650D02*
X0119900Y0074420D01*
X0119900Y0072680D01*
X0121130Y0071450D01*
X0122870Y0071450D01*
X0124100Y0072680D01*
X0124100Y0074420D01*
X0122870Y0075650D01*
X0121130Y0075650D01*
X0120195Y0074715D02*
X0102600Y0074715D01*
X0102336Y0073916D02*
X0119900Y0073916D01*
X0119900Y0073118D02*
X0118902Y0073118D01*
X0118870Y0073150D02*
X0117130Y0073150D01*
X0115900Y0071920D01*
X0115900Y0070180D01*
X0117130Y0068950D01*
X0118870Y0068950D01*
X0120100Y0070180D01*
X0120100Y0071920D01*
X0118870Y0073150D01*
X0119701Y0072319D02*
X0120261Y0072319D01*
X0120100Y0071520D02*
X0121060Y0071520D01*
X0120100Y0070722D02*
X0135000Y0070722D01*
X0135000Y0071520D02*
X0122940Y0071520D01*
X0123739Y0072319D02*
X0135000Y0072319D01*
X0135000Y0073118D02*
X0124100Y0073118D01*
X0124100Y0073916D02*
X0135000Y0073916D01*
X0135000Y0074715D02*
X0123805Y0074715D01*
X0123007Y0075513D02*
X0135000Y0075513D01*
X0135000Y0069923D02*
X0130596Y0069923D01*
X0130370Y0070150D02*
X0128630Y0070150D01*
X0127400Y0068920D01*
X0127400Y0067180D01*
X0128630Y0065950D01*
X0130370Y0065950D01*
X0131600Y0067180D01*
X0131600Y0068920D01*
X0130370Y0070150D01*
X0131395Y0069125D02*
X0135000Y0069125D01*
X0135000Y0068326D02*
X0131600Y0068326D01*
X0131600Y0067528D02*
X0135000Y0067528D01*
X0135000Y0066729D02*
X0131149Y0066729D01*
X0127851Y0066729D02*
X0112649Y0066729D01*
X0113100Y0067180D02*
X0111870Y0065950D01*
X0110130Y0065950D01*
X0108900Y0067180D01*
X0108900Y0068920D01*
X0110130Y0070150D01*
X0111870Y0070150D01*
X0113100Y0068920D01*
X0113100Y0067180D01*
X0113100Y0067528D02*
X0127400Y0067528D01*
X0127400Y0068326D02*
X0113100Y0068326D01*
X0112895Y0069125D02*
X0116955Y0069125D01*
X0116157Y0069923D02*
X0112096Y0069923D01*
X0109904Y0069923D02*
X0098100Y0069923D01*
X0098100Y0070722D02*
X0115900Y0070722D01*
X0115900Y0071520D02*
X0097999Y0071520D01*
X0097201Y0072319D02*
X0116299Y0072319D01*
X0117098Y0073118D02*
X0101537Y0073118D01*
X0099463Y0073118D02*
X0096000Y0073118D01*
X0096000Y0073916D02*
X0098664Y0073916D01*
X0098400Y0074715D02*
X0096000Y0074715D01*
X0096000Y0075513D02*
X0098400Y0075513D01*
X0098792Y0076312D02*
X0096000Y0076312D01*
X0096000Y0077110D02*
X0099590Y0077110D01*
X0101410Y0077110D02*
X0114470Y0077110D01*
X0113900Y0077909D02*
X0096000Y0077909D01*
X0096000Y0078707D02*
X0113900Y0078707D01*
X0113986Y0079506D02*
X0096000Y0079506D01*
X0096000Y0080304D02*
X0114784Y0080304D01*
X0117216Y0080304D02*
X0124900Y0080304D01*
X0124900Y0081103D02*
X0096000Y0081103D01*
X0096000Y0081901D02*
X0125381Y0081901D01*
X0125075Y0079506D02*
X0118014Y0079506D01*
X0118100Y0078707D02*
X0125873Y0078707D01*
X0128404Y0069923D02*
X0119843Y0069923D01*
X0119045Y0069125D02*
X0127605Y0069125D01*
X0135000Y0065931D02*
X0109089Y0065931D01*
X0108870Y0066150D02*
X0107130Y0066150D01*
X0105900Y0064920D01*
X0105900Y0063180D01*
X0107130Y0061950D01*
X0108870Y0061950D01*
X0110100Y0063180D01*
X0110100Y0064920D01*
X0108870Y0066150D01*
X0109351Y0066729D02*
X0096000Y0066729D01*
X0096000Y0065931D02*
X0106911Y0065931D01*
X0106113Y0065132D02*
X0096000Y0065132D01*
X0097186Y0064334D02*
X0105900Y0064334D01*
X0105900Y0063535D02*
X0097984Y0063535D01*
X0098100Y0062737D02*
X0106343Y0062737D01*
X0109657Y0062737D02*
X0135000Y0062737D01*
X0135000Y0063535D02*
X0110100Y0063535D01*
X0110100Y0064334D02*
X0135000Y0064334D01*
X0135000Y0065132D02*
X0109887Y0065132D01*
X0108900Y0067528D02*
X0096000Y0067528D01*
X0096000Y0068326D02*
X0108900Y0068326D01*
X0109105Y0069125D02*
X0097545Y0069125D01*
X0094400Y0069125D02*
X0029895Y0069125D01*
X0030693Y0068326D02*
X0094400Y0068326D01*
X0094400Y0067528D02*
X0031100Y0067528D01*
X0031100Y0066729D02*
X0094400Y0066729D01*
X0094400Y0065931D02*
X0030851Y0065931D01*
X0030052Y0065132D02*
X0094400Y0065132D01*
X0098100Y0061938D02*
X0098919Y0061938D01*
X0098400Y0061140D02*
X0097560Y0061140D01*
X0102081Y0061938D02*
X0135000Y0061938D01*
X0135000Y0061140D02*
X0102600Y0061140D01*
X0102600Y0060341D02*
X0135000Y0060341D01*
X0135000Y0059543D02*
X0117477Y0059543D01*
X0116870Y0060150D02*
X0115130Y0060150D01*
X0113900Y0058920D01*
X0113900Y0057180D01*
X0115130Y0055950D01*
X0116870Y0055950D01*
X0118100Y0057180D01*
X0118100Y0058920D01*
X0116870Y0060150D01*
X0118100Y0058744D02*
X0135000Y0058744D01*
X0135000Y0057946D02*
X0118100Y0057946D01*
X0118067Y0057147D02*
X0135000Y0057147D01*
X0135000Y0056349D02*
X0117269Y0056349D01*
X0114731Y0056349D02*
X0103269Y0056349D01*
X0104067Y0057147D02*
X0113933Y0057147D01*
X0113900Y0057946D02*
X0104100Y0057946D01*
X0104100Y0058744D02*
X0113900Y0058744D01*
X0114523Y0059543D02*
X0103477Y0059543D01*
X0096000Y0047565D02*
X0113900Y0047565D01*
X0113900Y0046767D02*
X0096000Y0046767D01*
X0096000Y0045968D02*
X0114112Y0045968D01*
X0114911Y0045170D02*
X0096000Y0045170D01*
X0096000Y0034789D02*
X0113900Y0034789D01*
X0114590Y0033990D02*
X0096000Y0033990D01*
X0096000Y0033192D02*
X0135000Y0033192D01*
X0135000Y0033990D02*
X0117410Y0033990D01*
X0118100Y0034789D02*
X0135000Y0034789D01*
X0135000Y0035587D02*
X0118100Y0035587D01*
X0118100Y0036386D02*
X0135000Y0036386D01*
X0135000Y0037184D02*
X0117335Y0037184D01*
X0117403Y0037983D02*
X0135000Y0037983D01*
X0135000Y0038782D02*
X0118100Y0038782D01*
X0118100Y0039580D02*
X0135000Y0039580D01*
X0135000Y0040379D02*
X0118100Y0040379D01*
X0117343Y0041177D02*
X0135000Y0041177D01*
X0135000Y0041976D02*
X0117895Y0041976D01*
X0118100Y0042774D02*
X0135000Y0042774D01*
X0135000Y0043573D02*
X0118100Y0043573D01*
X0117649Y0044371D02*
X0135000Y0044371D01*
X0135000Y0045170D02*
X0117089Y0045170D01*
X0117888Y0045968D02*
X0135000Y0045968D01*
X0145000Y0045968D02*
X0161112Y0045968D01*
X0160900Y0046180D02*
X0162130Y0044950D01*
X0163870Y0044950D01*
X0165100Y0046180D01*
X0165100Y0047920D01*
X0163870Y0049150D01*
X0162130Y0049150D01*
X0160900Y0047920D01*
X0160900Y0046180D01*
X0160900Y0046767D02*
X0145000Y0046767D01*
X0145485Y0047565D02*
X0160900Y0047565D01*
X0161344Y0048364D02*
X0145600Y0048364D01*
X0145600Y0049162D02*
X0174400Y0049162D01*
X0174400Y0048680D02*
X0174400Y0050420D01*
X0174500Y0050520D01*
X0174500Y0079999D01*
X0165450Y0070949D01*
X0165450Y0068449D01*
X0164601Y0067600D01*
X0164151Y0067150D01*
X0164870Y0067150D01*
X0166100Y0065920D01*
X0166100Y0064180D01*
X0164870Y0062950D01*
X0163130Y0062950D01*
X0161900Y0064180D01*
X0161900Y0064899D01*
X0160600Y0063599D01*
X0160600Y0062680D01*
X0159370Y0061450D01*
X0157630Y0061450D01*
X0156400Y0062680D01*
X0156400Y0064420D01*
X0156780Y0064800D01*
X0156250Y0065330D01*
X0155870Y0064950D01*
X0154130Y0064950D01*
X0152900Y0066180D01*
X0152900Y0067920D01*
X0154130Y0069150D01*
X0155870Y0069150D01*
X0156750Y0068270D01*
X0157130Y0068650D01*
X0157400Y0068650D01*
X0157400Y0069420D01*
X0158630Y0070650D01*
X0159900Y0070650D01*
X0159900Y0070920D01*
X0161130Y0072150D01*
X0162550Y0072150D01*
X0162550Y0072151D01*
X0163399Y0073000D01*
X0163399Y0073000D01*
X0177550Y0087151D01*
X0177550Y0087151D01*
X0178399Y0088000D01*
X0185101Y0088000D01*
X0195101Y0078000D01*
X0200480Y0078000D01*
X0201130Y0078650D01*
X0202870Y0078650D01*
X0203870Y0077650D01*
X0205370Y0077650D01*
X0206600Y0076420D01*
X0206600Y0075650D01*
X0207370Y0075650D01*
X0208600Y0074420D01*
X0208600Y0073650D01*
X0209370Y0073650D01*
X0210600Y0072420D01*
X0210600Y0070680D01*
X0209370Y0069450D01*
X0207630Y0069450D01*
X0206400Y0070680D01*
X0206400Y0071450D01*
X0205630Y0071450D01*
X0204400Y0072680D01*
X0204400Y0073450D01*
X0203630Y0073450D01*
X0202630Y0074450D01*
X0201130Y0074450D01*
X0200480Y0075100D01*
X0193899Y0075100D01*
X0193050Y0075949D01*
X0183899Y0085100D01*
X0183100Y0085100D01*
X0183100Y0083680D01*
X0181870Y0082450D01*
X0181728Y0082450D01*
X0178500Y0079222D01*
X0178500Y0072520D01*
X0179130Y0073150D01*
X0180870Y0073150D01*
X0182100Y0071920D01*
X0182100Y0070180D01*
X0180870Y0068950D01*
X0179130Y0068950D01*
X0178500Y0069580D01*
X0178500Y0064520D01*
X0179130Y0065150D01*
X0180870Y0065150D01*
X0182100Y0063920D01*
X0182100Y0062180D01*
X0180870Y0060950D01*
X0179130Y0060950D01*
X0178500Y0061580D01*
X0178500Y0055550D01*
X0182828Y0055550D01*
X0184000Y0054378D01*
X0186500Y0051878D01*
X0186500Y0050020D01*
X0186600Y0049920D01*
X0186600Y0048180D01*
X0185370Y0046950D01*
X0183630Y0046950D01*
X0182400Y0048180D01*
X0182400Y0049920D01*
X0182500Y0050020D01*
X0182500Y0050222D01*
X0181172Y0051550D01*
X0178500Y0051550D01*
X0178500Y0050520D01*
X0178600Y0050420D01*
X0178600Y0048680D01*
X0177370Y0047450D01*
X0175630Y0047450D01*
X0174400Y0048680D01*
X0174716Y0048364D02*
X0164656Y0048364D01*
X0165100Y0047565D02*
X0175515Y0047565D01*
X0177485Y0047565D02*
X0183015Y0047565D01*
X0182400Y0048364D02*
X0178284Y0048364D01*
X0178600Y0049162D02*
X0182400Y0049162D01*
X0182441Y0049961D02*
X0178600Y0049961D01*
X0178500Y0050759D02*
X0181962Y0050759D01*
X0184425Y0053953D02*
X0199400Y0053953D01*
X0199400Y0054420D02*
X0199400Y0052680D01*
X0200630Y0051450D01*
X0202370Y0051450D01*
X0203600Y0052680D01*
X0203600Y0054420D01*
X0202370Y0055650D01*
X0200630Y0055650D01*
X0199400Y0054420D01*
X0199732Y0054752D02*
X0183627Y0054752D01*
X0185224Y0053155D02*
X0199400Y0053155D01*
X0199724Y0052356D02*
X0186022Y0052356D01*
X0186500Y0051558D02*
X0200522Y0051558D01*
X0202478Y0051558D02*
X0206400Y0051558D01*
X0206400Y0051180D02*
X0207630Y0049950D01*
X0209370Y0049950D01*
X0209500Y0050080D01*
X0210630Y0048950D01*
X0212370Y0048950D01*
X0213600Y0050180D01*
X0213600Y0051920D01*
X0212370Y0053150D01*
X0210630Y0053150D01*
X0210500Y0053020D01*
X0209370Y0054150D01*
X0207630Y0054150D01*
X0206400Y0052920D01*
X0206400Y0051180D01*
X0206821Y0050759D02*
X0186500Y0050759D01*
X0186559Y0049961D02*
X0207619Y0049961D01*
X0209381Y0049961D02*
X0209619Y0049961D01*
X0210418Y0049162D02*
X0186600Y0049162D01*
X0186600Y0048364D02*
X0197344Y0048364D01*
X0197630Y0048650D02*
X0196400Y0047420D01*
X0196400Y0045680D01*
X0197630Y0044450D01*
X0199370Y0044450D01*
X0200600Y0045680D01*
X0200600Y0047420D01*
X0199370Y0048650D01*
X0197630Y0048650D01*
X0196545Y0047565D02*
X0185985Y0047565D01*
X0196400Y0046767D02*
X0165100Y0046767D01*
X0164888Y0045968D02*
X0196400Y0045968D01*
X0196911Y0045170D02*
X0164089Y0045170D01*
X0161911Y0045170D02*
X0145000Y0045170D01*
X0145000Y0044371D02*
X0224500Y0044371D01*
X0224500Y0043573D02*
X0145000Y0043573D01*
X0145000Y0042774D02*
X0224500Y0042774D01*
X0224500Y0041976D02*
X0145000Y0041976D01*
X0145000Y0041177D02*
X0224500Y0041177D01*
X0224500Y0040379D02*
X0145000Y0040379D01*
X0145000Y0039580D02*
X0170560Y0039580D01*
X0169900Y0038782D02*
X0145000Y0038782D01*
X0145000Y0037983D02*
X0169900Y0037983D01*
X0169900Y0037184D02*
X0145000Y0037184D01*
X0145000Y0036386D02*
X0170694Y0036386D01*
X0173440Y0039580D02*
X0224500Y0039580D01*
X0224500Y0033990D02*
X0202029Y0033990D01*
X0202100Y0033192D02*
X0224500Y0033192D01*
X0224500Y0045170D02*
X0200089Y0045170D01*
X0200600Y0045968D02*
X0224500Y0045968D01*
X0224500Y0046767D02*
X0200600Y0046767D01*
X0200455Y0047565D02*
X0224500Y0047565D01*
X0224500Y0048364D02*
X0199656Y0048364D01*
X0203276Y0052356D02*
X0206400Y0052356D01*
X0206635Y0053155D02*
X0203600Y0053155D01*
X0203600Y0053953D02*
X0207433Y0053953D01*
X0209567Y0053953D02*
X0224500Y0053953D01*
X0224500Y0053155D02*
X0210365Y0053155D01*
X0213164Y0052356D02*
X0224500Y0052356D01*
X0224500Y0051558D02*
X0213600Y0051558D01*
X0213600Y0050759D02*
X0224500Y0050759D01*
X0224500Y0049961D02*
X0213381Y0049961D01*
X0212582Y0049162D02*
X0224500Y0049162D01*
X0224500Y0054752D02*
X0203268Y0054752D01*
X0202470Y0055550D02*
X0224500Y0055550D01*
X0224500Y0056349D02*
X0190100Y0056349D01*
X0190100Y0056180D02*
X0188870Y0054950D01*
X0187130Y0054950D01*
X0185900Y0056180D01*
X0185900Y0057920D01*
X0187130Y0059150D01*
X0188870Y0059150D01*
X0190100Y0057920D01*
X0190100Y0056180D01*
X0189470Y0055550D02*
X0200530Y0055550D01*
X0190100Y0057147D02*
X0224500Y0057147D01*
X0224500Y0057946D02*
X0190074Y0057946D01*
X0189276Y0058744D02*
X0224500Y0058744D01*
X0224500Y0059543D02*
X0178500Y0059543D01*
X0178500Y0060341D02*
X0224500Y0060341D01*
X0224500Y0061140D02*
X0189060Y0061140D01*
X0188870Y0060950D02*
X0190100Y0062180D01*
X0190100Y0063920D01*
X0188870Y0065150D01*
X0187130Y0065150D01*
X0185900Y0063920D01*
X0185900Y0062180D01*
X0187130Y0060950D01*
X0188870Y0060950D01*
X0189858Y0061938D02*
X0224500Y0061938D01*
X0224500Y0062737D02*
X0190100Y0062737D01*
X0190100Y0063535D02*
X0224500Y0063535D01*
X0224500Y0064334D02*
X0189686Y0064334D01*
X0188887Y0065132D02*
X0224500Y0065132D01*
X0224500Y0065931D02*
X0185851Y0065931D01*
X0186100Y0066180D02*
X0184870Y0064950D01*
X0183130Y0064950D01*
X0181900Y0066180D01*
X0181900Y0067920D01*
X0183130Y0069150D01*
X0184870Y0069150D01*
X0186100Y0067920D01*
X0186100Y0066180D01*
X0186100Y0066729D02*
X0224500Y0066729D01*
X0224500Y0067528D02*
X0186100Y0067528D01*
X0185693Y0068326D02*
X0224500Y0068326D01*
X0224500Y0069125D02*
X0189045Y0069125D01*
X0188870Y0068950D02*
X0190100Y0070180D01*
X0190100Y0071920D01*
X0188870Y0073150D01*
X0187130Y0073150D01*
X0185900Y0071920D01*
X0185900Y0070180D01*
X0187130Y0068950D01*
X0188870Y0068950D01*
X0189843Y0069923D02*
X0207157Y0069923D01*
X0206400Y0070722D02*
X0190100Y0070722D01*
X0190100Y0071520D02*
X0205560Y0071520D01*
X0204761Y0072319D02*
X0189701Y0072319D01*
X0188902Y0073118D02*
X0204400Y0073118D01*
X0203164Y0073916D02*
X0178500Y0073916D01*
X0178500Y0073118D02*
X0179098Y0073118D01*
X0178500Y0074715D02*
X0200866Y0074715D01*
X0203611Y0077909D02*
X0219672Y0077909D01*
X0220130Y0077450D02*
X0221870Y0077450D01*
X0223100Y0078680D01*
X0223100Y0080420D01*
X0221870Y0081650D01*
X0220130Y0081650D01*
X0218900Y0080420D01*
X0218900Y0078680D01*
X0220130Y0077450D01*
X0218900Y0078707D02*
X0209627Y0078707D01*
X0210100Y0079180D02*
X0208870Y0077950D01*
X0207130Y0077950D01*
X0205900Y0079180D01*
X0205900Y0080920D01*
X0207130Y0082150D01*
X0208870Y0082150D01*
X0210100Y0080920D01*
X0210100Y0079180D01*
X0210100Y0079506D02*
X0218900Y0079506D01*
X0218900Y0080304D02*
X0210100Y0080304D01*
X0209917Y0081103D02*
X0219583Y0081103D01*
X0220130Y0082450D02*
X0221870Y0082450D01*
X0223100Y0083680D01*
X0223100Y0085420D01*
X0221870Y0086650D01*
X0220951Y0086650D01*
X0220151Y0087450D01*
X0221870Y0087450D01*
X0223100Y0088680D01*
X0223100Y0090420D01*
X0221870Y0091650D01*
X0220951Y0091650D01*
X0220151Y0092450D01*
X0221870Y0092450D01*
X0223100Y0093680D01*
X0223100Y0095420D01*
X0221870Y0096650D01*
X0220951Y0096650D01*
X0220151Y0097450D01*
X0221870Y0097450D01*
X0223100Y0098680D01*
X0223100Y0100420D01*
X0221870Y0101650D01*
X0220130Y0101650D01*
X0218900Y0100420D01*
X0218900Y0098701D01*
X0218601Y0099000D01*
X0209920Y0099000D01*
X0210100Y0099180D01*
X0210100Y0100920D01*
X0208870Y0102150D01*
X0207130Y0102150D01*
X0205900Y0100920D01*
X0205900Y0099180D01*
X0206080Y0099000D01*
X0187100Y0099000D01*
X0187100Y0100420D01*
X0185870Y0101650D01*
X0184130Y0101650D01*
X0182900Y0100420D01*
X0182900Y0099000D01*
X0163520Y0099000D01*
X0162870Y0099650D01*
X0161130Y0099650D01*
X0159900Y0098420D01*
X0159900Y0096680D01*
X0161130Y0095450D01*
X0162870Y0095450D01*
X0163520Y0096100D01*
X0170580Y0096100D01*
X0169900Y0095420D01*
X0169900Y0094000D01*
X0160101Y0094000D01*
X0156600Y0097501D01*
X0156600Y0098420D01*
X0155370Y0099650D01*
X0153630Y0099650D01*
X0152400Y0098420D01*
X0152400Y0096680D01*
X0153630Y0095450D01*
X0154549Y0095450D01*
X0158050Y0091949D01*
X0158899Y0091100D01*
X0174101Y0091100D01*
X0176101Y0093100D01*
X0190580Y0093100D01*
X0190400Y0092920D01*
X0190400Y0091180D01*
X0191630Y0089950D01*
X0193370Y0089950D01*
X0194600Y0091180D01*
X0194600Y0092920D01*
X0194420Y0093100D01*
X0203399Y0093100D01*
X0205050Y0091449D01*
X0205899Y0090600D01*
X0205900Y0090600D01*
X0205900Y0089420D01*
X0204900Y0088420D01*
X0204900Y0086680D01*
X0205900Y0085680D01*
X0205900Y0084180D01*
X0207130Y0082950D01*
X0208870Y0082950D01*
X0210100Y0084180D01*
X0210100Y0085920D01*
X0209100Y0086920D01*
X0209100Y0088180D01*
X0210100Y0089180D01*
X0210100Y0090600D01*
X0212899Y0090600D01*
X0218900Y0084599D01*
X0218900Y0083680D01*
X0220130Y0082450D01*
X0219880Y0082700D02*
X0193119Y0082700D01*
X0192870Y0082450D02*
X0194100Y0083680D01*
X0194100Y0085420D01*
X0193470Y0086050D01*
X0193600Y0086180D01*
X0193600Y0087920D01*
X0192370Y0089150D01*
X0190630Y0089150D01*
X0190600Y0089120D01*
X0190600Y0090420D01*
X0189370Y0091650D01*
X0187630Y0091650D01*
X0186400Y0090420D01*
X0186400Y0088680D01*
X0187630Y0087450D01*
X0189370Y0087450D01*
X0189400Y0087480D01*
X0189400Y0086180D01*
X0190030Y0085550D01*
X0189900Y0085420D01*
X0189900Y0083680D01*
X0191130Y0082450D01*
X0192870Y0082450D01*
X0193918Y0083498D02*
X0206582Y0083498D01*
X0205900Y0084297D02*
X0194100Y0084297D01*
X0194100Y0085095D02*
X0205900Y0085095D01*
X0205686Y0085894D02*
X0193626Y0085894D01*
X0193600Y0086692D02*
X0204900Y0086692D01*
X0204900Y0087491D02*
X0193600Y0087491D01*
X0193231Y0088289D02*
X0204900Y0088289D01*
X0205568Y0089088D02*
X0192432Y0089088D01*
X0190600Y0089886D02*
X0205900Y0089886D01*
X0205815Y0090685D02*
X0194105Y0090685D01*
X0194600Y0091483D02*
X0205016Y0091483D01*
X0204218Y0092282D02*
X0194600Y0092282D01*
X0194440Y0093080D02*
X0203419Y0093080D01*
X0210100Y0089886D02*
X0213613Y0089886D01*
X0214412Y0089088D02*
X0210008Y0089088D01*
X0209209Y0088289D02*
X0215210Y0088289D01*
X0216009Y0087491D02*
X0209100Y0087491D01*
X0209328Y0086692D02*
X0216807Y0086692D01*
X0217606Y0085894D02*
X0210100Y0085894D01*
X0210100Y0085095D02*
X0218404Y0085095D01*
X0218900Y0084297D02*
X0210100Y0084297D01*
X0209418Y0083498D02*
X0219082Y0083498D01*
X0222119Y0082700D02*
X0224500Y0082700D01*
X0224500Y0083498D02*
X0222918Y0083498D01*
X0223100Y0084297D02*
X0224500Y0084297D01*
X0224500Y0085095D02*
X0223100Y0085095D01*
X0222626Y0085894D02*
X0224500Y0085894D01*
X0224500Y0086692D02*
X0220908Y0086692D01*
X0221911Y0087491D02*
X0224500Y0087491D01*
X0224500Y0088289D02*
X0222709Y0088289D01*
X0223100Y0089088D02*
X0224500Y0089088D01*
X0224500Y0089886D02*
X0223100Y0089886D01*
X0222835Y0090685D02*
X0224500Y0090685D01*
X0224500Y0091483D02*
X0222037Y0091483D01*
X0222500Y0093080D02*
X0224500Y0093080D01*
X0224500Y0092282D02*
X0220319Y0092282D01*
X0223100Y0093879D02*
X0224500Y0093879D01*
X0224500Y0094677D02*
X0223100Y0094677D01*
X0223044Y0095476D02*
X0224500Y0095476D01*
X0224500Y0096274D02*
X0222245Y0096274D01*
X0222291Y0097871D02*
X0224500Y0097871D01*
X0224500Y0097073D02*
X0220528Y0097073D01*
X0218900Y0099468D02*
X0210100Y0099468D01*
X0210100Y0100267D02*
X0218900Y0100267D01*
X0219546Y0101065D02*
X0209954Y0101065D01*
X0209156Y0101864D02*
X0224500Y0101864D01*
X0224500Y0102662D02*
X0196100Y0102662D01*
X0196100Y0103461D02*
X0206619Y0103461D01*
X0205900Y0104259D02*
X0195760Y0104259D01*
X0194962Y0105058D02*
X0205900Y0105058D01*
X0206844Y0101864D02*
X0195784Y0101864D01*
X0194985Y0101065D02*
X0206046Y0101065D01*
X0205900Y0100267D02*
X0187100Y0100267D01*
X0187100Y0099468D02*
X0205900Y0099468D01*
X0209381Y0103461D02*
X0224500Y0103461D01*
X0224500Y0104259D02*
X0210100Y0104259D01*
X0210100Y0105058D02*
X0224500Y0105058D01*
X0224500Y0105856D02*
X0210100Y0105856D01*
X0209365Y0106655D02*
X0224500Y0106655D01*
X0224500Y0107453D02*
X0221873Y0107453D01*
X0221870Y0107450D02*
X0223100Y0108680D01*
X0223100Y0110420D01*
X0221870Y0111650D01*
X0220130Y0111650D01*
X0218900Y0110420D01*
X0218900Y0108680D01*
X0220130Y0107450D01*
X0221870Y0107450D01*
X0222672Y0108252D02*
X0224500Y0108252D01*
X0224500Y0109051D02*
X0223100Y0109051D01*
X0223100Y0109849D02*
X0224500Y0109849D01*
X0224500Y0110648D02*
X0222872Y0110648D01*
X0222074Y0111446D02*
X0224500Y0111446D01*
X0219926Y0111446D02*
X0217574Y0111446D01*
X0218100Y0110920D02*
X0216870Y0112150D01*
X0215130Y0112150D01*
X0214500Y0111520D01*
X0213870Y0112150D01*
X0212130Y0112150D01*
X0210900Y0110920D01*
X0210900Y0109180D01*
X0212130Y0107950D01*
X0213870Y0107950D01*
X0214500Y0108580D01*
X0215130Y0107950D01*
X0216870Y0107950D01*
X0218100Y0109180D01*
X0218100Y0110920D01*
X0218100Y0110648D02*
X0219128Y0110648D01*
X0218900Y0109849D02*
X0218100Y0109849D01*
X0217970Y0109051D02*
X0218900Y0109051D01*
X0219328Y0108252D02*
X0217172Y0108252D01*
X0214828Y0108252D02*
X0214172Y0108252D01*
X0211828Y0108252D02*
X0191172Y0108252D01*
X0191970Y0109051D02*
X0211030Y0109051D01*
X0210900Y0109849D02*
X0192100Y0109849D01*
X0192100Y0110648D02*
X0210900Y0110648D01*
X0211426Y0111446D02*
X0191574Y0111446D01*
X0188828Y0108252D02*
X0188172Y0108252D01*
X0185828Y0108252D02*
X0181100Y0108252D01*
X0181100Y0107453D02*
X0220127Y0107453D01*
X0224500Y0113842D02*
X0208761Y0113842D01*
X0209100Y0114640D02*
X0224500Y0114640D01*
X0224500Y0115439D02*
X0209100Y0115439D01*
X0208783Y0116237D02*
X0224500Y0116237D01*
X0224500Y0117036D02*
X0208955Y0117036D01*
X0209100Y0117834D02*
X0224500Y0117834D01*
X0224500Y0118633D02*
X0209100Y0118633D01*
X0208589Y0119431D02*
X0224500Y0119431D01*
X0224500Y0125021D02*
X0145000Y0125021D01*
X0160566Y0107453D02*
X0165434Y0107453D01*
X0164635Y0106655D02*
X0161365Y0106655D01*
X0161600Y0105856D02*
X0164400Y0105856D01*
X0164400Y0105058D02*
X0161600Y0105058D01*
X0161179Y0104259D02*
X0164821Y0104259D01*
X0165619Y0103461D02*
X0160381Y0103461D01*
X0160949Y0099468D02*
X0155551Y0099468D01*
X0156350Y0098670D02*
X0160150Y0098670D01*
X0159900Y0097871D02*
X0156600Y0097871D01*
X0157028Y0097073D02*
X0159900Y0097073D01*
X0160306Y0096274D02*
X0157826Y0096274D01*
X0158625Y0095476D02*
X0161104Y0095476D01*
X0162896Y0095476D02*
X0169956Y0095476D01*
X0169900Y0094677D02*
X0159423Y0094677D01*
X0157718Y0092282D02*
X0145000Y0092282D01*
X0145000Y0093080D02*
X0156919Y0093080D01*
X0156121Y0093879D02*
X0145000Y0093879D01*
X0145000Y0094677D02*
X0155322Y0094677D01*
X0153604Y0095476D02*
X0145000Y0095476D01*
X0145000Y0096274D02*
X0152806Y0096274D01*
X0152400Y0097073D02*
X0145000Y0097073D01*
X0145000Y0097871D02*
X0152400Y0097871D01*
X0152650Y0098670D02*
X0145000Y0098670D01*
X0145000Y0099468D02*
X0153449Y0099468D01*
X0163051Y0099468D02*
X0182900Y0099468D01*
X0182900Y0100267D02*
X0145000Y0100267D01*
X0145000Y0101065D02*
X0183546Y0101065D01*
X0186454Y0101065D02*
X0193015Y0101065D01*
X0192216Y0101864D02*
X0145284Y0101864D01*
X0145000Y0091483D02*
X0158516Y0091483D01*
X0163130Y0085650D02*
X0161900Y0084420D01*
X0161900Y0082680D01*
X0163130Y0081450D01*
X0164870Y0081450D01*
X0166100Y0082680D01*
X0166100Y0084420D01*
X0164870Y0085650D01*
X0163130Y0085650D01*
X0162575Y0085095D02*
X0153425Y0085095D01*
X0152870Y0085650D02*
X0154100Y0084420D01*
X0154100Y0082680D01*
X0152870Y0081450D01*
X0151130Y0081450D01*
X0149900Y0082680D01*
X0149900Y0084420D01*
X0151130Y0085650D01*
X0152870Y0085650D01*
X0154100Y0084297D02*
X0161900Y0084297D01*
X0161900Y0083498D02*
X0154100Y0083498D01*
X0154100Y0082700D02*
X0161900Y0082700D01*
X0162679Y0081901D02*
X0153321Y0081901D01*
X0150679Y0081901D02*
X0145000Y0081901D01*
X0145000Y0081103D02*
X0171502Y0081103D01*
X0172301Y0081901D02*
X0165321Y0081901D01*
X0166100Y0082700D02*
X0173099Y0082700D01*
X0173898Y0083498D02*
X0166100Y0083498D01*
X0166100Y0084297D02*
X0174696Y0084297D01*
X0175495Y0085095D02*
X0165425Y0085095D01*
X0170704Y0080304D02*
X0145000Y0080304D01*
X0145000Y0079506D02*
X0169905Y0079506D01*
X0169106Y0078707D02*
X0145000Y0078707D01*
X0145000Y0077909D02*
X0168308Y0077909D01*
X0167509Y0077110D02*
X0145000Y0077110D01*
X0145000Y0076312D02*
X0166711Y0076312D01*
X0165912Y0075513D02*
X0145000Y0075513D01*
X0145000Y0074715D02*
X0165114Y0074715D01*
X0164315Y0073916D02*
X0145000Y0073916D01*
X0145000Y0073118D02*
X0163517Y0073118D01*
X0162718Y0072319D02*
X0145000Y0072319D01*
X0145000Y0071520D02*
X0145001Y0071520D01*
X0147999Y0071520D02*
X0160501Y0071520D01*
X0159900Y0070722D02*
X0148600Y0070722D01*
X0148600Y0069923D02*
X0157904Y0069923D01*
X0157400Y0069125D02*
X0155895Y0069125D01*
X0156693Y0068326D02*
X0156807Y0068326D01*
X0154105Y0069125D02*
X0148545Y0069125D01*
X0147746Y0068326D02*
X0153307Y0068326D01*
X0152900Y0067528D02*
X0145000Y0067528D01*
X0145000Y0068326D02*
X0145254Y0068326D01*
X0145000Y0066729D02*
X0152900Y0066729D01*
X0153149Y0065931D02*
X0145000Y0065931D01*
X0145000Y0065132D02*
X0153948Y0065132D01*
X0156052Y0065132D02*
X0156448Y0065132D01*
X0156400Y0064334D02*
X0145000Y0064334D01*
X0145000Y0063535D02*
X0156400Y0063535D01*
X0156400Y0062737D02*
X0145000Y0062737D01*
X0145000Y0061938D02*
X0157142Y0061938D01*
X0159858Y0061938D02*
X0174500Y0061938D01*
X0174500Y0061140D02*
X0145000Y0061140D01*
X0145000Y0060341D02*
X0174500Y0060341D01*
X0174500Y0059543D02*
X0145000Y0059543D01*
X0145000Y0058744D02*
X0174500Y0058744D01*
X0174500Y0057946D02*
X0165074Y0057946D01*
X0164870Y0058150D02*
X0166100Y0056920D01*
X0166100Y0055180D01*
X0164870Y0053950D01*
X0163130Y0053950D01*
X0161900Y0055180D01*
X0161900Y0056920D01*
X0163130Y0058150D01*
X0164870Y0058150D01*
X0165873Y0057147D02*
X0174500Y0057147D01*
X0174500Y0056349D02*
X0166100Y0056349D01*
X0166100Y0055550D02*
X0174500Y0055550D01*
X0174500Y0054752D02*
X0165672Y0054752D01*
X0164873Y0053953D02*
X0174500Y0053953D01*
X0174500Y0053155D02*
X0150600Y0053155D01*
X0150600Y0052680D02*
X0149370Y0051450D01*
X0147630Y0051450D01*
X0146400Y0052680D01*
X0146400Y0054420D01*
X0147630Y0055650D01*
X0149370Y0055650D01*
X0150600Y0054420D01*
X0150600Y0052680D01*
X0150276Y0052356D02*
X0174500Y0052356D01*
X0174500Y0051558D02*
X0149478Y0051558D01*
X0147522Y0051558D02*
X0145000Y0051558D01*
X0145000Y0052356D02*
X0146724Y0052356D01*
X0146400Y0053155D02*
X0145000Y0053155D01*
X0145000Y0053953D02*
X0146400Y0053953D01*
X0146732Y0054752D02*
X0145000Y0054752D01*
X0145000Y0055550D02*
X0147530Y0055550D01*
X0149470Y0055550D02*
X0161900Y0055550D01*
X0161900Y0056349D02*
X0145000Y0056349D01*
X0145000Y0057147D02*
X0162127Y0057147D01*
X0162926Y0057946D02*
X0145000Y0057946D01*
X0150268Y0054752D02*
X0162328Y0054752D01*
X0163127Y0053953D02*
X0150600Y0053953D01*
X0145000Y0050759D02*
X0174500Y0050759D01*
X0174400Y0049961D02*
X0145059Y0049961D01*
X0160600Y0062737D02*
X0174500Y0062737D01*
X0174500Y0063535D02*
X0165455Y0063535D01*
X0166100Y0064334D02*
X0174500Y0064334D01*
X0174500Y0065132D02*
X0166100Y0065132D01*
X0166089Y0065931D02*
X0174500Y0065931D01*
X0174500Y0066729D02*
X0165290Y0066729D01*
X0164529Y0067528D02*
X0174500Y0067528D01*
X0174500Y0068326D02*
X0165327Y0068326D01*
X0165450Y0069125D02*
X0174500Y0069125D01*
X0174500Y0069923D02*
X0165450Y0069923D01*
X0165450Y0070722D02*
X0174500Y0070722D01*
X0174500Y0071520D02*
X0166021Y0071520D01*
X0166820Y0072319D02*
X0174500Y0072319D01*
X0174500Y0073118D02*
X0167618Y0073118D01*
X0168417Y0073916D02*
X0174500Y0073916D01*
X0174500Y0074715D02*
X0169215Y0074715D01*
X0170014Y0075513D02*
X0174500Y0075513D01*
X0174500Y0076312D02*
X0170812Y0076312D01*
X0171611Y0077110D02*
X0174500Y0077110D01*
X0174500Y0077909D02*
X0172409Y0077909D01*
X0173208Y0078707D02*
X0174500Y0078707D01*
X0174500Y0079506D02*
X0174006Y0079506D01*
X0178500Y0078707D02*
X0190292Y0078707D01*
X0189494Y0079506D02*
X0178784Y0079506D01*
X0179583Y0080304D02*
X0188695Y0080304D01*
X0187897Y0081103D02*
X0180381Y0081103D01*
X0181180Y0081901D02*
X0187098Y0081901D01*
X0186300Y0082700D02*
X0182119Y0082700D01*
X0182918Y0083498D02*
X0185501Y0083498D01*
X0184703Y0084297D02*
X0183100Y0084297D01*
X0183100Y0085095D02*
X0183904Y0085095D01*
X0185610Y0087491D02*
X0187589Y0087491D01*
X0186791Y0088289D02*
X0145000Y0088289D01*
X0145000Y0089088D02*
X0186400Y0089088D01*
X0186400Y0089886D02*
X0145000Y0089886D01*
X0145000Y0090685D02*
X0186665Y0090685D01*
X0187463Y0091483D02*
X0174484Y0091483D01*
X0175282Y0092282D02*
X0190400Y0092282D01*
X0190400Y0091483D02*
X0189537Y0091483D01*
X0190335Y0090685D02*
X0190895Y0090685D01*
X0190560Y0093080D02*
X0176081Y0093080D01*
X0177890Y0087491D02*
X0145029Y0087491D01*
X0145828Y0086692D02*
X0177092Y0086692D01*
X0176293Y0085894D02*
X0146100Y0085894D01*
X0146100Y0085095D02*
X0150575Y0085095D01*
X0149900Y0084297D02*
X0145717Y0084297D01*
X0145000Y0083498D02*
X0149900Y0083498D01*
X0149900Y0082700D02*
X0145000Y0082700D01*
X0115089Y0087491D02*
X0096000Y0087491D01*
X0096000Y0088289D02*
X0114291Y0088289D01*
X0113900Y0089088D02*
X0098008Y0089088D01*
X0098806Y0089886D02*
X0104694Y0089886D01*
X0105130Y0089450D02*
X0106870Y0089450D01*
X0108100Y0090680D01*
X0108100Y0092420D01*
X0106870Y0093650D01*
X0105130Y0093650D01*
X0103900Y0092420D01*
X0103900Y0090680D01*
X0105130Y0089450D01*
X0103900Y0090685D02*
X0099100Y0090685D01*
X0099100Y0091483D02*
X0103900Y0091483D01*
X0103900Y0092282D02*
X0098738Y0092282D01*
X0097940Y0093080D02*
X0104560Y0093080D01*
X0105130Y0094950D02*
X0106870Y0094950D01*
X0108100Y0096180D01*
X0108100Y0097920D01*
X0106870Y0099150D01*
X0105130Y0099150D01*
X0103900Y0097920D01*
X0103900Y0096180D01*
X0105130Y0094950D01*
X0104604Y0095476D02*
X0098396Y0095476D01*
X0099100Y0096274D02*
X0103900Y0096274D01*
X0103900Y0097073D02*
X0099100Y0097073D01*
X0099100Y0097871D02*
X0103900Y0097871D01*
X0104650Y0098670D02*
X0098350Y0098670D01*
X0096000Y0099468D02*
X0114612Y0099468D01*
X0114650Y0098670D02*
X0107350Y0098670D01*
X0108100Y0097871D02*
X0113900Y0097871D01*
X0113900Y0097073D02*
X0108100Y0097073D01*
X0108100Y0096274D02*
X0113900Y0096274D01*
X0114604Y0095476D02*
X0107396Y0095476D01*
X0107440Y0093080D02*
X0113900Y0093080D01*
X0113900Y0092282D02*
X0108100Y0092282D01*
X0108100Y0091483D02*
X0114597Y0091483D01*
X0114165Y0090685D02*
X0108100Y0090685D01*
X0107306Y0089886D02*
X0113900Y0089886D01*
X0113900Y0093879D02*
X0096100Y0093879D01*
X0096100Y0094677D02*
X0114657Y0094677D01*
X0113900Y0100267D02*
X0096000Y0100267D01*
X0096000Y0101065D02*
X0113900Y0101065D01*
X0113900Y0101864D02*
X0096000Y0101864D01*
X0096000Y0102662D02*
X0114643Y0102662D01*
X0096060Y0093080D02*
X0096000Y0093080D01*
X0094400Y0093080D02*
X0083500Y0093080D01*
X0083600Y0093879D02*
X0094400Y0093879D01*
X0094400Y0094677D02*
X0083600Y0094677D01*
X0083044Y0095476D02*
X0094400Y0095476D01*
X0094400Y0096274D02*
X0031100Y0096274D01*
X0031100Y0097073D02*
X0094400Y0097073D01*
X0094400Y0097871D02*
X0031100Y0097871D01*
X0030396Y0095476D02*
X0079956Y0095476D01*
X0082702Y0092282D02*
X0094400Y0092282D01*
X0094400Y0085095D02*
X0058600Y0085095D01*
X0058600Y0084297D02*
X0094400Y0084297D01*
X0094400Y0083498D02*
X0058418Y0083498D01*
X0057619Y0082700D02*
X0094400Y0082700D01*
X0160600Y0063535D02*
X0162545Y0063535D01*
X0161900Y0064334D02*
X0161334Y0064334D01*
X0178500Y0065132D02*
X0179113Y0065132D01*
X0178500Y0065931D02*
X0182149Y0065931D01*
X0181900Y0066729D02*
X0178500Y0066729D01*
X0178500Y0067528D02*
X0181900Y0067528D01*
X0182307Y0068326D02*
X0178500Y0068326D01*
X0178500Y0069125D02*
X0178955Y0069125D01*
X0181045Y0069125D02*
X0183105Y0069125D01*
X0181843Y0069923D02*
X0186157Y0069923D01*
X0185900Y0070722D02*
X0182100Y0070722D01*
X0182100Y0071520D02*
X0185900Y0071520D01*
X0186299Y0072319D02*
X0181701Y0072319D01*
X0180902Y0073118D02*
X0187098Y0073118D01*
X0191889Y0077110D02*
X0178500Y0077110D01*
X0178500Y0076312D02*
X0192688Y0076312D01*
X0193486Y0075513D02*
X0178500Y0075513D01*
X0178500Y0077909D02*
X0191091Y0077909D01*
X0193595Y0079506D02*
X0205900Y0079506D01*
X0205900Y0080304D02*
X0192796Y0080304D01*
X0191998Y0081103D02*
X0206083Y0081103D01*
X0206881Y0081901D02*
X0191199Y0081901D01*
X0190880Y0082700D02*
X0190401Y0082700D01*
X0190082Y0083498D02*
X0189602Y0083498D01*
X0189900Y0084297D02*
X0188804Y0084297D01*
X0188005Y0085095D02*
X0189900Y0085095D01*
X0189686Y0085894D02*
X0187207Y0085894D01*
X0186408Y0086692D02*
X0189400Y0086692D01*
X0194394Y0078707D02*
X0206373Y0078707D01*
X0205910Y0077110D02*
X0224500Y0077110D01*
X0224500Y0076312D02*
X0206600Y0076312D01*
X0207507Y0075513D02*
X0224500Y0075513D01*
X0224500Y0074715D02*
X0208305Y0074715D01*
X0208600Y0073916D02*
X0224500Y0073916D01*
X0224500Y0073118D02*
X0209902Y0073118D01*
X0210600Y0072319D02*
X0224500Y0072319D01*
X0224500Y0071520D02*
X0210600Y0071520D01*
X0210600Y0070722D02*
X0224500Y0070722D01*
X0224500Y0069923D02*
X0209843Y0069923D01*
X0222328Y0077909D02*
X0224500Y0077909D01*
X0224500Y0078707D02*
X0223100Y0078707D01*
X0223100Y0079506D02*
X0224500Y0079506D01*
X0224500Y0080304D02*
X0223100Y0080304D01*
X0222417Y0081103D02*
X0224500Y0081103D01*
X0224500Y0081901D02*
X0209119Y0081901D01*
X0186955Y0069125D02*
X0184895Y0069125D01*
X0185052Y0065132D02*
X0187113Y0065132D01*
X0186314Y0064334D02*
X0181686Y0064334D01*
X0182100Y0063535D02*
X0185900Y0063535D01*
X0185900Y0062737D02*
X0182100Y0062737D01*
X0181858Y0061938D02*
X0186142Y0061938D01*
X0186940Y0061140D02*
X0181060Y0061140D01*
X0178940Y0061140D02*
X0178500Y0061140D01*
X0178500Y0058744D02*
X0186724Y0058744D01*
X0185926Y0057946D02*
X0178500Y0057946D01*
X0178500Y0057147D02*
X0185900Y0057147D01*
X0185900Y0056349D02*
X0178500Y0056349D01*
X0178500Y0055550D02*
X0186530Y0055550D01*
X0182948Y0065132D02*
X0180887Y0065132D01*
X0223090Y0098670D02*
X0224500Y0098670D01*
X0224500Y0099468D02*
X0223100Y0099468D01*
X0223100Y0100267D02*
X0224500Y0100267D01*
X0224500Y0101065D02*
X0222454Y0101065D01*
X0239046Y0118633D02*
X0252100Y0118633D01*
X0252100Y0119431D02*
X0240322Y0119431D01*
X0241120Y0120230D02*
X0252100Y0120230D01*
X0252100Y0121028D02*
X0241545Y0121028D01*
X0241876Y0121827D02*
X0252100Y0121827D01*
X0252100Y0122625D02*
X0242050Y0122625D01*
X0242050Y0123424D02*
X0252100Y0123424D01*
X0252100Y0124222D02*
X0242050Y0124222D01*
X0241733Y0125021D02*
X0252100Y0125021D01*
X0252100Y0125819D02*
X0241402Y0125819D01*
X0240774Y0126618D02*
X0252100Y0126618D01*
X0251947Y0127416D02*
X0239976Y0127416D01*
X0238211Y0128215D02*
X0251148Y0128215D01*
X0250350Y0129013D02*
X0007650Y0129013D01*
X0006852Y0128215D02*
X0235789Y0128215D01*
X0249551Y0129812D02*
X0008449Y0129812D01*
X0005900Y0047565D02*
X0026900Y0047565D01*
X0026900Y0046767D02*
X0005900Y0046767D01*
X0005900Y0045968D02*
X0027112Y0045968D01*
X0027911Y0045170D02*
X0005900Y0045170D01*
X0005900Y0042774D02*
X0054400Y0042774D01*
X0054400Y0041976D02*
X0005900Y0041976D01*
X0005900Y0041177D02*
X0054403Y0041177D01*
X0055202Y0040379D02*
X0005900Y0040379D01*
X0005900Y0037983D02*
X0026963Y0037983D01*
X0026900Y0037184D02*
X0005900Y0037184D01*
X0005900Y0036386D02*
X0026900Y0036386D01*
X0027493Y0035587D02*
X0005900Y0035587D01*
X0057529Y0033990D02*
X0094400Y0033990D01*
X0094400Y0033192D02*
X0058328Y0033192D01*
X0058600Y0032393D02*
X0094400Y0032393D01*
X0094400Y0031595D02*
X0058600Y0031595D01*
X0058216Y0030796D02*
X0094400Y0030796D01*
X0094400Y0029998D02*
X0057418Y0029998D01*
X0067485Y0010035D02*
X0071900Y0010035D01*
X0072344Y0009237D02*
X0068283Y0009237D01*
X0100895Y0015625D02*
X0106955Y0015625D01*
X0109045Y0015625D02*
X0135000Y0015625D01*
X0135000Y0016423D02*
X0109843Y0016423D01*
X0110100Y0017222D02*
X0135000Y0017222D01*
X0135000Y0018020D02*
X0112440Y0018020D01*
X0112370Y0017950D02*
X0113600Y0019180D01*
X0113600Y0020920D01*
X0112370Y0022150D01*
X0110630Y0022150D01*
X0109400Y0020920D01*
X0109400Y0019180D01*
X0110630Y0017950D01*
X0112370Y0017950D01*
X0113239Y0018819D02*
X0135000Y0018819D01*
X0135000Y0019617D02*
X0113600Y0019617D01*
X0113600Y0020416D02*
X0135000Y0020416D01*
X0135000Y0021214D02*
X0113306Y0021214D01*
X0112507Y0022013D02*
X0135000Y0022013D01*
X0135000Y0022811D02*
X0117231Y0022811D01*
X0118100Y0025207D02*
X0125873Y0025207D01*
X0110493Y0022013D02*
X0102507Y0022013D01*
X0102600Y0021214D02*
X0109694Y0021214D01*
X0109400Y0020416D02*
X0102600Y0020416D01*
X0102037Y0019617D02*
X0107097Y0019617D01*
X0108903Y0019617D02*
X0109400Y0019617D01*
X0109701Y0018819D02*
X0109761Y0018819D01*
X0110100Y0018020D02*
X0110560Y0018020D01*
X0145321Y0006043D02*
X0153306Y0006043D01*
X0154104Y0006841D02*
X0148619Y0006841D01*
X0149418Y0007640D02*
X0154903Y0007640D01*
X0155701Y0008438D02*
X0150216Y0008438D01*
X0151015Y0009237D02*
X0156500Y0009237D01*
X0157298Y0010035D02*
X0151814Y0010035D01*
X0152612Y0010834D02*
X0158097Y0010834D01*
X0158895Y0011632D02*
X0153411Y0011632D01*
X0154209Y0012431D02*
X0159694Y0012431D01*
X0160492Y0013229D02*
X0155008Y0013229D01*
X0155806Y0014028D02*
X0233037Y0014028D01*
X0232719Y0013710D02*
X0234140Y0015130D01*
X0235996Y0015899D01*
X0238004Y0015899D01*
X0239860Y0015130D01*
X0241281Y0013710D01*
X0242050Y0011854D01*
X0242050Y0009845D01*
X0241281Y0007989D01*
X0239860Y0006568D01*
X0238004Y0005800D01*
X0235996Y0005800D01*
X0234140Y0006568D01*
X0232719Y0007989D01*
X0231950Y0009845D01*
X0231950Y0011854D01*
X0232719Y0013710D01*
X0232520Y0013229D02*
X0201508Y0013229D01*
X0202306Y0012431D02*
X0232189Y0012431D01*
X0231950Y0011632D02*
X0203105Y0011632D01*
X0203903Y0010834D02*
X0231950Y0010834D01*
X0231950Y0010035D02*
X0204702Y0010035D01*
X0205500Y0009237D02*
X0232202Y0009237D01*
X0232533Y0008438D02*
X0206299Y0008438D01*
X0207097Y0007640D02*
X0233068Y0007640D01*
X0233867Y0006841D02*
X0207896Y0006841D01*
X0208694Y0006043D02*
X0235409Y0006043D01*
X0238591Y0006043D02*
X0251306Y0006043D01*
X0252100Y0006841D02*
X0240133Y0006841D01*
X0240932Y0007640D02*
X0252100Y0007640D01*
X0252100Y0008438D02*
X0241467Y0008438D01*
X0241798Y0009237D02*
X0252100Y0009237D01*
X0252100Y0010035D02*
X0242050Y0010035D01*
X0242050Y0010834D02*
X0252100Y0010834D01*
X0252100Y0011632D02*
X0242050Y0011632D01*
X0241811Y0012431D02*
X0252100Y0012431D01*
X0252100Y0013229D02*
X0241480Y0013229D01*
X0240963Y0014028D02*
X0252100Y0014028D01*
X0252100Y0014826D02*
X0240164Y0014826D01*
X0238666Y0015625D02*
X0252100Y0015625D01*
X0252100Y0016423D02*
X0158202Y0016423D01*
X0159000Y0017222D02*
X0252100Y0017222D01*
X0235334Y0015625D02*
X0157403Y0015625D01*
X0156605Y0014826D02*
X0233836Y0014826D01*
X0250507Y0005244D02*
X0209493Y0005244D01*
X0210291Y0004446D02*
X0249709Y0004446D01*
X0185030Y0109051D02*
X0180969Y0109051D01*
X0180171Y0109849D02*
X0184900Y0109849D01*
X0177037Y0113043D02*
X0174963Y0113043D01*
X0175761Y0113842D02*
X0176239Y0113842D01*
X0204589Y0119431D02*
X0205411Y0119431D01*
D15*
X0181000Y0084550D02*
X0176500Y0080050D01*
X0176500Y0053550D01*
X0182000Y0053550D01*
X0184500Y0051050D01*
X0184500Y0049050D01*
X0176500Y0049550D02*
X0176500Y0053550D01*
X0162500Y0023550D02*
X0216500Y0023550D01*
X0220500Y0019550D01*
X0162500Y0023550D02*
X0147000Y0008050D01*
X0144500Y0008050D01*
X0144000Y0007550D01*
X0090000Y0007550D01*
D16*
X0087500Y0010050D01*
D17*
X0158500Y0063550D02*
X0164000Y0069050D01*
X0164000Y0071550D01*
X0179000Y0086550D01*
X0184500Y0086550D01*
X0194500Y0076550D01*
X0202000Y0076550D01*
X0213500Y0092050D02*
X0221000Y0084550D01*
X0221000Y0089550D02*
X0214500Y0096050D01*
X0173500Y0096050D01*
X0172000Y0094550D01*
X0173500Y0092550D02*
X0175500Y0094550D01*
X0204000Y0094550D01*
X0206500Y0092050D01*
X0213500Y0092050D01*
X0218000Y0097550D02*
X0221000Y0094550D01*
X0218000Y0097550D02*
X0162000Y0097550D01*
X0159500Y0092550D02*
X0173500Y0092550D01*
X0159500Y0092550D02*
X0154500Y0097550D01*
M02*
