G75*
%MOIN*%
%OFA0B0*%
%FSLAX25Y25*%
%IPPOS*%
%LPD*%
%AMOC8*
5,1,8,0,0,1.08239X$1,22.5*
%
%ADD10R,0.11300X0.03300*%
%ADD11R,0.10339X0.10339*%
%ADD12R,0.04237X0.01284*%
%ADD13R,0.01284X0.04237*%
%ADD14R,0.04631X0.04631*%
%ADD15R,0.02662X0.02662*%
%ADD16R,0.02269X0.02662*%
%ADD17R,0.02662X0.02269*%
%ADD18C,0.04300*%
%ADD19R,0.04237X0.03450*%
%ADD20C,0.07700*%
%ADD21R,0.02072X0.01481*%
%ADD22R,0.04237X0.06599*%
%ADD23R,0.03843X0.04237*%
%ADD24R,0.04237X0.03843*%
%ADD25C,0.06000*%
%ADD26R,0.03450X0.03450*%
%ADD27R,0.10930X0.05024*%
%ADD28C,0.06599*%
%ADD29C,0.00217*%
%ADD30C,0.01290*%
%ADD31R,0.03646X0.01481*%
%ADD32R,0.04434X0.05418*%
%ADD33C,0.07387*%
%ADD34C,0.05615*%
%ADD35R,0.01875X0.05812*%
%ADD36R,0.06206X0.06402*%
%ADD37C,0.00660*%
%ADD38R,0.03056X0.02662*%
%ADD39R,0.04300X0.02300*%
D10*
X0021000Y0027050D03*
X0021000Y0032050D03*
X0021000Y0037050D03*
X0021000Y0042050D03*
X0021000Y0047050D03*
X0021000Y0052050D03*
X0021000Y0057050D03*
X0021000Y0062050D03*
X0021000Y0067050D03*
X0021000Y0072050D03*
X0021000Y0077050D03*
X0021000Y0082050D03*
X0021000Y0087050D03*
X0021000Y0092050D03*
X0021000Y0097050D03*
X0021000Y0102050D03*
X0021000Y0107050D03*
X0037000Y0107050D03*
X0037000Y0102050D03*
X0037000Y0097050D03*
X0037000Y0092050D03*
X0037000Y0087050D03*
X0037000Y0082050D03*
X0037000Y0077050D03*
X0037000Y0072050D03*
X0037000Y0067050D03*
X0037000Y0062050D03*
X0037000Y0057050D03*
X0037000Y0052050D03*
X0037000Y0047050D03*
X0037000Y0042050D03*
X0037000Y0037050D03*
X0037000Y0032050D03*
X0037000Y0027050D03*
D11*
X0094000Y0040050D03*
X0094000Y0094050D03*
D12*
X0085732Y0093066D03*
X0085732Y0095034D03*
X0085732Y0097003D03*
X0085732Y0098971D03*
X0085732Y0091097D03*
X0085732Y0089129D03*
X0102268Y0089129D03*
X0102268Y0091097D03*
X0102268Y0093066D03*
X0102268Y0095034D03*
X0102268Y0097003D03*
X0102268Y0098971D03*
X0131701Y0097003D03*
X0131701Y0095034D03*
X0131701Y0093066D03*
X0131701Y0091097D03*
X0144299Y0091097D03*
X0144299Y0093066D03*
X0144299Y0095034D03*
X0144299Y0097003D03*
X0102268Y0044971D03*
X0102268Y0043003D03*
X0102268Y0041034D03*
X0102268Y0039066D03*
X0102268Y0037097D03*
X0102268Y0035129D03*
X0085732Y0035129D03*
X0085732Y0037097D03*
X0085732Y0039066D03*
X0085732Y0041034D03*
X0085732Y0043003D03*
X0085732Y0044971D03*
X0131701Y0043003D03*
X0131701Y0041034D03*
X0131701Y0039066D03*
X0131701Y0037097D03*
X0144299Y0037097D03*
X0144299Y0039066D03*
X0144299Y0041034D03*
X0144299Y0043003D03*
D13*
X0140953Y0046349D03*
X0138984Y0046349D03*
X0137016Y0046349D03*
X0135047Y0046349D03*
X0135047Y0033751D03*
X0137016Y0033751D03*
X0138984Y0033751D03*
X0140953Y0033751D03*
X0098921Y0031782D03*
X0096953Y0031782D03*
X0094984Y0031782D03*
X0093016Y0031782D03*
X0091047Y0031782D03*
X0089079Y0031782D03*
X0089079Y0048318D03*
X0091047Y0048318D03*
X0093016Y0048318D03*
X0094984Y0048318D03*
X0096953Y0048318D03*
X0098921Y0048318D03*
X0098921Y0085782D03*
X0096953Y0085782D03*
X0094984Y0085782D03*
X0093016Y0085782D03*
X0091047Y0085782D03*
X0089079Y0085782D03*
X0089079Y0102318D03*
X0091047Y0102318D03*
X0093016Y0102318D03*
X0094984Y0102318D03*
X0096953Y0102318D03*
X0098921Y0102318D03*
X0135047Y0100349D03*
X0137016Y0100349D03*
X0138984Y0100349D03*
X0140953Y0100349D03*
X0140953Y0087751D03*
X0138984Y0087751D03*
X0137016Y0087751D03*
X0135047Y0087751D03*
D14*
X0138000Y0094050D03*
X0138000Y0040050D03*
D15*
X0142500Y0026519D03*
X0142500Y0022581D03*
X0146500Y0022519D03*
X0146500Y0018581D03*
X0112969Y0028050D03*
X0109031Y0028050D03*
X0109031Y0032050D03*
X0112969Y0032050D03*
X0089969Y0022550D03*
X0086031Y0022550D03*
X0086031Y0018550D03*
X0089969Y0018550D03*
X0075500Y0032081D03*
X0071469Y0032050D03*
X0067531Y0032050D03*
X0075500Y0036019D03*
X0076000Y0044081D03*
X0072000Y0044081D03*
X0072000Y0048019D03*
X0076000Y0048019D03*
X0077531Y0054550D03*
X0081469Y0054550D03*
X0086031Y0058050D03*
X0089969Y0058050D03*
X0109031Y0054550D03*
X0112969Y0054550D03*
X0112969Y0050550D03*
X0109031Y0050550D03*
X0089969Y0072550D03*
X0086031Y0072550D03*
X0086031Y0076550D03*
X0089969Y0076550D03*
X0076000Y0086081D03*
X0071969Y0086050D03*
X0068031Y0086050D03*
X0076000Y0090019D03*
X0076000Y0098081D03*
X0072000Y0098081D03*
X0072000Y0102019D03*
X0076000Y0102019D03*
X0078031Y0108550D03*
X0081969Y0108550D03*
X0086531Y0112050D03*
X0090469Y0112050D03*
X0109031Y0108550D03*
X0112969Y0108550D03*
X0112969Y0104550D03*
X0109031Y0104550D03*
X0109031Y0086050D03*
X0112969Y0086050D03*
X0112969Y0082050D03*
X0109031Y0082050D03*
X0142500Y0081019D03*
X0142500Y0077081D03*
X0146500Y0077019D03*
X0146500Y0073081D03*
X0176000Y0095081D03*
X0176000Y0099019D03*
X0212000Y0079019D03*
X0216000Y0079019D03*
X0216000Y0075081D03*
X0212000Y0075081D03*
X0211969Y0047550D03*
X0208031Y0047550D03*
X0208031Y0043050D03*
X0211969Y0043050D03*
X0211969Y0039050D03*
X0208031Y0039050D03*
X0181200Y0042681D03*
X0177500Y0042681D03*
X0177500Y0046619D03*
X0181200Y0046619D03*
X0168000Y0045019D03*
X0168000Y0041081D03*
X0051500Y0014519D03*
X0051500Y0010581D03*
X0047500Y0010581D03*
X0047500Y0014519D03*
D16*
X0079500Y0032081D03*
X0079500Y0036019D03*
X0079500Y0044081D03*
X0079500Y0048019D03*
X0094000Y0055581D03*
X0094000Y0059519D03*
X0094000Y0075081D03*
X0098000Y0075081D03*
X0098000Y0079019D03*
X0094000Y0079019D03*
X0079500Y0086081D03*
X0079500Y0090019D03*
X0079500Y0098081D03*
X0079500Y0102019D03*
X0094500Y0109081D03*
X0094500Y0113019D03*
X0126500Y0100019D03*
X0126500Y0096081D03*
X0126500Y0092019D03*
X0126500Y0088081D03*
X0138500Y0081019D03*
X0138500Y0077081D03*
X0137500Y0057519D03*
X0137500Y0053581D03*
X0141500Y0053581D03*
X0141500Y0057519D03*
X0126500Y0046019D03*
X0126500Y0042081D03*
X0126500Y0038019D03*
X0126500Y0034081D03*
X0138500Y0026519D03*
X0138500Y0022581D03*
X0172000Y0041081D03*
X0172000Y0045019D03*
X0098000Y0025019D03*
X0098000Y0021081D03*
X0094000Y0021081D03*
X0094000Y0025019D03*
X0194000Y0096081D03*
X0194000Y0100019D03*
X0176000Y0104081D03*
X0176000Y0108019D03*
X0141000Y0107581D03*
X0137500Y0107581D03*
X0137500Y0111519D03*
X0141000Y0111519D03*
D17*
G36*
X0131753Y0107401D02*
X0133635Y0105519D01*
X0132031Y0103915D01*
X0130149Y0105797D01*
X0131753Y0107401D01*
G37*
G36*
X0128969Y0110185D02*
X0130851Y0108303D01*
X0129247Y0106699D01*
X0127365Y0108581D01*
X0128969Y0110185D01*
G37*
X0112969Y0112050D03*
X0109031Y0112050D03*
X0090469Y0108550D03*
X0086531Y0108550D03*
X0078469Y0094050D03*
X0074531Y0094050D03*
X0086031Y0080050D03*
X0089969Y0080050D03*
X0109031Y0078550D03*
X0112969Y0078550D03*
G36*
X0127365Y0078519D02*
X0129247Y0080401D01*
X0130851Y0078797D01*
X0128969Y0076915D01*
X0127365Y0078519D01*
G37*
G36*
X0130149Y0081303D02*
X0132031Y0083185D01*
X0133635Y0081581D01*
X0131753Y0079699D01*
X0130149Y0081303D01*
G37*
X0112969Y0089550D03*
X0109031Y0089550D03*
X0109031Y0093550D03*
X0112969Y0093550D03*
X0112969Y0097050D03*
X0109031Y0097050D03*
X0109031Y0101050D03*
X0112969Y0101050D03*
X0112969Y0058050D03*
X0109031Y0058050D03*
X0089969Y0054550D03*
X0086031Y0054550D03*
X0109031Y0047050D03*
X0112969Y0047050D03*
X0112969Y0043050D03*
X0109031Y0043050D03*
X0109031Y0039550D03*
X0112969Y0039550D03*
X0112969Y0035550D03*
X0109031Y0035550D03*
X0109031Y0024550D03*
X0112969Y0024550D03*
G36*
X0127365Y0025019D02*
X0129247Y0026901D01*
X0130851Y0025297D01*
X0128969Y0023415D01*
X0127365Y0025019D01*
G37*
G36*
X0130149Y0027803D02*
X0132031Y0029685D01*
X0133635Y0028081D01*
X0131753Y0026199D01*
X0130149Y0027803D01*
G37*
X0089969Y0026050D03*
X0086031Y0026050D03*
X0063969Y0019550D03*
X0060031Y0019550D03*
X0074531Y0040050D03*
X0078469Y0040050D03*
G36*
X0128969Y0056185D02*
X0130851Y0054303D01*
X0129247Y0052699D01*
X0127365Y0054581D01*
X0128969Y0056185D01*
G37*
G36*
X0131753Y0053401D02*
X0133635Y0051519D01*
X0132031Y0049915D01*
X0130149Y0051797D01*
X0131753Y0053401D01*
G37*
D18*
X0108000Y0064050D03*
X0108000Y0071050D03*
X0049500Y0072050D03*
X0049500Y0062050D03*
X0049500Y0052050D03*
X0049500Y0042050D03*
X0049500Y0032050D03*
X0108000Y0017550D03*
X0049500Y0082050D03*
X0049500Y0092050D03*
X0049500Y0102050D03*
X0055500Y0121050D03*
X0063500Y0121050D03*
X0108500Y0117550D03*
X0123000Y0121050D03*
X0155500Y0121050D03*
X0190500Y0121050D03*
X0197000Y0110050D03*
D19*
X0054650Y0025550D03*
X0048350Y0025550D03*
X0048350Y0020550D03*
X0054650Y0020550D03*
D20*
X0156500Y0029550D03*
D21*
X0064339Y0015109D03*
X0064339Y0012550D03*
X0064339Y0009991D03*
X0056661Y0009991D03*
X0056661Y0012550D03*
X0056661Y0015109D03*
D22*
X0060500Y0012550D03*
D23*
X0070000Y0010007D03*
X0078000Y0011007D03*
X0070000Y0017093D03*
X0078000Y0018093D03*
X0213000Y0098007D03*
X0213000Y0105093D03*
D24*
X0213150Y0032121D03*
X0206850Y0032121D03*
X0206850Y0015979D03*
X0213150Y0015979D03*
X0138543Y0011050D03*
X0131457Y0011050D03*
X0099043Y0011050D03*
X0091957Y0011050D03*
D25*
X0012000Y0010550D03*
X0167500Y0050550D03*
X0200500Y0083550D03*
X0213000Y0124550D03*
X0012000Y0123550D03*
D26*
X0212000Y0091003D03*
X0212000Y0085097D03*
X0224126Y0084550D03*
X0229126Y0084550D03*
X0229126Y0079550D03*
X0224126Y0079550D03*
X0224126Y0074550D03*
X0229126Y0074550D03*
X0229126Y0069550D03*
X0224126Y0069550D03*
X0224126Y0064550D03*
X0229126Y0064550D03*
X0229126Y0059550D03*
X0224126Y0059550D03*
X0224126Y0054550D03*
X0229126Y0054550D03*
X0229126Y0049550D03*
X0224126Y0049550D03*
X0224126Y0044550D03*
X0229126Y0044550D03*
X0229126Y0039550D03*
X0224126Y0039550D03*
X0224126Y0034550D03*
X0229126Y0034550D03*
X0229126Y0029550D03*
X0224126Y0029550D03*
X0224126Y0024550D03*
X0229126Y0024550D03*
X0229126Y0019550D03*
X0224126Y0019550D03*
X0224126Y0089550D03*
X0229126Y0089550D03*
X0229126Y0094550D03*
X0224126Y0094550D03*
X0224126Y0099550D03*
X0229126Y0099550D03*
X0229126Y0104550D03*
X0224126Y0104550D03*
X0224126Y0109550D03*
X0229126Y0109550D03*
X0229126Y0114550D03*
X0224126Y0114550D03*
D27*
X0227354Y0124432D03*
X0246646Y0124432D03*
X0246646Y0009668D03*
X0227354Y0009668D03*
D28*
X0237000Y0010849D03*
X0237000Y0123251D03*
D29*
X0193801Y0082347D02*
X0193801Y0078819D01*
X0193801Y0082347D02*
X0194671Y0082347D01*
X0194671Y0078819D01*
X0193801Y0078819D01*
X0193801Y0079035D02*
X0194671Y0079035D01*
X0194671Y0079251D02*
X0193801Y0079251D01*
X0193801Y0079467D02*
X0194671Y0079467D01*
X0194671Y0079683D02*
X0193801Y0079683D01*
X0193801Y0079899D02*
X0194671Y0079899D01*
X0194671Y0080115D02*
X0193801Y0080115D01*
X0193801Y0080331D02*
X0194671Y0080331D01*
X0194671Y0080547D02*
X0193801Y0080547D01*
X0193801Y0080763D02*
X0194671Y0080763D01*
X0194671Y0080979D02*
X0193801Y0080979D01*
X0193801Y0081195D02*
X0194671Y0081195D01*
X0194671Y0081411D02*
X0193801Y0081411D01*
X0193801Y0081627D02*
X0194671Y0081627D01*
X0194671Y0081843D02*
X0193801Y0081843D01*
X0193801Y0082059D02*
X0194671Y0082059D01*
X0194671Y0082275D02*
X0193801Y0082275D01*
X0192226Y0082347D02*
X0192226Y0078819D01*
X0192226Y0082347D02*
X0193096Y0082347D01*
X0193096Y0078819D01*
X0192226Y0078819D01*
X0192226Y0079035D02*
X0193096Y0079035D01*
X0193096Y0079251D02*
X0192226Y0079251D01*
X0192226Y0079467D02*
X0193096Y0079467D01*
X0193096Y0079683D02*
X0192226Y0079683D01*
X0192226Y0079899D02*
X0193096Y0079899D01*
X0193096Y0080115D02*
X0192226Y0080115D01*
X0192226Y0080331D02*
X0193096Y0080331D01*
X0193096Y0080547D02*
X0192226Y0080547D01*
X0192226Y0080763D02*
X0193096Y0080763D01*
X0193096Y0080979D02*
X0192226Y0080979D01*
X0192226Y0081195D02*
X0193096Y0081195D01*
X0193096Y0081411D02*
X0192226Y0081411D01*
X0192226Y0081627D02*
X0193096Y0081627D01*
X0193096Y0081843D02*
X0192226Y0081843D01*
X0192226Y0082059D02*
X0193096Y0082059D01*
X0193096Y0082275D02*
X0192226Y0082275D01*
X0190652Y0082347D02*
X0190652Y0078819D01*
X0190652Y0082347D02*
X0191522Y0082347D01*
X0191522Y0078819D01*
X0190652Y0078819D01*
X0190652Y0079035D02*
X0191522Y0079035D01*
X0191522Y0079251D02*
X0190652Y0079251D01*
X0190652Y0079467D02*
X0191522Y0079467D01*
X0191522Y0079683D02*
X0190652Y0079683D01*
X0190652Y0079899D02*
X0191522Y0079899D01*
X0191522Y0080115D02*
X0190652Y0080115D01*
X0190652Y0080331D02*
X0191522Y0080331D01*
X0191522Y0080547D02*
X0190652Y0080547D01*
X0190652Y0080763D02*
X0191522Y0080763D01*
X0191522Y0080979D02*
X0190652Y0080979D01*
X0190652Y0081195D02*
X0191522Y0081195D01*
X0191522Y0081411D02*
X0190652Y0081411D01*
X0190652Y0081627D02*
X0191522Y0081627D01*
X0191522Y0081843D02*
X0190652Y0081843D01*
X0190652Y0082059D02*
X0191522Y0082059D01*
X0191522Y0082275D02*
X0190652Y0082275D01*
X0189077Y0082347D02*
X0189077Y0078819D01*
X0189077Y0082347D02*
X0189947Y0082347D01*
X0189947Y0078819D01*
X0189077Y0078819D01*
X0189077Y0079035D02*
X0189947Y0079035D01*
X0189947Y0079251D02*
X0189077Y0079251D01*
X0189077Y0079467D02*
X0189947Y0079467D01*
X0189947Y0079683D02*
X0189077Y0079683D01*
X0189077Y0079899D02*
X0189947Y0079899D01*
X0189947Y0080115D02*
X0189077Y0080115D01*
X0189077Y0080331D02*
X0189947Y0080331D01*
X0189947Y0080547D02*
X0189077Y0080547D01*
X0189077Y0080763D02*
X0189947Y0080763D01*
X0189947Y0080979D02*
X0189077Y0080979D01*
X0189077Y0081195D02*
X0189947Y0081195D01*
X0189947Y0081411D02*
X0189077Y0081411D01*
X0189077Y0081627D02*
X0189947Y0081627D01*
X0189947Y0081843D02*
X0189077Y0081843D01*
X0189077Y0082059D02*
X0189947Y0082059D01*
X0189947Y0082275D02*
X0189077Y0082275D01*
X0187502Y0082347D02*
X0187502Y0078819D01*
X0187502Y0082347D02*
X0188372Y0082347D01*
X0188372Y0078819D01*
X0187502Y0078819D01*
X0187502Y0079035D02*
X0188372Y0079035D01*
X0188372Y0079251D02*
X0187502Y0079251D01*
X0187502Y0079467D02*
X0188372Y0079467D01*
X0188372Y0079683D02*
X0187502Y0079683D01*
X0187502Y0079899D02*
X0188372Y0079899D01*
X0188372Y0080115D02*
X0187502Y0080115D01*
X0187502Y0080331D02*
X0188372Y0080331D01*
X0188372Y0080547D02*
X0187502Y0080547D01*
X0187502Y0080763D02*
X0188372Y0080763D01*
X0188372Y0080979D02*
X0187502Y0080979D01*
X0187502Y0081195D02*
X0188372Y0081195D01*
X0188372Y0081411D02*
X0187502Y0081411D01*
X0187502Y0081627D02*
X0188372Y0081627D01*
X0188372Y0081843D02*
X0187502Y0081843D01*
X0187502Y0082059D02*
X0188372Y0082059D01*
X0188372Y0082275D02*
X0187502Y0082275D01*
X0185927Y0082347D02*
X0185927Y0078819D01*
X0185927Y0082347D02*
X0186797Y0082347D01*
X0186797Y0078819D01*
X0185927Y0078819D01*
X0185927Y0079035D02*
X0186797Y0079035D01*
X0186797Y0079251D02*
X0185927Y0079251D01*
X0185927Y0079467D02*
X0186797Y0079467D01*
X0186797Y0079683D02*
X0185927Y0079683D01*
X0185927Y0079899D02*
X0186797Y0079899D01*
X0186797Y0080115D02*
X0185927Y0080115D01*
X0185927Y0080331D02*
X0186797Y0080331D01*
X0186797Y0080547D02*
X0185927Y0080547D01*
X0185927Y0080763D02*
X0186797Y0080763D01*
X0186797Y0080979D02*
X0185927Y0080979D01*
X0185927Y0081195D02*
X0186797Y0081195D01*
X0186797Y0081411D02*
X0185927Y0081411D01*
X0185927Y0081627D02*
X0186797Y0081627D01*
X0186797Y0081843D02*
X0185927Y0081843D01*
X0185927Y0082059D02*
X0186797Y0082059D01*
X0186797Y0082275D02*
X0185927Y0082275D01*
X0184352Y0082347D02*
X0184352Y0078819D01*
X0184352Y0082347D02*
X0185222Y0082347D01*
X0185222Y0078819D01*
X0184352Y0078819D01*
X0184352Y0079035D02*
X0185222Y0079035D01*
X0185222Y0079251D02*
X0184352Y0079251D01*
X0184352Y0079467D02*
X0185222Y0079467D01*
X0185222Y0079683D02*
X0184352Y0079683D01*
X0184352Y0079899D02*
X0185222Y0079899D01*
X0185222Y0080115D02*
X0184352Y0080115D01*
X0184352Y0080331D02*
X0185222Y0080331D01*
X0185222Y0080547D02*
X0184352Y0080547D01*
X0184352Y0080763D02*
X0185222Y0080763D01*
X0185222Y0080979D02*
X0184352Y0080979D01*
X0184352Y0081195D02*
X0185222Y0081195D01*
X0185222Y0081411D02*
X0184352Y0081411D01*
X0184352Y0081627D02*
X0185222Y0081627D01*
X0185222Y0081843D02*
X0184352Y0081843D01*
X0184352Y0082059D02*
X0185222Y0082059D01*
X0185222Y0082275D02*
X0184352Y0082275D01*
X0182778Y0082347D02*
X0182778Y0078819D01*
X0182778Y0082347D02*
X0183648Y0082347D01*
X0183648Y0078819D01*
X0182778Y0078819D01*
X0182778Y0079035D02*
X0183648Y0079035D01*
X0183648Y0079251D02*
X0182778Y0079251D01*
X0182778Y0079467D02*
X0183648Y0079467D01*
X0183648Y0079683D02*
X0182778Y0079683D01*
X0182778Y0079899D02*
X0183648Y0079899D01*
X0183648Y0080115D02*
X0182778Y0080115D01*
X0182778Y0080331D02*
X0183648Y0080331D01*
X0183648Y0080547D02*
X0182778Y0080547D01*
X0182778Y0080763D02*
X0183648Y0080763D01*
X0183648Y0080979D02*
X0182778Y0080979D01*
X0182778Y0081195D02*
X0183648Y0081195D01*
X0183648Y0081411D02*
X0182778Y0081411D01*
X0182778Y0081627D02*
X0183648Y0081627D01*
X0183648Y0081843D02*
X0182778Y0081843D01*
X0182778Y0082059D02*
X0183648Y0082059D01*
X0183648Y0082275D02*
X0182778Y0082275D01*
X0181203Y0082347D02*
X0181203Y0078819D01*
X0181203Y0082347D02*
X0182073Y0082347D01*
X0182073Y0078819D01*
X0181203Y0078819D01*
X0181203Y0079035D02*
X0182073Y0079035D01*
X0182073Y0079251D02*
X0181203Y0079251D01*
X0181203Y0079467D02*
X0182073Y0079467D01*
X0182073Y0079683D02*
X0181203Y0079683D01*
X0181203Y0079899D02*
X0182073Y0079899D01*
X0182073Y0080115D02*
X0181203Y0080115D01*
X0181203Y0080331D02*
X0182073Y0080331D01*
X0182073Y0080547D02*
X0181203Y0080547D01*
X0181203Y0080763D02*
X0182073Y0080763D01*
X0182073Y0080979D02*
X0181203Y0080979D01*
X0181203Y0081195D02*
X0182073Y0081195D01*
X0182073Y0081411D02*
X0181203Y0081411D01*
X0181203Y0081627D02*
X0182073Y0081627D01*
X0182073Y0081843D02*
X0181203Y0081843D01*
X0181203Y0082059D02*
X0182073Y0082059D01*
X0182073Y0082275D02*
X0181203Y0082275D01*
X0179628Y0082347D02*
X0179628Y0078819D01*
X0179628Y0082347D02*
X0180498Y0082347D01*
X0180498Y0078819D01*
X0179628Y0078819D01*
X0179628Y0079035D02*
X0180498Y0079035D01*
X0180498Y0079251D02*
X0179628Y0079251D01*
X0179628Y0079467D02*
X0180498Y0079467D01*
X0180498Y0079683D02*
X0179628Y0079683D01*
X0179628Y0079899D02*
X0180498Y0079899D01*
X0180498Y0080115D02*
X0179628Y0080115D01*
X0179628Y0080331D02*
X0180498Y0080331D01*
X0180498Y0080547D02*
X0179628Y0080547D01*
X0179628Y0080763D02*
X0180498Y0080763D01*
X0180498Y0080979D02*
X0179628Y0080979D01*
X0179628Y0081195D02*
X0180498Y0081195D01*
X0180498Y0081411D02*
X0179628Y0081411D01*
X0179628Y0081627D02*
X0180498Y0081627D01*
X0180498Y0081843D02*
X0179628Y0081843D01*
X0179628Y0082059D02*
X0180498Y0082059D01*
X0180498Y0082275D02*
X0179628Y0082275D01*
X0178053Y0082347D02*
X0178053Y0078819D01*
X0178053Y0082347D02*
X0178923Y0082347D01*
X0178923Y0078819D01*
X0178053Y0078819D01*
X0178053Y0079035D02*
X0178923Y0079035D01*
X0178923Y0079251D02*
X0178053Y0079251D01*
X0178053Y0079467D02*
X0178923Y0079467D01*
X0178923Y0079683D02*
X0178053Y0079683D01*
X0178053Y0079899D02*
X0178923Y0079899D01*
X0178923Y0080115D02*
X0178053Y0080115D01*
X0178053Y0080331D02*
X0178923Y0080331D01*
X0178923Y0080547D02*
X0178053Y0080547D01*
X0178053Y0080763D02*
X0178923Y0080763D01*
X0178923Y0080979D02*
X0178053Y0080979D01*
X0178053Y0081195D02*
X0178923Y0081195D01*
X0178923Y0081411D02*
X0178053Y0081411D01*
X0178053Y0081627D02*
X0178923Y0081627D01*
X0178923Y0081843D02*
X0178053Y0081843D01*
X0178053Y0082059D02*
X0178923Y0082059D01*
X0178923Y0082275D02*
X0178053Y0082275D01*
X0176478Y0082347D02*
X0176478Y0078819D01*
X0176478Y0082347D02*
X0177348Y0082347D01*
X0177348Y0078819D01*
X0176478Y0078819D01*
X0176478Y0079035D02*
X0177348Y0079035D01*
X0177348Y0079251D02*
X0176478Y0079251D01*
X0176478Y0079467D02*
X0177348Y0079467D01*
X0177348Y0079683D02*
X0176478Y0079683D01*
X0176478Y0079899D02*
X0177348Y0079899D01*
X0177348Y0080115D02*
X0176478Y0080115D01*
X0176478Y0080331D02*
X0177348Y0080331D01*
X0177348Y0080547D02*
X0176478Y0080547D01*
X0176478Y0080763D02*
X0177348Y0080763D01*
X0177348Y0080979D02*
X0176478Y0080979D01*
X0176478Y0081195D02*
X0177348Y0081195D01*
X0177348Y0081411D02*
X0176478Y0081411D01*
X0176478Y0081627D02*
X0177348Y0081627D01*
X0177348Y0081843D02*
X0176478Y0081843D01*
X0176478Y0082059D02*
X0177348Y0082059D01*
X0177348Y0082275D02*
X0176478Y0082275D01*
X0174904Y0082347D02*
X0174904Y0078819D01*
X0174904Y0082347D02*
X0175774Y0082347D01*
X0175774Y0078819D01*
X0174904Y0078819D01*
X0174904Y0079035D02*
X0175774Y0079035D01*
X0175774Y0079251D02*
X0174904Y0079251D01*
X0174904Y0079467D02*
X0175774Y0079467D01*
X0175774Y0079683D02*
X0174904Y0079683D01*
X0174904Y0079899D02*
X0175774Y0079899D01*
X0175774Y0080115D02*
X0174904Y0080115D01*
X0174904Y0080331D02*
X0175774Y0080331D01*
X0175774Y0080547D02*
X0174904Y0080547D01*
X0174904Y0080763D02*
X0175774Y0080763D01*
X0175774Y0080979D02*
X0174904Y0080979D01*
X0174904Y0081195D02*
X0175774Y0081195D01*
X0175774Y0081411D02*
X0174904Y0081411D01*
X0174904Y0081627D02*
X0175774Y0081627D01*
X0175774Y0081843D02*
X0174904Y0081843D01*
X0174904Y0082059D02*
X0175774Y0082059D01*
X0175774Y0082275D02*
X0174904Y0082275D01*
X0173329Y0082347D02*
X0173329Y0078819D01*
X0173329Y0082347D02*
X0174199Y0082347D01*
X0174199Y0078819D01*
X0173329Y0078819D01*
X0173329Y0079035D02*
X0174199Y0079035D01*
X0174199Y0079251D02*
X0173329Y0079251D01*
X0173329Y0079467D02*
X0174199Y0079467D01*
X0174199Y0079683D02*
X0173329Y0079683D01*
X0173329Y0079899D02*
X0174199Y0079899D01*
X0174199Y0080115D02*
X0173329Y0080115D01*
X0173329Y0080331D02*
X0174199Y0080331D01*
X0174199Y0080547D02*
X0173329Y0080547D01*
X0173329Y0080763D02*
X0174199Y0080763D01*
X0174199Y0080979D02*
X0173329Y0080979D01*
X0173329Y0081195D02*
X0174199Y0081195D01*
X0174199Y0081411D02*
X0173329Y0081411D01*
X0173329Y0081627D02*
X0174199Y0081627D01*
X0174199Y0081843D02*
X0173329Y0081843D01*
X0173329Y0082059D02*
X0174199Y0082059D01*
X0174199Y0082275D02*
X0173329Y0082275D01*
X0172231Y0076851D02*
X0168703Y0076851D01*
X0168703Y0077721D01*
X0172231Y0077721D01*
X0172231Y0076851D01*
X0172231Y0077067D02*
X0168703Y0077067D01*
X0168703Y0077283D02*
X0172231Y0077283D01*
X0172231Y0077499D02*
X0168703Y0077499D01*
X0168703Y0077715D02*
X0172231Y0077715D01*
X0172231Y0075276D02*
X0168703Y0075276D01*
X0168703Y0076146D01*
X0172231Y0076146D01*
X0172231Y0075276D01*
X0172231Y0075492D02*
X0168703Y0075492D01*
X0168703Y0075708D02*
X0172231Y0075708D01*
X0172231Y0075924D02*
X0168703Y0075924D01*
X0168703Y0076140D02*
X0172231Y0076140D01*
X0172231Y0073702D02*
X0168703Y0073702D01*
X0168703Y0074572D01*
X0172231Y0074572D01*
X0172231Y0073702D01*
X0172231Y0073918D02*
X0168703Y0073918D01*
X0168703Y0074134D02*
X0172231Y0074134D01*
X0172231Y0074350D02*
X0168703Y0074350D01*
X0168703Y0074566D02*
X0172231Y0074566D01*
X0172231Y0072127D02*
X0168703Y0072127D01*
X0168703Y0072997D01*
X0172231Y0072997D01*
X0172231Y0072127D01*
X0172231Y0072343D02*
X0168703Y0072343D01*
X0168703Y0072559D02*
X0172231Y0072559D01*
X0172231Y0072775D02*
X0168703Y0072775D01*
X0168703Y0072991D02*
X0172231Y0072991D01*
X0172231Y0070552D02*
X0168703Y0070552D01*
X0168703Y0071422D01*
X0172231Y0071422D01*
X0172231Y0070552D01*
X0172231Y0070768D02*
X0168703Y0070768D01*
X0168703Y0070984D02*
X0172231Y0070984D01*
X0172231Y0071200D02*
X0168703Y0071200D01*
X0168703Y0071416D02*
X0172231Y0071416D01*
X0172231Y0068977D02*
X0168703Y0068977D01*
X0168703Y0069847D01*
X0172231Y0069847D01*
X0172231Y0068977D01*
X0172231Y0069193D02*
X0168703Y0069193D01*
X0168703Y0069409D02*
X0172231Y0069409D01*
X0172231Y0069625D02*
X0168703Y0069625D01*
X0168703Y0069841D02*
X0172231Y0069841D01*
X0172231Y0067402D02*
X0168703Y0067402D01*
X0168703Y0068272D01*
X0172231Y0068272D01*
X0172231Y0067402D01*
X0172231Y0067618D02*
X0168703Y0067618D01*
X0168703Y0067834D02*
X0172231Y0067834D01*
X0172231Y0068050D02*
X0168703Y0068050D01*
X0168703Y0068266D02*
X0172231Y0068266D01*
X0172231Y0065828D02*
X0168703Y0065828D01*
X0168703Y0066698D01*
X0172231Y0066698D01*
X0172231Y0065828D01*
X0172231Y0066044D02*
X0168703Y0066044D01*
X0168703Y0066260D02*
X0172231Y0066260D01*
X0172231Y0066476D02*
X0168703Y0066476D01*
X0168703Y0066692D02*
X0172231Y0066692D01*
X0172231Y0064253D02*
X0168703Y0064253D01*
X0168703Y0065123D01*
X0172231Y0065123D01*
X0172231Y0064253D01*
X0172231Y0064469D02*
X0168703Y0064469D01*
X0168703Y0064685D02*
X0172231Y0064685D01*
X0172231Y0064901D02*
X0168703Y0064901D01*
X0168703Y0065117D02*
X0172231Y0065117D01*
X0172231Y0062678D02*
X0168703Y0062678D01*
X0168703Y0063548D01*
X0172231Y0063548D01*
X0172231Y0062678D01*
X0172231Y0062894D02*
X0168703Y0062894D01*
X0168703Y0063110D02*
X0172231Y0063110D01*
X0172231Y0063326D02*
X0168703Y0063326D01*
X0168703Y0063542D02*
X0172231Y0063542D01*
X0172231Y0061103D02*
X0168703Y0061103D01*
X0168703Y0061973D01*
X0172231Y0061973D01*
X0172231Y0061103D01*
X0172231Y0061319D02*
X0168703Y0061319D01*
X0168703Y0061535D02*
X0172231Y0061535D01*
X0172231Y0061751D02*
X0168703Y0061751D01*
X0168703Y0061967D02*
X0172231Y0061967D01*
X0172231Y0059528D02*
X0168703Y0059528D01*
X0168703Y0060398D01*
X0172231Y0060398D01*
X0172231Y0059528D01*
X0172231Y0059744D02*
X0168703Y0059744D01*
X0168703Y0059960D02*
X0172231Y0059960D01*
X0172231Y0060176D02*
X0168703Y0060176D01*
X0168703Y0060392D02*
X0172231Y0060392D01*
X0172231Y0057954D02*
X0168703Y0057954D01*
X0168703Y0058824D01*
X0172231Y0058824D01*
X0172231Y0057954D01*
X0172231Y0058170D02*
X0168703Y0058170D01*
X0168703Y0058386D02*
X0172231Y0058386D01*
X0172231Y0058602D02*
X0168703Y0058602D01*
X0168703Y0058818D02*
X0172231Y0058818D01*
X0172231Y0056379D02*
X0168703Y0056379D01*
X0168703Y0057249D01*
X0172231Y0057249D01*
X0172231Y0056379D01*
X0172231Y0056595D02*
X0168703Y0056595D01*
X0168703Y0056811D02*
X0172231Y0056811D01*
X0172231Y0057027D02*
X0168703Y0057027D01*
X0168703Y0057243D02*
X0172231Y0057243D01*
X0174199Y0055281D02*
X0174199Y0051753D01*
X0173329Y0051753D01*
X0173329Y0055281D01*
X0174199Y0055281D01*
X0174199Y0051969D02*
X0173329Y0051969D01*
X0173329Y0052185D02*
X0174199Y0052185D01*
X0174199Y0052401D02*
X0173329Y0052401D01*
X0173329Y0052617D02*
X0174199Y0052617D01*
X0174199Y0052833D02*
X0173329Y0052833D01*
X0173329Y0053049D02*
X0174199Y0053049D01*
X0174199Y0053265D02*
X0173329Y0053265D01*
X0173329Y0053481D02*
X0174199Y0053481D01*
X0174199Y0053697D02*
X0173329Y0053697D01*
X0173329Y0053913D02*
X0174199Y0053913D01*
X0174199Y0054129D02*
X0173329Y0054129D01*
X0173329Y0054345D02*
X0174199Y0054345D01*
X0174199Y0054561D02*
X0173329Y0054561D01*
X0173329Y0054777D02*
X0174199Y0054777D01*
X0174199Y0054993D02*
X0173329Y0054993D01*
X0173329Y0055209D02*
X0174199Y0055209D01*
X0175774Y0055281D02*
X0175774Y0051753D01*
X0174904Y0051753D01*
X0174904Y0055281D01*
X0175774Y0055281D01*
X0175774Y0051969D02*
X0174904Y0051969D01*
X0174904Y0052185D02*
X0175774Y0052185D01*
X0175774Y0052401D02*
X0174904Y0052401D01*
X0174904Y0052617D02*
X0175774Y0052617D01*
X0175774Y0052833D02*
X0174904Y0052833D01*
X0174904Y0053049D02*
X0175774Y0053049D01*
X0175774Y0053265D02*
X0174904Y0053265D01*
X0174904Y0053481D02*
X0175774Y0053481D01*
X0175774Y0053697D02*
X0174904Y0053697D01*
X0174904Y0053913D02*
X0175774Y0053913D01*
X0175774Y0054129D02*
X0174904Y0054129D01*
X0174904Y0054345D02*
X0175774Y0054345D01*
X0175774Y0054561D02*
X0174904Y0054561D01*
X0174904Y0054777D02*
X0175774Y0054777D01*
X0175774Y0054993D02*
X0174904Y0054993D01*
X0174904Y0055209D02*
X0175774Y0055209D01*
X0177348Y0055281D02*
X0177348Y0051753D01*
X0176478Y0051753D01*
X0176478Y0055281D01*
X0177348Y0055281D01*
X0177348Y0051969D02*
X0176478Y0051969D01*
X0176478Y0052185D02*
X0177348Y0052185D01*
X0177348Y0052401D02*
X0176478Y0052401D01*
X0176478Y0052617D02*
X0177348Y0052617D01*
X0177348Y0052833D02*
X0176478Y0052833D01*
X0176478Y0053049D02*
X0177348Y0053049D01*
X0177348Y0053265D02*
X0176478Y0053265D01*
X0176478Y0053481D02*
X0177348Y0053481D01*
X0177348Y0053697D02*
X0176478Y0053697D01*
X0176478Y0053913D02*
X0177348Y0053913D01*
X0177348Y0054129D02*
X0176478Y0054129D01*
X0176478Y0054345D02*
X0177348Y0054345D01*
X0177348Y0054561D02*
X0176478Y0054561D01*
X0176478Y0054777D02*
X0177348Y0054777D01*
X0177348Y0054993D02*
X0176478Y0054993D01*
X0176478Y0055209D02*
X0177348Y0055209D01*
X0178923Y0055281D02*
X0178923Y0051753D01*
X0178053Y0051753D01*
X0178053Y0055281D01*
X0178923Y0055281D01*
X0178923Y0051969D02*
X0178053Y0051969D01*
X0178053Y0052185D02*
X0178923Y0052185D01*
X0178923Y0052401D02*
X0178053Y0052401D01*
X0178053Y0052617D02*
X0178923Y0052617D01*
X0178923Y0052833D02*
X0178053Y0052833D01*
X0178053Y0053049D02*
X0178923Y0053049D01*
X0178923Y0053265D02*
X0178053Y0053265D01*
X0178053Y0053481D02*
X0178923Y0053481D01*
X0178923Y0053697D02*
X0178053Y0053697D01*
X0178053Y0053913D02*
X0178923Y0053913D01*
X0178923Y0054129D02*
X0178053Y0054129D01*
X0178053Y0054345D02*
X0178923Y0054345D01*
X0178923Y0054561D02*
X0178053Y0054561D01*
X0178053Y0054777D02*
X0178923Y0054777D01*
X0178923Y0054993D02*
X0178053Y0054993D01*
X0178053Y0055209D02*
X0178923Y0055209D01*
X0180498Y0055281D02*
X0180498Y0051753D01*
X0179628Y0051753D01*
X0179628Y0055281D01*
X0180498Y0055281D01*
X0180498Y0051969D02*
X0179628Y0051969D01*
X0179628Y0052185D02*
X0180498Y0052185D01*
X0180498Y0052401D02*
X0179628Y0052401D01*
X0179628Y0052617D02*
X0180498Y0052617D01*
X0180498Y0052833D02*
X0179628Y0052833D01*
X0179628Y0053049D02*
X0180498Y0053049D01*
X0180498Y0053265D02*
X0179628Y0053265D01*
X0179628Y0053481D02*
X0180498Y0053481D01*
X0180498Y0053697D02*
X0179628Y0053697D01*
X0179628Y0053913D02*
X0180498Y0053913D01*
X0180498Y0054129D02*
X0179628Y0054129D01*
X0179628Y0054345D02*
X0180498Y0054345D01*
X0180498Y0054561D02*
X0179628Y0054561D01*
X0179628Y0054777D02*
X0180498Y0054777D01*
X0180498Y0054993D02*
X0179628Y0054993D01*
X0179628Y0055209D02*
X0180498Y0055209D01*
X0182073Y0055281D02*
X0182073Y0051753D01*
X0181203Y0051753D01*
X0181203Y0055281D01*
X0182073Y0055281D01*
X0182073Y0051969D02*
X0181203Y0051969D01*
X0181203Y0052185D02*
X0182073Y0052185D01*
X0182073Y0052401D02*
X0181203Y0052401D01*
X0181203Y0052617D02*
X0182073Y0052617D01*
X0182073Y0052833D02*
X0181203Y0052833D01*
X0181203Y0053049D02*
X0182073Y0053049D01*
X0182073Y0053265D02*
X0181203Y0053265D01*
X0181203Y0053481D02*
X0182073Y0053481D01*
X0182073Y0053697D02*
X0181203Y0053697D01*
X0181203Y0053913D02*
X0182073Y0053913D01*
X0182073Y0054129D02*
X0181203Y0054129D01*
X0181203Y0054345D02*
X0182073Y0054345D01*
X0182073Y0054561D02*
X0181203Y0054561D01*
X0181203Y0054777D02*
X0182073Y0054777D01*
X0182073Y0054993D02*
X0181203Y0054993D01*
X0181203Y0055209D02*
X0182073Y0055209D01*
X0183648Y0055281D02*
X0183648Y0051753D01*
X0182778Y0051753D01*
X0182778Y0055281D01*
X0183648Y0055281D01*
X0183648Y0051969D02*
X0182778Y0051969D01*
X0182778Y0052185D02*
X0183648Y0052185D01*
X0183648Y0052401D02*
X0182778Y0052401D01*
X0182778Y0052617D02*
X0183648Y0052617D01*
X0183648Y0052833D02*
X0182778Y0052833D01*
X0182778Y0053049D02*
X0183648Y0053049D01*
X0183648Y0053265D02*
X0182778Y0053265D01*
X0182778Y0053481D02*
X0183648Y0053481D01*
X0183648Y0053697D02*
X0182778Y0053697D01*
X0182778Y0053913D02*
X0183648Y0053913D01*
X0183648Y0054129D02*
X0182778Y0054129D01*
X0182778Y0054345D02*
X0183648Y0054345D01*
X0183648Y0054561D02*
X0182778Y0054561D01*
X0182778Y0054777D02*
X0183648Y0054777D01*
X0183648Y0054993D02*
X0182778Y0054993D01*
X0182778Y0055209D02*
X0183648Y0055209D01*
X0185222Y0055281D02*
X0185222Y0051753D01*
X0184352Y0051753D01*
X0184352Y0055281D01*
X0185222Y0055281D01*
X0185222Y0051969D02*
X0184352Y0051969D01*
X0184352Y0052185D02*
X0185222Y0052185D01*
X0185222Y0052401D02*
X0184352Y0052401D01*
X0184352Y0052617D02*
X0185222Y0052617D01*
X0185222Y0052833D02*
X0184352Y0052833D01*
X0184352Y0053049D02*
X0185222Y0053049D01*
X0185222Y0053265D02*
X0184352Y0053265D01*
X0184352Y0053481D02*
X0185222Y0053481D01*
X0185222Y0053697D02*
X0184352Y0053697D01*
X0184352Y0053913D02*
X0185222Y0053913D01*
X0185222Y0054129D02*
X0184352Y0054129D01*
X0184352Y0054345D02*
X0185222Y0054345D01*
X0185222Y0054561D02*
X0184352Y0054561D01*
X0184352Y0054777D02*
X0185222Y0054777D01*
X0185222Y0054993D02*
X0184352Y0054993D01*
X0184352Y0055209D02*
X0185222Y0055209D01*
X0186797Y0055281D02*
X0186797Y0051753D01*
X0185927Y0051753D01*
X0185927Y0055281D01*
X0186797Y0055281D01*
X0186797Y0051969D02*
X0185927Y0051969D01*
X0185927Y0052185D02*
X0186797Y0052185D01*
X0186797Y0052401D02*
X0185927Y0052401D01*
X0185927Y0052617D02*
X0186797Y0052617D01*
X0186797Y0052833D02*
X0185927Y0052833D01*
X0185927Y0053049D02*
X0186797Y0053049D01*
X0186797Y0053265D02*
X0185927Y0053265D01*
X0185927Y0053481D02*
X0186797Y0053481D01*
X0186797Y0053697D02*
X0185927Y0053697D01*
X0185927Y0053913D02*
X0186797Y0053913D01*
X0186797Y0054129D02*
X0185927Y0054129D01*
X0185927Y0054345D02*
X0186797Y0054345D01*
X0186797Y0054561D02*
X0185927Y0054561D01*
X0185927Y0054777D02*
X0186797Y0054777D01*
X0186797Y0054993D02*
X0185927Y0054993D01*
X0185927Y0055209D02*
X0186797Y0055209D01*
X0188372Y0055281D02*
X0188372Y0051753D01*
X0187502Y0051753D01*
X0187502Y0055281D01*
X0188372Y0055281D01*
X0188372Y0051969D02*
X0187502Y0051969D01*
X0187502Y0052185D02*
X0188372Y0052185D01*
X0188372Y0052401D02*
X0187502Y0052401D01*
X0187502Y0052617D02*
X0188372Y0052617D01*
X0188372Y0052833D02*
X0187502Y0052833D01*
X0187502Y0053049D02*
X0188372Y0053049D01*
X0188372Y0053265D02*
X0187502Y0053265D01*
X0187502Y0053481D02*
X0188372Y0053481D01*
X0188372Y0053697D02*
X0187502Y0053697D01*
X0187502Y0053913D02*
X0188372Y0053913D01*
X0188372Y0054129D02*
X0187502Y0054129D01*
X0187502Y0054345D02*
X0188372Y0054345D01*
X0188372Y0054561D02*
X0187502Y0054561D01*
X0187502Y0054777D02*
X0188372Y0054777D01*
X0188372Y0054993D02*
X0187502Y0054993D01*
X0187502Y0055209D02*
X0188372Y0055209D01*
X0189947Y0055281D02*
X0189947Y0051753D01*
X0189077Y0051753D01*
X0189077Y0055281D01*
X0189947Y0055281D01*
X0189947Y0051969D02*
X0189077Y0051969D01*
X0189077Y0052185D02*
X0189947Y0052185D01*
X0189947Y0052401D02*
X0189077Y0052401D01*
X0189077Y0052617D02*
X0189947Y0052617D01*
X0189947Y0052833D02*
X0189077Y0052833D01*
X0189077Y0053049D02*
X0189947Y0053049D01*
X0189947Y0053265D02*
X0189077Y0053265D01*
X0189077Y0053481D02*
X0189947Y0053481D01*
X0189947Y0053697D02*
X0189077Y0053697D01*
X0189077Y0053913D02*
X0189947Y0053913D01*
X0189947Y0054129D02*
X0189077Y0054129D01*
X0189077Y0054345D02*
X0189947Y0054345D01*
X0189947Y0054561D02*
X0189077Y0054561D01*
X0189077Y0054777D02*
X0189947Y0054777D01*
X0189947Y0054993D02*
X0189077Y0054993D01*
X0189077Y0055209D02*
X0189947Y0055209D01*
X0191522Y0055281D02*
X0191522Y0051753D01*
X0190652Y0051753D01*
X0190652Y0055281D01*
X0191522Y0055281D01*
X0191522Y0051969D02*
X0190652Y0051969D01*
X0190652Y0052185D02*
X0191522Y0052185D01*
X0191522Y0052401D02*
X0190652Y0052401D01*
X0190652Y0052617D02*
X0191522Y0052617D01*
X0191522Y0052833D02*
X0190652Y0052833D01*
X0190652Y0053049D02*
X0191522Y0053049D01*
X0191522Y0053265D02*
X0190652Y0053265D01*
X0190652Y0053481D02*
X0191522Y0053481D01*
X0191522Y0053697D02*
X0190652Y0053697D01*
X0190652Y0053913D02*
X0191522Y0053913D01*
X0191522Y0054129D02*
X0190652Y0054129D01*
X0190652Y0054345D02*
X0191522Y0054345D01*
X0191522Y0054561D02*
X0190652Y0054561D01*
X0190652Y0054777D02*
X0191522Y0054777D01*
X0191522Y0054993D02*
X0190652Y0054993D01*
X0190652Y0055209D02*
X0191522Y0055209D01*
X0193096Y0055281D02*
X0193096Y0051753D01*
X0192226Y0051753D01*
X0192226Y0055281D01*
X0193096Y0055281D01*
X0193096Y0051969D02*
X0192226Y0051969D01*
X0192226Y0052185D02*
X0193096Y0052185D01*
X0193096Y0052401D02*
X0192226Y0052401D01*
X0192226Y0052617D02*
X0193096Y0052617D01*
X0193096Y0052833D02*
X0192226Y0052833D01*
X0192226Y0053049D02*
X0193096Y0053049D01*
X0193096Y0053265D02*
X0192226Y0053265D01*
X0192226Y0053481D02*
X0193096Y0053481D01*
X0193096Y0053697D02*
X0192226Y0053697D01*
X0192226Y0053913D02*
X0193096Y0053913D01*
X0193096Y0054129D02*
X0192226Y0054129D01*
X0192226Y0054345D02*
X0193096Y0054345D01*
X0193096Y0054561D02*
X0192226Y0054561D01*
X0192226Y0054777D02*
X0193096Y0054777D01*
X0193096Y0054993D02*
X0192226Y0054993D01*
X0192226Y0055209D02*
X0193096Y0055209D01*
X0195769Y0057249D02*
X0199297Y0057249D01*
X0199297Y0056379D01*
X0195769Y0056379D01*
X0195769Y0057249D01*
X0195769Y0056595D02*
X0199297Y0056595D01*
X0199297Y0056811D02*
X0195769Y0056811D01*
X0195769Y0057027D02*
X0199297Y0057027D01*
X0199297Y0057243D02*
X0195769Y0057243D01*
X0195769Y0058824D02*
X0199297Y0058824D01*
X0199297Y0057954D01*
X0195769Y0057954D01*
X0195769Y0058824D01*
X0195769Y0058170D02*
X0199297Y0058170D01*
X0199297Y0058386D02*
X0195769Y0058386D01*
X0195769Y0058602D02*
X0199297Y0058602D01*
X0199297Y0058818D02*
X0195769Y0058818D01*
X0195769Y0060398D02*
X0199297Y0060398D01*
X0199297Y0059528D01*
X0195769Y0059528D01*
X0195769Y0060398D01*
X0195769Y0059744D02*
X0199297Y0059744D01*
X0199297Y0059960D02*
X0195769Y0059960D01*
X0195769Y0060176D02*
X0199297Y0060176D01*
X0199297Y0060392D02*
X0195769Y0060392D01*
X0195769Y0061973D02*
X0199297Y0061973D01*
X0199297Y0061103D01*
X0195769Y0061103D01*
X0195769Y0061973D01*
X0195769Y0061319D02*
X0199297Y0061319D01*
X0199297Y0061535D02*
X0195769Y0061535D01*
X0195769Y0061751D02*
X0199297Y0061751D01*
X0199297Y0061967D02*
X0195769Y0061967D01*
X0195769Y0063548D02*
X0199297Y0063548D01*
X0199297Y0062678D01*
X0195769Y0062678D01*
X0195769Y0063548D01*
X0195769Y0062894D02*
X0199297Y0062894D01*
X0199297Y0063110D02*
X0195769Y0063110D01*
X0195769Y0063326D02*
X0199297Y0063326D01*
X0199297Y0063542D02*
X0195769Y0063542D01*
X0195769Y0065123D02*
X0199297Y0065123D01*
X0199297Y0064253D01*
X0195769Y0064253D01*
X0195769Y0065123D01*
X0195769Y0064469D02*
X0199297Y0064469D01*
X0199297Y0064685D02*
X0195769Y0064685D01*
X0195769Y0064901D02*
X0199297Y0064901D01*
X0199297Y0065117D02*
X0195769Y0065117D01*
X0195769Y0066698D02*
X0199297Y0066698D01*
X0199297Y0065828D01*
X0195769Y0065828D01*
X0195769Y0066698D01*
X0195769Y0066044D02*
X0199297Y0066044D01*
X0199297Y0066260D02*
X0195769Y0066260D01*
X0195769Y0066476D02*
X0199297Y0066476D01*
X0199297Y0066692D02*
X0195769Y0066692D01*
X0195769Y0068272D02*
X0199297Y0068272D01*
X0199297Y0067402D01*
X0195769Y0067402D01*
X0195769Y0068272D01*
X0195769Y0067618D02*
X0199297Y0067618D01*
X0199297Y0067834D02*
X0195769Y0067834D01*
X0195769Y0068050D02*
X0199297Y0068050D01*
X0199297Y0068266D02*
X0195769Y0068266D01*
X0195769Y0069847D02*
X0199297Y0069847D01*
X0199297Y0068977D01*
X0195769Y0068977D01*
X0195769Y0069847D01*
X0195769Y0069193D02*
X0199297Y0069193D01*
X0199297Y0069409D02*
X0195769Y0069409D01*
X0195769Y0069625D02*
X0199297Y0069625D01*
X0199297Y0069841D02*
X0195769Y0069841D01*
X0195769Y0071422D02*
X0199297Y0071422D01*
X0199297Y0070552D01*
X0195769Y0070552D01*
X0195769Y0071422D01*
X0195769Y0070768D02*
X0199297Y0070768D01*
X0199297Y0070984D02*
X0195769Y0070984D01*
X0195769Y0071200D02*
X0199297Y0071200D01*
X0199297Y0071416D02*
X0195769Y0071416D01*
X0195769Y0072997D02*
X0199297Y0072997D01*
X0199297Y0072127D01*
X0195769Y0072127D01*
X0195769Y0072997D01*
X0195769Y0072343D02*
X0199297Y0072343D01*
X0199297Y0072559D02*
X0195769Y0072559D01*
X0195769Y0072775D02*
X0199297Y0072775D01*
X0199297Y0072991D02*
X0195769Y0072991D01*
X0195769Y0074572D02*
X0199297Y0074572D01*
X0199297Y0073702D01*
X0195769Y0073702D01*
X0195769Y0074572D01*
X0195769Y0073918D02*
X0199297Y0073918D01*
X0199297Y0074134D02*
X0195769Y0074134D01*
X0195769Y0074350D02*
X0199297Y0074350D01*
X0199297Y0074566D02*
X0195769Y0074566D01*
X0195769Y0076146D02*
X0199297Y0076146D01*
X0199297Y0075276D01*
X0195769Y0075276D01*
X0195769Y0076146D01*
X0195769Y0075492D02*
X0199297Y0075492D01*
X0199297Y0075708D02*
X0195769Y0075708D01*
X0195769Y0075924D02*
X0199297Y0075924D01*
X0199297Y0076140D02*
X0195769Y0076140D01*
X0195769Y0077721D02*
X0199297Y0077721D01*
X0199297Y0076851D01*
X0195769Y0076851D01*
X0195769Y0077721D01*
X0195769Y0077067D02*
X0199297Y0077067D01*
X0199297Y0077283D02*
X0195769Y0077283D01*
X0195769Y0077499D02*
X0199297Y0077499D01*
X0199297Y0077715D02*
X0195769Y0077715D01*
X0194671Y0055281D02*
X0194671Y0051753D01*
X0193801Y0051753D01*
X0193801Y0055281D01*
X0194671Y0055281D01*
X0194671Y0051969D02*
X0193801Y0051969D01*
X0193801Y0052185D02*
X0194671Y0052185D01*
X0194671Y0052401D02*
X0193801Y0052401D01*
X0193801Y0052617D02*
X0194671Y0052617D01*
X0194671Y0052833D02*
X0193801Y0052833D01*
X0193801Y0053049D02*
X0194671Y0053049D01*
X0194671Y0053265D02*
X0193801Y0053265D01*
X0193801Y0053481D02*
X0194671Y0053481D01*
X0194671Y0053697D02*
X0193801Y0053697D01*
X0193801Y0053913D02*
X0194671Y0053913D01*
X0194671Y0054129D02*
X0193801Y0054129D01*
X0193801Y0054345D02*
X0194671Y0054345D01*
X0194671Y0054561D02*
X0193801Y0054561D01*
X0193801Y0054777D02*
X0194671Y0054777D01*
X0194671Y0054993D02*
X0193801Y0054993D01*
X0193801Y0055209D02*
X0194671Y0055209D01*
D30*
X0189804Y0072854D02*
X0178196Y0072854D01*
X0189804Y0072854D02*
X0189804Y0061246D01*
X0178196Y0061246D01*
X0178196Y0072854D01*
X0178196Y0062535D02*
X0189804Y0062535D01*
X0189804Y0063824D02*
X0178196Y0063824D01*
X0178196Y0065113D02*
X0189804Y0065113D01*
X0189804Y0066402D02*
X0178196Y0066402D01*
X0178196Y0067691D02*
X0189804Y0067691D01*
X0189804Y0068980D02*
X0178196Y0068980D01*
X0178196Y0070269D02*
X0189804Y0070269D01*
X0189804Y0071558D02*
X0178196Y0071558D01*
X0178196Y0072847D02*
X0189804Y0072847D01*
D31*
X0187488Y0044003D03*
X0187488Y0042034D03*
X0187488Y0040066D03*
X0187488Y0038097D03*
X0198512Y0038097D03*
X0198512Y0040066D03*
X0198512Y0042034D03*
X0198512Y0044003D03*
D32*
X0188642Y0094522D03*
X0181358Y0094522D03*
X0181358Y0103578D03*
X0188642Y0103578D03*
D33*
X0194780Y0018050D03*
X0167220Y0018050D03*
D34*
X0171157Y0028680D03*
X0190843Y0028680D03*
D35*
X0186118Y0028680D03*
X0183559Y0028680D03*
X0181000Y0028680D03*
X0178441Y0028680D03*
X0175882Y0028680D03*
D36*
X0177063Y0018050D03*
X0184937Y0018050D03*
D37*
X0166680Y0092230D02*
X0166680Y0100870D01*
X0169320Y0100870D01*
X0169320Y0092230D01*
X0166680Y0092230D01*
X0166680Y0092889D02*
X0169320Y0092889D01*
X0169320Y0093548D02*
X0166680Y0093548D01*
X0166680Y0094207D02*
X0169320Y0094207D01*
X0169320Y0094866D02*
X0166680Y0094866D01*
X0166680Y0095525D02*
X0169320Y0095525D01*
X0169320Y0096184D02*
X0166680Y0096184D01*
X0166680Y0096843D02*
X0169320Y0096843D01*
X0169320Y0097502D02*
X0166680Y0097502D01*
X0166680Y0098161D02*
X0169320Y0098161D01*
X0169320Y0098820D02*
X0166680Y0098820D01*
X0166680Y0099479D02*
X0169320Y0099479D01*
X0169320Y0100138D02*
X0166680Y0100138D01*
X0166680Y0100797D02*
X0169320Y0100797D01*
X0161680Y0101230D02*
X0161680Y0109870D01*
X0164320Y0109870D01*
X0164320Y0101230D01*
X0161680Y0101230D01*
X0161680Y0101889D02*
X0164320Y0101889D01*
X0164320Y0102548D02*
X0161680Y0102548D01*
X0161680Y0103207D02*
X0164320Y0103207D01*
X0164320Y0103866D02*
X0161680Y0103866D01*
X0161680Y0104525D02*
X0164320Y0104525D01*
X0164320Y0105184D02*
X0161680Y0105184D01*
X0161680Y0105843D02*
X0164320Y0105843D01*
X0164320Y0106502D02*
X0161680Y0106502D01*
X0161680Y0107161D02*
X0164320Y0107161D01*
X0164320Y0107820D02*
X0161680Y0107820D01*
X0161680Y0108479D02*
X0164320Y0108479D01*
X0164320Y0109138D02*
X0161680Y0109138D01*
X0161680Y0109797D02*
X0164320Y0109797D01*
X0156680Y0100870D02*
X0156680Y0092230D01*
X0156680Y0100870D02*
X0159320Y0100870D01*
X0159320Y0092230D01*
X0156680Y0092230D01*
X0156680Y0092889D02*
X0159320Y0092889D01*
X0159320Y0093548D02*
X0156680Y0093548D01*
X0156680Y0094207D02*
X0159320Y0094207D01*
X0159320Y0094866D02*
X0156680Y0094866D01*
X0156680Y0095525D02*
X0159320Y0095525D01*
X0159320Y0096184D02*
X0156680Y0096184D01*
X0156680Y0096843D02*
X0159320Y0096843D01*
X0159320Y0097502D02*
X0156680Y0097502D01*
X0156680Y0098161D02*
X0159320Y0098161D01*
X0159320Y0098820D02*
X0156680Y0098820D01*
X0156680Y0099479D02*
X0159320Y0099479D01*
X0159320Y0100138D02*
X0156680Y0100138D01*
X0156680Y0100797D02*
X0159320Y0100797D01*
D38*
X0202000Y0100294D03*
X0202000Y0105806D03*
X0213000Y0113794D03*
X0213000Y0119306D03*
D39*
G36*
X0177793Y0089883D02*
X0180833Y0086843D01*
X0179207Y0085217D01*
X0176167Y0088257D01*
X0177793Y0089883D01*
G37*
M02*
