%
M48
M72
T01C0.0100
T02C0.0354
T03C0.0433
T04C0.0472
T05C0.0630
%
T01
X1900Y505
X700Y1705
X2100Y2305
X3350Y2305
X3650Y2305
X4500Y2905
X5650Y3205
X4500Y3705
X5650Y4205
X4500Y4705
X4500Y5705
X4500Y6705
X4500Y7705
X5650Y8455
X6650Y8005
X7900Y8305
X6900Y9005
X7150Y9405
X6900Y9805
X8150Y9405
X9100Y9105
X9400Y9405
X9100Y9705
X9700Y9705
X9700Y9105
X10600Y9155
X10600Y9405
X10600Y9705
X11600Y9705
X11600Y10105
X11600Y9305
X11600Y8955
X12700Y8055
X13150Y8505
X13500Y8255
X14400Y8555
X15000Y8105
X15200Y8355
X16400Y8355
X18100Y8455
X18350Y8455
X19150Y8705
X19200Y8455
X18850Y8955
X19250Y9205
X18500Y9955
X19400Y10305
X19000Y11005
X18700Y11005
X19050Y11355
X19050Y11655
X18600Y12155
X17800Y11805
X17800Y11505
X17400Y11505
X17400Y11805
X17050Y12155
X16500Y12155
X16900Y12905
X14400Y12905
X13400Y12405
X13100Y12405
X11900Y12905
X11600Y12405
X10850Y11755
X10050Y11305
X10150Y11055
X9850Y11605
X9600Y11755
X9350Y11605
X8200Y11205
X9400Y12905
X6900Y12905
X4400Y12905
X1900Y12905
X700Y11705
X2900Y10705
X2900Y10205
X2900Y9705
X2900Y9205
X2900Y8705
X2900Y8205
X2900Y7705
X2900Y7205
X2900Y6705
X2900Y6205
X2900Y5705
X2900Y5205
X2900Y4705
X2900Y4205
X2900Y3705
X2900Y3205
X700Y4205
X700Y6705
X4500Y8705
X4500Y9705
X4500Y10705
X700Y9205
X8100Y5805
X9000Y6505
X9350Y6255
X9600Y6255
X9850Y6255
X10050Y6055
X10200Y5805
X10800Y6405
X11100Y6805
X11800Y7105
X12200Y7355
X11600Y7855
X10050Y7505
X9850Y7205
X9600Y7055
X9350Y7205
X9000Y7005
X11600Y5805
X12650Y5305
X13050Y4955
X13550Y5105
X14350Y4855
X14850Y5355
X15000Y5705
X14050Y6055
X13750Y6005
X12950Y6805
X13750Y7405
X14050Y7405
X14650Y7005
X15500Y6705
X15800Y6655
X15950Y6855
X16200Y7005
X16650Y7105
X16400Y6505
X15850Y6355
X16650Y5655
X16400Y5605
X17650Y4955
X17400Y4855
X18200Y4955
X18450Y4905
X18800Y5705
X18800Y6305
X18400Y6705
X18000Y7105
X18800Y7105
X18000Y6305
X20150Y5655
X20150Y5355
X20850Y5205
X21150Y5105
X19850Y4655
X19100Y3805
X20000Y3305
X20250Y3105
X20400Y2805
X20700Y1955
X22050Y1955
X22100Y2455
X22100Y2955
X23250Y3455
X23250Y3955
X23250Y4455
X23250Y4955
X23250Y5455
X23250Y5955
X23250Y6455
X23250Y6955
X23250Y7455
X23250Y7955
X23250Y8455
X23250Y8955
X23250Y9455
X23250Y9955
X22100Y9955
X22100Y9455
X22100Y8955
X22100Y8455
X22100Y7955
X21900Y7505
X20850Y7155
X20650Y7355
X20450Y7555
X20200Y7655
X20800Y8005
X20800Y8505
X20700Y8755
X20800Y9005
X20800Y9405
X20800Y10005
X20800Y10505
X21300Y11005
X21600Y11005
X22100Y10955
X23250Y10955
X25100Y11705
X24800Y12905
X21900Y12905
X21700Y12155
X20700Y11805
X20700Y11505
X20300Y11505
X20300Y11805
X19950Y12155
X19500Y12155
X19400Y12905
X17900Y10805
X16650Y10555
X15950Y10555
X15000Y11105
X14850Y10755
X14350Y10305
X13500Y10555
X13050Y10355
X12700Y10605
X11600Y11205
X13700Y11455
X14050Y11455
X15550Y11405
X15450Y9755
X16200Y9755
X17200Y9455
X13800Y9405
X11900Y6655
X11600Y4705
X11600Y4305
X11600Y3955
X11600Y3555
X10600Y3705
X10600Y4005
X10600Y4305
X9700Y4305
X9400Y4005
X9100Y3705
X9700Y3705
X9100Y4305
X8150Y4005
X7150Y4005
X6850Y3605
X6950Y4405
X7900Y2905
X7000Y2055
X6250Y2255
X5150Y1755
X4450Y1455
X5650Y755
X6050Y755
X6650Y805
X7400Y1055
X8200Y1805
X9050Y1655
X9350Y1805
X9600Y1805
X9850Y1805
X10050Y2105
X10800Y1755
X11150Y2005
X11600Y2455
X12700Y2705
X13100Y3055
X13500Y2855
X14400Y3155
X14650Y2655
X13850Y1955
X14650Y1555
X14250Y1255
X15000Y505
X12750Y1055
X12750Y1305
X11900Y505
X10750Y1205
X10500Y1205
X9950Y1405
X8750Y1305
X8750Y1005
X9400Y505
X4400Y505
X13800Y4005
X16300Y4705
X16800Y3805
X17200Y3805
X17300Y3505
X21500Y4305
X22100Y3955
X21700Y3705
X23250Y2455
X23250Y1955
X25100Y1705
X24800Y505
X21100Y505
X25100Y4205
X25100Y6705
X25100Y9205
X20200Y7155
T02
X19084Y2868
X17116Y2868
T03
X15650Y2955
T04
X16722Y1805
X19478Y1805
T05
X23700Y1085
X23700Y12325
M30
