G75*
%MOIN*%
%OFA0B0*%
%FSLAX25Y25*%
%IPPOS*%
%LPD*%
%AMOC8*
5,1,8,0,0,1.08239X$1,22.5*
%
%ADD10C,0.00600*%
%ADD11C,0.00500*%
%ADD12C,0.03000*%
%ADD13C,0.00800*%
%ADD14C,0.01969*%
%ADD15R,0.00800X0.01600*%
%ADD16R,0.01600X0.00800*%
%ADD17R,0.01600X0.02800*%
%ADD18C,0.01200*%
%ADD19C,0.01200*%
%ADD20C,0.01575*%
%ADD21C,0.01600*%
%ADD22C,0.02000*%
D10*
X0053800Y0030850D02*
X0055101Y0030850D01*
X0055535Y0031284D01*
X0055535Y0033019D01*
X0055101Y0033452D01*
X0053800Y0033452D01*
X0053800Y0030850D01*
X0056747Y0030850D02*
X0056747Y0031284D01*
X0058481Y0033019D01*
X0058481Y0033452D01*
X0056747Y0033452D01*
X0046500Y0032050D02*
X0046502Y0032159D01*
X0046508Y0032268D01*
X0046518Y0032376D01*
X0046532Y0032484D01*
X0046549Y0032592D01*
X0046571Y0032699D01*
X0046596Y0032805D01*
X0046626Y0032909D01*
X0046659Y0033013D01*
X0046696Y0033116D01*
X0046736Y0033217D01*
X0046780Y0033316D01*
X0046828Y0033414D01*
X0046880Y0033511D01*
X0046934Y0033605D01*
X0046992Y0033697D01*
X0047054Y0033787D01*
X0047119Y0033874D01*
X0047186Y0033960D01*
X0047257Y0034043D01*
X0047331Y0034123D01*
X0047408Y0034200D01*
X0047487Y0034275D01*
X0047569Y0034346D01*
X0047654Y0034415D01*
X0047741Y0034480D01*
X0047830Y0034543D01*
X0047922Y0034601D01*
X0048016Y0034657D01*
X0048111Y0034709D01*
X0048209Y0034758D01*
X0048308Y0034803D01*
X0048409Y0034845D01*
X0048511Y0034882D01*
X0048614Y0034916D01*
X0048719Y0034947D01*
X0048825Y0034973D01*
X0048931Y0034996D01*
X0049039Y0035014D01*
X0049147Y0035029D01*
X0049255Y0035040D01*
X0049364Y0035047D01*
X0049473Y0035050D01*
X0049582Y0035049D01*
X0049691Y0035044D01*
X0049799Y0035035D01*
X0049907Y0035022D01*
X0050015Y0035005D01*
X0050122Y0034985D01*
X0050228Y0034960D01*
X0050333Y0034932D01*
X0050437Y0034900D01*
X0050540Y0034864D01*
X0050642Y0034824D01*
X0050742Y0034781D01*
X0050840Y0034734D01*
X0050937Y0034684D01*
X0051031Y0034630D01*
X0051124Y0034572D01*
X0051215Y0034512D01*
X0051303Y0034448D01*
X0051389Y0034381D01*
X0051472Y0034311D01*
X0051553Y0034238D01*
X0051631Y0034162D01*
X0051706Y0034083D01*
X0051779Y0034001D01*
X0051848Y0033917D01*
X0051914Y0033831D01*
X0051977Y0033742D01*
X0052037Y0033651D01*
X0052094Y0033558D01*
X0052147Y0033463D01*
X0052196Y0033366D01*
X0052242Y0033267D01*
X0052284Y0033167D01*
X0052323Y0033065D01*
X0052358Y0032961D01*
X0052389Y0032857D01*
X0052417Y0032752D01*
X0052440Y0032645D01*
X0052460Y0032538D01*
X0052476Y0032430D01*
X0052488Y0032322D01*
X0052496Y0032213D01*
X0052500Y0032104D01*
X0052500Y0031996D01*
X0052496Y0031887D01*
X0052488Y0031778D01*
X0052476Y0031670D01*
X0052460Y0031562D01*
X0052440Y0031455D01*
X0052417Y0031348D01*
X0052389Y0031243D01*
X0052358Y0031139D01*
X0052323Y0031035D01*
X0052284Y0030933D01*
X0052242Y0030833D01*
X0052196Y0030734D01*
X0052147Y0030637D01*
X0052094Y0030542D01*
X0052037Y0030449D01*
X0051977Y0030358D01*
X0051914Y0030269D01*
X0051848Y0030183D01*
X0051779Y0030099D01*
X0051706Y0030017D01*
X0051631Y0029938D01*
X0051553Y0029862D01*
X0051472Y0029789D01*
X0051389Y0029719D01*
X0051303Y0029652D01*
X0051215Y0029588D01*
X0051124Y0029528D01*
X0051031Y0029470D01*
X0050937Y0029416D01*
X0050840Y0029366D01*
X0050742Y0029319D01*
X0050642Y0029276D01*
X0050540Y0029236D01*
X0050437Y0029200D01*
X0050333Y0029168D01*
X0050228Y0029140D01*
X0050122Y0029115D01*
X0050015Y0029095D01*
X0049907Y0029078D01*
X0049799Y0029065D01*
X0049691Y0029056D01*
X0049582Y0029051D01*
X0049473Y0029050D01*
X0049364Y0029053D01*
X0049255Y0029060D01*
X0049147Y0029071D01*
X0049039Y0029086D01*
X0048931Y0029104D01*
X0048825Y0029127D01*
X0048719Y0029153D01*
X0048614Y0029184D01*
X0048511Y0029218D01*
X0048409Y0029255D01*
X0048308Y0029297D01*
X0048209Y0029342D01*
X0048111Y0029391D01*
X0048016Y0029443D01*
X0047922Y0029499D01*
X0047830Y0029557D01*
X0047741Y0029620D01*
X0047654Y0029685D01*
X0047569Y0029754D01*
X0047487Y0029825D01*
X0047408Y0029900D01*
X0047331Y0029977D01*
X0047257Y0030057D01*
X0047186Y0030140D01*
X0047119Y0030226D01*
X0047054Y0030313D01*
X0046992Y0030403D01*
X0046934Y0030495D01*
X0046880Y0030589D01*
X0046828Y0030686D01*
X0046780Y0030784D01*
X0046736Y0030883D01*
X0046696Y0030984D01*
X0046659Y0031087D01*
X0046626Y0031191D01*
X0046596Y0031295D01*
X0046571Y0031401D01*
X0046549Y0031508D01*
X0046532Y0031616D01*
X0046518Y0031724D01*
X0046508Y0031832D01*
X0046502Y0031941D01*
X0046500Y0032050D01*
X0053800Y0040850D02*
X0055101Y0040850D01*
X0055535Y0041284D01*
X0055535Y0043019D01*
X0055101Y0043452D01*
X0053800Y0043452D01*
X0053800Y0040850D01*
X0056747Y0041284D02*
X0056747Y0042151D01*
X0058048Y0042151D01*
X0058481Y0041717D01*
X0058481Y0041284D01*
X0058048Y0040850D01*
X0057180Y0040850D01*
X0056747Y0041284D01*
X0056747Y0042151D02*
X0057614Y0043019D01*
X0058481Y0043452D01*
X0046500Y0042050D02*
X0046502Y0042159D01*
X0046508Y0042268D01*
X0046518Y0042376D01*
X0046532Y0042484D01*
X0046549Y0042592D01*
X0046571Y0042699D01*
X0046596Y0042805D01*
X0046626Y0042909D01*
X0046659Y0043013D01*
X0046696Y0043116D01*
X0046736Y0043217D01*
X0046780Y0043316D01*
X0046828Y0043414D01*
X0046880Y0043511D01*
X0046934Y0043605D01*
X0046992Y0043697D01*
X0047054Y0043787D01*
X0047119Y0043874D01*
X0047186Y0043960D01*
X0047257Y0044043D01*
X0047331Y0044123D01*
X0047408Y0044200D01*
X0047487Y0044275D01*
X0047569Y0044346D01*
X0047654Y0044415D01*
X0047741Y0044480D01*
X0047830Y0044543D01*
X0047922Y0044601D01*
X0048016Y0044657D01*
X0048111Y0044709D01*
X0048209Y0044758D01*
X0048308Y0044803D01*
X0048409Y0044845D01*
X0048511Y0044882D01*
X0048614Y0044916D01*
X0048719Y0044947D01*
X0048825Y0044973D01*
X0048931Y0044996D01*
X0049039Y0045014D01*
X0049147Y0045029D01*
X0049255Y0045040D01*
X0049364Y0045047D01*
X0049473Y0045050D01*
X0049582Y0045049D01*
X0049691Y0045044D01*
X0049799Y0045035D01*
X0049907Y0045022D01*
X0050015Y0045005D01*
X0050122Y0044985D01*
X0050228Y0044960D01*
X0050333Y0044932D01*
X0050437Y0044900D01*
X0050540Y0044864D01*
X0050642Y0044824D01*
X0050742Y0044781D01*
X0050840Y0044734D01*
X0050937Y0044684D01*
X0051031Y0044630D01*
X0051124Y0044572D01*
X0051215Y0044512D01*
X0051303Y0044448D01*
X0051389Y0044381D01*
X0051472Y0044311D01*
X0051553Y0044238D01*
X0051631Y0044162D01*
X0051706Y0044083D01*
X0051779Y0044001D01*
X0051848Y0043917D01*
X0051914Y0043831D01*
X0051977Y0043742D01*
X0052037Y0043651D01*
X0052094Y0043558D01*
X0052147Y0043463D01*
X0052196Y0043366D01*
X0052242Y0043267D01*
X0052284Y0043167D01*
X0052323Y0043065D01*
X0052358Y0042961D01*
X0052389Y0042857D01*
X0052417Y0042752D01*
X0052440Y0042645D01*
X0052460Y0042538D01*
X0052476Y0042430D01*
X0052488Y0042322D01*
X0052496Y0042213D01*
X0052500Y0042104D01*
X0052500Y0041996D01*
X0052496Y0041887D01*
X0052488Y0041778D01*
X0052476Y0041670D01*
X0052460Y0041562D01*
X0052440Y0041455D01*
X0052417Y0041348D01*
X0052389Y0041243D01*
X0052358Y0041139D01*
X0052323Y0041035D01*
X0052284Y0040933D01*
X0052242Y0040833D01*
X0052196Y0040734D01*
X0052147Y0040637D01*
X0052094Y0040542D01*
X0052037Y0040449D01*
X0051977Y0040358D01*
X0051914Y0040269D01*
X0051848Y0040183D01*
X0051779Y0040099D01*
X0051706Y0040017D01*
X0051631Y0039938D01*
X0051553Y0039862D01*
X0051472Y0039789D01*
X0051389Y0039719D01*
X0051303Y0039652D01*
X0051215Y0039588D01*
X0051124Y0039528D01*
X0051031Y0039470D01*
X0050937Y0039416D01*
X0050840Y0039366D01*
X0050742Y0039319D01*
X0050642Y0039276D01*
X0050540Y0039236D01*
X0050437Y0039200D01*
X0050333Y0039168D01*
X0050228Y0039140D01*
X0050122Y0039115D01*
X0050015Y0039095D01*
X0049907Y0039078D01*
X0049799Y0039065D01*
X0049691Y0039056D01*
X0049582Y0039051D01*
X0049473Y0039050D01*
X0049364Y0039053D01*
X0049255Y0039060D01*
X0049147Y0039071D01*
X0049039Y0039086D01*
X0048931Y0039104D01*
X0048825Y0039127D01*
X0048719Y0039153D01*
X0048614Y0039184D01*
X0048511Y0039218D01*
X0048409Y0039255D01*
X0048308Y0039297D01*
X0048209Y0039342D01*
X0048111Y0039391D01*
X0048016Y0039443D01*
X0047922Y0039499D01*
X0047830Y0039557D01*
X0047741Y0039620D01*
X0047654Y0039685D01*
X0047569Y0039754D01*
X0047487Y0039825D01*
X0047408Y0039900D01*
X0047331Y0039977D01*
X0047257Y0040057D01*
X0047186Y0040140D01*
X0047119Y0040226D01*
X0047054Y0040313D01*
X0046992Y0040403D01*
X0046934Y0040495D01*
X0046880Y0040589D01*
X0046828Y0040686D01*
X0046780Y0040784D01*
X0046736Y0040883D01*
X0046696Y0040984D01*
X0046659Y0041087D01*
X0046626Y0041191D01*
X0046596Y0041295D01*
X0046571Y0041401D01*
X0046549Y0041508D01*
X0046532Y0041616D01*
X0046518Y0041724D01*
X0046508Y0041832D01*
X0046502Y0041941D01*
X0046500Y0042050D01*
X0053800Y0050850D02*
X0055101Y0050850D01*
X0055535Y0051284D01*
X0055535Y0053019D01*
X0055101Y0053452D01*
X0053800Y0053452D01*
X0053800Y0050850D01*
X0056747Y0051284D02*
X0057180Y0050850D01*
X0058048Y0050850D01*
X0058481Y0051284D01*
X0058481Y0052151D01*
X0058048Y0052585D01*
X0057614Y0052585D01*
X0056747Y0052151D01*
X0056747Y0053452D01*
X0058481Y0053452D01*
X0046500Y0052050D02*
X0046502Y0052159D01*
X0046508Y0052268D01*
X0046518Y0052376D01*
X0046532Y0052484D01*
X0046549Y0052592D01*
X0046571Y0052699D01*
X0046596Y0052805D01*
X0046626Y0052909D01*
X0046659Y0053013D01*
X0046696Y0053116D01*
X0046736Y0053217D01*
X0046780Y0053316D01*
X0046828Y0053414D01*
X0046880Y0053511D01*
X0046934Y0053605D01*
X0046992Y0053697D01*
X0047054Y0053787D01*
X0047119Y0053874D01*
X0047186Y0053960D01*
X0047257Y0054043D01*
X0047331Y0054123D01*
X0047408Y0054200D01*
X0047487Y0054275D01*
X0047569Y0054346D01*
X0047654Y0054415D01*
X0047741Y0054480D01*
X0047830Y0054543D01*
X0047922Y0054601D01*
X0048016Y0054657D01*
X0048111Y0054709D01*
X0048209Y0054758D01*
X0048308Y0054803D01*
X0048409Y0054845D01*
X0048511Y0054882D01*
X0048614Y0054916D01*
X0048719Y0054947D01*
X0048825Y0054973D01*
X0048931Y0054996D01*
X0049039Y0055014D01*
X0049147Y0055029D01*
X0049255Y0055040D01*
X0049364Y0055047D01*
X0049473Y0055050D01*
X0049582Y0055049D01*
X0049691Y0055044D01*
X0049799Y0055035D01*
X0049907Y0055022D01*
X0050015Y0055005D01*
X0050122Y0054985D01*
X0050228Y0054960D01*
X0050333Y0054932D01*
X0050437Y0054900D01*
X0050540Y0054864D01*
X0050642Y0054824D01*
X0050742Y0054781D01*
X0050840Y0054734D01*
X0050937Y0054684D01*
X0051031Y0054630D01*
X0051124Y0054572D01*
X0051215Y0054512D01*
X0051303Y0054448D01*
X0051389Y0054381D01*
X0051472Y0054311D01*
X0051553Y0054238D01*
X0051631Y0054162D01*
X0051706Y0054083D01*
X0051779Y0054001D01*
X0051848Y0053917D01*
X0051914Y0053831D01*
X0051977Y0053742D01*
X0052037Y0053651D01*
X0052094Y0053558D01*
X0052147Y0053463D01*
X0052196Y0053366D01*
X0052242Y0053267D01*
X0052284Y0053167D01*
X0052323Y0053065D01*
X0052358Y0052961D01*
X0052389Y0052857D01*
X0052417Y0052752D01*
X0052440Y0052645D01*
X0052460Y0052538D01*
X0052476Y0052430D01*
X0052488Y0052322D01*
X0052496Y0052213D01*
X0052500Y0052104D01*
X0052500Y0051996D01*
X0052496Y0051887D01*
X0052488Y0051778D01*
X0052476Y0051670D01*
X0052460Y0051562D01*
X0052440Y0051455D01*
X0052417Y0051348D01*
X0052389Y0051243D01*
X0052358Y0051139D01*
X0052323Y0051035D01*
X0052284Y0050933D01*
X0052242Y0050833D01*
X0052196Y0050734D01*
X0052147Y0050637D01*
X0052094Y0050542D01*
X0052037Y0050449D01*
X0051977Y0050358D01*
X0051914Y0050269D01*
X0051848Y0050183D01*
X0051779Y0050099D01*
X0051706Y0050017D01*
X0051631Y0049938D01*
X0051553Y0049862D01*
X0051472Y0049789D01*
X0051389Y0049719D01*
X0051303Y0049652D01*
X0051215Y0049588D01*
X0051124Y0049528D01*
X0051031Y0049470D01*
X0050937Y0049416D01*
X0050840Y0049366D01*
X0050742Y0049319D01*
X0050642Y0049276D01*
X0050540Y0049236D01*
X0050437Y0049200D01*
X0050333Y0049168D01*
X0050228Y0049140D01*
X0050122Y0049115D01*
X0050015Y0049095D01*
X0049907Y0049078D01*
X0049799Y0049065D01*
X0049691Y0049056D01*
X0049582Y0049051D01*
X0049473Y0049050D01*
X0049364Y0049053D01*
X0049255Y0049060D01*
X0049147Y0049071D01*
X0049039Y0049086D01*
X0048931Y0049104D01*
X0048825Y0049127D01*
X0048719Y0049153D01*
X0048614Y0049184D01*
X0048511Y0049218D01*
X0048409Y0049255D01*
X0048308Y0049297D01*
X0048209Y0049342D01*
X0048111Y0049391D01*
X0048016Y0049443D01*
X0047922Y0049499D01*
X0047830Y0049557D01*
X0047741Y0049620D01*
X0047654Y0049685D01*
X0047569Y0049754D01*
X0047487Y0049825D01*
X0047408Y0049900D01*
X0047331Y0049977D01*
X0047257Y0050057D01*
X0047186Y0050140D01*
X0047119Y0050226D01*
X0047054Y0050313D01*
X0046992Y0050403D01*
X0046934Y0050495D01*
X0046880Y0050589D01*
X0046828Y0050686D01*
X0046780Y0050784D01*
X0046736Y0050883D01*
X0046696Y0050984D01*
X0046659Y0051087D01*
X0046626Y0051191D01*
X0046596Y0051295D01*
X0046571Y0051401D01*
X0046549Y0051508D01*
X0046532Y0051616D01*
X0046518Y0051724D01*
X0046508Y0051832D01*
X0046502Y0051941D01*
X0046500Y0052050D01*
X0053800Y0060850D02*
X0055101Y0060850D01*
X0055535Y0061284D01*
X0055535Y0063019D01*
X0055101Y0063452D01*
X0053800Y0063452D01*
X0053800Y0060850D01*
X0056747Y0062151D02*
X0058481Y0062151D01*
X0058048Y0060850D02*
X0058048Y0063452D01*
X0056747Y0062151D01*
X0046500Y0062050D02*
X0046502Y0062159D01*
X0046508Y0062268D01*
X0046518Y0062376D01*
X0046532Y0062484D01*
X0046549Y0062592D01*
X0046571Y0062699D01*
X0046596Y0062805D01*
X0046626Y0062909D01*
X0046659Y0063013D01*
X0046696Y0063116D01*
X0046736Y0063217D01*
X0046780Y0063316D01*
X0046828Y0063414D01*
X0046880Y0063511D01*
X0046934Y0063605D01*
X0046992Y0063697D01*
X0047054Y0063787D01*
X0047119Y0063874D01*
X0047186Y0063960D01*
X0047257Y0064043D01*
X0047331Y0064123D01*
X0047408Y0064200D01*
X0047487Y0064275D01*
X0047569Y0064346D01*
X0047654Y0064415D01*
X0047741Y0064480D01*
X0047830Y0064543D01*
X0047922Y0064601D01*
X0048016Y0064657D01*
X0048111Y0064709D01*
X0048209Y0064758D01*
X0048308Y0064803D01*
X0048409Y0064845D01*
X0048511Y0064882D01*
X0048614Y0064916D01*
X0048719Y0064947D01*
X0048825Y0064973D01*
X0048931Y0064996D01*
X0049039Y0065014D01*
X0049147Y0065029D01*
X0049255Y0065040D01*
X0049364Y0065047D01*
X0049473Y0065050D01*
X0049582Y0065049D01*
X0049691Y0065044D01*
X0049799Y0065035D01*
X0049907Y0065022D01*
X0050015Y0065005D01*
X0050122Y0064985D01*
X0050228Y0064960D01*
X0050333Y0064932D01*
X0050437Y0064900D01*
X0050540Y0064864D01*
X0050642Y0064824D01*
X0050742Y0064781D01*
X0050840Y0064734D01*
X0050937Y0064684D01*
X0051031Y0064630D01*
X0051124Y0064572D01*
X0051215Y0064512D01*
X0051303Y0064448D01*
X0051389Y0064381D01*
X0051472Y0064311D01*
X0051553Y0064238D01*
X0051631Y0064162D01*
X0051706Y0064083D01*
X0051779Y0064001D01*
X0051848Y0063917D01*
X0051914Y0063831D01*
X0051977Y0063742D01*
X0052037Y0063651D01*
X0052094Y0063558D01*
X0052147Y0063463D01*
X0052196Y0063366D01*
X0052242Y0063267D01*
X0052284Y0063167D01*
X0052323Y0063065D01*
X0052358Y0062961D01*
X0052389Y0062857D01*
X0052417Y0062752D01*
X0052440Y0062645D01*
X0052460Y0062538D01*
X0052476Y0062430D01*
X0052488Y0062322D01*
X0052496Y0062213D01*
X0052500Y0062104D01*
X0052500Y0061996D01*
X0052496Y0061887D01*
X0052488Y0061778D01*
X0052476Y0061670D01*
X0052460Y0061562D01*
X0052440Y0061455D01*
X0052417Y0061348D01*
X0052389Y0061243D01*
X0052358Y0061139D01*
X0052323Y0061035D01*
X0052284Y0060933D01*
X0052242Y0060833D01*
X0052196Y0060734D01*
X0052147Y0060637D01*
X0052094Y0060542D01*
X0052037Y0060449D01*
X0051977Y0060358D01*
X0051914Y0060269D01*
X0051848Y0060183D01*
X0051779Y0060099D01*
X0051706Y0060017D01*
X0051631Y0059938D01*
X0051553Y0059862D01*
X0051472Y0059789D01*
X0051389Y0059719D01*
X0051303Y0059652D01*
X0051215Y0059588D01*
X0051124Y0059528D01*
X0051031Y0059470D01*
X0050937Y0059416D01*
X0050840Y0059366D01*
X0050742Y0059319D01*
X0050642Y0059276D01*
X0050540Y0059236D01*
X0050437Y0059200D01*
X0050333Y0059168D01*
X0050228Y0059140D01*
X0050122Y0059115D01*
X0050015Y0059095D01*
X0049907Y0059078D01*
X0049799Y0059065D01*
X0049691Y0059056D01*
X0049582Y0059051D01*
X0049473Y0059050D01*
X0049364Y0059053D01*
X0049255Y0059060D01*
X0049147Y0059071D01*
X0049039Y0059086D01*
X0048931Y0059104D01*
X0048825Y0059127D01*
X0048719Y0059153D01*
X0048614Y0059184D01*
X0048511Y0059218D01*
X0048409Y0059255D01*
X0048308Y0059297D01*
X0048209Y0059342D01*
X0048111Y0059391D01*
X0048016Y0059443D01*
X0047922Y0059499D01*
X0047830Y0059557D01*
X0047741Y0059620D01*
X0047654Y0059685D01*
X0047569Y0059754D01*
X0047487Y0059825D01*
X0047408Y0059900D01*
X0047331Y0059977D01*
X0047257Y0060057D01*
X0047186Y0060140D01*
X0047119Y0060226D01*
X0047054Y0060313D01*
X0046992Y0060403D01*
X0046934Y0060495D01*
X0046880Y0060589D01*
X0046828Y0060686D01*
X0046780Y0060784D01*
X0046736Y0060883D01*
X0046696Y0060984D01*
X0046659Y0061087D01*
X0046626Y0061191D01*
X0046596Y0061295D01*
X0046571Y0061401D01*
X0046549Y0061508D01*
X0046532Y0061616D01*
X0046518Y0061724D01*
X0046508Y0061832D01*
X0046502Y0061941D01*
X0046500Y0062050D01*
X0053800Y0070850D02*
X0055101Y0070850D01*
X0055535Y0071284D01*
X0055535Y0073019D01*
X0055101Y0073452D01*
X0053800Y0073452D01*
X0053800Y0070850D01*
X0056747Y0071284D02*
X0057180Y0070850D01*
X0058048Y0070850D01*
X0058481Y0071284D01*
X0058481Y0071717D01*
X0058048Y0072151D01*
X0057614Y0072151D01*
X0058048Y0072151D02*
X0058481Y0072585D01*
X0058481Y0073019D01*
X0058048Y0073452D01*
X0057180Y0073452D01*
X0056747Y0073019D01*
X0046500Y0072050D02*
X0046502Y0072159D01*
X0046508Y0072268D01*
X0046518Y0072376D01*
X0046532Y0072484D01*
X0046549Y0072592D01*
X0046571Y0072699D01*
X0046596Y0072805D01*
X0046626Y0072909D01*
X0046659Y0073013D01*
X0046696Y0073116D01*
X0046736Y0073217D01*
X0046780Y0073316D01*
X0046828Y0073414D01*
X0046880Y0073511D01*
X0046934Y0073605D01*
X0046992Y0073697D01*
X0047054Y0073787D01*
X0047119Y0073874D01*
X0047186Y0073960D01*
X0047257Y0074043D01*
X0047331Y0074123D01*
X0047408Y0074200D01*
X0047487Y0074275D01*
X0047569Y0074346D01*
X0047654Y0074415D01*
X0047741Y0074480D01*
X0047830Y0074543D01*
X0047922Y0074601D01*
X0048016Y0074657D01*
X0048111Y0074709D01*
X0048209Y0074758D01*
X0048308Y0074803D01*
X0048409Y0074845D01*
X0048511Y0074882D01*
X0048614Y0074916D01*
X0048719Y0074947D01*
X0048825Y0074973D01*
X0048931Y0074996D01*
X0049039Y0075014D01*
X0049147Y0075029D01*
X0049255Y0075040D01*
X0049364Y0075047D01*
X0049473Y0075050D01*
X0049582Y0075049D01*
X0049691Y0075044D01*
X0049799Y0075035D01*
X0049907Y0075022D01*
X0050015Y0075005D01*
X0050122Y0074985D01*
X0050228Y0074960D01*
X0050333Y0074932D01*
X0050437Y0074900D01*
X0050540Y0074864D01*
X0050642Y0074824D01*
X0050742Y0074781D01*
X0050840Y0074734D01*
X0050937Y0074684D01*
X0051031Y0074630D01*
X0051124Y0074572D01*
X0051215Y0074512D01*
X0051303Y0074448D01*
X0051389Y0074381D01*
X0051472Y0074311D01*
X0051553Y0074238D01*
X0051631Y0074162D01*
X0051706Y0074083D01*
X0051779Y0074001D01*
X0051848Y0073917D01*
X0051914Y0073831D01*
X0051977Y0073742D01*
X0052037Y0073651D01*
X0052094Y0073558D01*
X0052147Y0073463D01*
X0052196Y0073366D01*
X0052242Y0073267D01*
X0052284Y0073167D01*
X0052323Y0073065D01*
X0052358Y0072961D01*
X0052389Y0072857D01*
X0052417Y0072752D01*
X0052440Y0072645D01*
X0052460Y0072538D01*
X0052476Y0072430D01*
X0052488Y0072322D01*
X0052496Y0072213D01*
X0052500Y0072104D01*
X0052500Y0071996D01*
X0052496Y0071887D01*
X0052488Y0071778D01*
X0052476Y0071670D01*
X0052460Y0071562D01*
X0052440Y0071455D01*
X0052417Y0071348D01*
X0052389Y0071243D01*
X0052358Y0071139D01*
X0052323Y0071035D01*
X0052284Y0070933D01*
X0052242Y0070833D01*
X0052196Y0070734D01*
X0052147Y0070637D01*
X0052094Y0070542D01*
X0052037Y0070449D01*
X0051977Y0070358D01*
X0051914Y0070269D01*
X0051848Y0070183D01*
X0051779Y0070099D01*
X0051706Y0070017D01*
X0051631Y0069938D01*
X0051553Y0069862D01*
X0051472Y0069789D01*
X0051389Y0069719D01*
X0051303Y0069652D01*
X0051215Y0069588D01*
X0051124Y0069528D01*
X0051031Y0069470D01*
X0050937Y0069416D01*
X0050840Y0069366D01*
X0050742Y0069319D01*
X0050642Y0069276D01*
X0050540Y0069236D01*
X0050437Y0069200D01*
X0050333Y0069168D01*
X0050228Y0069140D01*
X0050122Y0069115D01*
X0050015Y0069095D01*
X0049907Y0069078D01*
X0049799Y0069065D01*
X0049691Y0069056D01*
X0049582Y0069051D01*
X0049473Y0069050D01*
X0049364Y0069053D01*
X0049255Y0069060D01*
X0049147Y0069071D01*
X0049039Y0069086D01*
X0048931Y0069104D01*
X0048825Y0069127D01*
X0048719Y0069153D01*
X0048614Y0069184D01*
X0048511Y0069218D01*
X0048409Y0069255D01*
X0048308Y0069297D01*
X0048209Y0069342D01*
X0048111Y0069391D01*
X0048016Y0069443D01*
X0047922Y0069499D01*
X0047830Y0069557D01*
X0047741Y0069620D01*
X0047654Y0069685D01*
X0047569Y0069754D01*
X0047487Y0069825D01*
X0047408Y0069900D01*
X0047331Y0069977D01*
X0047257Y0070057D01*
X0047186Y0070140D01*
X0047119Y0070226D01*
X0047054Y0070313D01*
X0046992Y0070403D01*
X0046934Y0070495D01*
X0046880Y0070589D01*
X0046828Y0070686D01*
X0046780Y0070784D01*
X0046736Y0070883D01*
X0046696Y0070984D01*
X0046659Y0071087D01*
X0046626Y0071191D01*
X0046596Y0071295D01*
X0046571Y0071401D01*
X0046549Y0071508D01*
X0046532Y0071616D01*
X0046518Y0071724D01*
X0046508Y0071832D01*
X0046502Y0071941D01*
X0046500Y0072050D01*
X0053800Y0080850D02*
X0055101Y0080850D01*
X0055535Y0081284D01*
X0055535Y0083019D01*
X0055101Y0083452D01*
X0053800Y0083452D01*
X0053800Y0080850D01*
X0056747Y0080850D02*
X0058481Y0082585D01*
X0058481Y0083019D01*
X0058048Y0083452D01*
X0057180Y0083452D01*
X0056747Y0083019D01*
X0056747Y0080850D02*
X0058481Y0080850D01*
X0046500Y0082050D02*
X0046502Y0082159D01*
X0046508Y0082268D01*
X0046518Y0082376D01*
X0046532Y0082484D01*
X0046549Y0082592D01*
X0046571Y0082699D01*
X0046596Y0082805D01*
X0046626Y0082909D01*
X0046659Y0083013D01*
X0046696Y0083116D01*
X0046736Y0083217D01*
X0046780Y0083316D01*
X0046828Y0083414D01*
X0046880Y0083511D01*
X0046934Y0083605D01*
X0046992Y0083697D01*
X0047054Y0083787D01*
X0047119Y0083874D01*
X0047186Y0083960D01*
X0047257Y0084043D01*
X0047331Y0084123D01*
X0047408Y0084200D01*
X0047487Y0084275D01*
X0047569Y0084346D01*
X0047654Y0084415D01*
X0047741Y0084480D01*
X0047830Y0084543D01*
X0047922Y0084601D01*
X0048016Y0084657D01*
X0048111Y0084709D01*
X0048209Y0084758D01*
X0048308Y0084803D01*
X0048409Y0084845D01*
X0048511Y0084882D01*
X0048614Y0084916D01*
X0048719Y0084947D01*
X0048825Y0084973D01*
X0048931Y0084996D01*
X0049039Y0085014D01*
X0049147Y0085029D01*
X0049255Y0085040D01*
X0049364Y0085047D01*
X0049473Y0085050D01*
X0049582Y0085049D01*
X0049691Y0085044D01*
X0049799Y0085035D01*
X0049907Y0085022D01*
X0050015Y0085005D01*
X0050122Y0084985D01*
X0050228Y0084960D01*
X0050333Y0084932D01*
X0050437Y0084900D01*
X0050540Y0084864D01*
X0050642Y0084824D01*
X0050742Y0084781D01*
X0050840Y0084734D01*
X0050937Y0084684D01*
X0051031Y0084630D01*
X0051124Y0084572D01*
X0051215Y0084512D01*
X0051303Y0084448D01*
X0051389Y0084381D01*
X0051472Y0084311D01*
X0051553Y0084238D01*
X0051631Y0084162D01*
X0051706Y0084083D01*
X0051779Y0084001D01*
X0051848Y0083917D01*
X0051914Y0083831D01*
X0051977Y0083742D01*
X0052037Y0083651D01*
X0052094Y0083558D01*
X0052147Y0083463D01*
X0052196Y0083366D01*
X0052242Y0083267D01*
X0052284Y0083167D01*
X0052323Y0083065D01*
X0052358Y0082961D01*
X0052389Y0082857D01*
X0052417Y0082752D01*
X0052440Y0082645D01*
X0052460Y0082538D01*
X0052476Y0082430D01*
X0052488Y0082322D01*
X0052496Y0082213D01*
X0052500Y0082104D01*
X0052500Y0081996D01*
X0052496Y0081887D01*
X0052488Y0081778D01*
X0052476Y0081670D01*
X0052460Y0081562D01*
X0052440Y0081455D01*
X0052417Y0081348D01*
X0052389Y0081243D01*
X0052358Y0081139D01*
X0052323Y0081035D01*
X0052284Y0080933D01*
X0052242Y0080833D01*
X0052196Y0080734D01*
X0052147Y0080637D01*
X0052094Y0080542D01*
X0052037Y0080449D01*
X0051977Y0080358D01*
X0051914Y0080269D01*
X0051848Y0080183D01*
X0051779Y0080099D01*
X0051706Y0080017D01*
X0051631Y0079938D01*
X0051553Y0079862D01*
X0051472Y0079789D01*
X0051389Y0079719D01*
X0051303Y0079652D01*
X0051215Y0079588D01*
X0051124Y0079528D01*
X0051031Y0079470D01*
X0050937Y0079416D01*
X0050840Y0079366D01*
X0050742Y0079319D01*
X0050642Y0079276D01*
X0050540Y0079236D01*
X0050437Y0079200D01*
X0050333Y0079168D01*
X0050228Y0079140D01*
X0050122Y0079115D01*
X0050015Y0079095D01*
X0049907Y0079078D01*
X0049799Y0079065D01*
X0049691Y0079056D01*
X0049582Y0079051D01*
X0049473Y0079050D01*
X0049364Y0079053D01*
X0049255Y0079060D01*
X0049147Y0079071D01*
X0049039Y0079086D01*
X0048931Y0079104D01*
X0048825Y0079127D01*
X0048719Y0079153D01*
X0048614Y0079184D01*
X0048511Y0079218D01*
X0048409Y0079255D01*
X0048308Y0079297D01*
X0048209Y0079342D01*
X0048111Y0079391D01*
X0048016Y0079443D01*
X0047922Y0079499D01*
X0047830Y0079557D01*
X0047741Y0079620D01*
X0047654Y0079685D01*
X0047569Y0079754D01*
X0047487Y0079825D01*
X0047408Y0079900D01*
X0047331Y0079977D01*
X0047257Y0080057D01*
X0047186Y0080140D01*
X0047119Y0080226D01*
X0047054Y0080313D01*
X0046992Y0080403D01*
X0046934Y0080495D01*
X0046880Y0080589D01*
X0046828Y0080686D01*
X0046780Y0080784D01*
X0046736Y0080883D01*
X0046696Y0080984D01*
X0046659Y0081087D01*
X0046626Y0081191D01*
X0046596Y0081295D01*
X0046571Y0081401D01*
X0046549Y0081508D01*
X0046532Y0081616D01*
X0046518Y0081724D01*
X0046508Y0081832D01*
X0046502Y0081941D01*
X0046500Y0082050D01*
X0046500Y0092050D02*
X0046502Y0092159D01*
X0046508Y0092268D01*
X0046518Y0092376D01*
X0046532Y0092484D01*
X0046549Y0092592D01*
X0046571Y0092699D01*
X0046596Y0092805D01*
X0046626Y0092909D01*
X0046659Y0093013D01*
X0046696Y0093116D01*
X0046736Y0093217D01*
X0046780Y0093316D01*
X0046828Y0093414D01*
X0046880Y0093511D01*
X0046934Y0093605D01*
X0046992Y0093697D01*
X0047054Y0093787D01*
X0047119Y0093874D01*
X0047186Y0093960D01*
X0047257Y0094043D01*
X0047331Y0094123D01*
X0047408Y0094200D01*
X0047487Y0094275D01*
X0047569Y0094346D01*
X0047654Y0094415D01*
X0047741Y0094480D01*
X0047830Y0094543D01*
X0047922Y0094601D01*
X0048016Y0094657D01*
X0048111Y0094709D01*
X0048209Y0094758D01*
X0048308Y0094803D01*
X0048409Y0094845D01*
X0048511Y0094882D01*
X0048614Y0094916D01*
X0048719Y0094947D01*
X0048825Y0094973D01*
X0048931Y0094996D01*
X0049039Y0095014D01*
X0049147Y0095029D01*
X0049255Y0095040D01*
X0049364Y0095047D01*
X0049473Y0095050D01*
X0049582Y0095049D01*
X0049691Y0095044D01*
X0049799Y0095035D01*
X0049907Y0095022D01*
X0050015Y0095005D01*
X0050122Y0094985D01*
X0050228Y0094960D01*
X0050333Y0094932D01*
X0050437Y0094900D01*
X0050540Y0094864D01*
X0050642Y0094824D01*
X0050742Y0094781D01*
X0050840Y0094734D01*
X0050937Y0094684D01*
X0051031Y0094630D01*
X0051124Y0094572D01*
X0051215Y0094512D01*
X0051303Y0094448D01*
X0051389Y0094381D01*
X0051472Y0094311D01*
X0051553Y0094238D01*
X0051631Y0094162D01*
X0051706Y0094083D01*
X0051779Y0094001D01*
X0051848Y0093917D01*
X0051914Y0093831D01*
X0051977Y0093742D01*
X0052037Y0093651D01*
X0052094Y0093558D01*
X0052147Y0093463D01*
X0052196Y0093366D01*
X0052242Y0093267D01*
X0052284Y0093167D01*
X0052323Y0093065D01*
X0052358Y0092961D01*
X0052389Y0092857D01*
X0052417Y0092752D01*
X0052440Y0092645D01*
X0052460Y0092538D01*
X0052476Y0092430D01*
X0052488Y0092322D01*
X0052496Y0092213D01*
X0052500Y0092104D01*
X0052500Y0091996D01*
X0052496Y0091887D01*
X0052488Y0091778D01*
X0052476Y0091670D01*
X0052460Y0091562D01*
X0052440Y0091455D01*
X0052417Y0091348D01*
X0052389Y0091243D01*
X0052358Y0091139D01*
X0052323Y0091035D01*
X0052284Y0090933D01*
X0052242Y0090833D01*
X0052196Y0090734D01*
X0052147Y0090637D01*
X0052094Y0090542D01*
X0052037Y0090449D01*
X0051977Y0090358D01*
X0051914Y0090269D01*
X0051848Y0090183D01*
X0051779Y0090099D01*
X0051706Y0090017D01*
X0051631Y0089938D01*
X0051553Y0089862D01*
X0051472Y0089789D01*
X0051389Y0089719D01*
X0051303Y0089652D01*
X0051215Y0089588D01*
X0051124Y0089528D01*
X0051031Y0089470D01*
X0050937Y0089416D01*
X0050840Y0089366D01*
X0050742Y0089319D01*
X0050642Y0089276D01*
X0050540Y0089236D01*
X0050437Y0089200D01*
X0050333Y0089168D01*
X0050228Y0089140D01*
X0050122Y0089115D01*
X0050015Y0089095D01*
X0049907Y0089078D01*
X0049799Y0089065D01*
X0049691Y0089056D01*
X0049582Y0089051D01*
X0049473Y0089050D01*
X0049364Y0089053D01*
X0049255Y0089060D01*
X0049147Y0089071D01*
X0049039Y0089086D01*
X0048931Y0089104D01*
X0048825Y0089127D01*
X0048719Y0089153D01*
X0048614Y0089184D01*
X0048511Y0089218D01*
X0048409Y0089255D01*
X0048308Y0089297D01*
X0048209Y0089342D01*
X0048111Y0089391D01*
X0048016Y0089443D01*
X0047922Y0089499D01*
X0047830Y0089557D01*
X0047741Y0089620D01*
X0047654Y0089685D01*
X0047569Y0089754D01*
X0047487Y0089825D01*
X0047408Y0089900D01*
X0047331Y0089977D01*
X0047257Y0090057D01*
X0047186Y0090140D01*
X0047119Y0090226D01*
X0047054Y0090313D01*
X0046992Y0090403D01*
X0046934Y0090495D01*
X0046880Y0090589D01*
X0046828Y0090686D01*
X0046780Y0090784D01*
X0046736Y0090883D01*
X0046696Y0090984D01*
X0046659Y0091087D01*
X0046626Y0091191D01*
X0046596Y0091295D01*
X0046571Y0091401D01*
X0046549Y0091508D01*
X0046532Y0091616D01*
X0046518Y0091724D01*
X0046508Y0091832D01*
X0046502Y0091941D01*
X0046500Y0092050D01*
X0053800Y0090850D02*
X0055101Y0090850D01*
X0055535Y0091284D01*
X0055535Y0093019D01*
X0055101Y0093452D01*
X0053800Y0093452D01*
X0053800Y0090850D01*
X0056747Y0090850D02*
X0058481Y0090850D01*
X0057614Y0090850D02*
X0057614Y0093452D01*
X0056747Y0092585D01*
X0057180Y0100850D02*
X0056747Y0101284D01*
X0058481Y0103019D01*
X0058481Y0101284D01*
X0058048Y0100850D01*
X0057180Y0100850D01*
X0056747Y0101284D02*
X0056747Y0103019D01*
X0057180Y0103452D01*
X0058048Y0103452D01*
X0058481Y0103019D01*
X0055535Y0103019D02*
X0055535Y0101284D01*
X0055101Y0100850D01*
X0053800Y0100850D01*
X0053800Y0103452D01*
X0055101Y0103452D01*
X0055535Y0103019D01*
X0046500Y0102050D02*
X0046502Y0102159D01*
X0046508Y0102268D01*
X0046518Y0102376D01*
X0046532Y0102484D01*
X0046549Y0102592D01*
X0046571Y0102699D01*
X0046596Y0102805D01*
X0046626Y0102909D01*
X0046659Y0103013D01*
X0046696Y0103116D01*
X0046736Y0103217D01*
X0046780Y0103316D01*
X0046828Y0103414D01*
X0046880Y0103511D01*
X0046934Y0103605D01*
X0046992Y0103697D01*
X0047054Y0103787D01*
X0047119Y0103874D01*
X0047186Y0103960D01*
X0047257Y0104043D01*
X0047331Y0104123D01*
X0047408Y0104200D01*
X0047487Y0104275D01*
X0047569Y0104346D01*
X0047654Y0104415D01*
X0047741Y0104480D01*
X0047830Y0104543D01*
X0047922Y0104601D01*
X0048016Y0104657D01*
X0048111Y0104709D01*
X0048209Y0104758D01*
X0048308Y0104803D01*
X0048409Y0104845D01*
X0048511Y0104882D01*
X0048614Y0104916D01*
X0048719Y0104947D01*
X0048825Y0104973D01*
X0048931Y0104996D01*
X0049039Y0105014D01*
X0049147Y0105029D01*
X0049255Y0105040D01*
X0049364Y0105047D01*
X0049473Y0105050D01*
X0049582Y0105049D01*
X0049691Y0105044D01*
X0049799Y0105035D01*
X0049907Y0105022D01*
X0050015Y0105005D01*
X0050122Y0104985D01*
X0050228Y0104960D01*
X0050333Y0104932D01*
X0050437Y0104900D01*
X0050540Y0104864D01*
X0050642Y0104824D01*
X0050742Y0104781D01*
X0050840Y0104734D01*
X0050937Y0104684D01*
X0051031Y0104630D01*
X0051124Y0104572D01*
X0051215Y0104512D01*
X0051303Y0104448D01*
X0051389Y0104381D01*
X0051472Y0104311D01*
X0051553Y0104238D01*
X0051631Y0104162D01*
X0051706Y0104083D01*
X0051779Y0104001D01*
X0051848Y0103917D01*
X0051914Y0103831D01*
X0051977Y0103742D01*
X0052037Y0103651D01*
X0052094Y0103558D01*
X0052147Y0103463D01*
X0052196Y0103366D01*
X0052242Y0103267D01*
X0052284Y0103167D01*
X0052323Y0103065D01*
X0052358Y0102961D01*
X0052389Y0102857D01*
X0052417Y0102752D01*
X0052440Y0102645D01*
X0052460Y0102538D01*
X0052476Y0102430D01*
X0052488Y0102322D01*
X0052496Y0102213D01*
X0052500Y0102104D01*
X0052500Y0101996D01*
X0052496Y0101887D01*
X0052488Y0101778D01*
X0052476Y0101670D01*
X0052460Y0101562D01*
X0052440Y0101455D01*
X0052417Y0101348D01*
X0052389Y0101243D01*
X0052358Y0101139D01*
X0052323Y0101035D01*
X0052284Y0100933D01*
X0052242Y0100833D01*
X0052196Y0100734D01*
X0052147Y0100637D01*
X0052094Y0100542D01*
X0052037Y0100449D01*
X0051977Y0100358D01*
X0051914Y0100269D01*
X0051848Y0100183D01*
X0051779Y0100099D01*
X0051706Y0100017D01*
X0051631Y0099938D01*
X0051553Y0099862D01*
X0051472Y0099789D01*
X0051389Y0099719D01*
X0051303Y0099652D01*
X0051215Y0099588D01*
X0051124Y0099528D01*
X0051031Y0099470D01*
X0050937Y0099416D01*
X0050840Y0099366D01*
X0050742Y0099319D01*
X0050642Y0099276D01*
X0050540Y0099236D01*
X0050437Y0099200D01*
X0050333Y0099168D01*
X0050228Y0099140D01*
X0050122Y0099115D01*
X0050015Y0099095D01*
X0049907Y0099078D01*
X0049799Y0099065D01*
X0049691Y0099056D01*
X0049582Y0099051D01*
X0049473Y0099050D01*
X0049364Y0099053D01*
X0049255Y0099060D01*
X0049147Y0099071D01*
X0049039Y0099086D01*
X0048931Y0099104D01*
X0048825Y0099127D01*
X0048719Y0099153D01*
X0048614Y0099184D01*
X0048511Y0099218D01*
X0048409Y0099255D01*
X0048308Y0099297D01*
X0048209Y0099342D01*
X0048111Y0099391D01*
X0048016Y0099443D01*
X0047922Y0099499D01*
X0047830Y0099557D01*
X0047741Y0099620D01*
X0047654Y0099685D01*
X0047569Y0099754D01*
X0047487Y0099825D01*
X0047408Y0099900D01*
X0047331Y0099977D01*
X0047257Y0100057D01*
X0047186Y0100140D01*
X0047119Y0100226D01*
X0047054Y0100313D01*
X0046992Y0100403D01*
X0046934Y0100495D01*
X0046880Y0100589D01*
X0046828Y0100686D01*
X0046780Y0100784D01*
X0046736Y0100883D01*
X0046696Y0100984D01*
X0046659Y0101087D01*
X0046626Y0101191D01*
X0046596Y0101295D01*
X0046571Y0101401D01*
X0046549Y0101508D01*
X0046532Y0101616D01*
X0046518Y0101724D01*
X0046508Y0101832D01*
X0046502Y0101941D01*
X0046500Y0102050D01*
X0047164Y0110726D02*
X0047777Y0110726D01*
X0048391Y0111339D01*
X0048391Y0111953D01*
X0048084Y0112259D01*
X0047470Y0112259D01*
X0046550Y0111339D01*
X0047164Y0110726D01*
X0046550Y0111339D02*
X0046550Y0112566D01*
X0046857Y0113486D01*
X0049247Y0112809D02*
X0049554Y0113116D01*
X0049861Y0112809D01*
X0049554Y0112503D01*
X0049247Y0112809D01*
X0050289Y0113851D02*
X0050902Y0113851D01*
X0051516Y0114465D01*
X0051516Y0115078D01*
X0050902Y0115691D01*
X0050289Y0115691D01*
X0049982Y0115385D01*
X0049676Y0114465D01*
X0048756Y0115385D01*
X0049982Y0116611D01*
X0050839Y0117468D02*
X0052066Y0116241D01*
X0053293Y0116241D01*
X0053293Y0117468D01*
X0052066Y0118695D01*
X0052500Y0121050D02*
X0052502Y0121159D01*
X0052508Y0121268D01*
X0052518Y0121376D01*
X0052532Y0121484D01*
X0052549Y0121592D01*
X0052571Y0121699D01*
X0052596Y0121805D01*
X0052626Y0121909D01*
X0052659Y0122013D01*
X0052696Y0122116D01*
X0052736Y0122217D01*
X0052780Y0122316D01*
X0052828Y0122414D01*
X0052880Y0122511D01*
X0052934Y0122605D01*
X0052992Y0122697D01*
X0053054Y0122787D01*
X0053119Y0122874D01*
X0053186Y0122960D01*
X0053257Y0123043D01*
X0053331Y0123123D01*
X0053408Y0123200D01*
X0053487Y0123275D01*
X0053569Y0123346D01*
X0053654Y0123415D01*
X0053741Y0123480D01*
X0053830Y0123543D01*
X0053922Y0123601D01*
X0054016Y0123657D01*
X0054111Y0123709D01*
X0054209Y0123758D01*
X0054308Y0123803D01*
X0054409Y0123845D01*
X0054511Y0123882D01*
X0054614Y0123916D01*
X0054719Y0123947D01*
X0054825Y0123973D01*
X0054931Y0123996D01*
X0055039Y0124014D01*
X0055147Y0124029D01*
X0055255Y0124040D01*
X0055364Y0124047D01*
X0055473Y0124050D01*
X0055582Y0124049D01*
X0055691Y0124044D01*
X0055799Y0124035D01*
X0055907Y0124022D01*
X0056015Y0124005D01*
X0056122Y0123985D01*
X0056228Y0123960D01*
X0056333Y0123932D01*
X0056437Y0123900D01*
X0056540Y0123864D01*
X0056642Y0123824D01*
X0056742Y0123781D01*
X0056840Y0123734D01*
X0056937Y0123684D01*
X0057031Y0123630D01*
X0057124Y0123572D01*
X0057215Y0123512D01*
X0057303Y0123448D01*
X0057389Y0123381D01*
X0057472Y0123311D01*
X0057553Y0123238D01*
X0057631Y0123162D01*
X0057706Y0123083D01*
X0057779Y0123001D01*
X0057848Y0122917D01*
X0057914Y0122831D01*
X0057977Y0122742D01*
X0058037Y0122651D01*
X0058094Y0122558D01*
X0058147Y0122463D01*
X0058196Y0122366D01*
X0058242Y0122267D01*
X0058284Y0122167D01*
X0058323Y0122065D01*
X0058358Y0121961D01*
X0058389Y0121857D01*
X0058417Y0121752D01*
X0058440Y0121645D01*
X0058460Y0121538D01*
X0058476Y0121430D01*
X0058488Y0121322D01*
X0058496Y0121213D01*
X0058500Y0121104D01*
X0058500Y0120996D01*
X0058496Y0120887D01*
X0058488Y0120778D01*
X0058476Y0120670D01*
X0058460Y0120562D01*
X0058440Y0120455D01*
X0058417Y0120348D01*
X0058389Y0120243D01*
X0058358Y0120139D01*
X0058323Y0120035D01*
X0058284Y0119933D01*
X0058242Y0119833D01*
X0058196Y0119734D01*
X0058147Y0119637D01*
X0058094Y0119542D01*
X0058037Y0119449D01*
X0057977Y0119358D01*
X0057914Y0119269D01*
X0057848Y0119183D01*
X0057779Y0119099D01*
X0057706Y0119017D01*
X0057631Y0118938D01*
X0057553Y0118862D01*
X0057472Y0118789D01*
X0057389Y0118719D01*
X0057303Y0118652D01*
X0057215Y0118588D01*
X0057124Y0118528D01*
X0057031Y0118470D01*
X0056937Y0118416D01*
X0056840Y0118366D01*
X0056742Y0118319D01*
X0056642Y0118276D01*
X0056540Y0118236D01*
X0056437Y0118200D01*
X0056333Y0118168D01*
X0056228Y0118140D01*
X0056122Y0118115D01*
X0056015Y0118095D01*
X0055907Y0118078D01*
X0055799Y0118065D01*
X0055691Y0118056D01*
X0055582Y0118051D01*
X0055473Y0118050D01*
X0055364Y0118053D01*
X0055255Y0118060D01*
X0055147Y0118071D01*
X0055039Y0118086D01*
X0054931Y0118104D01*
X0054825Y0118127D01*
X0054719Y0118153D01*
X0054614Y0118184D01*
X0054511Y0118218D01*
X0054409Y0118255D01*
X0054308Y0118297D01*
X0054209Y0118342D01*
X0054111Y0118391D01*
X0054016Y0118443D01*
X0053922Y0118499D01*
X0053830Y0118557D01*
X0053741Y0118620D01*
X0053654Y0118685D01*
X0053569Y0118754D01*
X0053487Y0118825D01*
X0053408Y0118900D01*
X0053331Y0118977D01*
X0053257Y0119057D01*
X0053186Y0119140D01*
X0053119Y0119226D01*
X0053054Y0119313D01*
X0052992Y0119403D01*
X0052934Y0119495D01*
X0052880Y0119589D01*
X0052828Y0119686D01*
X0052780Y0119784D01*
X0052736Y0119883D01*
X0052696Y0119984D01*
X0052659Y0120087D01*
X0052626Y0120191D01*
X0052596Y0120295D01*
X0052571Y0120401D01*
X0052549Y0120508D01*
X0052532Y0120616D01*
X0052518Y0120724D01*
X0052508Y0120832D01*
X0052502Y0120941D01*
X0052500Y0121050D01*
X0057676Y0116305D02*
X0058289Y0116305D01*
X0058289Y0113851D01*
X0058902Y0113851D01*
X0059516Y0114465D01*
X0059516Y0115078D01*
X0058289Y0116305D01*
X0057676Y0116305D02*
X0057062Y0115691D01*
X0057062Y0115078D01*
X0058289Y0113851D01*
X0057739Y0112688D02*
X0056512Y0111461D01*
X0056512Y0113914D01*
X0056206Y0114221D01*
X0055592Y0114221D01*
X0054979Y0113608D01*
X0054979Y0112994D01*
X0054735Y0111524D02*
X0053509Y0110298D01*
X0060066Y0116241D02*
X0061293Y0116241D01*
X0061293Y0117468D01*
X0060066Y0118695D01*
X0058839Y0117468D02*
X0060066Y0116241D01*
X0060500Y0121050D02*
X0060502Y0121159D01*
X0060508Y0121268D01*
X0060518Y0121376D01*
X0060532Y0121484D01*
X0060549Y0121592D01*
X0060571Y0121699D01*
X0060596Y0121805D01*
X0060626Y0121909D01*
X0060659Y0122013D01*
X0060696Y0122116D01*
X0060736Y0122217D01*
X0060780Y0122316D01*
X0060828Y0122414D01*
X0060880Y0122511D01*
X0060934Y0122605D01*
X0060992Y0122697D01*
X0061054Y0122787D01*
X0061119Y0122874D01*
X0061186Y0122960D01*
X0061257Y0123043D01*
X0061331Y0123123D01*
X0061408Y0123200D01*
X0061487Y0123275D01*
X0061569Y0123346D01*
X0061654Y0123415D01*
X0061741Y0123480D01*
X0061830Y0123543D01*
X0061922Y0123601D01*
X0062016Y0123657D01*
X0062111Y0123709D01*
X0062209Y0123758D01*
X0062308Y0123803D01*
X0062409Y0123845D01*
X0062511Y0123882D01*
X0062614Y0123916D01*
X0062719Y0123947D01*
X0062825Y0123973D01*
X0062931Y0123996D01*
X0063039Y0124014D01*
X0063147Y0124029D01*
X0063255Y0124040D01*
X0063364Y0124047D01*
X0063473Y0124050D01*
X0063582Y0124049D01*
X0063691Y0124044D01*
X0063799Y0124035D01*
X0063907Y0124022D01*
X0064015Y0124005D01*
X0064122Y0123985D01*
X0064228Y0123960D01*
X0064333Y0123932D01*
X0064437Y0123900D01*
X0064540Y0123864D01*
X0064642Y0123824D01*
X0064742Y0123781D01*
X0064840Y0123734D01*
X0064937Y0123684D01*
X0065031Y0123630D01*
X0065124Y0123572D01*
X0065215Y0123512D01*
X0065303Y0123448D01*
X0065389Y0123381D01*
X0065472Y0123311D01*
X0065553Y0123238D01*
X0065631Y0123162D01*
X0065706Y0123083D01*
X0065779Y0123001D01*
X0065848Y0122917D01*
X0065914Y0122831D01*
X0065977Y0122742D01*
X0066037Y0122651D01*
X0066094Y0122558D01*
X0066147Y0122463D01*
X0066196Y0122366D01*
X0066242Y0122267D01*
X0066284Y0122167D01*
X0066323Y0122065D01*
X0066358Y0121961D01*
X0066389Y0121857D01*
X0066417Y0121752D01*
X0066440Y0121645D01*
X0066460Y0121538D01*
X0066476Y0121430D01*
X0066488Y0121322D01*
X0066496Y0121213D01*
X0066500Y0121104D01*
X0066500Y0120996D01*
X0066496Y0120887D01*
X0066488Y0120778D01*
X0066476Y0120670D01*
X0066460Y0120562D01*
X0066440Y0120455D01*
X0066417Y0120348D01*
X0066389Y0120243D01*
X0066358Y0120139D01*
X0066323Y0120035D01*
X0066284Y0119933D01*
X0066242Y0119833D01*
X0066196Y0119734D01*
X0066147Y0119637D01*
X0066094Y0119542D01*
X0066037Y0119449D01*
X0065977Y0119358D01*
X0065914Y0119269D01*
X0065848Y0119183D01*
X0065779Y0119099D01*
X0065706Y0119017D01*
X0065631Y0118938D01*
X0065553Y0118862D01*
X0065472Y0118789D01*
X0065389Y0118719D01*
X0065303Y0118652D01*
X0065215Y0118588D01*
X0065124Y0118528D01*
X0065031Y0118470D01*
X0064937Y0118416D01*
X0064840Y0118366D01*
X0064742Y0118319D01*
X0064642Y0118276D01*
X0064540Y0118236D01*
X0064437Y0118200D01*
X0064333Y0118168D01*
X0064228Y0118140D01*
X0064122Y0118115D01*
X0064015Y0118095D01*
X0063907Y0118078D01*
X0063799Y0118065D01*
X0063691Y0118056D01*
X0063582Y0118051D01*
X0063473Y0118050D01*
X0063364Y0118053D01*
X0063255Y0118060D01*
X0063147Y0118071D01*
X0063039Y0118086D01*
X0062931Y0118104D01*
X0062825Y0118127D01*
X0062719Y0118153D01*
X0062614Y0118184D01*
X0062511Y0118218D01*
X0062409Y0118255D01*
X0062308Y0118297D01*
X0062209Y0118342D01*
X0062111Y0118391D01*
X0062016Y0118443D01*
X0061922Y0118499D01*
X0061830Y0118557D01*
X0061741Y0118620D01*
X0061654Y0118685D01*
X0061569Y0118754D01*
X0061487Y0118825D01*
X0061408Y0118900D01*
X0061331Y0118977D01*
X0061257Y0119057D01*
X0061186Y0119140D01*
X0061119Y0119226D01*
X0061054Y0119313D01*
X0060992Y0119403D01*
X0060934Y0119495D01*
X0060880Y0119589D01*
X0060828Y0119686D01*
X0060780Y0119784D01*
X0060736Y0119883D01*
X0060696Y0119984D01*
X0060659Y0120087D01*
X0060626Y0120191D01*
X0060596Y0120295D01*
X0060571Y0120401D01*
X0060549Y0120508D01*
X0060532Y0120616D01*
X0060518Y0120724D01*
X0060508Y0120832D01*
X0060502Y0120941D01*
X0060500Y0121050D01*
X0085634Y0102416D02*
X0087110Y0102416D01*
X0085634Y0102416D02*
X0085634Y0100940D01*
X0100890Y0102416D02*
X0102366Y0102416D01*
X0102366Y0100940D01*
X0102366Y0087160D02*
X0102366Y0085684D01*
X0100890Y0085684D01*
X0087110Y0085684D02*
X0085634Y0085684D01*
X0085634Y0087160D01*
X0105000Y0071050D02*
X0105002Y0071159D01*
X0105008Y0071268D01*
X0105018Y0071376D01*
X0105032Y0071484D01*
X0105049Y0071592D01*
X0105071Y0071699D01*
X0105096Y0071805D01*
X0105126Y0071909D01*
X0105159Y0072013D01*
X0105196Y0072116D01*
X0105236Y0072217D01*
X0105280Y0072316D01*
X0105328Y0072414D01*
X0105380Y0072511D01*
X0105434Y0072605D01*
X0105492Y0072697D01*
X0105554Y0072787D01*
X0105619Y0072874D01*
X0105686Y0072960D01*
X0105757Y0073043D01*
X0105831Y0073123D01*
X0105908Y0073200D01*
X0105987Y0073275D01*
X0106069Y0073346D01*
X0106154Y0073415D01*
X0106241Y0073480D01*
X0106330Y0073543D01*
X0106422Y0073601D01*
X0106516Y0073657D01*
X0106611Y0073709D01*
X0106709Y0073758D01*
X0106808Y0073803D01*
X0106909Y0073845D01*
X0107011Y0073882D01*
X0107114Y0073916D01*
X0107219Y0073947D01*
X0107325Y0073973D01*
X0107431Y0073996D01*
X0107539Y0074014D01*
X0107647Y0074029D01*
X0107755Y0074040D01*
X0107864Y0074047D01*
X0107973Y0074050D01*
X0108082Y0074049D01*
X0108191Y0074044D01*
X0108299Y0074035D01*
X0108407Y0074022D01*
X0108515Y0074005D01*
X0108622Y0073985D01*
X0108728Y0073960D01*
X0108833Y0073932D01*
X0108937Y0073900D01*
X0109040Y0073864D01*
X0109142Y0073824D01*
X0109242Y0073781D01*
X0109340Y0073734D01*
X0109437Y0073684D01*
X0109531Y0073630D01*
X0109624Y0073572D01*
X0109715Y0073512D01*
X0109803Y0073448D01*
X0109889Y0073381D01*
X0109972Y0073311D01*
X0110053Y0073238D01*
X0110131Y0073162D01*
X0110206Y0073083D01*
X0110279Y0073001D01*
X0110348Y0072917D01*
X0110414Y0072831D01*
X0110477Y0072742D01*
X0110537Y0072651D01*
X0110594Y0072558D01*
X0110647Y0072463D01*
X0110696Y0072366D01*
X0110742Y0072267D01*
X0110784Y0072167D01*
X0110823Y0072065D01*
X0110858Y0071961D01*
X0110889Y0071857D01*
X0110917Y0071752D01*
X0110940Y0071645D01*
X0110960Y0071538D01*
X0110976Y0071430D01*
X0110988Y0071322D01*
X0110996Y0071213D01*
X0111000Y0071104D01*
X0111000Y0070996D01*
X0110996Y0070887D01*
X0110988Y0070778D01*
X0110976Y0070670D01*
X0110960Y0070562D01*
X0110940Y0070455D01*
X0110917Y0070348D01*
X0110889Y0070243D01*
X0110858Y0070139D01*
X0110823Y0070035D01*
X0110784Y0069933D01*
X0110742Y0069833D01*
X0110696Y0069734D01*
X0110647Y0069637D01*
X0110594Y0069542D01*
X0110537Y0069449D01*
X0110477Y0069358D01*
X0110414Y0069269D01*
X0110348Y0069183D01*
X0110279Y0069099D01*
X0110206Y0069017D01*
X0110131Y0068938D01*
X0110053Y0068862D01*
X0109972Y0068789D01*
X0109889Y0068719D01*
X0109803Y0068652D01*
X0109715Y0068588D01*
X0109624Y0068528D01*
X0109531Y0068470D01*
X0109437Y0068416D01*
X0109340Y0068366D01*
X0109242Y0068319D01*
X0109142Y0068276D01*
X0109040Y0068236D01*
X0108937Y0068200D01*
X0108833Y0068168D01*
X0108728Y0068140D01*
X0108622Y0068115D01*
X0108515Y0068095D01*
X0108407Y0068078D01*
X0108299Y0068065D01*
X0108191Y0068056D01*
X0108082Y0068051D01*
X0107973Y0068050D01*
X0107864Y0068053D01*
X0107755Y0068060D01*
X0107647Y0068071D01*
X0107539Y0068086D01*
X0107431Y0068104D01*
X0107325Y0068127D01*
X0107219Y0068153D01*
X0107114Y0068184D01*
X0107011Y0068218D01*
X0106909Y0068255D01*
X0106808Y0068297D01*
X0106709Y0068342D01*
X0106611Y0068391D01*
X0106516Y0068443D01*
X0106422Y0068499D01*
X0106330Y0068557D01*
X0106241Y0068620D01*
X0106154Y0068685D01*
X0106069Y0068754D01*
X0105987Y0068825D01*
X0105908Y0068900D01*
X0105831Y0068977D01*
X0105757Y0069057D01*
X0105686Y0069140D01*
X0105619Y0069226D01*
X0105554Y0069313D01*
X0105492Y0069403D01*
X0105434Y0069495D01*
X0105380Y0069589D01*
X0105328Y0069686D01*
X0105280Y0069784D01*
X0105236Y0069883D01*
X0105196Y0069984D01*
X0105159Y0070087D01*
X0105126Y0070191D01*
X0105096Y0070295D01*
X0105071Y0070401D01*
X0105049Y0070508D01*
X0105032Y0070616D01*
X0105018Y0070724D01*
X0105008Y0070832D01*
X0105002Y0070941D01*
X0105000Y0071050D01*
X0105000Y0064050D02*
X0105002Y0064159D01*
X0105008Y0064268D01*
X0105018Y0064376D01*
X0105032Y0064484D01*
X0105049Y0064592D01*
X0105071Y0064699D01*
X0105096Y0064805D01*
X0105126Y0064909D01*
X0105159Y0065013D01*
X0105196Y0065116D01*
X0105236Y0065217D01*
X0105280Y0065316D01*
X0105328Y0065414D01*
X0105380Y0065511D01*
X0105434Y0065605D01*
X0105492Y0065697D01*
X0105554Y0065787D01*
X0105619Y0065874D01*
X0105686Y0065960D01*
X0105757Y0066043D01*
X0105831Y0066123D01*
X0105908Y0066200D01*
X0105987Y0066275D01*
X0106069Y0066346D01*
X0106154Y0066415D01*
X0106241Y0066480D01*
X0106330Y0066543D01*
X0106422Y0066601D01*
X0106516Y0066657D01*
X0106611Y0066709D01*
X0106709Y0066758D01*
X0106808Y0066803D01*
X0106909Y0066845D01*
X0107011Y0066882D01*
X0107114Y0066916D01*
X0107219Y0066947D01*
X0107325Y0066973D01*
X0107431Y0066996D01*
X0107539Y0067014D01*
X0107647Y0067029D01*
X0107755Y0067040D01*
X0107864Y0067047D01*
X0107973Y0067050D01*
X0108082Y0067049D01*
X0108191Y0067044D01*
X0108299Y0067035D01*
X0108407Y0067022D01*
X0108515Y0067005D01*
X0108622Y0066985D01*
X0108728Y0066960D01*
X0108833Y0066932D01*
X0108937Y0066900D01*
X0109040Y0066864D01*
X0109142Y0066824D01*
X0109242Y0066781D01*
X0109340Y0066734D01*
X0109437Y0066684D01*
X0109531Y0066630D01*
X0109624Y0066572D01*
X0109715Y0066512D01*
X0109803Y0066448D01*
X0109889Y0066381D01*
X0109972Y0066311D01*
X0110053Y0066238D01*
X0110131Y0066162D01*
X0110206Y0066083D01*
X0110279Y0066001D01*
X0110348Y0065917D01*
X0110414Y0065831D01*
X0110477Y0065742D01*
X0110537Y0065651D01*
X0110594Y0065558D01*
X0110647Y0065463D01*
X0110696Y0065366D01*
X0110742Y0065267D01*
X0110784Y0065167D01*
X0110823Y0065065D01*
X0110858Y0064961D01*
X0110889Y0064857D01*
X0110917Y0064752D01*
X0110940Y0064645D01*
X0110960Y0064538D01*
X0110976Y0064430D01*
X0110988Y0064322D01*
X0110996Y0064213D01*
X0111000Y0064104D01*
X0111000Y0063996D01*
X0110996Y0063887D01*
X0110988Y0063778D01*
X0110976Y0063670D01*
X0110960Y0063562D01*
X0110940Y0063455D01*
X0110917Y0063348D01*
X0110889Y0063243D01*
X0110858Y0063139D01*
X0110823Y0063035D01*
X0110784Y0062933D01*
X0110742Y0062833D01*
X0110696Y0062734D01*
X0110647Y0062637D01*
X0110594Y0062542D01*
X0110537Y0062449D01*
X0110477Y0062358D01*
X0110414Y0062269D01*
X0110348Y0062183D01*
X0110279Y0062099D01*
X0110206Y0062017D01*
X0110131Y0061938D01*
X0110053Y0061862D01*
X0109972Y0061789D01*
X0109889Y0061719D01*
X0109803Y0061652D01*
X0109715Y0061588D01*
X0109624Y0061528D01*
X0109531Y0061470D01*
X0109437Y0061416D01*
X0109340Y0061366D01*
X0109242Y0061319D01*
X0109142Y0061276D01*
X0109040Y0061236D01*
X0108937Y0061200D01*
X0108833Y0061168D01*
X0108728Y0061140D01*
X0108622Y0061115D01*
X0108515Y0061095D01*
X0108407Y0061078D01*
X0108299Y0061065D01*
X0108191Y0061056D01*
X0108082Y0061051D01*
X0107973Y0061050D01*
X0107864Y0061053D01*
X0107755Y0061060D01*
X0107647Y0061071D01*
X0107539Y0061086D01*
X0107431Y0061104D01*
X0107325Y0061127D01*
X0107219Y0061153D01*
X0107114Y0061184D01*
X0107011Y0061218D01*
X0106909Y0061255D01*
X0106808Y0061297D01*
X0106709Y0061342D01*
X0106611Y0061391D01*
X0106516Y0061443D01*
X0106422Y0061499D01*
X0106330Y0061557D01*
X0106241Y0061620D01*
X0106154Y0061685D01*
X0106069Y0061754D01*
X0105987Y0061825D01*
X0105908Y0061900D01*
X0105831Y0061977D01*
X0105757Y0062057D01*
X0105686Y0062140D01*
X0105619Y0062226D01*
X0105554Y0062313D01*
X0105492Y0062403D01*
X0105434Y0062495D01*
X0105380Y0062589D01*
X0105328Y0062686D01*
X0105280Y0062784D01*
X0105236Y0062883D01*
X0105196Y0062984D01*
X0105159Y0063087D01*
X0105126Y0063191D01*
X0105096Y0063295D01*
X0105071Y0063401D01*
X0105049Y0063508D01*
X0105032Y0063616D01*
X0105018Y0063724D01*
X0105008Y0063832D01*
X0105002Y0063941D01*
X0105000Y0064050D01*
X0102366Y0048416D02*
X0102366Y0046940D01*
X0102366Y0048416D02*
X0100890Y0048416D01*
X0087110Y0048416D02*
X0085634Y0048416D01*
X0085634Y0046940D01*
X0085634Y0033160D02*
X0085634Y0031684D01*
X0087110Y0031684D01*
X0100890Y0031684D02*
X0102366Y0031684D01*
X0102366Y0033160D01*
X0105000Y0017550D02*
X0105002Y0017659D01*
X0105008Y0017768D01*
X0105018Y0017876D01*
X0105032Y0017984D01*
X0105049Y0018092D01*
X0105071Y0018199D01*
X0105096Y0018305D01*
X0105126Y0018409D01*
X0105159Y0018513D01*
X0105196Y0018616D01*
X0105236Y0018717D01*
X0105280Y0018816D01*
X0105328Y0018914D01*
X0105380Y0019011D01*
X0105434Y0019105D01*
X0105492Y0019197D01*
X0105554Y0019287D01*
X0105619Y0019374D01*
X0105686Y0019460D01*
X0105757Y0019543D01*
X0105831Y0019623D01*
X0105908Y0019700D01*
X0105987Y0019775D01*
X0106069Y0019846D01*
X0106154Y0019915D01*
X0106241Y0019980D01*
X0106330Y0020043D01*
X0106422Y0020101D01*
X0106516Y0020157D01*
X0106611Y0020209D01*
X0106709Y0020258D01*
X0106808Y0020303D01*
X0106909Y0020345D01*
X0107011Y0020382D01*
X0107114Y0020416D01*
X0107219Y0020447D01*
X0107325Y0020473D01*
X0107431Y0020496D01*
X0107539Y0020514D01*
X0107647Y0020529D01*
X0107755Y0020540D01*
X0107864Y0020547D01*
X0107973Y0020550D01*
X0108082Y0020549D01*
X0108191Y0020544D01*
X0108299Y0020535D01*
X0108407Y0020522D01*
X0108515Y0020505D01*
X0108622Y0020485D01*
X0108728Y0020460D01*
X0108833Y0020432D01*
X0108937Y0020400D01*
X0109040Y0020364D01*
X0109142Y0020324D01*
X0109242Y0020281D01*
X0109340Y0020234D01*
X0109437Y0020184D01*
X0109531Y0020130D01*
X0109624Y0020072D01*
X0109715Y0020012D01*
X0109803Y0019948D01*
X0109889Y0019881D01*
X0109972Y0019811D01*
X0110053Y0019738D01*
X0110131Y0019662D01*
X0110206Y0019583D01*
X0110279Y0019501D01*
X0110348Y0019417D01*
X0110414Y0019331D01*
X0110477Y0019242D01*
X0110537Y0019151D01*
X0110594Y0019058D01*
X0110647Y0018963D01*
X0110696Y0018866D01*
X0110742Y0018767D01*
X0110784Y0018667D01*
X0110823Y0018565D01*
X0110858Y0018461D01*
X0110889Y0018357D01*
X0110917Y0018252D01*
X0110940Y0018145D01*
X0110960Y0018038D01*
X0110976Y0017930D01*
X0110988Y0017822D01*
X0110996Y0017713D01*
X0111000Y0017604D01*
X0111000Y0017496D01*
X0110996Y0017387D01*
X0110988Y0017278D01*
X0110976Y0017170D01*
X0110960Y0017062D01*
X0110940Y0016955D01*
X0110917Y0016848D01*
X0110889Y0016743D01*
X0110858Y0016639D01*
X0110823Y0016535D01*
X0110784Y0016433D01*
X0110742Y0016333D01*
X0110696Y0016234D01*
X0110647Y0016137D01*
X0110594Y0016042D01*
X0110537Y0015949D01*
X0110477Y0015858D01*
X0110414Y0015769D01*
X0110348Y0015683D01*
X0110279Y0015599D01*
X0110206Y0015517D01*
X0110131Y0015438D01*
X0110053Y0015362D01*
X0109972Y0015289D01*
X0109889Y0015219D01*
X0109803Y0015152D01*
X0109715Y0015088D01*
X0109624Y0015028D01*
X0109531Y0014970D01*
X0109437Y0014916D01*
X0109340Y0014866D01*
X0109242Y0014819D01*
X0109142Y0014776D01*
X0109040Y0014736D01*
X0108937Y0014700D01*
X0108833Y0014668D01*
X0108728Y0014640D01*
X0108622Y0014615D01*
X0108515Y0014595D01*
X0108407Y0014578D01*
X0108299Y0014565D01*
X0108191Y0014556D01*
X0108082Y0014551D01*
X0107973Y0014550D01*
X0107864Y0014553D01*
X0107755Y0014560D01*
X0107647Y0014571D01*
X0107539Y0014586D01*
X0107431Y0014604D01*
X0107325Y0014627D01*
X0107219Y0014653D01*
X0107114Y0014684D01*
X0107011Y0014718D01*
X0106909Y0014755D01*
X0106808Y0014797D01*
X0106709Y0014842D01*
X0106611Y0014891D01*
X0106516Y0014943D01*
X0106422Y0014999D01*
X0106330Y0015057D01*
X0106241Y0015120D01*
X0106154Y0015185D01*
X0106069Y0015254D01*
X0105987Y0015325D01*
X0105908Y0015400D01*
X0105831Y0015477D01*
X0105757Y0015557D01*
X0105686Y0015640D01*
X0105619Y0015726D01*
X0105554Y0015813D01*
X0105492Y0015903D01*
X0105434Y0015995D01*
X0105380Y0016089D01*
X0105328Y0016186D01*
X0105280Y0016284D01*
X0105236Y0016383D01*
X0105196Y0016484D01*
X0105159Y0016587D01*
X0105126Y0016691D01*
X0105096Y0016795D01*
X0105071Y0016901D01*
X0105049Y0017008D01*
X0105032Y0017116D01*
X0105018Y0017224D01*
X0105008Y0017332D01*
X0105002Y0017441D01*
X0105000Y0017550D01*
X0131602Y0033652D02*
X0133079Y0033652D01*
X0131602Y0033652D02*
X0131602Y0035129D01*
X0142921Y0033652D02*
X0144398Y0033652D01*
X0144398Y0035129D01*
X0155098Y0036784D02*
X0155531Y0036350D01*
X0157266Y0036350D01*
X0157700Y0036784D01*
X0157700Y0037651D01*
X0157266Y0038085D01*
X0156399Y0038085D01*
X0156399Y0037217D01*
X0155531Y0038085D02*
X0155098Y0037651D01*
X0155098Y0036784D01*
X0155098Y0039297D02*
X0157700Y0041031D01*
X0155098Y0041031D01*
X0155098Y0042243D02*
X0155098Y0043544D01*
X0155531Y0043978D01*
X0157266Y0043978D01*
X0157700Y0043544D01*
X0157700Y0042243D01*
X0155098Y0042243D01*
X0155098Y0039297D02*
X0157700Y0039297D01*
X0165252Y0033798D02*
X0196748Y0033798D01*
X0196748Y0022050D01*
X0200598Y0022044D02*
X0201031Y0022478D01*
X0202766Y0022478D01*
X0203200Y0022044D01*
X0203200Y0021177D01*
X0202766Y0020743D01*
X0201031Y0020743D01*
X0200598Y0021177D01*
X0200598Y0022044D01*
X0200598Y0023690D02*
X0200598Y0025424D01*
X0200598Y0024557D02*
X0203200Y0024557D01*
X0202766Y0026636D02*
X0203200Y0027070D01*
X0203200Y0027937D01*
X0202766Y0028371D01*
X0202333Y0028371D01*
X0201899Y0027937D01*
X0201899Y0027070D01*
X0201465Y0026636D01*
X0201031Y0026636D01*
X0200598Y0027070D01*
X0200598Y0027937D01*
X0201031Y0028371D01*
X0200598Y0029583D02*
X0203200Y0029583D01*
X0203200Y0031317D01*
X0203200Y0032529D02*
X0203200Y0034264D01*
X0203200Y0032529D02*
X0200598Y0032529D01*
X0200598Y0031317D02*
X0200598Y0029583D01*
X0201899Y0029583D02*
X0201899Y0030450D01*
X0204291Y0028144D02*
X0204291Y0019956D01*
X0203200Y0019098D02*
X0202766Y0019531D01*
X0201031Y0019531D01*
X0200598Y0019098D01*
X0200598Y0018230D01*
X0201031Y0017797D01*
X0202766Y0017797D01*
X0203200Y0018230D01*
X0203200Y0019098D01*
X0202766Y0016585D02*
X0203200Y0016151D01*
X0203200Y0014850D01*
X0200598Y0014850D01*
X0200598Y0016151D01*
X0201031Y0016585D01*
X0201465Y0016585D01*
X0201899Y0016151D01*
X0201899Y0014850D01*
X0201899Y0016151D02*
X0202333Y0016585D01*
X0202766Y0016585D01*
X0196748Y0014050D02*
X0196748Y0012144D01*
X0165252Y0012144D01*
X0165252Y0010176D01*
X0163283Y0008207D01*
X0198717Y0008207D01*
X0196748Y0010176D01*
X0196748Y0012144D01*
X0215709Y0019956D02*
X0215709Y0028144D01*
X0206850Y0024050D02*
X0206852Y0024162D01*
X0206858Y0024273D01*
X0206868Y0024385D01*
X0206882Y0024496D01*
X0206899Y0024606D01*
X0206921Y0024716D01*
X0206947Y0024825D01*
X0206976Y0024933D01*
X0207009Y0025039D01*
X0207046Y0025145D01*
X0207087Y0025249D01*
X0207132Y0025352D01*
X0207180Y0025453D01*
X0207231Y0025552D01*
X0207286Y0025649D01*
X0207345Y0025744D01*
X0207406Y0025838D01*
X0207471Y0025929D01*
X0207540Y0026017D01*
X0207611Y0026103D01*
X0207685Y0026187D01*
X0207763Y0026267D01*
X0207843Y0026345D01*
X0207926Y0026421D01*
X0208011Y0026493D01*
X0208099Y0026562D01*
X0208189Y0026628D01*
X0208282Y0026690D01*
X0208377Y0026750D01*
X0208474Y0026806D01*
X0208572Y0026858D01*
X0208673Y0026907D01*
X0208775Y0026952D01*
X0208879Y0026994D01*
X0208984Y0027032D01*
X0209091Y0027066D01*
X0209198Y0027096D01*
X0209307Y0027123D01*
X0209416Y0027145D01*
X0209527Y0027164D01*
X0209637Y0027179D01*
X0209749Y0027190D01*
X0209860Y0027197D01*
X0209972Y0027200D01*
X0210084Y0027199D01*
X0210196Y0027194D01*
X0210307Y0027185D01*
X0210418Y0027172D01*
X0210529Y0027155D01*
X0210639Y0027135D01*
X0210748Y0027110D01*
X0210856Y0027082D01*
X0210963Y0027049D01*
X0211069Y0027013D01*
X0211173Y0026973D01*
X0211276Y0026930D01*
X0211378Y0026883D01*
X0211477Y0026832D01*
X0211575Y0026778D01*
X0211671Y0026720D01*
X0211765Y0026659D01*
X0211856Y0026595D01*
X0211945Y0026528D01*
X0212032Y0026457D01*
X0212116Y0026383D01*
X0212198Y0026307D01*
X0212276Y0026227D01*
X0212352Y0026145D01*
X0212425Y0026060D01*
X0212495Y0025973D01*
X0212561Y0025883D01*
X0212625Y0025791D01*
X0212685Y0025697D01*
X0212742Y0025601D01*
X0212795Y0025502D01*
X0212845Y0025402D01*
X0212891Y0025301D01*
X0212934Y0025197D01*
X0212973Y0025092D01*
X0213008Y0024986D01*
X0213039Y0024879D01*
X0213067Y0024770D01*
X0213090Y0024661D01*
X0213110Y0024551D01*
X0213126Y0024440D01*
X0213138Y0024329D01*
X0213146Y0024218D01*
X0213150Y0024106D01*
X0213150Y0023994D01*
X0213146Y0023882D01*
X0213138Y0023771D01*
X0213126Y0023660D01*
X0213110Y0023549D01*
X0213090Y0023439D01*
X0213067Y0023330D01*
X0213039Y0023221D01*
X0213008Y0023114D01*
X0212973Y0023008D01*
X0212934Y0022903D01*
X0212891Y0022799D01*
X0212845Y0022698D01*
X0212795Y0022598D01*
X0212742Y0022499D01*
X0212685Y0022403D01*
X0212625Y0022309D01*
X0212561Y0022217D01*
X0212495Y0022127D01*
X0212425Y0022040D01*
X0212352Y0021955D01*
X0212276Y0021873D01*
X0212198Y0021793D01*
X0212116Y0021717D01*
X0212032Y0021643D01*
X0211945Y0021572D01*
X0211856Y0021505D01*
X0211765Y0021441D01*
X0211671Y0021380D01*
X0211575Y0021322D01*
X0211477Y0021268D01*
X0211378Y0021217D01*
X0211276Y0021170D01*
X0211173Y0021127D01*
X0211069Y0021087D01*
X0210963Y0021051D01*
X0210856Y0021018D01*
X0210748Y0020990D01*
X0210639Y0020965D01*
X0210529Y0020945D01*
X0210418Y0020928D01*
X0210307Y0020915D01*
X0210196Y0020906D01*
X0210084Y0020901D01*
X0209972Y0020900D01*
X0209860Y0020903D01*
X0209749Y0020910D01*
X0209637Y0020921D01*
X0209527Y0020936D01*
X0209416Y0020955D01*
X0209307Y0020977D01*
X0209198Y0021004D01*
X0209091Y0021034D01*
X0208984Y0021068D01*
X0208879Y0021106D01*
X0208775Y0021148D01*
X0208673Y0021193D01*
X0208572Y0021242D01*
X0208474Y0021294D01*
X0208377Y0021350D01*
X0208282Y0021410D01*
X0208189Y0021472D01*
X0208099Y0021538D01*
X0208011Y0021607D01*
X0207926Y0021679D01*
X0207843Y0021755D01*
X0207763Y0021833D01*
X0207685Y0021913D01*
X0207611Y0021997D01*
X0207540Y0022083D01*
X0207471Y0022171D01*
X0207406Y0022262D01*
X0207345Y0022356D01*
X0207286Y0022451D01*
X0207231Y0022548D01*
X0207180Y0022647D01*
X0207132Y0022748D01*
X0207087Y0022851D01*
X0207046Y0022955D01*
X0207009Y0023061D01*
X0206976Y0023167D01*
X0206947Y0023275D01*
X0206921Y0023384D01*
X0206899Y0023494D01*
X0206882Y0023604D01*
X0206868Y0023715D01*
X0206858Y0023827D01*
X0206852Y0023938D01*
X0206850Y0024050D01*
X0165252Y0022302D02*
X0165252Y0033798D01*
X0151500Y0029550D02*
X0151502Y0029691D01*
X0151508Y0029832D01*
X0151518Y0029972D01*
X0151532Y0030112D01*
X0151550Y0030252D01*
X0151571Y0030391D01*
X0151597Y0030530D01*
X0151626Y0030668D01*
X0151660Y0030804D01*
X0151697Y0030940D01*
X0151738Y0031075D01*
X0151783Y0031209D01*
X0151832Y0031341D01*
X0151884Y0031472D01*
X0151940Y0031601D01*
X0152000Y0031728D01*
X0152063Y0031854D01*
X0152129Y0031978D01*
X0152200Y0032101D01*
X0152273Y0032221D01*
X0152350Y0032339D01*
X0152430Y0032455D01*
X0152514Y0032568D01*
X0152600Y0032679D01*
X0152690Y0032788D01*
X0152783Y0032894D01*
X0152878Y0032997D01*
X0152977Y0033098D01*
X0153078Y0033196D01*
X0153182Y0033291D01*
X0153289Y0033383D01*
X0153398Y0033472D01*
X0153510Y0033557D01*
X0153624Y0033640D01*
X0153740Y0033720D01*
X0153859Y0033796D01*
X0153980Y0033868D01*
X0154102Y0033938D01*
X0154227Y0034003D01*
X0154353Y0034066D01*
X0154481Y0034124D01*
X0154611Y0034179D01*
X0154742Y0034231D01*
X0154875Y0034278D01*
X0155009Y0034322D01*
X0155144Y0034363D01*
X0155280Y0034399D01*
X0155417Y0034431D01*
X0155555Y0034460D01*
X0155693Y0034485D01*
X0155833Y0034505D01*
X0155973Y0034522D01*
X0156113Y0034535D01*
X0156254Y0034544D01*
X0156394Y0034549D01*
X0156535Y0034550D01*
X0156676Y0034547D01*
X0156817Y0034540D01*
X0156957Y0034529D01*
X0157097Y0034514D01*
X0157237Y0034495D01*
X0157376Y0034473D01*
X0157514Y0034446D01*
X0157652Y0034416D01*
X0157788Y0034381D01*
X0157924Y0034343D01*
X0158058Y0034301D01*
X0158192Y0034255D01*
X0158324Y0034206D01*
X0158454Y0034152D01*
X0158583Y0034095D01*
X0158710Y0034035D01*
X0158836Y0033971D01*
X0158959Y0033903D01*
X0159081Y0033832D01*
X0159201Y0033758D01*
X0159318Y0033680D01*
X0159433Y0033599D01*
X0159546Y0033515D01*
X0159657Y0033428D01*
X0159765Y0033337D01*
X0159870Y0033244D01*
X0159973Y0033147D01*
X0160073Y0033048D01*
X0160170Y0032946D01*
X0160264Y0032841D01*
X0160355Y0032734D01*
X0160443Y0032624D01*
X0160528Y0032512D01*
X0160610Y0032397D01*
X0160689Y0032280D01*
X0160764Y0032161D01*
X0160836Y0032040D01*
X0160904Y0031917D01*
X0160969Y0031792D01*
X0161031Y0031665D01*
X0161088Y0031536D01*
X0161143Y0031406D01*
X0161193Y0031275D01*
X0161240Y0031142D01*
X0161283Y0031008D01*
X0161322Y0030872D01*
X0161357Y0030736D01*
X0161389Y0030599D01*
X0161416Y0030461D01*
X0161440Y0030322D01*
X0161460Y0030182D01*
X0161476Y0030042D01*
X0161488Y0029902D01*
X0161496Y0029761D01*
X0161500Y0029620D01*
X0161500Y0029480D01*
X0161496Y0029339D01*
X0161488Y0029198D01*
X0161476Y0029058D01*
X0161460Y0028918D01*
X0161440Y0028778D01*
X0161416Y0028639D01*
X0161389Y0028501D01*
X0161357Y0028364D01*
X0161322Y0028228D01*
X0161283Y0028092D01*
X0161240Y0027958D01*
X0161193Y0027825D01*
X0161143Y0027694D01*
X0161088Y0027564D01*
X0161031Y0027435D01*
X0160969Y0027308D01*
X0160904Y0027183D01*
X0160836Y0027060D01*
X0160764Y0026939D01*
X0160689Y0026820D01*
X0160610Y0026703D01*
X0160528Y0026588D01*
X0160443Y0026476D01*
X0160355Y0026366D01*
X0160264Y0026259D01*
X0160170Y0026154D01*
X0160073Y0026052D01*
X0159973Y0025953D01*
X0159870Y0025856D01*
X0159765Y0025763D01*
X0159657Y0025672D01*
X0159546Y0025585D01*
X0159433Y0025501D01*
X0159318Y0025420D01*
X0159201Y0025342D01*
X0159081Y0025268D01*
X0158959Y0025197D01*
X0158836Y0025129D01*
X0158710Y0025065D01*
X0158583Y0025005D01*
X0158454Y0024948D01*
X0158324Y0024894D01*
X0158192Y0024845D01*
X0158058Y0024799D01*
X0157924Y0024757D01*
X0157788Y0024719D01*
X0157652Y0024684D01*
X0157514Y0024654D01*
X0157376Y0024627D01*
X0157237Y0024605D01*
X0157097Y0024586D01*
X0156957Y0024571D01*
X0156817Y0024560D01*
X0156676Y0024553D01*
X0156535Y0024550D01*
X0156394Y0024551D01*
X0156254Y0024556D01*
X0156113Y0024565D01*
X0155973Y0024578D01*
X0155833Y0024595D01*
X0155693Y0024615D01*
X0155555Y0024640D01*
X0155417Y0024669D01*
X0155280Y0024701D01*
X0155144Y0024737D01*
X0155009Y0024778D01*
X0154875Y0024822D01*
X0154742Y0024869D01*
X0154611Y0024921D01*
X0154481Y0024976D01*
X0154353Y0025034D01*
X0154227Y0025097D01*
X0154102Y0025162D01*
X0153980Y0025232D01*
X0153859Y0025304D01*
X0153740Y0025380D01*
X0153624Y0025460D01*
X0153510Y0025543D01*
X0153398Y0025628D01*
X0153289Y0025717D01*
X0153182Y0025809D01*
X0153078Y0025904D01*
X0152977Y0026002D01*
X0152878Y0026103D01*
X0152783Y0026206D01*
X0152690Y0026312D01*
X0152600Y0026421D01*
X0152514Y0026532D01*
X0152430Y0026645D01*
X0152350Y0026761D01*
X0152273Y0026879D01*
X0152200Y0026999D01*
X0152129Y0027122D01*
X0152063Y0027246D01*
X0152000Y0027372D01*
X0151940Y0027499D01*
X0151884Y0027628D01*
X0151832Y0027759D01*
X0151783Y0027891D01*
X0151738Y0028025D01*
X0151697Y0028160D01*
X0151660Y0028296D01*
X0151626Y0028432D01*
X0151597Y0028570D01*
X0151571Y0028709D01*
X0151550Y0028848D01*
X0151532Y0028988D01*
X0151518Y0029128D01*
X0151508Y0029268D01*
X0151502Y0029409D01*
X0151500Y0029550D01*
X0165252Y0013798D02*
X0165252Y0012144D01*
X0144398Y0044971D02*
X0144398Y0046448D01*
X0142921Y0046448D01*
X0133079Y0046448D02*
X0131602Y0046448D01*
X0131602Y0044971D01*
X0131602Y0087652D02*
X0133079Y0087652D01*
X0131602Y0087652D02*
X0131602Y0089129D01*
X0142921Y0087652D02*
X0144398Y0087652D01*
X0144398Y0089129D01*
X0155500Y0097050D02*
X0155500Y0105050D01*
X0160500Y0105050D01*
X0165500Y0105050D02*
X0170500Y0105050D01*
X0170500Y0097050D01*
X0165500Y0097050D02*
X0160500Y0097050D01*
X0144398Y0098971D02*
X0144398Y0100448D01*
X0142921Y0100448D01*
X0133079Y0100448D02*
X0131602Y0100448D01*
X0131602Y0098971D01*
X0105500Y0117550D02*
X0105502Y0117659D01*
X0105508Y0117768D01*
X0105518Y0117876D01*
X0105532Y0117984D01*
X0105549Y0118092D01*
X0105571Y0118199D01*
X0105596Y0118305D01*
X0105626Y0118409D01*
X0105659Y0118513D01*
X0105696Y0118616D01*
X0105736Y0118717D01*
X0105780Y0118816D01*
X0105828Y0118914D01*
X0105880Y0119011D01*
X0105934Y0119105D01*
X0105992Y0119197D01*
X0106054Y0119287D01*
X0106119Y0119374D01*
X0106186Y0119460D01*
X0106257Y0119543D01*
X0106331Y0119623D01*
X0106408Y0119700D01*
X0106487Y0119775D01*
X0106569Y0119846D01*
X0106654Y0119915D01*
X0106741Y0119980D01*
X0106830Y0120043D01*
X0106922Y0120101D01*
X0107016Y0120157D01*
X0107111Y0120209D01*
X0107209Y0120258D01*
X0107308Y0120303D01*
X0107409Y0120345D01*
X0107511Y0120382D01*
X0107614Y0120416D01*
X0107719Y0120447D01*
X0107825Y0120473D01*
X0107931Y0120496D01*
X0108039Y0120514D01*
X0108147Y0120529D01*
X0108255Y0120540D01*
X0108364Y0120547D01*
X0108473Y0120550D01*
X0108582Y0120549D01*
X0108691Y0120544D01*
X0108799Y0120535D01*
X0108907Y0120522D01*
X0109015Y0120505D01*
X0109122Y0120485D01*
X0109228Y0120460D01*
X0109333Y0120432D01*
X0109437Y0120400D01*
X0109540Y0120364D01*
X0109642Y0120324D01*
X0109742Y0120281D01*
X0109840Y0120234D01*
X0109937Y0120184D01*
X0110031Y0120130D01*
X0110124Y0120072D01*
X0110215Y0120012D01*
X0110303Y0119948D01*
X0110389Y0119881D01*
X0110472Y0119811D01*
X0110553Y0119738D01*
X0110631Y0119662D01*
X0110706Y0119583D01*
X0110779Y0119501D01*
X0110848Y0119417D01*
X0110914Y0119331D01*
X0110977Y0119242D01*
X0111037Y0119151D01*
X0111094Y0119058D01*
X0111147Y0118963D01*
X0111196Y0118866D01*
X0111242Y0118767D01*
X0111284Y0118667D01*
X0111323Y0118565D01*
X0111358Y0118461D01*
X0111389Y0118357D01*
X0111417Y0118252D01*
X0111440Y0118145D01*
X0111460Y0118038D01*
X0111476Y0117930D01*
X0111488Y0117822D01*
X0111496Y0117713D01*
X0111500Y0117604D01*
X0111500Y0117496D01*
X0111496Y0117387D01*
X0111488Y0117278D01*
X0111476Y0117170D01*
X0111460Y0117062D01*
X0111440Y0116955D01*
X0111417Y0116848D01*
X0111389Y0116743D01*
X0111358Y0116639D01*
X0111323Y0116535D01*
X0111284Y0116433D01*
X0111242Y0116333D01*
X0111196Y0116234D01*
X0111147Y0116137D01*
X0111094Y0116042D01*
X0111037Y0115949D01*
X0110977Y0115858D01*
X0110914Y0115769D01*
X0110848Y0115683D01*
X0110779Y0115599D01*
X0110706Y0115517D01*
X0110631Y0115438D01*
X0110553Y0115362D01*
X0110472Y0115289D01*
X0110389Y0115219D01*
X0110303Y0115152D01*
X0110215Y0115088D01*
X0110124Y0115028D01*
X0110031Y0114970D01*
X0109937Y0114916D01*
X0109840Y0114866D01*
X0109742Y0114819D01*
X0109642Y0114776D01*
X0109540Y0114736D01*
X0109437Y0114700D01*
X0109333Y0114668D01*
X0109228Y0114640D01*
X0109122Y0114615D01*
X0109015Y0114595D01*
X0108907Y0114578D01*
X0108799Y0114565D01*
X0108691Y0114556D01*
X0108582Y0114551D01*
X0108473Y0114550D01*
X0108364Y0114553D01*
X0108255Y0114560D01*
X0108147Y0114571D01*
X0108039Y0114586D01*
X0107931Y0114604D01*
X0107825Y0114627D01*
X0107719Y0114653D01*
X0107614Y0114684D01*
X0107511Y0114718D01*
X0107409Y0114755D01*
X0107308Y0114797D01*
X0107209Y0114842D01*
X0107111Y0114891D01*
X0107016Y0114943D01*
X0106922Y0114999D01*
X0106830Y0115057D01*
X0106741Y0115120D01*
X0106654Y0115185D01*
X0106569Y0115254D01*
X0106487Y0115325D01*
X0106408Y0115400D01*
X0106331Y0115477D01*
X0106257Y0115557D01*
X0106186Y0115640D01*
X0106119Y0115726D01*
X0106054Y0115813D01*
X0105992Y0115903D01*
X0105934Y0115995D01*
X0105880Y0116089D01*
X0105828Y0116186D01*
X0105780Y0116284D01*
X0105736Y0116383D01*
X0105696Y0116484D01*
X0105659Y0116587D01*
X0105626Y0116691D01*
X0105596Y0116795D01*
X0105571Y0116901D01*
X0105549Y0117008D01*
X0105532Y0117116D01*
X0105518Y0117224D01*
X0105508Y0117332D01*
X0105502Y0117441D01*
X0105500Y0117550D01*
X0120000Y0121050D02*
X0120002Y0121159D01*
X0120008Y0121268D01*
X0120018Y0121376D01*
X0120032Y0121484D01*
X0120049Y0121592D01*
X0120071Y0121699D01*
X0120096Y0121805D01*
X0120126Y0121909D01*
X0120159Y0122013D01*
X0120196Y0122116D01*
X0120236Y0122217D01*
X0120280Y0122316D01*
X0120328Y0122414D01*
X0120380Y0122511D01*
X0120434Y0122605D01*
X0120492Y0122697D01*
X0120554Y0122787D01*
X0120619Y0122874D01*
X0120686Y0122960D01*
X0120757Y0123043D01*
X0120831Y0123123D01*
X0120908Y0123200D01*
X0120987Y0123275D01*
X0121069Y0123346D01*
X0121154Y0123415D01*
X0121241Y0123480D01*
X0121330Y0123543D01*
X0121422Y0123601D01*
X0121516Y0123657D01*
X0121611Y0123709D01*
X0121709Y0123758D01*
X0121808Y0123803D01*
X0121909Y0123845D01*
X0122011Y0123882D01*
X0122114Y0123916D01*
X0122219Y0123947D01*
X0122325Y0123973D01*
X0122431Y0123996D01*
X0122539Y0124014D01*
X0122647Y0124029D01*
X0122755Y0124040D01*
X0122864Y0124047D01*
X0122973Y0124050D01*
X0123082Y0124049D01*
X0123191Y0124044D01*
X0123299Y0124035D01*
X0123407Y0124022D01*
X0123515Y0124005D01*
X0123622Y0123985D01*
X0123728Y0123960D01*
X0123833Y0123932D01*
X0123937Y0123900D01*
X0124040Y0123864D01*
X0124142Y0123824D01*
X0124242Y0123781D01*
X0124340Y0123734D01*
X0124437Y0123684D01*
X0124531Y0123630D01*
X0124624Y0123572D01*
X0124715Y0123512D01*
X0124803Y0123448D01*
X0124889Y0123381D01*
X0124972Y0123311D01*
X0125053Y0123238D01*
X0125131Y0123162D01*
X0125206Y0123083D01*
X0125279Y0123001D01*
X0125348Y0122917D01*
X0125414Y0122831D01*
X0125477Y0122742D01*
X0125537Y0122651D01*
X0125594Y0122558D01*
X0125647Y0122463D01*
X0125696Y0122366D01*
X0125742Y0122267D01*
X0125784Y0122167D01*
X0125823Y0122065D01*
X0125858Y0121961D01*
X0125889Y0121857D01*
X0125917Y0121752D01*
X0125940Y0121645D01*
X0125960Y0121538D01*
X0125976Y0121430D01*
X0125988Y0121322D01*
X0125996Y0121213D01*
X0126000Y0121104D01*
X0126000Y0120996D01*
X0125996Y0120887D01*
X0125988Y0120778D01*
X0125976Y0120670D01*
X0125960Y0120562D01*
X0125940Y0120455D01*
X0125917Y0120348D01*
X0125889Y0120243D01*
X0125858Y0120139D01*
X0125823Y0120035D01*
X0125784Y0119933D01*
X0125742Y0119833D01*
X0125696Y0119734D01*
X0125647Y0119637D01*
X0125594Y0119542D01*
X0125537Y0119449D01*
X0125477Y0119358D01*
X0125414Y0119269D01*
X0125348Y0119183D01*
X0125279Y0119099D01*
X0125206Y0119017D01*
X0125131Y0118938D01*
X0125053Y0118862D01*
X0124972Y0118789D01*
X0124889Y0118719D01*
X0124803Y0118652D01*
X0124715Y0118588D01*
X0124624Y0118528D01*
X0124531Y0118470D01*
X0124437Y0118416D01*
X0124340Y0118366D01*
X0124242Y0118319D01*
X0124142Y0118276D01*
X0124040Y0118236D01*
X0123937Y0118200D01*
X0123833Y0118168D01*
X0123728Y0118140D01*
X0123622Y0118115D01*
X0123515Y0118095D01*
X0123407Y0118078D01*
X0123299Y0118065D01*
X0123191Y0118056D01*
X0123082Y0118051D01*
X0122973Y0118050D01*
X0122864Y0118053D01*
X0122755Y0118060D01*
X0122647Y0118071D01*
X0122539Y0118086D01*
X0122431Y0118104D01*
X0122325Y0118127D01*
X0122219Y0118153D01*
X0122114Y0118184D01*
X0122011Y0118218D01*
X0121909Y0118255D01*
X0121808Y0118297D01*
X0121709Y0118342D01*
X0121611Y0118391D01*
X0121516Y0118443D01*
X0121422Y0118499D01*
X0121330Y0118557D01*
X0121241Y0118620D01*
X0121154Y0118685D01*
X0121069Y0118754D01*
X0120987Y0118825D01*
X0120908Y0118900D01*
X0120831Y0118977D01*
X0120757Y0119057D01*
X0120686Y0119140D01*
X0120619Y0119226D01*
X0120554Y0119313D01*
X0120492Y0119403D01*
X0120434Y0119495D01*
X0120380Y0119589D01*
X0120328Y0119686D01*
X0120280Y0119784D01*
X0120236Y0119883D01*
X0120196Y0119984D01*
X0120159Y0120087D01*
X0120126Y0120191D01*
X0120096Y0120295D01*
X0120071Y0120401D01*
X0120049Y0120508D01*
X0120032Y0120616D01*
X0120018Y0120724D01*
X0120008Y0120832D01*
X0120002Y0120941D01*
X0120000Y0121050D01*
X0125800Y0125151D02*
X0127535Y0125151D01*
X0128747Y0125585D02*
X0129614Y0126452D01*
X0129614Y0123850D01*
X0128747Y0123850D02*
X0130481Y0123850D01*
X0131693Y0123850D02*
X0132127Y0123850D01*
X0132127Y0124284D01*
X0131693Y0124284D01*
X0131693Y0123850D01*
X0133166Y0123850D02*
X0134901Y0125585D01*
X0134901Y0126019D01*
X0134467Y0126452D01*
X0133600Y0126452D01*
X0133166Y0126019D01*
X0133166Y0123850D02*
X0134901Y0123850D01*
X0136113Y0124717D02*
X0136980Y0123850D01*
X0137848Y0124717D01*
X0137848Y0126452D01*
X0136113Y0126452D02*
X0136113Y0124717D01*
X0152500Y0121050D02*
X0152502Y0121159D01*
X0152508Y0121268D01*
X0152518Y0121376D01*
X0152532Y0121484D01*
X0152549Y0121592D01*
X0152571Y0121699D01*
X0152596Y0121805D01*
X0152626Y0121909D01*
X0152659Y0122013D01*
X0152696Y0122116D01*
X0152736Y0122217D01*
X0152780Y0122316D01*
X0152828Y0122414D01*
X0152880Y0122511D01*
X0152934Y0122605D01*
X0152992Y0122697D01*
X0153054Y0122787D01*
X0153119Y0122874D01*
X0153186Y0122960D01*
X0153257Y0123043D01*
X0153331Y0123123D01*
X0153408Y0123200D01*
X0153487Y0123275D01*
X0153569Y0123346D01*
X0153654Y0123415D01*
X0153741Y0123480D01*
X0153830Y0123543D01*
X0153922Y0123601D01*
X0154016Y0123657D01*
X0154111Y0123709D01*
X0154209Y0123758D01*
X0154308Y0123803D01*
X0154409Y0123845D01*
X0154511Y0123882D01*
X0154614Y0123916D01*
X0154719Y0123947D01*
X0154825Y0123973D01*
X0154931Y0123996D01*
X0155039Y0124014D01*
X0155147Y0124029D01*
X0155255Y0124040D01*
X0155364Y0124047D01*
X0155473Y0124050D01*
X0155582Y0124049D01*
X0155691Y0124044D01*
X0155799Y0124035D01*
X0155907Y0124022D01*
X0156015Y0124005D01*
X0156122Y0123985D01*
X0156228Y0123960D01*
X0156333Y0123932D01*
X0156437Y0123900D01*
X0156540Y0123864D01*
X0156642Y0123824D01*
X0156742Y0123781D01*
X0156840Y0123734D01*
X0156937Y0123684D01*
X0157031Y0123630D01*
X0157124Y0123572D01*
X0157215Y0123512D01*
X0157303Y0123448D01*
X0157389Y0123381D01*
X0157472Y0123311D01*
X0157553Y0123238D01*
X0157631Y0123162D01*
X0157706Y0123083D01*
X0157779Y0123001D01*
X0157848Y0122917D01*
X0157914Y0122831D01*
X0157977Y0122742D01*
X0158037Y0122651D01*
X0158094Y0122558D01*
X0158147Y0122463D01*
X0158196Y0122366D01*
X0158242Y0122267D01*
X0158284Y0122167D01*
X0158323Y0122065D01*
X0158358Y0121961D01*
X0158389Y0121857D01*
X0158417Y0121752D01*
X0158440Y0121645D01*
X0158460Y0121538D01*
X0158476Y0121430D01*
X0158488Y0121322D01*
X0158496Y0121213D01*
X0158500Y0121104D01*
X0158500Y0120996D01*
X0158496Y0120887D01*
X0158488Y0120778D01*
X0158476Y0120670D01*
X0158460Y0120562D01*
X0158440Y0120455D01*
X0158417Y0120348D01*
X0158389Y0120243D01*
X0158358Y0120139D01*
X0158323Y0120035D01*
X0158284Y0119933D01*
X0158242Y0119833D01*
X0158196Y0119734D01*
X0158147Y0119637D01*
X0158094Y0119542D01*
X0158037Y0119449D01*
X0157977Y0119358D01*
X0157914Y0119269D01*
X0157848Y0119183D01*
X0157779Y0119099D01*
X0157706Y0119017D01*
X0157631Y0118938D01*
X0157553Y0118862D01*
X0157472Y0118789D01*
X0157389Y0118719D01*
X0157303Y0118652D01*
X0157215Y0118588D01*
X0157124Y0118528D01*
X0157031Y0118470D01*
X0156937Y0118416D01*
X0156840Y0118366D01*
X0156742Y0118319D01*
X0156642Y0118276D01*
X0156540Y0118236D01*
X0156437Y0118200D01*
X0156333Y0118168D01*
X0156228Y0118140D01*
X0156122Y0118115D01*
X0156015Y0118095D01*
X0155907Y0118078D01*
X0155799Y0118065D01*
X0155691Y0118056D01*
X0155582Y0118051D01*
X0155473Y0118050D01*
X0155364Y0118053D01*
X0155255Y0118060D01*
X0155147Y0118071D01*
X0155039Y0118086D01*
X0154931Y0118104D01*
X0154825Y0118127D01*
X0154719Y0118153D01*
X0154614Y0118184D01*
X0154511Y0118218D01*
X0154409Y0118255D01*
X0154308Y0118297D01*
X0154209Y0118342D01*
X0154111Y0118391D01*
X0154016Y0118443D01*
X0153922Y0118499D01*
X0153830Y0118557D01*
X0153741Y0118620D01*
X0153654Y0118685D01*
X0153569Y0118754D01*
X0153487Y0118825D01*
X0153408Y0118900D01*
X0153331Y0118977D01*
X0153257Y0119057D01*
X0153186Y0119140D01*
X0153119Y0119226D01*
X0153054Y0119313D01*
X0152992Y0119403D01*
X0152934Y0119495D01*
X0152880Y0119589D01*
X0152828Y0119686D01*
X0152780Y0119784D01*
X0152736Y0119883D01*
X0152696Y0119984D01*
X0152659Y0120087D01*
X0152626Y0120191D01*
X0152596Y0120295D01*
X0152571Y0120401D01*
X0152549Y0120508D01*
X0152532Y0120616D01*
X0152518Y0120724D01*
X0152508Y0120832D01*
X0152502Y0120941D01*
X0152500Y0121050D01*
X0158800Y0124284D02*
X0159234Y0123850D01*
X0160101Y0123850D01*
X0160535Y0124284D01*
X0160535Y0124717D01*
X0160101Y0125151D01*
X0159667Y0125151D01*
X0160101Y0125151D02*
X0160535Y0125585D01*
X0160535Y0126019D01*
X0160101Y0126452D01*
X0159234Y0126452D01*
X0158800Y0126019D01*
X0161747Y0124284D02*
X0162180Y0124284D01*
X0162180Y0123850D01*
X0161747Y0123850D01*
X0161747Y0124284D01*
X0163220Y0124284D02*
X0163653Y0123850D01*
X0164521Y0123850D01*
X0164955Y0124284D01*
X0164955Y0124717D01*
X0164521Y0125151D01*
X0164087Y0125151D01*
X0164521Y0125151D02*
X0164955Y0125585D01*
X0164955Y0126019D01*
X0164521Y0126452D01*
X0163653Y0126452D01*
X0163220Y0126019D01*
X0166166Y0126452D02*
X0166166Y0124717D01*
X0167034Y0123850D01*
X0167901Y0124717D01*
X0167901Y0126452D01*
X0187500Y0121050D02*
X0187502Y0121159D01*
X0187508Y0121268D01*
X0187518Y0121376D01*
X0187532Y0121484D01*
X0187549Y0121592D01*
X0187571Y0121699D01*
X0187596Y0121805D01*
X0187626Y0121909D01*
X0187659Y0122013D01*
X0187696Y0122116D01*
X0187736Y0122217D01*
X0187780Y0122316D01*
X0187828Y0122414D01*
X0187880Y0122511D01*
X0187934Y0122605D01*
X0187992Y0122697D01*
X0188054Y0122787D01*
X0188119Y0122874D01*
X0188186Y0122960D01*
X0188257Y0123043D01*
X0188331Y0123123D01*
X0188408Y0123200D01*
X0188487Y0123275D01*
X0188569Y0123346D01*
X0188654Y0123415D01*
X0188741Y0123480D01*
X0188830Y0123543D01*
X0188922Y0123601D01*
X0189016Y0123657D01*
X0189111Y0123709D01*
X0189209Y0123758D01*
X0189308Y0123803D01*
X0189409Y0123845D01*
X0189511Y0123882D01*
X0189614Y0123916D01*
X0189719Y0123947D01*
X0189825Y0123973D01*
X0189931Y0123996D01*
X0190039Y0124014D01*
X0190147Y0124029D01*
X0190255Y0124040D01*
X0190364Y0124047D01*
X0190473Y0124050D01*
X0190582Y0124049D01*
X0190691Y0124044D01*
X0190799Y0124035D01*
X0190907Y0124022D01*
X0191015Y0124005D01*
X0191122Y0123985D01*
X0191228Y0123960D01*
X0191333Y0123932D01*
X0191437Y0123900D01*
X0191540Y0123864D01*
X0191642Y0123824D01*
X0191742Y0123781D01*
X0191840Y0123734D01*
X0191937Y0123684D01*
X0192031Y0123630D01*
X0192124Y0123572D01*
X0192215Y0123512D01*
X0192303Y0123448D01*
X0192389Y0123381D01*
X0192472Y0123311D01*
X0192553Y0123238D01*
X0192631Y0123162D01*
X0192706Y0123083D01*
X0192779Y0123001D01*
X0192848Y0122917D01*
X0192914Y0122831D01*
X0192977Y0122742D01*
X0193037Y0122651D01*
X0193094Y0122558D01*
X0193147Y0122463D01*
X0193196Y0122366D01*
X0193242Y0122267D01*
X0193284Y0122167D01*
X0193323Y0122065D01*
X0193358Y0121961D01*
X0193389Y0121857D01*
X0193417Y0121752D01*
X0193440Y0121645D01*
X0193460Y0121538D01*
X0193476Y0121430D01*
X0193488Y0121322D01*
X0193496Y0121213D01*
X0193500Y0121104D01*
X0193500Y0120996D01*
X0193496Y0120887D01*
X0193488Y0120778D01*
X0193476Y0120670D01*
X0193460Y0120562D01*
X0193440Y0120455D01*
X0193417Y0120348D01*
X0193389Y0120243D01*
X0193358Y0120139D01*
X0193323Y0120035D01*
X0193284Y0119933D01*
X0193242Y0119833D01*
X0193196Y0119734D01*
X0193147Y0119637D01*
X0193094Y0119542D01*
X0193037Y0119449D01*
X0192977Y0119358D01*
X0192914Y0119269D01*
X0192848Y0119183D01*
X0192779Y0119099D01*
X0192706Y0119017D01*
X0192631Y0118938D01*
X0192553Y0118862D01*
X0192472Y0118789D01*
X0192389Y0118719D01*
X0192303Y0118652D01*
X0192215Y0118588D01*
X0192124Y0118528D01*
X0192031Y0118470D01*
X0191937Y0118416D01*
X0191840Y0118366D01*
X0191742Y0118319D01*
X0191642Y0118276D01*
X0191540Y0118236D01*
X0191437Y0118200D01*
X0191333Y0118168D01*
X0191228Y0118140D01*
X0191122Y0118115D01*
X0191015Y0118095D01*
X0190907Y0118078D01*
X0190799Y0118065D01*
X0190691Y0118056D01*
X0190582Y0118051D01*
X0190473Y0118050D01*
X0190364Y0118053D01*
X0190255Y0118060D01*
X0190147Y0118071D01*
X0190039Y0118086D01*
X0189931Y0118104D01*
X0189825Y0118127D01*
X0189719Y0118153D01*
X0189614Y0118184D01*
X0189511Y0118218D01*
X0189409Y0118255D01*
X0189308Y0118297D01*
X0189209Y0118342D01*
X0189111Y0118391D01*
X0189016Y0118443D01*
X0188922Y0118499D01*
X0188830Y0118557D01*
X0188741Y0118620D01*
X0188654Y0118685D01*
X0188569Y0118754D01*
X0188487Y0118825D01*
X0188408Y0118900D01*
X0188331Y0118977D01*
X0188257Y0119057D01*
X0188186Y0119140D01*
X0188119Y0119226D01*
X0188054Y0119313D01*
X0187992Y0119403D01*
X0187934Y0119495D01*
X0187880Y0119589D01*
X0187828Y0119686D01*
X0187780Y0119784D01*
X0187736Y0119883D01*
X0187696Y0119984D01*
X0187659Y0120087D01*
X0187626Y0120191D01*
X0187596Y0120295D01*
X0187571Y0120401D01*
X0187549Y0120508D01*
X0187532Y0120616D01*
X0187518Y0120724D01*
X0187508Y0120832D01*
X0187502Y0120941D01*
X0187500Y0121050D01*
X0193800Y0124284D02*
X0194234Y0123850D01*
X0195101Y0123850D01*
X0195535Y0124284D01*
X0195535Y0124717D01*
X0195101Y0125151D01*
X0194667Y0125151D01*
X0195101Y0125151D02*
X0195535Y0125585D01*
X0195535Y0126019D01*
X0195101Y0126452D01*
X0194234Y0126452D01*
X0193800Y0126019D01*
X0196747Y0124284D02*
X0197180Y0124284D01*
X0197180Y0123850D01*
X0196747Y0123850D01*
X0196747Y0124284D01*
X0198220Y0124284D02*
X0198653Y0123850D01*
X0199521Y0123850D01*
X0199955Y0124284D01*
X0199955Y0124717D01*
X0199521Y0125151D01*
X0199087Y0125151D01*
X0199521Y0125151D02*
X0199955Y0125585D01*
X0199955Y0126019D01*
X0199521Y0126452D01*
X0198653Y0126452D01*
X0198220Y0126019D01*
X0201166Y0126452D02*
X0201166Y0124717D01*
X0202034Y0123850D01*
X0202901Y0124717D01*
X0202901Y0126452D01*
X0200481Y0116952D02*
X0200481Y0115217D01*
X0199614Y0114350D01*
X0198747Y0115217D01*
X0198747Y0116952D01*
X0197535Y0116952D02*
X0195800Y0116952D01*
X0195800Y0115651D01*
X0196667Y0116085D01*
X0197101Y0116085D01*
X0197535Y0115651D01*
X0197535Y0114784D01*
X0197101Y0114350D01*
X0196234Y0114350D01*
X0195800Y0114784D01*
X0194000Y0110050D02*
X0194002Y0110159D01*
X0194008Y0110268D01*
X0194018Y0110376D01*
X0194032Y0110484D01*
X0194049Y0110592D01*
X0194071Y0110699D01*
X0194096Y0110805D01*
X0194126Y0110909D01*
X0194159Y0111013D01*
X0194196Y0111116D01*
X0194236Y0111217D01*
X0194280Y0111316D01*
X0194328Y0111414D01*
X0194380Y0111511D01*
X0194434Y0111605D01*
X0194492Y0111697D01*
X0194554Y0111787D01*
X0194619Y0111874D01*
X0194686Y0111960D01*
X0194757Y0112043D01*
X0194831Y0112123D01*
X0194908Y0112200D01*
X0194987Y0112275D01*
X0195069Y0112346D01*
X0195154Y0112415D01*
X0195241Y0112480D01*
X0195330Y0112543D01*
X0195422Y0112601D01*
X0195516Y0112657D01*
X0195611Y0112709D01*
X0195709Y0112758D01*
X0195808Y0112803D01*
X0195909Y0112845D01*
X0196011Y0112882D01*
X0196114Y0112916D01*
X0196219Y0112947D01*
X0196325Y0112973D01*
X0196431Y0112996D01*
X0196539Y0113014D01*
X0196647Y0113029D01*
X0196755Y0113040D01*
X0196864Y0113047D01*
X0196973Y0113050D01*
X0197082Y0113049D01*
X0197191Y0113044D01*
X0197299Y0113035D01*
X0197407Y0113022D01*
X0197515Y0113005D01*
X0197622Y0112985D01*
X0197728Y0112960D01*
X0197833Y0112932D01*
X0197937Y0112900D01*
X0198040Y0112864D01*
X0198142Y0112824D01*
X0198242Y0112781D01*
X0198340Y0112734D01*
X0198437Y0112684D01*
X0198531Y0112630D01*
X0198624Y0112572D01*
X0198715Y0112512D01*
X0198803Y0112448D01*
X0198889Y0112381D01*
X0198972Y0112311D01*
X0199053Y0112238D01*
X0199131Y0112162D01*
X0199206Y0112083D01*
X0199279Y0112001D01*
X0199348Y0111917D01*
X0199414Y0111831D01*
X0199477Y0111742D01*
X0199537Y0111651D01*
X0199594Y0111558D01*
X0199647Y0111463D01*
X0199696Y0111366D01*
X0199742Y0111267D01*
X0199784Y0111167D01*
X0199823Y0111065D01*
X0199858Y0110961D01*
X0199889Y0110857D01*
X0199917Y0110752D01*
X0199940Y0110645D01*
X0199960Y0110538D01*
X0199976Y0110430D01*
X0199988Y0110322D01*
X0199996Y0110213D01*
X0200000Y0110104D01*
X0200000Y0109996D01*
X0199996Y0109887D01*
X0199988Y0109778D01*
X0199976Y0109670D01*
X0199960Y0109562D01*
X0199940Y0109455D01*
X0199917Y0109348D01*
X0199889Y0109243D01*
X0199858Y0109139D01*
X0199823Y0109035D01*
X0199784Y0108933D01*
X0199742Y0108833D01*
X0199696Y0108734D01*
X0199647Y0108637D01*
X0199594Y0108542D01*
X0199537Y0108449D01*
X0199477Y0108358D01*
X0199414Y0108269D01*
X0199348Y0108183D01*
X0199279Y0108099D01*
X0199206Y0108017D01*
X0199131Y0107938D01*
X0199053Y0107862D01*
X0198972Y0107789D01*
X0198889Y0107719D01*
X0198803Y0107652D01*
X0198715Y0107588D01*
X0198624Y0107528D01*
X0198531Y0107470D01*
X0198437Y0107416D01*
X0198340Y0107366D01*
X0198242Y0107319D01*
X0198142Y0107276D01*
X0198040Y0107236D01*
X0197937Y0107200D01*
X0197833Y0107168D01*
X0197728Y0107140D01*
X0197622Y0107115D01*
X0197515Y0107095D01*
X0197407Y0107078D01*
X0197299Y0107065D01*
X0197191Y0107056D01*
X0197082Y0107051D01*
X0196973Y0107050D01*
X0196864Y0107053D01*
X0196755Y0107060D01*
X0196647Y0107071D01*
X0196539Y0107086D01*
X0196431Y0107104D01*
X0196325Y0107127D01*
X0196219Y0107153D01*
X0196114Y0107184D01*
X0196011Y0107218D01*
X0195909Y0107255D01*
X0195808Y0107297D01*
X0195709Y0107342D01*
X0195611Y0107391D01*
X0195516Y0107443D01*
X0195422Y0107499D01*
X0195330Y0107557D01*
X0195241Y0107620D01*
X0195154Y0107685D01*
X0195069Y0107754D01*
X0194987Y0107825D01*
X0194908Y0107900D01*
X0194831Y0107977D01*
X0194757Y0108057D01*
X0194686Y0108140D01*
X0194619Y0108226D01*
X0194554Y0108313D01*
X0194492Y0108403D01*
X0194434Y0108495D01*
X0194380Y0108589D01*
X0194328Y0108686D01*
X0194280Y0108784D01*
X0194236Y0108883D01*
X0194196Y0108984D01*
X0194159Y0109087D01*
X0194126Y0109191D01*
X0194096Y0109295D01*
X0194071Y0109401D01*
X0194049Y0109508D01*
X0194032Y0109616D01*
X0194018Y0109724D01*
X0194008Y0109832D01*
X0194002Y0109941D01*
X0194000Y0110050D01*
D11*
X0186000Y0105550D02*
X0184000Y0105550D01*
X0183723Y0107599D02*
X0183723Y0109601D01*
X0183056Y0108934D01*
X0182088Y0109601D02*
X0180754Y0107599D01*
X0182088Y0107599D02*
X0180754Y0109601D01*
X0183056Y0107599D02*
X0184390Y0107599D01*
X0173984Y0107753D02*
X0173984Y0108421D01*
X0173651Y0108754D01*
X0173317Y0108754D01*
X0172983Y0108421D01*
X0172983Y0107420D01*
X0173651Y0107420D01*
X0173984Y0107753D01*
X0172983Y0107420D02*
X0172316Y0108087D01*
X0171983Y0108754D01*
X0172316Y0106452D02*
X0172650Y0106452D01*
X0172983Y0106119D01*
X0172983Y0105451D01*
X0172650Y0105118D01*
X0172316Y0105118D01*
X0171983Y0105451D01*
X0171983Y0106119D01*
X0172316Y0106452D01*
X0172983Y0106119D02*
X0173317Y0106452D01*
X0173651Y0106452D01*
X0173984Y0106119D01*
X0173984Y0105451D01*
X0173651Y0105118D01*
X0173317Y0105118D01*
X0172983Y0105451D01*
X0172316Y0104150D02*
X0171983Y0103817D01*
X0171983Y0103149D01*
X0172316Y0102816D01*
X0173651Y0102816D01*
X0173984Y0103149D01*
X0173984Y0103817D01*
X0173651Y0104150D01*
X0172983Y0099754D02*
X0172983Y0098420D01*
X0171983Y0099421D01*
X0173984Y0099421D01*
X0173651Y0097452D02*
X0173317Y0097452D01*
X0172983Y0097119D01*
X0172983Y0096118D01*
X0173651Y0096118D01*
X0173984Y0096451D01*
X0173984Y0097119D01*
X0173651Y0097452D01*
X0172983Y0096118D02*
X0172316Y0096785D01*
X0171983Y0097452D01*
X0172316Y0095150D02*
X0172983Y0095150D01*
X0173317Y0094817D01*
X0173317Y0093816D01*
X0173317Y0094483D02*
X0173984Y0095150D01*
X0173984Y0093816D02*
X0171983Y0093816D01*
X0171983Y0094817D01*
X0172316Y0095150D01*
X0173297Y0089494D02*
X0174241Y0089494D01*
X0172825Y0088078D01*
X0172354Y0088550D02*
X0173297Y0087606D01*
X0173981Y0086922D02*
X0174217Y0086686D01*
X0174453Y0086922D01*
X0174217Y0087158D01*
X0173981Y0086922D01*
X0174795Y0086108D02*
X0175739Y0085165D01*
X0175267Y0085637D02*
X0176682Y0087052D01*
X0175739Y0087052D01*
X0177838Y0085896D02*
X0176895Y0084952D01*
X0176895Y0084009D01*
X0177838Y0084009D01*
X0178782Y0084952D01*
X0172189Y0081223D02*
X0169827Y0081223D01*
X0169827Y0078861D01*
X0167215Y0078551D02*
X0167215Y0077216D01*
X0167215Y0077883D02*
X0165213Y0077883D01*
X0165880Y0077216D01*
X0165213Y0076249D02*
X0166881Y0076249D01*
X0167215Y0075915D01*
X0167215Y0075248D01*
X0166881Y0074914D01*
X0165213Y0074914D01*
X0165546Y0079518D02*
X0165213Y0079852D01*
X0165213Y0080519D01*
X0165546Y0080853D01*
X0166881Y0079518D01*
X0167215Y0079852D01*
X0167215Y0080519D01*
X0166881Y0080853D01*
X0165546Y0080853D01*
X0165546Y0079518D02*
X0166881Y0079518D01*
X0161700Y0084568D02*
X0160757Y0084568D01*
X0160757Y0083625D01*
X0159341Y0085040D01*
X0158893Y0084120D02*
X0158421Y0084120D01*
X0157950Y0083648D01*
X0157950Y0083177D01*
X0158185Y0082941D01*
X0158657Y0082941D01*
X0159129Y0083413D01*
X0159601Y0083413D01*
X0159837Y0083177D01*
X0159837Y0082705D01*
X0159365Y0082233D01*
X0158893Y0082233D01*
X0161700Y0084568D02*
X0160285Y0085984D01*
X0161205Y0086432D02*
X0162149Y0085488D01*
X0162620Y0085488D01*
X0163092Y0085960D01*
X0163092Y0086432D01*
X0164012Y0086880D02*
X0162597Y0088296D01*
X0162149Y0087376D02*
X0161677Y0087376D01*
X0161205Y0086904D01*
X0161205Y0086432D01*
X0158876Y0088744D02*
X0158404Y0088744D01*
X0157460Y0089687D01*
X0157460Y0090159D01*
X0157932Y0090631D01*
X0158404Y0090631D01*
X0159348Y0089687D01*
X0159348Y0089216D01*
X0158876Y0088744D01*
X0158027Y0087895D02*
X0157555Y0087423D01*
X0157791Y0087659D02*
X0156375Y0089074D01*
X0156139Y0088838D02*
X0156611Y0089310D01*
X0155691Y0087918D02*
X0155219Y0087918D01*
X0154512Y0087211D01*
X0155927Y0085795D01*
X0156635Y0086503D01*
X0156635Y0086975D01*
X0155691Y0087918D01*
X0153828Y0086526D02*
X0155243Y0085111D01*
X0154299Y0085111D01*
X0154299Y0084167D01*
X0152884Y0085583D01*
X0152436Y0084663D02*
X0151964Y0084663D01*
X0151492Y0084191D01*
X0151492Y0083719D01*
X0151728Y0083483D01*
X0152200Y0083483D01*
X0152672Y0083955D01*
X0153143Y0083955D01*
X0153379Y0083719D01*
X0153379Y0083247D01*
X0152908Y0082776D01*
X0152436Y0082776D01*
X0147484Y0082785D02*
X0145483Y0082785D01*
X0146150Y0082118D01*
X0146483Y0081150D02*
X0146817Y0080817D01*
X0146817Y0079816D01*
X0146817Y0080483D02*
X0147484Y0081150D01*
X0147484Y0082118D02*
X0147484Y0083452D01*
X0146483Y0084420D02*
X0146483Y0085754D01*
X0145483Y0085421D02*
X0146483Y0084420D01*
X0145483Y0085421D02*
X0147484Y0085421D01*
X0146483Y0081150D02*
X0145816Y0081150D01*
X0145483Y0080817D01*
X0145483Y0079816D01*
X0147484Y0079816D01*
X0143182Y0073817D02*
X0143516Y0073483D01*
X0143516Y0072816D01*
X0143182Y0072482D01*
X0142515Y0073150D02*
X0142515Y0073483D01*
X0142849Y0073817D01*
X0143182Y0073817D01*
X0142515Y0073483D02*
X0142181Y0073817D01*
X0141848Y0073817D01*
X0141514Y0073483D01*
X0141514Y0072816D01*
X0141848Y0072482D01*
X0141514Y0070848D02*
X0143516Y0070848D01*
X0143516Y0071515D02*
X0143516Y0070180D01*
X0143516Y0069213D02*
X0142849Y0068546D01*
X0142849Y0068879D02*
X0142849Y0067878D01*
X0143516Y0067878D02*
X0141514Y0067878D01*
X0141514Y0068879D01*
X0141848Y0069213D01*
X0142515Y0069213D01*
X0142849Y0068879D01*
X0142181Y0070180D02*
X0141514Y0070848D01*
X0139516Y0070848D02*
X0137514Y0070848D01*
X0138181Y0070180D01*
X0137848Y0069213D02*
X0137514Y0068879D01*
X0137514Y0068212D01*
X0137848Y0067878D01*
X0139182Y0067878D01*
X0139516Y0068212D01*
X0139516Y0068879D01*
X0139182Y0069213D01*
X0139516Y0070180D02*
X0139516Y0071515D01*
X0139516Y0072482D02*
X0138181Y0073817D01*
X0137848Y0073817D01*
X0137514Y0073483D01*
X0137514Y0072816D01*
X0137848Y0072482D01*
X0139516Y0072482D02*
X0139516Y0073817D01*
X0127782Y0075895D02*
X0127310Y0075424D01*
X0126838Y0075424D01*
X0126838Y0076367D02*
X0127074Y0076603D01*
X0127546Y0076603D01*
X0127782Y0076367D01*
X0127782Y0075895D01*
X0127074Y0076603D02*
X0127074Y0077075D01*
X0126838Y0077311D01*
X0126366Y0077311D01*
X0125895Y0076839D01*
X0125895Y0076367D01*
X0124503Y0075447D02*
X0125918Y0074032D01*
X0125446Y0073560D02*
X0126390Y0074504D01*
X0124503Y0074504D02*
X0124503Y0075447D01*
X0123583Y0074055D02*
X0123111Y0074055D01*
X0122639Y0073584D01*
X0122639Y0073112D01*
X0123583Y0072168D01*
X0124055Y0072168D01*
X0124526Y0072640D01*
X0124526Y0073112D01*
X0122625Y0070302D02*
X0122625Y0068300D01*
X0121958Y0068300D02*
X0123292Y0068300D01*
X0122959Y0066802D02*
X0121958Y0065801D01*
X0123292Y0065801D01*
X0122959Y0064800D02*
X0122959Y0066802D01*
X0120990Y0066134D02*
X0120990Y0064800D01*
X0120990Y0065801D02*
X0119656Y0065801D01*
X0119656Y0066134D02*
X0120323Y0066802D01*
X0120990Y0066134D01*
X0119656Y0066134D02*
X0119656Y0064800D01*
X0118688Y0064800D02*
X0118688Y0065801D01*
X0118355Y0066134D01*
X0118021Y0065801D01*
X0118021Y0064800D01*
X0117354Y0064800D02*
X0117354Y0066134D01*
X0117688Y0066134D01*
X0118021Y0065801D01*
X0116386Y0066134D02*
X0115386Y0066134D01*
X0115052Y0065801D01*
X0115052Y0065134D01*
X0115386Y0064800D01*
X0116386Y0064800D01*
X0114084Y0065467D02*
X0114084Y0066802D01*
X0112750Y0066802D02*
X0112750Y0065467D01*
X0113417Y0064800D01*
X0114084Y0065467D01*
X0113417Y0068300D02*
X0114084Y0068967D01*
X0114084Y0070302D01*
X0112750Y0070302D02*
X0112750Y0068967D01*
X0113417Y0068300D01*
X0115052Y0068634D02*
X0115386Y0068300D01*
X0116386Y0068300D01*
X0117354Y0068300D02*
X0117354Y0069634D01*
X0117688Y0069634D01*
X0118021Y0069301D01*
X0118355Y0069634D01*
X0118688Y0069301D01*
X0118688Y0068300D01*
X0118021Y0068300D02*
X0118021Y0069301D01*
X0119656Y0069301D02*
X0120990Y0069301D01*
X0120990Y0069634D02*
X0120990Y0068300D01*
X0119656Y0068300D02*
X0119656Y0069634D01*
X0120323Y0070302D01*
X0120990Y0069634D01*
X0121958Y0069634D02*
X0122625Y0070302D01*
X0116386Y0069634D02*
X0115386Y0069634D01*
X0115052Y0069301D01*
X0115052Y0068634D01*
X0116099Y0077566D02*
X0116767Y0077566D01*
X0117100Y0077899D01*
X0116099Y0077566D02*
X0115766Y0077899D01*
X0115766Y0079234D01*
X0116099Y0079567D01*
X0116767Y0079567D01*
X0117100Y0079234D01*
X0118068Y0078567D02*
X0119402Y0078567D01*
X0119069Y0079567D02*
X0119069Y0077566D01*
X0118068Y0078567D02*
X0119069Y0079567D01*
X0119069Y0081066D02*
X0118401Y0081066D01*
X0118068Y0081399D01*
X0118068Y0082067D01*
X0119069Y0082067D01*
X0119402Y0081733D01*
X0119402Y0081399D01*
X0119069Y0081066D01*
X0118068Y0082067D02*
X0118735Y0082734D01*
X0119402Y0083067D01*
X0117100Y0082734D02*
X0117100Y0082067D01*
X0116767Y0081733D01*
X0115766Y0081733D01*
X0116433Y0081733D02*
X0117100Y0081066D01*
X0115766Y0081066D02*
X0115766Y0083067D01*
X0116767Y0083067D01*
X0117100Y0082734D01*
X0117100Y0085066D02*
X0116433Y0085733D01*
X0116767Y0085733D02*
X0115766Y0085733D01*
X0115766Y0085066D02*
X0115766Y0087067D01*
X0116767Y0087067D01*
X0117100Y0086734D01*
X0117100Y0086067D01*
X0116767Y0085733D01*
X0118068Y0085399D02*
X0118401Y0085066D01*
X0119069Y0085066D01*
X0119402Y0085399D01*
X0119402Y0085733D01*
X0119069Y0086067D01*
X0118735Y0086067D01*
X0119069Y0086067D02*
X0119402Y0086400D01*
X0119402Y0086734D01*
X0119069Y0087067D01*
X0118401Y0087067D01*
X0118068Y0086734D01*
X0118068Y0088566D02*
X0119402Y0089900D01*
X0119402Y0090234D01*
X0119069Y0090567D01*
X0118401Y0090567D01*
X0118068Y0090234D01*
X0117100Y0090234D02*
X0116767Y0090567D01*
X0116099Y0090567D01*
X0115766Y0090234D01*
X0115766Y0088899D01*
X0116099Y0088566D01*
X0116767Y0088566D01*
X0117100Y0088899D01*
X0118068Y0088566D02*
X0119402Y0088566D01*
X0119402Y0092066D02*
X0118068Y0092066D01*
X0118735Y0092066D02*
X0118735Y0094067D01*
X0118068Y0093400D01*
X0117100Y0093734D02*
X0116767Y0094067D01*
X0116099Y0094067D01*
X0115766Y0093734D01*
X0115766Y0092399D01*
X0116099Y0092066D01*
X0116767Y0092066D01*
X0117100Y0092399D01*
X0120370Y0092399D02*
X0120703Y0092066D01*
X0121371Y0092066D01*
X0121704Y0092399D01*
X0121704Y0093734D01*
X0120370Y0092399D01*
X0120370Y0093734D01*
X0120703Y0094067D01*
X0121371Y0094067D01*
X0121704Y0093734D01*
X0121371Y0096066D02*
X0120703Y0096066D01*
X0120370Y0096399D01*
X0121704Y0097734D01*
X0121704Y0096399D01*
X0121371Y0096066D01*
X0120370Y0096399D02*
X0120370Y0097734D01*
X0120703Y0098067D01*
X0121371Y0098067D01*
X0121704Y0097734D01*
X0119402Y0097734D02*
X0119069Y0098067D01*
X0118401Y0098067D01*
X0118068Y0097734D01*
X0117100Y0097734D02*
X0116767Y0098067D01*
X0116099Y0098067D01*
X0115766Y0097734D01*
X0115766Y0096399D01*
X0116099Y0096066D01*
X0116767Y0096066D01*
X0117100Y0096399D01*
X0118068Y0096066D02*
X0119402Y0097400D01*
X0119402Y0097734D01*
X0119402Y0096066D02*
X0118068Y0096066D01*
X0118068Y0100066D02*
X0119402Y0100066D01*
X0118735Y0100066D02*
X0118735Y0102067D01*
X0118068Y0101400D01*
X0117100Y0101734D02*
X0116767Y0102067D01*
X0116099Y0102067D01*
X0115766Y0101734D01*
X0115766Y0100399D01*
X0116099Y0100066D01*
X0116767Y0100066D01*
X0117100Y0100399D01*
X0120370Y0100399D02*
X0120370Y0100066D01*
X0120370Y0100399D02*
X0121704Y0101734D01*
X0121704Y0102067D01*
X0120370Y0102067D01*
X0120370Y0103566D02*
X0121704Y0104900D01*
X0121704Y0105234D01*
X0121371Y0105567D01*
X0120703Y0105567D01*
X0120370Y0105234D01*
X0120370Y0103566D02*
X0121704Y0103566D01*
X0119402Y0103566D02*
X0118068Y0103566D01*
X0118735Y0103566D02*
X0118735Y0105567D01*
X0118068Y0104900D01*
X0117100Y0104567D02*
X0116767Y0104233D01*
X0115766Y0104233D01*
X0116433Y0104233D02*
X0117100Y0103566D01*
X0117100Y0104567D02*
X0117100Y0105234D01*
X0116767Y0105567D01*
X0115766Y0105567D01*
X0115766Y0103566D01*
X0115766Y0107566D02*
X0115766Y0109567D01*
X0116767Y0109567D01*
X0117100Y0109234D01*
X0117100Y0108567D01*
X0116767Y0108233D01*
X0115766Y0108233D01*
X0116433Y0108233D02*
X0117100Y0107566D01*
X0118068Y0107899D02*
X0118401Y0107566D01*
X0119069Y0107566D01*
X0119402Y0107899D01*
X0119402Y0109234D01*
X0119069Y0109567D01*
X0118401Y0109567D01*
X0118068Y0109234D01*
X0118068Y0108900D01*
X0118401Y0108567D01*
X0119402Y0108567D01*
X0119402Y0111066D02*
X0118068Y0111066D01*
X0118735Y0111066D02*
X0118735Y0113067D01*
X0118068Y0112400D01*
X0117100Y0112734D02*
X0116767Y0113067D01*
X0116099Y0113067D01*
X0115766Y0112734D01*
X0115766Y0111399D01*
X0116099Y0111066D01*
X0116767Y0111066D01*
X0117100Y0111399D01*
X0120370Y0111399D02*
X0120703Y0111066D01*
X0121371Y0111066D01*
X0121704Y0111399D01*
X0121704Y0112067D01*
X0121371Y0112400D01*
X0121037Y0112400D01*
X0120370Y0112067D01*
X0120370Y0113067D01*
X0121704Y0113067D01*
X0123746Y0112839D02*
X0123746Y0112368D01*
X0124218Y0111896D01*
X0124689Y0111896D01*
X0125374Y0111212D02*
X0125845Y0111684D01*
X0126553Y0110976D01*
X0126553Y0110504D01*
X0126317Y0110268D01*
X0125845Y0110268D01*
X0125374Y0110740D01*
X0125374Y0111212D01*
X0125845Y0111684D02*
X0126789Y0111684D01*
X0127497Y0111448D01*
X0125633Y0112839D02*
X0125633Y0113311D01*
X0125161Y0113783D01*
X0124689Y0113783D01*
X0123746Y0112839D01*
X0125483Y0108254D02*
X0125816Y0107587D01*
X0126483Y0106920D01*
X0126483Y0107921D01*
X0126817Y0108254D01*
X0127151Y0108254D01*
X0127484Y0107921D01*
X0127484Y0107253D01*
X0127151Y0106920D01*
X0126483Y0106920D01*
X0127484Y0105952D02*
X0127484Y0104618D01*
X0127484Y0105285D02*
X0125483Y0105285D01*
X0126150Y0104618D01*
X0125816Y0103650D02*
X0125483Y0103317D01*
X0125483Y0102649D01*
X0125816Y0102316D01*
X0127151Y0102316D01*
X0127484Y0102649D01*
X0127484Y0103317D01*
X0127151Y0103650D01*
X0144860Y0104144D02*
X0144860Y0102476D01*
X0145194Y0102143D01*
X0145861Y0102143D01*
X0146195Y0102476D01*
X0146195Y0104144D01*
X0147162Y0103477D02*
X0147829Y0104144D01*
X0147829Y0102143D01*
X0147162Y0102143D02*
X0148497Y0102143D01*
X0155250Y0106634D02*
X0155584Y0106300D01*
X0155917Y0106300D01*
X0156251Y0106634D01*
X0156251Y0108302D01*
X0156584Y0108302D02*
X0155917Y0108302D01*
X0157552Y0107968D02*
X0157886Y0108302D01*
X0158553Y0108302D01*
X0158886Y0107968D01*
X0158886Y0107634D01*
X0158553Y0107301D01*
X0158886Y0106967D01*
X0158886Y0106634D01*
X0158553Y0106300D01*
X0157886Y0106300D01*
X0157552Y0106634D01*
X0158219Y0107301D02*
X0158553Y0107301D01*
X0163000Y0110650D02*
X0163000Y0111650D01*
X0164000Y0113650D02*
X0162000Y0113650D01*
X0161000Y0112650D02*
X0165000Y0112650D01*
X0166000Y0111650D02*
X0160000Y0111650D01*
X0141984Y0114649D02*
X0141651Y0114316D01*
X0140316Y0114316D01*
X0139983Y0114649D01*
X0139983Y0115317D01*
X0140316Y0115650D01*
X0139983Y0116618D02*
X0139983Y0117952D01*
X0140316Y0117952D01*
X0141651Y0116618D01*
X0141984Y0116618D01*
X0141651Y0115650D02*
X0141984Y0115317D01*
X0141984Y0114649D01*
X0138484Y0114649D02*
X0138151Y0114316D01*
X0136816Y0114316D01*
X0136483Y0114649D01*
X0136483Y0115317D01*
X0136816Y0115650D01*
X0137150Y0116618D02*
X0136483Y0117285D01*
X0138484Y0117285D01*
X0138484Y0116618D02*
X0138484Y0117952D01*
X0137483Y0118920D02*
X0137483Y0120254D01*
X0136483Y0119921D02*
X0137483Y0118920D01*
X0136483Y0119921D02*
X0138484Y0119921D01*
X0138151Y0115650D02*
X0138484Y0115317D01*
X0138484Y0114649D01*
X0114292Y0122134D02*
X0113959Y0121800D01*
X0113291Y0121800D01*
X0112958Y0122134D01*
X0113625Y0122801D02*
X0113959Y0122801D01*
X0114292Y0122467D01*
X0114292Y0122134D01*
X0113959Y0122801D02*
X0114292Y0123134D01*
X0114292Y0123468D01*
X0113959Y0123802D01*
X0113291Y0123802D01*
X0112958Y0123468D01*
X0111990Y0123134D02*
X0111323Y0123802D01*
X0110656Y0123134D01*
X0110656Y0121800D01*
X0109688Y0121800D02*
X0109688Y0122801D01*
X0109355Y0123134D01*
X0109021Y0122801D01*
X0109021Y0121800D01*
X0108354Y0121800D02*
X0108354Y0123134D01*
X0108688Y0123134D01*
X0109021Y0122801D01*
X0110656Y0122801D02*
X0111990Y0122801D01*
X0111990Y0123134D02*
X0111990Y0121800D01*
X0107386Y0121800D02*
X0106386Y0121800D01*
X0106052Y0122134D01*
X0106052Y0122801D01*
X0106386Y0123134D01*
X0107386Y0123134D01*
X0105084Y0122467D02*
X0104417Y0121800D01*
X0103750Y0122467D01*
X0103750Y0123802D01*
X0105084Y0123802D02*
X0105084Y0122467D01*
X0095250Y0121238D02*
X0095250Y0119904D01*
X0095250Y0120571D02*
X0093248Y0120571D01*
X0093916Y0119904D01*
X0093916Y0118936D02*
X0093582Y0118936D01*
X0093248Y0118603D01*
X0093248Y0117936D01*
X0093582Y0117602D01*
X0093582Y0116634D02*
X0093248Y0116301D01*
X0093248Y0115634D01*
X0093582Y0115300D01*
X0094916Y0115300D01*
X0095250Y0115634D01*
X0095250Y0116301D01*
X0094916Y0116634D01*
X0095250Y0117602D02*
X0093916Y0118936D01*
X0095250Y0118936D02*
X0095250Y0117602D01*
X0091037Y0116267D02*
X0090370Y0115600D01*
X0091037Y0116267D02*
X0091037Y0114266D01*
X0090370Y0114266D02*
X0091704Y0114266D01*
X0089402Y0114266D02*
X0088068Y0114266D01*
X0088735Y0114266D02*
X0088735Y0116267D01*
X0088068Y0115600D01*
X0087100Y0115934D02*
X0086767Y0116267D01*
X0086099Y0116267D01*
X0085766Y0115934D01*
X0085766Y0114599D01*
X0086099Y0114266D01*
X0086767Y0114266D01*
X0087100Y0114599D01*
X0087084Y0117300D02*
X0086417Y0117967D01*
X0086751Y0117967D02*
X0085750Y0117967D01*
X0085750Y0117300D02*
X0085750Y0119302D01*
X0086751Y0119302D01*
X0087084Y0118968D01*
X0087084Y0118301D01*
X0086751Y0117967D01*
X0088052Y0117967D02*
X0088386Y0118301D01*
X0089053Y0118301D01*
X0089386Y0117967D01*
X0089386Y0117634D01*
X0089053Y0117300D01*
X0088386Y0117300D01*
X0088052Y0117634D01*
X0088052Y0117967D01*
X0088386Y0118301D02*
X0088052Y0118634D01*
X0088052Y0118968D01*
X0088386Y0119302D01*
X0089053Y0119302D01*
X0089386Y0118968D01*
X0089386Y0118634D01*
X0089053Y0118301D01*
X0080886Y0112802D02*
X0080886Y0112468D01*
X0079552Y0111134D01*
X0079552Y0110800D01*
X0078584Y0110800D02*
X0077917Y0111467D01*
X0078251Y0111467D02*
X0077250Y0111467D01*
X0077250Y0110800D02*
X0077250Y0112802D01*
X0078251Y0112802D01*
X0078584Y0112468D01*
X0078584Y0111801D01*
X0078251Y0111467D01*
X0079552Y0112802D02*
X0080886Y0112802D01*
X0069550Y0102905D02*
X0069550Y0102238D01*
X0069216Y0101904D01*
X0068883Y0101904D01*
X0068549Y0102238D01*
X0068549Y0102905D01*
X0068883Y0103238D01*
X0069216Y0103238D01*
X0069550Y0102905D01*
X0068549Y0102905D02*
X0068216Y0103238D01*
X0067882Y0103238D01*
X0067548Y0102905D01*
X0067548Y0102238D01*
X0067882Y0101904D01*
X0068216Y0101904D01*
X0068549Y0102238D01*
X0069550Y0100936D02*
X0069550Y0099602D01*
X0069550Y0100269D02*
X0067548Y0100269D01*
X0068216Y0099602D01*
X0067882Y0098634D02*
X0067548Y0098301D01*
X0067548Y0097634D01*
X0067882Y0097300D01*
X0069216Y0097300D01*
X0069550Y0097634D01*
X0069550Y0098301D01*
X0069216Y0098634D01*
X0066250Y0098634D02*
X0065583Y0097967D01*
X0065583Y0098301D02*
X0065583Y0097300D01*
X0066250Y0097300D02*
X0064248Y0097300D01*
X0064248Y0098301D01*
X0064582Y0098634D01*
X0065249Y0098634D01*
X0065583Y0098301D01*
X0066250Y0099602D02*
X0066250Y0100936D01*
X0066250Y0100269D02*
X0064248Y0100269D01*
X0064916Y0099602D01*
X0062750Y0099602D02*
X0062750Y0100936D01*
X0062750Y0100269D02*
X0060748Y0100269D01*
X0061416Y0099602D01*
X0061749Y0098634D02*
X0062083Y0098301D01*
X0062083Y0097300D01*
X0062750Y0097300D02*
X0060748Y0097300D01*
X0060748Y0098301D01*
X0061082Y0098634D01*
X0061749Y0098634D01*
X0062083Y0097967D02*
X0062750Y0098634D01*
X0062416Y0101904D02*
X0061082Y0103238D01*
X0062416Y0103238D01*
X0062750Y0102905D01*
X0062750Y0102238D01*
X0062416Y0101904D01*
X0061082Y0101904D01*
X0060748Y0102238D01*
X0060748Y0102905D01*
X0061082Y0103238D01*
X0064248Y0102571D02*
X0066250Y0102571D01*
X0066250Y0101904D02*
X0066250Y0103238D01*
X0064916Y0101904D02*
X0064248Y0102571D01*
X0066462Y0095036D02*
X0066128Y0094702D01*
X0066128Y0093368D01*
X0066462Y0093034D01*
X0067129Y0093034D01*
X0067463Y0093368D01*
X0068430Y0093034D02*
X0069765Y0093034D01*
X0069098Y0093034D02*
X0069098Y0095036D01*
X0068430Y0094369D01*
X0067463Y0094702D02*
X0067129Y0095036D01*
X0066462Y0095036D01*
X0070732Y0094702D02*
X0070732Y0094369D01*
X0071066Y0094035D01*
X0072067Y0094035D01*
X0072067Y0093368D02*
X0072067Y0094702D01*
X0071733Y0095036D01*
X0071066Y0095036D01*
X0070732Y0094702D01*
X0070732Y0093368D02*
X0071066Y0093034D01*
X0071733Y0093034D01*
X0072067Y0093368D01*
X0070600Y0083836D02*
X0070600Y0081834D01*
X0071267Y0081834D02*
X0069932Y0081834D01*
X0068965Y0081834D02*
X0068298Y0082501D01*
X0068631Y0082501D02*
X0067630Y0082501D01*
X0067630Y0081834D02*
X0067630Y0083836D01*
X0068631Y0083836D01*
X0068965Y0083502D01*
X0068965Y0082835D01*
X0068631Y0082501D01*
X0069932Y0083169D02*
X0070600Y0083836D01*
X0074948Y0083603D02*
X0074948Y0082936D01*
X0075282Y0082602D01*
X0075282Y0081634D02*
X0075949Y0081634D01*
X0076283Y0081301D01*
X0076283Y0080300D01*
X0076950Y0080300D02*
X0074948Y0080300D01*
X0074948Y0081301D01*
X0075282Y0081634D01*
X0076283Y0080967D02*
X0076950Y0081634D01*
X0076950Y0082602D02*
X0075616Y0083936D01*
X0075282Y0083936D01*
X0074948Y0083603D01*
X0076950Y0083936D02*
X0076950Y0082602D01*
X0078448Y0083269D02*
X0080450Y0083269D01*
X0080450Y0082602D02*
X0080450Y0083936D01*
X0079116Y0082602D02*
X0078448Y0083269D01*
X0078782Y0081634D02*
X0078448Y0081301D01*
X0078448Y0080634D01*
X0078782Y0080300D01*
X0080116Y0080300D01*
X0080450Y0080634D01*
X0080450Y0081301D01*
X0080116Y0081634D01*
X0079980Y0078302D02*
X0079646Y0077968D01*
X0079646Y0076634D01*
X0079980Y0076300D01*
X0080647Y0076300D01*
X0080981Y0076634D01*
X0081948Y0076634D02*
X0082282Y0076300D01*
X0082949Y0076300D01*
X0083283Y0076634D01*
X0083283Y0077301D01*
X0082949Y0077634D01*
X0082615Y0077634D01*
X0081948Y0077301D01*
X0081948Y0078302D01*
X0083283Y0078302D01*
X0080981Y0077968D02*
X0080647Y0078302D01*
X0079980Y0078302D01*
X0079646Y0075102D02*
X0080647Y0075102D01*
X0080981Y0074768D01*
X0080981Y0074101D01*
X0080647Y0073767D01*
X0079646Y0073767D01*
X0079646Y0073100D02*
X0079646Y0075102D01*
X0080313Y0073767D02*
X0080981Y0073100D01*
X0081948Y0073434D02*
X0082282Y0073100D01*
X0082949Y0073100D01*
X0083283Y0073434D01*
X0083283Y0074101D01*
X0082949Y0074434D01*
X0082615Y0074434D01*
X0081948Y0074101D01*
X0081948Y0075102D01*
X0083283Y0075102D01*
X0082949Y0071902D02*
X0081948Y0070901D01*
X0083283Y0070901D01*
X0082949Y0069900D02*
X0082949Y0071902D01*
X0080981Y0071568D02*
X0080981Y0070901D01*
X0080647Y0070567D01*
X0079646Y0070567D01*
X0079646Y0069900D02*
X0079646Y0071902D01*
X0080647Y0071902D01*
X0080981Y0071568D01*
X0080313Y0070567D02*
X0080981Y0069900D01*
X0084766Y0066067D02*
X0085767Y0066067D01*
X0086100Y0065734D01*
X0086100Y0065067D01*
X0085767Y0064733D01*
X0084766Y0064733D01*
X0085433Y0064733D02*
X0086100Y0064066D01*
X0087068Y0064066D02*
X0088402Y0065400D01*
X0088402Y0065734D01*
X0088069Y0066067D01*
X0087401Y0066067D01*
X0087068Y0065734D01*
X0087068Y0064066D02*
X0088402Y0064066D01*
X0089370Y0064066D02*
X0090704Y0065400D01*
X0090704Y0065734D01*
X0090371Y0066067D01*
X0089703Y0066067D01*
X0089370Y0065734D01*
X0089370Y0064066D02*
X0090704Y0064066D01*
X0090371Y0062567D02*
X0089703Y0062567D01*
X0089370Y0062234D01*
X0088402Y0062234D02*
X0088402Y0061900D01*
X0088069Y0061567D01*
X0088402Y0061233D01*
X0088402Y0060899D01*
X0088069Y0060566D01*
X0087401Y0060566D01*
X0087068Y0060899D01*
X0087735Y0061567D02*
X0088069Y0061567D01*
X0088402Y0062234D02*
X0088069Y0062567D01*
X0087401Y0062567D01*
X0087068Y0062234D01*
X0086100Y0062234D02*
X0085767Y0062567D01*
X0085099Y0062567D01*
X0084766Y0062234D01*
X0084766Y0060899D01*
X0085099Y0060566D01*
X0085767Y0060566D01*
X0086100Y0060899D01*
X0089370Y0060566D02*
X0090704Y0061900D01*
X0090704Y0062234D01*
X0090371Y0062567D01*
X0090704Y0060566D02*
X0089370Y0060566D01*
X0082037Y0058967D02*
X0082037Y0056966D01*
X0081370Y0056966D02*
X0082704Y0056966D01*
X0081370Y0058300D02*
X0082037Y0058967D01*
X0080402Y0058634D02*
X0080069Y0058967D01*
X0079401Y0058967D01*
X0079068Y0058634D01*
X0078100Y0058634D02*
X0078100Y0057967D01*
X0077767Y0057633D01*
X0076766Y0057633D01*
X0077433Y0057633D02*
X0078100Y0056966D01*
X0079068Y0056966D02*
X0080402Y0058300D01*
X0080402Y0058634D01*
X0080402Y0056966D02*
X0079068Y0056966D01*
X0078100Y0058634D02*
X0077767Y0058967D01*
X0076766Y0058967D01*
X0076766Y0056966D01*
X0084766Y0064066D02*
X0084766Y0066067D01*
X0093014Y0069514D02*
X0093014Y0070181D01*
X0093348Y0070515D01*
X0093348Y0071482D02*
X0093681Y0071482D01*
X0094015Y0071816D01*
X0094015Y0072483D01*
X0094349Y0072817D01*
X0094682Y0072817D01*
X0095016Y0072483D01*
X0095016Y0071816D01*
X0094682Y0071482D01*
X0094349Y0071482D01*
X0094015Y0071816D01*
X0094015Y0072483D02*
X0093681Y0072817D01*
X0093348Y0072817D01*
X0093014Y0072483D01*
X0093014Y0071816D01*
X0093348Y0071482D01*
X0094682Y0070515D02*
X0095016Y0070181D01*
X0095016Y0069514D01*
X0094682Y0069180D01*
X0093348Y0069180D01*
X0093014Y0069514D01*
X0097014Y0069514D02*
X0097014Y0070181D01*
X0097348Y0070515D01*
X0097348Y0071482D02*
X0097681Y0071482D01*
X0098015Y0071816D01*
X0098015Y0072817D01*
X0098682Y0072817D02*
X0097348Y0072817D01*
X0097014Y0072483D01*
X0097014Y0071816D01*
X0097348Y0071482D01*
X0098682Y0071482D02*
X0099016Y0071816D01*
X0099016Y0072483D01*
X0098682Y0072817D01*
X0098682Y0070515D02*
X0099016Y0070181D01*
X0099016Y0069514D01*
X0098682Y0069180D01*
X0097348Y0069180D01*
X0097014Y0069514D01*
X0096650Y0062254D02*
X0096316Y0062254D01*
X0095983Y0061921D01*
X0095983Y0061253D01*
X0096316Y0060920D01*
X0096983Y0059952D02*
X0096983Y0058618D01*
X0095983Y0059619D01*
X0097984Y0059619D01*
X0097984Y0060920D02*
X0096650Y0062254D01*
X0097984Y0062254D02*
X0097984Y0060920D01*
X0097651Y0057650D02*
X0097984Y0057317D01*
X0097984Y0056649D01*
X0097651Y0056316D01*
X0096316Y0056316D01*
X0095983Y0056649D01*
X0095983Y0057317D01*
X0096316Y0057650D01*
X0097376Y0053713D02*
X0097376Y0052045D01*
X0097710Y0051711D01*
X0098377Y0051711D01*
X0098710Y0052045D01*
X0098710Y0053713D01*
X0099678Y0052712D02*
X0101012Y0052712D01*
X0100679Y0051711D02*
X0100679Y0053713D01*
X0099678Y0052712D01*
X0115766Y0053566D02*
X0115766Y0055567D01*
X0116767Y0055567D01*
X0117100Y0055234D01*
X0117100Y0054567D01*
X0116767Y0054233D01*
X0115766Y0054233D01*
X0116433Y0054233D02*
X0117100Y0053566D01*
X0118068Y0053566D02*
X0119402Y0054900D01*
X0119402Y0055234D01*
X0119069Y0055567D01*
X0118401Y0055567D01*
X0118068Y0055234D01*
X0118068Y0053566D02*
X0119402Y0053566D01*
X0120370Y0053899D02*
X0120703Y0053566D01*
X0121371Y0053566D01*
X0121704Y0053899D01*
X0121704Y0054233D01*
X0121371Y0054567D01*
X0121037Y0054567D01*
X0121371Y0054567D02*
X0121704Y0054900D01*
X0121704Y0055234D01*
X0121371Y0055567D01*
X0120703Y0055567D01*
X0120370Y0055234D01*
X0120703Y0057066D02*
X0121371Y0057066D01*
X0121704Y0057399D01*
X0121704Y0057733D01*
X0121371Y0058067D01*
X0120370Y0058067D01*
X0120370Y0057399D01*
X0120703Y0057066D01*
X0120370Y0058067D02*
X0121037Y0058734D01*
X0121704Y0059067D01*
X0122861Y0059410D02*
X0123333Y0058938D01*
X0123804Y0058938D01*
X0124253Y0058018D02*
X0126140Y0058018D01*
X0126376Y0058254D01*
X0126376Y0058726D01*
X0125904Y0059198D01*
X0125432Y0059198D01*
X0124748Y0059882D02*
X0124748Y0060354D01*
X0124276Y0060826D01*
X0123804Y0060826D01*
X0122861Y0059882D01*
X0122861Y0059410D01*
X0124253Y0058018D02*
X0125196Y0057075D01*
X0125880Y0056391D02*
X0126116Y0056626D01*
X0128003Y0056626D01*
X0128239Y0056862D01*
X0127296Y0057806D01*
X0125816Y0053754D02*
X0127151Y0052420D01*
X0127484Y0052420D01*
X0127151Y0051452D02*
X0126817Y0051452D01*
X0126483Y0051119D01*
X0126483Y0050785D01*
X0126483Y0051119D02*
X0126150Y0051452D01*
X0125816Y0051452D01*
X0125483Y0051119D01*
X0125483Y0050451D01*
X0125816Y0050118D01*
X0125816Y0049150D02*
X0125483Y0048817D01*
X0125483Y0048149D01*
X0125816Y0047816D01*
X0127151Y0047816D01*
X0127484Y0048149D01*
X0127484Y0048817D01*
X0127151Y0049150D01*
X0127151Y0050118D02*
X0127484Y0050451D01*
X0127484Y0051119D01*
X0127151Y0051452D01*
X0125483Y0052420D02*
X0125483Y0053754D01*
X0125816Y0053754D01*
X0121704Y0051567D02*
X0121037Y0051234D01*
X0120370Y0050567D01*
X0121371Y0050567D01*
X0121704Y0050233D01*
X0121704Y0049899D01*
X0121371Y0049566D01*
X0120703Y0049566D01*
X0120370Y0049899D01*
X0120370Y0050567D01*
X0119402Y0050900D02*
X0119402Y0051234D01*
X0119069Y0051567D01*
X0118401Y0051567D01*
X0118068Y0051234D01*
X0117100Y0051234D02*
X0117100Y0050567D01*
X0116767Y0050233D01*
X0115766Y0050233D01*
X0116433Y0050233D02*
X0117100Y0049566D01*
X0118068Y0049566D02*
X0119402Y0050900D01*
X0119402Y0049566D02*
X0118068Y0049566D01*
X0118401Y0048067D02*
X0119069Y0048067D01*
X0119402Y0047734D01*
X0119402Y0047400D01*
X0119069Y0047067D01*
X0119402Y0046733D01*
X0119402Y0046399D01*
X0119069Y0046066D01*
X0118401Y0046066D01*
X0118068Y0046399D01*
X0118735Y0047067D02*
X0119069Y0047067D01*
X0118068Y0047734D02*
X0118401Y0048067D01*
X0117100Y0047734D02*
X0116767Y0048067D01*
X0116099Y0048067D01*
X0115766Y0047734D01*
X0115766Y0046399D01*
X0116099Y0046066D01*
X0116767Y0046066D01*
X0117100Y0046399D01*
X0120370Y0046399D02*
X0120703Y0046066D01*
X0121371Y0046066D01*
X0121704Y0046399D01*
X0121704Y0046733D01*
X0121371Y0047067D01*
X0120703Y0047067D01*
X0120370Y0047400D01*
X0120370Y0047734D01*
X0120703Y0048067D01*
X0121371Y0048067D01*
X0121704Y0047734D01*
X0121704Y0047400D01*
X0121371Y0047067D01*
X0120703Y0047067D02*
X0120370Y0046733D01*
X0120370Y0046399D01*
X0121037Y0044067D02*
X0121037Y0042066D01*
X0120370Y0042066D02*
X0121704Y0042066D01*
X0121037Y0040567D02*
X0121037Y0038566D01*
X0120370Y0038566D02*
X0121704Y0038566D01*
X0120370Y0039900D02*
X0121037Y0040567D01*
X0119402Y0040234D02*
X0119402Y0039900D01*
X0119069Y0039567D01*
X0119402Y0039233D01*
X0119402Y0038899D01*
X0119069Y0038566D01*
X0118401Y0038566D01*
X0118068Y0038899D01*
X0118735Y0039567D02*
X0119069Y0039567D01*
X0119402Y0040234D02*
X0119069Y0040567D01*
X0118401Y0040567D01*
X0118068Y0040234D01*
X0117100Y0040234D02*
X0116767Y0040567D01*
X0116099Y0040567D01*
X0115766Y0040234D01*
X0115766Y0038899D01*
X0116099Y0038566D01*
X0116767Y0038566D01*
X0117100Y0038899D01*
X0116767Y0036567D02*
X0116099Y0036567D01*
X0115766Y0036234D01*
X0115766Y0034899D01*
X0116099Y0034566D01*
X0116767Y0034566D01*
X0117100Y0034899D01*
X0118068Y0034566D02*
X0119402Y0035900D01*
X0119402Y0036234D01*
X0119069Y0036567D01*
X0118401Y0036567D01*
X0118068Y0036234D01*
X0117100Y0036234D02*
X0116767Y0036567D01*
X0118068Y0034566D02*
X0119402Y0034566D01*
X0120370Y0034899D02*
X0120703Y0034566D01*
X0121371Y0034566D01*
X0121704Y0034899D01*
X0121704Y0035233D01*
X0121371Y0035567D01*
X0121037Y0035567D01*
X0121371Y0035567D02*
X0121704Y0035900D01*
X0121704Y0036234D01*
X0121371Y0036567D01*
X0120703Y0036567D01*
X0120370Y0036234D01*
X0120370Y0033067D02*
X0121704Y0033067D01*
X0121704Y0032734D01*
X0120370Y0031399D01*
X0120370Y0031066D01*
X0119402Y0031066D02*
X0118068Y0031066D01*
X0118735Y0031066D02*
X0118735Y0033067D01*
X0118068Y0032400D01*
X0117100Y0032067D02*
X0116767Y0031733D01*
X0115766Y0031733D01*
X0116433Y0031733D02*
X0117100Y0031066D01*
X0117100Y0032067D02*
X0117100Y0032734D01*
X0116767Y0033067D01*
X0115766Y0033067D01*
X0115766Y0031066D01*
X0115766Y0029067D02*
X0116767Y0029067D01*
X0117100Y0028734D01*
X0117100Y0028067D01*
X0116767Y0027733D01*
X0115766Y0027733D01*
X0116433Y0027733D02*
X0117100Y0027066D01*
X0118068Y0027066D02*
X0119402Y0028400D01*
X0119402Y0028734D01*
X0119069Y0029067D01*
X0118401Y0029067D01*
X0118068Y0028734D01*
X0118068Y0027066D02*
X0119402Y0027066D01*
X0120370Y0027399D02*
X0121704Y0028734D01*
X0121704Y0027399D01*
X0121371Y0027066D01*
X0120703Y0027066D01*
X0120370Y0027399D01*
X0120370Y0028734D01*
X0120703Y0029067D01*
X0121371Y0029067D01*
X0121704Y0028734D01*
X0125483Y0028951D02*
X0125816Y0028618D01*
X0125483Y0028951D02*
X0125483Y0029619D01*
X0125816Y0029952D01*
X0126150Y0029952D01*
X0127484Y0028618D01*
X0127484Y0029952D01*
X0126483Y0030920D02*
X0126483Y0032254D01*
X0125483Y0031921D02*
X0126483Y0030920D01*
X0125483Y0031921D02*
X0127484Y0031921D01*
X0127151Y0027650D02*
X0127484Y0027317D01*
X0127484Y0026649D01*
X0127151Y0026316D01*
X0125816Y0026316D01*
X0125483Y0026649D01*
X0125483Y0027317D01*
X0125816Y0027650D01*
X0121704Y0025567D02*
X0120370Y0025567D01*
X0120370Y0024567D01*
X0121037Y0024900D01*
X0121371Y0024900D01*
X0121704Y0024567D01*
X0121704Y0023899D01*
X0121371Y0023566D01*
X0120703Y0023566D01*
X0120370Y0023899D01*
X0119402Y0023566D02*
X0118068Y0023566D01*
X0119402Y0024900D01*
X0119402Y0025234D01*
X0119069Y0025567D01*
X0118401Y0025567D01*
X0118068Y0025234D01*
X0117100Y0025234D02*
X0116767Y0025567D01*
X0116099Y0025567D01*
X0115766Y0025234D01*
X0115766Y0023899D01*
X0116099Y0023566D01*
X0116767Y0023566D01*
X0117100Y0023899D01*
X0115766Y0027066D02*
X0115766Y0029067D01*
X0129624Y0022826D02*
X0129624Y0022354D01*
X0130568Y0021411D01*
X0131040Y0021411D01*
X0131512Y0021883D01*
X0131512Y0022354D01*
X0132196Y0023038D02*
X0132668Y0023038D01*
X0133139Y0023510D01*
X0133139Y0023982D01*
X0132903Y0024218D01*
X0132432Y0024218D01*
X0132196Y0023982D01*
X0132432Y0024218D02*
X0132432Y0024690D01*
X0132196Y0024926D01*
X0131724Y0024926D01*
X0131252Y0024454D01*
X0131252Y0023982D01*
X0130568Y0023298D02*
X0130096Y0023298D01*
X0129624Y0022826D01*
X0133352Y0025138D02*
X0134295Y0026082D01*
X0133352Y0026553D02*
X0133352Y0025138D01*
X0134767Y0025138D02*
X0133352Y0026553D01*
X0137848Y0020317D02*
X0137514Y0019983D01*
X0137514Y0019316D01*
X0137848Y0018982D01*
X0138515Y0019650D02*
X0138515Y0019983D01*
X0138849Y0020317D01*
X0139182Y0020317D01*
X0139516Y0019983D01*
X0139516Y0019316D01*
X0139182Y0018982D01*
X0139182Y0018015D02*
X0139516Y0017681D01*
X0139516Y0017014D01*
X0139182Y0016680D01*
X0138515Y0017348D02*
X0138515Y0017681D01*
X0138849Y0018015D01*
X0139182Y0018015D01*
X0138515Y0017681D02*
X0138181Y0018015D01*
X0137848Y0018015D01*
X0137514Y0017681D01*
X0137514Y0017014D01*
X0137848Y0016680D01*
X0137848Y0015713D02*
X0137514Y0015379D01*
X0137514Y0014712D01*
X0137848Y0014378D01*
X0139182Y0014378D01*
X0139516Y0014712D01*
X0139516Y0015379D01*
X0139182Y0015713D01*
X0141514Y0015379D02*
X0141514Y0014378D01*
X0143516Y0014378D01*
X0142849Y0014378D02*
X0142849Y0015379D01*
X0142515Y0015713D01*
X0141848Y0015713D01*
X0141514Y0015379D01*
X0141848Y0016680D02*
X0141514Y0017014D01*
X0141514Y0017681D01*
X0141848Y0018015D01*
X0142181Y0018015D01*
X0143516Y0016680D01*
X0143516Y0018015D01*
X0143516Y0018982D02*
X0143182Y0018982D01*
X0141848Y0020317D01*
X0141514Y0020317D01*
X0141514Y0018982D01*
X0138515Y0019983D02*
X0138181Y0020317D01*
X0137848Y0020317D01*
X0142849Y0015046D02*
X0143516Y0015713D01*
X0149014Y0017378D02*
X0149014Y0018379D01*
X0149348Y0018713D01*
X0150015Y0018713D01*
X0150349Y0018379D01*
X0150349Y0017378D01*
X0151016Y0017378D02*
X0149014Y0017378D01*
X0150349Y0018046D02*
X0151016Y0018713D01*
X0151016Y0019680D02*
X0149681Y0021015D01*
X0149348Y0021015D01*
X0149014Y0020681D01*
X0149014Y0020014D01*
X0149348Y0019680D01*
X0151016Y0019680D02*
X0151016Y0021015D01*
X0150682Y0021982D02*
X0151016Y0022316D01*
X0151016Y0022983D01*
X0150682Y0023317D01*
X0150349Y0023317D01*
X0150015Y0022983D01*
X0150015Y0022316D01*
X0149681Y0021982D01*
X0149348Y0021982D01*
X0149014Y0022316D01*
X0149014Y0022983D01*
X0149348Y0023317D01*
X0149681Y0023317D01*
X0150015Y0022983D01*
X0150015Y0022316D02*
X0150349Y0021982D01*
X0150682Y0021982D01*
X0153500Y0023550D02*
X0159500Y0023550D01*
X0158500Y0022550D02*
X0154500Y0022550D01*
X0155500Y0021550D02*
X0157500Y0021550D01*
X0156500Y0023550D02*
X0156500Y0024550D01*
X0165710Y0034985D02*
X0166043Y0034985D01*
X0166377Y0035319D01*
X0166377Y0036987D01*
X0166710Y0036987D02*
X0166043Y0036987D01*
X0165376Y0035319D02*
X0165710Y0034985D01*
X0167678Y0035986D02*
X0169012Y0035986D01*
X0168679Y0036987D02*
X0167678Y0035986D01*
X0168679Y0034985D02*
X0168679Y0036987D01*
X0164984Y0040149D02*
X0164651Y0039816D01*
X0163316Y0039816D01*
X0162983Y0040149D01*
X0162983Y0040817D01*
X0163316Y0041150D01*
X0163316Y0042118D02*
X0163650Y0042118D01*
X0163983Y0042451D01*
X0163983Y0043452D01*
X0163316Y0043452D02*
X0164651Y0043452D01*
X0164984Y0043119D01*
X0164984Y0042451D01*
X0164651Y0042118D01*
X0164651Y0041150D02*
X0164984Y0040817D01*
X0164984Y0040149D01*
X0163316Y0042118D02*
X0162983Y0042451D01*
X0162983Y0043119D01*
X0163316Y0043452D01*
X0163316Y0044420D02*
X0162983Y0044753D01*
X0162983Y0045421D01*
X0163316Y0045754D01*
X0163650Y0045754D01*
X0163983Y0045421D01*
X0164317Y0045754D01*
X0164651Y0045754D01*
X0164984Y0045421D01*
X0164984Y0044753D01*
X0164651Y0044420D01*
X0163983Y0045087D02*
X0163983Y0045421D01*
X0161984Y0045421D02*
X0161984Y0044753D01*
X0161651Y0044420D01*
X0160983Y0044420D02*
X0160650Y0045087D01*
X0160650Y0045421D01*
X0160983Y0045754D01*
X0161651Y0045754D01*
X0161984Y0045421D01*
X0160983Y0044420D02*
X0159983Y0044420D01*
X0159983Y0045754D01*
X0159983Y0043452D02*
X0160316Y0042785D01*
X0160983Y0042118D01*
X0160983Y0043119D01*
X0161317Y0043452D01*
X0161651Y0043452D01*
X0161984Y0043119D01*
X0161984Y0042451D01*
X0161651Y0042118D01*
X0160983Y0042118D01*
X0160983Y0041150D02*
X0161317Y0040817D01*
X0161317Y0039816D01*
X0161317Y0040483D02*
X0161984Y0041150D01*
X0160983Y0041150D02*
X0160316Y0041150D01*
X0159983Y0040817D01*
X0159983Y0039816D01*
X0161984Y0039816D01*
X0176514Y0040065D02*
X0178516Y0040065D01*
X0178516Y0039398D02*
X0178516Y0040732D01*
X0180214Y0040399D02*
X0180214Y0039732D01*
X0180548Y0039398D01*
X0181882Y0039398D01*
X0180548Y0040732D01*
X0181882Y0040732D01*
X0182216Y0040399D01*
X0182216Y0039732D01*
X0181882Y0039398D01*
X0181882Y0038431D02*
X0181549Y0038431D01*
X0181215Y0038097D01*
X0181215Y0037096D01*
X0181882Y0037096D01*
X0182216Y0037430D01*
X0182216Y0038097D01*
X0181882Y0038431D01*
X0180548Y0037763D02*
X0181215Y0037096D01*
X0180548Y0037763D02*
X0180214Y0038431D01*
X0178516Y0038097D02*
X0178182Y0038431D01*
X0177849Y0038431D01*
X0177515Y0038097D01*
X0177515Y0037096D01*
X0178182Y0037096D01*
X0178516Y0037430D01*
X0178516Y0038097D01*
X0177515Y0037096D02*
X0176848Y0037763D01*
X0176514Y0038431D01*
X0177181Y0039398D02*
X0176514Y0040065D01*
X0180214Y0040399D02*
X0180548Y0040732D01*
X0180548Y0036129D02*
X0181215Y0036129D01*
X0181549Y0035795D01*
X0181549Y0034794D01*
X0182216Y0034794D02*
X0180214Y0034794D01*
X0180214Y0035795D01*
X0180548Y0036129D01*
X0181549Y0035461D02*
X0182216Y0036129D01*
X0178516Y0036129D02*
X0177849Y0035461D01*
X0177849Y0035795D02*
X0177849Y0034794D01*
X0178516Y0034794D02*
X0176514Y0034794D01*
X0176514Y0035795D01*
X0176848Y0036129D01*
X0177515Y0036129D01*
X0177849Y0035795D01*
X0187094Y0036326D02*
X0198906Y0036326D01*
X0198906Y0045774D02*
X0187094Y0045774D01*
X0194376Y0047445D02*
X0194376Y0049113D01*
X0195710Y0049113D02*
X0195710Y0047445D01*
X0195377Y0047111D01*
X0194710Y0047111D01*
X0194376Y0047445D01*
X0196678Y0047445D02*
X0197012Y0047111D01*
X0197679Y0047111D01*
X0198012Y0047445D01*
X0198012Y0048779D01*
X0197679Y0049113D01*
X0197012Y0049113D01*
X0196678Y0048779D01*
X0196678Y0048445D01*
X0197012Y0048112D01*
X0198012Y0048112D01*
X0198173Y0052877D02*
X0198173Y0055239D01*
X0198173Y0052877D02*
X0195811Y0052877D01*
X0214266Y0048567D02*
X0214266Y0046566D01*
X0214266Y0047233D02*
X0215267Y0047233D01*
X0215600Y0047567D01*
X0215600Y0048234D01*
X0215267Y0048567D01*
X0214266Y0048567D01*
X0214933Y0047233D02*
X0215600Y0046566D01*
X0216568Y0046899D02*
X0216901Y0046566D01*
X0217569Y0046566D01*
X0217902Y0046899D01*
X0217902Y0047233D01*
X0217569Y0047567D01*
X0216568Y0047567D01*
X0216568Y0046899D01*
X0216568Y0047567D02*
X0217235Y0048234D01*
X0217902Y0048567D01*
X0218870Y0048234D02*
X0219203Y0048567D01*
X0219871Y0048567D01*
X0220204Y0048234D01*
X0220204Y0047900D01*
X0219871Y0047567D01*
X0220204Y0047233D01*
X0220204Y0046899D01*
X0219871Y0046566D01*
X0219203Y0046566D01*
X0218870Y0046899D01*
X0219537Y0047567D02*
X0219871Y0047567D01*
X0219871Y0044067D02*
X0219203Y0044067D01*
X0218870Y0043734D01*
X0218870Y0043400D01*
X0219203Y0043067D01*
X0219871Y0043067D01*
X0220204Y0042733D01*
X0220204Y0042399D01*
X0219871Y0042066D01*
X0219203Y0042066D01*
X0218870Y0042399D01*
X0218870Y0042733D01*
X0219203Y0043067D01*
X0219871Y0043067D02*
X0220204Y0043400D01*
X0220204Y0043734D01*
X0219871Y0044067D01*
X0217902Y0044067D02*
X0216568Y0044067D01*
X0216568Y0043067D01*
X0217235Y0043400D01*
X0217569Y0043400D01*
X0217902Y0043067D01*
X0217902Y0042399D01*
X0217569Y0042066D01*
X0216901Y0042066D01*
X0216568Y0042399D01*
X0215600Y0042066D02*
X0214933Y0042733D01*
X0215267Y0042733D02*
X0214266Y0042733D01*
X0214266Y0042066D02*
X0214266Y0044067D01*
X0215267Y0044067D01*
X0215600Y0043734D01*
X0215600Y0043067D01*
X0215267Y0042733D01*
X0215267Y0040067D02*
X0215600Y0039734D01*
X0215600Y0039067D01*
X0215267Y0038733D01*
X0214266Y0038733D01*
X0214933Y0038733D02*
X0215600Y0038066D01*
X0216568Y0038399D02*
X0216901Y0038066D01*
X0217569Y0038066D01*
X0217902Y0038399D01*
X0217902Y0039067D01*
X0217569Y0039400D01*
X0217235Y0039400D01*
X0216568Y0039067D01*
X0216568Y0040067D01*
X0217902Y0040067D01*
X0218870Y0040067D02*
X0220204Y0040067D01*
X0220204Y0039734D01*
X0218870Y0038399D01*
X0218870Y0038066D01*
X0215267Y0040067D02*
X0214266Y0040067D01*
X0214266Y0038066D01*
X0221000Y0031550D02*
X0221000Y0029550D01*
X0222000Y0029550D01*
X0221000Y0029550D02*
X0221000Y0027550D01*
X0221000Y0026550D02*
X0221000Y0024550D01*
X0222000Y0024550D01*
X0221000Y0024550D02*
X0221000Y0022550D01*
X0220000Y0023550D02*
X0220000Y0025550D01*
X0220000Y0028550D02*
X0220000Y0030550D01*
X0218750Y0021436D02*
X0218750Y0020102D01*
X0218750Y0020769D02*
X0216748Y0020769D01*
X0217416Y0020102D01*
X0217082Y0019134D02*
X0216748Y0018801D01*
X0216748Y0018134D01*
X0217082Y0017800D01*
X0217416Y0017800D01*
X0217749Y0018134D01*
X0217749Y0018801D01*
X0218083Y0019134D01*
X0218416Y0019134D01*
X0218750Y0018801D01*
X0218750Y0018134D01*
X0218416Y0017800D01*
X0226313Y0006302D02*
X0226981Y0006302D01*
X0226647Y0006302D02*
X0226647Y0004634D01*
X0226313Y0004300D01*
X0225980Y0004300D01*
X0225646Y0004634D01*
X0227948Y0004634D02*
X0228282Y0004300D01*
X0228949Y0004300D01*
X0229283Y0004634D01*
X0229283Y0005301D01*
X0228949Y0005634D01*
X0228615Y0005634D01*
X0227948Y0005301D01*
X0227948Y0006302D01*
X0229283Y0006302D01*
X0148497Y0047976D02*
X0148163Y0047643D01*
X0147496Y0047643D01*
X0147162Y0047976D01*
X0147829Y0048643D02*
X0148163Y0048643D01*
X0148497Y0048310D01*
X0148497Y0047976D01*
X0148163Y0048643D02*
X0148497Y0048977D01*
X0148497Y0049311D01*
X0148163Y0049644D01*
X0147496Y0049644D01*
X0147162Y0049311D01*
X0146195Y0049644D02*
X0146195Y0047976D01*
X0145861Y0047643D01*
X0145194Y0047643D01*
X0144860Y0047976D01*
X0144860Y0049644D01*
X0145182Y0052378D02*
X0145516Y0052712D01*
X0145516Y0053379D01*
X0145182Y0053713D01*
X0145516Y0054680D02*
X0144181Y0056015D01*
X0143848Y0056015D01*
X0143514Y0055681D01*
X0143514Y0055014D01*
X0143848Y0054680D01*
X0143848Y0053713D02*
X0143514Y0053379D01*
X0143514Y0052712D01*
X0143848Y0052378D01*
X0145182Y0052378D01*
X0145516Y0054680D02*
X0145516Y0056015D01*
X0145182Y0056982D02*
X0144849Y0056982D01*
X0144515Y0057316D01*
X0144515Y0057983D01*
X0144849Y0058317D01*
X0145182Y0058317D01*
X0145516Y0057983D01*
X0145516Y0057316D01*
X0145182Y0056982D01*
X0144515Y0057316D02*
X0144181Y0056982D01*
X0143848Y0056982D01*
X0143514Y0057316D01*
X0143514Y0057983D01*
X0143848Y0058317D01*
X0144181Y0058317D01*
X0144515Y0057983D01*
X0135484Y0058253D02*
X0135151Y0057920D01*
X0135484Y0058253D02*
X0135484Y0058921D01*
X0135151Y0059254D01*
X0134483Y0059254D01*
X0134150Y0058921D01*
X0134150Y0058587D01*
X0134483Y0057920D01*
X0133483Y0057920D01*
X0133483Y0059254D01*
X0133816Y0056952D02*
X0134150Y0056952D01*
X0134483Y0056619D01*
X0134817Y0056952D01*
X0135151Y0056952D01*
X0135484Y0056619D01*
X0135484Y0055951D01*
X0135151Y0055618D01*
X0134483Y0056285D02*
X0134483Y0056619D01*
X0133816Y0056952D02*
X0133483Y0056619D01*
X0133483Y0055951D01*
X0133816Y0055618D01*
X0133816Y0054650D02*
X0133483Y0054317D01*
X0133483Y0053649D01*
X0133816Y0053316D01*
X0135151Y0053316D01*
X0135484Y0053649D01*
X0135484Y0054317D01*
X0135151Y0054650D01*
X0119402Y0057399D02*
X0119069Y0057066D01*
X0118401Y0057066D01*
X0118068Y0057399D01*
X0118735Y0058067D02*
X0119069Y0058067D01*
X0119402Y0057733D01*
X0119402Y0057399D01*
X0119069Y0058067D02*
X0119402Y0058400D01*
X0119402Y0058734D01*
X0119069Y0059067D01*
X0118401Y0059067D01*
X0118068Y0058734D01*
X0117100Y0058734D02*
X0116767Y0059067D01*
X0116099Y0059067D01*
X0115766Y0058734D01*
X0115766Y0057399D01*
X0116099Y0057066D01*
X0116767Y0057066D01*
X0117100Y0057399D01*
X0116767Y0051567D02*
X0115766Y0051567D01*
X0115766Y0049566D01*
X0117100Y0051234D02*
X0116767Y0051567D01*
X0116767Y0044067D02*
X0116099Y0044067D01*
X0115766Y0043734D01*
X0115766Y0042399D01*
X0116099Y0042066D01*
X0116767Y0042066D01*
X0117100Y0042399D01*
X0118068Y0043067D02*
X0119402Y0043067D01*
X0120370Y0043400D02*
X0121037Y0044067D01*
X0119069Y0044067D02*
X0118068Y0043067D01*
X0117100Y0043734D02*
X0116767Y0044067D01*
X0119069Y0044067D02*
X0119069Y0042066D01*
X0083767Y0027036D02*
X0083100Y0026702D01*
X0082432Y0026035D01*
X0083433Y0026035D01*
X0083767Y0025701D01*
X0083767Y0025368D01*
X0083433Y0025034D01*
X0082766Y0025034D01*
X0082432Y0025368D01*
X0082432Y0026035D01*
X0081465Y0026369D02*
X0080130Y0025034D01*
X0081465Y0025034D01*
X0081465Y0026369D02*
X0081465Y0026702D01*
X0081131Y0027036D01*
X0080464Y0027036D01*
X0080130Y0026702D01*
X0079163Y0026702D02*
X0078829Y0027036D01*
X0078162Y0027036D01*
X0077828Y0026702D01*
X0077828Y0025368D01*
X0078162Y0025034D01*
X0078829Y0025034D01*
X0079163Y0025368D01*
X0076516Y0025180D02*
X0075181Y0026515D01*
X0074848Y0026515D01*
X0074514Y0026181D01*
X0074514Y0025514D01*
X0074848Y0025180D01*
X0074848Y0024213D02*
X0074514Y0023879D01*
X0074514Y0023212D01*
X0074848Y0022878D01*
X0076182Y0022878D01*
X0076516Y0023212D01*
X0076516Y0023879D01*
X0076182Y0024213D01*
X0076516Y0025180D02*
X0076516Y0026515D01*
X0076516Y0027482D02*
X0075181Y0028817D01*
X0074848Y0028817D01*
X0074514Y0028483D01*
X0074514Y0027816D01*
X0074848Y0027482D01*
X0073516Y0027816D02*
X0073516Y0028483D01*
X0073182Y0028817D01*
X0072849Y0028817D01*
X0072515Y0028483D01*
X0072515Y0027482D01*
X0073182Y0027482D01*
X0073516Y0027816D01*
X0072515Y0027482D02*
X0071848Y0028150D01*
X0071514Y0028817D01*
X0076516Y0028817D02*
X0076516Y0027482D01*
X0073516Y0026515D02*
X0073516Y0025180D01*
X0073516Y0025848D02*
X0071514Y0025848D01*
X0072181Y0025180D01*
X0071848Y0024213D02*
X0072515Y0024213D01*
X0072849Y0023879D01*
X0072849Y0022878D01*
X0073516Y0022878D02*
X0071514Y0022878D01*
X0071514Y0023879D01*
X0071848Y0024213D01*
X0072849Y0023546D02*
X0073516Y0024213D01*
X0077828Y0023536D02*
X0077828Y0021534D01*
X0077828Y0022201D02*
X0078829Y0022201D01*
X0079163Y0022535D01*
X0079163Y0023202D01*
X0078829Y0023536D01*
X0077828Y0023536D01*
X0078496Y0022201D02*
X0079163Y0021534D01*
X0080130Y0021534D02*
X0081465Y0021534D01*
X0080798Y0021534D02*
X0080798Y0023536D01*
X0080130Y0022869D01*
X0082432Y0022869D02*
X0082766Y0022535D01*
X0083767Y0022535D01*
X0083767Y0021868D02*
X0083767Y0023202D01*
X0083433Y0023536D01*
X0082766Y0023536D01*
X0082432Y0023202D01*
X0082432Y0022869D01*
X0082432Y0021868D02*
X0082766Y0021534D01*
X0083433Y0021534D01*
X0083767Y0021868D01*
X0082416Y0017540D02*
X0081082Y0017540D01*
X0080748Y0017207D01*
X0080748Y0016539D01*
X0081082Y0016206D01*
X0081416Y0016206D01*
X0081749Y0016539D01*
X0081749Y0017540D01*
X0082416Y0017540D02*
X0082750Y0017207D01*
X0082750Y0016539D01*
X0082416Y0016206D01*
X0082416Y0015238D02*
X0082750Y0014905D01*
X0082750Y0014238D01*
X0082416Y0013904D01*
X0081082Y0015238D01*
X0082416Y0015238D01*
X0081082Y0015238D02*
X0080748Y0014905D01*
X0080748Y0014238D01*
X0081082Y0013904D01*
X0082416Y0013904D01*
X0082750Y0012936D02*
X0082750Y0011602D01*
X0082750Y0012269D02*
X0080748Y0012269D01*
X0081416Y0011602D01*
X0081082Y0010634D02*
X0080748Y0010301D01*
X0080748Y0009634D01*
X0081082Y0009300D01*
X0082416Y0009300D01*
X0082750Y0009634D01*
X0082750Y0010301D01*
X0082416Y0010634D01*
X0084828Y0014534D02*
X0084828Y0016536D01*
X0085829Y0016536D01*
X0086163Y0016202D01*
X0086163Y0015535D01*
X0085829Y0015201D01*
X0084828Y0015201D01*
X0085496Y0015201D02*
X0086163Y0014534D01*
X0087130Y0014534D02*
X0088465Y0014534D01*
X0087798Y0014534D02*
X0087798Y0016536D01*
X0087130Y0015869D01*
X0089432Y0015869D02*
X0089432Y0016202D01*
X0089766Y0016536D01*
X0090433Y0016536D01*
X0090767Y0016202D01*
X0090767Y0015869D01*
X0090433Y0015535D01*
X0089766Y0015535D01*
X0089432Y0015869D01*
X0089766Y0015535D02*
X0089432Y0015201D01*
X0089432Y0014868D01*
X0089766Y0014534D01*
X0090433Y0014534D01*
X0090767Y0014868D01*
X0090767Y0015201D01*
X0090433Y0015535D01*
X0093014Y0016014D02*
X0093014Y0016681D01*
X0093348Y0017015D01*
X0093681Y0017015D01*
X0095016Y0015680D01*
X0095016Y0017015D01*
X0094682Y0017982D02*
X0095016Y0018316D01*
X0095016Y0018983D01*
X0094682Y0019317D01*
X0093348Y0019317D01*
X0093014Y0018983D01*
X0093014Y0018316D01*
X0093348Y0017982D01*
X0093681Y0017982D01*
X0094015Y0018316D01*
X0094015Y0019317D01*
X0097014Y0018983D02*
X0097348Y0019317D01*
X0098682Y0017982D01*
X0099016Y0018316D01*
X0099016Y0018983D01*
X0098682Y0019317D01*
X0097348Y0019317D01*
X0097014Y0018983D02*
X0097014Y0018316D01*
X0097348Y0017982D01*
X0098682Y0017982D01*
X0098682Y0017015D02*
X0099016Y0016681D01*
X0099016Y0016014D01*
X0098682Y0015680D01*
X0098015Y0016348D02*
X0098015Y0016681D01*
X0098349Y0017015D01*
X0098682Y0017015D01*
X0098015Y0016681D02*
X0097681Y0017015D01*
X0097348Y0017015D01*
X0097014Y0016681D01*
X0097014Y0016014D01*
X0097348Y0015680D01*
X0097348Y0014713D02*
X0097014Y0014379D01*
X0097014Y0013712D01*
X0097348Y0013378D01*
X0098682Y0013378D01*
X0099016Y0013712D01*
X0099016Y0014379D01*
X0098682Y0014713D01*
X0095016Y0014379D02*
X0094682Y0014713D01*
X0095016Y0014379D02*
X0095016Y0013712D01*
X0094682Y0013378D01*
X0093348Y0013378D01*
X0093014Y0013712D01*
X0093014Y0014379D01*
X0093348Y0014713D01*
X0093348Y0015680D02*
X0093014Y0016014D01*
X0092043Y0007802D02*
X0091376Y0007802D01*
X0091042Y0007468D01*
X0091042Y0006134D01*
X0091376Y0005800D01*
X0092043Y0005800D01*
X0092377Y0006134D01*
X0093344Y0005800D02*
X0094679Y0005800D01*
X0094011Y0005800D02*
X0094011Y0007802D01*
X0093344Y0007134D01*
X0092377Y0007468D02*
X0092043Y0007802D01*
X0095646Y0007468D02*
X0095646Y0006134D01*
X0096981Y0007468D01*
X0096981Y0006134D01*
X0096647Y0005800D01*
X0095980Y0005800D01*
X0095646Y0006134D01*
X0095646Y0007468D02*
X0095980Y0007802D01*
X0096647Y0007802D01*
X0096981Y0007468D01*
X0097948Y0007468D02*
X0097948Y0007134D01*
X0098282Y0006801D01*
X0098949Y0006801D01*
X0099282Y0006467D01*
X0099282Y0006134D01*
X0098949Y0005800D01*
X0098282Y0005800D01*
X0097948Y0006134D01*
X0097948Y0006467D01*
X0098282Y0006801D01*
X0098949Y0006801D02*
X0099282Y0007134D01*
X0099282Y0007468D01*
X0098949Y0007802D01*
X0098282Y0007802D01*
X0097948Y0007468D01*
X0112750Y0017467D02*
X0113417Y0016800D01*
X0114084Y0017467D01*
X0114084Y0018802D01*
X0112750Y0018802D02*
X0112750Y0017467D01*
X0115052Y0017134D02*
X0115386Y0016800D01*
X0116386Y0016800D01*
X0117354Y0016800D02*
X0117354Y0018134D01*
X0117688Y0018134D01*
X0118021Y0017801D01*
X0118355Y0018134D01*
X0118688Y0017801D01*
X0118688Y0016800D01*
X0118021Y0016800D02*
X0118021Y0017801D01*
X0119656Y0017801D02*
X0120990Y0017801D01*
X0120990Y0018134D02*
X0120990Y0016800D01*
X0121958Y0016800D02*
X0123292Y0018134D01*
X0123292Y0018468D01*
X0122959Y0018802D01*
X0122291Y0018802D01*
X0121958Y0018468D01*
X0120990Y0018134D02*
X0120323Y0018802D01*
X0119656Y0018134D01*
X0119656Y0016800D01*
X0121958Y0016800D02*
X0123292Y0016800D01*
X0116386Y0018134D02*
X0115386Y0018134D01*
X0115052Y0017801D01*
X0115052Y0017134D01*
X0129542Y0007468D02*
X0129542Y0006134D01*
X0129876Y0005800D01*
X0130543Y0005800D01*
X0130877Y0006134D01*
X0131844Y0005800D02*
X0133179Y0005800D01*
X0132511Y0005800D02*
X0132511Y0007802D01*
X0131844Y0007134D01*
X0130877Y0007468D02*
X0130543Y0007802D01*
X0129876Y0007802D01*
X0129542Y0007468D01*
X0134146Y0007468D02*
X0134146Y0006134D01*
X0135481Y0007468D01*
X0135481Y0006134D01*
X0135147Y0005800D01*
X0134480Y0005800D01*
X0134146Y0006134D01*
X0134146Y0007468D02*
X0134480Y0007802D01*
X0135147Y0007802D01*
X0135481Y0007468D01*
X0136448Y0006801D02*
X0137115Y0007468D01*
X0137782Y0007802D01*
X0137449Y0006801D02*
X0136448Y0006801D01*
X0136448Y0006134D01*
X0136782Y0005800D01*
X0137449Y0005800D01*
X0137782Y0006134D01*
X0137782Y0006467D01*
X0137449Y0006801D01*
X0074750Y0009634D02*
X0074750Y0010301D01*
X0074416Y0010634D01*
X0074750Y0011602D02*
X0074750Y0012936D01*
X0074750Y0012269D02*
X0072748Y0012269D01*
X0073416Y0011602D01*
X0073082Y0010634D02*
X0072748Y0010301D01*
X0072748Y0009634D01*
X0073082Y0009300D01*
X0074416Y0009300D01*
X0074750Y0009634D01*
X0074416Y0013904D02*
X0073082Y0013904D01*
X0072748Y0014238D01*
X0072748Y0014905D01*
X0073082Y0015238D01*
X0074416Y0013904D01*
X0074750Y0014238D01*
X0074750Y0014905D01*
X0074416Y0015238D01*
X0073082Y0015238D01*
X0073749Y0016206D02*
X0073749Y0017540D01*
X0072748Y0017207D02*
X0073749Y0016206D01*
X0074750Y0017207D02*
X0072748Y0017207D01*
X0064831Y0016881D02*
X0056169Y0016881D01*
X0052567Y0016447D02*
X0051232Y0016447D01*
X0052567Y0017781D01*
X0052567Y0018115D01*
X0052233Y0018449D01*
X0051566Y0018449D01*
X0051232Y0018115D01*
X0050265Y0018449D02*
X0048930Y0018449D01*
X0048930Y0016447D01*
X0047963Y0016447D02*
X0046628Y0016447D01*
X0046628Y0018449D01*
X0048930Y0017448D02*
X0049598Y0017448D01*
X0057766Y0021899D02*
X0058099Y0021566D01*
X0058767Y0021566D01*
X0059100Y0021899D01*
X0060068Y0021566D02*
X0061402Y0021566D01*
X0060735Y0021566D02*
X0060735Y0023567D01*
X0060068Y0022900D01*
X0059100Y0023234D02*
X0058767Y0023567D01*
X0058099Y0023567D01*
X0057766Y0023234D01*
X0057766Y0021899D01*
X0062370Y0021899D02*
X0063704Y0023234D01*
X0063704Y0021899D01*
X0063371Y0021566D01*
X0062703Y0021566D01*
X0062370Y0021899D01*
X0062370Y0023234D01*
X0062703Y0023567D01*
X0063371Y0023567D01*
X0063704Y0023234D01*
X0064672Y0023567D02*
X0064672Y0022567D01*
X0065339Y0022900D01*
X0065672Y0022900D01*
X0066006Y0022567D01*
X0066006Y0021899D01*
X0065672Y0021566D01*
X0065005Y0021566D01*
X0064672Y0021899D01*
X0064672Y0023567D02*
X0066006Y0023567D01*
X0063704Y0026353D02*
X0062370Y0026353D01*
X0063037Y0026353D02*
X0063037Y0028355D01*
X0062370Y0027688D01*
X0061402Y0028355D02*
X0060068Y0028355D01*
X0060068Y0026353D01*
X0059100Y0026353D02*
X0057766Y0026353D01*
X0057766Y0028355D01*
X0060068Y0027354D02*
X0060735Y0027354D01*
X0066266Y0034066D02*
X0066266Y0036067D01*
X0067267Y0036067D01*
X0067600Y0035734D01*
X0067600Y0035067D01*
X0067267Y0034733D01*
X0066266Y0034733D01*
X0066933Y0034733D02*
X0067600Y0034066D01*
X0068568Y0034066D02*
X0069902Y0034066D01*
X0069235Y0034066D02*
X0069235Y0036067D01*
X0068568Y0035400D01*
X0070870Y0035067D02*
X0070870Y0036067D01*
X0072204Y0036067D01*
X0071871Y0035400D02*
X0072204Y0035067D01*
X0072204Y0034399D01*
X0071871Y0034066D01*
X0071203Y0034066D01*
X0070870Y0034399D01*
X0070870Y0035067D02*
X0071537Y0035400D01*
X0071871Y0035400D01*
X0071933Y0039034D02*
X0071266Y0039034D01*
X0070932Y0039368D01*
X0072267Y0040702D01*
X0072267Y0039368D01*
X0071933Y0039034D01*
X0070932Y0039368D02*
X0070932Y0040702D01*
X0071266Y0041036D01*
X0071933Y0041036D01*
X0072267Y0040702D01*
X0069965Y0040035D02*
X0068630Y0040035D01*
X0069631Y0041036D01*
X0069631Y0039034D01*
X0067663Y0039368D02*
X0067329Y0039034D01*
X0066662Y0039034D01*
X0066328Y0039368D01*
X0066328Y0040702D01*
X0066662Y0041036D01*
X0067329Y0041036D01*
X0067663Y0040702D01*
X0067816Y0043316D02*
X0069151Y0043316D01*
X0069484Y0043649D01*
X0069484Y0044317D01*
X0069151Y0044650D01*
X0069151Y0045618D02*
X0069484Y0045951D01*
X0069484Y0046619D01*
X0069151Y0046952D01*
X0068817Y0046952D01*
X0068483Y0046619D01*
X0068483Y0046285D01*
X0068483Y0046619D02*
X0068150Y0046952D01*
X0067816Y0046952D01*
X0067483Y0046619D01*
X0067483Y0045951D01*
X0067816Y0045618D01*
X0067816Y0044650D02*
X0067483Y0044317D01*
X0067483Y0043649D01*
X0067816Y0043316D01*
X0065984Y0043316D02*
X0063983Y0043316D01*
X0063983Y0044317D01*
X0064316Y0044650D01*
X0064983Y0044650D01*
X0065317Y0044317D01*
X0065317Y0043316D01*
X0065317Y0043983D02*
X0065984Y0044650D01*
X0065984Y0045618D02*
X0064650Y0046952D01*
X0064316Y0046952D01*
X0063983Y0046619D01*
X0063983Y0045951D01*
X0064316Y0045618D01*
X0065984Y0045618D02*
X0065984Y0046952D01*
X0065651Y0047920D02*
X0065984Y0048253D01*
X0065984Y0048921D01*
X0065651Y0049254D01*
X0064983Y0049254D01*
X0064650Y0048921D01*
X0064650Y0048587D01*
X0064983Y0047920D01*
X0063983Y0047920D01*
X0063983Y0049254D01*
X0062484Y0048921D02*
X0060483Y0048921D01*
X0061483Y0047920D01*
X0061483Y0049254D01*
X0061150Y0046952D02*
X0060816Y0046952D01*
X0060483Y0046619D01*
X0060483Y0045951D01*
X0060816Y0045618D01*
X0060816Y0044650D02*
X0061483Y0044650D01*
X0061817Y0044317D01*
X0061817Y0043316D01*
X0061817Y0043983D02*
X0062484Y0044650D01*
X0062484Y0045618D02*
X0061150Y0046952D01*
X0062484Y0046952D02*
X0062484Y0045618D01*
X0060816Y0044650D02*
X0060483Y0044317D01*
X0060483Y0043316D01*
X0062484Y0043316D01*
X0067483Y0048253D02*
X0067816Y0047920D01*
X0068150Y0047920D01*
X0068483Y0048253D01*
X0068483Y0049254D01*
X0067816Y0049254D02*
X0067483Y0048921D01*
X0067483Y0048253D01*
X0067816Y0049254D02*
X0069151Y0049254D01*
X0069484Y0048921D01*
X0069484Y0048253D01*
X0069151Y0047920D01*
X0125514Y0082514D02*
X0125848Y0082180D01*
X0127182Y0082180D01*
X0127516Y0082514D01*
X0127516Y0083181D01*
X0127182Y0083515D01*
X0127182Y0084482D02*
X0127516Y0084816D01*
X0127516Y0085483D01*
X0127182Y0085817D01*
X0126849Y0085817D01*
X0126515Y0085483D01*
X0126515Y0085150D01*
X0126515Y0085483D02*
X0126181Y0085817D01*
X0125848Y0085817D01*
X0125514Y0085483D01*
X0125514Y0084816D01*
X0125848Y0084482D01*
X0125848Y0083515D02*
X0125514Y0083181D01*
X0125514Y0082514D01*
X0164012Y0086880D02*
X0164956Y0087824D01*
X0165640Y0088508D02*
X0164225Y0089923D01*
X0165168Y0089452D02*
X0166584Y0089452D01*
X0165168Y0088980D02*
X0165168Y0090867D01*
X0180000Y0097800D02*
X0180000Y0100300D01*
X0190000Y0100300D02*
X0190000Y0097800D01*
X0196014Y0097514D02*
X0196014Y0098181D01*
X0196348Y0098515D01*
X0196681Y0098515D01*
X0197015Y0098181D01*
X0197015Y0097514D01*
X0196681Y0097180D01*
X0196348Y0097180D01*
X0196014Y0097514D01*
X0197015Y0097514D02*
X0197349Y0097180D01*
X0197682Y0097180D01*
X0198016Y0097514D01*
X0198016Y0098181D01*
X0197682Y0098515D01*
X0197349Y0098515D01*
X0197015Y0098181D01*
X0197682Y0099482D02*
X0198016Y0099482D01*
X0197682Y0099482D02*
X0196348Y0100817D01*
X0196014Y0100817D01*
X0196014Y0099482D01*
X0196348Y0096213D02*
X0196014Y0095879D01*
X0196014Y0095212D01*
X0196348Y0094878D01*
X0197682Y0094878D01*
X0198016Y0095212D01*
X0198016Y0095879D01*
X0197682Y0096213D01*
X0201248Y0096832D02*
X0201582Y0096498D01*
X0201248Y0096832D02*
X0201248Y0097499D01*
X0201582Y0097833D01*
X0201916Y0097833D01*
X0203250Y0096498D01*
X0203250Y0097833D01*
X0202916Y0095531D02*
X0201582Y0095531D01*
X0201248Y0095197D01*
X0201248Y0094196D01*
X0203250Y0094196D01*
X0203250Y0095197D01*
X0202916Y0095531D01*
X0214998Y0091373D02*
X0215666Y0090706D01*
X0214998Y0091373D02*
X0217000Y0091373D01*
X0217000Y0090706D02*
X0217000Y0092040D01*
X0216666Y0089738D02*
X0215332Y0089738D01*
X0214998Y0089405D01*
X0214998Y0088404D01*
X0217000Y0088404D01*
X0217000Y0089405D01*
X0216666Y0089738D01*
X0217000Y0087436D02*
X0217000Y0086102D01*
X0214998Y0086102D01*
X0214998Y0087436D01*
X0215999Y0086769D02*
X0215999Y0086102D01*
X0217000Y0085134D02*
X0217000Y0083800D01*
X0214998Y0083800D01*
X0220000Y0080550D02*
X0220000Y0078550D01*
X0221000Y0079550D02*
X0221000Y0077550D01*
X0221000Y0079550D02*
X0222000Y0079550D01*
X0221000Y0079550D02*
X0221000Y0081550D01*
X0216682Y0072817D02*
X0215348Y0072817D01*
X0215014Y0072483D01*
X0215014Y0071816D01*
X0215348Y0071482D01*
X0215681Y0071482D01*
X0216015Y0071816D01*
X0216015Y0072817D01*
X0216682Y0072817D02*
X0217016Y0072483D01*
X0217016Y0071816D01*
X0216682Y0071482D01*
X0216682Y0070515D02*
X0217016Y0070181D01*
X0217016Y0069514D01*
X0216682Y0069180D01*
X0216015Y0069180D02*
X0215681Y0069848D01*
X0215681Y0070181D01*
X0216015Y0070515D01*
X0216682Y0070515D01*
X0216015Y0069180D02*
X0215014Y0069180D01*
X0215014Y0070515D01*
X0213016Y0070181D02*
X0213016Y0069514D01*
X0212682Y0069180D01*
X0212015Y0069180D01*
X0212015Y0070181D01*
X0212349Y0070515D01*
X0212682Y0070515D01*
X0213016Y0070181D01*
X0213016Y0071482D02*
X0211681Y0072817D01*
X0211348Y0072817D01*
X0211014Y0072483D01*
X0211014Y0071816D01*
X0211348Y0071482D01*
X0211014Y0070515D02*
X0211348Y0069848D01*
X0212015Y0069180D01*
X0212015Y0068213D02*
X0211348Y0068213D01*
X0211014Y0067879D01*
X0211014Y0066878D01*
X0213016Y0066878D01*
X0212349Y0066878D02*
X0212349Y0067879D01*
X0212015Y0068213D01*
X0212349Y0067546D02*
X0213016Y0068213D01*
X0215014Y0067879D02*
X0215014Y0066878D01*
X0217016Y0066878D01*
X0216349Y0066878D02*
X0216349Y0067879D01*
X0216015Y0068213D01*
X0215348Y0068213D01*
X0215014Y0067879D01*
X0216349Y0067546D02*
X0217016Y0068213D01*
X0213016Y0071482D02*
X0213016Y0072817D01*
X0198173Y0078861D02*
X0198173Y0081223D01*
X0195811Y0081223D01*
X0186000Y0092550D02*
X0184000Y0092550D01*
X0216248Y0098728D02*
X0216582Y0098394D01*
X0217916Y0098394D01*
X0218250Y0098728D01*
X0218250Y0099395D01*
X0217916Y0099729D01*
X0217916Y0100696D02*
X0217583Y0100696D01*
X0217249Y0101030D01*
X0217249Y0101697D01*
X0217583Y0102031D01*
X0217916Y0102031D01*
X0218250Y0101697D01*
X0218250Y0101030D01*
X0217916Y0100696D01*
X0217249Y0101030D02*
X0216916Y0100696D01*
X0216582Y0100696D01*
X0216248Y0101030D01*
X0216248Y0101697D01*
X0216582Y0102031D01*
X0216916Y0102031D01*
X0217249Y0101697D01*
X0216916Y0102998D02*
X0216582Y0102998D01*
X0216248Y0103332D01*
X0216248Y0103999D01*
X0216582Y0104332D01*
X0216916Y0104332D01*
X0217249Y0103999D01*
X0217249Y0103332D01*
X0216916Y0102998D01*
X0217249Y0103332D02*
X0217583Y0102998D01*
X0217916Y0102998D01*
X0218250Y0103332D01*
X0218250Y0103999D01*
X0217916Y0104332D01*
X0217583Y0104332D01*
X0217249Y0103999D01*
X0221000Y0101550D02*
X0221000Y0099550D01*
X0222000Y0099550D01*
X0221000Y0099550D02*
X0221000Y0097550D01*
X0220000Y0098550D02*
X0220000Y0100550D01*
X0216582Y0099729D02*
X0216248Y0099395D01*
X0216248Y0098728D01*
X0221000Y0107550D02*
X0221000Y0111550D01*
X0220000Y0110550D02*
X0220000Y0108550D01*
X0221000Y0109550D02*
X0222000Y0109550D01*
X0209750Y0114300D02*
X0209750Y0115301D01*
X0209416Y0115634D01*
X0208082Y0115634D01*
X0207748Y0115301D01*
X0207748Y0114300D01*
X0209750Y0114300D01*
X0209750Y0116602D02*
X0209750Y0117936D01*
X0209750Y0117269D02*
X0207748Y0117269D01*
X0208416Y0116602D01*
X0101012Y0107279D02*
X0101012Y0106945D01*
X0099678Y0105611D01*
X0101012Y0105611D01*
X0101012Y0107279D02*
X0100679Y0107613D01*
X0100012Y0107613D01*
X0099678Y0107279D01*
X0098710Y0107613D02*
X0098710Y0105945D01*
X0098377Y0105611D01*
X0097710Y0105611D01*
X0097376Y0105945D01*
X0097376Y0107613D01*
X0015750Y0112634D02*
X0015750Y0112967D01*
X0015416Y0113301D01*
X0013748Y0113301D01*
X0013748Y0113634D02*
X0013748Y0112967D01*
X0015416Y0112300D02*
X0015750Y0112634D01*
X0015750Y0114602D02*
X0015750Y0115936D01*
X0015750Y0115269D02*
X0013748Y0115269D01*
X0014416Y0114602D01*
X0169827Y0055239D02*
X0169827Y0052877D01*
X0172189Y0052877D01*
X0064831Y0008219D02*
X0056169Y0008219D01*
X0057344Y0007081D02*
X0057344Y0005413D01*
X0057678Y0005080D01*
X0058345Y0005080D01*
X0058679Y0005413D01*
X0058679Y0007081D01*
X0059646Y0006414D02*
X0060313Y0007081D01*
X0060313Y0005080D01*
X0059646Y0005080D02*
X0060981Y0005080D01*
X0061948Y0005413D02*
X0062282Y0005080D01*
X0062949Y0005080D01*
X0063282Y0005413D01*
X0063282Y0005747D01*
X0062949Y0006080D01*
X0062615Y0006080D01*
X0062949Y0006080D02*
X0063282Y0006414D01*
X0063282Y0006748D01*
X0062949Y0007081D01*
X0062282Y0007081D01*
X0061948Y0006748D01*
X0050832Y0007950D02*
X0050832Y0008422D01*
X0050596Y0008658D01*
X0050124Y0008658D01*
X0049417Y0007950D01*
X0049888Y0007478D01*
X0050360Y0007478D01*
X0050832Y0007950D01*
X0049417Y0007950D02*
X0049417Y0008894D01*
X0049652Y0009601D01*
X0048025Y0007974D02*
X0047789Y0007266D01*
X0047789Y0006322D01*
X0048497Y0007030D01*
X0048968Y0007030D01*
X0049204Y0006794D01*
X0049204Y0006322D01*
X0048732Y0005850D01*
X0048261Y0005850D01*
X0047789Y0006322D01*
X0047105Y0005638D02*
X0047105Y0005166D01*
X0046397Y0004459D01*
X0046869Y0004930D02*
X0047812Y0004930D01*
X0047105Y0005638D02*
X0046633Y0006110D01*
X0046161Y0006110D01*
X0045453Y0005402D01*
X0046869Y0003987D01*
X0044704Y0006322D02*
X0044232Y0005850D01*
X0043761Y0005850D01*
X0043289Y0006322D01*
X0043997Y0007030D01*
X0044468Y0007030D01*
X0044704Y0006794D01*
X0044704Y0006322D01*
X0045624Y0007242D02*
X0045388Y0007478D01*
X0045388Y0009365D01*
X0045152Y0009601D01*
X0044209Y0008658D01*
X0043525Y0007974D02*
X0043289Y0007266D01*
X0043289Y0006322D01*
X0042605Y0005638D02*
X0042605Y0005166D01*
X0041897Y0004459D01*
X0042369Y0004930D02*
X0043312Y0004930D01*
X0042605Y0005638D02*
X0042133Y0006110D01*
X0041661Y0006110D01*
X0040953Y0005402D01*
X0042369Y0003987D01*
D12*
X0153500Y0061050D02*
X0159505Y0061050D01*
X0161507Y0063052D01*
X0161507Y0071059D01*
X0159505Y0073060D01*
X0153500Y0073060D01*
X0153500Y0061050D01*
D13*
X0042500Y0009050D02*
X0018000Y0009050D01*
X0018000Y0022050D01*
X0040000Y0022050D02*
X0040000Y0014550D01*
X0042500Y0014550D01*
X0042500Y0009050D01*
X0062000Y0018750D02*
X0062000Y0020350D01*
X0078700Y0034050D02*
X0080300Y0034050D01*
X0076500Y0039250D02*
X0076500Y0040850D01*
X0078700Y0046050D02*
X0080300Y0046050D01*
X0088000Y0053750D02*
X0088000Y0055350D01*
X0093200Y0057550D02*
X0094800Y0057550D01*
X0111000Y0057250D02*
X0111000Y0058850D01*
X0111000Y0047850D02*
X0111000Y0046250D01*
X0111000Y0043850D02*
X0111000Y0042250D01*
X0111000Y0040350D02*
X0111000Y0038750D01*
X0111000Y0036350D02*
X0111000Y0034750D01*
X0111000Y0025350D02*
X0111000Y0023750D01*
X0098800Y0023050D02*
X0097200Y0023050D01*
X0094800Y0023050D02*
X0093200Y0023050D01*
X0088000Y0025250D02*
X0088000Y0026850D01*
X0125700Y0036050D02*
X0127300Y0036050D01*
X0127300Y0044050D02*
X0125700Y0044050D01*
X0129934Y0052484D02*
X0131066Y0053616D01*
X0136700Y0055550D02*
X0138300Y0055550D01*
X0140700Y0055550D02*
X0142300Y0055550D01*
X0171200Y0043050D02*
X0172800Y0043050D01*
X0139300Y0024550D02*
X0137700Y0024550D01*
X0131066Y0025984D02*
X0129934Y0027116D01*
X0098800Y0077050D02*
X0097200Y0077050D01*
X0094800Y0077050D02*
X0093200Y0077050D01*
X0088000Y0079250D02*
X0088000Y0080850D01*
X0080300Y0088050D02*
X0078700Y0088050D01*
X0076500Y0093250D02*
X0076500Y0094850D01*
X0078700Y0100050D02*
X0080300Y0100050D01*
X0088500Y0107750D02*
X0088500Y0109350D01*
X0093700Y0111050D02*
X0095300Y0111050D01*
X0111000Y0111250D02*
X0111000Y0112850D01*
X0111000Y0101850D02*
X0111000Y0100250D01*
X0111000Y0097850D02*
X0111000Y0096250D01*
X0111000Y0094350D02*
X0111000Y0092750D01*
X0111000Y0090350D02*
X0111000Y0088750D01*
X0111000Y0079350D02*
X0111000Y0077750D01*
X0129934Y0080616D02*
X0131066Y0079484D01*
X0137700Y0079050D02*
X0139300Y0079050D01*
X0127300Y0090050D02*
X0125700Y0090050D01*
X0125700Y0098050D02*
X0127300Y0098050D01*
X0129934Y0106484D02*
X0131066Y0107616D01*
X0136700Y0109550D02*
X0138300Y0109550D01*
X0140200Y0109550D02*
X0141800Y0109550D01*
X0175200Y0106050D02*
X0176800Y0106050D01*
X0193200Y0098050D02*
X0194800Y0098050D01*
X0200200Y0103850D02*
X0203800Y0103850D01*
X0211200Y0115750D02*
X0214800Y0115750D01*
X0213811Y0088719D02*
X0212000Y0088719D01*
X0212920Y0087499D01*
X0212000Y0088719D02*
X0210189Y0088719D01*
X0211140Y0087499D02*
X0211900Y0088659D01*
X0042500Y0119550D02*
X0040000Y0119550D01*
X0040000Y0112050D01*
X0042500Y0119550D02*
X0042500Y0125050D01*
X0018000Y0125050D01*
X0018000Y0112050D01*
X0013500Y0107050D02*
X0011000Y0109550D01*
X0011000Y0104550D01*
X0013500Y0107050D01*
D14*
X0081795Y0098971D03*
X0140953Y0104286D03*
X0140953Y0050286D03*
X0081795Y0044971D03*
D15*
X0079500Y0054550D03*
X0088000Y0058050D03*
X0111000Y0054550D03*
X0111000Y0050550D03*
X0111000Y0032050D03*
X0111000Y0028050D03*
X0088000Y0022550D03*
X0088000Y0018550D03*
X0069500Y0032050D03*
X0088000Y0072550D03*
X0088000Y0076550D03*
X0070000Y0086050D03*
X0080000Y0108550D03*
X0088500Y0112050D03*
X0111000Y0108550D03*
X0111000Y0104550D03*
X0111000Y0086050D03*
X0111000Y0082050D03*
X0210000Y0047550D03*
X0210000Y0043050D03*
X0210000Y0039050D03*
D16*
X0181200Y0044650D03*
X0177500Y0044650D03*
X0168000Y0043050D03*
X0142500Y0024550D03*
X0146500Y0020550D03*
X0075500Y0034050D03*
X0076000Y0046050D03*
X0072000Y0046050D03*
X0051500Y0012550D03*
X0047500Y0012550D03*
X0146500Y0075050D03*
X0142500Y0079050D03*
X0176000Y0097050D03*
X0212000Y0077050D03*
X0216000Y0077050D03*
X0076000Y0088050D03*
X0076000Y0100050D03*
X0072000Y0100050D03*
D17*
X0051500Y0025550D03*
X0051500Y0020550D03*
D18*
X0054004Y0015109D03*
X0221000Y0114550D03*
D19*
X0213620Y0101550D02*
X0212380Y0101550D01*
X0078620Y0014550D02*
X0077380Y0014550D01*
X0070620Y0013550D02*
X0069380Y0013550D01*
X0095500Y0011670D02*
X0095500Y0010430D01*
X0135000Y0010430D02*
X0135000Y0011670D01*
D20*
X0201323Y0056814D03*
D21*
X0201858Y0038097D03*
D22*
X0168000Y0090050D03*
M02*
