G75*
%MOIN*%
%OFA0B0*%
%FSLAX25Y25*%
%IPPOS*%
%LPD*%
%AMOC8*
5,1,8,0,0,1.08239X$1,22.5*
%
%ADD10R,0.01772X0.01181*%
%ADD11R,0.02559X0.05118*%
%ADD12R,0.03937X0.00984*%
%ADD13R,0.00984X0.03937*%
%ADD14R,0.07874X0.07874*%
%ADD15R,0.03150X0.03150*%
%ADD16R,0.02362X0.02362*%
%ADD17R,0.01969X0.02362*%
%ADD18R,0.02362X0.01969*%
%ADD19R,0.02953X0.01181*%
%ADD20R,0.05512X0.03937*%
D10*
X0077161Y0009991D03*
X0077161Y0012550D03*
X0077161Y0015109D03*
X0084839Y0015109D03*
X0084839Y0012550D03*
X0084839Y0009991D03*
X0117161Y0009991D03*
X0117161Y0012550D03*
X0117161Y0015109D03*
X0124839Y0015109D03*
X0124839Y0012550D03*
X0124839Y0009991D03*
D11*
X0121000Y0012550D03*
X0081000Y0012550D03*
D12*
X0085732Y0035129D03*
X0085732Y0037097D03*
X0085732Y0039066D03*
X0085732Y0041034D03*
X0085732Y0043003D03*
X0085732Y0044971D03*
X0102268Y0044971D03*
X0102268Y0043003D03*
X0102268Y0041034D03*
X0102268Y0039066D03*
X0102268Y0037097D03*
X0102268Y0035129D03*
X0131701Y0037097D03*
X0131701Y0039066D03*
X0131701Y0041034D03*
X0131701Y0043003D03*
X0144299Y0043003D03*
X0144299Y0041034D03*
X0144299Y0039066D03*
X0144299Y0037097D03*
X0102268Y0089129D03*
X0102268Y0091097D03*
X0102268Y0093066D03*
X0102268Y0095034D03*
X0102268Y0097003D03*
X0102268Y0098971D03*
X0085732Y0098971D03*
X0085732Y0097003D03*
X0085732Y0095034D03*
X0085732Y0093066D03*
X0085732Y0091097D03*
X0085732Y0089129D03*
X0131701Y0091097D03*
X0131701Y0093066D03*
X0131701Y0095034D03*
X0131701Y0097003D03*
X0144299Y0097003D03*
X0144299Y0095034D03*
X0144299Y0093066D03*
X0144299Y0091097D03*
D13*
X0140953Y0087751D03*
X0138984Y0087751D03*
X0137016Y0087751D03*
X0135047Y0087751D03*
X0135047Y0100349D03*
X0137016Y0100349D03*
X0138984Y0100349D03*
X0140953Y0100349D03*
X0098921Y0102318D03*
X0096953Y0102318D03*
X0094984Y0102318D03*
X0093016Y0102318D03*
X0091047Y0102318D03*
X0089079Y0102318D03*
X0089079Y0085782D03*
X0091047Y0085782D03*
X0093016Y0085782D03*
X0094984Y0085782D03*
X0096953Y0085782D03*
X0098921Y0085782D03*
X0098921Y0048318D03*
X0096953Y0048318D03*
X0094984Y0048318D03*
X0093016Y0048318D03*
X0091047Y0048318D03*
X0089079Y0048318D03*
X0089079Y0031782D03*
X0091047Y0031782D03*
X0093016Y0031782D03*
X0094984Y0031782D03*
X0096953Y0031782D03*
X0098921Y0031782D03*
X0135047Y0033751D03*
X0137016Y0033751D03*
X0138984Y0033751D03*
X0140953Y0033751D03*
X0140953Y0046349D03*
X0138984Y0046349D03*
X0137016Y0046349D03*
X0135047Y0046349D03*
D14*
X0094000Y0040050D03*
X0094000Y0094050D03*
D15*
X0138000Y0094050D03*
X0138000Y0040050D03*
D16*
X0058031Y0010550D03*
X0061969Y0010550D03*
X0061969Y0014550D03*
X0066031Y0014550D03*
X0069969Y0014550D03*
X0058031Y0014550D03*
X0078031Y0026050D03*
X0081969Y0026050D03*
X0086031Y0022550D03*
X0089969Y0022550D03*
X0075500Y0032081D03*
X0071500Y0032081D03*
X0071500Y0036019D03*
X0075500Y0036019D03*
X0076000Y0044081D03*
X0076000Y0048019D03*
X0071969Y0048050D03*
X0068031Y0048050D03*
X0086031Y0058050D03*
X0089969Y0058050D03*
X0089969Y0062050D03*
X0086031Y0062050D03*
X0109031Y0054550D03*
X0112969Y0054550D03*
X0112969Y0050550D03*
X0109031Y0050550D03*
X0109031Y0032050D03*
X0112969Y0032050D03*
X0112969Y0028050D03*
X0109031Y0028050D03*
X0141500Y0053581D03*
X0141500Y0057519D03*
X0145500Y0057519D03*
X0145500Y0053581D03*
X0112969Y0081550D03*
X0109031Y0081550D03*
X0109031Y0085550D03*
X0112969Y0085550D03*
X0089969Y0076550D03*
X0086031Y0076550D03*
X0081969Y0080050D03*
X0078031Y0080050D03*
X0076000Y0086081D03*
X0072000Y0086081D03*
X0072000Y0090019D03*
X0076000Y0090019D03*
X0076000Y0098081D03*
X0076000Y0102019D03*
X0071969Y0102050D03*
X0068031Y0102050D03*
X0086031Y0112050D03*
X0089969Y0112050D03*
X0089969Y0116050D03*
X0086031Y0116050D03*
X0109031Y0108550D03*
X0112969Y0108550D03*
X0112969Y0104550D03*
X0109031Y0104550D03*
X0141500Y0107581D03*
X0141500Y0111519D03*
X0145500Y0111519D03*
X0145500Y0107581D03*
D17*
X0137500Y0107581D03*
X0137500Y0111519D03*
X0126500Y0100019D03*
X0126500Y0096081D03*
X0126500Y0092019D03*
X0126500Y0088081D03*
X0137500Y0081019D03*
X0141000Y0081019D03*
X0141000Y0077081D03*
X0137500Y0077081D03*
X0137500Y0057519D03*
X0137500Y0053581D03*
X0126500Y0046019D03*
X0126500Y0042081D03*
X0126500Y0038019D03*
X0126500Y0034081D03*
X0137500Y0026519D03*
X0141000Y0026519D03*
X0141000Y0022581D03*
X0137500Y0022581D03*
X0111500Y0014519D03*
X0111500Y0010581D03*
X0094000Y0021081D03*
X0094000Y0025019D03*
X0079500Y0032081D03*
X0079500Y0036019D03*
X0079500Y0044081D03*
X0079500Y0048019D03*
X0094000Y0055581D03*
X0098000Y0055581D03*
X0098000Y0059519D03*
X0094000Y0059519D03*
X0094000Y0075081D03*
X0094000Y0079019D03*
X0079500Y0086081D03*
X0079500Y0090019D03*
X0079500Y0098081D03*
X0079500Y0102019D03*
X0094000Y0109081D03*
X0098000Y0109081D03*
X0098000Y0113019D03*
X0094000Y0113019D03*
X0165000Y0114581D03*
X0165000Y0118519D03*
X0187000Y0118519D03*
X0187000Y0114581D03*
X0194000Y0114581D03*
X0194000Y0118519D03*
X0216000Y0118519D03*
X0216000Y0114581D03*
X0184500Y0079519D03*
X0180500Y0079519D03*
X0180500Y0075581D03*
X0184500Y0075581D03*
X0185000Y0058019D03*
X0181000Y0058019D03*
X0177000Y0058019D03*
X0177000Y0054081D03*
X0181000Y0054081D03*
X0185000Y0054081D03*
X0198500Y0053081D03*
X0198500Y0057019D03*
X0194500Y0043019D03*
X0194500Y0039081D03*
X0172500Y0041081D03*
X0172500Y0045019D03*
X0166500Y0049081D03*
X0166500Y0053019D03*
D18*
X0192531Y0066550D03*
X0196469Y0066550D03*
X0196469Y0071050D03*
X0192531Y0071050D03*
X0174469Y0071050D03*
X0170531Y0071050D03*
G36*
X0130362Y0081303D02*
X0132031Y0082972D01*
X0133422Y0081581D01*
X0131753Y0079912D01*
X0130362Y0081303D01*
G37*
G36*
X0127578Y0078519D02*
X0129247Y0080188D01*
X0130638Y0078797D01*
X0128969Y0077128D01*
X0127578Y0078519D01*
G37*
X0125969Y0070550D03*
X0122031Y0070550D03*
X0122031Y0066550D03*
X0125969Y0066550D03*
X0112969Y0058050D03*
X0109031Y0058050D03*
X0089969Y0054550D03*
X0086031Y0054550D03*
X0109031Y0047050D03*
X0112969Y0047050D03*
X0112969Y0043050D03*
X0109031Y0043050D03*
X0109031Y0039050D03*
X0112969Y0039050D03*
X0112969Y0035550D03*
X0109031Y0035550D03*
X0109031Y0024550D03*
X0112969Y0024550D03*
G36*
X0127578Y0025019D02*
X0129247Y0026688D01*
X0130638Y0025297D01*
X0128969Y0023628D01*
X0127578Y0025019D01*
G37*
G36*
X0130362Y0027803D02*
X0132031Y0029472D01*
X0133422Y0028081D01*
X0131753Y0026412D01*
X0130362Y0027803D01*
G37*
X0089969Y0026050D03*
X0086031Y0026050D03*
X0078469Y0040050D03*
X0074531Y0040050D03*
X0069969Y0010550D03*
X0066031Y0010550D03*
G36*
X0131753Y0053188D02*
X0133422Y0051519D01*
X0132031Y0050128D01*
X0130362Y0051797D01*
X0131753Y0053188D01*
G37*
G36*
X0128969Y0055972D02*
X0130638Y0054303D01*
X0129247Y0052912D01*
X0127578Y0054581D01*
X0128969Y0055972D01*
G37*
X0112969Y0078050D03*
X0109031Y0078050D03*
X0109031Y0089050D03*
X0112969Y0089050D03*
X0112969Y0092550D03*
X0109031Y0092550D03*
X0109031Y0096050D03*
X0112969Y0096050D03*
X0112969Y0101050D03*
X0109031Y0101050D03*
X0089969Y0108550D03*
X0086031Y0108550D03*
X0078469Y0094050D03*
X0074531Y0094050D03*
X0086031Y0080050D03*
X0089969Y0080050D03*
G36*
X0131753Y0107188D02*
X0133422Y0105519D01*
X0132031Y0104128D01*
X0130362Y0105797D01*
X0131753Y0107188D01*
G37*
G36*
X0128969Y0109972D02*
X0130638Y0108303D01*
X0129247Y0106912D01*
X0127578Y0108581D01*
X0128969Y0109972D01*
G37*
X0112969Y0112050D03*
X0109031Y0112050D03*
D19*
X0170291Y0113597D03*
X0170291Y0115566D03*
X0170291Y0117534D03*
X0170291Y0119503D03*
X0181709Y0119503D03*
X0181709Y0117534D03*
X0181709Y0115566D03*
X0181709Y0113597D03*
X0199291Y0113597D03*
X0199291Y0115566D03*
X0199291Y0117534D03*
X0199291Y0119503D03*
X0210709Y0119503D03*
X0210709Y0117534D03*
X0210709Y0115566D03*
X0210709Y0113597D03*
D20*
X0205000Y0116550D03*
X0176000Y0116550D03*
M02*
