G75*
%MOIN*%
%OFA0B0*%
%FSLAX25Y25*%
%IPPOS*%
%LPD*%
%AMOC8*
5,1,8,0,0,1.08239X$1,22.5*
%
%ADD10C,0.06496*%
%ADD11C,0.07087*%
%ADD12C,0.05315*%
%ADD13C,0.01800*%
%ADD14C,0.00800*%
D10*
X0156500Y0029550D03*
D11*
X0167220Y0018050D03*
X0194780Y0018050D03*
D12*
X0190843Y0028680D03*
X0171157Y0028680D03*
D13*
X0173000Y0035050D03*
X0172000Y0038050D03*
X0168000Y0038050D03*
X0163000Y0047050D03*
X0174000Y0048550D03*
X0176500Y0049550D03*
X0182000Y0049550D03*
X0184500Y0049050D03*
X0188000Y0057050D03*
X0188000Y0063050D03*
X0184000Y0067050D03*
X0180000Y0071050D03*
X0188000Y0071050D03*
X0180000Y0063050D03*
X0166500Y0056550D03*
X0164000Y0056050D03*
X0158500Y0063550D03*
X0158000Y0066550D03*
X0155000Y0067050D03*
X0159500Y0068550D03*
X0162000Y0070050D03*
X0166500Y0071050D03*
X0164000Y0065050D03*
X0150000Y0057050D03*
X0148500Y0053550D03*
X0143500Y0048550D03*
X0135500Y0051050D03*
X0130500Y0049550D03*
X0126500Y0053050D03*
X0116000Y0058050D03*
X0108000Y0064050D03*
X0111000Y0068050D03*
X0118000Y0071050D03*
X0122000Y0073550D03*
X0116000Y0078550D03*
X0127000Y0080550D03*
X0131500Y0085050D03*
X0135000Y0082550D03*
X0144000Y0085550D03*
X0150000Y0081050D03*
X0152000Y0083550D03*
X0164000Y0083550D03*
X0181000Y0084550D03*
X0183500Y0084550D03*
X0191500Y0087050D03*
X0192000Y0084550D03*
X0188500Y0089550D03*
X0192500Y0092050D03*
X0185000Y0099550D03*
X0194000Y0103050D03*
X0190000Y0110050D03*
X0187000Y0110050D03*
X0190500Y0113550D03*
X0190500Y0116550D03*
X0186000Y0121550D03*
X0178000Y0118050D03*
X0178000Y0115050D03*
X0174000Y0115050D03*
X0174000Y0118050D03*
X0170500Y0121550D03*
X0165000Y0121550D03*
X0169000Y0129050D03*
X0144000Y0129050D03*
X0134000Y0124050D03*
X0131000Y0124050D03*
X0119000Y0129050D03*
X0116000Y0124050D03*
X0108500Y0117550D03*
X0100500Y0113050D03*
X0101500Y0110550D03*
X0098500Y0116050D03*
X0096000Y0117550D03*
X0093500Y0116050D03*
X0082000Y0112050D03*
X0091000Y0097050D03*
X0094000Y0094050D03*
X0091000Y0091050D03*
X0097000Y0091050D03*
X0097000Y0097050D03*
X0106000Y0097050D03*
X0106000Y0094050D03*
X0106000Y0091550D03*
X0116000Y0093050D03*
X0116000Y0089550D03*
X0116000Y0097050D03*
X0116000Y0101050D03*
X0127000Y0106050D03*
X0130500Y0103550D03*
X0135000Y0105550D03*
X0143500Y0103050D03*
X0148500Y0107550D03*
X0150000Y0111050D03*
X0155500Y0114050D03*
X0140500Y0114550D03*
X0137000Y0114550D03*
X0116000Y0112050D03*
X0094000Y0129050D03*
X0069000Y0129050D03*
X0044000Y0129050D03*
X0019000Y0129050D03*
X0007000Y0117050D03*
X0029000Y0107050D03*
X0029000Y0102050D03*
X0029000Y0097050D03*
X0029000Y0092050D03*
X0029000Y0087050D03*
X0029000Y0082050D03*
X0029000Y0077050D03*
X0029000Y0072050D03*
X0029000Y0067050D03*
X0029000Y0062050D03*
X0029000Y0057050D03*
X0029000Y0052050D03*
X0029000Y0047050D03*
X0029000Y0042050D03*
X0029000Y0037050D03*
X0029000Y0032050D03*
X0033500Y0023050D03*
X0036500Y0023050D03*
X0045000Y0029050D03*
X0056500Y0032050D03*
X0045000Y0037050D03*
X0056500Y0042050D03*
X0045000Y0047050D03*
X0045000Y0057050D03*
X0045000Y0067050D03*
X0045000Y0077050D03*
X0056500Y0084550D03*
X0066500Y0080050D03*
X0079000Y0083050D03*
X0069000Y0090050D03*
X0071500Y0094050D03*
X0069000Y0098050D03*
X0081500Y0094050D03*
X0100500Y0075050D03*
X0098500Y0072050D03*
X0096000Y0070550D03*
X0093500Y0072050D03*
X0090000Y0070050D03*
X0090000Y0065050D03*
X0093500Y0062550D03*
X0096000Y0062550D03*
X0098500Y0062550D03*
X0100500Y0060550D03*
X0102000Y0058050D03*
X0119000Y0066550D03*
X0129500Y0068050D03*
X0137500Y0074050D03*
X0140500Y0074050D03*
X0146500Y0070050D03*
X0140500Y0060550D03*
X0137500Y0060050D03*
X0116000Y0047050D03*
X0116000Y0043050D03*
X0116000Y0039550D03*
X0116000Y0035550D03*
X0106000Y0037050D03*
X0106000Y0040050D03*
X0106000Y0043050D03*
X0097000Y0043050D03*
X0094000Y0040050D03*
X0091000Y0037050D03*
X0097000Y0037050D03*
X0091000Y0043050D03*
X0081500Y0040050D03*
X0071500Y0040050D03*
X0068500Y0036050D03*
X0069500Y0044050D03*
X0079000Y0029050D03*
X0070000Y0020550D03*
X0062500Y0022550D03*
X0051500Y0017550D03*
X0044500Y0014550D03*
X0056500Y0007550D03*
X0060500Y0007550D03*
X0066500Y0008050D03*
X0074000Y0010550D03*
X0082000Y0018050D03*
X0090500Y0016550D03*
X0093500Y0018050D03*
X0096000Y0018050D03*
X0098500Y0018050D03*
X0100500Y0021050D03*
X0108000Y0017550D03*
X0111500Y0020050D03*
X0116000Y0024550D03*
X0127000Y0027050D03*
X0131000Y0030550D03*
X0135000Y0028550D03*
X0144000Y0031550D03*
X0146500Y0026550D03*
X0138500Y0019550D03*
X0146500Y0015550D03*
X0142500Y0012550D03*
X0150000Y0005050D03*
X0127500Y0010550D03*
X0127500Y0013050D03*
X0119000Y0005050D03*
X0107500Y0012050D03*
X0105000Y0012050D03*
X0099500Y0014050D03*
X0087500Y0013050D03*
X0087500Y0010050D03*
X0094000Y0005050D03*
X0044000Y0005050D03*
X0019000Y0005050D03*
X0007000Y0017050D03*
X0021000Y0023050D03*
X0007000Y0042050D03*
X0007000Y0067050D03*
X0045000Y0087050D03*
X0045000Y0097050D03*
X0045000Y0107050D03*
X0007000Y0092050D03*
X0081000Y0058050D03*
X0138000Y0040050D03*
X0191000Y0038050D03*
X0200000Y0033050D03*
X0202500Y0031050D03*
X0204000Y0028050D03*
X0207000Y0019550D03*
X0220500Y0019550D03*
X0221000Y0024550D03*
X0221000Y0029550D03*
X0232500Y0034550D03*
X0232500Y0039550D03*
X0232500Y0044550D03*
X0232500Y0049550D03*
X0232500Y0054550D03*
X0232500Y0059550D03*
X0232500Y0064550D03*
X0232500Y0069550D03*
X0232500Y0074550D03*
X0232500Y0079550D03*
X0232500Y0084550D03*
X0232500Y0089550D03*
X0232500Y0094550D03*
X0232500Y0099550D03*
X0221000Y0099550D03*
X0221000Y0094550D03*
X0221000Y0089550D03*
X0221000Y0084550D03*
X0221000Y0079550D03*
X0219000Y0075050D03*
X0208500Y0071550D03*
X0206500Y0073550D03*
X0204500Y0075550D03*
X0202000Y0076550D03*
X0208000Y0080050D03*
X0208000Y0085050D03*
X0207000Y0087550D03*
X0208000Y0090050D03*
X0208000Y0094050D03*
X0208000Y0100050D03*
X0208000Y0105050D03*
X0213000Y0110050D03*
X0216000Y0110050D03*
X0221000Y0109550D03*
X0232500Y0109550D03*
X0251000Y0117050D03*
X0248000Y0129050D03*
X0219000Y0129050D03*
X0217000Y0121550D03*
X0207000Y0118050D03*
X0207000Y0115050D03*
X0203000Y0115050D03*
X0203000Y0118050D03*
X0199500Y0121550D03*
X0195000Y0121550D03*
X0194000Y0129050D03*
X0179000Y0108050D03*
X0166500Y0105550D03*
X0159500Y0105550D03*
X0162000Y0097550D03*
X0154500Y0097550D03*
X0138000Y0094050D03*
X0172000Y0094550D03*
X0202000Y0071550D03*
X0201500Y0056550D03*
X0201500Y0053550D03*
X0208500Y0052050D03*
X0211500Y0051050D03*
X0198500Y0046550D03*
X0215000Y0043050D03*
X0221000Y0039550D03*
X0217000Y0037050D03*
X0232500Y0024550D03*
X0232500Y0019550D03*
X0251000Y0017050D03*
X0248000Y0005050D03*
X0211000Y0005050D03*
X0251000Y0042050D03*
X0251000Y0067050D03*
X0251000Y0092050D03*
D14*
X0008787Y0003950D02*
X0005900Y0006837D01*
X0005900Y0127263D01*
X0008787Y0130150D01*
X0249213Y0130150D01*
X0252100Y0127263D01*
X0252100Y0006837D01*
X0249213Y0003950D01*
X0210787Y0003950D01*
X0201900Y0012837D01*
X0200787Y0013950D01*
X0197546Y0013950D01*
X0198000Y0014279D01*
X0198550Y0014830D01*
X0199007Y0015459D01*
X0199361Y0016152D01*
X0199601Y0016892D01*
X0199721Y0017650D01*
X0195180Y0017650D01*
X0195180Y0018450D01*
X0199721Y0018450D01*
X0199601Y0019208D01*
X0199361Y0019948D01*
X0199007Y0020641D01*
X0198550Y0021270D01*
X0198000Y0021821D01*
X0197370Y0022278D01*
X0196677Y0022631D01*
X0195937Y0022872D01*
X0195180Y0022992D01*
X0195180Y0018450D01*
X0194380Y0018450D01*
X0194380Y0022992D01*
X0193622Y0022872D01*
X0192882Y0022631D01*
X0192189Y0022278D01*
X0191559Y0021821D01*
X0191009Y0021270D01*
X0190552Y0020641D01*
X0190198Y0019948D01*
X0189958Y0019208D01*
X0189838Y0018450D01*
X0194379Y0018450D01*
X0194379Y0017650D01*
X0189838Y0017650D01*
X0189958Y0016892D01*
X0190198Y0016152D01*
X0190552Y0015459D01*
X0191009Y0014830D01*
X0191559Y0014279D01*
X0192013Y0013950D01*
X0169987Y0013950D01*
X0170441Y0014279D01*
X0170991Y0014830D01*
X0171448Y0015459D01*
X0171802Y0016152D01*
X0172042Y0016892D01*
X0172162Y0017650D01*
X0167621Y0017650D01*
X0167621Y0018450D01*
X0172162Y0018450D01*
X0172042Y0019208D01*
X0171802Y0019948D01*
X0171448Y0020641D01*
X0170991Y0021270D01*
X0170441Y0021821D01*
X0169811Y0022278D01*
X0169118Y0022631D01*
X0168378Y0022872D01*
X0167620Y0022992D01*
X0167620Y0018450D01*
X0166820Y0018450D01*
X0166820Y0017650D01*
X0162279Y0017650D01*
X0162399Y0016892D01*
X0162639Y0016152D01*
X0162993Y0015459D01*
X0163450Y0014830D01*
X0164000Y0014279D01*
X0164454Y0013950D01*
X0161213Y0013950D01*
X0160100Y0012837D01*
X0151213Y0003950D01*
X0008787Y0003950D01*
X0008291Y0004446D02*
X0151709Y0004446D01*
X0152507Y0005244D02*
X0007493Y0005244D01*
X0006694Y0006043D02*
X0065255Y0006043D01*
X0065547Y0005750D02*
X0064200Y0007097D01*
X0064200Y0009003D01*
X0065547Y0010350D01*
X0067453Y0010350D01*
X0068800Y0009003D01*
X0068800Y0007097D01*
X0067453Y0005750D01*
X0065547Y0005750D01*
X0064456Y0006841D02*
X0005900Y0006841D01*
X0005900Y0007640D02*
X0064200Y0007640D01*
X0064200Y0008438D02*
X0005900Y0008438D01*
X0005900Y0009237D02*
X0064434Y0009237D01*
X0065232Y0010035D02*
X0005900Y0010035D01*
X0005900Y0010834D02*
X0071700Y0010834D01*
X0071700Y0011503D02*
X0071700Y0009597D01*
X0073047Y0008250D01*
X0074953Y0008250D01*
X0076300Y0009597D01*
X0076300Y0011503D01*
X0074953Y0012850D01*
X0073047Y0012850D01*
X0071700Y0011503D01*
X0071829Y0011632D02*
X0005900Y0011632D01*
X0005900Y0012431D02*
X0072628Y0012431D01*
X0075372Y0012431D02*
X0102700Y0012431D01*
X0102700Y0013003D02*
X0102700Y0011097D01*
X0104047Y0009750D01*
X0105953Y0009750D01*
X0106250Y0010047D01*
X0106547Y0009750D01*
X0108453Y0009750D01*
X0109800Y0011097D01*
X0109800Y0013003D01*
X0108453Y0014350D01*
X0106547Y0014350D01*
X0106250Y0014053D01*
X0105953Y0014350D01*
X0104047Y0014350D01*
X0102700Y0013003D01*
X0102926Y0013229D02*
X0005900Y0013229D01*
X0005900Y0014028D02*
X0103725Y0014028D01*
X0105700Y0016597D02*
X0107047Y0015250D01*
X0108953Y0015250D01*
X0110300Y0016597D01*
X0110300Y0018503D01*
X0108953Y0019850D01*
X0107047Y0019850D01*
X0105700Y0018503D01*
X0105700Y0016597D01*
X0105874Y0016423D02*
X0100126Y0016423D01*
X0099453Y0015750D02*
X0097547Y0015750D01*
X0097250Y0016047D01*
X0096953Y0015750D01*
X0095047Y0015750D01*
X0093700Y0017097D01*
X0093700Y0019003D01*
X0095047Y0020350D01*
X0096953Y0020350D01*
X0097250Y0020053D01*
X0097547Y0020350D01*
X0099453Y0020350D01*
X0100800Y0019003D01*
X0100800Y0017097D01*
X0099453Y0015750D01*
X0100800Y0017222D02*
X0105700Y0017222D01*
X0105700Y0018020D02*
X0100800Y0018020D01*
X0100800Y0018819D02*
X0106016Y0018819D01*
X0106815Y0019617D02*
X0100185Y0019617D01*
X0094315Y0019617D02*
X0083685Y0019617D01*
X0084300Y0019003D02*
X0082953Y0020350D01*
X0081047Y0020350D01*
X0079700Y0019003D01*
X0079700Y0017097D01*
X0081047Y0015750D01*
X0082953Y0015750D01*
X0084300Y0017097D01*
X0084300Y0019003D01*
X0084300Y0018819D02*
X0093700Y0018819D01*
X0093700Y0018020D02*
X0084300Y0018020D01*
X0084300Y0017222D02*
X0093700Y0017222D01*
X0094374Y0016423D02*
X0083626Y0016423D01*
X0080374Y0016423D02*
X0005900Y0016423D01*
X0005900Y0015625D02*
X0106673Y0015625D01*
X0108775Y0014028D02*
X0164347Y0014028D01*
X0163453Y0014826D02*
X0005900Y0014826D01*
X0005900Y0017222D02*
X0079700Y0017222D01*
X0079700Y0018020D02*
X0005900Y0018020D01*
X0005900Y0018819D02*
X0079700Y0018819D01*
X0080315Y0019617D02*
X0005900Y0019617D01*
X0005900Y0020416D02*
X0084715Y0020416D01*
X0084731Y0020400D02*
X0091269Y0020400D01*
X0092269Y0021400D01*
X0092269Y0021400D01*
X0092650Y0021781D01*
X0092650Y0032319D01*
X0092269Y0032700D01*
X0087269Y0032700D01*
X0086650Y0033319D01*
X0086650Y0038319D01*
X0086269Y0038700D01*
X0083403Y0038700D01*
X0083800Y0039097D01*
X0083800Y0041003D01*
X0083403Y0041400D01*
X0086269Y0041400D01*
X0086650Y0041781D01*
X0086650Y0046781D01*
X0087269Y0047400D01*
X0092269Y0047400D01*
X0092650Y0047781D01*
X0092650Y0059319D01*
X0092269Y0059700D01*
X0091269Y0060700D01*
X0089269Y0060700D01*
X0088650Y0061319D01*
X0088650Y0063319D01*
X0088269Y0063700D01*
X0087269Y0064700D01*
X0084731Y0064700D01*
X0084350Y0064319D01*
X0083350Y0063319D01*
X0083350Y0053319D01*
X0080731Y0050700D01*
X0070731Y0050700D01*
X0070350Y0050319D01*
X0069350Y0049319D01*
X0069350Y0046781D01*
X0069731Y0046400D01*
X0070731Y0045400D01*
X0072731Y0045400D01*
X0073350Y0044781D01*
X0073350Y0042781D01*
X0073731Y0042400D01*
X0074731Y0041400D01*
X0079597Y0041400D01*
X0079200Y0041003D01*
X0079200Y0039097D01*
X0079597Y0038700D01*
X0073731Y0038700D01*
X0073231Y0038200D01*
X0072850Y0037819D01*
X0072850Y0034819D01*
X0072731Y0034700D01*
X0069731Y0034700D01*
X0069231Y0034200D01*
X0068850Y0033819D01*
X0068850Y0030781D01*
X0069350Y0030281D01*
X0069731Y0029900D01*
X0078231Y0029900D01*
X0079350Y0028781D01*
X0079350Y0024781D01*
X0080350Y0023781D01*
X0080731Y0023400D01*
X0082731Y0023400D01*
X0083350Y0022781D01*
X0083350Y0021781D01*
X0084731Y0020400D01*
X0083916Y0021214D02*
X0037917Y0021214D01*
X0037453Y0020750D02*
X0038800Y0022097D01*
X0038800Y0024003D01*
X0037453Y0025350D01*
X0035547Y0025350D01*
X0035000Y0024803D01*
X0034453Y0025350D01*
X0032547Y0025350D01*
X0031200Y0024003D01*
X0031200Y0022097D01*
X0032547Y0020750D01*
X0034453Y0020750D01*
X0035000Y0021297D01*
X0035547Y0020750D01*
X0037453Y0020750D01*
X0038715Y0022013D02*
X0083350Y0022013D01*
X0083319Y0022811D02*
X0038800Y0022811D01*
X0038800Y0023610D02*
X0080521Y0023610D01*
X0079722Y0024408D02*
X0038394Y0024408D01*
X0037596Y0025207D02*
X0079350Y0025207D01*
X0079350Y0026005D02*
X0005900Y0026005D01*
X0005900Y0025207D02*
X0019904Y0025207D01*
X0020047Y0025350D02*
X0018700Y0024003D01*
X0018700Y0022097D01*
X0020047Y0020750D01*
X0021953Y0020750D01*
X0023300Y0022097D01*
X0023300Y0024003D01*
X0021953Y0025350D01*
X0020047Y0025350D01*
X0019106Y0024408D02*
X0005900Y0024408D01*
X0005900Y0023610D02*
X0018700Y0023610D01*
X0018700Y0022811D02*
X0005900Y0022811D01*
X0005900Y0022013D02*
X0018785Y0022013D01*
X0019583Y0021214D02*
X0005900Y0021214D01*
X0005900Y0026804D02*
X0079350Y0026804D01*
X0079350Y0027602D02*
X0005900Y0027602D01*
X0005900Y0028401D02*
X0079350Y0028401D01*
X0078931Y0029199D02*
X0005900Y0029199D01*
X0005900Y0029998D02*
X0055299Y0029998D01*
X0055547Y0029750D02*
X0054200Y0031097D01*
X0054200Y0033003D01*
X0055547Y0034350D01*
X0057453Y0034350D01*
X0058800Y0033003D01*
X0058800Y0031097D01*
X0057453Y0029750D01*
X0055547Y0029750D01*
X0054501Y0030796D02*
X0005900Y0030796D01*
X0005900Y0031595D02*
X0054200Y0031595D01*
X0054200Y0032393D02*
X0005900Y0032393D01*
X0005900Y0033192D02*
X0054389Y0033192D01*
X0055188Y0033990D02*
X0005900Y0033990D01*
X0005900Y0034789D02*
X0028008Y0034789D01*
X0028047Y0034750D02*
X0029953Y0034750D01*
X0031300Y0036097D01*
X0031300Y0038003D01*
X0029953Y0039350D01*
X0028047Y0039350D01*
X0026700Y0038003D01*
X0026700Y0036097D01*
X0028047Y0034750D01*
X0027210Y0035587D02*
X0005900Y0035587D01*
X0005900Y0036386D02*
X0026700Y0036386D01*
X0026700Y0037184D02*
X0005900Y0037184D01*
X0005900Y0037983D02*
X0026700Y0037983D01*
X0027479Y0038782D02*
X0005900Y0038782D01*
X0005900Y0039580D02*
X0079200Y0039580D01*
X0079200Y0040379D02*
X0058081Y0040379D01*
X0057453Y0039750D02*
X0058800Y0041097D01*
X0058800Y0043003D01*
X0057453Y0044350D01*
X0055547Y0044350D01*
X0054200Y0043003D01*
X0054200Y0041097D01*
X0055547Y0039750D01*
X0057453Y0039750D01*
X0058800Y0041177D02*
X0079374Y0041177D01*
X0079516Y0038782D02*
X0030521Y0038782D01*
X0031300Y0037983D02*
X0073014Y0037983D01*
X0072850Y0037184D02*
X0031300Y0037184D01*
X0031300Y0036386D02*
X0072850Y0036386D01*
X0072850Y0035587D02*
X0030790Y0035587D01*
X0029992Y0034789D02*
X0072820Y0034789D01*
X0069021Y0033990D02*
X0057812Y0033990D01*
X0058611Y0033192D02*
X0068850Y0033192D01*
X0068850Y0032393D02*
X0058800Y0032393D01*
X0058800Y0031595D02*
X0068850Y0031595D01*
X0068850Y0030796D02*
X0058499Y0030796D01*
X0057701Y0029998D02*
X0069633Y0029998D01*
X0083484Y0038782D02*
X0104016Y0038782D01*
X0104247Y0038550D02*
X0103700Y0039097D01*
X0103700Y0041003D01*
X0104247Y0041550D01*
X0103700Y0042097D01*
X0103700Y0044003D01*
X0105047Y0045350D01*
X0106953Y0045350D01*
X0108300Y0044003D01*
X0108300Y0042097D01*
X0107753Y0041550D01*
X0108300Y0041003D01*
X0108300Y0039097D01*
X0107753Y0038550D01*
X0108300Y0038003D01*
X0108300Y0036097D01*
X0106953Y0034750D01*
X0105047Y0034750D01*
X0103700Y0036097D01*
X0103700Y0038003D01*
X0104247Y0038550D01*
X0103700Y0037983D02*
X0086650Y0037983D01*
X0086650Y0037184D02*
X0103700Y0037184D01*
X0103700Y0036386D02*
X0086650Y0036386D01*
X0086650Y0035587D02*
X0104210Y0035587D01*
X0105008Y0034789D02*
X0086650Y0034789D01*
X0086650Y0033990D02*
X0155125Y0033990D01*
X0155412Y0034084D02*
X0154716Y0033857D01*
X0154064Y0033525D01*
X0153472Y0033095D01*
X0152955Y0032578D01*
X0152525Y0031986D01*
X0152192Y0031334D01*
X0151966Y0030638D01*
X0151857Y0029950D01*
X0156100Y0029950D01*
X0156100Y0034193D01*
X0155412Y0034084D01*
X0156100Y0033990D02*
X0156900Y0033990D01*
X0156900Y0034193D02*
X0156900Y0029950D01*
X0156100Y0029950D01*
X0156100Y0029150D01*
X0151857Y0029150D01*
X0151966Y0028462D01*
X0152192Y0027766D01*
X0152525Y0027114D01*
X0152955Y0026522D01*
X0153472Y0026005D01*
X0154064Y0025575D01*
X0154716Y0025242D01*
X0155412Y0025016D01*
X0156100Y0024907D01*
X0156100Y0029150D01*
X0156900Y0029150D01*
X0156900Y0029950D01*
X0161143Y0029950D01*
X0161034Y0030638D01*
X0160807Y0031334D01*
X0160475Y0031986D01*
X0160045Y0032578D01*
X0159528Y0033095D01*
X0158936Y0033525D01*
X0158284Y0033857D01*
X0157588Y0034084D01*
X0156900Y0034193D01*
X0157875Y0033990D02*
X0170807Y0033990D01*
X0170700Y0034097D02*
X0172047Y0032750D01*
X0173953Y0032750D01*
X0175300Y0034097D01*
X0175300Y0036003D01*
X0173953Y0037350D01*
X0172047Y0037350D01*
X0170700Y0036003D01*
X0170700Y0034097D01*
X0170700Y0034789D02*
X0106992Y0034789D01*
X0107790Y0035587D02*
X0170700Y0035587D01*
X0171083Y0036386D02*
X0169589Y0036386D01*
X0168953Y0035750D02*
X0170300Y0037097D01*
X0170300Y0039003D01*
X0168953Y0040350D01*
X0167047Y0040350D01*
X0165700Y0039003D01*
X0165700Y0037097D01*
X0167047Y0035750D01*
X0168953Y0035750D01*
X0170300Y0037184D02*
X0171882Y0037184D01*
X0170300Y0037983D02*
X0188700Y0037983D01*
X0188700Y0037184D02*
X0174118Y0037184D01*
X0174917Y0036386D02*
X0189411Y0036386D01*
X0190047Y0035750D02*
X0191953Y0035750D01*
X0193300Y0037097D01*
X0193300Y0039003D01*
X0191953Y0040350D01*
X0190047Y0040350D01*
X0188700Y0039003D01*
X0188700Y0037097D01*
X0190047Y0035750D01*
X0192589Y0036386D02*
X0252100Y0036386D01*
X0252100Y0037184D02*
X0193300Y0037184D01*
X0193300Y0037983D02*
X0219314Y0037983D01*
X0218700Y0038597D02*
X0220047Y0037250D01*
X0221953Y0037250D01*
X0223300Y0038597D01*
X0223300Y0040503D01*
X0221953Y0041850D01*
X0220047Y0041850D01*
X0218700Y0040503D01*
X0218700Y0038597D01*
X0218700Y0038782D02*
X0193300Y0038782D01*
X0192723Y0039580D02*
X0218700Y0039580D01*
X0218700Y0040379D02*
X0108300Y0040379D01*
X0108300Y0039580D02*
X0166277Y0039580D01*
X0165700Y0038782D02*
X0107984Y0038782D01*
X0108300Y0037983D02*
X0165700Y0037983D01*
X0165700Y0037184D02*
X0108300Y0037184D01*
X0108300Y0036386D02*
X0166411Y0036386D01*
X0170300Y0038782D02*
X0188700Y0038782D01*
X0189277Y0039580D02*
X0169723Y0039580D01*
X0175300Y0035587D02*
X0252100Y0035587D01*
X0252100Y0034789D02*
X0201514Y0034789D01*
X0200953Y0035350D02*
X0202300Y0034003D01*
X0202300Y0033350D01*
X0203453Y0033350D01*
X0204800Y0032003D01*
X0204800Y0030350D01*
X0204953Y0030350D01*
X0206300Y0029003D01*
X0206300Y0027097D01*
X0204953Y0025750D01*
X0203047Y0025750D01*
X0201700Y0027097D01*
X0201700Y0028750D01*
X0201547Y0028750D01*
X0200200Y0030097D01*
X0200200Y0030750D01*
X0199047Y0030750D01*
X0197700Y0032097D01*
X0197700Y0034003D01*
X0199047Y0035350D01*
X0200953Y0035350D01*
X0202300Y0033990D02*
X0252100Y0033990D01*
X0252100Y0033192D02*
X0203611Y0033192D01*
X0204409Y0032393D02*
X0252100Y0032393D01*
X0252100Y0031595D02*
X0204800Y0031595D01*
X0204800Y0030796D02*
X0252100Y0030796D01*
X0252100Y0029998D02*
X0205305Y0029998D01*
X0206103Y0029199D02*
X0252100Y0029199D01*
X0252100Y0028401D02*
X0206300Y0028401D01*
X0206300Y0027602D02*
X0252100Y0027602D01*
X0252100Y0026804D02*
X0233499Y0026804D01*
X0233453Y0026850D02*
X0231547Y0026850D01*
X0230200Y0025503D01*
X0230200Y0023597D01*
X0231547Y0022250D01*
X0233453Y0022250D01*
X0234800Y0023597D01*
X0234800Y0025503D01*
X0233453Y0026850D01*
X0234297Y0026005D02*
X0252100Y0026005D01*
X0252100Y0025207D02*
X0234800Y0025207D01*
X0234800Y0024408D02*
X0252100Y0024408D01*
X0252100Y0023610D02*
X0234800Y0023610D01*
X0234014Y0022811D02*
X0252100Y0022811D01*
X0252100Y0022013D02*
X0197735Y0022013D01*
X0198591Y0021214D02*
X0218912Y0021214D01*
X0219547Y0021850D02*
X0218200Y0020503D01*
X0218200Y0018597D01*
X0219547Y0017250D01*
X0221453Y0017250D01*
X0222800Y0018597D01*
X0222800Y0020503D01*
X0221453Y0021850D01*
X0219547Y0021850D01*
X0218200Y0020416D02*
X0199122Y0020416D01*
X0199468Y0019617D02*
X0218200Y0019617D01*
X0218200Y0018819D02*
X0199663Y0018819D01*
X0199653Y0017222D02*
X0252100Y0017222D01*
X0252100Y0018020D02*
X0222223Y0018020D01*
X0222800Y0018819D02*
X0252100Y0018819D01*
X0252100Y0019617D02*
X0222800Y0019617D01*
X0222800Y0020416D02*
X0252100Y0020416D01*
X0252100Y0021214D02*
X0222088Y0021214D01*
X0218777Y0018020D02*
X0195180Y0018020D01*
X0195180Y0018819D02*
X0194380Y0018819D01*
X0194380Y0019617D02*
X0195180Y0019617D01*
X0195180Y0020416D02*
X0194380Y0020416D01*
X0194380Y0021214D02*
X0195180Y0021214D01*
X0195180Y0022013D02*
X0194380Y0022013D01*
X0194380Y0022811D02*
X0195180Y0022811D01*
X0196123Y0022811D02*
X0230986Y0022811D01*
X0230200Y0023610D02*
X0092650Y0023610D01*
X0092650Y0024408D02*
X0145389Y0024408D01*
X0145547Y0024250D02*
X0144200Y0025597D01*
X0144200Y0027503D01*
X0145547Y0028850D01*
X0147453Y0028850D01*
X0148800Y0027503D01*
X0148800Y0025597D01*
X0147453Y0024250D01*
X0145547Y0024250D01*
X0144590Y0025207D02*
X0092650Y0025207D01*
X0092650Y0026005D02*
X0144200Y0026005D01*
X0144200Y0026804D02*
X0092650Y0026804D01*
X0092650Y0027602D02*
X0144300Y0027602D01*
X0145098Y0028401D02*
X0132104Y0028401D01*
X0131953Y0028250D02*
X0133300Y0029597D01*
X0133300Y0031503D01*
X0131953Y0032850D01*
X0130047Y0032850D01*
X0128700Y0031503D01*
X0128700Y0029597D01*
X0130047Y0028250D01*
X0131953Y0028250D01*
X0132902Y0029199D02*
X0156100Y0029199D01*
X0156100Y0028401D02*
X0156900Y0028401D01*
X0156900Y0029150D02*
X0156900Y0024907D01*
X0157588Y0025016D01*
X0158284Y0025242D01*
X0158936Y0025575D01*
X0159528Y0026005D01*
X0160045Y0026522D01*
X0160475Y0027114D01*
X0160807Y0027766D01*
X0161034Y0028462D01*
X0161143Y0029150D01*
X0156900Y0029150D01*
X0156900Y0029199D02*
X0167124Y0029199D01*
X0167100Y0029080D02*
X0170757Y0029080D01*
X0170757Y0028280D01*
X0167100Y0028280D01*
X0167256Y0027496D01*
X0167562Y0026758D01*
X0168006Y0026093D01*
X0168571Y0025528D01*
X0169236Y0025084D01*
X0169974Y0024778D01*
X0170757Y0024623D01*
X0170757Y0028280D01*
X0171557Y0028280D01*
X0171557Y0024623D01*
X0172341Y0024778D01*
X0173079Y0025084D01*
X0173744Y0025528D01*
X0174309Y0026093D01*
X0174753Y0026758D01*
X0175059Y0027496D01*
X0175215Y0028280D01*
X0171558Y0028280D01*
X0171558Y0029080D01*
X0175215Y0029080D01*
X0175059Y0029863D01*
X0174753Y0030602D01*
X0174309Y0031266D01*
X0173744Y0031832D01*
X0173079Y0032276D01*
X0172341Y0032581D01*
X0171557Y0032737D01*
X0171557Y0029080D01*
X0170757Y0029080D01*
X0170757Y0032737D01*
X0169974Y0032581D01*
X0169236Y0032276D01*
X0168571Y0031832D01*
X0168006Y0031266D01*
X0167562Y0030602D01*
X0167256Y0029863D01*
X0167100Y0029080D01*
X0167312Y0029998D02*
X0161135Y0029998D01*
X0160982Y0030796D02*
X0167692Y0030796D01*
X0168334Y0031595D02*
X0160675Y0031595D01*
X0160179Y0032393D02*
X0169520Y0032393D01*
X0170757Y0032393D02*
X0171557Y0032393D01*
X0171557Y0031595D02*
X0170757Y0031595D01*
X0170757Y0030796D02*
X0171557Y0030796D01*
X0171557Y0029998D02*
X0170757Y0029998D01*
X0170757Y0029199D02*
X0171557Y0029199D01*
X0171558Y0028401D02*
X0190442Y0028401D01*
X0190442Y0028280D02*
X0186785Y0028280D01*
X0186941Y0027496D01*
X0187247Y0026758D01*
X0187691Y0026093D01*
X0188256Y0025528D01*
X0188921Y0025084D01*
X0189659Y0024778D01*
X0190443Y0024623D01*
X0190443Y0028280D01*
X0191242Y0028280D01*
X0191242Y0024623D01*
X0192026Y0024778D01*
X0192764Y0025084D01*
X0193429Y0025528D01*
X0193994Y0026093D01*
X0194438Y0026758D01*
X0194744Y0027496D01*
X0194900Y0028280D01*
X0191243Y0028280D01*
X0191243Y0029080D01*
X0194900Y0029080D01*
X0194744Y0029863D01*
X0194438Y0030602D01*
X0193994Y0031266D01*
X0193429Y0031832D01*
X0192764Y0032276D01*
X0192026Y0032581D01*
X0191242Y0032737D01*
X0191242Y0029080D01*
X0190443Y0029080D01*
X0190443Y0032737D01*
X0189659Y0032581D01*
X0188921Y0032276D01*
X0188256Y0031832D01*
X0187691Y0031266D01*
X0187247Y0030602D01*
X0186941Y0029863D01*
X0186785Y0029080D01*
X0190442Y0029080D01*
X0190442Y0028280D01*
X0190443Y0027602D02*
X0191242Y0027602D01*
X0191242Y0026804D02*
X0190443Y0026804D01*
X0190443Y0026005D02*
X0191242Y0026005D01*
X0191242Y0025207D02*
X0190443Y0025207D01*
X0188737Y0025207D02*
X0173263Y0025207D01*
X0174221Y0026005D02*
X0187779Y0026005D01*
X0187228Y0026804D02*
X0174772Y0026804D01*
X0175080Y0027602D02*
X0186920Y0027602D01*
X0186809Y0029199D02*
X0175191Y0029199D01*
X0175003Y0029998D02*
X0186997Y0029998D01*
X0187377Y0030796D02*
X0174623Y0030796D01*
X0173981Y0031595D02*
X0188019Y0031595D01*
X0189205Y0032393D02*
X0172795Y0032393D01*
X0171605Y0033192D02*
X0159395Y0033192D01*
X0156900Y0033192D02*
X0156100Y0033192D01*
X0156100Y0032393D02*
X0156900Y0032393D01*
X0156900Y0031595D02*
X0156100Y0031595D01*
X0156100Y0030796D02*
X0156900Y0030796D01*
X0156900Y0029998D02*
X0156100Y0029998D01*
X0161014Y0028401D02*
X0170757Y0028401D01*
X0170757Y0027602D02*
X0171557Y0027602D01*
X0171557Y0026804D02*
X0170757Y0026804D01*
X0170757Y0026005D02*
X0171557Y0026005D01*
X0171557Y0025207D02*
X0170757Y0025207D01*
X0169052Y0025207D02*
X0158174Y0025207D01*
X0156900Y0025207D02*
X0156100Y0025207D01*
X0156100Y0026005D02*
X0156900Y0026005D01*
X0156900Y0026804D02*
X0156100Y0026804D01*
X0156100Y0027602D02*
X0156900Y0027602D01*
X0159529Y0026005D02*
X0168094Y0026005D01*
X0167543Y0026804D02*
X0160250Y0026804D01*
X0160724Y0027602D02*
X0167235Y0027602D01*
X0166820Y0022992D02*
X0166063Y0022872D01*
X0165323Y0022631D01*
X0164630Y0022278D01*
X0164000Y0021821D01*
X0163450Y0021270D01*
X0162993Y0020641D01*
X0162639Y0019948D01*
X0162399Y0019208D01*
X0162279Y0018450D01*
X0166820Y0018450D01*
X0166820Y0022992D01*
X0166820Y0022811D02*
X0167620Y0022811D01*
X0167620Y0022013D02*
X0166820Y0022013D01*
X0166820Y0021214D02*
X0167620Y0021214D01*
X0167620Y0020416D02*
X0166820Y0020416D01*
X0166820Y0019617D02*
X0167620Y0019617D01*
X0167620Y0018819D02*
X0166820Y0018819D01*
X0166820Y0018020D02*
X0110300Y0018020D01*
X0110300Y0017222D02*
X0162347Y0017222D01*
X0162551Y0016423D02*
X0110126Y0016423D01*
X0109327Y0015625D02*
X0162908Y0015625D01*
X0162337Y0018819D02*
X0109984Y0018819D01*
X0109185Y0019617D02*
X0162532Y0019617D01*
X0162878Y0020416D02*
X0091285Y0020416D01*
X0092083Y0021214D02*
X0163409Y0021214D01*
X0164265Y0022013D02*
X0092650Y0022013D01*
X0092650Y0022811D02*
X0165877Y0022811D01*
X0168564Y0022811D02*
X0193436Y0022811D01*
X0191824Y0022013D02*
X0170176Y0022013D01*
X0171032Y0021214D02*
X0190968Y0021214D01*
X0190437Y0020416D02*
X0171563Y0020416D01*
X0171909Y0019617D02*
X0190091Y0019617D01*
X0189896Y0018819D02*
X0172104Y0018819D01*
X0172094Y0017222D02*
X0189906Y0017222D01*
X0190110Y0016423D02*
X0171890Y0016423D01*
X0171533Y0015625D02*
X0190467Y0015625D01*
X0191012Y0014826D02*
X0170988Y0014826D01*
X0170094Y0014028D02*
X0191906Y0014028D01*
X0197653Y0014028D02*
X0233037Y0014028D01*
X0232719Y0013710D02*
X0234140Y0015130D01*
X0235996Y0015899D01*
X0238004Y0015899D01*
X0239860Y0015130D01*
X0241281Y0013710D01*
X0242050Y0011854D01*
X0242050Y0009845D01*
X0241281Y0007989D01*
X0239860Y0006568D01*
X0238004Y0005800D01*
X0235996Y0005800D01*
X0234140Y0006568D01*
X0232719Y0007989D01*
X0231950Y0009845D01*
X0231950Y0011854D01*
X0232719Y0013710D01*
X0232520Y0013229D02*
X0201508Y0013229D01*
X0202306Y0012431D02*
X0232189Y0012431D01*
X0231950Y0011632D02*
X0203105Y0011632D01*
X0203903Y0010834D02*
X0231950Y0010834D01*
X0231950Y0010035D02*
X0204702Y0010035D01*
X0205500Y0009237D02*
X0232202Y0009237D01*
X0232533Y0008438D02*
X0206299Y0008438D01*
X0207097Y0007640D02*
X0233068Y0007640D01*
X0233867Y0006841D02*
X0207896Y0006841D01*
X0208694Y0006043D02*
X0235409Y0006043D01*
X0238591Y0006043D02*
X0251306Y0006043D01*
X0252100Y0006841D02*
X0240133Y0006841D01*
X0240932Y0007640D02*
X0252100Y0007640D01*
X0252100Y0008438D02*
X0241467Y0008438D01*
X0241798Y0009237D02*
X0252100Y0009237D01*
X0252100Y0010035D02*
X0242050Y0010035D01*
X0242050Y0010834D02*
X0252100Y0010834D01*
X0252100Y0011632D02*
X0242050Y0011632D01*
X0241811Y0012431D02*
X0252100Y0012431D01*
X0252100Y0013229D02*
X0241480Y0013229D01*
X0240963Y0014028D02*
X0252100Y0014028D01*
X0252100Y0014826D02*
X0240164Y0014826D01*
X0238666Y0015625D02*
X0252100Y0015625D01*
X0252100Y0016423D02*
X0199449Y0016423D01*
X0199092Y0015625D02*
X0235334Y0015625D01*
X0233836Y0014826D02*
X0198547Y0014826D01*
X0194379Y0018020D02*
X0167621Y0018020D01*
X0160492Y0013229D02*
X0109574Y0013229D01*
X0109800Y0012431D02*
X0126128Y0012431D01*
X0126547Y0012850D02*
X0125200Y0011503D01*
X0125200Y0009597D01*
X0126547Y0008250D01*
X0128453Y0008250D01*
X0129800Y0009597D01*
X0129800Y0011503D01*
X0128453Y0012850D01*
X0126547Y0012850D01*
X0125329Y0011632D02*
X0109800Y0011632D01*
X0109536Y0010834D02*
X0125200Y0010834D01*
X0125200Y0010035D02*
X0108738Y0010035D01*
X0106262Y0010035D02*
X0106238Y0010035D01*
X0103762Y0010035D02*
X0089800Y0010035D01*
X0089800Y0009237D02*
X0125561Y0009237D01*
X0126359Y0008438D02*
X0089141Y0008438D01*
X0089800Y0009097D02*
X0088453Y0007750D01*
X0086547Y0007750D01*
X0085200Y0009097D01*
X0085200Y0011003D01*
X0086547Y0012350D01*
X0088453Y0012350D01*
X0089800Y0011003D01*
X0089800Y0009097D01*
X0089800Y0010834D02*
X0102964Y0010834D01*
X0102700Y0011632D02*
X0089171Y0011632D01*
X0085829Y0011632D02*
X0076171Y0011632D01*
X0076300Y0010834D02*
X0085200Y0010834D01*
X0085200Y0010035D02*
X0076300Y0010035D01*
X0075939Y0009237D02*
X0085200Y0009237D01*
X0085859Y0008438D02*
X0075141Y0008438D01*
X0072859Y0008438D02*
X0068800Y0008438D01*
X0068800Y0007640D02*
X0154903Y0007640D01*
X0155701Y0008438D02*
X0128641Y0008438D01*
X0129439Y0009237D02*
X0156500Y0009237D01*
X0157298Y0010035D02*
X0129800Y0010035D01*
X0129800Y0010834D02*
X0158097Y0010834D01*
X0158895Y0011632D02*
X0129671Y0011632D01*
X0128872Y0012431D02*
X0159694Y0012431D01*
X0154104Y0006841D02*
X0068544Y0006841D01*
X0067745Y0006043D02*
X0153306Y0006043D01*
X0154826Y0025207D02*
X0148410Y0025207D01*
X0148800Y0026005D02*
X0153471Y0026005D01*
X0152750Y0026804D02*
X0148800Y0026804D01*
X0148700Y0027602D02*
X0152276Y0027602D01*
X0151986Y0028401D02*
X0147902Y0028401D01*
X0151865Y0029998D02*
X0133300Y0029998D01*
X0133300Y0030796D02*
X0152018Y0030796D01*
X0152325Y0031595D02*
X0133208Y0031595D01*
X0132409Y0032393D02*
X0152821Y0032393D01*
X0153605Y0033192D02*
X0086777Y0033192D01*
X0092576Y0032393D02*
X0129591Y0032393D01*
X0128792Y0031595D02*
X0092650Y0031595D01*
X0092650Y0030796D02*
X0128700Y0030796D01*
X0128700Y0029998D02*
X0092650Y0029998D01*
X0092650Y0029199D02*
X0129098Y0029199D01*
X0129896Y0028401D02*
X0092650Y0028401D01*
X0083800Y0039580D02*
X0103700Y0039580D01*
X0103700Y0040379D02*
X0083800Y0040379D01*
X0083626Y0041177D02*
X0103874Y0041177D01*
X0103822Y0041976D02*
X0086650Y0041976D01*
X0086650Y0042774D02*
X0103700Y0042774D01*
X0103700Y0043573D02*
X0086650Y0043573D01*
X0086650Y0044371D02*
X0104068Y0044371D01*
X0104867Y0045170D02*
X0086650Y0045170D01*
X0086650Y0045968D02*
X0252100Y0045968D01*
X0252100Y0045170D02*
X0216133Y0045170D01*
X0215953Y0045350D02*
X0214047Y0045350D01*
X0212700Y0044003D01*
X0212700Y0042097D01*
X0214047Y0040750D01*
X0215953Y0040750D01*
X0217300Y0042097D01*
X0217300Y0044003D01*
X0215953Y0045350D01*
X0216932Y0044371D02*
X0252100Y0044371D01*
X0252100Y0043573D02*
X0217300Y0043573D01*
X0217300Y0042774D02*
X0252100Y0042774D01*
X0252100Y0041976D02*
X0217178Y0041976D01*
X0216380Y0041177D02*
X0219374Y0041177D01*
X0222626Y0041177D02*
X0252100Y0041177D01*
X0252100Y0040379D02*
X0223300Y0040379D01*
X0223300Y0039580D02*
X0252100Y0039580D01*
X0252100Y0038782D02*
X0223300Y0038782D01*
X0222686Y0037983D02*
X0252100Y0037983D01*
X0252100Y0046767D02*
X0185469Y0046767D01*
X0185453Y0046750D02*
X0186800Y0048097D01*
X0186800Y0050003D01*
X0185453Y0051350D01*
X0183547Y0051350D01*
X0183500Y0051303D01*
X0182953Y0051850D01*
X0181047Y0051850D01*
X0179700Y0050503D01*
X0179700Y0048597D01*
X0181047Y0047250D01*
X0182953Y0047250D01*
X0183000Y0047297D01*
X0183547Y0046750D01*
X0185453Y0046750D01*
X0186268Y0047565D02*
X0252100Y0047565D01*
X0252100Y0048364D02*
X0186800Y0048364D01*
X0186800Y0049162D02*
X0210135Y0049162D01*
X0210547Y0048750D02*
X0209500Y0049797D01*
X0209453Y0049750D01*
X0207547Y0049750D01*
X0206200Y0051097D01*
X0206200Y0053003D01*
X0207547Y0054350D01*
X0209453Y0054350D01*
X0210500Y0053303D01*
X0210547Y0053350D01*
X0212453Y0053350D01*
X0213800Y0052003D01*
X0213800Y0050097D01*
X0212453Y0048750D01*
X0210547Y0048750D01*
X0212865Y0049162D02*
X0252100Y0049162D01*
X0252100Y0049961D02*
X0213663Y0049961D01*
X0213800Y0050759D02*
X0252100Y0050759D01*
X0252100Y0051558D02*
X0213800Y0051558D01*
X0213446Y0052356D02*
X0252100Y0052356D01*
X0252100Y0053155D02*
X0212648Y0053155D01*
X0209849Y0053953D02*
X0252100Y0053953D01*
X0252100Y0054752D02*
X0202954Y0054752D01*
X0202453Y0054250D02*
X0203800Y0055597D01*
X0203800Y0057503D01*
X0202453Y0058850D01*
X0200547Y0058850D01*
X0199200Y0057503D01*
X0199200Y0055597D01*
X0200547Y0054250D01*
X0202453Y0054250D01*
X0203753Y0055550D02*
X0252100Y0055550D01*
X0252100Y0056349D02*
X0203800Y0056349D01*
X0203800Y0057147D02*
X0252100Y0057147D01*
X0252100Y0057946D02*
X0203357Y0057946D01*
X0202558Y0058744D02*
X0252100Y0058744D01*
X0252100Y0059543D02*
X0103760Y0059543D01*
X0104300Y0059003D02*
X0102953Y0060350D01*
X0101047Y0060350D01*
X0099700Y0059003D01*
X0099700Y0057097D01*
X0101047Y0055750D01*
X0102953Y0055750D01*
X0104300Y0057097D01*
X0104300Y0059003D01*
X0104300Y0058744D02*
X0148442Y0058744D01*
X0149047Y0059350D02*
X0147700Y0058003D01*
X0147700Y0056097D01*
X0149047Y0054750D01*
X0150953Y0054750D01*
X0152300Y0056097D01*
X0152300Y0058003D01*
X0150953Y0059350D01*
X0149047Y0059350D01*
X0147700Y0057946D02*
X0104300Y0057946D01*
X0104300Y0057147D02*
X0147700Y0057147D01*
X0147700Y0056349D02*
X0103551Y0056349D01*
X0100449Y0056349D02*
X0092650Y0056349D01*
X0092650Y0057147D02*
X0099700Y0057147D01*
X0099700Y0057946D02*
X0092650Y0057946D01*
X0092650Y0058744D02*
X0099700Y0058744D01*
X0100240Y0059543D02*
X0092426Y0059543D01*
X0091628Y0060341D02*
X0094956Y0060341D01*
X0095047Y0060250D02*
X0096953Y0060250D01*
X0097250Y0060547D01*
X0097547Y0060250D01*
X0099453Y0060250D01*
X0100800Y0061597D01*
X0100800Y0063503D01*
X0099453Y0064850D01*
X0097547Y0064850D01*
X0097250Y0064553D01*
X0096953Y0064850D01*
X0095047Y0064850D01*
X0093700Y0063503D01*
X0093700Y0061597D01*
X0095047Y0060250D01*
X0094157Y0061140D02*
X0088829Y0061140D01*
X0088650Y0061938D02*
X0093700Y0061938D01*
X0093700Y0062737D02*
X0088650Y0062737D01*
X0088434Y0063535D02*
X0093733Y0063535D01*
X0094531Y0064334D02*
X0087635Y0064334D01*
X0084365Y0064334D02*
X0005900Y0064334D01*
X0005900Y0065132D02*
X0027665Y0065132D01*
X0028047Y0064750D02*
X0029953Y0064750D01*
X0031300Y0066097D01*
X0031300Y0068003D01*
X0029953Y0069350D01*
X0028047Y0069350D01*
X0026700Y0068003D01*
X0026700Y0066097D01*
X0028047Y0064750D01*
X0026866Y0065931D02*
X0005900Y0065931D01*
X0005900Y0066729D02*
X0026700Y0066729D01*
X0026700Y0067528D02*
X0005900Y0067528D01*
X0005900Y0068326D02*
X0027024Y0068326D01*
X0027822Y0069125D02*
X0005900Y0069125D01*
X0005900Y0069923D02*
X0093700Y0069923D01*
X0093700Y0069597D02*
X0095047Y0068250D01*
X0096953Y0068250D01*
X0098300Y0069597D01*
X0098300Y0069750D01*
X0099453Y0069750D01*
X0100800Y0071097D01*
X0100800Y0073003D01*
X0099453Y0074350D01*
X0097547Y0074350D01*
X0096200Y0073003D01*
X0096200Y0072850D01*
X0095047Y0072850D01*
X0093700Y0071503D01*
X0093700Y0069597D01*
X0094172Y0069125D02*
X0030178Y0069125D01*
X0030976Y0068326D02*
X0094971Y0068326D01*
X0097029Y0068326D02*
X0117524Y0068326D01*
X0117947Y0068750D02*
X0116700Y0067503D01*
X0116700Y0065597D01*
X0118047Y0064250D01*
X0119953Y0064250D01*
X0121300Y0065597D01*
X0121300Y0067503D01*
X0119953Y0068850D01*
X0119053Y0068850D01*
X0120300Y0070097D01*
X0120300Y0071997D01*
X0121047Y0071250D01*
X0122953Y0071250D01*
X0124300Y0072597D01*
X0124300Y0074503D01*
X0122953Y0075850D01*
X0121047Y0075850D01*
X0119700Y0074503D01*
X0119700Y0072603D01*
X0118953Y0073350D01*
X0117047Y0073350D01*
X0115700Y0072003D01*
X0115700Y0070097D01*
X0117047Y0068750D01*
X0117947Y0068750D01*
X0116672Y0069125D02*
X0097828Y0069125D01*
X0099626Y0069923D02*
X0115874Y0069923D01*
X0115700Y0070722D02*
X0100425Y0070722D01*
X0100800Y0071520D02*
X0115700Y0071520D01*
X0116016Y0072319D02*
X0100800Y0072319D01*
X0100685Y0073118D02*
X0116815Y0073118D01*
X0119185Y0073118D02*
X0119700Y0073118D01*
X0119700Y0073916D02*
X0099887Y0073916D01*
X0097113Y0073916D02*
X0091785Y0073916D01*
X0092269Y0074400D02*
X0091269Y0073400D01*
X0084731Y0073400D01*
X0084350Y0073781D01*
X0083350Y0074781D01*
X0083350Y0076781D01*
X0082731Y0077400D01*
X0080731Y0077400D01*
X0080350Y0077781D01*
X0079350Y0078781D01*
X0079350Y0082781D01*
X0078731Y0083400D01*
X0069731Y0083400D01*
X0069350Y0083781D01*
X0069350Y0088319D01*
X0069731Y0088700D01*
X0072731Y0088700D01*
X0073350Y0089319D01*
X0073350Y0091319D01*
X0073731Y0091700D01*
X0074731Y0092700D01*
X0079597Y0092700D01*
X0079200Y0093097D01*
X0079200Y0095003D01*
X0079597Y0095400D01*
X0074731Y0095400D01*
X0073731Y0096400D01*
X0073350Y0096781D01*
X0073350Y0098781D01*
X0072731Y0099400D01*
X0070231Y0099400D01*
X0069731Y0099900D01*
X0069350Y0100281D01*
X0069350Y0103819D01*
X0069850Y0104319D01*
X0070231Y0104700D01*
X0080731Y0104700D01*
X0083350Y0107319D01*
X0083350Y0117319D01*
X0084350Y0118319D01*
X0084731Y0118700D01*
X0087269Y0118700D01*
X0088269Y0117700D01*
X0088650Y0117319D01*
X0088650Y0115319D01*
X0089269Y0114700D01*
X0091269Y0114700D01*
X0092269Y0113700D01*
X0092650Y0113319D01*
X0092650Y0101781D01*
X0092269Y0101400D01*
X0087269Y0101400D01*
X0086650Y0100781D01*
X0086650Y0095781D01*
X0086269Y0095400D01*
X0083403Y0095400D01*
X0083800Y0095003D01*
X0083800Y0093097D01*
X0083403Y0092700D01*
X0086269Y0092700D01*
X0086650Y0092319D01*
X0086650Y0087319D01*
X0087269Y0086700D01*
X0092269Y0086700D01*
X0092650Y0086319D01*
X0092650Y0074781D01*
X0092269Y0074400D01*
X0092584Y0074715D02*
X0119912Y0074715D01*
X0120710Y0075513D02*
X0092650Y0075513D01*
X0092650Y0076312D02*
X0199700Y0076312D01*
X0199700Y0075597D02*
X0201047Y0074250D01*
X0202547Y0074250D01*
X0202947Y0073850D01*
X0201047Y0073850D01*
X0199700Y0072503D01*
X0199700Y0070597D01*
X0201047Y0069250D01*
X0202953Y0069250D01*
X0204300Y0070597D01*
X0204300Y0072497D01*
X0205547Y0071250D01*
X0206200Y0071250D01*
X0206200Y0070597D01*
X0207547Y0069250D01*
X0209453Y0069250D01*
X0210800Y0070597D01*
X0210800Y0072503D01*
X0209453Y0073850D01*
X0208800Y0073850D01*
X0208800Y0074503D01*
X0207453Y0075850D01*
X0206800Y0075850D01*
X0206800Y0076503D01*
X0205453Y0077850D01*
X0203953Y0077850D01*
X0203903Y0077900D01*
X0205269Y0077900D01*
X0205650Y0078281D01*
X0205650Y0085647D01*
X0206047Y0085250D01*
X0207953Y0085250D01*
X0209300Y0086597D01*
X0209300Y0088503D01*
X0207953Y0089850D01*
X0206047Y0089850D01*
X0205650Y0089453D01*
X0205650Y0101819D01*
X0205269Y0102200D01*
X0195731Y0102200D01*
X0195350Y0101819D01*
X0195350Y0078281D01*
X0195731Y0077900D01*
X0200097Y0077900D01*
X0199700Y0077503D01*
X0199700Y0075597D01*
X0199784Y0075513D02*
X0123290Y0075513D01*
X0124088Y0074715D02*
X0200583Y0074715D01*
X0200315Y0073118D02*
X0167685Y0073118D01*
X0167453Y0073350D02*
X0165547Y0073350D01*
X0164200Y0072003D01*
X0164200Y0071103D01*
X0162953Y0072350D01*
X0161047Y0072350D01*
X0159700Y0071003D01*
X0159700Y0070850D01*
X0158547Y0070850D01*
X0157200Y0069503D01*
X0157200Y0068850D01*
X0157047Y0068850D01*
X0156750Y0068553D01*
X0155953Y0069350D01*
X0154047Y0069350D01*
X0152700Y0068003D01*
X0152700Y0066097D01*
X0154047Y0064750D01*
X0155953Y0064750D01*
X0156250Y0065047D01*
X0156497Y0064800D01*
X0156200Y0064503D01*
X0156200Y0062597D01*
X0157547Y0061250D01*
X0159453Y0061250D01*
X0160800Y0062597D01*
X0160800Y0064503D01*
X0160003Y0065300D01*
X0160300Y0065597D01*
X0160300Y0066250D01*
X0160453Y0066250D01*
X0161800Y0067597D01*
X0161800Y0067750D01*
X0162953Y0067750D01*
X0164300Y0069097D01*
X0164300Y0069997D01*
X0165547Y0068750D01*
X0167453Y0068750D01*
X0168800Y0070097D01*
X0168800Y0072003D01*
X0167453Y0073350D01*
X0168484Y0072319D02*
X0199700Y0072319D01*
X0199700Y0071520D02*
X0168800Y0071520D01*
X0168800Y0070722D02*
X0199700Y0070722D01*
X0200374Y0069923D02*
X0168626Y0069923D01*
X0167828Y0069125D02*
X0252100Y0069125D01*
X0252100Y0069923D02*
X0210126Y0069923D01*
X0210800Y0070722D02*
X0252100Y0070722D01*
X0252100Y0071520D02*
X0210800Y0071520D01*
X0210800Y0072319D02*
X0252100Y0072319D01*
X0252100Y0073118D02*
X0220320Y0073118D01*
X0219953Y0072750D02*
X0221300Y0074097D01*
X0221300Y0076003D01*
X0219953Y0077350D01*
X0218047Y0077350D01*
X0216700Y0076003D01*
X0216700Y0074097D01*
X0218047Y0072750D01*
X0219953Y0072750D01*
X0221119Y0073916D02*
X0252100Y0073916D01*
X0252100Y0074715D02*
X0221300Y0074715D01*
X0221300Y0075513D02*
X0252100Y0075513D01*
X0252100Y0076312D02*
X0220991Y0076312D01*
X0220193Y0077110D02*
X0252100Y0077110D01*
X0252100Y0077909D02*
X0205278Y0077909D01*
X0205650Y0078707D02*
X0252100Y0078707D01*
X0252100Y0079506D02*
X0205650Y0079506D01*
X0205650Y0080304D02*
X0252100Y0080304D01*
X0252100Y0081103D02*
X0205650Y0081103D01*
X0205650Y0081901D02*
X0252100Y0081901D01*
X0252100Y0082700D02*
X0222402Y0082700D01*
X0221953Y0082250D02*
X0223300Y0083597D01*
X0223300Y0085503D01*
X0221953Y0086850D01*
X0220047Y0086850D01*
X0218700Y0085503D01*
X0218700Y0083597D01*
X0220047Y0082250D01*
X0221953Y0082250D01*
X0223201Y0083498D02*
X0252100Y0083498D01*
X0252100Y0084297D02*
X0223300Y0084297D01*
X0223300Y0085095D02*
X0252100Y0085095D01*
X0252100Y0085894D02*
X0222909Y0085894D01*
X0222110Y0086692D02*
X0252100Y0086692D01*
X0252100Y0087491D02*
X0222193Y0087491D01*
X0221953Y0087250D02*
X0223300Y0088597D01*
X0223300Y0090503D01*
X0221953Y0091850D01*
X0220047Y0091850D01*
X0218700Y0090503D01*
X0218700Y0088597D01*
X0220047Y0087250D01*
X0221953Y0087250D01*
X0222992Y0088289D02*
X0252100Y0088289D01*
X0252100Y0089088D02*
X0223300Y0089088D01*
X0223300Y0089886D02*
X0252100Y0089886D01*
X0252100Y0090685D02*
X0223118Y0090685D01*
X0222319Y0091483D02*
X0252100Y0091483D01*
X0252100Y0092282D02*
X0221984Y0092282D01*
X0221953Y0092250D02*
X0223300Y0093597D01*
X0223300Y0095503D01*
X0221953Y0096850D01*
X0220047Y0096850D01*
X0218700Y0095503D01*
X0218700Y0093597D01*
X0220047Y0092250D01*
X0221953Y0092250D01*
X0222783Y0093080D02*
X0252100Y0093080D01*
X0252100Y0093879D02*
X0223300Y0093879D01*
X0223300Y0094677D02*
X0252100Y0094677D01*
X0252100Y0095476D02*
X0223300Y0095476D01*
X0222528Y0096274D02*
X0252100Y0096274D01*
X0252100Y0097073D02*
X0205650Y0097073D01*
X0205650Y0097871D02*
X0252100Y0097871D01*
X0252100Y0098670D02*
X0205650Y0098670D01*
X0205650Y0099468D02*
X0252100Y0099468D01*
X0252100Y0100267D02*
X0205650Y0100267D01*
X0205650Y0101065D02*
X0252100Y0101065D01*
X0252100Y0101864D02*
X0205605Y0101864D01*
X0207047Y0102750D02*
X0208953Y0102750D01*
X0210300Y0104097D01*
X0210300Y0106003D01*
X0208953Y0107350D01*
X0207047Y0107350D01*
X0205700Y0106003D01*
X0205700Y0104097D01*
X0207047Y0102750D01*
X0206336Y0103461D02*
X0132800Y0103461D01*
X0132800Y0104259D02*
X0205700Y0104259D01*
X0205700Y0105058D02*
X0132245Y0105058D01*
X0132800Y0104503D02*
X0131453Y0105850D01*
X0129547Y0105850D01*
X0128200Y0104503D01*
X0128200Y0102597D01*
X0129547Y0101250D01*
X0131453Y0101250D01*
X0132800Y0102597D01*
X0132800Y0104503D01*
X0132800Y0102662D02*
X0252100Y0102662D01*
X0252100Y0103461D02*
X0209664Y0103461D01*
X0210300Y0104259D02*
X0252100Y0104259D01*
X0252100Y0105058D02*
X0210300Y0105058D01*
X0210300Y0105856D02*
X0252100Y0105856D01*
X0252100Y0106655D02*
X0209648Y0106655D01*
X0211545Y0108252D02*
X0191455Y0108252D01*
X0190953Y0107750D02*
X0192300Y0109097D01*
X0192300Y0111003D01*
X0191753Y0111550D01*
X0192800Y0112597D01*
X0192800Y0114503D01*
X0192253Y0115050D01*
X0192800Y0115597D01*
X0192800Y0117503D01*
X0191453Y0118850D01*
X0189547Y0118850D01*
X0188200Y0117503D01*
X0188200Y0115597D01*
X0188747Y0115050D01*
X0188200Y0114503D01*
X0188200Y0112597D01*
X0188747Y0112050D01*
X0188500Y0111803D01*
X0187953Y0112350D01*
X0186047Y0112350D01*
X0184700Y0111003D01*
X0184700Y0109097D01*
X0186047Y0107750D01*
X0187953Y0107750D01*
X0188500Y0108297D01*
X0189047Y0107750D01*
X0190953Y0107750D01*
X0192253Y0109051D02*
X0210747Y0109051D01*
X0210700Y0109097D02*
X0212047Y0107750D01*
X0213953Y0107750D01*
X0214500Y0108297D01*
X0215047Y0107750D01*
X0216953Y0107750D01*
X0218300Y0109097D01*
X0218300Y0111003D01*
X0216953Y0112350D01*
X0215047Y0112350D01*
X0214500Y0111803D01*
X0213953Y0112350D01*
X0212047Y0112350D01*
X0210700Y0111003D01*
X0210700Y0109097D01*
X0210700Y0109849D02*
X0192300Y0109849D01*
X0192300Y0110648D02*
X0210700Y0110648D01*
X0211143Y0111446D02*
X0191857Y0111446D01*
X0192447Y0112245D02*
X0211942Y0112245D01*
X0214058Y0112245D02*
X0214942Y0112245D01*
X0217058Y0112245D02*
X0252100Y0112245D01*
X0252100Y0113043D02*
X0192800Y0113043D01*
X0192800Y0113842D02*
X0252100Y0113842D01*
X0252100Y0114640D02*
X0192663Y0114640D01*
X0192641Y0115439D02*
X0252100Y0115439D01*
X0252100Y0116237D02*
X0192800Y0116237D01*
X0192800Y0117036D02*
X0252100Y0117036D01*
X0252100Y0117834D02*
X0192469Y0117834D01*
X0191670Y0118633D02*
X0234954Y0118633D01*
X0234140Y0118970D02*
X0232719Y0120390D01*
X0231950Y0122246D01*
X0231950Y0124255D01*
X0232719Y0126111D01*
X0234140Y0127532D01*
X0235996Y0128300D01*
X0238004Y0128300D01*
X0239860Y0127532D01*
X0241281Y0126111D01*
X0242050Y0124255D01*
X0242050Y0122246D01*
X0241281Y0120390D01*
X0239860Y0118970D01*
X0238004Y0118201D01*
X0235996Y0118201D01*
X0234140Y0118970D01*
X0233678Y0119431D02*
X0109872Y0119431D01*
X0109453Y0119850D02*
X0107547Y0119850D01*
X0106200Y0118503D01*
X0106200Y0116597D01*
X0107547Y0115250D01*
X0109453Y0115250D01*
X0110800Y0116597D01*
X0110800Y0118503D01*
X0109453Y0119850D01*
X0110670Y0118633D02*
X0189330Y0118633D01*
X0188531Y0117834D02*
X0110800Y0117834D01*
X0110800Y0117036D02*
X0188200Y0117036D01*
X0188200Y0116237D02*
X0156566Y0116237D01*
X0156453Y0116350D02*
X0154547Y0116350D01*
X0153200Y0115003D01*
X0153200Y0113097D01*
X0154547Y0111750D01*
X0156453Y0111750D01*
X0157800Y0113097D01*
X0157800Y0115003D01*
X0156453Y0116350D01*
X0157364Y0115439D02*
X0188359Y0115439D01*
X0188337Y0114640D02*
X0157800Y0114640D01*
X0157800Y0113842D02*
X0188200Y0113842D01*
X0188200Y0113043D02*
X0157746Y0113043D01*
X0156947Y0112245D02*
X0185942Y0112245D01*
X0185143Y0111446D02*
X0152300Y0111446D01*
X0152300Y0112003D02*
X0152300Y0110097D01*
X0150953Y0108750D01*
X0149047Y0108750D01*
X0147700Y0110097D01*
X0147700Y0112003D01*
X0149047Y0113350D01*
X0150953Y0113350D01*
X0152300Y0112003D01*
X0152058Y0112245D02*
X0154053Y0112245D01*
X0153254Y0113043D02*
X0151260Y0113043D01*
X0153200Y0113842D02*
X0099544Y0113842D01*
X0099453Y0113750D02*
X0100800Y0115097D01*
X0100800Y0117003D01*
X0099453Y0118350D01*
X0098300Y0118350D01*
X0098300Y0118503D01*
X0096953Y0119850D01*
X0095047Y0119850D01*
X0093700Y0118503D01*
X0093700Y0116597D01*
X0095047Y0115250D01*
X0096200Y0115250D01*
X0096200Y0115097D01*
X0097547Y0113750D01*
X0099453Y0113750D01*
X0100343Y0114640D02*
X0153200Y0114640D01*
X0153636Y0115439D02*
X0109641Y0115439D01*
X0110440Y0116237D02*
X0154434Y0116237D01*
X0148740Y0113043D02*
X0092650Y0113043D01*
X0092650Y0112245D02*
X0099942Y0112245D01*
X0100547Y0112850D02*
X0099200Y0111503D01*
X0099200Y0109597D01*
X0100547Y0108250D01*
X0102453Y0108250D01*
X0103800Y0109597D01*
X0103800Y0111503D01*
X0102453Y0112850D01*
X0100547Y0112850D01*
X0099200Y0111446D02*
X0092650Y0111446D01*
X0092650Y0110648D02*
X0099200Y0110648D01*
X0099200Y0109849D02*
X0092650Y0109849D01*
X0092650Y0109051D02*
X0099747Y0109051D01*
X0100545Y0108252D02*
X0092650Y0108252D01*
X0092650Y0107453D02*
X0252100Y0107453D01*
X0252100Y0108252D02*
X0217455Y0108252D01*
X0218253Y0109051D02*
X0252100Y0109051D01*
X0252100Y0109849D02*
X0218300Y0109849D01*
X0218300Y0110648D02*
X0252100Y0110648D01*
X0252100Y0111446D02*
X0217857Y0111446D01*
X0214545Y0108252D02*
X0214455Y0108252D01*
X0206352Y0106655D02*
X0092650Y0106655D01*
X0092650Y0105856D02*
X0205700Y0105856D01*
X0195395Y0101864D02*
X0132067Y0101864D01*
X0128933Y0101864D02*
X0092650Y0101864D01*
X0092650Y0102662D02*
X0128200Y0102662D01*
X0128200Y0103461D02*
X0092650Y0103461D01*
X0092650Y0104259D02*
X0128200Y0104259D01*
X0128755Y0105058D02*
X0092650Y0105058D01*
X0086935Y0101065D02*
X0195350Y0101065D01*
X0195350Y0100267D02*
X0086650Y0100267D01*
X0086650Y0099468D02*
X0153166Y0099468D01*
X0153547Y0099850D02*
X0152200Y0098503D01*
X0152200Y0096597D01*
X0153547Y0095250D01*
X0155453Y0095250D01*
X0156800Y0096597D01*
X0156800Y0098503D01*
X0155453Y0099850D01*
X0153547Y0099850D01*
X0152367Y0098670D02*
X0107633Y0098670D01*
X0108300Y0098003D02*
X0106953Y0099350D01*
X0105047Y0099350D01*
X0103700Y0098003D01*
X0103700Y0096097D01*
X0104247Y0095550D01*
X0103700Y0095003D01*
X0103700Y0093097D01*
X0103997Y0092800D01*
X0103700Y0092503D01*
X0103700Y0090597D01*
X0105047Y0089250D01*
X0106953Y0089250D01*
X0108300Y0090597D01*
X0108300Y0092503D01*
X0108003Y0092800D01*
X0108300Y0093097D01*
X0108300Y0095003D01*
X0107753Y0095550D01*
X0108300Y0096097D01*
X0108300Y0098003D01*
X0108300Y0097871D02*
X0152200Y0097871D01*
X0152200Y0097073D02*
X0108300Y0097073D01*
X0108300Y0096274D02*
X0152523Y0096274D01*
X0153321Y0095476D02*
X0107827Y0095476D01*
X0108300Y0094677D02*
X0169700Y0094677D01*
X0169700Y0093879D02*
X0108300Y0093879D01*
X0108283Y0093080D02*
X0170217Y0093080D01*
X0169700Y0093597D02*
X0171047Y0092250D01*
X0172953Y0092250D01*
X0174300Y0093597D01*
X0174300Y0095503D01*
X0172953Y0096850D01*
X0171047Y0096850D01*
X0169700Y0095503D01*
X0169700Y0093597D01*
X0171016Y0092282D02*
X0108300Y0092282D01*
X0108300Y0091483D02*
X0187181Y0091483D01*
X0187547Y0091850D02*
X0186200Y0090503D01*
X0186200Y0088597D01*
X0187547Y0087250D01*
X0189200Y0087250D01*
X0189200Y0086097D01*
X0189747Y0085550D01*
X0189700Y0085503D01*
X0189700Y0083597D01*
X0191047Y0082250D01*
X0192953Y0082250D01*
X0194300Y0083597D01*
X0194300Y0085503D01*
X0193753Y0086050D01*
X0193800Y0086097D01*
X0193800Y0088003D01*
X0192453Y0089350D01*
X0190800Y0089350D01*
X0190800Y0090497D01*
X0191547Y0089750D01*
X0193453Y0089750D01*
X0194800Y0091097D01*
X0194800Y0093003D01*
X0193453Y0094350D01*
X0191547Y0094350D01*
X0190200Y0093003D01*
X0190200Y0091103D01*
X0189453Y0091850D01*
X0187547Y0091850D01*
X0186382Y0090685D02*
X0108300Y0090685D01*
X0107589Y0089886D02*
X0186200Y0089886D01*
X0186200Y0089088D02*
X0086650Y0089088D01*
X0086650Y0089886D02*
X0104411Y0089886D01*
X0103700Y0090685D02*
X0086650Y0090685D01*
X0086650Y0091483D02*
X0103700Y0091483D01*
X0103700Y0092282D02*
X0086650Y0092282D01*
X0083783Y0093080D02*
X0103717Y0093080D01*
X0103700Y0093879D02*
X0083800Y0093879D01*
X0083800Y0094677D02*
X0103700Y0094677D01*
X0104173Y0095476D02*
X0086345Y0095476D01*
X0086650Y0096274D02*
X0103700Y0096274D01*
X0103700Y0097073D02*
X0086650Y0097073D01*
X0086650Y0097871D02*
X0103700Y0097871D01*
X0104367Y0098670D02*
X0086650Y0098670D01*
X0079200Y0094677D02*
X0005900Y0094677D01*
X0005900Y0093879D02*
X0079200Y0093879D01*
X0079217Y0093080D02*
X0005900Y0093080D01*
X0005900Y0092282D02*
X0074313Y0092282D01*
X0073514Y0091483D02*
X0005900Y0091483D01*
X0005900Y0090685D02*
X0073350Y0090685D01*
X0073350Y0089886D02*
X0005900Y0089886D01*
X0005900Y0089088D02*
X0027785Y0089088D01*
X0028047Y0089350D02*
X0026700Y0088003D01*
X0026700Y0086097D01*
X0028047Y0084750D01*
X0029953Y0084750D01*
X0031300Y0086097D01*
X0031300Y0088003D01*
X0029953Y0089350D01*
X0028047Y0089350D01*
X0026987Y0088289D02*
X0005900Y0088289D01*
X0005900Y0087491D02*
X0026700Y0087491D01*
X0026700Y0086692D02*
X0005900Y0086692D01*
X0005900Y0085894D02*
X0026904Y0085894D01*
X0027702Y0085095D02*
X0005900Y0085095D01*
X0005900Y0084297D02*
X0054200Y0084297D01*
X0054200Y0083597D02*
X0055547Y0082250D01*
X0057453Y0082250D01*
X0058800Y0083597D01*
X0058800Y0085503D01*
X0057453Y0086850D01*
X0055547Y0086850D01*
X0054200Y0085503D01*
X0054200Y0083597D01*
X0054299Y0083498D02*
X0005900Y0083498D01*
X0005900Y0082700D02*
X0055098Y0082700D01*
X0057902Y0082700D02*
X0079350Y0082700D01*
X0079350Y0081901D02*
X0067902Y0081901D01*
X0067453Y0082350D02*
X0065547Y0082350D01*
X0064200Y0081003D01*
X0064200Y0079097D01*
X0065547Y0077750D01*
X0067453Y0077750D01*
X0068800Y0079097D01*
X0068800Y0081003D01*
X0067453Y0082350D01*
X0068700Y0081103D02*
X0079350Y0081103D01*
X0079350Y0080304D02*
X0068800Y0080304D01*
X0068800Y0079506D02*
X0079350Y0079506D01*
X0079424Y0078707D02*
X0068410Y0078707D01*
X0067611Y0077909D02*
X0080222Y0077909D01*
X0083021Y0077110D02*
X0031300Y0077110D01*
X0031300Y0076312D02*
X0083350Y0076312D01*
X0083350Y0075513D02*
X0030716Y0075513D01*
X0031300Y0076097D02*
X0029953Y0074750D01*
X0028047Y0074750D01*
X0026700Y0076097D01*
X0026700Y0078003D01*
X0028047Y0079350D01*
X0029953Y0079350D01*
X0031300Y0078003D01*
X0031300Y0076097D01*
X0031300Y0077909D02*
X0065389Y0077909D01*
X0064590Y0078707D02*
X0030596Y0078707D01*
X0027404Y0078707D02*
X0005900Y0078707D01*
X0005900Y0077909D02*
X0026700Y0077909D01*
X0026700Y0077110D02*
X0005900Y0077110D01*
X0005900Y0076312D02*
X0026700Y0076312D01*
X0027284Y0075513D02*
X0005900Y0075513D01*
X0005900Y0074715D02*
X0083416Y0074715D01*
X0084215Y0073916D02*
X0005900Y0073916D01*
X0005900Y0073118D02*
X0096315Y0073118D01*
X0094516Y0072319D02*
X0005900Y0072319D01*
X0005900Y0071520D02*
X0093718Y0071520D01*
X0093700Y0070722D02*
X0005900Y0070722D01*
X0005900Y0063535D02*
X0083566Y0063535D01*
X0083350Y0062737D02*
X0005900Y0062737D01*
X0005900Y0061938D02*
X0083350Y0061938D01*
X0083350Y0061140D02*
X0005900Y0061140D01*
X0005900Y0060341D02*
X0083350Y0060341D01*
X0083350Y0059543D02*
X0005900Y0059543D01*
X0005900Y0058744D02*
X0027442Y0058744D01*
X0028047Y0059350D02*
X0026700Y0058003D01*
X0026700Y0056097D01*
X0028047Y0054750D01*
X0029953Y0054750D01*
X0031300Y0056097D01*
X0031300Y0058003D01*
X0029953Y0059350D01*
X0028047Y0059350D01*
X0026700Y0057946D02*
X0005900Y0057946D01*
X0005900Y0057147D02*
X0026700Y0057147D01*
X0026700Y0056349D02*
X0005900Y0056349D01*
X0005900Y0055550D02*
X0027247Y0055550D01*
X0028046Y0054752D02*
X0005900Y0054752D01*
X0005900Y0053953D02*
X0083350Y0053953D01*
X0083350Y0054752D02*
X0029954Y0054752D01*
X0030753Y0055550D02*
X0083350Y0055550D01*
X0083350Y0056349D02*
X0031300Y0056349D01*
X0031300Y0057147D02*
X0083350Y0057147D01*
X0083350Y0057946D02*
X0031300Y0057946D01*
X0030558Y0058744D02*
X0083350Y0058744D01*
X0083185Y0053155D02*
X0005900Y0053155D01*
X0005900Y0052356D02*
X0082387Y0052356D01*
X0081588Y0051558D02*
X0005900Y0051558D01*
X0005900Y0050759D02*
X0080790Y0050759D01*
X0086650Y0046767D02*
X0172531Y0046767D01*
X0173047Y0046250D02*
X0174953Y0046250D01*
X0175953Y0047250D01*
X0177453Y0047250D01*
X0178800Y0048597D01*
X0178800Y0050503D01*
X0177453Y0051850D01*
X0175547Y0051850D01*
X0174547Y0050850D01*
X0173047Y0050850D01*
X0171700Y0049503D01*
X0171700Y0047597D01*
X0173047Y0046250D01*
X0171732Y0047565D02*
X0131768Y0047565D01*
X0131453Y0047250D02*
X0132800Y0048597D01*
X0132800Y0050503D01*
X0131453Y0051850D01*
X0129547Y0051850D01*
X0128200Y0050503D01*
X0128200Y0048597D01*
X0129547Y0047250D01*
X0131453Y0047250D01*
X0132566Y0048364D02*
X0171700Y0048364D01*
X0171700Y0049162D02*
X0132800Y0049162D01*
X0132800Y0049961D02*
X0172158Y0049961D01*
X0172957Y0050759D02*
X0132543Y0050759D01*
X0131745Y0051558D02*
X0175255Y0051558D01*
X0177745Y0051558D02*
X0180755Y0051558D01*
X0179957Y0050759D02*
X0178543Y0050759D01*
X0178800Y0049961D02*
X0179700Y0049961D01*
X0179700Y0049162D02*
X0178800Y0049162D01*
X0178566Y0048364D02*
X0179934Y0048364D01*
X0180732Y0047565D02*
X0177768Y0047565D01*
X0175469Y0046767D02*
X0183531Y0046767D01*
X0186800Y0049961D02*
X0207337Y0049961D01*
X0206538Y0050759D02*
X0186043Y0050759D01*
X0183245Y0051558D02*
X0206200Y0051558D01*
X0206200Y0052356D02*
X0092650Y0052356D01*
X0092650Y0051558D02*
X0129255Y0051558D01*
X0128457Y0050759D02*
X0092650Y0050759D01*
X0092650Y0049961D02*
X0128200Y0049961D01*
X0128200Y0049162D02*
X0092650Y0049162D01*
X0092650Y0048364D02*
X0128434Y0048364D01*
X0129232Y0047565D02*
X0092434Y0047565D01*
X0092650Y0053155D02*
X0206352Y0053155D01*
X0207151Y0053953D02*
X0165156Y0053953D01*
X0164953Y0053750D02*
X0165500Y0054297D01*
X0165547Y0054250D01*
X0167453Y0054250D01*
X0168800Y0055597D01*
X0168800Y0057503D01*
X0167453Y0058850D01*
X0165547Y0058850D01*
X0165000Y0058303D01*
X0164953Y0058350D01*
X0163047Y0058350D01*
X0161700Y0057003D01*
X0161700Y0055097D01*
X0163047Y0053750D01*
X0164953Y0053750D01*
X0162844Y0053953D02*
X0092650Y0053953D01*
X0092650Y0054752D02*
X0149046Y0054752D01*
X0148247Y0055550D02*
X0092650Y0055550D01*
X0097044Y0060341D02*
X0097456Y0060341D01*
X0099544Y0060341D02*
X0101039Y0060341D01*
X0100343Y0061140D02*
X0252100Y0061140D01*
X0252100Y0061938D02*
X0160141Y0061938D01*
X0160800Y0062737D02*
X0252100Y0062737D01*
X0252100Y0063535D02*
X0165738Y0063535D01*
X0166300Y0064097D02*
X0164953Y0062750D01*
X0163047Y0062750D01*
X0161700Y0064097D01*
X0161700Y0066003D01*
X0163047Y0067350D01*
X0164953Y0067350D01*
X0166300Y0066003D01*
X0166300Y0064097D01*
X0166300Y0064334D02*
X0252100Y0064334D01*
X0252100Y0065132D02*
X0166300Y0065132D01*
X0166300Y0065931D02*
X0252100Y0065931D01*
X0252100Y0066729D02*
X0165573Y0066729D01*
X0163529Y0068326D02*
X0252100Y0068326D01*
X0252100Y0067528D02*
X0161731Y0067528D01*
X0162427Y0066729D02*
X0160932Y0066729D01*
X0160300Y0065931D02*
X0161700Y0065931D01*
X0161700Y0065132D02*
X0160170Y0065132D01*
X0160800Y0064334D02*
X0161700Y0064334D01*
X0162262Y0063535D02*
X0160800Y0063535D01*
X0156859Y0061938D02*
X0109141Y0061938D01*
X0108953Y0061750D02*
X0110300Y0063097D01*
X0110300Y0065003D01*
X0108953Y0066350D01*
X0107047Y0066350D01*
X0105700Y0065003D01*
X0105700Y0063097D01*
X0107047Y0061750D01*
X0108953Y0061750D01*
X0109940Y0062737D02*
X0156200Y0062737D01*
X0156200Y0063535D02*
X0110300Y0063535D01*
X0110300Y0064334D02*
X0117963Y0064334D01*
X0117165Y0065132D02*
X0110170Y0065132D01*
X0109372Y0065931D02*
X0116700Y0065931D01*
X0116700Y0066729D02*
X0031300Y0066729D01*
X0031300Y0067528D02*
X0116725Y0067528D01*
X0119328Y0069125D02*
X0153822Y0069125D01*
X0153024Y0068326D02*
X0120476Y0068326D01*
X0121275Y0067528D02*
X0152700Y0067528D01*
X0152700Y0066729D02*
X0121300Y0066729D01*
X0121300Y0065931D02*
X0152866Y0065931D01*
X0153665Y0065132D02*
X0120835Y0065132D01*
X0120037Y0064334D02*
X0156200Y0064334D01*
X0156178Y0069125D02*
X0157200Y0069125D01*
X0157621Y0069923D02*
X0120126Y0069923D01*
X0120300Y0070722D02*
X0158419Y0070722D01*
X0160218Y0071520D02*
X0123223Y0071520D01*
X0124022Y0072319D02*
X0161016Y0072319D01*
X0162984Y0072319D02*
X0164516Y0072319D01*
X0164200Y0071520D02*
X0163782Y0071520D01*
X0164300Y0069923D02*
X0164374Y0069923D01*
X0164300Y0069125D02*
X0165172Y0069125D01*
X0165315Y0073118D02*
X0124300Y0073118D01*
X0124300Y0073916D02*
X0202881Y0073916D01*
X0204300Y0072319D02*
X0204478Y0072319D01*
X0204300Y0071520D02*
X0205277Y0071520D01*
X0206200Y0070722D02*
X0204300Y0070722D01*
X0203626Y0069923D02*
X0206874Y0069923D01*
X0208800Y0073916D02*
X0216881Y0073916D01*
X0216700Y0074715D02*
X0208588Y0074715D01*
X0207790Y0075513D02*
X0216700Y0075513D01*
X0217009Y0076312D02*
X0206800Y0076312D01*
X0206193Y0077110D02*
X0217807Y0077110D01*
X0217680Y0073118D02*
X0210185Y0073118D01*
X0199700Y0077110D02*
X0092650Y0077110D01*
X0092650Y0077909D02*
X0195722Y0077909D01*
X0195350Y0078707D02*
X0092650Y0078707D01*
X0092650Y0079506D02*
X0148292Y0079506D01*
X0147700Y0080097D02*
X0149047Y0078750D01*
X0150953Y0078750D01*
X0152300Y0080097D01*
X0152300Y0081250D01*
X0152953Y0081250D01*
X0154300Y0082597D01*
X0154300Y0084503D01*
X0152953Y0085850D01*
X0151047Y0085850D01*
X0149700Y0084503D01*
X0149700Y0083350D01*
X0149047Y0083350D01*
X0147700Y0082003D01*
X0147700Y0080097D01*
X0147700Y0080304D02*
X0092650Y0080304D01*
X0092650Y0081103D02*
X0147700Y0081103D01*
X0147700Y0081901D02*
X0092650Y0081901D01*
X0092650Y0082700D02*
X0148397Y0082700D01*
X0149700Y0083498D02*
X0133201Y0083498D01*
X0133800Y0084097D02*
X0132453Y0082750D01*
X0130547Y0082750D01*
X0129200Y0084097D01*
X0129200Y0086003D01*
X0130547Y0087350D01*
X0132453Y0087350D01*
X0133800Y0086003D01*
X0133800Y0084097D01*
X0133800Y0084297D02*
X0149700Y0084297D01*
X0150292Y0085095D02*
X0133800Y0085095D01*
X0133800Y0085894D02*
X0179091Y0085894D01*
X0178700Y0085503D02*
X0178700Y0083597D01*
X0180047Y0082250D01*
X0181953Y0082250D01*
X0182250Y0082547D01*
X0182547Y0082250D01*
X0184453Y0082250D01*
X0185800Y0083597D01*
X0185800Y0085503D01*
X0184453Y0086850D01*
X0182547Y0086850D01*
X0182250Y0086553D01*
X0181953Y0086850D01*
X0180047Y0086850D01*
X0178700Y0085503D01*
X0178700Y0085095D02*
X0165707Y0085095D01*
X0166300Y0084503D02*
X0164953Y0085850D01*
X0163047Y0085850D01*
X0161700Y0084503D01*
X0161700Y0082597D01*
X0163047Y0081250D01*
X0164953Y0081250D01*
X0166300Y0082597D01*
X0166300Y0084503D01*
X0166300Y0084297D02*
X0178700Y0084297D01*
X0178799Y0083498D02*
X0166300Y0083498D01*
X0166300Y0082700D02*
X0179598Y0082700D01*
X0184902Y0082700D02*
X0190598Y0082700D01*
X0189799Y0083498D02*
X0185701Y0083498D01*
X0185800Y0084297D02*
X0189700Y0084297D01*
X0189700Y0085095D02*
X0185800Y0085095D01*
X0185409Y0085894D02*
X0189404Y0085894D01*
X0189200Y0086692D02*
X0184610Y0086692D01*
X0182390Y0086692D02*
X0182110Y0086692D01*
X0179890Y0086692D02*
X0133110Y0086692D01*
X0129890Y0086692D02*
X0092277Y0086692D01*
X0092650Y0085894D02*
X0129200Y0085894D01*
X0129200Y0085095D02*
X0092650Y0085095D01*
X0092650Y0084297D02*
X0129200Y0084297D01*
X0129799Y0083498D02*
X0092650Y0083498D01*
X0086650Y0087491D02*
X0187307Y0087491D01*
X0186508Y0088289D02*
X0086650Y0088289D01*
X0073119Y0089088D02*
X0030215Y0089088D01*
X0031013Y0088289D02*
X0069350Y0088289D01*
X0069350Y0087491D02*
X0031300Y0087491D01*
X0031300Y0086692D02*
X0055390Y0086692D01*
X0054591Y0085894D02*
X0031096Y0085894D01*
X0030298Y0085095D02*
X0054200Y0085095D01*
X0057610Y0086692D02*
X0069350Y0086692D01*
X0069350Y0085894D02*
X0058409Y0085894D01*
X0058800Y0085095D02*
X0069350Y0085095D01*
X0069350Y0084297D02*
X0058800Y0084297D01*
X0058701Y0083498D02*
X0069633Y0083498D01*
X0065098Y0081901D02*
X0005900Y0081901D01*
X0005900Y0081103D02*
X0064300Y0081103D01*
X0064200Y0080304D02*
X0005900Y0080304D01*
X0005900Y0079506D02*
X0064200Y0079506D01*
X0074655Y0095476D02*
X0030679Y0095476D01*
X0031300Y0096097D02*
X0029953Y0094750D01*
X0028047Y0094750D01*
X0026700Y0096097D01*
X0026700Y0098003D01*
X0028047Y0099350D01*
X0029953Y0099350D01*
X0031300Y0098003D01*
X0031300Y0096097D01*
X0031300Y0096274D02*
X0073856Y0096274D01*
X0073350Y0097073D02*
X0031300Y0097073D01*
X0031300Y0097871D02*
X0073350Y0097871D01*
X0073350Y0098670D02*
X0030633Y0098670D01*
X0027367Y0098670D02*
X0005900Y0098670D01*
X0005900Y0099468D02*
X0070162Y0099468D01*
X0069364Y0100267D02*
X0005900Y0100267D01*
X0005900Y0101065D02*
X0069350Y0101065D01*
X0069350Y0101864D02*
X0005900Y0101864D01*
X0005900Y0102662D02*
X0069350Y0102662D01*
X0069350Y0103461D02*
X0005900Y0103461D01*
X0005900Y0104259D02*
X0069790Y0104259D01*
X0081089Y0105058D02*
X0030261Y0105058D01*
X0029953Y0104750D02*
X0031300Y0106097D01*
X0031300Y0108003D01*
X0029953Y0109350D01*
X0028047Y0109350D01*
X0026700Y0108003D01*
X0026700Y0106097D01*
X0028047Y0104750D01*
X0029953Y0104750D01*
X0031059Y0105856D02*
X0081887Y0105856D01*
X0082686Y0106655D02*
X0031300Y0106655D01*
X0031300Y0107453D02*
X0083350Y0107453D01*
X0083350Y0108252D02*
X0031051Y0108252D01*
X0030252Y0109051D02*
X0083350Y0109051D01*
X0083350Y0109849D02*
X0005900Y0109849D01*
X0005900Y0109051D02*
X0027748Y0109051D01*
X0026949Y0108252D02*
X0005900Y0108252D01*
X0005900Y0107453D02*
X0026700Y0107453D01*
X0026700Y0106655D02*
X0005900Y0106655D01*
X0005900Y0105856D02*
X0026941Y0105856D01*
X0027739Y0105058D02*
X0005900Y0105058D01*
X0005900Y0110648D02*
X0083350Y0110648D01*
X0083350Y0111446D02*
X0005900Y0111446D01*
X0005900Y0112245D02*
X0083350Y0112245D01*
X0083350Y0113043D02*
X0005900Y0113043D01*
X0005900Y0113842D02*
X0083350Y0113842D01*
X0083350Y0114640D02*
X0005900Y0114640D01*
X0005900Y0115439D02*
X0083350Y0115439D01*
X0083350Y0116237D02*
X0005900Y0116237D01*
X0005900Y0117036D02*
X0083350Y0117036D01*
X0083865Y0117834D02*
X0005900Y0117834D01*
X0005900Y0118633D02*
X0084663Y0118633D01*
X0087337Y0118633D02*
X0093830Y0118633D01*
X0093700Y0117834D02*
X0088135Y0117834D01*
X0088650Y0117036D02*
X0093700Y0117036D01*
X0094060Y0116237D02*
X0088650Y0116237D01*
X0088650Y0115439D02*
X0094859Y0115439D01*
X0096657Y0114640D02*
X0091329Y0114640D01*
X0092128Y0113842D02*
X0097456Y0113842D01*
X0100800Y0115439D02*
X0107359Y0115439D01*
X0106560Y0116237D02*
X0100800Y0116237D01*
X0100767Y0117036D02*
X0106200Y0117036D01*
X0106200Y0117834D02*
X0099969Y0117834D01*
X0098170Y0118633D02*
X0106330Y0118633D01*
X0107128Y0119431D02*
X0097372Y0119431D01*
X0094628Y0119431D02*
X0005900Y0119431D01*
X0005900Y0120230D02*
X0232880Y0120230D01*
X0232455Y0121028D02*
X0005900Y0121028D01*
X0005900Y0121827D02*
X0114971Y0121827D01*
X0115047Y0121750D02*
X0116953Y0121750D01*
X0118300Y0123097D01*
X0118300Y0125003D01*
X0116953Y0126350D01*
X0115047Y0126350D01*
X0113700Y0125003D01*
X0113700Y0123097D01*
X0115047Y0121750D01*
X0114172Y0122625D02*
X0005900Y0122625D01*
X0005900Y0123424D02*
X0113700Y0123424D01*
X0113700Y0124222D02*
X0005900Y0124222D01*
X0005900Y0125021D02*
X0113718Y0125021D01*
X0114517Y0125819D02*
X0005900Y0125819D01*
X0005900Y0126618D02*
X0233226Y0126618D01*
X0232598Y0125819D02*
X0135483Y0125819D01*
X0134953Y0126350D02*
X0133047Y0126350D01*
X0132500Y0125803D01*
X0131953Y0126350D01*
X0130047Y0126350D01*
X0128700Y0125003D01*
X0128700Y0123097D01*
X0130047Y0121750D01*
X0131953Y0121750D01*
X0132500Y0122297D01*
X0133047Y0121750D01*
X0134953Y0121750D01*
X0136300Y0123097D01*
X0136300Y0125003D01*
X0134953Y0126350D01*
X0136282Y0125021D02*
X0232267Y0125021D01*
X0231950Y0124222D02*
X0136300Y0124222D01*
X0136300Y0123424D02*
X0231950Y0123424D01*
X0231950Y0122625D02*
X0135828Y0122625D01*
X0135029Y0121827D02*
X0232124Y0121827D01*
X0239046Y0118633D02*
X0252100Y0118633D01*
X0252100Y0119431D02*
X0240322Y0119431D01*
X0241120Y0120230D02*
X0252100Y0120230D01*
X0252100Y0121028D02*
X0241545Y0121028D01*
X0241876Y0121827D02*
X0252100Y0121827D01*
X0252100Y0122625D02*
X0242050Y0122625D01*
X0242050Y0123424D02*
X0252100Y0123424D01*
X0252100Y0124222D02*
X0242050Y0124222D01*
X0241733Y0125021D02*
X0252100Y0125021D01*
X0252100Y0125819D02*
X0241402Y0125819D01*
X0240774Y0126618D02*
X0252100Y0126618D01*
X0251947Y0127416D02*
X0239976Y0127416D01*
X0238211Y0128215D02*
X0251148Y0128215D01*
X0250350Y0129013D02*
X0007650Y0129013D01*
X0006852Y0128215D02*
X0235789Y0128215D01*
X0234024Y0127416D02*
X0006053Y0127416D01*
X0008449Y0129812D02*
X0249551Y0129812D01*
X0195350Y0099468D02*
X0163334Y0099468D01*
X0162953Y0099850D02*
X0161047Y0099850D01*
X0159700Y0098503D01*
X0159700Y0096597D01*
X0161047Y0095250D01*
X0162953Y0095250D01*
X0164300Y0096597D01*
X0164300Y0098503D01*
X0162953Y0099850D01*
X0164133Y0098670D02*
X0195350Y0098670D01*
X0195350Y0097871D02*
X0164300Y0097871D01*
X0164300Y0097073D02*
X0195350Y0097073D01*
X0195350Y0096274D02*
X0173528Y0096274D01*
X0174300Y0095476D02*
X0195350Y0095476D01*
X0195350Y0094677D02*
X0174300Y0094677D01*
X0174300Y0093879D02*
X0191076Y0093879D01*
X0190278Y0093080D02*
X0173783Y0093080D01*
X0172984Y0092282D02*
X0190200Y0092282D01*
X0190200Y0091483D02*
X0189819Y0091483D01*
X0190800Y0089886D02*
X0191411Y0089886D01*
X0192715Y0089088D02*
X0195350Y0089088D01*
X0195350Y0089886D02*
X0193589Y0089886D01*
X0194387Y0090685D02*
X0195350Y0090685D01*
X0195350Y0091483D02*
X0194800Y0091483D01*
X0194800Y0092282D02*
X0195350Y0092282D01*
X0195350Y0093080D02*
X0194722Y0093080D01*
X0195350Y0093879D02*
X0193924Y0093879D01*
X0193513Y0088289D02*
X0195350Y0088289D01*
X0195350Y0087491D02*
X0193800Y0087491D01*
X0193800Y0086692D02*
X0195350Y0086692D01*
X0195350Y0085894D02*
X0193909Y0085894D01*
X0194300Y0085095D02*
X0195350Y0085095D01*
X0195350Y0084297D02*
X0194300Y0084297D01*
X0194201Y0083498D02*
X0195350Y0083498D01*
X0195350Y0082700D02*
X0193402Y0082700D01*
X0195350Y0081901D02*
X0165604Y0081901D01*
X0162396Y0081901D02*
X0153604Y0081901D01*
X0154300Y0082700D02*
X0161700Y0082700D01*
X0161700Y0083498D02*
X0154300Y0083498D01*
X0154300Y0084297D02*
X0161700Y0084297D01*
X0162292Y0085095D02*
X0153707Y0085095D01*
X0152300Y0081103D02*
X0195350Y0081103D01*
X0195350Y0080304D02*
X0152300Y0080304D01*
X0151708Y0079506D02*
X0195350Y0079506D01*
X0205650Y0082700D02*
X0219598Y0082700D01*
X0218799Y0083498D02*
X0205650Y0083498D01*
X0205650Y0084297D02*
X0218700Y0084297D01*
X0218700Y0085095D02*
X0205650Y0085095D01*
X0208596Y0085894D02*
X0219091Y0085894D01*
X0219890Y0086692D02*
X0209300Y0086692D01*
X0209300Y0087491D02*
X0219807Y0087491D01*
X0219008Y0088289D02*
X0209300Y0088289D01*
X0208715Y0089088D02*
X0218700Y0089088D01*
X0218700Y0089886D02*
X0205650Y0089886D01*
X0205650Y0090685D02*
X0218882Y0090685D01*
X0219681Y0091483D02*
X0205650Y0091483D01*
X0205650Y0092282D02*
X0220016Y0092282D01*
X0219217Y0093080D02*
X0205650Y0093080D01*
X0205650Y0093879D02*
X0218700Y0093879D01*
X0218700Y0094677D02*
X0205650Y0094677D01*
X0205650Y0095476D02*
X0218700Y0095476D01*
X0219472Y0096274D02*
X0205650Y0096274D01*
X0188545Y0108252D02*
X0188455Y0108252D01*
X0185545Y0108252D02*
X0102455Y0108252D01*
X0103253Y0109051D02*
X0148747Y0109051D01*
X0147948Y0109849D02*
X0103800Y0109849D01*
X0103800Y0110648D02*
X0147700Y0110648D01*
X0147700Y0111446D02*
X0103800Y0111446D01*
X0103058Y0112245D02*
X0147942Y0112245D01*
X0151253Y0109051D02*
X0184747Y0109051D01*
X0184700Y0109849D02*
X0152052Y0109849D01*
X0152300Y0110648D02*
X0184700Y0110648D01*
X0188058Y0112245D02*
X0188553Y0112245D01*
X0170472Y0096274D02*
X0163977Y0096274D01*
X0163179Y0095476D02*
X0169700Y0095476D01*
X0160821Y0095476D02*
X0155679Y0095476D01*
X0156477Y0096274D02*
X0160023Y0096274D01*
X0159700Y0097073D02*
X0156800Y0097073D01*
X0156800Y0097871D02*
X0159700Y0097871D01*
X0159867Y0098670D02*
X0156633Y0098670D01*
X0155834Y0099468D02*
X0160666Y0099468D01*
X0132971Y0121827D02*
X0132029Y0121827D01*
X0129971Y0121827D02*
X0117029Y0121827D01*
X0117828Y0122625D02*
X0129172Y0122625D01*
X0128700Y0123424D02*
X0118300Y0123424D01*
X0118300Y0124222D02*
X0128700Y0124222D01*
X0128718Y0125021D02*
X0118282Y0125021D01*
X0117483Y0125819D02*
X0129517Y0125819D01*
X0132483Y0125819D02*
X0132517Y0125819D01*
X0120777Y0071520D02*
X0120300Y0071520D01*
X0106628Y0065931D02*
X0031134Y0065931D01*
X0030335Y0065132D02*
X0105830Y0065132D01*
X0105700Y0064334D02*
X0099969Y0064334D01*
X0100767Y0063535D02*
X0105700Y0063535D01*
X0106060Y0062737D02*
X0100800Y0062737D01*
X0100800Y0061938D02*
X0106859Y0061938D01*
X0102961Y0060341D02*
X0252100Y0060341D01*
X0213867Y0045170D02*
X0107133Y0045170D01*
X0107932Y0044371D02*
X0213068Y0044371D01*
X0212700Y0043573D02*
X0108300Y0043573D01*
X0108300Y0042774D02*
X0212700Y0042774D01*
X0212822Y0041976D02*
X0108178Y0041976D01*
X0108126Y0041177D02*
X0213620Y0041177D01*
X0198486Y0034789D02*
X0175300Y0034789D01*
X0175193Y0033990D02*
X0197700Y0033990D01*
X0197700Y0033192D02*
X0174395Y0033192D01*
X0190443Y0032393D02*
X0191242Y0032393D01*
X0191242Y0031595D02*
X0190443Y0031595D01*
X0190443Y0030796D02*
X0191242Y0030796D01*
X0191242Y0029998D02*
X0190443Y0029998D01*
X0190443Y0029199D02*
X0191242Y0029199D01*
X0191243Y0028401D02*
X0201700Y0028401D01*
X0201700Y0027602D02*
X0194765Y0027602D01*
X0194457Y0026804D02*
X0201993Y0026804D01*
X0202792Y0026005D02*
X0193906Y0026005D01*
X0192948Y0025207D02*
X0230200Y0025207D01*
X0230200Y0024408D02*
X0147611Y0024408D01*
X0192480Y0032393D02*
X0197700Y0032393D01*
X0198202Y0031595D02*
X0193666Y0031595D01*
X0194308Y0030796D02*
X0199001Y0030796D01*
X0200299Y0029998D02*
X0194688Y0029998D01*
X0194876Y0029199D02*
X0201098Y0029199D01*
X0206007Y0026804D02*
X0231501Y0026804D01*
X0230703Y0026005D02*
X0205208Y0026005D01*
X0209493Y0005244D02*
X0250507Y0005244D01*
X0249709Y0004446D02*
X0210291Y0004446D01*
X0200046Y0054752D02*
X0167954Y0054752D01*
X0168753Y0055550D02*
X0199247Y0055550D01*
X0199200Y0056349D02*
X0168800Y0056349D01*
X0168800Y0057147D02*
X0199200Y0057147D01*
X0199643Y0057946D02*
X0168357Y0057946D01*
X0167558Y0058744D02*
X0200442Y0058744D01*
X0165442Y0058744D02*
X0151558Y0058744D01*
X0152300Y0057946D02*
X0162643Y0057946D01*
X0161845Y0057147D02*
X0152300Y0057147D01*
X0152300Y0056349D02*
X0161700Y0056349D01*
X0161700Y0055550D02*
X0151753Y0055550D01*
X0150954Y0054752D02*
X0162046Y0054752D01*
X0074155Y0041976D02*
X0058800Y0041976D01*
X0058800Y0042774D02*
X0073357Y0042774D01*
X0073350Y0043573D02*
X0058230Y0043573D01*
X0054770Y0043573D02*
X0005900Y0043573D01*
X0005900Y0044371D02*
X0073350Y0044371D01*
X0072961Y0045170D02*
X0030372Y0045170D01*
X0029953Y0044750D02*
X0031300Y0046097D01*
X0031300Y0048003D01*
X0029953Y0049350D01*
X0028047Y0049350D01*
X0026700Y0048003D01*
X0026700Y0046097D01*
X0028047Y0044750D01*
X0029953Y0044750D01*
X0031171Y0045968D02*
X0070163Y0045968D01*
X0069364Y0046767D02*
X0031300Y0046767D01*
X0031300Y0047565D02*
X0069350Y0047565D01*
X0069350Y0048364D02*
X0030939Y0048364D01*
X0030141Y0049162D02*
X0069350Y0049162D01*
X0069991Y0049961D02*
X0005900Y0049961D01*
X0005900Y0049162D02*
X0027859Y0049162D01*
X0027061Y0048364D02*
X0005900Y0048364D01*
X0005900Y0047565D02*
X0026700Y0047565D01*
X0026700Y0046767D02*
X0005900Y0046767D01*
X0005900Y0045968D02*
X0026829Y0045968D01*
X0027628Y0045170D02*
X0005900Y0045170D01*
X0005900Y0042774D02*
X0054200Y0042774D01*
X0054200Y0041976D02*
X0005900Y0041976D01*
X0005900Y0041177D02*
X0054200Y0041177D01*
X0054919Y0040379D02*
X0005900Y0040379D01*
X0022096Y0025207D02*
X0032404Y0025207D01*
X0031606Y0024408D02*
X0022894Y0024408D01*
X0023300Y0023610D02*
X0031200Y0023610D01*
X0031200Y0022811D02*
X0023300Y0022811D01*
X0023215Y0022013D02*
X0031285Y0022013D01*
X0032083Y0021214D02*
X0022417Y0021214D01*
X0034917Y0021214D02*
X0035083Y0021214D01*
X0035404Y0025207D02*
X0034596Y0025207D01*
X0067768Y0010035D02*
X0071700Y0010035D01*
X0072061Y0009237D02*
X0068566Y0009237D01*
X0027321Y0095476D02*
X0005900Y0095476D01*
X0005900Y0096274D02*
X0026700Y0096274D01*
X0026700Y0097073D02*
X0005900Y0097073D01*
X0005900Y0097871D02*
X0026700Y0097871D01*
M02*
